<?xml version="1.0" encoding="iso-8859-1"?>
<!-- Generator: Adobe Illustrator 19.0.0, SVG Export Plug-In . SVG Version: 6.00 Build 0)  -->
<svg version="1.1" id="Layer_1" xmlns="http://www.w3.org/2000/svg" xmlns:xlink="http://www.w3.org/1999/xlink" x="0px" y="0px"
	 viewBox="0 0 501.946 501.946" style="enable-background:new 0 0 501.946 501.946;" xml:space="preserve">
<path style="fill:#40596B;" d="M485.03,33.832H21.096c-11.494,0-20.898,9.404-20.898,20.898v321.829h501.551V50.55
	C501.749,41.146,494.434,33.832,485.03,33.832z"/>
<path style="fill:#F2F2F2;" d="M0.198,376.559v39.706c0,11.494,9.404,20.898,20.898,20.898h459.755
	c11.494,0,20.898-9.404,20.898-20.898v-39.706H0.198z"/>
<g>
	<circle style="fill:#CDD6E0;" cx="250.973" cy="406.861" r="11.494"/>
	<rect x="154.843" y="437.163" style="fill:#CDD6E0;" width="192.261" height="39.706"/>
</g>
<path style="fill:#F2F2F2;" d="M366.957,476.869H134.989c-11.494,0-20.898,9.404-20.898,20.898v4.18H386.81v-4.18
	C387.855,486.273,378.451,476.869,366.957,476.869z"/>
<rect x="154.843" y="437.163" style="fill:#ACB3BA;" width="192.261" height="15.673"/>
<rect x="33.634" y="64.134" style="fill:#FFFFFF;" width="434.678" height="282.122"/>
<path style="fill:#F2F2F2;" d="M340.834,1.44c-21.943,61.649-64.784,96.131-109.714,132.702l56.424,110.759
	c56.424-14.629,109.714-29.257,171.363-10.449L340.834,1.44z"/>
<path style="fill:#FF7058;" d="M377.406,77.718l36.571,72.098c19.853-10.449,28.212-34.482,17.763-54.335
	S397.259,68.314,377.406,77.718z"/>
<polygon style="fill:#40596B;" points="280.23,248.036 310.532,308.64 272.916,328.493 233.21,281.473 227.985,275.203 "/>
<path style="fill:#ACB3BA;" d="M231.12,134.142l-59.559,30.302c-10.449,5.224-14.629,17.763-9.404,28.212l37.616,73.143
	c5.225,10.449,17.763,14.629,28.212,9.404l59.559-30.302L231.12,134.142z"/>
<path style="fill:#FF7058;" d="M161.112,190.567l-3.135,1.045c-7.314,4.18-10.449,13.584-7.314,20.898l25.078,49.11
	c4.18,7.314,13.584,10.449,20.898,7.314l3.135-1.045L161.112,190.567z"/>
<polygon style="fill:#334A5E;" points="280.23,248.036 284.41,255.35 233.21,281.473 227.985,275.203 "/>
<path style="fill:#ACB3BA;" d="M464.132,216.689L357.553,6.665c-3.135-6.269-10.449-8.359-16.718-5.224
	c-6.269,3.135-8.359,10.449-5.224,16.718l106.58,210.025c3.135,6.269,10.449,8.359,16.718,5.224
	C465.177,230.273,467.267,222.959,464.132,216.689z"/>
<path style="fill:#FFD15C;" d="M194.549,0.395H71.251c-11.494,0-21.943,9.404-21.943,21.943v67.918
	c0,11.494,9.404,21.943,21.943,21.943h86.727l33.437,33.437v-33.437h3.135c11.494,0,21.943-9.404,21.943-21.943V22.338
	C216.492,9.799,206.043,0.395,194.549,0.395z"/>
<g>
	<circle style="fill:#FF7058;" cx="183.055" cy="55.775" r="15.673"/>
	<circle style="fill:#FF7058;" cx="132.9" cy="55.775" r="15.673"/>
	<circle style="fill:#FF7058;" cx="82.745" cy="55.775" r="15.673"/>
</g>
<g>
</g>
<g>
</g>
<g>
</g>
<g>
</g>
<g>
</g>
<g>
</g>
<g>
</g>
<g>
</g>
<g>
</g>
<g>
</g>
<g>
</g>
<g>
</g>
<g>
</g>
<g>
</g>
<g>
</g>
</svg>
