<?xml version="1.0" encoding="iso-8859-1"?>
<!-- Generator: Adobe Illustrator 19.0.0, SVG Export Plug-In . SVG Version: 6.00 Build 0)  -->
<svg version="1.1" id="Layer_1" xmlns="http://www.w3.org/2000/svg" xmlns:xlink="http://www.w3.org/1999/xlink" x="0px" y="0px"
	 viewBox="0 0 501.943 501.943" style="enable-background:new 0 0 501.943 501.943;" xml:space="preserve">
<rect x="146.482" y="388.702" style="fill:#F8B64C;" width="208.98" height="39.706"/>
<g>
	<path style="fill:#FFD05C;" d="M409.796,481.698c0,7.314-4.18,13.584-10.449,17.763c-9.404,5.224-21.943,2.09-27.167-8.359
		l-65.829-120.163l-2.09-4.18l-6.269-11.494l-20.898-39.706h44.931l21.943,39.706l6.269,11.494l2.09,4.18l55.38,101.355
		C408.751,475.429,409.796,478.563,409.796,481.698z"/>
	<path style="fill:#FFD05C;" d="M224.849,315.559l-20.898,39.706l-6.269,11.494l-2.09,4.18l-65.829,120.163
		c-5.224,9.404-17.763,13.584-27.167,8.359c-6.269-3.135-10.449-10.449-10.449-17.763c0-3.135,1.045-6.269,2.09-9.404l55.38-101.355
		l2.09-4.18l6.269-11.494l21.943-39.706L224.849,315.559L224.849,315.559z"/>
</g>
<rect x="30.498" y="39.706" style="fill:#F2F2F2;" width="440.947" height="275.853"/>
<g>
	<path style="fill:#ACB3BA;" d="M20.049,39.706h461.845c10.449,0,19.853-8.359,19.853-19.853S493.388,0,481.894,0H20.049
		C9.6,0,0.196,8.359,0.196,19.853S8.555,39.706,20.049,39.706z"/>
	<path style="fill:#ACB3BA;" d="M495.478,321.829c-3.135-3.135-8.359-6.269-13.584-6.269H20.049
		c-10.449,0-19.853,8.359-19.853,19.853c0,5.224,2.09,10.449,6.269,13.584c3.135,3.135,8.359,6.269,13.584,6.269h461.845
		c11.494,0,19.853-8.359,19.853-19.853C501.747,330.188,499.657,324.963,495.478,321.829z"/>
</g>
<rect x="30.498" y="39.706" style="fill:#E4EAEF;" width="440.947" height="15.673"/>
<g>
	<polygon style="fill:#F8B64C;" points="159.02,355.265 203.951,355.265 197.682,366.759 195.592,370.939 149.616,370.939 
		152.751,366.759 	"/>
	<polygon style="fill:#F8B64C;" points="352.327,370.939 306.351,370.939 304.261,366.759 297.992,355.265 342.923,355.265 
		349.192,366.759 	"/>
</g>
<rect x="394.123" y="113.894" style="fill:#4CDBC4;" width="24.033" height="177.633"/>
<rect x="316.8" y="142.106" style="fill:#84DBFF;" width="24.033" height="150.465"/>
<rect x="238.433" y="170.318" style="fill:#FFD05C;" width="24.033" height="121.208"/>
<rect x="161.11" y="107.624" style="fill:#F2705B;" width="24.033" height="183.902"/>
<rect x="82.743" y="201.665" style="fill:#84DBFF;" width="24.033" height="90.906"/>
<g>
</g>
<g>
</g>
<g>
</g>
<g>
</g>
<g>
</g>
<g>
</g>
<g>
</g>
<g>
</g>
<g>
</g>
<g>
</g>
<g>
</g>
<g>
</g>
<g>
</g>
<g>
</g>
<g>
</g>
</svg>
