<?xml version="1.0" encoding="iso-8859-1"?>
<!-- Generator: Adobe Illustrator 19.0.0, SVG Export Plug-In . SVG Version: 6.00 Build 0)  -->
<svg version="1.1" id="Layer_1" xmlns="http://www.w3.org/2000/svg" xmlns:xlink="http://www.w3.org/1999/xlink" x="0px" y="0px"
	 viewBox="0 0 501.551 501.551" style="enable-background:new 0 0 501.551 501.551;" xml:space="preserve">
<path style="fill:#40596B;" d="M480.653,44.931H20.898C9.404,44.931,0,54.335,0,65.829v298.841c0,11.494,9.404,20.898,20.898,20.898
	h459.755c11.494,0,20.898-9.404,20.898-20.898V65.829C501.551,54.335,492.147,44.931,480.653,44.931z"/>
<rect x="31.347" y="80.457" style="fill:#F2F2F2;" width="438.857" height="277.943"/>
<polygon style="fill:#CDD6E0;" points="368.849,441.992 368.849,455.576 132.702,455.576 132.702,441.992 154.645,441.992 
	154.645,385.567 345.861,385.567 345.861,441.992 "/>
<rect x="154.645" y="385.567" style="fill:#ACB3BA;" width="191.216" height="15.673"/>
<polygon style="fill:#FF7058;" points="110.759,278.988 103.445,271.673 174.498,201.665 219.429,246.596 291.527,174.498 
	329.143,212.114 390.792,151.51 397.061,158.824 329.143,226.743 291.527,189.127 219.429,261.224 174.498,216.294 "/>
<g>
	<circle style="fill:#F1543F;" cx="107.624" cy="274.808" r="14.629"/>
	<circle style="fill:#F1543F;" cx="174.498" cy="207.935" r="14.629"/>
	<circle style="fill:#F1543F;" cx="220.473" cy="253.91" r="14.629"/>
	<circle style="fill:#F1543F;" cx="291.527" cy="181.812" r="14.629"/>
	<circle style="fill:#F1543F;" cx="329.143" cy="219.429" r="14.629"/>
	<circle style="fill:#F1543F;" cx="392.882" cy="154.645" r="14.629"/>
</g>
<path style="fill:#334A5E;" d="M478.563,260.18H368.849c-6.269,0-10.449,4.18-10.449,10.449v175.543
	c0,6.269,4.18,10.449,10.449,10.449h109.714c6.269,0,10.449-4.18,10.449-10.449V270.629
	C489.012,264.359,484.833,260.18,478.563,260.18z"/>
<rect x="374.387" y="284.233" style="fill:#84DBFF;" width="99.265" height="133.747"/>
<g>
	<path style="fill:#ACB3BA;" d="M439.902,269.584H407.51c-1.045,0-2.09,1.045-2.09,2.09c0,1.045,1.045,2.09,2.09,2.09h32.392
		c1.045,0,2.09-1.045,2.09-2.09C441.992,270.629,440.947,269.584,439.902,269.584z"/>
	<circle style="fill:#ACB3BA;" cx="423.184" cy="436.767" r="9.404"/>
</g>
<path style="fill:#40596B;" d="M450.351,377.208l-10.449-10.449c4.18-4.18,6.269-9.404,6.269-15.673c0-1.045,0-2.09,0-3.135
	l14.629-2.09C462.89,357.355,459.755,368.849,450.351,377.208z"/>
<path style="fill:#F2F2F2;" d="M460.8,344.816l-14.629,2.09c-1.045-7.314-5.224-13.584-12.539-16.718l7.314-13.584
	C452.441,322.873,459.755,332.278,460.8,344.816z"/>
<path style="fill:#84DBFF;" d="M440.947,316.604l-7.314,13.584c-3.135-2.09-6.269-2.09-10.449-2.09c-4.18,0-7.314,1.045-10.449,2.09
	l-7.314-13.584C417.959,311.38,429.453,311.38,440.947,316.604z"/>
<path style="fill:#FF7058;" d="M450.351,377.208c-14.629,14.629-38.661,14.629-53.29,0c-14.629-14.629-14.629-38.661,0-53.29
	c3.135-3.135,6.269-5.224,9.404-7.314l7.314,13.584c-7.314,4.18-12.539,11.494-12.539,19.853c0,12.539,10.449,22.988,22.988,22.988
	c6.269,0,11.494-2.09,15.673-6.269L450.351,377.208z"/>
<g>
</g>
<g>
</g>
<g>
</g>
<g>
</g>
<g>
</g>
<g>
</g>
<g>
</g>
<g>
</g>
<g>
</g>
<g>
</g>
<g>
</g>
<g>
</g>
<g>
</g>
<g>
</g>
<g>
</g>
</svg>
