<?xml version="1.0" encoding="iso-8859-1"?>
<!-- Generator: Adobe Illustrator 19.0.0, SVG Export Plug-In . SVG Version: 6.00 Build 0)  -->
<svg version="1.1" id="Layer_1" xmlns="http://www.w3.org/2000/svg" xmlns:xlink="http://www.w3.org/1999/xlink" x="0px" y="0px"
	 viewBox="0 0 501.551 501.551" style="enable-background:new 0 0 501.551 501.551;" xml:space="preserve">
<rect x="26.122" y="56.424" style="fill:#F2F2F2;" width="449.306" height="296.751"/>
<path style="fill:#E4EAEF;" d="M475.429,56.424v15.673c-1.045,0-1.045,0-2.09,0H28.212c-1.045,0-1.045,0-2.09,0V56.424H475.429z"/>
<path style="fill:#40596B;" d="M195.396,156.735c0,17.763-6.269,33.437-16.718,45.975c-13.584,16.718-34.482,28.212-57.469,28.212
	c-40.751,0-74.188-33.437-74.188-74.188s33.437-74.188,74.188-74.188S195.396,115.984,195.396,156.735z"/>
<path style="fill:#FFD15C;" d="M195.396,156.735h-74.188V82.547C161.959,82.547,195.396,115.984,195.396,156.735z"/>
<path style="fill:#ACB3BA;" d="M195.396,156.735c0,17.763-6.269,33.437-16.718,45.975l-57.469-45.975H195.396z"/>
<rect x="399.151" y="159.869" style="fill:#4CDBC4;" width="24.033" height="135.837"/>
<rect x="352.131" y="188.082" style="fill:#84DBFF;" width="24.033" height="108.669"/>
<rect x="306.155" y="216.294" style="fill:#FFD05C;" width="24.033" height="79.412"/>
<rect x="260.18" y="153.6" style="fill:#F2705B;" width="24.033" height="142.106"/>
<rect x="213.159" y="246.596" style="fill:#84DBFF;" width="24.033" height="49.11"/>
<rect x="181.812" y="308.245" style="fill:#3DC9AE;" width="272.718" height="24.033"/>
<g>
	<polygon style="fill:#FFD15C;" points="240.327,360.49 214.204,424.229 181.812,501.551 118.073,501.551 149.42,424.229 
		176.588,360.49 	"/>
	<polygon style="fill:#FFD15C;" points="383.478,501.551 319.739,501.551 287.347,424.229 261.224,360.49 324.963,360.49 
		352.131,424.229 	"/>
</g>
<g>
	<polygon style="fill:#F8B64C;" points="176.588,360.49 240.327,360.49 214.204,424.229 149.42,424.229 	"/>
	<polygon style="fill:#F8B64C;" points="352.131,424.229 287.347,424.229 261.224,360.49 324.963,360.49 	"/>
</g>
<g>
	<path style="fill:#FF7058;" d="M28.212,56.424h445.126c15.673,0,28.212-12.539,28.212-28.212S489.012,0,473.339,0H28.212
		C12.539,0,0,12.539,0,28.212S12.539,56.424,28.212,56.424z"/>
	<path style="fill:#FF7058;" d="M473.339,353.176H28.212C12.539,353.176,0,365.714,0,381.388C0,397.061,12.539,409.6,28.212,409.6
		h445.126c15.673,0,28.212-12.539,28.212-28.212C501.551,365.714,489.012,353.176,473.339,353.176z"/>
</g>
<g>
</g>
<g>
</g>
<g>
</g>
<g>
</g>
<g>
</g>
<g>
</g>
<g>
</g>
<g>
</g>
<g>
</g>
<g>
</g>
<g>
</g>
<g>
</g>
<g>
</g>
<g>
</g>
<g>
</g>
</svg>
