<?xml version="1.0" encoding="iso-8859-1"?>
<!-- Generator: Adobe Illustrator 19.0.0, SVG Export Plug-In . SVG Version: 6.00 Build 0)  -->
<svg version="1.1" id="Layer_1" xmlns="http://www.w3.org/2000/svg" xmlns:xlink="http://www.w3.org/1999/xlink" x="0px" y="0px"
	 viewBox="0 0 501.331 501.331" style="enable-background:new 0 0 501.331 501.331;" xml:space="preserve">
<rect x="326.103" y="331.717" transform="matrix(-0.7071 0.7071 -0.7071 -0.7071 833.3337 346.4682)" style="fill:#334A5E;" width="37.616" height="28.212"/>
<circle style="fill:#84DBFF;" cx="197.486" cy="197.486" r="197.486"/>
<path style="fill:#FFFFFF;" d="M197.486,348.996c-83.592,0-150.465-67.918-150.465-150.465c0-83.592,67.918-151.51,150.465-151.51
	c83.592,0,150.465,67.918,150.465,150.465C348.996,281.078,281.078,348.996,197.486,348.996z"/>
<path style="fill:#FFD15C;" d="M487.967,487.967L487.967,487.967c-18.808,18.808-50.155,17.763-66.873-3.135l-90.906-109.714
	l44.931-44.931l109.714,90.906C505.731,437.812,506.776,469.159,487.967,487.967z"/>
<path style="fill:#F2F2F2;" d="M472.294,410.645l-61.649,61.649l10.449,12.539c16.718,20.898,48.065,21.943,66.873,3.135
	c18.808-18.808,17.763-50.155-3.135-66.873L472.294,410.645z"/>
<path style="fill:#334A5E;" d="M197.486,197.486l127.478-11.494c3.135,38.661-9.404,74.188-36.571,101.355L197.486,197.486z"/>
<path style="fill:#CDD6E0;" d="M197.486,197.486L135.837,85.682C197.486,51.2,274.808,74.188,309.29,135.837
	c9.404,16.718,13.584,31.347,15.673,51.2L197.486,197.486z"/>
<path style="fill:#FF7058;" d="M288.392,288.392c-50.155,50.155-130.612,50.155-180.767,0
	c-13.584-13.584-21.943-26.122-29.257-44.931c-22.988-59.559,1.045-126.433,57.469-157.78l61.649,111.804L288.392,288.392z"/>
<g>
</g>
<g>
</g>
<g>
</g>
<g>
</g>
<g>
</g>
<g>
</g>
<g>
</g>
<g>
</g>
<g>
</g>
<g>
</g>
<g>
</g>
<g>
</g>
<g>
</g>
<g>
</g>
<g>
</g>
</svg>
