<?xml version="1.0" encoding="iso-8859-1"?>
<!-- Generator: Adobe Illustrator 19.0.0, SVG Export Plug-In . SVG Version: 6.00 Build 0)  -->
<svg version="1.1" id="Layer_1" xmlns="http://www.w3.org/2000/svg" xmlns:xlink="http://www.w3.org/1999/xlink" x="0px" y="0px"
	 viewBox="0 0 501.551 501.551" style="enable-background:new 0 0 501.551 501.551;" xml:space="preserve">
<path style="fill:#FFD15C;" d="M501.551,438.857V81.502h-67.918v357.355c0,1.045,0,2.09,0,3.135s1.045,2.09,1.045,2.09l1.045,2.09
	l18.808,32.392l12.539,21.943l12.539-21.943l18.808-32.392l1.045-2.09c0-1.045,1.045-2.09,1.045-2.09
	C501.551,440.947,501.551,440.947,501.551,438.857z"/>
<g>
	<path style="fill:#84DBFF;" d="M453.486,447.216V81.502h-19.853v357.355c0,1.045,0,2.09,0,3.135s1.045,2.09,1.045,2.09l1.045,2.09
		L453.486,447.216L453.486,447.216z"/>
	<path style="fill:#84DBFF;" d="M501.551,438.857V81.502h-19.853v365.714h17.763l1.045-2.09c0-1.045,1.045-2.09,1.045-2.09
		C501.551,440.947,501.551,440.947,501.551,438.857z"/>
</g>
<polygon style="fill:#334A5E;" points="480.653,479.608 454.531,479.608 467.069,501.551 "/>
<path style="fill:#FF7058;" d="M480.653,2.09h-26.122c-11.494,0-20.898,9.404-20.898,20.898v38.661h67.918V22.988
	C501.551,11.494,492.147,2.09,480.653,2.09z"/>
<rect x="453.486" y="81.502" style="fill:#54C0EB;" width="28.212" height="365.714"/>
<rect x="433.633" y="60.604" style="fill:#FFD15C;" width="67.918" height="20.898"/>
<path style="fill:#F2F2F2;" d="M0,478.563c0,11.494,9.404,20.898,20.898,20.898h373.029c11.494,0,20.898-9.404,20.898-20.898V20.898
	C414.824,9.404,405.42,0,393.927,0H107.624L0,106.58V478.563z"/>
<path style="fill:#CDD6E0;" d="M0,106.58h86.727c11.494,0,20.898-9.404,20.898-20.898V0L0,106.58z"/>
<path style="fill:#FFFFFF;" d="M393.927,107.624c0,20.898-7.314,39.706-18.808,54.335c-15.673,19.853-40.751,32.392-67.918,32.392
	c-48.065,0-87.771-38.661-87.771-86.727S258.09,20.898,307.2,20.898C354.22,20.898,393.927,59.559,393.927,107.624z"/>
<path style="fill:#FF7058;" d="M381.388,107.624c0,17.763-6.269,33.437-16.718,45.976c-13.584,16.718-34.482,28.212-58.514,28.212
	c-40.751,0-74.188-33.437-74.188-74.188s33.437-74.188,74.188-74.188C347.951,33.437,381.388,66.873,381.388,107.624z"/>
<path style="fill:#FFD15C;" d="M381.388,107.624H307.2V33.437C347.951,33.437,381.388,66.873,381.388,107.624z"/>
<path style="fill:#ACB3BA;" d="M381.388,107.624c0,17.763-6.269,33.437-16.718,45.976l-58.514-45.976
	C306.155,107.624,381.388,107.624,381.388,107.624z"/>
<rect x="288.392" y="257.045" style="fill:#4CDBC4;" width="24.033" height="176.588"/>
<rect x="242.416" y="284.212" style="fill:#84DBFF;" width="24.033" height="149.42"/>
<rect x="195.396" y="312.424" style="fill:#FFD05C;" width="24.033" height="121.208"/>
<rect x="148.376" y="250.776" style="fill:#F2705B;" width="24.033" height="182.857"/>
<rect x="102.4" y="343.771" style="fill:#84DBFF;" width="24.033" height="89.861"/>
<rect x="71.053" y="445.126" style="fill:#3DC9AE;" width="273.763" height="24.033"/>
<g>
</g>
<g>
</g>
<g>
</g>
<g>
</g>
<g>
</g>
<g>
</g>
<g>
</g>
<g>
</g>
<g>
</g>
<g>
</g>
<g>
</g>
<g>
</g>
<g>
</g>
<g>
</g>
<g>
</g>
</svg>
