<?xml version="1.0" encoding="iso-8859-1"?>
<!-- Generator: Adobe Illustrator 19.0.0, SVG Export Plug-In . SVG Version: 6.00 Build 0)  -->
<svg version="1.1" id="Layer_1" xmlns="http://www.w3.org/2000/svg" xmlns:xlink="http://www.w3.org/1999/xlink" x="0px" y="0px"
	 viewBox="0 0 501.551 501.551" style="enable-background:new 0 0 501.551 501.551;" xml:space="preserve">
<rect x="87.771" y="196.441" style="fill:#40596B;" width="326.008" height="221.518"/>
<polygon style="fill:#F2F2F2;" points="250.776,0 0,99.265 0,196.441 501.551,196.441 501.551,99.265 "/>
<rect y="459.755" style="fill:#ACB3BA;" width="501.551" height="41.796"/>
<rect x="22.988" y="416.914" style="fill:#CDD6E0;" width="454.531" height="41.796"/>
<g>
	<rect x="380.343" y="196.441" style="fill:#ACB3BA;" width="67.918" height="35.527"/>
	<rect x="380.343" y="382.433" style="fill:#ACB3BA;" width="67.918" height="35.527"/>
</g>
<rect x="387.657" y="230.922" style="fill:#F2F2F2;" width="51.2" height="150.465"/>
<g>
	<rect x="270.629" y="196.441" style="fill:#ACB3BA;" width="67.918" height="35.527"/>
	<rect x="270.629" y="382.433" style="fill:#ACB3BA;" width="67.918" height="35.527"/>
</g>
<rect x="277.943" y="230.922" style="fill:#F2F2F2;" width="51.2" height="150.465"/>
<g>
	<rect x="54.335" y="196.441" style="fill:#ACB3BA;" width="67.918" height="35.527"/>
	<rect x="54.335" y="382.433" style="fill:#ACB3BA;" width="67.918" height="35.527"/>
</g>
<rect x="61.649" y="230.922" style="fill:#F2F2F2;" width="51.2" height="150.465"/>
<g>
	<rect x="163.004" y="196.441" style="fill:#ACB3BA;" width="67.918" height="35.527"/>
	<rect x="163.004" y="382.433" style="fill:#ACB3BA;" width="67.918" height="35.527"/>
</g>
<rect x="171.363" y="230.922" style="fill:#F2F2F2;" width="51.2" height="150.465"/>
<g>
	<rect x="54.335" y="196.441" style="fill:#A0ABB5;" width="67.918" height="12.539"/>
	<rect x="163.004" y="196.441" style="fill:#A0ABB5;" width="67.918" height="12.539"/>
	<rect x="270.629" y="196.441" style="fill:#A0ABB5;" width="67.918" height="12.539"/>
	<rect x="380.343" y="196.441" style="fill:#A0ABB5;" width="67.918" height="12.539"/>
</g>
<circle style="fill:#ACB3BA;" cx="250.776" cy="114.939" r="41.796"/>
<g>
</g>
<g>
</g>
<g>
</g>
<g>
</g>
<g>
</g>
<g>
</g>
<g>
</g>
<g>
</g>
<g>
</g>
<g>
</g>
<g>
</g>
<g>
</g>
<g>
</g>
<g>
</g>
<g>
</g>
</svg>
