<?xml version="1.0" encoding="iso-8859-1"?>
<!-- Generator: Adobe Illustrator 19.0.0, SVG Export Plug-In . SVG Version: 6.00 Build 0)  -->
<svg version="1.1" id="Layer_1" xmlns="http://www.w3.org/2000/svg" xmlns:xlink="http://www.w3.org/1999/xlink" x="0px" y="0px"
	 viewBox="0 0 501.551 501.551" style="enable-background:new 0 0 501.551 501.551;" xml:space="preserve">
<path style="fill:#334A5E;" d="M480.653,85.159H20.898C9.404,85.159,0,94.563,0,106.057v234.057
	c0,11.494,9.404,20.898,20.898,20.898h459.755c11.494,0,20.898-9.404,20.898-20.898V106.057
	C501.551,93.518,492.147,85.159,480.653,85.159z"/>
<path style="fill:#ACB3BA;" d="M341.682,85.159H309.29c-2.09-5.224-5.224-11.494-8.359-15.673
	c-11.494-15.673-29.257-26.122-50.155-26.122s-39.706,10.449-50.155,26.122c-3.135,4.18-6.269,10.449-8.359,15.673h-32.392
	c1.045-5.224,3.135-10.449,5.224-15.673c14.629-33.437,47.02-57.469,85.682-57.469s72.098,24.033,85.682,57.469
	C338.547,73.665,340.637,78.89,341.682,85.159z"/>
<path style="fill:#40596B;" d="M480.653,361.012H20.898c-2.09,0-5.224,0-7.314-1.045v108.669c0,11.494,9.404,20.898,20.898,20.898
	h431.543c11.494,0,20.898-9.404,20.898-20.898V359.967C485.878,361.012,482.743,361.012,480.653,361.012z"/>
<path style="fill:#F2F2F2;" d="M264.359,330.71h-26.122c-6.269,0-10.449,4.18-10.449,10.449v39.706
	c0,6.269,4.18,10.449,10.449,10.449h26.122c6.269,0,10.449-4.18,10.449-10.449v-39.706
	C274.808,335.935,269.584,330.71,264.359,330.71z"/>
<g>
	<path style="fill:#9FACB7;" d="M165.094,69.486h35.527c-3.135,4.18-6.269,10.449-8.359,15.673h-32.392
		C160.914,78.89,163.004,73.665,165.094,69.486z"/>
	<path style="fill:#9FACB7;" d="M341.682,85.159H309.29c-2.09-5.224-5.224-11.494-8.359-15.673h35.527
		C338.547,73.665,340.637,78.89,341.682,85.159z"/>
</g>
<circle style="fill:#F8B64C;" cx="250.776" cy="207.412" r="78.367"/>
<circle style="fill:#FFD15C;" cx="250.776" cy="207.412" r="58.514"/>
<path style="fill:#F8B64C;" d="M256,199.053c-9.404-4.18-10.449-6.269-10.449-8.359c0-3.135,2.09-5.224,7.314-5.224
	c6.269,0,9.404,2.09,11.494,3.135l4.18,2.09l6.269-15.673l-3.135-2.09c-3.135-2.09-7.314-3.135-11.494-4.18v-10.449h-15.673v11.494
	c-10.449,3.135-16.718,10.449-16.718,20.898c0,12.539,10.449,18.808,20.898,22.988c8.359,3.135,9.404,6.269,9.404,8.359
	c0,4.18-4.18,6.269-8.359,6.269c-4.18,0-9.404-1.045-13.584-4.18l-5.224-3.135l-5.224,15.673l3.135,2.09
	c4.18,3.135,9.404,4.18,14.629,5.225v11.494h15.673v-10.449c10.449-3.135,16.718-11.494,16.718-21.943
	C275.853,208.457,265.404,202.188,256,199.053z"/>
<g>
</g>
<g>
</g>
<g>
</g>
<g>
</g>
<g>
</g>
<g>
</g>
<g>
</g>
<g>
</g>
<g>
</g>
<g>
</g>
<g>
</g>
<g>
</g>
<g>
</g>
<g>
</g>
<g>
</g>
</svg>
