<?xml version="1.0" encoding="iso-8859-1"?>
<!-- Generator: Adobe Illustrator 19.0.0, SVG Export Plug-In . SVG Version: 6.00 Build 0)  -->
<svg version="1.1" id="Layer_1" xmlns="http://www.w3.org/2000/svg" xmlns:xlink="http://www.w3.org/1999/xlink" x="0px" y="0px"
	 viewBox="0 0 501.551 501.551" style="enable-background:new 0 0 501.551 501.551;" xml:space="preserve">
<path style="fill:#FF7058;" d="M480.653,0H20.898C9.404,0,0,9.404,0,20.898v459.755c0,11.494,9.404,20.898,20.898,20.898h459.755
	c11.494,0,20.898-9.404,20.898-20.898V20.898C501.551,9.404,492.147,0,480.653,0z"/>
<rect x="36.571" y="141.051" style="fill:#FFFFFF;" width="428.408" height="323.918"/>
<circle style="fill:#84DBFF;" cx="436.767" cy="70.008" r="22.988"/>
<circle style="fill:#FFD15C;" cx="358.4" cy="70.008" r="22.988"/>
<circle style="fill:#F2F2F2;" cx="281.078" cy="70.008" r="22.988"/>
<path style="fill:#84DBFF;" d="M146.286,336.457c0,21.943,6.269,42.841,18.808,59.559l-39.706,27.167
	c-16.718-25.078-27.167-54.335-27.167-86.727s10.449-61.649,27.167-86.727l39.706,27.167
	C153.6,293.616,146.286,313.469,146.286,336.457z"/>
<path style="fill:#F2F2F2;" d="M376.163,249.731l-39.706,27.167c-18.808-27.167-50.155-44.931-85.682-44.931
	s-66.873,17.763-85.682,44.931l-39.706-27.167c27.167-39.706,73.143-65.829,125.388-65.829
	C303.02,182.857,348.996,208.98,376.163,249.731z"/>
<path style="fill:#FFD15C;" d="M403.331,336.457c0,32.392-10.449,61.649-27.167,86.727l-39.706-27.167
	c11.494-16.718,18.808-37.616,18.808-59.559s-7.314-42.841-18.808-59.559l39.706-27.167
	C392.882,273.763,403.331,304.065,403.331,336.457z"/>
<g>
	<rect x="243.461" y="196.441" style="fill:#FF7058;" width="14.629" height="22.988"/>
	
		<rect x="195.609" y="206.876" transform="matrix(-0.9239 0.3827 -0.3827 -0.9239 473.9676 342.4609)" style="fill:#FF7058;" width="14.629" height="22.988"/>
	
		<rect x="155.032" y="234.013" transform="matrix(-0.7071 0.7071 -0.7071 -0.7071 450.7414 304.3111)" style="fill:#FF7058;" width="14.628" height="22.988"/>
	
		<rect x="128.073" y="274.579" transform="matrix(-0.3827 0.9239 -0.9239 -0.3827 451.4948 270.469)" style="fill:#FF7058;" width="14.629" height="22.988"/>
	
		<rect x="359.073" y="370.009" transform="matrix(-0.3827 0.9239 -0.9239 -0.3827 859.0624 189.0041)" style="fill:#FF7058;" width="14.629" height="22.988"/>
	<rect x="113.894" y="326.008" style="fill:#FF7058;" width="22.988" height="14.629"/>
	<rect x="364.669" y="326.008" style="fill:#FF7058;" width="22.988" height="14.629"/>
	
		<rect x="123.184" y="374.148" transform="matrix(-0.9239 0.3827 -0.3827 -0.9239 405.0868 682.3459)" style="fill:#FF7058;" width="22.988" height="14.629"/>
	
		<rect x="355.086" y="277.935" transform="matrix(-0.9239 0.3827 -0.3827 -0.9239 814.418 408.4987)" style="fill:#FF7058;" width="22.988" height="14.629"/>
	
		<rect x="327.67" y="237.269" transform="matrix(-0.7071 0.7071 -0.7071 -0.7071 751.9345 177.7052)" style="fill:#FF7058;" width="22.988" height="14.628"/>
	
		<rect x="286.831" y="210.296" transform="matrix(-0.3827 0.9239 -0.9239 -0.3827 613.5366 25.2726)" style="fill:#FF7058;" width="22.988" height="14.629"/>
</g>
<path style="fill:#ACB3BA;" d="M242.416,331.233c-6.269,2.09-11.494,7.314-14.629,13.584s-3.135,13.584,0,19.853
	c1.045,3.135,3.135,6.269,5.224,8.359c2.09,2.09,5.224,4.18,8.359,5.224c6.269,3.135,13.584,3.135,19.853,0
	c6.269-2.09,11.494-7.314,14.629-13.584c3.135-6.269,3.135-13.584,0-19.853c-3.135-7.314-9.404-12.539-16.718-15.673v-9.404
	c0-14.629-2.09-28.212-7.314-41.796l0-1.045l0,0c-5.224,15.673-8.359,31.347-8.359,48.065v6.269
	C243.461,331.233,243.461,331.233,242.416,331.233L242.416,331.233z M248.686,345.861c4.18-2.09,8.359,0,11.494,2.09
	c1.045,1.045,2.09,2.09,2.09,3.135c1.045,2.09,1.045,5.224,0,8.359c-1.045,2.09-3.135,4.18-5.224,5.224
	c-2.09,1.045-5.224,1.045-8.359,0c-2.09-1.045-4.18-3.135-5.224-5.224c-1.045-2.09-1.045-5.224,0-8.359
	C243.461,348.996,245.551,346.906,248.686,345.861z"/>
<g>
</g>
<g>
</g>
<g>
</g>
<g>
</g>
<g>
</g>
<g>
</g>
<g>
</g>
<g>
</g>
<g>
</g>
<g>
</g>
<g>
</g>
<g>
</g>
<g>
</g>
<g>
</g>
<g>
</g>
</svg>
