<?xml version="1.0" encoding="iso-8859-1"?>
<!-- Generator: Adobe Illustrator 19.0.0, SVG Export Plug-In . SVG Version: 6.00 Build 0)  -->
<svg version="1.1" id="Layer_1" xmlns="http://www.w3.org/2000/svg" xmlns:xlink="http://www.w3.org/1999/xlink" x="0px" y="0px"
	 viewBox="0 0 501.551 501.551" style="enable-background:new 0 0 501.551 501.551;" xml:space="preserve">
<path style="fill:#84DBFF;" d="M480.653,0H20.898C9.404,0,0,9.404,0,20.898v459.755c0,11.494,9.404,20.898,20.898,20.898h459.755
	c11.494,0,20.898-9.404,20.898-20.898V20.898C501.551,9.404,492.147,0,480.653,0z"/>
<rect x="26.436" y="120.508" style="fill:#FFFFFF;" width="449.306" height="354.22"/>
<g>
	<circle style="fill:#40596B;" cx="66.873" cy="60.604" r="19.853"/>
	<circle style="fill:#40596B;" cx="131.657" cy="60.604" r="19.853"/>
</g>
<path style="fill:#F2F2F2;" d="M434.678,40.751H263.314c-11.494,0-19.853,9.404-19.853,19.853c0,11.494,9.404,19.853,19.853,19.853
	h171.363c11.494,0,19.853-9.404,19.853-19.853C454.531,49.11,445.126,40.751,434.678,40.751z"/>
<rect x="53.29" y="243.461" style="fill:#FFD15C;" width="109.714" height="109.714"/>
<rect x="338.547" y="243.461" style="fill:#FF7058;" width="109.714" height="109.714"/>
<rect x="195.396" y="243.461" style="fill:#F8B64C;" width="109.714" height="109.714"/>
<g>
	<rect x="53.29" y="169.273" style="fill:#4CDBC4;" width="251.82" height="26.122"/>
	<rect x="163.004" y="401.241" style="fill:#4CDBC4;" width="285.257" height="26.122"/>
</g>
<g>
</g>
<g>
</g>
<g>
</g>
<g>
</g>
<g>
</g>
<g>
</g>
<g>
</g>
<g>
</g>
<g>
</g>
<g>
</g>
<g>
</g>
<g>
</g>
<g>
</g>
<g>
</g>
<g>
</g>
</svg>
