<?xml version="1.0" encoding="iso-8859-1"?>
<!-- Generator: Adobe Illustrator 19.0.0, SVG Export Plug-In . SVG Version: 6.00 Build 0)  -->
<svg version="1.1" id="Layer_1" xmlns="http://www.w3.org/2000/svg" xmlns:xlink="http://www.w3.org/1999/xlink" x="0px" y="0px"
	 viewBox="0 0 502.272 502.272" style="enable-background:new 0 0 502.272 502.272;" xml:space="preserve">
<path style="fill:#54C0EB;" d="M481.17,0H21.415C9.921,0,0.517,9.404,0.517,20.898v107.624h501.551V20.898
	C502.068,9.404,492.664,0,481.17,0z"/>
<rect x="0.204" y="129.243" style="fill:#84DBFF;" width="501.551" height="373.029"/>
<rect x="26.326" y="155.366" style="fill:#FFFFFF;" width="449.306" height="320.784"/>
<circle style="fill:#F2F2F2;" cx="55.897" cy="64.784" r="21.943"/>
<circle style="fill:#CDD6E0;" cx="125.905" cy="64.784" r="21.943"/>
<path style="fill:#FFFFFF;" d="M446.689,41.796H235.619c-12.539,0-21.943,10.449-21.943,21.943
	c0,12.539,10.449,21.943,21.943,21.943h211.069c12.539,0,21.943-10.449,21.943-21.943S458.183,41.796,446.689,41.796z"/>
<g>
	<polygon style="fill:#FF7058;" points="369.366,424.229 323.391,422.139 302.493,462.89 247.113,369.894 313.987,330.188 	"/>
	<polygon style="fill:#FF7058;" points="133.219,424.229 179.195,422.139 200.093,462.89 255.472,369.894 188.599,330.188 	"/>
</g>
<path style="fill:#F8B64C;" d="M380.86,291.527c0,12.539-20.898,21.943-25.078,34.482c-4.18,12.539,7.314,32.392,0,41.796
	c-7.314,10.449-29.257,5.224-39.706,13.584c-10.449,7.314-12.539,30.302-25.078,33.437c-11.494,4.18-27.167-12.539-39.706-12.539
	c-12.539,0-28.212,16.718-39.706,12.539c-12.539-4.18-14.629-26.122-25.078-33.437c-10.449-7.314-32.392-3.135-39.706-13.584
	s4.18-30.302,0-41.796c-4.18-11.494-25.078-20.898-25.078-34.482c0-12.539,20.898-21.943,25.078-34.482
	c4.18-12.539-7.314-32.392,0-41.796c7.314-10.449,29.257-5.224,39.706-13.584c10.449-7.314,12.539-30.302,25.078-33.437
	c11.494-4.18,27.167,12.539,39.706,12.539c12.539,0,28.212-16.718,39.706-12.539c12.539,4.18,14.629,26.122,25.078,33.437
	c10.449,7.314,32.392,3.135,39.706,13.584c7.314,10.449-4.18,30.302,0,41.796C359.962,268.539,380.86,277.943,380.86,291.527z"/>
<circle style="fill:#FFD15C;" cx="251.293" cy="291.527" r="94.041"/>
<polygon style="fill:#FFFFFF;" points="282.64,307.2 289.954,351.086 251.293,330.188 212.632,351.086 219.946,307.2 
	188.599,276.898 231.44,270.629 251.293,231.967 271.146,270.629 313.987,276.898 "/>
<g>
</g>
<g>
</g>
<g>
</g>
<g>
</g>
<g>
</g>
<g>
</g>
<g>
</g>
<g>
</g>
<g>
</g>
<g>
</g>
<g>
</g>
<g>
</g>
<g>
</g>
<g>
</g>
<g>
</g>
</svg>
