<?xml version="1.0" encoding="iso-8859-1"?>
<!-- Generator: Adobe Illustrator 19.0.0, SVG Export Plug-In . SVG Version: 6.00 Build 0)  -->
<svg version="1.1" id="Layer_1" xmlns="http://www.w3.org/2000/svg" xmlns:xlink="http://www.w3.org/1999/xlink" x="0px" y="0px"
	 viewBox="0 0 501.99 501.99" style="enable-background:new 0 0 501.99 501.99;" xml:space="preserve">
<path style="fill:#84DBFF;" d="M481.092,0.219H21.337c-11.494,0-20.898,9.404-20.898,20.898V92.17H501.99V21.117
	C501.99,9.624,492.586,0.219,481.092,0.219z"/>
<rect y="92.776" style="fill:#F2F2F2;" width="501.551" height="289.437"/>
<circle style="fill:#40596B;" cx="47.459" cy="46.195" r="13.584"/>
<circle style="fill:#4CDBC4;" cx="90.3" cy="46.195" r="13.584"/>
<circle style="fill:#ACB3BA;" cx="133.141" cy="46.195" r="13.584"/>
<polygon style="fill:#CDD6E0;" points="475.867,120.383 475.867,355.485 26.561,355.485 26.561,354.44 128.961,252.04 
	185.386,307.419 318.088,173.672 370.333,225.917 "/>
<polygon style="fill:#FFFFFF;" points="185.386,307.419 318.088,173.672 370.333,225.917 475.867,120.383 475.867,118.293 
	26.561,118.293 26.561,354.44 128.961,252.04 "/>
<polygon style="fill:#F2F2F2;" points="475.867,118.293 475.867,135.011 370.333,240.546 318.088,189.346 185.386,322.048 
	128.961,266.668 40.145,355.485 26.561,355.485 26.561,339.811 128.961,236.366 185.386,292.791 318.088,159.044 370.333,211.289 
	462.284,118.293 "/>
<rect x="220.912" y="427.583" style="fill:#F05540;" width="59.559" height="34.482"/>
<path style="fill:#41596B;" d="M251.214,435.942c-41.796,0-81.502-16.718-110.759-45.976c-60.604-60.604-60.604-160.914,0-221.518
	c29.257-29.257,68.963-45.976,110.759-45.976s81.502,16.718,110.759,45.976c60.604,60.604,60.604,160.914,0,221.518
	C332.716,419.223,293.01,435.942,251.214,435.942z"/>
<path style="fill:#F2F2F2;" d="M340.031,368.023c-24.033,24.033-55.38,36.571-88.816,36.571s-64.784-13.584-88.816-36.571
	c-24.033-24.033-36.571-56.424-36.571-87.771c0-4.18,0-7.314,0-10.449c1.045-7.314,2.09-13.584,3.135-20.898
	c1.045-3.135,1.045-5.224,2.09-8.359c6.269-17.763,15.673-34.482,30.302-49.11c24.033-24.033,55.38-36.571,88.816-36.571
	c20.898,0,40.751,5.224,58.514,14.629c2.09,1.045,4.18,2.09,6.269,4.18c6.269,4.18,12.539,8.359,17.763,12.539
	c2.09,2.09,4.18,4.18,6.269,5.224c2.09,2.09,3.135,3.135,5.225,5.225c11.494,13.584,19.853,28.212,25.078,43.886
	c1.045,3.135,2.09,5.224,2.09,8.359C382.871,289.656,372.423,335.632,340.031,368.023z"/>
<path style="fill:#FFFFFF;" d="M318.088,173.672l38.661,38.661c-3.135-6.269-7.314-11.494-12.539-16.718
	c-2.09-2.09-3.135-4.18-5.225-5.225c-2.09-2.09-4.18-4.18-6.269-5.224c-5.224-5.224-11.494-9.404-17.763-12.539
	c-2.09-1.045-4.18-3.135-6.269-4.18c-17.763-9.404-37.616-14.629-58.514-14.629c-33.437,0-64.784,12.539-88.816,36.571
	c-14.629,14.629-24.033,31.347-30.302,49.11c0,3.135,0,6.269-1.045,8.359c0,1.045,0,2.09-1.045,3.135l55.38,55.38L318.088,173.672z"
	/>
<path style="fill:#F2F2F2;" d="M162.398,368.023c24.033,24.033,55.38,36.571,88.816,36.571s64.784-13.584,88.816-36.571
	c4.18-4.18,7.314-8.359,10.449-12.539H151.949C155.084,359.664,158.218,363.844,162.398,368.023z"/>
<path style="fill:#CDD6E0;" d="M372.423,248.905c-1.045-3.135-1.045-6.269-2.09-8.359c-3.135-9.404-7.314-18.808-12.539-27.167
	l-38.661-38.661L185.386,307.419l-55.38-55.38c-1.045,5.225-2.09,11.494-3.135,16.718c0,3.135,0,7.314,0,10.449
	c0,27.167,8.359,53.29,26.122,76.278h198.531C374.512,324.138,381.827,284.432,372.423,248.905z"/>
<path style="fill:#FFD05C;" d="M305.549,501.77H196.88v-28.212c0-10.449,8.359-19.853,19.853-19.853h71.053
	c10.449,0,19.853,8.359,19.853,19.853v28.212H305.549z"/>
<g>
	<path style="fill:#F2F2F2;" d="M372.423,248.905l-2.09,2.09l-51.2-51.2L185.386,332.497l-56.424-55.38l-3.135,3.135
		c0-4.18,0-7.314,0-10.449c1.045-7.314,2.09-13.584,3.135-20.898l55.38,55.38l131.657-131.657l29.257,24.033
		c11.494,13.584,19.853,28.212,25.078,43.886C371.378,242.636,371.378,245.77,372.423,248.905z"/>
	<path style="fill:#F2F2F2;" d="M370.333,240.546L370.333,240.546l-52.245-51.2L185.386,322.048l-56.424-55.38l-3.135,3.135
		c1.045-7.314,2.09-13.584,3.135-20.898c1.045-3.135,1.045-5.225,2.09-8.359l52.245,52.245l124.343-124.343
		c2.09,1.045,4.18,2.09,6.269,4.18c6.269,4.18,12.539,8.359,17.763,12.539c2.09,2.09,4.18,4.18,6.269,5.224
		c2.09,2.09,3.135,3.135,5.224,5.225C356.749,209.199,365.108,224.872,370.333,240.546z"/>
</g>
<g>
</g>
<g>
</g>
<g>
</g>
<g>
</g>
<g>
</g>
<g>
</g>
<g>
</g>
<g>
</g>
<g>
</g>
<g>
</g>
<g>
</g>
<g>
</g>
<g>
</g>
<g>
</g>
<g>
</g>
</svg>
