<?xml version="1.0" encoding="iso-8859-1"?>
<!-- Generator: Adobe Illustrator 19.0.0, SVG Export Plug-In . SVG Version: 6.00 Build 0)  -->
<svg version="1.1" id="Layer_1" xmlns="http://www.w3.org/2000/svg" xmlns:xlink="http://www.w3.org/1999/xlink" x="0px" y="0px"
	 viewBox="0 0 501.551 501.551" style="enable-background:new 0 0 501.551 501.551;" xml:space="preserve">
<path style="fill:#40596B;" d="M480.653,0H20.898C9.404,0,0,9.404,0,20.898v459.755c0,11.494,9.404,20.898,20.898,20.898h459.755
	c11.494,0,20.898-9.404,20.898-20.898V20.898C501.551,9.404,492.147,0,480.653,0z"/>
<rect x="26.122" y="78.367" style="fill:#FFFFFF;" width="449.306" height="397.061"/>
<rect x="25.746" y="77.981" style="fill:#CDD6E0;" width="449.306" height="61.649"/>
<path style="fill:#FFFFFF;" d="M60.604,109.714L60.604,109.714c0-8.359,7.314-15.673,15.673-15.673h297.796
	c8.359,0,15.673,7.314,15.673,15.673l0,0c0,8.359-7.314,15.673-15.673,15.673H75.233C66.873,124.343,60.604,118.073,60.604,109.714z
	"/>
<circle style="fill:#FF7058;" cx="322.873" cy="38.661" r="20.898"/>
<circle style="fill:#FFD15C;" cx="388.702" cy="38.661" r="20.898"/>
<circle style="fill:#ACB3BA;" cx="454.531" cy="38.661" r="20.898"/>
<g>
	<polygon style="fill:#FF7058;" points="145.241,324.963 130.612,263.314 108.669,263.314 92.996,323.918 79.412,263.314 
		61.649,263.314 82.547,352.131 101.355,352.131 119.118,286.302 136.882,352.131 155.69,352.131 177.633,263.314 158.824,263.314 	
		"/>
	<polygon style="fill:#FF7058;" points="276.898,324.963 262.269,263.314 240.327,263.314 224.653,323.918 211.069,263.314 
		192.261,263.314 214.204,352.131 233.012,352.131 250.776,286.302 268.539,352.131 287.347,352.131 309.29,263.314 
		290.482,263.314 	"/>
	<polygon style="fill:#FF7058;" points="422.139,263.314 408.555,324.963 392.882,263.314 371.984,263.314 356.31,323.918 
		342.727,263.314 323.918,263.314 345.861,352.131 364.669,352.131 382.433,286.302 400.196,352.131 419.004,352.131 
		439.902,263.314 	"/>
</g>
<g>
</g>
<g>
</g>
<g>
</g>
<g>
</g>
<g>
</g>
<g>
</g>
<g>
</g>
<g>
</g>
<g>
</g>
<g>
</g>
<g>
</g>
<g>
</g>
<g>
</g>
<g>
</g>
<g>
</g>
</svg>
