<?xml version="1.0" encoding="iso-8859-1"?>
<!-- Generator: Adobe Illustrator 19.0.0, SVG Export Plug-In . SVG Version: 6.00 Build 0)  -->
<svg version="1.1" id="Layer_1" xmlns="http://www.w3.org/2000/svg" xmlns:xlink="http://www.w3.org/1999/xlink" x="0px" y="0px"
	 viewBox="0 0 501.551 501.551" style="enable-background:new 0 0 501.551 501.551;" xml:space="preserve">
<path style="fill:#FF7058;" d="M480.653,0H20.898C9.404,0,0,9.404,0,20.898v97.176h501.551V20.898
	C501.551,9.404,492.147,0,480.653,0z"/>
<path style="fill:#CDD6E0;" d="M0,118.073v362.58c0,11.494,9.404,20.898,20.898,20.898h459.755c11.494,0,20.898-9.404,20.898-20.898
	v-362.58H0z"/>
<rect x="36.247" y="155.366" style="fill:#FFFFFF;" width="428.408" height="310.335"/>
<circle style="fill:#F2F2F2;" cx="55.38" cy="59.559" r="21.943"/>
<circle style="fill:#FFD15C;" cx="125.388" cy="59.559" r="21.943"/>
<circle style="fill:#F2F2F2;" cx="195.396" cy="59.559" r="21.943"/>
<path style="fill:#54C0EB;" d="M250.776,351.086c62.694,0,113.894,51.2,113.894,113.894h65.829c0-6.269,0-13.584-1.045-19.853
	l35.527-25.078l-15.673-45.976l-43.886,1.045c-6.269-11.494-13.584-20.898-22.988-30.302l14.629-40.751l-39.706-28.212
	l-34.482,26.122c-11.494-5.225-24.033-9.404-36.571-11.494l-12.539-41.796h-49.11l-12.539,41.796
	c-12.539,3.135-25.078,7.314-37.616,12.539l-34.482-26.122l-39.706,29.257l14.629,40.751c-8.359,9.404-15.673,19.853-21.943,31.347
	l-42.841-1.045l-13.584,44.931l35.527,24.033c-1.045,6.269-1.045,12.539-1.045,18.808h65.829
	C136.882,402.286,188.082,351.086,250.776,351.086z"/>
<g>
</g>
<g>
</g>
<g>
</g>
<g>
</g>
<g>
</g>
<g>
</g>
<g>
</g>
<g>
</g>
<g>
</g>
<g>
</g>
<g>
</g>
<g>
</g>
<g>
</g>
<g>
</g>
<g>
</g>
</svg>
