<?xml version="1.0" encoding="iso-8859-1"?>
<!-- Generator: Adobe Illustrator 19.0.0, SVG Export Plug-In . SVG Version: 6.00 Build 0)  -->
<svg version="1.1" id="Layer_1" xmlns="http://www.w3.org/2000/svg" xmlns:xlink="http://www.w3.org/1999/xlink" x="0px" y="0px"
	 viewBox="0 0 501.551 501.551" style="enable-background:new 0 0 501.551 501.551;" xml:space="preserve">
<path style="fill:#F2F2F2;" d="M480.653,0H20.898C9.404,0,0,9.404,0,20.898v459.755c0,11.494,9.404,20.898,20.898,20.898h459.755
	c11.494,0,20.898-9.404,20.898-20.898V20.898C501.551,9.404,492.147,0,480.653,0z"/>
<rect x="33.123" y="129.243" style="fill:#FFFFFF;" width="434.678" height="339.592"/>
<path style="fill:#F8B64C;" d="M250.776,430.498c0,0-118.073-21.943-113.894-226.743c0,0,49.11,6.269,113.894-36.571
	c64.784,42.841,113.894,36.571,113.894,36.571C368.849,407.51,250.776,430.498,250.776,430.498z"/>
<g>
	<path style="fill:#FFD15C;" d="M250.776,410.645c0,0-100.31-18.808-97.176-193.306c0,0,41.796,5.224,97.176-31.347
		c55.38,36.571,97.176,31.347,97.176,31.347C351.086,391.837,250.776,410.645,250.776,410.645z"/>
	<circle style="fill:#FFD15C;" cx="55.38" cy="64.784" r="21.943"/>
</g>
<circle style="fill:#ACB3BA;" cx="125.388" cy="64.784" r="21.943"/>
<circle style="fill:#CDD6E0;" cx="195.396" cy="64.784" r="21.943"/>
<circle style="fill:#FFFFFF;" cx="250.776" cy="298.841" r="64.784"/>
<polygon style="fill:#40596B;" points="234.057,335.412 205.845,307.2 219.429,294.661 234.057,310.335 282.122,261.224 
	295.706,274.808 "/>
<g>
</g>
<g>
</g>
<g>
</g>
<g>
</g>
<g>
</g>
<g>
</g>
<g>
</g>
<g>
</g>
<g>
</g>
<g>
</g>
<g>
</g>
<g>
</g>
<g>
</g>
<g>
</g>
<g>
</g>
</svg>
