<?xml version="1.0" encoding="iso-8859-1"?>
<!-- Generator: Adobe Illustrator 19.0.0, SVG Export Plug-In . SVG Version: 6.00 Build 0)  -->
<svg version="1.1" id="Layer_1" xmlns="http://www.w3.org/2000/svg" xmlns:xlink="http://www.w3.org/1999/xlink" x="0px" y="0px"
	 viewBox="0 0 501.551 501.551" style="enable-background:new 0 0 501.551 501.551;" xml:space="preserve">
<path style="fill:#ACB3BA;" d="M456.62,434.678l12.539,66.874L409.6,461.845c-20.898,8.359-43.886,12.539-68.963,12.539
	c-74.188,0-136.882-40.751-155.69-96.131c-3.135-10.449-5.224-21.943-5.224-33.437c0-72.098,72.098-130.612,160.914-130.612
	c41.796,0,79.412,12.539,107.624,33.437c32.392,24.033,53.29,58.514,53.29,97.175C501.551,379.298,484.833,410.645,456.62,434.678z"
	/>
<g>
	<rect x="243.461" y="286.302" style="fill:#CDD6E0;" width="193.306" height="26.122"/>
	<rect x="206.89" y="335.412" style="fill:#CDD6E0;" width="268.539" height="26.122"/>
	<rect x="243.461" y="387.657" style="fill:#CDD6E0;" width="193.306" height="26.122"/>
</g>
<path style="fill:#A1AAAF;" d="M448.261,247.641c-32.392,77.322-121.208,133.747-225.698,133.747
	c-12.539,0-25.078-1.045-37.616-2.09c-3.135-10.449-5.224-21.943-5.224-33.437c0-72.098,72.098-130.612,160.914-130.612
	C382.433,213.159,420.049,226.743,448.261,247.641z"/>
<g>
	<path style="fill:#C3D1DD;" d="M206.89,335.412h167.184c-14.629,10.449-31.347,18.808-49.11,26.122H206.89V335.412z"/>
	<path style="fill:#C3D1DD;" d="M426.318,286.302c-6.269,9.404-14.629,17.763-22.988,26.122H243.461v-26.122H426.318z"/>
</g>
<path style="fill:#F2F2F2;" d="M222.563,0C99.265,0,0,81.502,0,182.857c0,39.706,15.673,76.278,41.796,105.535l-21.943,98.22
	l81.502-51.2c34.482,18.808,76.278,29.257,121.208,29.257c123.298,0,222.563-81.502,222.563-182.857
	C446.171,81.502,345.861,0,222.563,0z"/>
<g>
	<circle style="fill:#84DBFF;" cx="104.49" cy="182.857" r="36.571"/>
	<circle style="fill:#84DBFF;" cx="222.563" cy="182.857" r="36.571"/>
	<circle style="fill:#84DBFF;" cx="341.682" cy="182.857" r="36.571"/>
</g>
<g>
</g>
<g>
</g>
<g>
</g>
<g>
</g>
<g>
</g>
<g>
</g>
<g>
</g>
<g>
</g>
<g>
</g>
<g>
</g>
<g>
</g>
<g>
</g>
<g>
</g>
<g>
</g>
<g>
</g>
</svg>
