<?xml version="1.0" encoding="iso-8859-1"?>
<!-- Generator: Adobe Illustrator 19.0.0, SVG Export Plug-In . SVG Version: 6.00 Build 0)  -->
<svg version="1.1" id="Layer_1" xmlns="http://www.w3.org/2000/svg" xmlns:xlink="http://www.w3.org/1999/xlink" x="0px" y="0px"
	 viewBox="0 0 501.551 501.551" style="enable-background:new 0 0 501.551 501.551;" xml:space="preserve">
<path style="fill:#CDD6E0;" d="M501.551,20.898V305.11c0,11.494-9.404,20.898-20.898,20.898h-6.269v78.367l-78.367-78.367H97.176
	c-11.494,0-20.898-9.404-20.898-20.898V20.898C76.278,9.404,85.682,0,97.176,0h383.478C492.147,0,501.551,9.404,501.551,20.898z"/>
<path style="fill:#BFCDDB;" d="M440.947,119.118v251.82l-43.886-43.886H97.176c-11.494,0-20.898-9.404-20.898-20.898V82.547h327.053
	C424.229,82.547,440.947,98.22,440.947,119.118z"/>
<path style="fill:#F2F2F2;" d="M404.376,98.22H20.898C9.404,98.22,0,107.624,0,119.118v283.167c0,11.494,9.404,20.898,20.898,20.898
	h16.718v78.367l78.367-78.367h288.392c11.494,0,20.898-9.404,20.898-20.898V119.118C425.273,106.58,415.869,98.22,404.376,98.22z"/>
<g>
	<rect x="82.547" y="176.588" style="fill:#4CDBC4;" width="260.18" height="26.122"/>
	<rect x="43.886" y="247.641" style="fill:#4CDBC4;" width="336.457" height="26.122"/>
	<rect x="82.547" y="320.784" style="fill:#4CDBC4;" width="260.18" height="26.122"/>
</g>
<g>
</g>
<g>
</g>
<g>
</g>
<g>
</g>
<g>
</g>
<g>
</g>
<g>
</g>
<g>
</g>
<g>
</g>
<g>
</g>
<g>
</g>
<g>
</g>
<g>
</g>
<g>
</g>
<g>
</g>
</svg>
