<?xml version="1.0" encoding="iso-8859-1"?>
<!-- Generator: Adobe Illustrator 19.0.0, SVG Export Plug-In . SVG Version: 6.00 Build 0)  -->
<svg version="1.1" id="Layer_1" xmlns="http://www.w3.org/2000/svg" xmlns:xlink="http://www.w3.org/1999/xlink" x="0px" y="0px"
	 viewBox="0 0 501.551 501.551" style="enable-background:new 0 0 501.551 501.551;" xml:space="preserve">
<path style="fill:#40596B;" d="M438.857,0H62.694C28.212,0,0,28.212,0,62.694v376.163c0,34.482,28.212,62.694,62.694,62.694h376.163
	c34.482,0,62.694-28.212,62.694-62.694V62.694C501.551,28.212,473.339,0,438.857,0z"/>
<path style="fill:#F2F2F2;" d="M407.51,62.694H94.041c-17.763,0-31.347,13.584-31.347,31.347V407.51
	c0,17.763,13.584,31.347,31.347,31.347H407.51c17.763,0,31.347-13.584,31.347-31.347V94.041
	C438.857,76.278,425.273,62.694,407.51,62.694z"/>
<path style="fill:#CDD6E0;" d="M407.51,62.694H94.041c-17.763,0-31.347,13.584-31.347,31.347v15.673
	c0-17.763,13.584-31.347,31.347-31.347H407.51c17.763,0,31.347,13.584,31.347,31.347V94.041
	C438.857,76.278,425.273,62.694,407.51,62.694z"/>
<g>
	<circle style="fill:#ACB3BA;" cx="250.776" cy="98.22" r="18.808"/>
	<circle style="fill:#ACB3BA;" cx="250.776" cy="403.331" r="18.808"/>
	<circle style="fill:#ACB3BA;" cx="403.331" cy="250.776" r="18.808"/>
	<circle style="fill:#ACB3BA;" cx="98.22" cy="250.776" r="18.808"/>
</g>
<path style="fill:#40596B;" d="M250.776,266.449h-61.649c-8.359,0-15.673-7.314-15.673-15.673c0-8.359,7.314-15.673,15.673-15.673
	h45.976V151.51c0-8.359,7.314-15.673,15.673-15.673c8.359,0,15.673,7.314,15.673,15.673v99.265
	C266.449,259.135,259.135,266.449,250.776,266.449z"/>
<g>
</g>
<g>
</g>
<g>
</g>
<g>
</g>
<g>
</g>
<g>
</g>
<g>
</g>
<g>
</g>
<g>
</g>
<g>
</g>
<g>
</g>
<g>
</g>
<g>
</g>
<g>
</g>
<g>
</g>
</svg>
