<?xml version="1.0" encoding="iso-8859-1"?>
<!-- Generator: Adobe Illustrator 19.0.0, SVG Export Plug-In . SVG Version: 6.00 Build 0)  -->
<svg version="1.1" id="Layer_1" xmlns="http://www.w3.org/2000/svg" xmlns:xlink="http://www.w3.org/1999/xlink" x="0px" y="0px"
	 viewBox="0 0 501.551 501.551" style="enable-background:new 0 0 501.551 501.551;" xml:space="preserve">
<path style="fill:#F2F2F2;" d="M457.665,155.69c2.09-8.359,2.09-16.718,2.09-25.078C459.755,58.514,401.241,0,329.143,0
	c-40.751,0-76.278,18.808-100.31,47.02c-16.718-9.404-35.527-14.629-56.424-14.629c-52.245,0-97.176,35.527-110.759,84.637
	C26.122,124.343,0,156.735,0,194.351v32.392c0,43.886,35.527,78.367,78.367,78.367h344.816c43.886,0,78.367-35.527,78.367-78.367
	C501.551,195.396,483.788,168.229,457.665,155.69z"/>
<polygon style="fill:#40596B;" points="163.004,111.804 38.661,236.147 94.041,236.147 94.041,355.265 230.922,355.265 
	230.922,236.147 286.302,236.147 "/>
<polygon style="fill:#FF7058;" points="338.547,501.551 462.89,378.253 407.51,378.253 407.51,258.09 270.629,258.09 
	270.629,378.253 215.249,378.253 "/>
<g>
</g>
<g>
</g>
<g>
</g>
<g>
</g>
<g>
</g>
<g>
</g>
<g>
</g>
<g>
</g>
<g>
</g>
<g>
</g>
<g>
</g>
<g>
</g>
<g>
</g>
<g>
</g>
<g>
</g>
</svg>
