<?xml version="1.0" encoding="iso-8859-1"?>
<!-- Generator: Adobe Illustrator 19.0.0, SVG Export Plug-In . SVG Version: 6.00 Build 0)  -->
<svg version="1.1" id="Layer_1" xmlns="http://www.w3.org/2000/svg" xmlns:xlink="http://www.w3.org/1999/xlink" x="0px" y="0px"
	 viewBox="0 0 500.538 500.538" style="enable-background:new 0 0 500.538 500.538;" xml:space="preserve">
<path style="fill:#F2F2F2;" d="M444.082,142.644c0-1.045,0-2.09,0-3.135c0-72.098-57.469-129.567-129.567-129.567
	c-44.931,0-84.637,22.988-108.669,58.514c-12.539-5.224-26.122-8.359-40.751-8.359c-50.155,0-90.906,34.482-101.355,81.502
	C27.167,146.824,0,178.171,0,215.787c0,40.751,33.437,74.188,74.188,74.188h352.131c40.751,0,74.188-33.437,74.188-74.188
	C501.551,179.216,476.473,149.959,444.082,142.644z"/>
<g>
	<polygon style="fill:#CDD6E0;" points="419.004,434.171 419.004,397.599 334.367,397.599 334.367,288.93 376.163,288.93 
		376.163,355.803 419.004,355.803 419.004,319.232 480.653,376.701 	"/>
	<polygon style="fill:#CDD6E0;" points="308.245,428.946 250.775,490.595 193.306,428.946 229.878,428.946 229.878,288.93 
		271.673,288.93 271.673,428.946 	"/>
	<polygon style="fill:#CDD6E0;" points="169.273,288.93 169.273,397.599 83.592,397.599 83.592,434.171 20.898,376.701 
		83.592,319.232 83.592,355.803 127.478,355.803 127.478,288.93 	"/>
</g>
<g>
	<rect x="127.478" y="288.93" style="fill:#B8CAD8;" width="41.796" height="15.673"/>
	<rect x="229.878" y="288.93" style="fill:#B8CAD8;" width="41.796" height="15.673"/>
	<rect x="334.367" y="288.93" style="fill:#B8CAD8;" width="41.796" height="15.673"/>
</g>
<g>
</g>
<g>
</g>
<g>
</g>
<g>
</g>
<g>
</g>
<g>
</g>
<g>
</g>
<g>
</g>
<g>
</g>
<g>
</g>
<g>
</g>
<g>
</g>
<g>
</g>
<g>
</g>
<g>
</g>
</svg>
