<?xml version="1.0" encoding="iso-8859-1"?>
<!-- Generator: Adobe Illustrator 19.0.0, SVG Export Plug-In . SVG Version: 6.00 Build 0)  -->
<svg version="1.1" id="Layer_1" xmlns="http://www.w3.org/2000/svg" xmlns:xlink="http://www.w3.org/1999/xlink" x="0px" y="0px"
	 viewBox="0 0 501.551 501.551" style="enable-background:new 0 0 501.551 501.551;" xml:space="preserve">
<g>
	<path style="fill:#F2F2F2;" d="M253.91,0v56.424c-1.045,0-2.09,0-3.135,0c-1.045,0-2.09,0-3.135,0V0H253.91z"/>
	<path style="fill:#F2F2F2;" d="M179.722,49.11l7.314,18.808c-1.045,0-2.09,1.045-3.135,1.045c-1.045,0-2.09,1.045-3.135,1.045
		L173.453,51.2L179.722,49.11z"/>
	<path style="fill:#F2F2F2;" d="M319.739,388.702l7.314,18.808l-5.224,2.09l-7.314-18.808c1.045,0,2.09-1.045,3.135-1.045
		C317.649,389.747,318.694,389.747,319.739,388.702z"/>
	<path style="fill:#F2F2F2;" d="M72.098,152.555l18.808,7.314c0,1.045-1.045,2.09-1.045,3.135c0,1.045-1.045,2.09-1.045,3.135
		l-18.808-7.314L72.098,152.555z"/>
	<path style="fill:#F2F2F2;" d="M412.735,293.616l18.808,7.314l-2.09,5.225l-18.808-7.314c0-1.045,1.045-2.09,1.045-3.135
		C411.69,295.706,411.69,294.661,412.735,293.616z"/>
	<path style="fill:#F2F2F2;" d="M70.008,300.931l18.808-7.314c0,1.045,1.045,2.09,1.045,3.135s1.045,2.09,1.045,3.135L72.098,307.2
		L70.008,300.931z"/>
	<path style="fill:#F2F2F2;" d="M409.6,160.914l18.808-7.314l2.09,5.224l-17.763,7.314c0-1.045-1.045-2.09-1.045-3.135
		C410.645,161.959,410.645,160.914,409.6,160.914z"/>
	<path style="fill:#F2F2F2;" d="M321.829,49.11l-7.314,18.808c1.045,0,2.09,1.045,3.135,1.045c1.045,0,2.09,1.045,3.135,1.045
		l7.314-18.808L321.829,49.11z"/>
	<path style="fill:#F2F2F2;" d="M181.812,388.702l-7.314,18.808l5.224,2.09l7.314-18.808c-1.045,0-2.09-1.045-3.135-1.045
		C183.902,389.747,182.857,389.747,181.812,388.702z"/>
	<path style="fill:#F2F2F2;" d="M429.453,152.555l-18.808,7.314c0,1.045,1.045,2.09,1.045,3.135c0,1.045,1.045,2.09,1.045,3.135
		l18.808-7.314L429.453,152.555z"/>
	<path style="fill:#F2F2F2;" d="M88.816,293.616l-18.808,7.314l2.09,5.225l18.808-7.314c0-1.045-1.045-2.09-1.045-3.135
		C89.861,295.706,89.861,294.661,88.816,293.616z"/>
	<path style="fill:#F2F2F2;" d="M431.543,300.931l-18.808-7.314c0,1.045-1.045,2.09-1.045,3.135s-1.045,2.09-1.045,3.135
		l18.808,7.314L431.543,300.931z"/>
	<path style="fill:#F2F2F2;" d="M91.951,160.914L73.143,153.6l-2.09,5.224l17.763,7.314c0-1.045,1.045-2.09,1.045-3.135
		C90.906,161.959,90.906,160.914,91.951,160.914z"/>
	<path style="fill:#F2F2F2;" d="M414.824,68.963l-39.706,39.706c-1.045-1.045-1.045-1.045-2.09-2.09
		c-1.045-1.045-1.045-1.045-2.09-2.09l39.706-39.706L414.824,68.963z"/>
	<path style="fill:#F2F2F2;" d="M129.567,354.22l-39.706,39.706l-4.18-4.18l39.706-39.706c1.045,1.045,1.045,1.045,2.09,2.09
		C128.522,353.176,129.567,354.22,129.567,354.22z"/>
	<path style="fill:#F2F2F2;" d="M480.653,233.012h-56.424c0-1.045,0-2.09,0-3.135c0-1.045,0-2.09,0-3.135h56.424V233.012z"/>
	<path style="fill:#F2F2F2;" d="M77.322,233.012H20.898v-6.269h56.424c0,1.045,0,2.09,0,3.135
		C77.322,230.922,77.322,231.967,77.322,233.012z"/>
	<path style="fill:#F2F2F2;" d="M410.645,393.927l-39.706-39.706c1.045-1.045,1.045-1.045,2.09-2.09
		c1.045-1.045,1.045-1.045,2.09-2.09l39.706,39.706L410.645,393.927z"/>
	<path style="fill:#F2F2F2;" d="M125.388,108.669L86.727,68.963l4.18-4.18l39.706,39.706c-1.045,1.045-1.045,1.045-2.09,2.09
		C127.478,107.624,126.433,108.669,125.388,108.669z"/>
</g>
<rect x="221.518" y="383.478" style="fill:#40596B;" width="58.514" height="30.302"/>
<rect x="204.8" y="428.408" style="fill:#CDD6E0;" width="92.996" height="73.143"/>
<g>
	<path style="fill:#40596B;" d="M300.931,413.78h-99.265c-4.18,0-7.314,3.135-7.314,7.314v1.045c0,4.18,3.135,7.314,7.314,7.314
		h99.265c4.18,0,7.314-3.135,7.314-7.314v-1.045C307.2,416.914,304.065,413.78,300.931,413.78z"/>
	<circle style="fill:#40596B;" cx="250.776" cy="229.878" r="164.049"/>
</g>
<path style="fill:#FFFFFF;" d="M250.776,360.49c-72.098,0-130.612-58.514-130.612-130.612S178.678,98.22,250.776,98.22
	s130.612,58.514,130.612,130.612S322.873,360.49,250.776,360.49z"/>
<circle style="fill:#F8B64C;" cx="250.776" cy="229.878" r="114.939"/>
<circle style="fill:#FFD15C;" cx="250.776" cy="229.878" r="85.682"/>
<path style="fill:#F8B64C;" d="M259.135,216.294c-14.629-6.269-15.673-8.359-15.673-11.494c0-4.18,4.18-7.314,10.449-7.314
	c8.359,0,14.629,3.135,16.718,4.18l6.269,4.18l8.359-22.988l-5.224-3.135c-5.225-3.135-10.449-5.224-17.763-6.269V157.78h-22.988
	v17.763c-14.629,4.18-24.033,15.673-24.033,31.347c0,18.808,15.673,28.212,30.302,33.437c12.539,5.224,13.584,9.404,13.584,12.539
	c0,6.269-6.269,9.404-12.539,9.404c-6.269,0-13.584-2.09-18.808-5.224l-7.314-4.18l-6.269,21.943l4.18,3.135
	c5.224,4.18,13.584,6.269,21.943,7.314v16.718h22.988v-17.763c15.673-4.18,25.078-16.718,25.078-32.392
	C287.347,230.922,272.718,221.518,259.135,216.294z"/>
<g>
</g>
<g>
</g>
<g>
</g>
<g>
</g>
<g>
</g>
<g>
</g>
<g>
</g>
<g>
</g>
<g>
</g>
<g>
</g>
<g>
</g>
<g>
</g>
<g>
</g>
<g>
</g>
<g>
</g>
</svg>
