<?xml version="1.0" encoding="iso-8859-1"?>
<!-- Generator: Adobe Illustrator 19.0.0, SVG Export Plug-In . SVG Version: 6.00 Build 0)  -->
<svg version="1.1" id="Layer_1" xmlns="http://www.w3.org/2000/svg" xmlns:xlink="http://www.w3.org/1999/xlink" x="0px" y="0px"
	 viewBox="0 0 501.551 501.551" style="enable-background:new 0 0 501.551 501.551;" xml:space="preserve">
<path style="fill:#40596B;" d="M501.551,32.392c0-9.404-7.314-16.718-16.718-16.718H20.898C9.404,15.673,0,25.078,0,36.571V358.4
	h501.551V32.392z"/>
<path style="fill:#F2F2F2;" d="M0,358.4v39.706c0,11.494,9.404,20.898,20.898,20.898h459.755c11.494,0,20.898-9.404,20.898-20.898
	V358.4H0z"/>
<g>
	<circle style="fill:#CDD6E0;" cx="250.776" cy="388.702" r="11.494"/>
	<rect x="154.645" y="419.004" style="fill:#CDD6E0;" width="192.261" height="39.706"/>
</g>
<rect x="113.894" y="458.71" style="fill:#F2F2F2;" width="272.718" height="27.167"/>
<rect x="154.645" y="419.004" style="fill:#ACB3BA;" width="192.261" height="15.673"/>
<rect x="33.437" y="45.976" style="fill:#FFFFFF;" width="434.678" height="282.122"/>
<g>
	<rect x="329.143" y="225.698" style="fill:#CDD6E0;" width="63.739" height="24.033"/>
	<rect x="329.143" y="181.812" style="fill:#CDD6E0;" width="104.49" height="24.033"/>
	<rect x="198.531" y="225.698" style="fill:#CDD6E0;" width="63.739" height="24.033"/>
	<rect x="198.531" y="181.812" style="fill:#CDD6E0;" width="104.49" height="24.033"/>
	<rect x="66.873" y="225.698" style="fill:#CDD6E0;" width="63.739" height="24.033"/>
	<rect x="66.873" y="181.812" style="fill:#CDD6E0;" width="104.49" height="24.033"/>
</g>
<rect x="66.873" y="76.278" style="fill:#FFD15C;" width="104.49" height="75.233"/>
<rect x="198.531" y="76.278" style="fill:#FF7058;" width="104.49" height="75.233"/>
<rect x="329.143" y="76.278" style="fill:#ACB3BA;" width="104.49" height="75.233"/>
<g>
</g>
<g>
</g>
<g>
</g>
<g>
</g>
<g>
</g>
<g>
</g>
<g>
</g>
<g>
</g>
<g>
</g>
<g>
</g>
<g>
</g>
<g>
</g>
<g>
</g>
<g>
</g>
<g>
</g>
</svg>
