<?xml version="1.0" encoding="iso-8859-1"?>
<!-- Generator: Adobe Illustrator 19.0.0, SVG Export Plug-In . SVG Version: 6.00 Build 0)  -->
<svg version="1.1" id="Layer_1" xmlns="http://www.w3.org/2000/svg" xmlns:xlink="http://www.w3.org/1999/xlink" x="0px" y="0px"
	 viewBox="0 0 501.551 501.551" style="enable-background:new 0 0 501.551 501.551;" xml:space="preserve">
<path style="fill:#334A5E;" d="M484.833,52.245H20.898C9.404,52.245,0,61.649,0,73.143v280.033h501.551V68.963
	C501.551,59.559,494.237,52.245,484.833,52.245z"/>
<path style="fill:#F2F2F2;" d="M0,353.176v39.706c0,11.494,9.404,20.898,20.898,20.898h459.755c11.494,0,20.898-9.404,20.898-20.898
	v-39.706H0z"/>
<g>
	<circle style="fill:#CDD5DF;" cx="250.776" cy="383.478" r="11.494"/>
	<rect x="154.645" y="413.78" style="fill:#CDD5DF;" width="192.261" height="56.425"/>
</g>
<rect x="154.645" y="413.78" style="fill:#ABB2B9;" width="192.261" height="15.673"/>
<polygon style="fill:#F2F2F2;" points="386.612,501.551 114.939,501.551 154.645,470.204 346.906,470.204 "/>
<rect x="33.437" y="83.592" style="fill:#FFFFFF;" width="434.678" height="245.551"/>
<rect x="85.682" y="191.216" style="fill:#FFD15C;" width="58.514" height="92.996"/>
<rect x="176.588" y="131.657" style="fill:#CDD6E0;" width="58.514" height="152.555"/>
<rect x="266.449" style="fill:#84DBFF;" width="58.514" height="284.212"/>
<rect x="357.355" y="29.257" style="fill:#FF7058;" width="58.514" height="256"/>
<rect x="62.694" y="284.212" style="fill:#ACB3BA;" width="376.163" height="11.494"/>
<g>
</g>
<g>
</g>
<g>
</g>
<g>
</g>
<g>
</g>
<g>
</g>
<g>
</g>
<g>
</g>
<g>
</g>
<g>
</g>
<g>
</g>
<g>
</g>
<g>
</g>
<g>
</g>
<g>
</g>
</svg>
