<?xml version="1.0" encoding="iso-8859-1"?>
<!-- Generator: Adobe Illustrator 19.0.0, SVG Export Plug-In . SVG Version: 6.00 Build 0)  -->
<svg version="1.1" id="Layer_1" xmlns="http://www.w3.org/2000/svg" xmlns:xlink="http://www.w3.org/1999/xlink" x="0px" y="0px"
	 viewBox="0 0 501.029 501.029" style="enable-background:new 0 0 501.029 501.029;" xml:space="preserve">
<rect x="229.616" y="28.735" style="fill:#ACB3BA;" width="42.841" height="70.008"/>
<rect x="181.029" style="fill:#CDD6E0;" width="138.971" height="42.841"/>
<rect x="229.616" y="42.318" style="fill:#9EAAB5;" width="42.841" height="11.494"/>
<circle style="fill:#334A5E;" cx="250.514" cy="282.645" r="218.384"/>
<circle style="fill:#F2F2F2;" cx="250.514" cy="282.645" r="173.453"/>
<path style="fill:#CDD6E0;" d="M281.861,307.722l77.322-25.078l-86.727-21.943l-21.943-86.727l-19.853,81.502
	c-19.853-16.718-34.482-27.167-34.482-27.167s10.449,14.629,27.167,34.482l-81.502,19.853l86.727,21.943l21.943,86.727
	l20.898-79.412c19.853,17.763,35.527,28.212,35.527,28.212S298.58,325.486,281.861,307.722z"/>
<path style="fill:#F2705B;" d="M164.833,368.327l91.951-54.335c-2.09,0-4.18,1.045-6.269,1.045
	c-17.763,0-32.392-14.629-32.392-32.392c0-2.09,0-4.18,1.045-6.269L164.833,368.327z"/>
<path style="fill:#FFD05C;" d="M250.514,250.253c17.763,0,32.392,14.629,32.392,32.392c0,2.09,0,4.18-1.045,6.269l54.335-91.951
	l-91.951,54.335C246.335,250.253,248.424,250.253,250.514,250.253z"/>
<circle style="fill:#334A5E;" cx="250.514" cy="282.645" r="36.571"/>
<circle style="fill:#F6F7F7;" cx="250.514" cy="282.645" r="20.898"/>
<g>
	<rect x="245.29" y="109.192" style="fill:#ACB3BA;" width="10.449" height="13.584"/>
	<rect x="245.29" y="442.514" style="fill:#ACB3BA;" width="10.449" height="13.584"/>
	
		<rect x="161.667" y="131.318" transform="matrix(-0.866 0.5 -0.5 -0.866 380.4782 174.2674)" style="fill:#ACB3BA;" width="10.449" height="13.583"/>
	
		<rect x="328.61" y="419.465" transform="matrix(-0.866 0.5 -0.5 -0.866 836.0745 628.4822)" style="fill:#ACB3BA;" width="10.449" height="13.583"/>
	
		<rect x="101.459" y="192.353" transform="matrix(-0.5 0.866 -0.866 -0.5 332.4891 206.3302)" style="fill:#ACB3BA;" width="10.449" height="13.583"/>
	
		<rect x="389.52" y="359.102" transform="matrix(-0.5 0.866 -0.866 -0.5 908.9926 206.9886)" style="fill:#ACB3BA;" width="10.449" height="13.583"/>
	<rect x="77.061" y="277.42" style="fill:#ACB3BA;" width="13.584" height="10.449"/>
	<rect x="410.384" y="277.42" style="fill:#ACB3BA;" width="13.584" height="10.449"/>
	
		<rect x="99.285" y="361.165" transform="matrix(-0.866 0.5 -0.5 -0.866 381.1403 630.6497)" style="fill:#ACB3BA;" width="13.583" height="10.449"/>
	
		<rect x="388.379" y="193.657" transform="matrix(-0.866 0.5 -0.5 -0.866 836.8397 173.5272)" style="fill:#ACB3BA;" width="13.583" height="10.449"/>
	
		<rect x="160.563" y="421.383" transform="matrix(-0.5 0.866 -0.866 -0.5 620.4849 494.9838)" style="fill:#ACB3BA;" width="13.583" height="10.449"/>
	
		<rect x="327.281" y="133.311" transform="matrix(-0.5 0.866 -0.866 -0.5 621.0872 -81.5082)" style="fill:#ACB3BA;" width="13.583" height="10.449"/>
</g>
<g>
</g>
<g>
</g>
<g>
</g>
<g>
</g>
<g>
</g>
<g>
</g>
<g>
</g>
<g>
</g>
<g>
</g>
<g>
</g>
<g>
</g>
<g>
</g>
<g>
</g>
<g>
</g>
<g>
</g>
</svg>
