<?xml version="1.0" encoding="iso-8859-1"?>
<!-- Generator: Adobe Illustrator 19.0.0, SVG Export Plug-In . SVG Version: 6.00 Build 0)  -->
<svg version="1.1" id="Layer_1" xmlns="http://www.w3.org/2000/svg" xmlns:xlink="http://www.w3.org/1999/xlink" x="0px" y="0px"
	 viewBox="0 0 502.596 502.596" style="enable-background:new 0 0 502.596 502.596;" xml:space="preserve">
<path style="fill:#40596B;" d="M502.073,16.718C502.073,7.314,494.759,0,485.355,0H21.42C9.927,0,0.522,9.404,0.522,20.898v321.829
	h501.551V16.718z"/>
<path style="fill:#CDD6E0;" d="M0.522,342.727v39.706c0,11.494,9.404,20.898,20.898,20.898h459.755
	c11.494,0,20.898-9.404,20.898-20.898v-39.706H0.522z"/>
<g>
	<circle style="fill:#F2F2F2;" cx="457.143" cy="373.029" r="11.494"/>
	<circle style="fill:#F2F2F2;" cx="411.167" cy="373.029" r="11.494"/>
</g>
<polygon style="fill:#ACB3BA;" points="355.788,464.98 146.808,464.98 169.796,419.004 176.065,403.331 326.531,403.331 
	332.8,419.004 "/>
<path style="fill:#CDD6E0;" d="M373.551,464.98H129.045c-10.449,0-18.808,8.359-18.808,18.808c0,10.449,8.359,18.808,18.808,18.808
	h244.506c10.449,0,18.808-8.359,18.808-18.808C392.359,473.339,384,464.98,373.551,464.98z"/>
<polygon style="fill:#9EACB7;" points="332.8,419.004 169.796,419.004 176.065,403.331 326.531,403.331 "/>
<rect x="33.959" y="30.302" style="fill:#FFFFFF;" width="434.678" height="281.078"/>
<g>
	<rect x="253.388" y="72.098" style="fill:#CDD6E0;" width="160.914" height="26.122"/>
	<rect x="253.388" y="115.984" style="fill:#CDD6E0;" width="160.914" height="26.122"/>
	<rect x="89.339" y="201.665" style="fill:#CDD6E0;" width="160.914" height="26.122"/>
	<rect x="89.339" y="244.506" style="fill:#CDD6E0;" width="160.914" height="26.122"/>
</g>
<rect x="87.249" y="61.649" style="fill:#FFD15C;" width="143.151" height="90.906"/>
<rect x="272.196" y="191.216" style="fill:#FF7058;" width="143.151" height="90.906"/>
<g>
</g>
<g>
</g>
<g>
</g>
<g>
</g>
<g>
</g>
<g>
</g>
<g>
</g>
<g>
</g>
<g>
</g>
<g>
</g>
<g>
</g>
<g>
</g>
<g>
</g>
<g>
</g>
<g>
</g>
</svg>
