<?xml version="1.0" encoding="iso-8859-1"?>
<!-- Generator: Adobe Illustrator 19.0.0, SVG Export Plug-In . SVG Version: 6.00 Build 0)  -->
<svg version="1.1" id="Layer_1" xmlns="http://www.w3.org/2000/svg" xmlns:xlink="http://www.w3.org/1999/xlink" x="0px" y="0px"
	 viewBox="0 0 501.551 501.551" style="enable-background:new 0 0 501.551 501.551;" xml:space="preserve">
<path style="fill:#F2F2F2;" d="M295.706,0H20.898C9.404,0,0,9.404,0,20.898v459.755c0,11.494,9.404,20.898,20.898,20.898h378.253
	c11.494,0,20.898-9.404,20.898-20.898v-356.31L295.706,0z"/>
<g>
	<path style="fill:#CDD6E0;" d="M316.604,124.343h103.445L295.706,0v103.445C295.706,114.939,305.11,124.343,316.604,124.343z"/>
	<rect x="216.294" y="174.498" style="fill:#CDD6E0;" width="154.645" height="24.033"/>
	<rect x="49.11" y="238.237" style="fill:#CDD6E0;" width="322.873" height="24.033"/>
	<rect x="49.11" y="303.02" style="fill:#CDD6E0;" width="322.873" height="24.033"/>
	<rect x="49.11" y="366.759" style="fill:#CDD6E0;" width="253.91" height="24.033"/>
	<rect x="49.11" y="430.498" style="fill:#CDD6E0;" width="82.547" height="24.033"/>
</g>
<rect x="49.11" y="47.02" style="fill:#84DBFF;" width="115.984" height="152.555"/>
<path style="fill:#FFD15C;" d="M274.808,468.114l171.363-170.318l-77.322-77.322L197.486,390.792c-1.045,1.045-2.09,2.09-3.135,4.18
	c-1.045,1.045-1.045,3.135-1.045,4.18l-1.045,4.18l-15.673,58.514l-10.449,39.706l39.706-10.449l58.514-15.673l4.18-1.045
	c1.045,0,3.135-1.045,4.18-2.09C272.718,470.204,273.763,470.204,274.808,468.114z"/>
<g>
	<path style="fill:#FF7058;" d="M212.114,423.184l179.722-180.767l-22.988-22.988L197.486,390.792
		c-1.045,1.045-2.09,2.09-3.135,4.18c-1.045,1.045-1.045,3.135-1.045,4.18l-1.045,4.18L212.114,423.184z"/>
	<path style="fill:#FF7058;" d="M274.808,468.114l171.363-170.318l-22.988-22.988L243.461,454.531l19.853,19.853l4.18-1.045
		c1.045,0,3.135-1.045,4.18-2.09C272.718,470.204,273.763,470.204,274.808,468.114z"/>
</g>
<polygon style="fill:#334A5E;" points="204.8,490.057 175.543,460.8 165.094,500.506 "/>
<path style="fill:#40596B;" d="M495.282,218.384l-48.065-48.065c-8.359-8.359-20.898-8.359-29.257,0l-25.078,25.078l77.322,77.322
	l25.078-25.078C503.641,240.327,503.641,226.743,495.282,218.384z"/>
<rect x="190.09" y="325.997" transform="matrix(-0.7073 0.7069 -0.7069 -0.7073 788.514 370.4413)" style="fill:#F1543F;" width="254.953" height="44.93"/>
<rect x="364.09" y="230.25" transform="matrix(0.7073 0.7069 -0.7069 0.7073 297.2061 -223.8707)" style="fill:#FFD15C;" width="109.713" height="33.436"/>
<g>
</g>
<g>
</g>
<g>
</g>
<g>
</g>
<g>
</g>
<g>
</g>
<g>
</g>
<g>
</g>
<g>
</g>
<g>
</g>
<g>
</g>
<g>
</g>
<g>
</g>
<g>
</g>
<g>
</g>
</svg>
