<?xml version="1.0" encoding="iso-8859-1"?>
<!-- Generator: Adobe Illustrator 19.0.0, SVG Export Plug-In . SVG Version: 6.00 Build 0)  -->
<svg version="1.1" id="Layer_1" xmlns="http://www.w3.org/2000/svg" xmlns:xlink="http://www.w3.org/1999/xlink" x="0px" y="0px"
	 viewBox="0 0 501.551 501.551" style="enable-background:new 0 0 501.551 501.551;" xml:space="preserve">
<path style="fill:#F2F2F2;" d="M344.816,0H65.829C54.335,0,44.931,9.404,44.931,20.898v459.755c0,11.494,9.404,20.898,20.898,20.898
	h369.894c11.494,0,20.898-9.404,20.898-20.898V111.804L344.816,0z"/>
<g>
	<path style="fill:#CDD6E0;" d="M344.816,90.906c0,11.494,9.404,20.898,20.898,20.898h89.861L344.816,0V90.906z"/>
	<rect x="92.996" y="55.38" style="fill:#CDD6E0;" width="163.004" height="26.122"/>
	<rect x="92.996" y="136.882" style="fill:#CDD6E0;" width="315.559" height="26.122"/>
	<rect x="92.996" y="218.384" style="fill:#CDD6E0;" width="315.559" height="26.122"/>
	<rect x="92.996" y="298.841" style="fill:#CDD6E0;" width="315.559" height="26.122"/>
</g>
<path style="fill:#89D6F7;" d="M40.751,455.575L40.751,455.575L40.751,455.575z"/>
<polygon style="fill:#334A5E;" points="17.763,422.139 0,412.735 17.763,403.331 "/>
<path style="fill:#F05540;" d="M466.024,433.633v-41.796h21.943c7.314,0,13.584,6.269,13.584,13.584v15.673
	c0,7.314-6.269,13.584-13.584,13.584L466.024,433.633z"/>
<polygon style="fill:#FFD15C;" points="452.441,433.633 452.441,391.837 466.024,391.837 466.024,433.633 "/>
<path style="fill:#FFD05C;" d="M40.751,433.633l-26.122-13.584L0,412.735l14.629-7.314l26.122-13.584l0,0
	c2.09,1.045,4.18,4.18,4.18,6.269c0,3.135-2.09,5.224-5.224,7.314c3.135,1.045,5.224,4.18,5.224,7.314
	c0,3.135-2.09,5.224-5.224,7.314c3.135,1.045,5.224,4.18,5.224,7.314C44.931,429.453,43.886,432.588,40.751,433.633z"/>
<path style="fill:#40596B;" d="M44.931,398.106c0,3.135-2.09,5.224-5.224,7.314c3.135,1.045,5.224,4.18,5.224,7.314
	c0,3.135-2.09,5.224-5.224,7.314c3.135,1.045,5.224,4.18,5.224,7.314c0,3.135-2.09,5.224-4.18,7.314h411.69v-42.841H40.751
	C43.886,392.882,44.931,394.971,44.931,398.106z"/>
<polygon style="fill:#334A5E;" points="14.629,420.049 0,412.735 14.629,405.42 "/>
<g>
</g>
<g>
</g>
<g>
</g>
<g>
</g>
<g>
</g>
<g>
</g>
<g>
</g>
<g>
</g>
<g>
</g>
<g>
</g>
<g>
</g>
<g>
</g>
<g>
</g>
<g>
</g>
<g>
</g>
</svg>
