<?xml version="1.0" encoding="iso-8859-1"?>
<!-- Generator: Adobe Illustrator 19.0.0, SVG Export Plug-In . SVG Version: 6.00 Build 0)  -->
<svg version="1.1" id="Layer_1" xmlns="http://www.w3.org/2000/svg" xmlns:xlink="http://www.w3.org/1999/xlink" x="0px" y="0px"
	 viewBox="0 0 501.551 501.551" style="enable-background:new 0 0 501.551 501.551;" xml:space="preserve">
<path style="fill:#F2F2F2;" d="M386.612,0H20.898C9.404,0,0,9.404,0,20.898v459.755c0,11.494,9.404,20.898,20.898,20.898h459.755
	c11.494,0,20.898-9.404,20.898-20.898V114.939L386.612,0z"/>
<path style="fill:#CDD6E0;" d="M386.612,94.041c0,11.494,9.404,20.898,20.898,20.898h94.041L386.612,0V94.041z"/>
<g>
	
		<ellipse transform="matrix(-0.1961 -0.9806 0.9806 -0.1961 32.7455 202.4581)" style="fill:#F8B64C;" cx="99.362" cy="87.806" rx="11.494" ry="5.225"/>
	
		<ellipse transform="matrix(-0.9806 -0.1961 0.1961 -0.9806 329.9973 208.1942)" style="fill:#F8B64C;" cx="175.305" cy="87.761" rx="5.225" ry="11.494"/>
</g>
<path style="fill:#CDD6E0;" d="M233.012,220.473H41.796c0,0,3.135-39.706,15.673-57.469c0,0,0,0,1.045-1.045
	c7.314-3.135,38.661-14.629,53.29-26.122l1.045-7.314c0,0,6.269,12.539,18.808,13.584c1.045,0,3.135,0,4.18,0
	c1.045,0,3.135,0,4.18,0c13.584-2.09,18.808-13.584,18.808-13.584l1.045,7.314c14.629,11.494,45.976,22.988,53.29,26.122
	c1.045,0,1.045,1.045,1.045,1.045C229.878,180.767,233.012,220.473,233.012,220.473z"/>
<path style="fill:#F8B64C;" d="M160.914,129.567c0,0-6.269,12.539-18.808,13.584c-1.045,0-3.135,0-4.18,0c-1.045,0-3.135,0-4.18,0
	c-13.584-2.09-18.808-13.584-18.808-13.584s0-2.09,0-5.224c0-1.045,0-3.135,0-4.18c11.494,13.584,22.988,15.673,22.988,15.673
	s12.539-2.09,22.988-15.673c0,1.045,0,2.09,0,4.18C160.914,127.478,160.914,129.567,160.914,129.567z"/>
<path style="fill:#FFD15C;" d="M176.588,76.278c0,2.09-1.045,4.18-1.045,4.18c-7.314,51.2-38.661,56.424-38.661,56.424
	s-32.392-5.224-38.661-56.424c0,0,0-1.045-1.045-4.18l0,0c-2.09-12.539-3.135-52.245,39.706-51.2
	C179.722,25.078,178.678,63.739,176.588,76.278z"/>
<g>
	<polygon style="fill:#ACB3BA;" points="168.229,141.061 153.6,169.273 145.241,155.69 147.331,153.6 154.645,164.049 
		166.139,140.016 	"/>
	<polygon style="fill:#ACB3BA;" points="105.535,141.061 120.163,169.273 129.567,155.69 127.478,153.6 120.163,164.049 
		107.624,140.016 	"/>
</g>
<path style="fill:#334A5E;" d="M176.588,76.278l-1.045,2.09c0,0-2.09-20.898-11.494-34.482c0,0-6.269,8.359-27.167,8.359
	s-27.167-8.359-27.167-8.359c-8.359,13.584-10.449,34.482-10.449,34.482l-2.09-2.09l0,0c-2.09-12.539-3.135-52.245,39.706-51.2
	C179.722,25.078,178.678,63.739,176.588,76.278z"/>
<path style="fill:#FFFFFF;" d="M141.061,159.869l5.224,50.155l-9.404,9.404l-9.404-9.404l5.224-50.155l-6.269-7.314l5.224-9.404l0,0
	c1.045,0,3.135,0,4.18,0c1.045,0,3.135,0,4.18,0l0,0l5.224,9.404L141.061,159.869z"/>
<rect x="280.033" y="195.396" style="fill:#FF7058;" width="182.857" height="24.033"/>
<g>
	<rect x="41.796" y="275.853" style="fill:#CDD6E0;" width="421.094" height="24.033"/>
	<rect x="41.796" y="355.265" style="fill:#CDD6E0;" width="420.049" height="24.033"/>
</g>
<rect x="41.796" y="434.678" style="fill:#4CDBC4;" width="271.673" height="24.033"/>
<g>
</g>
<g>
</g>
<g>
</g>
<g>
</g>
<g>
</g>
<g>
</g>
<g>
</g>
<g>
</g>
<g>
</g>
<g>
</g>
<g>
</g>
<g>
</g>
<g>
</g>
<g>
</g>
<g>
</g>
</svg>
