<?xml version="1.0" encoding="iso-8859-1"?>
<!-- Generator: Adobe Illustrator 19.0.0, SVG Export Plug-In . SVG Version: 6.00 Build 0)  -->
<svg version="1.1" id="Layer_1" xmlns="http://www.w3.org/2000/svg" xmlns:xlink="http://www.w3.org/1999/xlink" x="0px" y="0px"
	 viewBox="0 0 501.551 501.551" style="enable-background:new 0 0 501.551 501.551;" xml:space="preserve">
<path style="fill:#4CDBC4;" d="M491.102,111.804H310.335c-6.269,0-10.449,4.18-10.449,10.449v115.984
	c0,6.269,4.18,10.449,10.449,10.449h180.767c6.269,0,10.449-4.18,10.449-10.449V122.253
	C501.551,117.029,496.327,111.804,491.102,111.804z"/>
<path style="fill:#F2F2F2;" d="M311.38,214.204v-66.873c11.494,0,20.898-9.404,20.898-20.898h135.837
	c0,11.494,9.404,20.898,20.898,20.898v66.873c-11.494,0-20.898,9.404-20.898,20.898H332.278
	C332.278,223.608,322.873,214.204,311.38,214.204z"/>
<circle style="fill:#4CDBC4;" cx="396.016" cy="180.767" r="35.527"/>
<path style="fill:#F2F2F2;" d="M399.151,174.498c-6.269-2.09-6.269-3.135-6.269-5.225c0-2.09,2.09-3.135,4.18-3.135
	c3.135,0,6.269,1.045,7.314,2.09l3.135,2.09l3.135-9.404l-2.09-1.045c-2.09-1.045-4.18-2.09-7.314-2.09v-6.269h-9.404v7.314
	c-6.269,2.09-10.449,6.269-10.449,12.539c0,8.359,6.269,11.494,12.539,13.584c5.224,2.09,5.224,4.18,5.224,5.224
	c0,2.09-2.09,4.18-5.224,4.18c-3.135,0-5.225-1.045-8.359-2.09l-3.135-2.09l-3.135,9.404l2.09,1.045
	c2.09,2.09,5.224,3.135,9.404,3.135v7.314h9.404v-7.314c6.269-2.09,10.449-7.314,10.449-13.584
	C411.69,180.767,404.376,176.588,399.151,174.498z"/>
<g>
	<circle style="fill:#4CDBC4;" cx="330.188" cy="180.767" r="7.314"/>
	<circle style="fill:#4CDBC4;" cx="460.8" cy="180.767" r="7.314"/>
	<path style="fill:#4CDBC4;" d="M462.89,79.412H282.122c-6.269,0-10.449,4.18-10.449,10.449v115.984
		c0,6.269,4.18,10.449,10.449,10.449H462.89c6.269,0,10.449-4.18,10.449-10.449V89.861C473.339,84.637,468.114,79.412,462.89,79.412
		z"/>
</g>
<path style="fill:#F2F2F2;" d="M283.167,181.812v-66.873c11.494,0,20.898-9.404,20.898-20.898h135.837
	c0,11.494,9.404,20.898,20.898,20.898v66.873c-11.494,0-20.898,9.404-20.898,20.898H304.065
	C304.065,191.216,294.661,181.812,283.167,181.812z"/>
<circle style="fill:#4CDBC4;" cx="367.804" cy="148.376" r="35.527"/>
<path style="fill:#F2F2F2;" d="M370.939,142.106c-6.269-2.09-6.269-3.135-6.269-5.224c0-2.09,2.09-3.135,4.18-3.135
	c3.135,0,6.269,1.045,7.314,2.09l3.135,2.09l3.135-9.404l-2.09-1.045c-2.09-1.045-4.18-2.09-7.314-2.09v-6.269h-9.404v7.314
	c-6.269,2.09-10.449,6.269-10.449,12.539c0,8.359,6.269,11.494,12.539,13.584c5.225,2.09,5.225,4.18,5.225,5.224
	c0,2.09-2.09,4.18-5.225,4.18c-3.135,0-5.224-1.045-8.359-2.09l-3.135-2.09l-3.135,9.404l2.09,1.045
	c2.09,2.09,5.224,3.135,9.404,3.135v7.314h9.404v-7.314c6.269-2.09,10.449-7.314,10.449-13.584
	C383.478,148.376,376.163,145.241,370.939,142.106z"/>
<g>
	<circle style="fill:#4CDBC4;" cx="301.975" cy="148.376" r="7.314"/>
	<circle style="fill:#4CDBC4;" cx="432.588" cy="148.376" r="7.314"/>
</g>
<path style="fill:#40596B;" d="M320.784,19.853H20.898C9.404,19.853,0,29.257,0,40.751v405.42c0,11.494,9.404,20.898,20.898,20.898
	h299.886c11.494,0,20.898-9.404,20.898-20.898V40.751C341.682,29.257,332.278,19.853,320.784,19.853z"/>
<rect x="26.018" y="45.181" style="fill:#F2F2F2;" width="289.437" height="394.971"/>
<path style="fill:#FF7058;" d="M236.147,0H105.535C94.041,0,84.637,9.404,84.637,20.898v38.661h172.408V20.898
	C257.045,9.404,247.641,0,236.147,0z"/>
<rect x="47.02" y="79.412" style="fill:#84DBFF;" width="114.939" height="118.073"/>
<g>
	<rect x="185.992" y="173.453" style="fill:#CDD6E0;" width="108.669" height="24.033"/>
	<rect x="47.02" y="228.833" style="fill:#CDD6E0;" width="247.641" height="24.033"/>
	<rect x="47.02" y="283.167" style="fill:#CDD6E0;" width="247.641" height="24.033"/>
	<rect x="47.02" y="338.547" style="fill:#CDD6E0;" width="247.641" height="24.033"/>
	<rect x="47.02" y="393.927" style="fill:#CDD6E0;" width="129.567" height="24.033"/>
</g>
<path style="fill:#40596B;" d="M161.959,195.396v3.135H47.02v-3.135c2.09-1.045,4.18-2.09,6.269-3.135
	c10.449-4.18,24.033-10.449,30.302-14.629c1.045,0,1.045-1.045,2.09-1.045c0,0,1.045-11.494,1.045-12.539
	c0,0-6.269-9.404-9.404-17.763l0,0c-2.09,0-4.18-3.135-5.224-8.359c-1.045-5.224,0-9.404,2.09-9.404l0,0
	c-1.045-10.449-1.045-39.706,31.347-39.706c32.392-1.045,32.392,29.257,31.347,39.706l0,0c2.09,0,3.135,5.224,2.09,9.404
	c-1.045,5.225-3.135,8.359-5.224,8.359l0,0c-3.135,8.359-9.404,17.763-9.404,17.763c0,1.045,1.045,12.539,1.045,12.539
	c1.045,0,1.045,1.045,2.09,1.045c6.269,4.18,19.853,10.449,30.302,14.629C157.78,193.306,159.869,194.351,161.959,195.396z"/>
<path style="fill:#334A5E;" d="M480.653,262.269H304.065c-11.494,0-20.898,9.404-20.898,20.898v197.486
	c0,11.494,9.404,20.898,20.898,20.898h176.588c11.494,0,20.898-9.404,20.898-20.898V283.167
	C501.551,271.673,492.147,262.269,480.653,262.269z"/>
<rect x="297.179" y="275.728" style="fill:#ACB3BA;" width="190.171" height="62.694"/>
<g>
	<rect x="298.841" y="358.4" style="fill:#CDD6E0;" width="49.11" height="33.437"/>
	<rect x="367.804" y="358.4" style="fill:#CDD6E0;" width="49.11" height="33.437"/>
	<rect x="438.857" y="358.4" style="fill:#CDD6E0;" width="49.11" height="33.437"/>
	<rect x="298.841" y="405.42" style="fill:#CDD6E0;" width="49.11" height="33.437"/>
	<rect x="367.804" y="405.42" style="fill:#CDD6E0;" width="49.11" height="33.437"/>
	<rect x="438.857" y="405.42" style="fill:#CDD6E0;" width="49.11" height="33.437"/>
	<rect x="298.841" y="452.441" style="fill:#CDD6E0;" width="49.11" height="33.437"/>
	<rect x="367.804" y="452.441" style="fill:#CDD6E0;" width="49.11" height="33.437"/>
	<rect x="438.857" y="452.441" style="fill:#CDD6E0;" width="49.11" height="33.437"/>
</g>
<g>
</g>
<g>
</g>
<g>
</g>
<g>
</g>
<g>
</g>
<g>
</g>
<g>
</g>
<g>
</g>
<g>
</g>
<g>
</g>
<g>
</g>
<g>
</g>
<g>
</g>
<g>
</g>
<g>
</g>
</svg>
