<?xml version="1.0" encoding="iso-8859-1"?>
<!-- Generator: Adobe Illustrator 19.0.0, SVG Export Plug-In . SVG Version: 6.00 Build 0)  -->
<svg version="1.1" id="Layer_1" xmlns="http://www.w3.org/2000/svg" xmlns:xlink="http://www.w3.org/1999/xlink" x="0px" y="0px"
	 viewBox="0 0 501.551 501.551" style="enable-background:new 0 0 501.551 501.551;" xml:space="preserve">
<path style="fill:#FF7058;" d="M501.551,208.98l-28.212,20.898l-41.796,30.302L263.314,384.522c-7.314,5.224-17.763,5.224-25.078,0
	L70.008,260.18l-31.347-22.988L0,208.98l38.661-33.437l31.347-27.167L237.192,5.224C241.371,2.09,245.551,0,250.776,0
	s9.404,2.09,13.584,5.224L431.543,149.42l41.796,35.527L501.551,208.98z"/>
<path style="fill:#FFD15C;" d="M263.314,383.478c-7.314,5.225-17.763,5.225-25.078,0L0,208.98v271.673
	c0,11.494,9.404,20.898,20.898,20.898h459.755c11.494,0,20.898-9.404,20.898-20.898V208.98L263.314,383.478z"/>
<path style="fill:#F2F2F2;" d="M473.339,84.637v144.196l-41.796,30.302L263.314,384.522c-7.314,5.224-17.763,5.224-25.078,0
	L70.008,260.18l-31.347-22.988V20.898C38.661,9.404,48.065,0,59.559,0h329.143L473.339,84.637z"/>
<g>
	<path style="fill:#CDD6E0;" d="M409.6,84.637h63.739L388.702,0v63.739C388.702,75.233,398.106,84.637,409.6,84.637z"/>
	<rect x="88.816" y="99.265" style="fill:#CDD6E0;" width="334.367" height="26.122"/>
</g>
<rect x="88.816" y="36.571" style="fill:#ACB3BA;" width="242.416" height="26.122"/>
<rect x="88.816" y="159.869" style="fill:#CDD6E0;" width="334.367" height="26.122"/>
<rect x="271.673" y="222.563" style="fill:#ACB3BA;" width="151.51" height="26.122"/>
<g>
</g>
<g>
</g>
<g>
</g>
<g>
</g>
<g>
</g>
<g>
</g>
<g>
</g>
<g>
</g>
<g>
</g>
<g>
</g>
<g>
</g>
<g>
</g>
<g>
</g>
<g>
</g>
<g>
</g>
</svg>
