<?xml version="1.0" encoding="iso-8859-1"?>
<!-- Generator: Adobe Illustrator 19.0.0, SVG Export Plug-In . SVG Version: 6.00 Build 0)  -->
<svg version="1.1" id="Layer_1" xmlns="http://www.w3.org/2000/svg" xmlns:xlink="http://www.w3.org/1999/xlink" x="0px" y="0px"
	 viewBox="0 0 501.551 501.551" style="enable-background:new 0 0 501.551 501.551;" xml:space="preserve">
<path style="fill:#40596B;" d="M485.878,304.065h-4.18l-48.065-183.902c-3.135-20.898-21.943-36.571-43.886-36.571
	c-22.988,0-41.796,16.718-43.886,39.706l-2.09,21.943c-1.045,8.359,5.224,15.673,13.584,16.718
	c8.359,1.045,15.673-5.224,16.718-13.584l2.09-21.943c1.045-7.314,6.269-12.539,13.584-12.539c6.269,0,12.539,4.18,13.584,11.494
	l36.571,132.702c-7.314-3.135-15.673-4.18-24.033-4.18h-84.637c-33.437,0-60.604,25.078-64.784,56.424
	c-11.494-3.135-22.988-3.135-33.437,0c-4.18-32.392-31.347-56.424-64.784-56.424H84.637c-8.359,0-16.718,2.09-24.033,4.18
	l36.571-133.747c1.045-6.269,6.269-11.494,13.584-11.494s12.539,5.224,13.584,12.539l2.09,21.943
	c1.045,8.359,8.359,14.629,16.718,13.584c8.359-1.045,14.629-8.359,13.584-16.718l-2.09-21.943
	c-2.09-22.988-20.898-39.706-43.886-39.706c-21.943,0-39.706,15.673-42.841,35.527L19.853,304.065h-4.18
	C7.314,304.065,0,311.38,0,319.739c0,8.359,7.314,15.673,15.673,15.673h4.18v18.808c0,35.527,29.257,64.784,64.784,64.784h84.637
	c35.527,0,64.784-29.257,64.784-64.784v-9.404c9.404-6.269,22.988-6.269,32.392,0v9.404c0,35.527,29.257,64.784,64.784,64.784
	h84.637c35.527,0,64.784-29.257,64.784-64.784v-18.808h5.224c8.359,0,15.673-7.314,15.673-15.673
	C501.551,310.335,494.237,304.065,485.878,304.065z"/>
<g>
	<path style="fill:#F2F2F2;" d="M84.637,285.257c-18.808,0-34.482,15.673-34.482,34.482v34.482
		c0,18.808,15.673,34.482,34.482,34.482h84.637c18.808,0,34.482-15.673,34.482-34.482v-35.526c0-18.808-15.673-34.482-34.482-34.482
		H84.637V285.257z"/>
	<path style="fill:#F2F2F2;" d="M332.278,285.257c-18.808,0-34.482,15.673-34.482,34.482v34.482
		c0,18.808,15.673,34.482,34.482,34.482h84.637c18.808,0,34.482-15.673,34.482-34.482v-35.526c0-18.808-15.673-34.482-34.482-34.482
		h-84.637V285.257z"/>
</g>
<g>
</g>
<g>
</g>
<g>
</g>
<g>
</g>
<g>
</g>
<g>
</g>
<g>
</g>
<g>
</g>
<g>
</g>
<g>
</g>
<g>
</g>
<g>
</g>
<g>
</g>
<g>
</g>
<g>
</g>
</svg>
