<?xml version="1.0" encoding="iso-8859-1"?>
<!-- Generator: Adobe Illustrator 19.0.0, SVG Export Plug-In . SVG Version: 6.00 Build 0)  -->
<svg version="1.1" id="Layer_1" xmlns="http://www.w3.org/2000/svg" xmlns:xlink="http://www.w3.org/1999/xlink" x="0px" y="0px"
	 viewBox="0 0 501.551 501.551" style="enable-background:new 0 0 501.551 501.551;" xml:space="preserve">
<path style="fill:#F2F2F2;" d="M368.849,0H20.898C9.404,0,0,9.404,0,20.898v459.755c0,11.494,9.404,20.898,20.898,20.898h459.755
	c11.494,0,20.898-9.404,20.898-20.898V132.702L368.849,0z"/>
<g>
	<rect y="62.694" style="fill:#E4EAEF;" width="368.849" height="3.135"/>
	<rect y="73.143" style="fill:#E4EAEF;" width="368.849" height="3.135"/>
	<rect y="122.253" style="fill:#E4EAEF;" width="373.029" height="3.135"/>
	<rect y="171.363" style="fill:#E4EAEF;" width="501.551" height="3.135"/>
	<rect y="220.473" style="fill:#E4EAEF;" width="501.551" height="3.135"/>
	<rect y="270.629" style="fill:#E4EAEF;" width="501.551" height="3.135"/>
	<rect y="319.739" style="fill:#E4EAEF;" width="501.551" height="3.135"/>
	<rect y="368.849" style="fill:#E4EAEF;" width="501.551" height="3.135"/>
	<rect y="417.959" style="fill:#E4EAEF;" width="501.551" height="3.135"/>
	<rect y="467.069" style="fill:#E4EAEF;" width="501.551" height="3.135"/>
</g>
<path style="fill:#CDD6E0;" d="M368.849,111.804c0,11.494,9.404,20.898,20.898,20.898h111.804L368.849,0V111.804z"/>
<polygon style="fill:#40596B;" points="62.694,374.073 52.245,363.624 153.6,261.224 203.755,311.38 303.02,212.114 348.996,258.09 
	438.857,169.273 449.306,179.722 348.996,281.078 303.02,234.057 203.755,333.322 153.6,283.167 "/>
<g>
	<circle style="fill:#84DBFF;" cx="444.082" cy="174.498" r="21.943"/>
	<circle style="fill:#84DBFF;" cx="57.469" cy="368.849" r="21.943"/>
</g>
<rect x="315.099" y="289.928" style="fill:#CDD6E0;" width="26.122" height="179.722"/>
<rect x="255.06" y="319.028" style="fill:#FFD15C;" width="26.122" height="150.465"/>
<rect x="194.664" y="371.911" style="fill:#4CDBC4;" width="26.122" height="98.22"/>
<rect x="134.52" y="319.384" style="fill:#CDD6E0;" width="26.122" height="150.465"/>
<rect x="375.014" y="270.043" style="fill:#FF7058;" width="26.122" height="199.576"/>
<g>
</g>
<g>
</g>
<g>
</g>
<g>
</g>
<g>
</g>
<g>
</g>
<g>
</g>
<g>
</g>
<g>
</g>
<g>
</g>
<g>
</g>
<g>
</g>
<g>
</g>
<g>
</g>
<g>
</g>
</svg>
