<?xml version="1.0" encoding="iso-8859-1"?>
<!-- Generator: Adobe Illustrator 19.0.0, SVG Export Plug-In . SVG Version: 6.00 Build 0)  -->
<svg version="1.1" id="Layer_1" xmlns="http://www.w3.org/2000/svg" xmlns:xlink="http://www.w3.org/1999/xlink" x="0px" y="0px"
	 viewBox="0 0 501.656 501.656" style="enable-background:new 0 0 501.656 501.656;" xml:space="preserve">
<path style="fill:#FFD15C;" d="M501.551,438.909v-358.4h-67.918v359.445c0,1.045,0,2.09,0,3.135c0,1.045,1.045,2.09,1.045,2.09
	l1.045,2.09l18.808,32.392l12.539,21.943l12.539-21.943l18.808-32.392l1.045-2.09c0-1.045,1.045-2.09,1.045-2.09
	C501.551,440.999,501.551,439.954,501.551,438.909z"/>
<g>
	<path style="fill:#84DBFF;" d="M453.486,447.269V80.509h-19.853v359.445c0,1.045,0,2.09,0,3.135c0,1.045,1.045,2.09,1.045,2.09
		l1.045,2.09L453.486,447.269L453.486,447.269z"/>
	<path style="fill:#84DBFF;" d="M501.551,438.909v-358.4h-19.853v366.759h17.763l1.045-2.09c0-1.045,1.045-2.09,1.045-2.09
		C501.551,440.999,501.551,439.954,501.551,438.909z"/>
</g>
<polygon style="fill:#334A5E;" points="480.653,479.66 454.531,479.66 468.114,501.603 "/>
<path style="fill:#FF7058;" d="M480.653,0.052h-26.122c-11.494,0-20.898,9.404-20.898,20.898v38.661h67.918V20.95
	C501.551,9.456,492.147,0.052,480.653,0.052z"/>
<rect x="453.486" y="80.509" style="fill:#54C0EB;" width="28.212" height="366.759"/>
<rect x="433.737" y="59.308" style="fill:#FFD15C;" width="67.918" height="20.898"/>
<path style="fill:#4CDBC4;" d="M95.086,0.052H20.898C9.404,0.052,0,9.456,0,20.95v459.755c0,11.494,9.404,20.898,20.898,20.898
	h74.188V0.052z"/>
<g>
	<circle style="fill:#FFFFFF;" cx="47.02" cy="66.926" r="15.673"/>
	<circle style="fill:#FFFFFF;" cx="47.02" cy="158.877" r="15.673"/>
	<circle style="fill:#FFFFFF;" cx="47.02" cy="250.828" r="15.673"/>
	<circle style="fill:#FFFFFF;" cx="47.02" cy="342.779" r="15.673"/>
	<circle style="fill:#FFFFFF;" cx="47.02" cy="434.73" r="15.673"/>
</g>
<path style="fill:#F2F2F2;" d="M318.694,0.052H95.086v501.551h303.02c11.494,0,20.898-9.404,20.898-20.898V99.318L318.694,0.052z"/>
<g>
	<path style="fill:#CDD6E0;" d="M318.694,78.42c0,11.494,9.404,20.898,20.898,20.898h78.367L318.694,0.052V78.42z"/>
	<rect x="138.971" y="160.967" style="fill:#CDD6E0;" width="235.102" height="24.033"/>
	<rect x="138.971" y="239.334" style="fill:#CDD6E0;" width="235.102" height="24.033"/>
	<rect x="138.971" y="317.701" style="fill:#CDD6E0;" width="235.102" height="24.033"/>
	<rect x="231.967" y="396.069" style="fill:#CDD6E0;" width="142.106" height="24.033"/>
</g>
<g>
</g>
<g>
</g>
<g>
</g>
<g>
</g>
<g>
</g>
<g>
</g>
<g>
</g>
<g>
</g>
<g>
</g>
<g>
</g>
<g>
</g>
<g>
</g>
<g>
</g>
<g>
</g>
<g>
</g>
</svg>
