<?xml version="1.0" encoding="iso-8859-1"?>
<!-- Generator: Adobe Illustrator 19.0.0, SVG Export Plug-In . SVG Version: 6.00 Build 0)  -->
<svg version="1.1" id="Layer_1" xmlns="http://www.w3.org/2000/svg" xmlns:xlink="http://www.w3.org/1999/xlink" x="0px" y="0px"
	 viewBox="0 0 501.551 501.551" style="enable-background:new 0 0 501.551 501.551;" xml:space="preserve">
<rect x="39.706" y="48.065" style="fill:#ACB3BA;" width="50.155" height="453.486"/>
<path style="fill:#FFD15C;" d="M477.518,88.816v282.122c-124.343-91.951-247.641,80.457-371.984,10.449
	c-5.224-3.135-10.449-6.269-15.673-10.449V88.816c5.224,4.18,10.449,7.314,15.673,10.449
	C229.878,170.318,353.176-2.09,477.518,88.816z"/>
<path style="fill:#9AA9B5;" d="M89.861,48.065v42.841c-7.314,4.18-15.673,6.269-25.078,6.269s-17.763-2.09-25.078-6.269V48.065
	H89.861z"/>
<circle style="fill:#FF7058;" cx="64.784" cy="40.751" r="40.751"/>
<path style="fill:#F8B64C;" d="M105.535,99.265v282.122c-5.224-3.135-10.449-6.269-15.673-10.449V88.816
	C95.086,92.996,100.31,96.131,105.535,99.265z"/>
<g>
</g>
<g>
</g>
<g>
</g>
<g>
</g>
<g>
</g>
<g>
</g>
<g>
</g>
<g>
</g>
<g>
</g>
<g>
</g>
<g>
</g>
<g>
</g>
<g>
</g>
<g>
</g>
<g>
</g>
</svg>
