<?xml version="1.0" encoding="iso-8859-1"?>
<!-- Generator: Adobe Illustrator 19.0.0, SVG Export Plug-In . SVG Version: 6.00 Build 0)  -->
<svg version="1.1" id="Layer_1" xmlns="http://www.w3.org/2000/svg" xmlns:xlink="http://www.w3.org/1999/xlink" x="0px" y="0px"
	 viewBox="0 0 503.641 503.641" style="enable-background:new 0 0 503.641 503.641;" xml:space="preserve">
<path style="fill:#F8B64C;" d="M502.596,382.433V66.873c0-11.494-9.404-20.898-20.898-20.898H242.416
	c-16.718,0-33.437-8.359-42.841-22.988C190.171,9.404,173.453,0,156.735,0H21.943C10.449,0,1.045,9.404,1.045,20.898v361.535
	H502.596z"/>
<rect x="35.527" y="66.873" style="fill:#F2F2F2;" width="432.588" height="238.237"/>
<g>
	<rect x="76.278" y="94.041" style="fill:#CDD6E0;" width="351.086" height="24.033"/>
	<rect x="76.278" y="144.196" style="fill:#CDD6E0;" width="351.086" height="24.033"/>
</g>
<path style="fill:#FFD15C;" d="M502.596,481.698V166.139c0-11.494-9.404-20.898-20.898-20.898H346.906
	c-16.718,0-33.437,8.359-42.841,22.988l0,0c-9.404,13.584-26.122,22.988-42.841,22.988H21.943c-11.494,0-20.898,9.404-20.898,20.898
	v270.629c0,11.494,9.404,20.898,20.898,20.898h459.755C493.192,502.596,502.596,493.192,502.596,481.698z"/>
<g>
</g>
<g>
</g>
<g>
</g>
<g>
</g>
<g>
</g>
<g>
</g>
<g>
</g>
<g>
</g>
<g>
</g>
<g>
</g>
<g>
</g>
<g>
</g>
<g>
</g>
<g>
</g>
<g>
</g>
</svg>
