<?xml version="1.0" encoding="iso-8859-1"?>
<!-- Generator: Adobe Illustrator 19.0.0, SVG Export Plug-In . SVG Version: 6.00 Build 0)  -->
<svg version="1.1" id="Layer_1" xmlns="http://www.w3.org/2000/svg" xmlns:xlink="http://www.w3.org/1999/xlink" x="0px" y="0px"
	 viewBox="0 0 501.71 501.71" style="enable-background:new 0 0 501.71 501.71;" xml:space="preserve">
<path style="fill:#F8B64C;" d="M470.283,73.222v126.433H31.426V20.977c0-11.494,9.404-20.898,20.898-20.898h126.433
	c11.494,0,20.898,9.404,20.898,20.898v31.347h249.731C460.879,52.324,470.283,61.728,470.283,73.222z"/>
<path style="fill:#FFD15C;" d="M480.732,199.655H20.977c-12.539,0-21.943,10.449-20.898,22.988l30.302,259.135
	c1.045,11.494,9.404,19.853,20.898,19.853H450.43c11.494,0,19.853-8.359,20.898-19.853l30.302-259.135
	C502.675,211.149,493.271,199.655,480.732,199.655z"/>
<rect x="57.549" y="83.671" style="fill:#F2F2F2;" width="386.612" height="115.984"/>
<g>
	<rect x="83.671" y="107.704" style="fill:#CDD6E0;" width="334.367" height="26.122"/>
	<rect x="83.671" y="155.769" style="fill:#CDD6E0;" width="334.367" height="26.122"/>
</g>
<path style="fill:#FFFFFF;" d="M204.879,331.312v-36.571c0-21.943,20.898-41.796,45.976-41.796s45.976,19.853,45.976,41.796v36.571
	h31.347v-36.571c0-39.706-35.527-73.143-77.322-73.143s-77.322,33.437-77.322,73.143v36.571H204.879z"/>
<path style="fill:#FF7058;" d="M332.357,329.222H169.353c-11.494,0-20.898,9.404-20.898,20.898V458.79
	c0,11.494,9.404,20.898,20.898,20.898h163.004c11.494,0,20.898-9.404,20.898-20.898V350.12
	C353.255,338.626,343.851,329.222,332.357,329.222z"/>
<path style="fill:#41596B;" d="M273.843,392.961c0-14.629-13.584-26.122-28.212-22.988c-9.404,2.09-15.673,9.404-17.763,17.763
	c-2.09,10.449,3.135,19.853,10.449,25.078v15.673c0,6.269,5.224,12.539,12.539,12.539l0,0c6.269,0,12.539-5.224,12.539-12.539
	v-15.673C269.663,408.634,273.843,401.32,273.843,392.961z"/>
<g>
</g>
<g>
</g>
<g>
</g>
<g>
</g>
<g>
</g>
<g>
</g>
<g>
</g>
<g>
</g>
<g>
</g>
<g>
</g>
<g>
</g>
<g>
</g>
<g>
</g>
<g>
</g>
<g>
</g>
</svg>
