<?xml version="1.0" encoding="iso-8859-1"?>
<!-- Generator: Adobe Illustrator 19.0.0, SVG Export Plug-In . SVG Version: 6.00 Build 0)  -->
<svg version="1.1" id="Layer_1" xmlns="http://www.w3.org/2000/svg" xmlns:xlink="http://www.w3.org/1999/xlink" x="0px" y="0px"
	 viewBox="0 0 501.551 501.551" style="enable-background:new 0 0 501.551 501.551;" xml:space="preserve">
<path style="fill:#F2F2F2;" d="M337.502,0H58.514C47.02,0,37.616,9.404,37.616,20.898v459.755c0,11.494,9.404,20.898,20.898,20.898
	h384.522c11.494,0,20.898-9.404,20.898-20.898v-354.22L337.502,0z"/>
<path style="fill:#CDD6E0;" d="M337.502,105.535c0,11.494,9.404,20.898,20.898,20.898h105.535L337.502,0V105.535z"/>
<path style="fill:#FF7058;" d="M491.102,398.106H10.449C4.18,398.106,0,402.286,0,408.555v60.604c0,6.269,4.18,10.449,10.449,10.449
	h480.653c6.269,0,10.449-4.18,10.449-10.449v-60.604C501.551,403.331,497.371,398.106,491.102,398.106z"/>
<g>
	<rect x="20.898" y="398.106" style="fill:#F2F2F2;" width="5.224" height="21.943"/>
	<rect x="62.694" y="398.106" style="fill:#F2F2F2;" width="5.224" height="21.943"/>
	<rect x="104.49" y="398.106" style="fill:#F2F2F2;" width="5.224" height="21.943"/>
	<rect x="145.241" y="398.106" style="fill:#F2F2F2;" width="5.224" height="21.943"/>
	<rect x="187.037" y="398.106" style="fill:#F2F2F2;" width="5.224" height="21.943"/>
	<rect x="228.833" y="398.106" style="fill:#F2F2F2;" width="5.224" height="21.943"/>
	<rect x="270.629" y="398.106" style="fill:#F2F2F2;" width="5.224" height="21.943"/>
	<rect x="311.38" y="398.106" style="fill:#F2F2F2;" width="5.224" height="21.943"/>
	<rect x="353.176" y="398.106" style="fill:#F2F2F2;" width="5.224" height="21.943"/>
	<rect x="394.971" y="398.106" style="fill:#F2F2F2;" width="5.224" height="21.943"/>
	<rect x="436.767" y="398.106" style="fill:#F2F2F2;" width="5.224" height="21.943"/>
	<rect x="478.563" y="398.106" style="fill:#F2F2F2;" width="5.224" height="21.943"/>
</g>
<path style="fill:#FF7058;" d="M501.551,345.861L501.551,345.861c0-10.449-8.359-18.808-18.808-18.808h-37.616v37.616h37.616
	C493.192,364.669,501.551,356.31,501.551,345.861z"/>
<polygon style="fill:#FFD05C;" points="57.469,327.053 57.469,364.669 21.943,353.176 0,345.861 21.943,338.547 "/>
<polygon style="fill:#40596B;" points="21.943,338.547 21.943,353.176 0,345.861 "/>
<polygon style="fill:#84DBFF;" points="57.469,327.053 57.469,338.547 427.363,338.547 427.363,338.547 427.363,327.053 "/>
<rect x="57.469" y="338.547" style="fill:#54C0EB;" width="369.894" height="14.629"/>
<rect x="57.469" y="353.176" style="fill:#84DBFF;" width="369.894" height="11.494"/>
<rect x="427.363" y="327.053" style="fill:#FFD15C;" width="17.763" height="37.616"/>
<path style="fill:#55BFE9;" d="M427.363,327.053h17.763H427.363z"/>
<polygon style="fill:#FFD15C;" points="445.126,338.547 445.126,338.547 445.126,327.053 "/>
<polygon style="fill:#55BFE9;" points="445.126,353.176 445.126,353.176 445.126,338.547 445.126,338.547 "/>
<rect x="230.922" y="154.645" style="fill:#CDD6E0;" width="71.053" height="71.053"/>
<polygon style="fill:#FF7058;" points="206.89,202.71 164.049,273.763 249.731,273.763 "/>
<circle style="fill:#40596B;" cx="300.931" cy="224.653" r="36.571"/>
<path style="fill:#F2F2F2;" d="M300.931,188.082v36.571h-36.571C264.359,204.8,281.078,188.082,300.931,188.082z"/>
<g>
</g>
<g>
</g>
<g>
</g>
<g>
</g>
<g>
</g>
<g>
</g>
<g>
</g>
<g>
</g>
<g>
</g>
<g>
</g>
<g>
</g>
<g>
</g>
<g>
</g>
<g>
</g>
<g>
</g>
</svg>
