<?xml version="1.0" encoding="iso-8859-1"?>
<!-- Generator: Adobe Illustrator 19.0.0, SVG Export Plug-In . SVG Version: 6.00 Build 0)  -->
<svg version="1.1" id="Layer_1" xmlns="http://www.w3.org/2000/svg" xmlns:xlink="http://www.w3.org/1999/xlink" x="0px" y="0px"
	 viewBox="0 0 502.596 502.596" style="enable-background:new 0 0 502.596 502.596;" xml:space="preserve">
<path style="fill:#40596B;" d="M285.257,424.751c-3.135-10.449-5.224-21.943-5.224-33.437c0-3.135,0-5.224,0-8.359h-56.424
	c0,3.135,0,5.224,0,8.359c0,11.494-2.09,22.988-5.224,33.437H285.257z M123.298,279.51c14.629,1.045,28.212,5.224,40.751,12.539
	l44.931-77.322c-13.584-5.224-25.078-13.584-34.482-22.988L123.298,279.51z M329.143,191.739
	c-10.449,9.404-21.943,17.763-35.527,22.988l44.931,77.322c12.539-6.269,26.122-10.449,40.751-12.539L329.143,191.739z"/>
<path style="fill:#F2F2F2;" d="M223.608,390.269c0,26.122-9.404,51.2-25.078,70.008c-20.898,25.078-51.2,41.796-86.727,41.796
	S45.976,486.4,25.078,460.278C9.404,441.469,0,416.392,0,390.269c0-61.649,50.155-111.804,111.804-111.804
	C174.498,279.51,223.608,328.62,223.608,390.269z"/>
<path style="fill:#84DBFF;" d="M199.576,460.278c-20.898,25.078-51.2,41.796-86.727,41.796S47.02,486.4,26.122,460.278
	c4.18-5.224,10.449-9.404,16.718-12.539c13.584-6.269,32.392-14.629,40.751-19.853c1.045-1.045,2.09-1.045,2.09-2.09
	c0,0,2.09-15.673,2.09-16.718c0,0-8.359-12.539-12.539-24.033c0,0,0,0-1.045,0c-3.135,1.045-6.269-4.18-7.314-11.494
	c-1.045-7.314,0-12.539,3.135-13.584l0,0c-2.09-14.629-2.09-54.335,42.841-53.29c44.931-1.045,43.886,38.661,42.841,53.29l0,0
	c3.135,1.045,4.18,6.269,3.135,13.584c-1.045,7.314-5.224,11.494-7.314,11.494c0,0,0,0-1.045,0
	c-3.135,11.494-12.539,24.033-12.539,24.033c0,1.045,2.09,16.718,2.09,16.718c1.045,1.045,1.045,1.045,2.09,2.09
	c8.359,5.224,27.167,14.629,40.751,19.853C189.127,450.873,194.351,455.053,199.576,460.278z"/>
<path style="fill:#F2F2F2;" d="M502.596,390.269c0,26.122-9.404,51.2-25.078,70.008c-20.898,25.078-51.2,41.796-86.727,41.796
	c-35.527,0-65.829-15.673-86.727-41.796c-15.673-18.808-25.078-43.886-25.078-70.008c0-61.649,50.155-111.804,111.804-111.804
	C452.441,279.51,502.596,328.62,502.596,390.269z"/>
<path style="fill:#84DBFF;" d="M477.518,460.278c-20.898,25.078-51.2,41.796-86.727,41.796c-35.527,0-65.829-15.673-86.727-41.796
	c4.18-5.224,10.449-9.404,16.718-12.539c13.584-6.269,32.392-14.629,40.751-19.853c1.045-1.045,2.09-1.045,2.09-2.09
	c0,0,2.09-15.673,2.09-16.718c0,0-8.359-12.539-12.539-24.033c0,0,0,0-1.045,0c-3.135,1.045-6.269-4.18-7.314-11.494
	c-1.045-7.314,0-12.539,3.135-13.584l0,0c-2.09-14.629-2.09-54.335,42.841-53.29c44.931-1.045,43.886,38.661,42.841,53.29l0,0
	c3.135,1.045,4.18,6.269,3.135,13.584c-1.045,7.314-5.224,11.494-7.314,11.494c0,0,0,0-1.045,0
	c-3.135,11.494-12.539,24.033-12.539,24.033c0,1.045,2.09,16.718,2.09,16.718c1.045,1.045,1.045,1.045,2.09,2.09
	c8.359,5.224,27.167,14.629,40.751,19.853C468.114,450.873,473.339,455.053,477.518,460.278z"/>
<path style="fill:#F2F2F2;" d="M363.625,112.327c0,26.122-9.404,51.2-25.078,70.008c-20.898,25.078-51.2,41.796-86.727,41.796
	s-65.829-15.673-86.727-41.796c-15.673-18.808-25.078-43.886-25.078-70.008c0-61.649,50.155-111.804,111.804-111.804
	S363.625,50.678,363.625,112.327z"/>
<path style="fill:#84DBFF;" d="M338.547,182.335c-20.898,25.078-51.2,41.796-86.727,41.796s-65.829-15.673-86.727-41.796
	c4.18-5.224,10.449-9.404,16.718-12.539c13.584-6.269,32.392-14.629,40.751-19.853c1.045-1.045,2.09-1.045,2.09-2.09
	c0,0,2.09-15.673,2.09-16.718c0,0-8.359-12.539-12.539-24.033c0,0,0,0-1.045,0c-3.135,1.045-6.269-4.18-7.314-11.494
	c-1.045-7.314,0-12.539,3.135-13.584l0,0c-2.09-14.629-2.09-54.335,42.841-53.29c44.931-1.045,43.886,38.661,42.841,53.29l0,0
	c3.135,1.045,4.18,6.269,3.135,13.584c-1.045,7.314-5.224,11.494-7.314,11.494c0,0,0,0-1.045,0
	c-3.135,11.494-12.539,24.033-12.539,24.033c0,1.045,2.09,16.718,2.09,16.718c1.045,1.045,1.045,1.045,2.09,2.09
	c8.359,5.224,27.167,14.629,40.751,19.853C328.098,171.886,334.367,176.065,338.547,182.335z"/>
<g>
</g>
<g>
</g>
<g>
</g>
<g>
</g>
<g>
</g>
<g>
</g>
<g>
</g>
<g>
</g>
<g>
</g>
<g>
</g>
<g>
</g>
<g>
</g>
<g>
</g>
<g>
</g>
<g>
</g>
</svg>
