<?xml version="1.0" encoding="iso-8859-1"?>
<!-- Generator: Adobe Illustrator 19.0.0, SVG Export Plug-In . SVG Version: 6.00 Build 0)  -->
<svg version="1.1" id="Layer_1" xmlns="http://www.w3.org/2000/svg" xmlns:xlink="http://www.w3.org/1999/xlink" x="0px" y="0px"
	 viewBox="0 0 502.596 502.596" style="enable-background:new 0 0 502.596 502.596;" xml:space="preserve">
<path style="fill:#FF7058;" d="M40.229,242.416L40.229,242.416v131.657l0,0c-21.943,0-39.706-17.763-39.706-39.706v-53.29
	C0.522,260.18,18.286,242.416,40.229,242.416z"/>
<g>
	<path style="fill:#40596B;" d="M40.229,236.147v145.241c0,11.494,9.404,20.898,20.898,20.898h71.053V215.249H61.127
		C49.633,215.249,40.229,224.653,40.229,236.147z"/>
	<path style="fill:#40596B;" d="M441.469,215.249h-71.053v187.037h71.053c11.494,0,20.898-9.404,20.898-20.898V236.147
		C462.367,224.653,452.963,215.249,441.469,215.249z"/>
</g>
<path style="fill:#FF7058;" d="M502.073,282.122v53.29c0,10.449-4.18,20.898-11.494,27.167c-3.135,3.135-7.314,6.269-12.539,8.359
	c-5.224,2.09-10.449,3.135-15.673,3.135V242.416c5.224,0,10.449,1.045,15.673,3.135C492.669,251.82,502.073,265.404,502.073,282.122
	z"/>
<g>
	<path style="fill:#F2F2F2;" d="M443.559,191.216C443.559,85.682,356.833,0,251.298,0S59.037,85.682,59.037,191.216v22.988h54.335
		v-22.988c0-75.233,61.649-136.882,137.927-136.882s137.927,61.649,137.927,136.882v22.988h43.886h10.449V191.216z"/>
	<path style="fill:#F2F2F2;" d="M344.294,487.967h-57.469v-26.122h57.469c33.437,0,60.604-27.167,60.604-60.604h26.122
		C431.02,449.306,392.359,487.967,344.294,487.967z"/>
</g>
<path style="fill:#FFD15C;" d="M295.184,449.306h-71.053c-8.359,0-14.629,6.269-14.629,14.629v24.033
	c0,8.359,6.269,14.629,14.629,14.629h71.053c8.359,0,14.629-6.269,14.629-14.629v-24.033
	C309.812,455.575,303.543,449.306,295.184,449.306z"/>
<g>
</g>
<g>
</g>
<g>
</g>
<g>
</g>
<g>
</g>
<g>
</g>
<g>
</g>
<g>
</g>
<g>
</g>
<g>
</g>
<g>
</g>
<g>
</g>
<g>
</g>
<g>
</g>
<g>
</g>
</svg>
