<?xml version="1.0" encoding="iso-8859-1"?>
<!-- Generator: Adobe Illustrator 19.0.0, SVG Export Plug-In . SVG Version: 6.00 Build 0)  -->
<svg version="1.1" id="Layer_1" xmlns="http://www.w3.org/2000/svg" xmlns:xlink="http://www.w3.org/1999/xlink" x="0px" y="0px"
	 viewBox="0 0 501.551 501.551" style="enable-background:new 0 0 501.551 501.551;" xml:space="preserve">
<g>
	<rect y="387.657" style="fill:#CDD6E0;" width="133.747" height="113.894"/>
	<rect x="183.902" y="387.657" style="fill:#CDD6E0;" width="133.747" height="113.894"/>
</g>
<path style="fill:#ACB3BA;" d="M78.367,387.657V356.31h159.869v31.347h24.033V356.31h160.914v31.347h24.033v-34.482
	c0-11.494-9.404-20.898-20.898-20.898H263.314v-42.841h-24.033v42.841H75.233c-11.494,0-20.898,9.404-20.898,20.898v34.482H78.367z"
	/>
<path style="fill:#FFD15C;" d="M444.082,0H57.469C45.976,0,36.571,9.404,36.571,20.898v248.686c0,11.494,9.404,20.898,20.898,20.898
	h386.612c11.494,0,20.898-9.404,20.898-20.898V20.898C464.98,9.404,455.575,0,444.082,0z"/>
<g>
	<rect x="68.054" y="94.177" style="fill:#FFFFFF;" width="365.714" height="164.049"/>
	<circle style="fill:#FFFFFF;" cx="293.616" cy="47.02" r="18.808"/>
	<circle style="fill:#FFFFFF;" cx="354.22" cy="47.02" r="18.808"/>
	<circle style="fill:#FFFFFF;" cx="414.824" cy="47.02" r="18.808"/>
</g>
<g>
	<rect x="203.755" y="142.106" style="fill:#FF7058;" width="94.041" height="70.008"/>
	<rect x="322.873" y="142.106" style="fill:#FF7058;" width="94.041" height="70.008"/>
	<rect x="84.637" y="142.106" style="fill:#FF7058;" width="94.041" height="70.008"/>
</g>
<rect x="367.804" y="387.657" style="fill:#CDD6E0;" width="133.747" height="113.894"/>
<g>
</g>
<g>
</g>
<g>
</g>
<g>
</g>
<g>
</g>
<g>
</g>
<g>
</g>
<g>
</g>
<g>
</g>
<g>
</g>
<g>
</g>
<g>
</g>
<g>
</g>
<g>
</g>
<g>
</g>
</svg>
