<?xml version="1.0" encoding="iso-8859-1"?>
<!-- Generator: Adobe Illustrator 19.0.0, SVG Export Plug-In . SVG Version: 6.00 Build 0)  -->
<svg version="1.1" id="Layer_1" xmlns="http://www.w3.org/2000/svg" xmlns:xlink="http://www.w3.org/1999/xlink" x="0px" y="0px"
	 viewBox="0 0 502.596 502.596" style="enable-background:new 0 0 502.596 502.596;" xml:space="preserve">
<polygon style="fill:#CDD6E0;" points="436.767,304.065 436.767,360.49 415.869,360.49 415.869,324.963 261.224,324.963 
	261.224,356.31 240.327,356.31 240.327,324.963 85.682,324.963 85.682,360.49 64.784,360.49 64.784,304.065 240.327,304.065 
	240.327,272.718 261.224,272.718 261.224,304.065 "/>
<g>
	<path style="fill:#F2F2F2;" d="M150.465,426.318c0,15.673-4.18,30.302-12.539,41.796c-6.269,8.359-13.584,15.673-21.943,21.943
		c-1.045,1.045-3.135,2.09-4.18,3.135c-10.449,6.269-22.988,9.404-36.571,9.404c-12.539,0-25.078-3.135-35.527-9.404
		c-1.045-1.045-3.135-2.09-4.18-3.135c-8.359-5.224-16.718-12.539-21.943-21.943C5.224,456.62,1.045,441.992,1.045,426.318
		c0-41.796,33.437-75.233,75.233-75.233C117.029,350.041,150.465,384.522,150.465,426.318z"/>
	<circle style="fill:#F2F2F2;" cx="426.318" cy="426.318" r="75.233"/>
	<path style="fill:#F2F2F2;" d="M326.008,426.318c0,16.718-5.224,32.392-14.629,44.931c-13.584,18.808-35.527,31.347-60.604,31.347
		s-47.02-12.539-60.604-31.347c-9.404-12.539-14.629-28.212-14.629-44.931c0-41.796,33.437-75.233,75.233-75.233
		S326.008,384.522,326.008,426.318z"/>
</g>
<path style="fill:#FF7058;" d="M311.38,470.204c-13.584,18.808-35.527,31.347-60.604,31.347s-47.02-12.539-60.604-31.347
	c3.135-3.135,6.269-4.18,9.404-6.269c10.449-4.18,24.033-10.449,30.302-14.629c1.045,0,1.045-1.045,2.09-1.045
	c0,0,1.045-11.494,1.045-12.539c0,0-6.269-9.404-9.404-17.763l0,0c-2.09,0-4.18-3.135-5.224-8.359c-1.045-5.224,0-9.404,2.09-9.404
	l0,0c-1.045-10.449-2.09-39.706,31.347-39.706c32.392,0,32.392,29.257,31.347,39.706l0,0c2.09,0,3.135,5.224,2.09,9.404
	c-1.045,5.224-3.135,8.359-5.224,8.359l0,0c-3.135,8.359-9.404,17.763-9.404,17.763c0,1.045,1.045,12.539,1.045,12.539
	c1.045,0,1.045,1.045,2.09,1.045c5.224,4.18,19.853,10.449,30.302,14.629C305.11,466.024,309.29,468.114,311.38,470.204z"/>
<path style="fill:#CDD6E0;" d="M135.837,470.204c-13.584,18.808-35.527,31.347-60.604,31.347s-47.02-12.539-60.604-31.347
	c3.135-3.135,6.269-4.18,9.404-6.269c10.449-4.18,24.033-10.449,30.302-14.629c1.045,0,1.045-1.045,2.09-1.045
	c0,0,1.045-11.494,1.045-12.539c0,0-6.269-9.404-9.404-17.763l0,0c-2.09,0-4.18-3.135-5.224-8.359c-1.045-5.224,0-9.404,2.09-9.404
	l0,0c-1.045-10.449-2.09-39.706,31.347-39.706c32.392,0,32.392,29.257,31.347,39.706l0,0c2.09,0,3.135,5.224,2.09,9.404
	c-1.045,5.224-3.135,8.359-5.224,8.359l0,0c-3.135,8.359-9.404,17.763-9.404,17.763c0,1.045,1.045,12.539,1.045,12.539
	c1.045,0,1.045,1.045,2.09,1.045c6.269,4.18,19.853,10.449,30.302,14.629C130.612,466.024,133.747,468.114,135.837,470.204z"/>
<path style="fill:#84DBFF;" d="M486.922,470.204c-13.584,18.808-35.527,31.347-60.604,31.347c-25.078,0-47.02-12.539-60.604-31.347
	c3.135-3.135,6.269-4.18,9.404-6.269c10.449-4.18,24.033-10.449,30.302-14.629c1.045,0,1.045-1.045,2.09-1.045
	c0,0,1.045-11.494,1.045-12.539c0,0-6.269-9.404-9.404-17.763l0,0c-2.09,0-4.18-3.135-5.224-8.359c-1.045-5.224,0-9.404,2.09-9.404
	l0,0c-1.045-10.449-2.09-39.706,31.347-39.706c32.392,0,32.392,29.257,31.347,39.706l0,0c2.09,0,3.135,5.224,2.09,9.404
	c-1.045,5.224-3.135,8.359-5.224,8.359l0,0c-3.135,8.359-9.404,17.763-9.404,17.763c0,1.045,1.045,12.539,1.045,12.539
	s1.045,1.045,2.09,1.045c5.224,4.18,19.853,10.449,30.302,14.629C480.653,466.024,483.788,468.114,486.922,470.204z"/>
<path style="fill:#B8CAD8;" d="M261.224,272.718v21.943c-1.045,0-1.045,0-2.09,0h-1.045c-2.09,0-4.18,0-7.314,0
	c-3.135,0-5.224,0-8.359,0c-1.045,0-2.09,0-2.09,0v-21.943H261.224z"/>
<path style="fill:#ACB3BA;" d="M389.747,138.971c0,29.257-9.404,56.424-25.078,79.412c-5.224,7.314-11.494,14.629-18.808,21.943
	c-22.988,21.943-54.335,36.571-88.816,38.661l0,0c-2.09,0-5.224,0-7.314,0s-5.224,0-7.314,0
	c-34.482-2.09-65.829-15.673-88.816-38.661c-7.314-6.269-12.539-13.584-18.808-21.943c-15.673-22.988-25.078-50.155-25.078-79.412
	C109.714,61.649,172.408,0,248.686,0C328.098,0,389.747,62.694,389.747,138.971z"/>
<g>
	
		<ellipse transform="matrix(-0.1961 -0.9806 0.9806 -0.1961 140.5457 317.8896)" style="fill:#F8B64C;" cx="200.579" cy="101.334" rx="15.674" ry="6.269"/>
	
		<ellipse transform="matrix(-0.9806 -0.1961 0.1961 -0.9806 575.9489 260.4168)" style="fill:#F8B64C;" cx="300.866" cy="101.696" rx="6.269" ry="15.674"/>
</g>
<path style="fill:#CDD6E0;" d="M365.714,218.384c-5.224,7.314-11.494,14.629-18.808,21.943
	c-22.988,21.943-54.335,36.571-88.816,38.661h-14.629c-34.482-2.09-65.829-15.673-88.816-38.661
	c-7.314-6.269-12.539-13.584-18.808-21.943c2.09-6.269,5.224-11.494,8.359-15.673c0,0,1.045,0,2.09-1.045l0,0l0,0
	c2.09-1.045,7.314-2.09,12.539-5.224c12.539-5.224,30.302-12.539,44.931-20.898c2.09-1.045,5.224-3.135,7.314-4.18
	c2.09-1.045,4.18-3.135,6.269-4.18l0,0l2.09-9.404c0,0,8.359,16.718,26.122,18.808c1.045,0,3.135,0,4.18,0h2.09
	c2.09,0,4.18,0,6.269,0l0,0c1.045,0,2.09,0,3.135-1.045c1.045,0,2.09-1.045,3.135-1.045c2.09-1.045,3.135-1.045,4.18-2.09
	c1.045,0,2.09-1.045,3.135-2.09c2.09-1.045,3.135-2.09,4.18-3.135c2.09-2.09,3.135-3.135,4.18-4.18
	c2.09-3.135,3.135-5.224,3.135-5.224l2.09,9.404c19.853,14.629,60.604,30.302,71.053,34.482c1.045,0,2.09,1.045,2.09,1.045
	C360.49,206.89,362.58,213.159,365.714,218.384z"/>
<path style="fill:#ACB3BA;" d="M220.473,196.441l8.359,14.629l11.494-17.763l-3.135-3.135l-9.404,13.584l-10.449-19.853
	C218.384,187.037,218.384,191.216,220.473,196.441z"/>
<path style="fill:#F8B64C;" d="M282.122,158.824c0,0-8.359,16.718-26.122,18.808c-2.09,0-4.18,0-6.269,0c-2.09,0-4.18,0-6.269,0
	c-17.763-2.09-26.122-18.808-26.122-18.808s0-3.135,0-6.269c0-2.09,0-3.135,0-5.224c14.629,18.808,31.347,20.898,31.347,20.898
	s16.718-3.135,31.347-20.898c0,1.045,0,3.135,0,5.225C282.122,154.645,282.122,158.824,282.122,158.824z"/>
<path style="fill:#F7AF48;" d="M282.122,151.51c-14.629,15.673-29.257,18.808-30.302,18.808l0,0l0,0
	c-1.045,0-16.718-3.135-30.302-18.808c0-2.09,0-3.135,0-5.225c14.629,18.808,31.347,20.898,31.347,20.898
	s16.718-3.135,31.347-20.898C282.122,148.376,282.122,149.42,282.122,151.51z"/>
<path style="fill:#FFD15C;" d="M303.02,87.771c0,3.135-1.045,5.224-1.045,5.224c-9.404,67.918-52.245,75.233-52.245,75.233
	s-42.841-7.314-52.245-75.233c0,0,0-2.09-1.045-5.224l0,0c-2.09-16.718-4.18-68.963,52.245-67.918
	C307.2,17.763,306.155,70.008,303.02,87.771z"/>
<path style="fill:#40596B;" d="M356.31,203.755l-9.404,36.571c-22.988,21.943-54.335,36.571-88.816,38.661h-7.314v-17.763
	c1.045-2.09,2.09-4.18,3.135-7.314c2.09-5.224,5.225-10.449,7.314-14.629c0-1.045,1.045-1.045,1.045-2.09
	c6.269-11.494,10.449-20.898,10.449-20.898c3.135-7.314,6.269-13.584,8.359-19.853c1.045-2.09,1.045-5.224,2.09-7.314
	c3.135-14.629,1.045-21.943,1.045-21.943l0,0c19.853,14.629,60.604,30.302,71.053,34.482L356.31,203.755z"/>
<path style="fill:#ACB3BA;" d="M281.078,196.441l-8.359,14.629l-11.494-17.763l3.135-3.135l9.404,13.584l10.449-19.853
	C284.212,187.037,283.167,191.216,281.078,196.441z"/>
<path style="fill:#FFFFFF;" d="M256,198.531l6.269,38.661c-4.18,7.314-8.359,16.718-11.494,24.033
	c-3.135-7.314-8.359-16.718-11.494-24.033l6.269-38.661l-8.359-9.404l7.314-12.539l0,0c2.09,0,4.18,0,6.269,0c2.09,0,4.18,0,6.269,0
	l0,0l7.314,12.539L256,198.531z"/>
<g>
	<path style="fill:#334A5E;" d="M258.09,278.988L258.09,278.988h-7.314c-2.09,0-5.224,0-7.314,0
		c-34.482-2.09-65.829-15.673-88.816-38.661l-9.404-36.571l2.09-1.045l0,0l0,0c2.09-1.045,7.314-2.09,12.539-4.18
		c12.539-5.225,30.302-12.539,44.931-20.898c2.09-1.045,5.224-3.135,7.314-4.18c2.09-1.045,4.18-3.135,6.269-4.18l0,0
		c0,0-2.09,7.314,1.045,21.943c0,2.09,1.045,4.18,2.09,7.314c2.09,6.269,4.18,12.539,8.359,19.853c0,0,5.225,9.404,10.449,20.898
		c0,1.045,1.045,1.045,1.045,2.09c2.09,5.224,5.225,10.449,7.314,14.629c1.045,2.09,2.09,5.224,3.135,7.314
		C254.955,269.584,258.09,275.853,258.09,278.988z"/>
	<path style="fill:#334A5E;" d="M303.02,87.771l-2.09,2.09c0,0-2.09-27.167-14.629-47.02c0,0-8.359,11.494-35.527,11.494
		c-28.212,0-35.527-11.494-35.527-11.494c-12.539,18.808-14.629,47.02-14.629,47.02l-2.09-2.09l0,0
		c-2.09-16.718-4.18-68.963,52.245-67.918C307.2,17.763,306.155,70.008,303.02,87.771z"/>
</g>
<g>
</g>
<g>
</g>
<g>
</g>
<g>
</g>
<g>
</g>
<g>
</g>
<g>
</g>
<g>
</g>
<g>
</g>
<g>
</g>
<g>
</g>
<g>
</g>
<g>
</g>
<g>
</g>
<g>
</g>
</svg>
