<?xml version="1.0" encoding="iso-8859-1"?>
<!-- Generator: Adobe Illustrator 19.0.0, SVG Export Plug-In . SVG Version: 6.00 Build 0)  -->
<svg version="1.1" id="Layer_1" xmlns="http://www.w3.org/2000/svg" xmlns:xlink="http://www.w3.org/1999/xlink" x="0px" y="0px"
	 viewBox="0 0 501.551 501.551" style="enable-background:new 0 0 501.551 501.551;" xml:space="preserve">
<path style="fill:#F2F2F2;" d="M379.298,60.604v72.098c0,53.29-32.392,98.22-78.367,118.073
	c45.976,19.853,78.367,65.829,78.367,118.073v72.098H122.253v-72.098c0-53.29,32.392-98.22,78.367-118.073
	c-45.975-19.853-78.367-65.829-78.367-118.073V60.604H379.298z"/>
<g>
	<path style="fill:#FF7058;" d="M250.776,250.776c0,0-102.4-45.976-102.4-102.4H354.22
		C353.176,204.8,250.776,250.776,250.776,250.776z"/>
	<path style="fill:#FF7058;" d="M165.094,359.445c-10.449,15.673-16.718,35.527-16.718,55.38H354.22
		c0-20.898-6.269-39.706-16.718-55.38H165.094z"/>
</g>
<g>
	<path style="fill:#40596B;" d="M391.837,440.947H109.714c-11.494,0-20.898,9.404-20.898,20.898v18.808
		c0,11.494,9.404,20.898,20.898,20.898h282.122c11.494,0,20.898-9.404,20.898-20.898v-18.808
		C412.735,450.351,403.331,440.947,391.837,440.947z"/>
	<path style="fill:#40596B;" d="M391.837,0H109.714C98.22,0,88.816,9.404,88.816,20.898v18.808c0,11.494,9.404,20.898,20.898,20.898
		h282.122c11.494,0,20.898-9.404,20.898-20.898V20.898C412.735,9.404,403.331,0,391.837,0z"/>
</g>
<rect x="122.253" y="60.604" style="fill:#CDD6E0;" width="257.045" height="15.673"/>
<g>
</g>
<g>
</g>
<g>
</g>
<g>
</g>
<g>
</g>
<g>
</g>
<g>
</g>
<g>
</g>
<g>
</g>
<g>
</g>
<g>
</g>
<g>
</g>
<g>
</g>
<g>
</g>
<g>
</g>
</svg>
