<?xml version="1.0" encoding="iso-8859-1"?>
<!-- Generator: Adobe Illustrator 19.0.0, SVG Export Plug-In . SVG Version: 6.00 Build 0)  -->
<svg version="1.1" id="Layer_1" xmlns="http://www.w3.org/2000/svg" xmlns:xlink="http://www.w3.org/1999/xlink" x="0px" y="0px"
	 viewBox="0 0 501.551 501.551" style="enable-background:new 0 0 501.551 501.551;" xml:space="preserve">
<path style="fill:#F2F2F2;" d="M480.653,124.343H20.898C9.404,124.343,0,133.747,0,145.241v335.412
	c0,11.494,9.404,20.898,20.898,20.898h459.755c11.494,0,20.898-9.404,20.898-20.898V145.241
	C501.551,133.747,492.147,124.343,480.653,124.343z"/>
<path style="fill:#FFFFFF;" d="M312.424,151.51H189.127c-5.224,0-9.404,4.18-9.404,9.404s4.18,9.404,9.404,9.404h124.343
	c5.224,0,9.404-4.18,9.404-9.404C321.829,155.69,317.649,151.51,312.424,151.51z"/>
<rect x="198.531" style="fill:#FF7058;" width="104.49" height="160.914"/>
<rect x="47.02" y="194.351" style="fill:#84DBFF;" width="180.767" height="200.62"/>
<g>
	<rect x="277.943" y="252.865" style="fill:#CDD6E0;" width="176.588" height="24.033"/>
	<rect x="277.943" y="311.38" style="fill:#CDD6E0;" width="176.588" height="24.033"/>
	<rect x="277.943" y="370.939" style="fill:#CDD6E0;" width="176.588" height="24.033"/>
	<rect x="48.065" y="429.453" style="fill:#CDD6E0;" width="406.465" height="24.033"/>
</g>
<g>
	
		<ellipse transform="matrix(-0.1961 -0.9806 0.9806 -0.1961 -144.7462 428.7683)" style="fill:#F8B64C;" cx="103.383" cy="273.717" rx="10.449" ry="4.18"/>
	
		<ellipse transform="matrix(-0.9806 -0.1961 0.1961 -0.9806 286.2283 576.9887)" style="fill:#F8B64C;" cx="171.678" cy="274.325" rx="4.18" ry="10.449"/>
</g>
<path style="fill:#FFFFFF;" d="M224.653,394.971H50.155c0,0,3.135-35.527,14.629-52.245c0,0,0,0,1.045,0
	c7.314-3.135,35.527-13.584,49.11-24.033l1.045-6.269c0,0,5.224,11.494,17.763,12.539c1.045,0,2.09,0,4.18,0c1.045,0,3.135,0,4.18,0
	c12.539-2.09,17.763-12.539,17.763-12.539l1.045,6.269c13.584,10.449,41.796,20.898,48.065,22.988c1.045,0,1.045,0,1.045,0
	C221.518,358.4,224.653,394.971,224.653,394.971z"/>
<path style="fill:#CDD6E0;" d="M117.029,338.547l5.224,9.404l8.359-12.539l-2.09-2.09l-6.269,9.404l-7.314-13.584
	C114.939,332.278,115.984,335.412,117.029,338.547z"/>
<path style="fill:#F8B64C;" d="M158.824,312.424c0,0-5.224,11.494-17.763,12.539c-1.045,0-2.09,0-4.18,0c-1.045,0-3.135,0-4.18,0
	c-12.539-2.09-17.763-12.539-17.763-12.539s0-2.09,0-4.18c0-1.045,0-2.09,0-3.135c10.449,12.539,20.898,14.629,20.898,14.629
	s11.494-2.09,20.898-14.629c0,1.045,0,2.09,0,3.135C158.824,310.335,158.824,312.424,158.824,312.424z"/>
<path style="fill:#F7AF48;" d="M158.824,308.245c-9.404,11.494-19.853,12.539-20.898,12.539l0,0l0,0
	c-1.045,0-11.494-2.09-20.898-12.539c0-1.045,0-2.09,0-3.135c10.449,12.539,20.898,14.629,20.898,14.629s11.494-2.09,20.898-14.629
	C158.824,305.11,158.824,307.2,158.824,308.245z"/>
<path style="fill:#FFD15C;" d="M173.453,264.359c0,2.09-1.045,3.135-1.045,3.135c-6.269,47.02-35.527,51.2-35.527,51.2
	s-29.257-5.224-35.527-51.2c0,0,0-1.045-1.045-3.135l0,0c-1.045-11.494-3.135-47.02,35.527-47.02
	C176.588,217.339,174.498,252.865,173.453,264.359z"/>
<path style="fill:#40596B;" d="M137.927,382.433v11.494h58.514l13.584-51.2l-1.045-1.045c-7.314-2.09-35.527-12.539-49.11-22.988
	l0,0c0,0,3.135,11.494-7.314,33.437C152.555,352.131,143.151,369.894,137.927,382.433z"/>
<path style="fill:#CDD6E0;" d="M157.78,338.547l-5.224,9.404l-8.359-12.539l2.09-2.09l6.269,9.404l7.314-13.584
	C159.869,332.278,158.824,335.412,157.78,338.547z"/>
<path style="fill:#FF7058;" d="M141.061,340.637l4.18,26.122c-3.135,5.224-5.224,11.494-8.359,16.718
	c-2.09-5.224-5.224-11.494-8.359-16.718l4.18-26.122l-5.224-6.269l5.224-8.359l0,0c1.045,0,2.09,0,4.18,0c1.045,0,3.135,0,4.18,0
	l0,0l5.224,8.359L141.061,340.637z"/>
<g>
	<path style="fill:#334A5E;" d="M143.151,394.971H78.367l-13.584-51.2l1.045-1.045c7.314-3.135,35.527-13.584,49.11-24.033l0,0l0,0
		c0,0-3.135,11.494,7.314,33.437c0,0,9.404,17.763,15.673,30.302C140.016,388.702,142.106,392.882,143.151,394.971z"/>
	<path style="fill:#334A5E;" d="M173.453,264.359l-1.045,1.045c0,0-2.09-18.808-10.449-31.347c0,0-5.224,8.359-24.033,8.359
		s-24.033-8.359-24.033-8.359c-8.359,13.584-10.449,31.347-10.449,31.347l-1.045-1.045l0,0c-1.045-11.494-3.135-47.02,35.527-47.02
		S174.498,252.865,173.453,264.359z"/>
</g>
<g>
</g>
<g>
</g>
<g>
</g>
<g>
</g>
<g>
</g>
<g>
</g>
<g>
</g>
<g>
</g>
<g>
</g>
<g>
</g>
<g>
</g>
<g>
</g>
<g>
</g>
<g>
</g>
<g>
</g>
</svg>
