<?xml version="1.0" encoding="iso-8859-1"?>
<!-- Generator: Adobe Illustrator 19.0.0, SVG Export Plug-In . SVG Version: 6.00 Build 0)  -->
<svg version="1.1" id="Layer_1" xmlns="http://www.w3.org/2000/svg" xmlns:xlink="http://www.w3.org/1999/xlink" x="0px" y="0px"
	 viewBox="0 0 501.551 501.551" style="enable-background:new 0 0 501.551 501.551;" xml:space="preserve">
<g>
	<path style="fill:#F2F2F2;" d="M253.91,0v52.245c-1.045,0-2.09,0-3.135,0c-1.045,0-2.09,0-3.135,0V0H253.91z"/>
	<path style="fill:#F2F2F2;" d="M253.91,378.253v52.245h-5.224v-52.245c1.045,0,2.09,0,3.135,0
		C251.82,378.253,252.865,378.253,253.91,378.253z"/>
	<path style="fill:#F2F2F2;" d="M183.902,45.976l7.314,17.763c-1.045,0-2.09,1.045-2.09,1.045c-1.045,0-2.09,1.045-2.09,1.045
		l-7.314-17.763L183.902,45.976z"/>
	<path style="fill:#F2F2F2;" d="M315.559,364.669l7.314,17.763l-5.224,2.09l-7.314-17.763c1.045,0,2.09-1.045,2.09-1.045
		C313.469,365.714,314.514,364.669,315.559,364.669z"/>
	<path style="fill:#F2F2F2;" d="M83.592,143.151l17.763,7.314c0,1.045-1.045,2.09-1.045,2.09c0,1.045-1.045,2.09-1.045,2.09
		l-17.763-7.314L83.592,143.151z"/>
	<path style="fill:#F2F2F2;" d="M402.286,274.808l17.763,7.314l-2.09,5.224l-17.763-7.314c0-1.045,1.045-2.09,1.045-2.09
		C401.241,276.898,402.286,275.853,402.286,274.808z"/>
	<path style="fill:#F2F2F2;" d="M81.502,282.122l17.763-7.314c0,1.045,1.045,2.09,1.045,2.09c0,1.045,1.045,2.09,1.045,2.09
		l-17.763,8.359L81.502,282.122z"/>
	<path style="fill:#F2F2F2;" d="M400.196,150.465l17.763-7.314l2.09,5.224l-17.763,7.314c0-1.045-1.045-2.09-1.045-2.09
		C401.241,152.555,400.196,151.51,400.196,150.465z"/>
	<path style="fill:#F2F2F2;" d="M317.649,45.976l-7.314,17.763c1.045,0,2.09,1.045,2.09,1.045c1.045,0,2.09,1.045,2.09,1.045
		l7.314-17.763L317.649,45.976z"/>
	<path style="fill:#F2F2F2;" d="M185.992,364.669l-7.314,17.763l5.225,2.09l7.314-17.763c-1.045,0-2.09-1.045-2.09-1.045
		C188.082,365.714,187.037,364.669,185.992,364.669z"/>
	<path style="fill:#F2F2F2;" d="M417.959,143.151l-17.763,7.314c0,1.045,1.045,2.09,1.045,2.09c0,1.045,1.045,2.09,1.045,2.09
		l17.763-7.314L417.959,143.151z"/>
	<path style="fill:#F2F2F2;" d="M99.265,274.808l-17.763,7.314l2.09,5.224l17.763-7.314c0-1.045-1.045-2.09-1.045-2.09
		C100.31,276.898,99.265,275.853,99.265,274.808z"/>
	<path style="fill:#F2F2F2;" d="M420.049,282.122l-17.763-7.314c0,1.045-1.045,2.09-1.045,2.09c0,1.045-1.045,2.09-1.045,2.09
		l17.763,7.314L420.049,282.122z"/>
	<path style="fill:#F2F2F2;" d="M101.355,150.465l-17.763-7.314l-2.09,5.224l17.763,7.314c0-1.045,1.045-2.09,1.045-2.09
		C100.31,152.555,101.355,151.51,101.355,150.465z"/>
	<path style="fill:#F2F2F2;" d="M405.42,64.784L367.804,102.4c-1.045-1.045-1.045-1.045-2.09-2.09
		c-1.045-1.045-1.045-1.045-2.09-2.09l37.616-37.616L405.42,64.784z"/>
	<path style="fill:#F2F2F2;" d="M137.927,332.278l-37.616,37.616l-4.18-4.18l37.616-37.616c1.045,1.045,1.045,1.045,2.09,2.09
		C135.837,331.233,136.882,332.278,137.927,332.278z"/>
	<path style="fill:#F2F2F2;" d="M466.024,218.384H413.78c0-1.045,0-2.09,0-3.135s0-2.09,0-3.135h52.245V218.384z"/>
	<path style="fill:#F2F2F2;" d="M87.771,218.384H35.527v-5.224h52.245c0,1.045,0,2.09,0,3.135
		C87.771,217.339,87.771,217.339,87.771,218.384z"/>
	<path style="fill:#F2F2F2;" d="M401.241,369.894l-37.616-37.616c1.045-1.045,1.045-1.045,2.09-2.09
		c1.045-1.045,1.045-1.045,2.09-2.09l37.616,37.616L401.241,369.894z"/>
	<path style="fill:#F2F2F2;" d="M133.747,102.4L96.131,64.784l4.18-4.18l37.616,37.616c-1.045,1.045-1.045,1.045-2.09,2.09
		C134.792,100.31,133.747,101.355,133.747,102.4z"/>
</g>
<path style="fill:#FFD05C;" d="M405.42,212.114c0-88.816-75.233-160.914-166.139-154.645
	c-77.322,5.224-138.971,67.918-144.196,144.196c-3.135,48.065,15.673,91.951,48.065,122.253
	c19.853,18.808,31.347,44.931,31.347,72.098h150.465c0-27.167,11.494-53.29,31.347-72.098
	C387.657,296.751,405.42,256,405.42,212.114z"/>
<path style="fill:#4FBFA8;" d="M213.159,475.429c5.225,15.673,19.853,26.122,37.616,26.122c16.718,0,31.347-11.494,37.616-26.122
	H213.159z"/>
<path style="fill:#CDD5DF;" d="M175.543,396.016v65.829c0,7.314,6.269,13.584,13.584,13.584h124.343
	c7.314,0,13.584-6.269,13.584-13.584v-65.829H175.543z"/>
<g>
	<path style="fill:#ABB2B9;" d="M329.143,452.441H172.408c-3.135,0-5.224,2.09-5.224,5.224v1.045c0,3.135,2.09,5.224,5.224,5.224
		h156.735c3.135,0,5.224-2.09,5.224-5.224v-1.045C334.367,454.531,332.278,452.441,329.143,452.441z"/>
	<path style="fill:#ABB2B9;" d="M329.143,430.498H172.408c-3.135,0-5.224,2.09-5.224,5.224v1.045c0,3.135,2.09,5.224,5.224,5.224
		h156.735c3.135,0,5.224-2.09,5.224-5.224v-1.045C334.367,432.588,332.278,430.498,329.143,430.498z"/>
	<path style="fill:#ABB2B9;" d="M329.143,408.555H172.408c-3.135,0-5.224,2.09-5.224,5.224v1.045c0,3.135,2.09,5.224,5.224,5.224
		h156.735c3.135,0,5.224-2.09,5.224-5.224v-1.045C334.367,410.645,332.278,408.555,329.143,408.555z"/>
</g>
<path style="fill:#F6B44B;" d="M239.282,77.322c86.727-6.269,160.914,60.604,166.139,145.241c0-3.135,0-6.269,0-9.404
	c0-88.816-75.233-160.914-166.139-154.645C161.959,63.739,100.31,126.433,95.086,202.71c0,6.269,0,13.584,0,19.853
	C101.355,145.241,163.004,82.547,239.282,77.322z"/>
<g>
	<polygon style="fill:#FFFFFF;" points="196.441,245.551 250.776,245.551 250.776,155.69 	"/>
	<polygon style="fill:#FFFFFF;" points="305.11,245.551 250.776,245.551 250.776,335.412 	"/>
</g>
<g>
</g>
<g>
</g>
<g>
</g>
<g>
</g>
<g>
</g>
<g>
</g>
<g>
</g>
<g>
</g>
<g>
</g>
<g>
</g>
<g>
</g>
<g>
</g>
<g>
</g>
<g>
</g>
<g>
</g>
</svg>
