<?xml version="1.0" encoding="iso-8859-1"?>
<!-- Generator: Adobe Illustrator 19.0.0, SVG Export Plug-In . SVG Version: 6.00 Build 0)  -->
<svg version="1.1" id="Layer_1" xmlns="http://www.w3.org/2000/svg" xmlns:xlink="http://www.w3.org/1999/xlink" x="0px" y="0px"
	 viewBox="0 0 501.676 501.676" style="enable-background:new 0 0 501.676 501.676;" xml:space="preserve">
<path style="fill:#FFD15C;" d="M443.491,192.386c0-113.894-98.22-203.755-214.204-191.216
	C138.381,11.619,65.238,86.852,58.969,178.803c-5.225,70.008,28.212,133.747,80.457,171.363
	c11.494,8.359,18.808,20.898,18.808,35.527v2.09h184.947v-2.09c0-14.629,7.314-27.167,18.808-35.527
	C412.144,314.64,443.491,257.17,443.491,192.386z"/>
<path style="fill:#FF7058;" d="M343.181,387.782H159.279c-11.494,0-20.898,9.404-20.898,20.898v37.616
	c0,11.494,9.404,20.898,20.898,20.898h182.857c11.494,0,20.898-9.404,20.898-20.898V408.68
	C364.079,397.186,354.675,387.782,343.181,387.782z"/>
<path style="fill:#40596B;" d="M327.508,467.195v13.584c0,11.494-9.404,20.898-20.898,20.898H195.85
	c-11.494,0-20.898-9.404-20.898-20.898v-13.584H327.508z"/>
<rect x="174.952" y="467.195" style="fill:#334A5E;" width="153.6" height="15.673"/>
<path style="fill:#FFFFFF;" d="M240.781,266.574v121.208h20.898V266.574l43.886-43.886c4.18-4.18,4.18-10.449,0-14.629
	c-4.18-4.18-10.449-4.18-14.629,0l-39.706,39.706l-39.706-39.706c-4.18-4.18-10.449-4.18-14.629,0c-4.18,4.18-4.18,10.449,0,14.629
	L240.781,266.574z"/>
<path style="fill:#F9BC64;" d="M58.969,199.701c6.269-91.951,79.412-167.184,170.318-177.633
	C342.136,9.529,437.222,94.166,443.491,202.835c0-3.135,0-6.269,0-10.449c0-113.894-98.22-203.755-214.204-191.216
	C138.381,11.619,65.238,86.852,58.969,178.803c-1.045,8.359-1.045,16.718,0,25.078C58.969,202.835,58.969,200.746,58.969,199.701z"
	/>
<g>
</g>
<g>
</g>
<g>
</g>
<g>
</g>
<g>
</g>
<g>
</g>
<g>
</g>
<g>
</g>
<g>
</g>
<g>
</g>
<g>
</g>
<g>
</g>
<g>
</g>
<g>
</g>
<g>
</g>
</svg>
