<?xml version="1.0" encoding="iso-8859-1"?>
<!-- Generator: Adobe Illustrator 19.0.0, SVG Export Plug-In . SVG Version: 6.00 Build 0)  -->
<svg version="1.1" id="Layer_1" xmlns="http://www.w3.org/2000/svg" xmlns:xlink="http://www.w3.org/1999/xlink" x="0px" y="0px"
	 viewBox="0 0 502.034 502.034" style="enable-background:new 0 0 502.034 502.034;" xml:space="preserve">
<path style="fill:#F2F2F2;" d="M198.401,502.034c0,0,25.078-45.976,13.584-75.233c0,0-9.404-39.706-50.155-31.347
	c0,0-77.322,18.808-74.188-20.898c0,0,8.359-22.988-5.224-36.571c0,0-8.359-7.314,0-18.808c0,0-17.763-16.718-3.135-25.078v-13.584
	c0,0-40.751-7.314-26.122-28.212c0,0,47.02-54.335,38.661-76.278c-3.135-8.359-6.269-16.718-5.224-25.078
	c3.135-36.571,22.988-115.984,128.522-144.196c1.045,0,3.135-1.045,4.18-1.045c165.094-40.751,295.706,145.241,200.62,286.302
	c-7.314,11.494-15.673,22.988-24.033,33.437c0,0-34.482,32.392,7.314,102.4c0,0,30.302,48.065,27.167,73.143H198.401V502.034z"/>
<path style="fill:#40596B;" d="M340.507,99.749c-2.09-6.269-4.18-12.539-7.314-17.763l6.269-14.629l-20.898-20.898l-14.629,6.269
	c-6.269-3.135-11.494-5.224-17.763-7.314l-5.224-14.629h-30.302l-5.224,14.629c-6.269,2.09-12.539,4.18-17.763,7.314l-14.629-6.269
	l-20.898,20.898l6.269,14.629c-3.135,5.224-5.224,11.494-7.314,17.763l-14.629,5.224v30.302l14.629,5.224
	c2.09,6.269,4.18,12.539,7.314,17.763l-6.269,14.629l20.898,20.898l14.629-6.269c5.225,3.135,11.494,5.224,17.763,7.314
	l5.224,14.629h30.302l5.224-14.629c6.269-2.09,12.539-4.18,17.763-7.314l14.629,6.269l20.898-20.898l-6.269-14.629
	c3.135-5.224,5.224-11.494,7.314-17.763l14.629-5.224v-30.302L340.507,99.749z M265.274,157.218
	c-19.853,0-36.571-16.718-36.571-36.571s16.718-36.571,36.571-36.571s36.571,16.718,36.571,36.571S285.127,157.218,265.274,157.218z
	"/>
<path style="fill:#334A5E;" d="M303.935,81.986c-21.943-21.943-56.424-21.943-78.367,0s-21.943,56.424,0,78.367
	s56.424,21.943,78.367,0C325.878,138.41,325.878,102.883,303.935,81.986z M290.352,146.769c-14.629,14.629-37.616,14.629-52.245,0
	c-14.629-14.629-14.629-37.616,0-52.245c14.629-14.629,37.616-14.629,52.245,0C304.98,109.153,304.98,132.141,290.352,146.769z"/>
<path style="fill:#FF7058;" d="M348.866,240.81c0-3.135,0-6.269,0-8.359l5.224-5.224l-5.224-12.539h-7.314
	c-2.09-2.09-4.18-4.18-6.269-6.269v-7.314l-12.539-5.224l-5.224,5.224c-3.135,0-6.269,0-8.359,0l-5.224-5.224l-12.539,5.224v7.314
	c-2.09,2.09-4.18,4.18-6.269,6.269h-7.314l-5.224,12.539l5.224,5.224c0,3.135,0,6.269,0,8.359l-4.18,5.224l5.224,12.539h7.314
	c2.09,2.09,4.18,4.18,6.269,6.269v7.314l12.539,5.224l5.224-5.224c3.135,0,6.269,0,8.359,0l5.224,5.224l12.539-5.224v-7.314
	c2.09-2.09,4.18-4.18,6.269-6.269h7.314l5.224-12.539L348.866,240.81z M307.07,252.304c-8.359-3.135-12.539-13.584-9.404-21.943
	c3.135-8.359,13.584-12.539,21.943-9.404c8.359,3.135,12.539,13.584,9.404,21.943C325.878,251.259,316.474,255.439,307.07,252.304z"
	/>
<path style="fill:#CDD6E0;" d="M415.739,173.937c0-3.135,0-6.269,0-8.359l5.224-5.225l-5.224-12.539h-7.314
	c-2.09-2.09-4.18-4.18-6.269-6.269v-7.314l-12.539-5.224l-5.224,5.224c-3.135,0-6.269,0-8.359,0l-5.224-4.18l-12.539,5.224v7.314
	c-2.09,2.09-4.18,4.18-6.269,6.269h-7.314l-5.224,12.539l5.224,5.224c0,3.135,0,6.269,0,8.359l-5.224,5.224l5.224,12.539h7.314
	c2.09,2.09,4.18,4.18,6.269,6.269v7.314l12.539,5.224l5.224-5.224c3.135,0,6.269,0,8.359,0l5.224,5.224l12.539-5.224v-7.314
	c2.09-2.09,4.18-4.18,6.269-6.269h7.314l5.224-12.539L415.739,173.937z M373.944,185.43c-8.359-3.135-12.539-13.584-9.404-21.943
	c3.135-8.359,13.584-12.539,21.943-9.404c8.359,3.135,12.539,13.584,9.404,21.943C392.752,184.386,382.303,188.565,373.944,185.43z"
	/>
<g>
</g>
<g>
</g>
<g>
</g>
<g>
</g>
<g>
</g>
<g>
</g>
<g>
</g>
<g>
</g>
<g>
</g>
<g>
</g>
<g>
</g>
<g>
</g>
<g>
</g>
<g>
</g>
<g>
</g>
</svg>
