<?xml version="1.0" encoding="iso-8859-1"?>
<!-- Generator: Adobe Illustrator 19.0.0, SVG Export Plug-In . SVG Version: 6.00 Build 0)  -->
<svg version="1.1" id="Layer_1" xmlns="http://www.w3.org/2000/svg" xmlns:xlink="http://www.w3.org/1999/xlink" x="0px" y="0px"
	 viewBox="0 0 501.865 501.865" style="enable-background:new 0 0 501.865 501.865;" xml:space="preserve">
<path style="fill:#40596B;" d="M480.967,0.157H21.211c-11.494,0-20.898,9.404-20.898,20.898v65.829h501.551V21.055
	C501.865,9.561,492.46,0.157,480.967,0.157z"/>
<rect y="87.604" style="fill:#CDD6E0;" width="501.551" height="289.437"/>
<rect x="26.122" y="113.727" style="fill:#F2F2F2;" width="449.306" height="237.192"/>
<circle style="fill:#FFD15C;" cx="48.379" cy="44.042" r="21.943"/>
<circle style="fill:#ACB3BA;" cx="107.938" cy="44.042" r="21.943"/>
<circle style="fill:#84DBFF;" cx="167.497" cy="44.042" r="21.943"/>
<path style="fill:#ACB3BA;" d="M446.485,21.055H268.852c-12.539,0-21.943,10.449-21.943,21.943s10.449,21.943,21.943,21.943h177.633
	c12.539,0,21.943-10.449,21.943-21.943S457.979,21.055,446.485,21.055z"/>
<path style="fill:#89D6F7;" d="M420.362,332.434c0,94.041-76.278,169.273-169.273,169.273c-94.041,0-169.273-76.278-169.273-169.273
	c0-34.482,10.449-66.873,28.212-94.041c2.09-2.09,3.135-5.224,5.224-7.314c25.078-33.437,60.604-56.424,103.445-64.784h1.045
	c10.449-2.09,20.898-3.135,31.347-3.135c4.18,0,8.359,0,12.539,0c5.224,0,10.449,1.045,15.673,2.09
	c68.963,11.494,124.343,64.784,137.927,132.702c0,2.09,1.045,3.135,1.045,5.224C419.318,312.581,420.362,321.985,420.362,332.434z"
	/>
<g>
	<path style="fill:#55BFE9;" d="M241.685,194.508c0,5.224-8.359,6.269-12.539,7.314c-3.135,1.045-6.269,4.18-9.404,7.314
		c-6.269,6.269-13.584,11.494-21.943,15.673c-8.359,4.18-18.808,7.314-25.078,0c18.808-8.359,33.437-25.078,40.751-44.931
		c-9.404,5.225-16.718,13.584-24.033,19.853c-9.404,7.314-19.853,13.584-28.212,21.943c-8.359,8.359-15.673,18.808-15.673,31.347
		c0-6.269-4.18-13.584-10.449-16.718c-5.224-4.18-12.539-5.224-19.853-5.224c0,0,0,0-1.045,0
		c25.078-33.437,60.604-56.424,103.445-64.784h1.045c2.09,8.359,7.314,16.718,14.629,20.898
		C238.55,188.238,241.685,191.373,241.685,194.508z"/>
	<path style="fill:#55BFE9;" d="M279.301,165.251c4.18,2.09,8.359,5.224,11.494,8.359c1.045,1.045,1.045,2.09,1.045,3.135
		c-1.045,3.135-5.224,2.09-8.359,4.18c-5.224,2.09-3.135,9.404,1.045,12.539c4.18,3.135,9.404,3.135,14.629,6.269
		c2.09,1.045,3.135,2.09,3.135,4.18c0,1.045-1.045,2.09-2.09,3.135c-5.224,6.269-11.494,12.539-16.718,18.808
		c-1.045,1.045-3.135,3.135-5.224,4.18s-5.224,1.045-8.359,1.045c-10.449,0-24.033,2.09-27.167,12.539
		c-1.045,2.09-1.045,5.224-2.09,7.314c-2.09,2.09-4.18,2.09-6.269,4.18c-2.09,3.135,1.045,7.314,1.045,11.494
		c1.045,6.269-6.269,11.494-11.494,9.404c0-6.269,0-13.584-1.045-19.853c0-1.045,0-2.09-1.045-3.135s-2.09-1.045-3.135-2.09
		c-6.269-2.09-13.584-3.135-18.808,2.09c-4.18,5.224-2.09,12.539,1.045,17.763c3.135,5.224,8.359,10.449,8.359,17.763
		c0,3.135-1.045,7.314-4.18,7.314c-4.18,1.045-7.314-5.224-7.314-9.404c-4.18,11.494-6.269,26.122-4.18,39.706
		c-9.404,2.09-18.808,5.224-28.212,7.314c-3.135,1.045-7.314,2.09-9.404,5.224c-2.09,3.135-2.09,6.269-2.09,9.404
		c0,11.494,3.135,22.988,8.359,33.437c2.09,3.135,4.18,7.314,7.314,9.404c9.404,6.269,21.943,3.135,32.392,6.269
		c9.404,2.09,16.718,9.404,20.898,17.763c4.18,8.359,7.314,17.763,9.404,27.167c1.045,4.18,2.09,8.359,5.224,11.494
		c3.135,3.135,9.404,4.18,13.584,5.225c8.359,1.045,17.763,3.135,25.078-2.09c6.269-3.135,10.449-10.449,17.763-13.584
		c4.18-2.09,10.449-1.045,14.629-2.09c5.224-1.045,10.449-5.224,8.359-10.449c-1.045-4.18-7.314-8.359-6.269-12.539
		c1.045-3.135,5.224-4.18,8.359-5.225c13.584-5.224,21.943-22.988,14.629-36.571c-1.045-2.09-2.09-4.18-3.135-6.269
		c0-7.314,9.404-9.404,14.629-14.629c4.18-5.224,4.18-11.494,5.224-18.808c1.045-6.269,3.135-13.584,9.404-15.673
		c6.269-2.09,12.539,3.135,15.673,8.359c3.135,5.224,6.269,11.494,11.494,14.629c0-11.494,0-22.988,0-33.437
		c0-4.18,0-8.359,3.135-11.494c4.18-5.224,12.539-4.18,18.808-2.09c2.09,0,4.18,1.045,6.269,1.045
		C403.644,230.034,348.264,176.744,279.301,165.251z M312.738,274.965L312.738,274.965c2.09,0,4.18,0,6.269,0
		c-1.045,4.18,0,8.359,3.135,11.494c1.045,1.045,3.135,2.09,4.18,4.18c3.135,3.135,4.18,8.359,2.09,12.539
		c-3.135,0-7.314,0-10.449,0c-3.135-1.045-7.314-3.135-8.359-6.269c-1.045-2.09-1.045-4.18-1.045-6.269
		C307.513,284.369,307.513,278.1,312.738,274.965z M262.583,333.479c-5.224-1.045-10.449-4.18-15.673-7.314
		c-7.314-4.18-15.673-6.269-22.988-6.269c-3.135,0-6.269,0-8.359,0c-3.135-1.045-5.224-2.09-6.269-5.224
		c-1.045-3.135,1.045-7.314,4.18-9.404c3.135-2.09,6.269-3.135,9.404-5.225l1.045-5.224c6.269,6.269,14.629,11.494,22.988,14.629
		c4.18,2.09,8.359,3.135,12.539,3.135c4.18,0,9.404,0,13.584,0c1.045,0,3.135,0,4.18,0c3.135,0,6.269,0,9.404-1.045
		c4.18,0,7.314-1.045,10.449-3.135c1.045,4.18-1.045,9.404-4.18,12.539c-3.135,3.135-7.314,5.224-12.539,7.314
		C276.167,331.389,268.852,334.524,262.583,333.479z M328.411,366.916c0,1.045-1.045,2.09-2.09,3.135
		c-1.045,0-1.045,1.045-2.09,1.045c-7.314,1.045-15.673,2.09-20.898-3.135c-3.135-2.09-4.18-5.224-6.269-8.359
		c-2.09-4.18-4.18-7.314-6.269-11.494c-2.09-4.18-4.18-8.359-3.135-12.539c3.135,0,7.314,0,10.449,1.045l1.045,1.045
		c-1.045,3.135,0,6.269,2.09,8.359c2.09,2.09,5.225,3.135,7.314,4.18c2.09,1.045,4.18,2.09,7.314,3.135
		c3.135,1.045,6.269,3.135,9.404,5.224C327.367,359.602,328.411,362.736,328.411,366.916z M339.905,330.344
		c-1.045,1.045-1.045,1.045-2.09,1.045c-6.269,2.09-14.629-3.135-15.673-10.449l1.045-1.045c5.224,0,10.449,0,14.629,0
		c1.045,0,2.09,0,2.09,1.045c1.045,1.045,1.045,2.09,1.045,2.09C341.995,326.165,341.995,329.3,339.905,330.344z"/>
</g>
<g>
</g>
<g>
</g>
<g>
</g>
<g>
</g>
<g>
</g>
<g>
</g>
<g>
</g>
<g>
</g>
<g>
</g>
<g>
</g>
<g>
</g>
<g>
</g>
<g>
</g>
<g>
</g>
<g>
</g>
</svg>
