<?xml version="1.0" encoding="iso-8859-1"?>
<!-- Generator: Adobe Illustrator 19.0.0, SVG Export Plug-In . SVG Version: 6.00 Build 0)  -->
<svg version="1.1" id="Layer_1" xmlns="http://www.w3.org/2000/svg" xmlns:xlink="http://www.w3.org/1999/xlink" x="0px" y="0px"
	 viewBox="0 0 501.551 501.551" style="enable-background:new 0 0 501.551 501.551;" xml:space="preserve">
<path style="fill:#40596B;" d="M480.653,0H20.898C9.404,0,0,9.404,0,20.898v459.755c0,11.494,9.404,20.898,20.898,20.898h459.755
	c11.494,0,20.898-9.404,20.898-20.898V20.898C501.551,9.404,492.147,0,480.653,0z"/>
<rect x="33.123" y="129.243" style="fill:#FFFFFF;" width="434.678" height="339.592"/>
<circle style="fill:#FF7058;" cx="446.171" cy="64.784" r="21.943"/>
<circle style="fill:#FFD15C;" cx="376.163" cy="64.784" r="21.943"/>
<circle style="fill:#CDD6E0;" cx="306.155" cy="64.784" r="21.943"/>
<path style="fill:#89D6F7;" d="M109.714,298.841c0,78.367,63.739,141.061,141.061,141.061c78.367,0,141.061-63.739,141.061-141.061
	c0-29.257-8.359-55.38-24.033-78.367c-1.045-2.09-3.135-4.18-4.18-6.269c-20.898-27.167-51.2-47.02-85.682-54.335h-1.045
	c-8.359-2.09-16.718-2.09-26.122-2.09c-3.135,0-7.314,0-10.449,0c-4.18,0-8.359,1.045-12.539,1.045
	c-57.469,9.404-103.445,54.335-114.939,110.759c0,1.045-1.045,3.135-1.045,4.18C109.714,282.122,109.714,290.482,109.714,298.841z"
	/>
<g>
	<path style="fill:#55BFE9;" d="M258.09,183.902c0,4.18,6.269,5.224,10.449,6.269c3.135,1.045,5.224,3.135,7.314,6.269
		c5.225,5.224,11.494,9.404,17.763,12.539c6.269,3.135,15.673,6.269,20.898,0c-15.673-6.269-28.212-20.898-33.437-37.616
		c7.314,4.18,13.584,11.494,19.853,16.718c7.314,6.269,16.718,11.494,24.033,17.763s13.584,15.673,12.539,26.122
		c0-5.225,3.135-11.494,8.359-14.629s10.449-4.18,16.718-4.18l0,0c-20.898-27.167-51.2-47.02-85.682-54.335h-1.045
		c-2.09,7.314-6.269,13.584-12.539,17.763C261.224,178.678,258.09,180.767,258.09,183.902z"/>
	<path style="fill:#55BFE9;" d="M111.804,269.584c2.09,0,4.18,0,5.224-1.045c5.224-1.045,12.539-2.09,15.673,2.09
		c2.09,2.09,2.09,6.269,2.09,9.404c0,9.404,0,18.808,0,28.212c4.18-3.135,7.314-8.359,9.404-12.539
		c3.135-4.18,8.359-8.359,13.584-6.269c5.224,1.045,7.314,7.314,8.359,13.584c1.045,5.224,1.045,11.494,4.18,15.673
		c4.18,4.18,12.539,6.269,11.494,12.539c0,2.09-1.045,4.18-2.09,5.224c-5.224,10.449,0,26.122,12.539,30.302
		c2.09,1.045,6.269,2.09,6.269,4.18c1.045,4.18-4.18,6.269-5.224,10.449c-1.045,4.18,3.135,7.314,7.314,8.359s8.359,0,12.539,2.09
		c6.269,2.09,9.404,8.359,14.629,11.494c6.269,3.135,13.584,2.09,20.898,1.045c4.18-1.045,8.359-1.045,11.494-4.18
		c2.09-3.135,3.135-6.269,4.18-10.449c2.09-7.314,4.18-15.673,7.314-22.988c4.18-7.314,10.449-12.539,17.763-15.673
		c9.404-2.09,19.853,0,27.167-5.224c3.135-2.09,4.18-5.225,6.269-7.314c4.18-8.359,7.314-17.763,7.314-28.212
		c0-3.135,0-6.269-2.09-8.359c-2.09-2.09-5.224-3.135-8.359-4.18c-8.359-2.09-15.673-4.18-24.033-6.269
		c2.09-11.494,0-22.988-4.18-33.437c0,4.18-3.135,8.359-6.269,8.359c-2.09-1.045-4.18-3.135-4.18-6.269
		c0-5.224,4.18-9.404,7.314-14.629c3.135-4.18,5.224-11.494,1.045-14.629c-3.135-4.18-10.449-3.135-15.673-1.045
		c-1.045,0-2.09,1.045-3.135,1.045c0,1.045-1.045,2.09-1.045,2.09c0,5.224,0,11.494,0,16.718c-5.224,2.09-10.449-3.135-10.449-7.314
		c0-3.135,3.135-6.269,1.045-9.404c-1.045-2.09-3.135-2.09-5.225-4.18c-1.045-2.09-1.045-4.18-2.09-6.269
		c-2.09-8.359-13.584-10.449-22.988-10.449c-2.09,0-5.224,0-7.314-1.045c-2.09-1.045-3.135-2.09-4.18-3.135
		c-4.18-5.225-9.404-10.449-13.584-15.673c-1.045-1.045-1.045-1.045-1.045-2.09c0-2.09,1.045-3.135,3.135-4.18
		c4.18-2.09,8.359-2.09,12.539-5.224c3.135-2.09,5.224-8.359,1.045-10.449c-2.09-1.045-6.269-1.045-6.269-3.135
		c0-1.045,0-2.09,1.045-3.135c2.09-3.135,5.224-5.224,9.404-7.314C169.273,168.229,124.343,213.159,111.804,269.584z
		 M203.755,263.314c0,2.09,0,4.18-1.045,5.224c-1.045,3.135-4.18,4.18-7.314,5.224c-3.135,1.045-6.269,1.045-9.404,0
		c-1.045-3.135-1.045-7.314,2.09-10.449c1.045-1.045,2.09-2.09,3.135-3.135c2.09-3.135,3.135-6.269,2.09-9.404
		c1.045,0,3.135,0,4.18,0h1.045C203.755,252.865,203.755,258.09,203.755,263.314z M225.698,295.706
		c-3.135-2.09-7.314-3.135-10.449-6.269c-3.135-3.135-4.18-7.314-3.135-10.449c2.09,2.09,6.269,2.09,9.404,2.09s5.224,0,7.314,1.045
		c1.045,0,2.09,0,4.18,0c4.18,0,7.314,1.045,11.494,0c4.18,0,7.314-1.045,10.449-3.135c7.314-3.135,13.584-7.314,19.853-12.539v4.18
		c2.09,2.09,5.224,3.135,8.359,4.18c2.09,2.09,4.18,5.225,4.18,7.314c-1.045,2.09-3.135,4.18-5.224,4.18
		c-2.09,1.045-5.224,0-7.314,0c-6.269,0-13.584,2.09-19.853,5.224c-4.18,2.09-8.359,5.224-12.539,6.269
		C236.147,299.886,229.878,297.796,225.698,295.706z M190.171,318.694c2.09-2.09,5.224-3.135,7.314-4.18
		c2.09-1.045,4.18-1.045,6.269-2.09c2.09-1.045,4.18-2.09,6.269-3.135c2.09-2.09,3.135-4.18,2.09-6.269l1.045-1.045
		c3.135-1.045,5.224-1.045,8.359,0c1.045,3.135-1.045,7.314-3.135,10.449c-2.09,3.135-3.135,6.269-5.224,9.404
		c-1.045,2.09-3.135,5.224-5.224,6.269c-5.224,4.18-11.494,3.135-17.763,2.09c-1.045,0-1.045,0-2.09,0s-1.045-1.045-1.045-2.09
		C185.992,323.918,187.037,320.784,190.171,318.694z M175.543,291.527c0-1.045,0-2.09,1.045-2.09c1.045,0,1.045-1.045,2.09,0
		c4.18,0,8.359,0,12.539,0l1.045,1.045c-1.045,6.269-7.314,10.449-12.539,8.359c-1.045,0-1.045-1.045-2.09-1.045
		C174.498,295.706,174.498,293.616,175.543,291.527z"/>
</g>
<g>
</g>
<g>
</g>
<g>
</g>
<g>
</g>
<g>
</g>
<g>
</g>
<g>
</g>
<g>
</g>
<g>
</g>
<g>
</g>
<g>
</g>
<g>
</g>
<g>
</g>
<g>
</g>
<g>
</g>
</svg>
