<?xml version="1.0" encoding="iso-8859-1"?>
<!-- Generator: Adobe Illustrator 19.0.0, SVG Export Plug-In . SVG Version: 6.00 Build 0)  -->
<svg version="1.1" id="Layer_1" xmlns="http://www.w3.org/2000/svg" xmlns:xlink="http://www.w3.org/1999/xlink" x="0px" y="0px"
	 viewBox="0 0 501.812 501.812" style="enable-background:new 0 0 501.812 501.812;" xml:space="preserve">
<path style="fill:#CDD6E0;" d="M501.812,433.894l-204.8-204.8c30.302-59.559,20.898-133.747-29.257-182.857
	c-60.604-61.649-159.869-61.649-221.518,0s-61.649,160.914,0,222.563c49.11,49.11,123.298,58.514,182.857,29.257l66.873,66.874h51.2
	v51.2h51.2v51.2l34.482,34.482h45.976l21.943-21.943v-45.976H501.812z M94.302,181.029c-24.033-24.033-24.033-63.739,0-87.771
	s63.739-24.033,87.771,0s24.033,63.739,0,87.771C156.996,206.106,118.335,206.106,94.302,181.029z"/>
<g>
</g>
<g>
</g>
<g>
</g>
<g>
</g>
<g>
</g>
<g>
</g>
<g>
</g>
<g>
</g>
<g>
</g>
<g>
</g>
<g>
</g>
<g>
</g>
<g>
</g>
<g>
</g>
<g>
</g>
</svg>
