<?xml version="1.0" encoding="iso-8859-1"?>
<!-- Generator: Adobe Illustrator 19.0.0, SVG Export Plug-In . SVG Version: 6.00 Build 0)  -->
<svg version="1.1" id="Layer_1" xmlns="http://www.w3.org/2000/svg" xmlns:xlink="http://www.w3.org/1999/xlink" x="0px" y="0px"
	 viewBox="0 0 501.551 501.551" style="enable-background:new 0 0 501.551 501.551;" xml:space="preserve">
<path style="fill:#CDD6E0;" d="M480.653,201.665H20.898C9.404,201.665,0,211.069,0,222.563v258.09
	c0,11.494,9.404,20.898,20.898,20.898h459.755c11.494,0,20.898-9.404,20.898-20.898v-258.09
	C501.551,211.069,492.147,201.665,480.653,201.665z"/>
<g>
	<rect x="20.898" y="233.012" style="fill:#F2F2F2;" width="53.29" height="53.29"/>
	<rect x="102.4" y="233.012" style="fill:#F2F2F2;" width="53.29" height="53.29"/>
	<rect x="182.857" y="233.012" style="fill:#F2F2F2;" width="53.29" height="53.29"/>
	<rect x="264.359" y="233.012" style="fill:#F2F2F2;" width="53.29" height="53.29"/>
	<rect x="345.861" y="233.012" style="fill:#F2F2F2;" width="53.29" height="53.29"/>
	<rect x="427.363" y="233.012" style="fill:#F2F2F2;" width="53.29" height="53.29"/>
	<rect x="20.898" y="416.914" style="fill:#F2F2F2;" width="53.29" height="53.29"/>
	<rect x="102.4" y="416.914" style="fill:#F2F2F2;" width="297.796" height="53.29"/>
	<rect x="427.363" y="416.914" style="fill:#F2F2F2;" width="53.29" height="53.29"/>
	<rect x="61.649" y="324.963" style="fill:#F2F2F2;" width="53.29" height="53.29"/>
	<rect x="143.151" y="324.963" style="fill:#F2F2F2;" width="53.29" height="53.29"/>
	<rect x="223.608" y="324.963" style="fill:#F2F2F2;" width="53.29" height="53.29"/>
	<rect x="305.11" y="324.963" style="fill:#F2F2F2;" width="53.29" height="53.29"/>
	<rect x="386.612" y="324.963" style="fill:#F2F2F2;" width="53.29" height="53.29"/>
</g>
<path style="fill:#ACB3BA;" d="M266.449,201.665h-31.347V157.78c0-12.539-9.404-21.943-21.943-21.943h-72.098
	c-29.257,0-53.29-24.033-53.29-53.29s24.033-53.29,53.29-53.29h228.833c11.494,0,21.943-9.404,21.943-21.943V0h31.347v7.314
	c0,29.257-24.033,53.29-53.29,53.29H141.061c-12.539,0-21.943,9.404-21.943,21.943c0,12.539,9.404,21.943,21.943,21.943h72.098
	c29.257,0,53.29,24.033,53.29,53.29V201.665z"/>
<g>
</g>
<g>
</g>
<g>
</g>
<g>
</g>
<g>
</g>
<g>
</g>
<g>
</g>
<g>
</g>
<g>
</g>
<g>
</g>
<g>
</g>
<g>
</g>
<g>
</g>
<g>
</g>
<g>
</g>
</svg>
