<?xml version="1.0" encoding="iso-8859-1"?>
<!-- Generator: Adobe Illustrator 19.0.0, SVG Export Plug-In . SVG Version: 6.00 Build 0)  -->
<svg version="1.1" id="Layer_1" xmlns="http://www.w3.org/2000/svg" xmlns:xlink="http://www.w3.org/1999/xlink" x="0px" y="0px"
	 viewBox="0 0 500.506 500.506" style="enable-background:new 0 0 500.506 500.506;" xml:space="preserve">
<path style="fill:#40596B;" d="M466.024,48.065H35.527c-9.404,0-16.718,8.359-16.718,17.763v315.559h167.184
	c0,5.225,4.18,9.404,9.404,9.404H305.11c5.224,0,9.404-4.18,9.404-9.404h167.184V65.829
	C482.743,56.424,475.429,48.065,466.024,48.065z"/>
<rect x="47.679" y="76.936" style="fill:#84DBFF;" width="406.465" height="275.853"/>
<g>
	<path style="fill:#334A5E;" d="M315.559,381.388c0,5.225-4.18,9.404-9.404,9.404H195.396c-5.224,0-9.404-4.18-9.404-9.404H0v40.751
		c0,16.718,13.584,30.302,30.302,30.302h439.902c16.718,0,30.302-13.584,30.302-30.302v-40.751H315.559z"/>
	<circle style="fill:#334A5E;" cx="247.641" cy="62.694" r="7.314"/>
</g>
<circle style="fill:#4CDBC4;" cx="214.204" cy="422.139" r="8.359"/>
<circle style="fill:#ACB3BA;" cx="250.776" cy="422.139" r="8.359"/>
<circle style="fill:#4CDBC4;" cx="287.347" cy="422.139" r="8.359"/>
<circle style="fill:#F2F2F2;" cx="250.776" cy="215.249" r="92.996"/>
<path style="fill:#FF7058;" d="M281.078,166.139c-12.539,0-22.988,6.269-30.302,15.673c-6.269-9.404-17.763-15.673-30.302-15.673
	c-19.853,0-36.571,16.718-36.571,36.571c0,32.392,66.873,81.502,66.873,81.502s66.873-48.065,66.873-81.502
	C317.649,181.812,300.931,166.139,281.078,166.139z"/>
<g>
</g>
<g>
</g>
<g>
</g>
<g>
</g>
<g>
</g>
<g>
</g>
<g>
</g>
<g>
</g>
<g>
</g>
<g>
</g>
<g>
</g>
<g>
</g>
<g>
</g>
<g>
</g>
<g>
</g>
</svg>
