<?xml version="1.0" encoding="iso-8859-1"?>
<!-- Generator: Adobe Illustrator 19.0.0, SVG Export Plug-In . SVG Version: 6.00 Build 0)  -->
<svg version="1.1" id="Layer_1" xmlns="http://www.w3.org/2000/svg" xmlns:xlink="http://www.w3.org/1999/xlink" x="0px" y="0px"
	 viewBox="0 0 501.551 501.551" style="enable-background:new 0 0 501.551 501.551;" xml:space="preserve">
<path style="fill:#F2F2F2;" d="M472.294,312.424H29.257L2.09,462.89c-6.269,14.629,4.18,30.302,19.853,30.302h457.665
	c15.673,0,26.122-15.673,19.853-30.302L472.294,312.424z"/>
<path style="fill:#CDD6E0;" d="M0,472.294c0,11.494,9.404,21.943,21.943,21.943h457.665c12.539,0,21.943-10.449,21.943-21.943H0z"/>
<path style="fill:#40596B;" d="M451.396,7.314H50.155c-11.494,0-20.898,9.404-20.898,20.898V311.38h444.082V28.212
	C472.294,16.718,462.89,7.314,451.396,7.314z"/>
<rect x="54.439" y="33.51" style="fill:#FFFFFF;" width="391.837" height="251.82"/>
<polygon style="fill:#CDD6E0;" points="322.873,450.351 178.678,450.351 198.531,406.465 303.02,406.465 "/>
<path style="fill:#FFD15C;" d="M365.714,95.086v130.612c0,3.135-1.045,5.225-3.135,7.314s-4.18,2.09-6.269,2.09H145.241
	c-2.09,0-5.224-1.045-6.269-2.09c-2.09-2.09-3.135-4.18-3.135-7.314V95.086c0-3.135,1.045-5.224,3.135-7.314
	c2.09-2.09,4.18-3.135,6.269-3.135H356.31c3.135,0,5.224,1.045,6.269,3.135C364.669,89.861,365.714,91.951,365.714,95.086z"/>
<path style="fill:#F8B64C;" d="M362.58,231.967c-2.09,2.09-4.18,2.09-6.269,2.09H145.241c-2.09,0-5.224-1.045-6.269-2.09
	l111.804-96.131L362.58,231.967z"/>
<path style="fill:#F2F2F2;" d="M363.624,87.771L258.09,191.216c-4.18,3.135-9.404,3.135-12.539,0L137.927,87.771
	c2.09-2.09,4.18-3.135,6.269-3.135h211.069C359.445,84.637,361.535,85.682,363.624,87.771z"/>
<g>
</g>
<g>
</g>
<g>
</g>
<g>
</g>
<g>
</g>
<g>
</g>
<g>
</g>
<g>
</g>
<g>
</g>
<g>
</g>
<g>
</g>
<g>
</g>
<g>
</g>
<g>
</g>
<g>
</g>
</svg>
