<?xml version="1.0" encoding="iso-8859-1"?>
<!-- Generator: Adobe Illustrator 19.0.0, SVG Export Plug-In . SVG Version: 6.00 Build 0)  -->
<svg version="1.1" id="Layer_1" xmlns="http://www.w3.org/2000/svg" xmlns:xlink="http://www.w3.org/1999/xlink" x="0px" y="0px"
	 viewBox="0 0 501.551 501.551" style="enable-background:new 0 0 501.551 501.551;" xml:space="preserve">
<path style="fill:#F2F2F2;" d="M499.461,462.89l-27.167-151.51H29.257L2.09,462.89c-6.269,14.629,4.18,30.302,19.853,30.302h457.665
	C495.282,494.237,505.731,477.518,499.461,462.89z"/>
<path style="fill:#CDD6E0;" d="M0,472.294c0,11.494,9.404,21.943,21.943,21.943h457.665c12.539,0,21.943-10.449,21.943-21.943H0z"/>
<path style="fill:#40596B;" d="M451.396,7.314H50.155c-11.494,0-20.898,9.404-20.898,20.898V311.38h444.082V28.212
	C472.294,16.718,462.89,7.314,451.396,7.314z"/>
<rect x="54.439" y="33.51" style="fill:#84DBFF;" width="391.837" height="251.82"/>
<rect x="54.962" y="34.074" style="fill:#F2F2F2;" width="391.837" height="39.706"/>
<polygon style="fill:#CDD6E0;" points="312.424,450.351 189.127,450.351 198.531,396.016 303.02,396.016 "/>
<circle style="fill:#FF7058;" cx="415.869" cy="54.335" r="9.404"/>
<circle style="fill:#FFD15C;" cx="386.612" cy="54.335" r="9.404"/>
<g>
	<circle style="fill:#ACB3BA;" cx="357.355" cy="54.335" r="9.404"/>
	<rect x="81.502" y="234.057" style="fill:#ACB3BA;" width="278.988" height="24.033"/>
</g>
<rect x="371.984" y="234.057" style="fill:#FFFFFF;" width="48.065" height="24.033"/>
<rect x="81.502" y="190.171" style="fill:#F2F2F2;" width="199.576" height="24.033"/>
<g>
	<rect x="293.616" y="190.171" style="fill:#FFFFFF;" width="126.433" height="24.033"/>
	<rect x="81.502" y="146.286" style="fill:#FFFFFF;" width="154.645" height="24.033"/>
</g>
<rect x="247.641" y="146.286" style="fill:#F2F2F2;" width="171.363" height="24.033"/>
<rect x="81.502" y="101.355" style="fill:#FFFFFF;" width="226.743" height="24.033"/>
<rect x="319.739" y="101.355" style="fill:#F2F2F2;" width="99.265" height="24.033"/>
<g>
</g>
<g>
</g>
<g>
</g>
<g>
</g>
<g>
</g>
<g>
</g>
<g>
</g>
<g>
</g>
<g>
</g>
<g>
</g>
<g>
</g>
<g>
</g>
<g>
</g>
<g>
</g>
<g>
</g>
</svg>
