<?xml version="1.0" encoding="iso-8859-1"?>
<!-- Generator: Adobe Illustrator 19.0.0, SVG Export Plug-In . SVG Version: 6.00 Build 0)  -->
<svg version="1.1" id="Layer_1" xmlns="http://www.w3.org/2000/svg" xmlns:xlink="http://www.w3.org/1999/xlink" x="0px" y="0px"
	 viewBox="0 0 500.506 500.506" style="enable-background:new 0 0 500.506 500.506;" xml:space="preserve">
<path style="fill:#334A5E;" d="M454.531,64.784H47.02c-9.404,0-16.718,7.314-16.718,16.718v303.02h156.735
	c0,5.224,4.18,9.404,9.404,9.404h109.714c5.224,0,9.404-4.18,9.404-9.404h156.735V81.502
	C471.249,73.143,463.935,64.784,454.531,64.784z"/>
<rect x="64.125" y="98.941" style="fill:#FFFFFF;" width="375.118" height="254.955"/>
<path style="fill:#40596B;" d="M315.559,385.567c0,5.224-4.18,9.404-9.404,9.404H195.396c-5.224,0-9.404-4.18-9.404-9.404H0v19.853
	c0,16.718,13.584,30.302,30.302,30.302h439.902c16.718,0,30.302-13.584,30.302-30.302v-19.853H315.559z"/>
<rect x="84.637" y="119.118" style="fill:#84DBFF;" width="125.388" height="141.061"/>
<rect x="230.922" y="119.118" style="fill:#F2F2F2;" width="187.037" height="45.976"/>
<g>
	<rect x="230.922" y="185.992" style="fill:#CDD6E0;" width="187.037" height="24.033"/>
	<rect x="230.922" y="228.833" style="fill:#CDD6E0;" width="187.037" height="24.033"/>
	<rect x="230.922" y="272.718" style="fill:#CDD6E0;" width="110.759" height="24.033"/>
</g>
<rect x="115.984" y="160.914" style="fill:#40596B;" width="63.739" height="53.29"/>
<path style="fill:#F8B64C;" d="M163.004,234.057c-10.449,2.09-20.898,2.09-31.347,0c2.09-13.584,2.09-28.212,0-41.796
	c10.449-2.09,20.898-2.09,31.347,0C161.959,205.845,161.959,220.473,163.004,234.057z"/>
<path style="fill:#FFD15C;" d="M119.118,154.645v25.078c0,14.629,12.539,26.122,28.212,26.122l0,0
	c15.673,0,28.212-11.494,28.212-26.122v-25.078C175.543,154.645,119.118,154.645,119.118,154.645z"/>
<path style="fill:#40596B;" d="M141.061,154.645v6.269h18.808l3.135-8.359v8.359h15.673c0-17.763-14.629-32.392-32.392-32.392
	s-32.392,14.629-32.392,32.392h21.943L141.061,154.645z"/>
<path style="fill:#FF7058;" d="M182.857,214.204h-22.988l-12.539,18.808l-12.539-18.808h-22.988
	c-12.539,0-22.988,10.449-22.988,22.988v24.033H204.8v-24.033C205.845,224.653,195.396,214.204,182.857,214.204z"/>
<polygon style="fill:#40596B;" points="169.273,290.482 176.588,317.649 183.902,310.335 190.171,317.649 196.441,311.38 
	189.127,305.11 196.441,297.796 "/>
<g>
</g>
<g>
</g>
<g>
</g>
<g>
</g>
<g>
</g>
<g>
</g>
<g>
</g>
<g>
</g>
<g>
</g>
<g>
</g>
<g>
</g>
<g>
</g>
<g>
</g>
<g>
</g>
<g>
</g>
</svg>
