<?xml version="1.0" encoding="iso-8859-1"?>
<!-- Generator: Adobe Illustrator 19.0.0, SVG Export Plug-In . SVG Version: 6.00 Build 0)  -->
<svg version="1.1" id="Layer_1" xmlns="http://www.w3.org/2000/svg" xmlns:xlink="http://www.w3.org/1999/xlink" x="0px" y="0px"
	 viewBox="0 0 502.596 502.596" style="enable-background:new 0 0 502.596 502.596;" xml:space="preserve">
<path style="fill:#F2F2F2;" d="M484.833,373.029H16.718C7.314,373.029,0,380.343,0,389.747v1.045
	c0,9.404,7.314,16.718,16.718,16.718h469.159c9.404,0,16.718-7.314,16.718-16.718v-1.045
	C501.551,380.343,494.237,373.029,484.833,373.029z"/>
<path style="fill:#CDD6E0;" d="M460.8,406.465l-21.943,16.718l-14.629,10.449c-4.18,2.09-8.359,4.18-12.539,4.18H89.861
	c-4.18,0-9.404-1.045-12.539-4.18l-14.629-10.449L40.751,407.51H460.8V406.465z"/>
<polygon style="fill:#B8CAD8;" points="460.8,406.465 438.857,423.184 62.694,423.184 40.751,406.465 "/>
<path style="fill:#40596B;" d="M458.71,64.784H42.841c-11.494,0-20.898,9.404-20.898,20.898v287.347h458.71V85.682
	C479.608,74.188,470.204,64.784,458.71,64.784z"/>
<rect x="48.358" y="91.199" style="fill:#FF7058;" width="404.375" height="254.955"/>
<path style="fill:#B8CAD8;" d="M266.449,385.567h-31.347c-3.135,0-5.224,2.09-5.224,5.224c0,3.135,2.09,5.224,5.224,5.224h31.347
	c3.135,0,5.224-2.09,5.224-5.224C271.673,387.657,268.539,385.567,266.449,385.567z"/>
<path style="fill:#FFD05C;" d="M250.776,148.375l-49.11,87.771c3.135-4.18,7.314-6.269,12.539-6.269l0,0c2.09,0,4.18,0,5.225,1.045
	v31.347h61.649v-30.302c2.09-1.045,4.18-2.09,7.314-2.09l0,0c5.224,0,9.404,2.09,12.539,6.269L250.776,148.375z"/>
<g>
	<path style="fill:#84DBFF;" d="M304.065,345.861v-99.265c0-9.404-7.314-15.673-15.673-15.673c-8.359,0-15.673,7.314-15.673,15.673
		v99.265H304.065z"/>
	<path style="fill:#84DBFF;" d="M229.878,345.861v-99.265c0-9.404-7.314-15.673-15.673-15.673l0,0
		c-9.404,0-15.673,7.314-15.673,15.673v99.265H229.878z"/>
</g>
<path style="fill:#54C0EB;" d="M271.673,345.861v-95.086c0-11.494-9.404-20.898-20.898-20.898c-11.494,0-20.898,9.404-20.898,20.898
	v95.086H271.673z"/>
<polygon style="fill:#334A5E;" points="270.629,183.902 250.776,148.375 230.922,183.902 "/>
<path style="fill:#FFFFFF;" d="M350.041,106.58c-5.224,0-9.404,3.135-10.449,8.359h-74.188c-1.045-7.314-7.314-12.539-14.629-12.539
	c-7.314,0-13.584,5.224-14.629,12.539h-74.188c-1.045-4.18-5.224-8.359-10.449-8.359c-6.269,0-10.449,5.224-10.449,10.449
	c0,6.269,5.224,10.449,10.449,10.449c5.224,0,9.404-3.135,10.449-8.359h61.649c-24.033,9.404-40.751,29.257-45.976,55.38
	c-8.359,0-14.629,7.314-14.629,15.673s7.314,15.673,15.673,15.673s15.673-7.314,15.673-15.673c0-7.314-4.18-12.539-11.494-14.629
	c5.224-27.167,26.122-48.065,53.29-54.335c2.09,6.269,7.314,11.494,14.629,11.494c7.314,0,12.539-4.18,14.629-11.494
	c27.167,6.269,48.065,27.167,54.335,54.335c-6.269,2.09-10.449,7.314-10.449,14.629c0,8.359,7.314,15.673,15.673,15.673
	c8.359,0,15.673-7.314,15.673-15.673s-6.269-14.629-14.629-15.673c-5.224-25.078-22.988-45.976-45.975-55.38h62.694
	c1.045,4.18,5.224,8.359,10.449,8.359c6.269,0,10.449-5.224,10.449-10.449C360.49,111.804,356.31,106.58,350.041,106.58z
	 M188.082,190.171c0,5.224-4.18,10.449-10.449,10.449c-5.224,0-10.449-4.18-10.449-10.449c0-5.224,4.18-10.449,10.449-10.449
	C182.857,179.722,188.082,184.947,188.082,190.171z M151.51,123.298c-3.135,0-5.225-2.09-5.225-5.224s2.09-5.224,5.225-5.224
	c3.135,0,5.224,2.09,5.224,5.224C156.735,120.163,154.645,123.298,151.51,123.298z M250.776,127.478
	c-5.225,0-10.449-4.18-10.449-10.449c0-5.224,4.18-10.449,10.449-10.449c5.224,0,10.449,4.18,10.449,10.449
	C260.18,123.298,256,127.478,250.776,127.478z M333.322,190.171c0,5.224-4.18,10.449-10.449,10.449
	c-5.224,0-10.449-4.18-10.449-10.449c0-5.224,4.18-10.449,10.449-10.449S333.322,184.947,333.322,190.171z M350.041,123.298
	c-3.135,0-5.224-2.09-5.224-5.224s2.09-5.224,5.224-5.224c3.135,0,5.224,2.09,5.224,5.224
	C355.265,120.163,353.176,123.298,350.041,123.298z"/>
<g>
</g>
<g>
</g>
<g>
</g>
<g>
</g>
<g>
</g>
<g>
</g>
<g>
</g>
<g>
</g>
<g>
</g>
<g>
</g>
<g>
</g>
<g>
</g>
<g>
</g>
<g>
</g>
<g>
</g>
</svg>
