<?xml version="1.0" encoding="iso-8859-1"?>
<!-- Generator: Adobe Illustrator 19.0.0, SVG Export Plug-In . SVG Version: 6.00 Build 0)  -->
<svg version="1.1" id="Layer_1" xmlns="http://www.w3.org/2000/svg" xmlns:xlink="http://www.w3.org/1999/xlink" x="0px" y="0px"
	 viewBox="0 0 502.335 502.335" style="enable-background:new 0 0 502.335 502.335;" xml:space="preserve">
<g>
	<path style="fill:#CDD6E0;" d="M89.078,88.816c25.078-25.078,54.335-42.841,85.682-53.29l-3.135-22.988
		c-35.527,11.494-68.963,32.392-98.22,60.604c-28.212,28.212-49.11,61.649-60.604,97.176l21.943,3.135
		C46.237,143.151,65.045,113.894,89.078,88.816z"/>
	<path style="fill:#CDD6E0;" d="M89.078,412.735C64,387.657,46.237,358.4,35.788,327.053L12.8,330.188
		c11.494,35.527,32.392,68.963,60.604,98.22c28.212,28.212,61.649,49.11,97.175,60.604l3.135-22.988
		C143.412,455.575,114.155,436.767,89.078,412.735z"/>
	<path style="fill:#CDD6E0;" d="M412.996,88.816c25.078,25.078,42.841,54.335,53.29,85.682l21.943-3.135
		c-11.494-35.527-32.392-68.963-60.604-97.176c-28.212-28.212-61.649-49.11-98.22-60.604l-3.135,22.988
		C358.661,45.976,387.918,64.784,412.996,88.816z"/>
	<path style="fill:#CDD6E0;" d="M489.273,330.188l-22.988-3.135c-11.494,31.347-29.257,60.604-53.29,85.682
		c-25.078,25.078-54.335,42.841-85.682,53.29l3.135,21.943c35.527-11.494,68.963-32.392,97.175-60.604
		C456.882,399.151,476.735,365.714,489.273,330.188z"/>
</g>
<g>
	<path style="fill:#F2F2F2;" d="M148.637,353.176c-11.494-11.494-20.898-25.078-27.167-38.661l-85.682,12.539
		c11.494,31.347,29.257,60.604,53.29,85.682c25.078,25.078,54.335,42.841,85.682,53.29l12.539-85.682
		C173.714,374.073,160.131,364.669,148.637,353.176z"/>
	<path style="fill:#F2F2F2;" d="M353.437,353.176c-11.494,11.494-25.078,20.898-38.661,27.167l12.539,85.682
		c31.347-11.494,60.604-29.257,85.682-53.29c25.078-25.078,42.841-54.335,53.29-85.682l-85.682-12.539
		C374.335,328.098,364.931,341.682,353.437,353.176z"/>
	<path style="fill:#F2F2F2;" d="M148.637,148.376c11.494-11.494,25.078-20.898,38.661-27.167l-12.539-85.682
		c-31.347,10.449-60.604,29.257-85.682,53.29C64,113.894,46.237,143.151,35.788,174.498l85.682,12.539
		C127.739,173.453,137.143,159.869,148.637,148.376z"/>
	<path style="fill:#F2F2F2;" d="M353.437,148.376c11.494,11.494,20.898,25.078,27.167,38.661l85.682-12.539
		c-11.494-31.347-29.257-60.604-53.29-85.682c-25.078-25.078-54.335-42.841-85.682-54.335l-12.539,85.682
		C328.359,127.478,341.943,136.882,353.437,148.376z"/>
</g>
<path style="fill:#F1543F;" d="M466.286,327.053l22.988,3.135c16.718-51.2,16.718-107.624,0-158.825l-21.943,3.135
	C484.049,223.608,484.049,277.943,466.286,327.053z"/>
<path style="fill:#FF7058;" d="M466.286,174.498l-85.682,12.539c19.853,39.706,19.853,86.727,0,126.433l85.682,12.539
	C484.049,277.943,484.049,223.608,466.286,174.498z"/>
<path style="fill:#F1543F;" d="M35.788,174.498l-21.943-3.135c-17.763,51.2-17.763,107.624,0,158.824l22.988-3.135
	C18.024,277.943,18.024,223.608,35.788,174.498z"/>
<path style="fill:#FF7058;" d="M121.469,187.037l-85.682-12.539c-17.763,49.11-17.763,103.445,0,152.555l85.682-12.539
	C101.616,273.763,101.616,227.788,121.469,187.037z"/>
<path style="fill:#F1543F;" d="M174.759,466.024l-3.135,22.988c51.2,17.763,107.624,17.763,158.824,0l-3.135-21.943
	C278.204,483.788,223.869,483.788,174.759,466.024z"/>
<path style="fill:#FF7058;" d="M187.298,380.343l-12.539,85.682c49.11,17.763,103.445,17.763,152.555,0l-12.539-85.682
	C274.025,400.196,228.049,400.196,187.298,380.343z"/>
<path style="fill:#F1543F;" d="M327.314,35.527l3.135-22.988c-51.2-16.718-107.624-16.718-158.825,0l3.135,22.988
	C223.869,17.763,278.204,17.763,327.314,35.527z"/>
<path style="fill:#FF7058;" d="M314.776,121.208l12.539-85.682c-49.11-17.763-103.445-17.763-152.555,0l12.539,85.682
	C228.049,101.355,274.025,101.355,314.776,121.208z"/>
<g>
	<path style="fill:#CDD6E0;" d="M314.776,121.208l-3.135,22.988c9.404,5.224,18.808,12.539,26.122,19.853
		c8.359,8.359,14.629,16.718,19.853,26.122l22.988-3.135c-7.314-13.584-15.673-27.167-27.167-38.661
		C341.943,136.882,328.359,127.478,314.776,121.208z"/>
	<path style="fill:#CDD6E0;" d="M164.31,164.049c8.359-8.359,16.718-14.629,26.122-19.853l-3.135-22.988
		c-13.584,7.314-27.167,15.673-38.661,27.167c-11.494,11.494-20.898,25.078-27.167,38.661l22.988,3.135
		C149.682,181.812,156.996,172.408,164.31,164.049z"/>
	<path style="fill:#CDD6E0;" d="M164.31,337.502c-8.359-8.359-14.629-16.718-19.853-26.122l-22.988,3.135
		c7.314,13.584,15.673,27.167,27.167,38.661c11.494,11.494,25.078,20.898,38.661,27.167l3.135-22.988
		C182.073,352.131,172.669,344.816,164.31,337.502z"/>
	<path style="fill:#CDD6E0;" d="M337.763,337.502c-8.359,8.359-16.718,14.629-26.122,19.853l3.135,22.988
		c13.584-7.314,27.167-15.673,38.661-27.167c11.494-11.494,20.898-25.078,27.167-38.661l-22.988-3.135
		C352.392,319.739,345.078,329.143,337.763,337.502z"/>
</g>
<g>
	<path style="fill:#F1543F;" d="M357.616,310.335l22.988,3.135c19.853-39.706,19.853-86.727,0-126.433l-22.988,3.135
		C378.514,227.788,378.514,273.763,357.616,310.335z"/>
	<path style="fill:#F1543F;" d="M144.457,191.216l-22.988-3.135c-19.853,39.706-19.853,86.727,0,126.433l22.988-3.135
		C123.559,273.763,123.559,227.788,144.457,191.216z"/>
	<path style="fill:#F1543F;" d="M191.478,357.355l-3.135,22.988c39.706,19.853,86.727,19.853,126.433,0l-3.135-22.988
		C274.025,378.253,228.049,378.253,191.478,357.355z"/>
	<path style="fill:#F1543F;" d="M310.596,144.196l3.135-22.988c-39.706-19.853-86.727-19.853-126.433,0l3.135,22.988
		C228.049,123.298,274.025,123.298,310.596,144.196z"/>
</g>
<g>
</g>
<g>
</g>
<g>
</g>
<g>
</g>
<g>
</g>
<g>
</g>
<g>
</g>
<g>
</g>
<g>
</g>
<g>
</g>
<g>
</g>
<g>
</g>
<g>
</g>
<g>
</g>
<g>
</g>
</svg>
