<?xml version="1.0" encoding="iso-8859-1"?>
<!-- Generator: Adobe Illustrator 19.0.0, SVG Export Plug-In . SVG Version: 6.00 Build 0)  -->
<svg version="1.1" id="Layer_1" xmlns="http://www.w3.org/2000/svg" xmlns:xlink="http://www.w3.org/1999/xlink" x="0px" y="0px"
	 viewBox="0 0 501.551 501.551" style="enable-background:new 0 0 501.551 501.551;" xml:space="preserve">
<path style="fill:#FFD15C;" d="M155.167,166.139c3.135,5.224,4.18,10.449,4.18,16.718v284.212c0,6.269-2.09,12.539-5.224,17.763
	h307.2c21.943,0,39.706-17.763,39.706-39.706s-17.763-39.706-39.706-39.706c21.943,0,39.706-17.763,39.706-39.706l0,0
	c0-21.943-17.763-39.706-39.706-39.706c21.943,0,39.706-17.763,39.706-39.706s-17.763-39.706-39.706-39.706h-1.045
	c21.943,0,39.706-17.763,39.706-39.706s-17.763-39.706-39.706-39.706H334.89c22.988-31.347,36.571-71.053,36.571-112.849V39.706
	C371.461,17.763,353.698,0,331.755,0s-39.706,17.763-39.706,39.706V51.2c0,61.649-50.155,111.804-111.804,111.804
	C167.706,163.004,156.212,165.094,155.167,166.139z"/>
<path style="fill:#40596B;" d="M138.449,148.376H0.522v353.175h137.927c11.494,0,20.898-9.404,20.898-20.898v-311.38
	C159.347,157.78,149.943,148.376,138.449,148.376z"/>
<circle style="fill:#FFFFFF;" cx="95.608" cy="438.857" r="25.078"/>
<g>
</g>
<g>
</g>
<g>
</g>
<g>
</g>
<g>
</g>
<g>
</g>
<g>
</g>
<g>
</g>
<g>
</g>
<g>
</g>
<g>
</g>
<g>
</g>
<g>
</g>
<g>
</g>
<g>
</g>
</svg>
