<?xml version="1.0" encoding="iso-8859-1"?>
<!-- Generator: Adobe Illustrator 19.0.0, SVG Export Plug-In . SVG Version: 6.00 Build 0)  -->
<svg version="1.1" id="Layer_1" xmlns="http://www.w3.org/2000/svg" xmlns:xlink="http://www.w3.org/1999/xlink" x="0px" y="0px"
	 viewBox="0 0 503.118 503.118" style="enable-background:new 0 0 503.118 503.118;" xml:space="preserve">
<path style="fill:#FFD15C;" d="M335.151,167.967c10.449,10.449,18.808,22.988,25.078,35.527
	c22.988,48.065,15.673,108.669-25.078,148.375L223.347,464.718c-51.2,51.2-133.747,51.2-183.902,0
	c-51.2-51.2-51.2-133.747,0-183.902l79.412-79.412c-9.404,31.347-8.359,64.784,3.135,95.086l-33.437,33.437
	c-22.988,22.988-22.988,61.649,0,85.682c24.033,24.033,61.649,24.033,85.682,0l111.804-111.804
	c11.494-11.494,17.763-27.167,17.763-42.841s-6.269-31.347-17.763-42.841c-11.494-11.494-27.167-17.763-42.841-17.763l56.424-56.424
	C312.163,149.159,323.657,157.518,335.151,167.967z"/>
<path style="fill:#FF7058;" d="M167.967,335.151c-10.449-10.449-18.808-22.988-25.078-35.527
	c-22.988-48.065-15.673-108.669,25.078-148.376L279.771,38.4c51.2-51.2,133.747-51.2,183.902,0c51.2,51.2,51.2,133.747,0,183.902
	l-79.412,79.412c9.404-31.347,8.359-64.784-3.135-95.086l33.437-33.437c22.988-22.988,22.988-61.649,0-85.682
	c-24.033-24.033-61.649-24.033-85.682,0L218.122,200.359c-11.494,11.494-17.763,27.167-17.763,42.841s6.269,31.347,17.763,42.841
	c11.494,11.494,27.167,17.763,42.841,17.763l-56.424,56.424C190.955,353.959,179.461,345.6,167.967,335.151z"/>
<g>
</g>
<g>
</g>
<g>
</g>
<g>
</g>
<g>
</g>
<g>
</g>
<g>
</g>
<g>
</g>
<g>
</g>
<g>
</g>
<g>
</g>
<g>
</g>
<g>
</g>
<g>
</g>
<g>
</g>
</svg>
