<?xml version="1.0" encoding="iso-8859-1"?>
<!-- Generator: Adobe Illustrator 19.0.0, SVG Export Plug-In . SVG Version: 6.00 Build 0)  -->
<svg version="1.1" id="Layer_1" xmlns="http://www.w3.org/2000/svg" xmlns:xlink="http://www.w3.org/1999/xlink" x="0px" y="0px"
	 viewBox="0 0 502.073 502.073" style="enable-background:new 0 0 502.073 502.073;" xml:space="preserve">
<path style="fill:#CDD6E0;" d="M501.812,481.176c0,6.269-2.09,11.494-6.269,15.673c-4.18,3.135-8.359,5.224-14.629,5.224H21.159
	c-5.224,0-10.449-2.09-14.629-5.224c-4.18-4.18-6.269-9.404-6.269-15.673V175.02h501.551V481.176z"/>
<path style="fill:#ACB3BA;" d="M495.543,496.849c-4.18,3.135-8.359,5.224-14.629,5.224H21.159c-5.224,0-10.449-2.09-14.629-5.224
	l244.506-210.024L495.543,496.849z"/>
<path style="fill:#40596B;" d="M501.812,175.02l-71.053,51.2L264.62,345.339c-8.359,6.269-19.853,6.269-28.212,0L71.314,226.22
	l-71.053-51.2l71.053-51.2L225.959,13.061l11.494-8.359c8.359-6.269,19.853-6.269,28.212,0l11.494,8.359l74.188,53.29l36.571,26.122
	l42.841,31.347L501.812,175.02z"/>
<path style="fill:#F2F2F2;" d="M430.759,77.845V226.22L264.62,345.339c-8.359,6.269-19.853,6.269-28.212,0L71.314,226.22V33.959
	c0-11.494,9.404-20.898,20.898-20.898h272.718L430.759,77.845z"/>
<path style="fill:#CDD6E0;" d="M365.975,61.127c0,9.404,7.314,16.718,16.718,16.718h48.065l-64.784-64.784L365.975,61.127
	L365.975,61.127z"/>
<path style="fill:#FF7058;" d="M288.653,91.429c-14.629,0-28.212,5.224-37.616,14.629c-10.449-9.404-22.988-14.629-37.616-14.629
	c-32.392,0-58.514,26.122-58.514,58.514c0,44.931,96.131,121.208,96.131,121.208s96.131-76.278,96.131-121.208
	C347.167,117.551,321.045,91.429,288.653,91.429z"/>
<g>
</g>
<g>
</g>
<g>
</g>
<g>
</g>
<g>
</g>
<g>
</g>
<g>
</g>
<g>
</g>
<g>
</g>
<g>
</g>
<g>
</g>
<g>
</g>
<g>
</g>
<g>
</g>
<g>
</g>
</svg>
