<?xml version="1.0" encoding="iso-8859-1"?>
<!-- Generator: Adobe Illustrator 19.0.0, SVG Export Plug-In . SVG Version: 6.00 Build 0)  -->
<svg version="1.1" id="Layer_1" xmlns="http://www.w3.org/2000/svg" xmlns:xlink="http://www.w3.org/1999/xlink" x="0px" y="0px"
	 viewBox="0 0 502.596 502.596" style="enable-background:new 0 0 502.596 502.596;" xml:space="preserve">
<path style="fill:#F2F2F2;" d="M501.551,112.327v328.098c0,9.404-6.269,17.763-15.673,19.853l-146.286,39.706
	c-3.135,1.045-7.314,1.045-11.494,0l-155.69-41.796c-3.135-1.045-7.314-1.045-11.494,0L26.122,494.759
	C12.539,498.939,0,488.49,0,474.906V146.808c0-9.404,6.269-17.763,15.673-19.853l146.286-39.706c3.135-1.045,7.314-1.045,11.494,0
	l155.69,41.796c3.135,1.045,7.314,1.045,11.494,0l134.792-36.571C489.012,88.294,501.551,98.743,501.551,112.327z"/>
<path style="fill:#CDD6E0;" d="M475.429,92.473l-135.837,36.571c-3.135,1.045-7.314,1.045-11.494,0l-155.69-41.796
	c-2.09-1.045-4.18-1.045-6.269-1.045v371.984c2.09,0,4.18,0,6.269,1.045l156.735,41.796c3.135,1.045,7.314,1.045,11.494,0
	l146.286-39.706c9.404-2.09,15.673-10.449,15.673-19.853V112.327C501.551,98.743,489.012,88.294,475.429,92.473z"/>
<path style="fill:#F2F2F2;" d="M475.429,92.473l-135.837,36.571c-2.09,1.045-4.18,1.045-6.269,1.045v371.984
	c2.09,0,4.18,0,6.269-1.045l146.286-39.706c9.404-2.09,15.673-10.449,15.673-19.853V112.327
	C501.551,98.743,489.012,88.294,475.429,92.473z"/>
<g>
	<path style="fill:#FF7058;" d="M350.041,46.498c-32.392,0-57.469,26.122-57.469,57.469c0,32.392,57.469,123.298,57.469,123.298
		s57.469-91.951,57.469-123.298S381.388,46.498,350.041,46.498z M350.041,135.314c-17.763,0-31.347-13.584-31.347-31.347
		s13.584-31.347,31.347-31.347s31.347,13.584,31.347,31.347S366.759,135.314,350.041,135.314z"/>
	<path style="fill:#FF7058;" d="M151.51,0.522c-45.976,0-83.592,37.616-83.592,83.592s83.592,177.633,83.592,177.633
		s83.592-131.657,83.592-177.633S197.486,0.522,151.51,0.522z M151.51,129.045c-25.078,0-44.931-19.853-44.931-44.931
		s19.853-44.931,44.931-44.931s44.931,19.853,44.931,44.931S176.588,129.045,151.51,129.045z"/>
</g>
<g>
</g>
<g>
</g>
<g>
</g>
<g>
</g>
<g>
</g>
<g>
</g>
<g>
</g>
<g>
</g>
<g>
</g>
<g>
</g>
<g>
</g>
<g>
</g>
<g>
</g>
<g>
</g>
<g>
</g>
</svg>
