<?xml version="1.0" encoding="iso-8859-1"?>
<!-- Generator: Adobe Illustrator 19.0.0, SVG Export Plug-In . SVG Version: 6.00 Build 0)  -->
<svg version="1.1" id="Layer_1" xmlns="http://www.w3.org/2000/svg" xmlns:xlink="http://www.w3.org/1999/xlink" x="0px" y="0px"
	 viewBox="0 0 501.551 501.551" style="enable-background:new 0 0 501.551 501.551;" xml:space="preserve">
<path style="fill:#40596B;" d="M60.604,121.208c-11.494,0-20.898,9.404-20.898,20.898v182.857c0,11.494,9.404,20.898,20.898,20.898
	h150.465V121.208H60.604z"/>
<path style="fill:#F2F2F2;" d="M150.465,501.551L150.465,501.551c-26.122,0-48.065-17.763-54.335-42.841l-25.078-97.176
	l-4.18-15.673h117.029l4.18,15.673l17.763,68.963C215.249,467.069,188.082,501.551,150.465,501.551z"/>
<path style="fill:#FF7058;" d="M20.898,141.061C9.404,141.061,0,150.465,0,161.959V305.11c0,11.494,9.404,20.898,20.898,20.898
	h18.808V141.061H20.898z"/>
<polygon style="fill:#F2F2F2;" points="462.89,0 462.89,467.069 447.216,459.755 211.069,345.861 211.069,121.208 447.216,7.314 "/>
<path style="fill:#FF7058;" d="M480.653,0H462.89v467.069h17.763c11.494,0,20.898-9.404,20.898-20.898V20.898
	C501.551,9.404,492.147,0,480.653,0z"/>
<path style="fill:#F1543F;" d="M39.706,141.061v184.947H24.033v-1.045V142.106v-1.045H39.706z"/>
<g>
	<polygon style="fill:#E4EAEF;" points="462.89,0 462.89,467.069 447.216,459.755 447.216,7.314 	"/>
	<polygon style="fill:#E4EAEF;" points="188.082,361.535 71.053,361.535 66.873,345.861 183.902,345.861 	"/>
</g>
<g>
	<rect x="39.706" y="171.363" style="fill:#334A5E;" width="101.355" height="26.122"/>
	<rect x="39.706" y="220.473" style="fill:#334A5E;" width="101.355" height="26.122"/>
	<rect x="39.706" y="270.629" style="fill:#334A5E;" width="101.355" height="26.122"/>
</g>
<g>
</g>
<g>
</g>
<g>
</g>
<g>
</g>
<g>
</g>
<g>
</g>
<g>
</g>
<g>
</g>
<g>
</g>
<g>
</g>
<g>
</g>
<g>
</g>
<g>
</g>
<g>
</g>
<g>
</g>
</svg>
