<?xml version="1.0" encoding="iso-8859-1"?>
<!-- Generator: Adobe Illustrator 19.0.0, SVG Export Plug-In . SVG Version: 6.00 Build 0)  -->
<svg version="1.1" id="Layer_1" xmlns="http://www.w3.org/2000/svg" xmlns:xlink="http://www.w3.org/1999/xlink" x="0px" y="0px"
	 viewBox="0 0 501.551 501.551" style="enable-background:new 0 0 501.551 501.551;" xml:space="preserve">
<polygon style="fill:#FF7058;" points="142.106,369.894 142.106,501.551 58.514,501.551 31.347,385.567 27.167,369.894 "/>
<polygon style="fill:#F2F2F2;" points="459.755,501.551 169.273,369.894 169.273,131.657 459.755,0 "/>
<rect x="459.755" style="fill:#FF7058;" width="41.796" height="501.551"/>
<path style="fill:#CDD6E0;" d="M20.898,131.657C9.404,131.657,0,141.061,0,152.555v197.486c0,11.494,9.404,20.898,20.898,20.898
	h148.376V131.657H20.898z"/>
<g>
	<path style="fill:#FFD15C;" d="M142.106,429.453h-24.033c-6.269,0-12.539,5.224-12.539,12.539l0,0
		c0,6.269,5.224,12.539,12.539,12.539h24.033V429.453z"/>
	<path style="fill:#FFD15C;" d="M142.106,392.882h-24.033c-6.269,0-12.539,5.224-12.539,12.539l0,0
		c0,6.269,5.224,12.539,12.539,12.539h24.033V392.882z"/>
	<path style="fill:#FFD15C;" d="M142.106,466.024h-24.033c-6.269,0-12.539,5.224-12.539,12.539l0,0
		c0,6.269,5.224,12.539,12.539,12.539h24.033V466.024z"/>
</g>
<polygon style="fill:#F1543F;" points="142.106,369.894 142.106,385.567 31.347,385.567 27.167,369.894 "/>
<g>
</g>
<g>
</g>
<g>
</g>
<g>
</g>
<g>
</g>
<g>
</g>
<g>
</g>
<g>
</g>
<g>
</g>
<g>
</g>
<g>
</g>
<g>
</g>
<g>
</g>
<g>
</g>
<g>
</g>
</svg>
