<?xml version="1.0" encoding="iso-8859-1"?>
<!-- Generator: Adobe Illustrator 19.0.0, SVG Export Plug-In . SVG Version: 6.00 Build 0)  -->
<svg version="1.1" id="Layer_1" xmlns="http://www.w3.org/2000/svg" xmlns:xlink="http://www.w3.org/1999/xlink" x="0px" y="0px"
	 viewBox="0 0 501.551 501.551" style="enable-background:new 0 0 501.551 501.551;" xml:space="preserve">
<polygon style="fill:#40596B;" points="205.845,501.551 102.4,501.551 65.829,381.388 60.604,365.714 164.049,365.714 
	169.273,381.388 169.273,383.478 176.588,407.51 180.767,422.139 188.082,446.171 192.261,459.755 199.576,483.788 "/>
<polygon style="fill:#F2F2F2;" points="466.024,501.551 182.857,365.714 182.857,135.837 466.024,0 "/>
<path style="fill:#40596B;" d="M41.796,170.318v160.914H20.898C9.404,331.233,0,321.829,0,310.335V191.216
	c0-11.494,9.404-20.898,20.898-20.898H41.796z"/>
<g>
	<path style="fill:#FFD15C;" d="M62.694,135.837c-11.494,0-20.898,9.404-20.898,20.898v188.082c0,11.494,9.404,20.898,20.898,20.898
		h120.163V135.837H62.694z"/>
	<path style="fill:#FFD15C;" d="M480.653,0h-14.629v501.551h14.629c11.494,0,20.898-9.404,20.898-20.898V20.898
		C501.551,9.404,492.147,0,480.653,0z"/>
</g>
<g>
	<rect x="26.122" y="170.318" style="fill:#334A5E;" width="15.673" height="160.914"/>
	<polygon style="fill:#334A5E;" points="169.273,381.388 65.829,381.388 60.604,365.714 164.049,365.714 	"/>
</g>
<g>
	<path style="fill:#ACB3BA;" d="M176.588,407.51h-50.155c-6.269,0-12.539-5.224-12.539-12.539l0,0
		c0-6.269,5.224-12.539,12.539-12.539h42.841L176.588,407.51z"/>
	<path style="fill:#ACB3BA;" d="M188.082,446.171h-40.751c-6.269,0-12.539-5.224-12.539-12.539l0,0
		c0-6.269,5.224-12.539,12.539-12.539h33.437L188.082,446.171z"/>
	<path style="fill:#ACB3BA;" d="M199.576,483.788h-20.898c-6.269,0-12.539-5.225-12.539-12.539l0,0
		c0-6.269,5.224-12.539,12.539-12.539h13.584L199.576,483.788z"/>
</g>
<g>
</g>
<g>
</g>
<g>
</g>
<g>
</g>
<g>
</g>
<g>
</g>
<g>
</g>
<g>
</g>
<g>
</g>
<g>
</g>
<g>
</g>
<g>
</g>
<g>
</g>
<g>
</g>
<g>
</g>
</svg>
