<?xml version="1.0" encoding="iso-8859-1"?>
<!-- Generator: Adobe Illustrator 19.0.0, SVG Export Plug-In . SVG Version: 6.00 Build 0)  -->
<svg version="1.1" id="Layer_1" xmlns="http://www.w3.org/2000/svg" xmlns:xlink="http://www.w3.org/1999/xlink" x="0px" y="0px"
	 viewBox="0 0 501.551 501.551" style="enable-background:new 0 0 501.551 501.551;" xml:space="preserve">
<path style="fill:#334A5E;" d="M484.833,52.245H20.898C9.404,52.245,0,61.649,0,73.143v280.033h501.551V68.963
	C501.551,59.559,494.237,52.245,484.833,52.245z"/>
<path style="fill:#F2F2F2;" d="M0,353.176v39.706c0,11.494,9.404,20.898,20.898,20.898h459.755c11.494,0,20.898-9.404,20.898-20.898
	v-39.706H0z"/>
<g>
	<circle style="fill:#CDD5DF;" cx="250.776" cy="383.478" r="11.494"/>
	<rect x="154.645" y="413.78" style="fill:#CDD5DF;" width="192.261" height="56.425"/>
</g>
<rect x="154.645" y="413.78" style="fill:#ABB2B9;" width="192.261" height="15.673"/>
<g>
	<rect x="103.445" y="470.204" style="fill:#F2F2F2;" width="293.616" height="31.347"/>
	<path style="fill:#F2F2F2;" d="M344.816,0H112.849c-11.494,0-20.898,9.404-20.898,20.898v308.245H409.6V63.739L344.816,0z"/>
</g>
<path style="fill:#CDD5DF;" d="M365.714,63.739h42.841L344.816,0v42.841C344.816,54.335,354.22,63.739,365.714,63.739z"/>
<g>
	<polygon style="fill:#89D6F7;" points="440.947,83.592 409.6,329.143 468.114,329.143 468.114,83.592 	"/>
	<polygon style="fill:#89D6F7;" points="33.437,83.592 33.437,329.143 91.951,329.143 60.604,83.592 	"/>
</g>
<polygon style="fill:#334A5E;" points="445.126,52.245 409.6,52.245 409.6,83.592 440.947,83.592 "/>
<polygon style="fill:#89D6F7;" points="409.6,83.592 409.6,329.143 440.947,83.592 "/>
<polygon style="fill:#55BFE9;" points="409.6,83.592 409.6,329.143 440.947,83.592 "/>
<polygon style="fill:#334A5E;" points="91.951,52.245 56.424,52.245 60.604,83.592 91.951,83.592 "/>
<polygon style="fill:#89D6F7;" points="60.604,83.592 91.951,329.143 91.951,83.592 "/>
<polygon style="fill:#55BFE9;" points="60.604,83.592 91.951,329.143 91.951,83.592 "/>
<rect x="184.947" y="17.763" style="fill:#CDD6E0;" width="131.657" height="131.657"/>
<g>
	<path style="fill:#40596B;" d="M298.841,79.412l9.404-6.269l-4.18-12.539h-11.494c-1.045-3.135-3.135-6.269-5.224-8.359
		l4.18-10.449l-10.449-8.359l-9.404,7.314c-3.135-1.045-6.269-3.135-10.449-3.135l-3.135-11.494h-13.584l-3.135,10.449
		c-3.135,1.045-6.269,2.09-9.404,3.135l-9.404-7.314l-10.449,7.314l3.135,11.494c-1.045,1.045-2.09,2.09-3.135,4.18l0,0
		c-1.045,1.045-2.09,3.135-3.135,4.18h-11.494l-4.18,11.494l9.404,7.314c0,3.135,0,7.314,0,10.449l-9.404,6.269l4.18,12.539h11.494
		c2.09,3.135,3.135,6.269,6.269,8.359l-4.18,10.449l10.449,8.359l9.404-7.314c3.135,1.045,6.269,3.135,10.449,3.135l3.135,11.494
		h13.584l3.135-11.494c3.135-1.045,6.269-2.09,9.404-3.135l9.404,7.314l10.449-7.314l-3.135-11.494
		c1.045-1.045,2.09-2.09,3.135-4.18l0,0c1.045-1.045,2.09-3.135,3.135-4.18h11.494l3.135-11.494l-9.404-6.269
		C298.841,86.727,298.841,82.547,298.841,79.412z M272.718,100.31c-4.18,5.224-10.449,9.404-17.763,10.449
		c-14.629,2.09-28.212-8.359-30.302-22.988c-2.09-7.314,0-14.629,4.18-19.853c4.18-5.224,10.449-9.404,17.763-10.449
		c14.629-2.09,28.212,8.359,30.302,22.988C278.988,87.771,276.898,95.086,272.718,100.31z"/>
	<path style="fill:#40596B;" d="M392.882,303.02L392.882,303.02c0-6.269-5.225-11.494-11.494-11.494h-16.718v22.988h16.718
		C388.702,313.469,392.882,309.29,392.882,303.02z"/>
</g>
<polygon style="fill:#FFD05C;" points="136.882,291.527 136.882,313.469 123.298,308.245 108.669,303.02 123.298,296.751 "/>
<polygon style="fill:#40596B;" points="123.298,296.751 123.298,308.245 108.669,303.02 "/>
<polygon style="fill:#FF7058;" points="136.882,291.527 136.882,297.796 354.22,297.796 354.22,297.796 354.22,291.527 "/>
<rect x="136.882" y="297.796" style="fill:#F1543F;" width="217.339" height="9.404"/>
<rect x="136.882" y="307.2" style="fill:#FF7058;" width="217.339" height="7.314"/>
<rect x="354.22" y="291.527" style="fill:#FFD15C;" width="10.449" height="22.988"/>
<path style="fill:#55BFE9;" d="M354.22,291.527h11.494H354.22z"/>
<polygon style="fill:#FFD15C;" points="365.714,297.796 365.714,297.796 365.714,291.527 "/>
<polygon style="fill:#55BFE9;" points="365.714,307.2 365.714,307.2 365.714,297.796 365.714,297.796 "/>
<g>
	<rect x="151.51" y="183.902" style="fill:#4CDBC4;" width="197.486" height="24.033"/>
	<rect x="151.51" y="233.012" style="fill:#4CDBC4;" width="197.486" height="24.033"/>
</g>
<g>
</g>
<g>
</g>
<g>
</g>
<g>
</g>
<g>
</g>
<g>
</g>
<g>
</g>
<g>
</g>
<g>
</g>
<g>
</g>
<g>
</g>
<g>
</g>
<g>
</g>
<g>
</g>
<g>
</g>
</svg>
