<?xml version="1.0" encoding="iso-8859-1"?>
<!-- Generator: Adobe Illustrator 19.0.0, SVG Export Plug-In . SVG Version: 6.00 Build 0)  -->
<svg version="1.1" id="Layer_1" xmlns="http://www.w3.org/2000/svg" xmlns:xlink="http://www.w3.org/1999/xlink" x="0px" y="0px"
	 viewBox="0 0 501.551 501.551" style="enable-background:new 0 0 501.551 501.551;" xml:space="preserve">
<path style="fill:#40596B;" d="M484.833,41.796H20.898C9.404,41.796,0,51.2,0,62.694v321.829h501.551V58.514
	C501.551,49.11,494.237,41.796,484.833,41.796z"/>
<path style="fill:#F2F2F2;" d="M0,384.522v39.706c0,11.494,9.404,20.898,20.898,20.898h459.755c11.494,0,20.898-9.404,20.898-20.898
	v-39.706H0z"/>
<g>
	<circle style="fill:#CDD6E0;" cx="250.776" cy="414.824" r="11.494"/>
	<rect x="154.645" y="445.126" style="fill:#CDD6E0;" width="192.261" height="39.706"/>
</g>
<rect x="113.894" y="484.833" style="fill:#F2F2F2;" width="272.718" height="16.718"/>
<rect x="154.645" y="445.126" style="fill:#ACB3BA;" width="192.261" height="15.673"/>
<rect x="33.437" y="72.098" style="fill:#84DBFF;" width="434.678" height="282.122"/>
<path style="fill:#F2F2F2;" d="M262.269,65.829v84.637c0,6.269,4.18,11.494,10.449,12.539v22.988l22.988-22.988h117.029
	c7.314,0,12.539-5.225,12.539-12.539V65.829c0-7.314-5.224-12.539-12.539-12.539H274.808
	C267.494,53.29,262.269,58.514,262.269,65.829z"/>
<g>
	<path style="fill:#CDD6E0;" d="M286.302,108.669L286.302,108.669c0,7.314,5.224,12.539,12.539,12.539l0,0
		c7.314,0,12.539-5.224,12.539-12.539l0,0c0-7.314-5.224-12.539-12.539-12.539l0,0C291.527,96.131,286.302,101.355,286.302,108.669z
		"/>
	<path style="fill:#CDD6E0;" d="M331.233,108.669L331.233,108.669c0,7.314,5.224,12.539,12.539,12.539l0,0
		c7.314,0,12.539-5.224,12.539-12.539l0,0c0-7.314-5.224-12.539-12.539-12.539l0,0C336.457,96.131,331.233,101.355,331.233,108.669z
		"/>
	<path style="fill:#CDD6E0;" d="M375.118,108.669L375.118,108.669c0,7.314,5.224,12.539,12.539,12.539l0,0
		c7.314,0,12.539-5.224,12.539-12.539l0,0c0-7.314-5.224-12.539-12.539-12.539l0,0C381.388,96.131,375.118,101.355,375.118,108.669z
		"/>
</g>
<path style="fill:#FFD15C;" d="M72.098,0h155.69c7.314,0,13.584,6.269,13.584,13.584v96.131c0,7.314-6.269,13.584-13.584,13.584
	h-7.314v32.392l-32.392-32.392H72.098c-7.314,0-13.584-6.269-13.584-13.584V13.584C58.514,6.269,64.784,0,72.098,0z"/>
<g>
	<rect x="91.951" y="21.943" style="fill:#F8B64C;" width="115.984" height="15.673"/>
	<rect x="71.053" y="53.29" style="fill:#F8B64C;" width="157.78" height="15.673"/>
	<rect x="91.951" y="86.727" style="fill:#F8B64C;" width="115.984" height="15.673"/>
</g>
<g>
</g>
<g>
</g>
<g>
</g>
<g>
</g>
<g>
</g>
<g>
</g>
<g>
</g>
<g>
</g>
<g>
</g>
<g>
</g>
<g>
</g>
<g>
</g>
<g>
</g>
<g>
</g>
<g>
</g>
</svg>
