<?xml version="1.0" encoding="iso-8859-1"?>
<!-- Generator: Adobe Illustrator 19.0.0, SVG Export Plug-In . SVG Version: 6.00 Build 0)  -->
<svg version="1.1" id="Layer_1" xmlns="http://www.w3.org/2000/svg" xmlns:xlink="http://www.w3.org/1999/xlink" x="0px" y="0px"
	 viewBox="0 0 501.551 501.551" style="enable-background:new 0 0 501.551 501.551;" xml:space="preserve">
<polygon style="fill:#CDD6E0;" points="362.58,461.845 140.016,461.845 158.824,429.453 160.914,426.318 169.273,410.645 
	170.318,409.6 331.233,409.6 332.278,410.645 340.637,426.318 342.727,429.453 "/>
<path style="fill:#F2F2F2;" d="M0,331.233v59.559c0,11.494,9.404,20.898,20.898,20.898h459.755c11.494,0,20.898-9.404,20.898-20.898
	v-59.559H0z"/>
<path style="fill:#40596B;" d="M501.551,331.233V20.898C501.551,9.404,492.147,0,480.653,0H20.898C9.404,0,0,9.404,0,20.898v310.335
	H501.551z"/>
<rect x="39.706" y="35.527" style="fill:#FFFFFF;" width="421.094" height="259.135"/>
<path style="fill:#F2F2F2;" d="M367.804,461.845H133.747c-21.943,0-39.706,17.763-39.706,39.706H407.51
	C407.51,479.608,389.747,461.845,367.804,461.845z"/>
<circle style="fill:#CDD6E0;" cx="250.776" cy="370.939" r="13.584"/>
<polygon style="fill:#C3D0DB;" points="340.637,426.318 160.914,426.318 169.273,410.645 170.318,409.6 331.233,409.6 
	332.278,410.645 "/>
<path style="fill:#84DBFF;" d="M414.824,249.731c-4.18-13.584-9.404-27.167-15.673-38.661l13.584-31.347l-45.976-47.02
	l-31.347,13.584c-12.539-7.314-25.078-12.539-38.661-15.673L284.212,98.22h-65.829L204.8,130.612
	c-13.584,4.18-27.167,9.404-38.661,15.673l-31.347-13.584l-45.976,47.02l13.584,31.347c-6.269,11.494-12.539,25.078-15.673,38.661
	l-32.392,12.539v32.392h115.984c0-5.224,1.045-10.449,2.09-16.718c1.045-3.135,1.045-5.224,2.09-7.314
	c2.09-7.314,5.224-13.584,9.404-19.853c1.045-1.045,1.045-2.09,2.09-3.135c2.09-3.135,5.224-6.269,8.359-9.404
	c4.18-4.18,7.314-7.314,11.494-9.404c1.045-1.045,3.135-2.09,4.18-2.09c1.045-1.045,2.09-1.045,3.135-2.09
	c4.18-2.09,9.404-4.18,13.584-5.224c2.09-1.045,5.224-1.045,7.314-2.09c10.449-2.09,21.943-2.09,32.392,0
	c3.135,1.045,5.224,1.045,7.314,2.09c5.224,1.045,9.404,3.135,13.584,5.224c2.09,1.045,3.135,2.09,5.224,3.135
	c5.224,3.135,10.449,7.314,14.629,11.494c2.09,2.09,4.18,5.224,6.269,7.314c1.045,2.09,3.135,3.135,4.18,5.224
	c4.18,6.269,7.314,13.584,9.404,19.853c1.045,2.09,1.045,5.224,2.09,7.314c1.045,5.225,2.09,10.449,2.09,16.718h115.984v-32.392
	L414.824,249.731z"/>
<path style="fill:#54C0EB;" d="M336.457,210.024c-47.02-47.02-124.343-47.02-171.363,0c-24.033,24.033-35.527,54.335-35.527,85.682
	h40.751c0-5.224,1.045-10.449,2.09-16.718c1.045-2.09,1.045-5.224,2.09-7.314c2.09-7.314,5.224-13.584,9.404-19.853
	c1.045-1.045,1.045-2.09,2.09-3.135c2.09-3.135,5.224-6.269,8.359-9.404l0,0c4.18-4.18,7.314-7.314,11.494-9.404
	c1.045-1.045,3.135-2.09,4.18-2.09c1.045-1.045,2.09-2.09,3.135-2.09c4.18-2.09,9.404-4.18,13.584-5.224
	c2.09-1.045,5.224-2.09,7.314-2.09c10.449-2.09,21.943-2.09,32.392,0c2.09,1.045,5.224,1.045,7.314,2.09
	c5.224,1.045,9.404,3.135,13.584,5.224c2.09,1.045,3.135,2.09,5.224,3.135c5.224,3.135,10.449,7.314,14.629,11.494
	c2.09,2.09,4.18,5.224,6.269,7.314c1.045,2.09,3.135,3.135,4.18,5.225c4.18,6.269,7.314,13.584,9.404,19.853
	c1.045,2.09,1.045,5.224,2.09,7.314c1.045,5.224,2.09,10.449,2.09,16.718h40.751C371.984,264.359,360.49,233.012,336.457,210.024z"
	/>
<g>
</g>
<g>
</g>
<g>
</g>
<g>
</g>
<g>
</g>
<g>
</g>
<g>
</g>
<g>
</g>
<g>
</g>
<g>
</g>
<g>
</g>
<g>
</g>
<g>
</g>
<g>
</g>
<g>
</g>
</svg>
