<?xml version="1.0" encoding="iso-8859-1"?>
<!-- Generator: Adobe Illustrator 19.0.0, SVG Export Plug-In . SVG Version: 6.00 Build 0)  -->
<svg version="1.1" id="Layer_1" xmlns="http://www.w3.org/2000/svg" xmlns:xlink="http://www.w3.org/1999/xlink" x="0px" y="0px"
	 viewBox="0 0 501.551 501.551" style="enable-background:new 0 0 501.551 501.551;" xml:space="preserve">
<path style="fill:#40596B;" d="M484.833,16.718H20.898C9.404,16.718,0,26.122,0,37.616v321.829h501.551V33.437
	C501.551,24.033,494.237,16.718,484.833,16.718z"/>
<path style="fill:#F2F2F2;" d="M0,359.445v39.706c0,11.494,9.404,20.898,20.898,20.898h459.755c11.494,0,20.898-9.404,20.898-20.898
	v-39.706H0z"/>
<g>
	<circle style="fill:#CDD6E0;" cx="250.776" cy="389.747" r="11.494"/>
	<rect x="154.645" y="420.049" style="fill:#CDD6E0;" width="192.261" height="39.706"/>
</g>
<path style="fill:#F2F2F2;" d="M387.657,484.833H113.894v-4.18c0-11.494,9.404-20.898,20.898-20.898h230.922
	c11.494,0,20.898,9.404,20.898,20.898v4.18H387.657z"/>
<rect x="154.645" y="420.049" style="fill:#ACB3BA;" width="192.261" height="15.673"/>
<rect x="33.437" y="47.02" style="fill:#FFFFFF;" width="434.678" height="282.122"/>
<rect x="239.282" y="129.567" style="fill:#CDD6E0;" width="87.771" height="87.771"/>
<polygon style="fill:#FF7058;" points="191.216,141.061 153.6,201.665 228.833,201.665 "/>
<circle style="fill:#ACB3BA;" cx="268.539" cy="217.339" r="29.257"/>
<rect x="45.976" y="87.771" style="fill:#F2F2F2;" width="59.559" height="201.665"/>
<g>
	<rect x="51.2" y="101.355" style="fill:#CDD6E0;" width="21.943" height="21.943"/>
	<rect x="78.367" y="101.355" style="fill:#CDD6E0;" width="21.943" height="21.943"/>
	<rect x="51.2" y="131.657" style="fill:#CDD6E0;" width="21.943" height="21.943"/>
	<rect x="78.367" y="131.657" style="fill:#CDD6E0;" width="21.943" height="21.943"/>
	<rect x="51.2" y="161.959" style="fill:#CDD6E0;" width="21.943" height="21.943"/>
	<rect x="78.367" y="161.959" style="fill:#CDD6E0;" width="21.943" height="21.943"/>
	<rect x="51.2" y="192.261" style="fill:#CDD6E0;" width="21.943" height="21.943"/>
	<rect x="78.367" y="192.261" style="fill:#CDD6E0;" width="21.943" height="21.943"/>
	<rect x="51.2" y="222.563" style="fill:#CDD6E0;" width="21.943" height="21.943"/>
	<rect x="78.367" y="222.563" style="fill:#CDD6E0;" width="21.943" height="21.943"/>
	<rect x="51.2" y="253.91" style="fill:#CDD6E0;" width="21.943" height="21.943"/>
	<rect x="78.367" y="253.91" style="fill:#CDD6E0;" width="21.943" height="21.943"/>
</g>
<rect x="357.355" y="91.951" style="fill:#F2F2F2;" width="102.4" height="60.604"/>
<rect x="357.355" y="76.278" style="fill:#40596B;" width="102.4" height="15.673"/>
<g>
	<rect x="367.804" y="96.131" style="fill:#4CDBC4;" width="81.502" height="10.449"/>
	<rect x="367.804" y="130.612" style="fill:#4CDBC4;" width="81.502" height="17.763"/>
	<rect x="367.804" y="112.849" style="fill:#4CDBC4;" width="13.584" height="10.449"/>
	<rect x="389.747" y="112.849" style="fill:#4CDBC4;" width="13.584" height="10.449"/>
	<rect x="412.735" y="112.849" style="fill:#4CDBC4;" width="13.584" height="10.449"/>
	<rect x="435.722" y="112.849" style="fill:#4CDBC4;" width="13.584" height="10.449"/>
</g>
<rect x="357.355" y="187.037" style="fill:#F2F2F2;" width="102.4" height="60.604"/>
<rect x="357.355" y="171.363" style="fill:#40596B;" width="102.4" height="15.673"/>
<g>
	<rect x="367.804" y="192.261" style="fill:#4CDBC4;" width="81.502" height="10.449"/>
	<rect x="367.804" y="226.743" style="fill:#4CDBC4;" width="81.502" height="17.763"/>
	<rect x="367.804" y="208.98" style="fill:#4CDBC4;" width="13.584" height="10.449"/>
	<rect x="389.747" y="208.98" style="fill:#4CDBC4;" width="13.584" height="10.449"/>
	<rect x="412.735" y="208.98" style="fill:#4CDBC4;" width="13.584" height="10.449"/>
	<rect x="435.722" y="208.98" style="fill:#4CDBC4;" width="13.584" height="10.449"/>
</g>
<g>
</g>
<g>
</g>
<g>
</g>
<g>
</g>
<g>
</g>
<g>
</g>
<g>
</g>
<g>
</g>
<g>
</g>
<g>
</g>
<g>
</g>
<g>
</g>
<g>
</g>
<g>
</g>
<g>
</g>
</svg>
