<?xml version="1.0" encoding="iso-8859-1"?>
<!-- Generator: Adobe Illustrator 19.0.0, SVG Export Plug-In . SVG Version: 6.00 Build 0)  -->
<svg version="1.1" id="Layer_1" xmlns="http://www.w3.org/2000/svg" xmlns:xlink="http://www.w3.org/1999/xlink" x="0px" y="0px"
	 viewBox="0 0 501.551 501.551" style="enable-background:new 0 0 501.551 501.551;" xml:space="preserve">
<path style="fill:#334A5E;" d="M501.551,70.008c0-9.404-7.314-16.718-16.718-16.718H20.898C9.404,53.29,0,62.694,0,74.188V354.22
	h501.551V70.008z"/>
<path style="fill:#F2F2F2;" d="M0,353.176v39.706c0,11.494,9.404,20.898,20.898,20.898h459.755c11.494,0,20.898-9.404,20.898-20.898
	v-39.706H0z"/>
<g>
	<circle style="fill:#CDD6E0;" cx="250.776" cy="383.478" r="11.494"/>
	<rect x="154.645" y="413.78" style="fill:#CDD6E0;" width="192.261" height="55.38"/>
</g>
<rect x="154.645" y="413.78" style="fill:#ACB3BA;" width="192.261" height="15.673"/>
<polygon style="fill:#F2F2F2;" points="376.163,501.551 125.388,501.551 154.645,470.204 346.906,470.204 "/>
<rect x="33.437" y="83.592" style="fill:#84DBFF;" width="434.678" height="239.282"/>
<path style="fill:#FF7058;" d="M250.776,0c-42.841,0-77.322,34.482-77.322,77.322s77.322,163.004,77.322,163.004
	s77.322-120.163,77.322-163.004S293.616,0,250.776,0z"/>
<ellipse style="fill:#FFFFFF;" cx="250.776" cy="77.322" rx="42.841" ry="42.841"/>
<g>
</g>
<g>
</g>
<g>
</g>
<g>
</g>
<g>
</g>
<g>
</g>
<g>
</g>
<g>
</g>
<g>
</g>
<g>
</g>
<g>
</g>
<g>
</g>
<g>
</g>
<g>
</g>
<g>
</g>
</svg>
