<?xml version="1.0" encoding="iso-8859-1"?>
<!-- Generator: Adobe Illustrator 19.0.0, SVG Export Plug-In . SVG Version: 6.00 Build 0)  -->
<svg version="1.1" id="Layer_1" xmlns="http://www.w3.org/2000/svg" xmlns:xlink="http://www.w3.org/1999/xlink" x="0px" y="0px"
	 viewBox="0 0 501.551 501.551" style="enable-background:new 0 0 501.551 501.551;" xml:space="preserve">
<path style="fill:#40596B;" d="M480.653,90.906H20.898C9.404,90.906,0,100.31,0,111.804v298.841
	c0,11.494,9.404,20.898,20.898,20.898h459.755c11.494,0,20.898-9.404,20.898-20.898V111.804
	C501.551,100.31,492.147,90.906,480.653,90.906z"/>
<rect x="31.347" y="122.253" style="fill:#FFFFFF;" width="438.857" height="277.943"/>
<rect x="154.645" y="431.543" style="fill:#CDD6E0;" width="191.216" height="56.425"/>
<rect x="97.176" y="487.967" style="fill:#F2F2F2;" width="307.2" height="13.584"/>
<rect x="154.645" y="431.543" style="fill:#ACB3BA;" width="191.216" height="15.673"/>
<polygon style="fill:#E4EAEF;" points="435.722,122.253 415.869,400.196 85.682,400.196 65.829,122.253 "/>
<rect x="85.682" y="48.065" style="fill:#F2F2F2;" width="329.143" height="352.131"/>
<rect x="85.682" style="fill:#ACB3BA;" width="329.143" height="48.065"/>
<g>
	<circle style="fill:#F2F2F2;" cx="198.531" cy="24.033" r="13.584"/>
	<circle style="fill:#F2F2F2;" cx="154.645" cy="24.033" r="13.584"/>
	<circle style="fill:#F2F2F2;" cx="109.714" cy="24.033" r="13.584"/>
	<path style="fill:#F2F2F2;" d="M391.837,10.449H282.122c-7.314,0-13.584,6.269-13.584,13.584s6.269,13.584,13.584,13.584h109.714
		c7.314,0,13.584-6.269,13.584-13.584S399.151,10.449,391.837,10.449z"/>
</g>
<rect x="106.58" y="68.963" style="fill:#84DBFF;" width="127.478" height="145.241"/>
<g>
	<rect x="256" y="124.343" style="fill:#CDD6E0;" width="138.971" height="24.033"/>
	<rect x="256" y="181.812" style="fill:#CDD6E0;" width="138.971" height="24.033"/>
	<rect x="106.58" y="240.327" style="fill:#CDD6E0;" width="287.347" height="24.033"/>
	<rect x="106.58" y="297.796" style="fill:#CDD6E0;" width="287.347" height="24.033"/>
	<rect x="106.58" y="355.265" style="fill:#CDD6E0;" width="287.347" height="24.033"/>
</g>
<path style="fill:#FFFFFF;" d="M181.812,86.727h-22.988l-37.616,109.714h24.033l10.449-31.347h28.212l10.449,31.347h25.078
	L181.812,86.727z M163.004,144.196l7.314-21.943c0,0,0,0,0-1.045v1.045l7.314,21.943
	C177.633,144.196,163.004,144.196,163.004,144.196z"/>
<g>
</g>
<g>
</g>
<g>
</g>
<g>
</g>
<g>
</g>
<g>
</g>
<g>
</g>
<g>
</g>
<g>
</g>
<g>
</g>
<g>
</g>
<g>
</g>
<g>
</g>
<g>
</g>
<g>
</g>
</svg>
