<?xml version="1.0" encoding="iso-8859-1"?>
<!-- Generator: Adobe Illustrator 19.0.0, SVG Export Plug-In . SVG Version: 6.00 Build 0)  -->
<svg version="1.1" id="Layer_1" xmlns="http://www.w3.org/2000/svg" xmlns:xlink="http://www.w3.org/1999/xlink" x="0px" y="0px"
	 viewBox="0 0 507.82 507.82" style="enable-background:new 0 0 507.82 507.82;" xml:space="preserve">
<path style="fill:#CDD6E0;" d="M438.857,298.841v171.363c0,18.808,15.673,34.482,34.482,34.482
	c18.808,0,34.482-15.673,34.482-34.482V298.841H438.857z"/>
<path style="fill:#F2F2F2;" d="M438.857,470.204v-50.155v-99.265V34.482L407.51,3.135l-31.347,31.347L344.816,3.135l-31.347,31.347
	L282.122,3.135l-31.347,31.347L219.429,3.135l-31.347,31.347L156.735,3.135l-31.347,31.347L94.041,3.135L62.694,34.482L31.347,3.135
	L0,34.482v435.722c0,18.808,15.673,34.482,34.482,34.482h425.273v-1.045C450.351,500.506,438.857,486.922,438.857,470.204z"/>
<rect x="48.065" y="77.322" style="fill:#ACB3BA;" width="133.747" height="145.241"/>
<rect x="222.563" y="317.649" style="fill:#FFD15C;" width="174.498" height="145.241"/>
<g>
	<rect x="206.89" y="77.322" style="fill:#CDD6E0;" width="189.127" height="24.033"/>
	<rect x="206.89" y="136.882" style="fill:#CDD6E0;" width="189.127" height="24.033"/>
	<rect x="206.89" y="197.486" style="fill:#CDD6E0;" width="189.127" height="24.033"/>
	<rect x="48.065" y="258.09" style="fill:#CDD6E0;" width="348.996" height="24.033"/>
	<rect x="48.065" y="317.649" style="fill:#CDD6E0;" width="148.376" height="24.033"/>
	<rect x="48.065" y="378.253" style="fill:#CDD6E0;" width="148.376" height="24.033"/>
	<rect x="48.065" y="438.857" style="fill:#CDD6E0;" width="148.376" height="24.033"/>
</g>
<g>
</g>
<g>
</g>
<g>
</g>
<g>
</g>
<g>
</g>
<g>
</g>
<g>
</g>
<g>
</g>
<g>
</g>
<g>
</g>
<g>
</g>
<g>
</g>
<g>
</g>
<g>
</g>
<g>
</g>
</svg>
