<?xml version="1.0" encoding="iso-8859-1"?>
<!-- Generator: Adobe Illustrator 19.0.0, SVG Export Plug-In . SVG Version: 6.00 Build 0)  -->
<svg version="1.1" id="Layer_1" xmlns="http://www.w3.org/2000/svg" xmlns:xlink="http://www.w3.org/1999/xlink" x="0px" y="0px"
	 viewBox="0 0 501.551 501.551" style="enable-background:new 0 0 501.551 501.551;" xml:space="preserve">
<path style="fill:#FFD05C;" d="M442.514,60.604H60.082c-12.539,0-21.943,9.404-21.943,21.943v397.061
	c0,12.539,9.404,21.943,21.943,21.943h381.388c12.539,0,21.943-9.404,21.943-21.943V82.547
	C463.412,70.008,454.008,60.604,442.514,60.604z"/>
<path style="fill:#F2F2F2;" d="M429.975,97.176v356.31c0,8.359-6.269,14.629-14.629,14.629h-256L72.62,381.388V97.176
	c0-8.359,6.269-14.629,14.629-14.629h329.143C423.706,83.592,429.975,89.861,429.975,97.176z"/>
<path style="fill:#CDD6E0;" d="M159.347,402.286c0-12.539-9.404-21.943-21.943-21.943H72.62l86.727,86.727
	C159.347,467.069,159.347,402.286,159.347,402.286z"/>
<g>
	<path style="fill:#40596B;" d="M342.204,31.347h-24.033c-2.09-5.224-6.269-11.494-11.494-15.673C297.273,6.269,283.69,0,269.061,0
		h-37.616c-21.943,0-40.751,13.584-48.065,31.347h-24.033c-11.494,0-20.898,9.404-20.898,20.898v40.751
		c0,11.494,9.404,20.898,20.898,20.898h181.812c11.494,0,20.898-9.404,20.898-20.898V52.245
		C363.102,40.751,353.698,31.347,342.204,31.347z M251.298,57.469c-11.494,0-20.898-9.404-20.898-20.898s9.404-20.898,20.898-20.898
		s20.898,9.404,20.898,20.898S262.792,57.469,251.298,57.469z"/>
	<path style="fill:#40596B;" d="M323.396,347.951l-29.257-29.257c11.494-11.494,17.763-26.122,17.763-42.841
		c0-3.135,0-6.269-1.045-9.404l40.751-6.269C357.878,293.616,347.429,323.918,323.396,347.951z"/>
</g>
<path style="fill:#FFD15C;" d="M351.608,259.135l-39.706,7.314c-3.135-19.853-15.673-36.571-32.392-44.931l18.808-36.571
	C327.576,199.576,346.384,225.698,351.608,259.135z"/>
<path style="fill:#84DBFF;" d="M297.273,184.947l-18.808,36.571c-8.359-4.18-17.763-6.269-28.212-6.269s-19.853,2.09-28.212,6.269
	l-18.808-36.571C234.58,169.273,266.971,169.273,297.273,184.947z"/>
<path style="fill:#FF7058;" d="M323.396,347.951c-39.706,39.706-104.49,39.706-144.196,0s-39.706-104.49,0-144.196
	c8.359-8.359,15.673-13.584,26.122-18.808l18.808,36.571c-19.853,10.449-33.437,30.302-33.437,54.335
	c0,33.437,27.167,61.649,61.649,61.649c16.718,0,32.392-7.314,42.841-17.763L323.396,347.951z"/>
<g>
</g>
<g>
</g>
<g>
</g>
<g>
</g>
<g>
</g>
<g>
</g>
<g>
</g>
<g>
</g>
<g>
</g>
<g>
</g>
<g>
</g>
<g>
</g>
<g>
</g>
<g>
</g>
<g>
</g>
</svg>
