<?xml version="1.0" encoding="iso-8859-1"?>
<!-- Generator: Adobe Illustrator 19.0.0, SVG Export Plug-In . SVG Version: 6.00 Build 0)  -->
<svg version="1.1" id="Layer_1" xmlns="http://www.w3.org/2000/svg" xmlns:xlink="http://www.w3.org/1999/xlink" x="0px" y="0px"
	 viewBox="0 0 501.551 501.551" style="enable-background:new 0 0 501.551 501.551;" xml:space="preserve">
<path style="fill:#FFD15C;" d="M119.641,441.992V207.935c0-2.09,0-3.135-1.045-5.225c0-1.045-1.045-3.135-2.09-4.18l-2.09-3.135
	l-29.257-50.155l-19.853-34.482l-17.763,34.482l-29.257,50.155l-2.09,3.135c-1.045,1.045-1.045,2.09-2.09,4.18
	c0,1.045-1.045,3.135-1.045,5.225v235.102h106.58V441.992z"/>
<g>
	<path style="fill:#FF7058;" d="M119.641,441.992V207.935c0-2.09,0-3.135-1.045-5.225c0-1.045-1.045-3.135-2.09-4.18l-2.09-3.135
		H88.294v246.596L119.641,441.992L119.641,441.992z"/>
	<path style="fill:#FF7058;" d="M45.453,441.992V195.396H18.286l-2.09,3.135c-1.045,1.045-1.045,2.09-2.09,4.18
		c0,1.045-1.045,3.135-1.045,5.225v235.102h32.392V441.992z"/>
</g>
<polygon style="fill:#334A5E;" points="47.543,145.241 87.249,145.241 67.396,110.759 "/>
<rect x="45.453" y="195.396" style="fill:#F1543F;" width="42.841" height="246.596"/>
<path style="fill:#ACB3BA;" d="M467.592,55.38H168.751c-11.494,0-20.898,9.404-20.898,20.898v404.375
	c0,11.494,9.404,20.898,20.898,20.898h298.841c11.494,0,20.898-9.404,20.898-20.898V76.278
	C488.49,64.784,479.086,55.38,467.592,55.38z"/>
<rect x="174.08" y="81.042" style="fill:#F2F2F2;" width="288.392" height="393.927"/>
<path style="fill:#FF7058;" d="M382.955,35.527h-30.302C352.653,15.673,336.98,0,317.126,0S281.6,15.673,281.6,35.527h-30.302
	c-11.494,0-20.898,9.404-20.898,20.898v38.661h172.408V56.424C403.853,44.931,394.449,35.527,382.955,35.527z M318.171,44.931
	c-8.359,0-14.629-6.269-14.629-14.629s6.269-14.629,14.629-14.629c8.359,0,14.629,6.269,14.629,14.629
	S326.531,44.931,318.171,44.931z"/>
<rect x="194.873" y="114.939" style="fill:#84DBFF;" width="114.939" height="118.073"/>
<g>
	<rect x="332.8" y="153.6" style="fill:#CDD6E0;" width="108.669" height="24.033"/>
	<rect x="332.8" y="208.98" style="fill:#CDD6E0;" width="108.669" height="24.033"/>
	<rect x="194.873" y="264.359" style="fill:#CDD6E0;" width="246.596" height="24.033"/>
	<rect x="194.873" y="319.739" style="fill:#CDD6E0;" width="246.596" height="24.033"/>
</g>
<rect x="251.298" y="375.118" style="fill:#84DBFF;" width="190.171" height="24.033"/>
<rect x="251.298" y="430.498" style="fill:#54C0EB;" width="190.171" height="24.033"/>
<g>
	<path style="fill:#40596B;" d="M308.767,230.922v2.09H193.829v-2.09c2.09-1.045,4.18-2.09,6.269-3.135
		c10.449-4.18,24.033-10.449,30.302-14.629c1.045,0,1.045-1.045,2.09-1.045c0,0,1.045-11.494,1.045-12.539
		c0,0-6.269-9.404-9.404-17.763l0,0c-2.09,0-4.18-3.135-5.224-8.359s0-9.404,2.09-9.404l0,0
		c-1.045-10.449-1.045-39.706,31.347-39.706c32.392-1.045,32.392,28.212,31.347,39.706l0,0c2.09,0,3.135,5.224,2.09,9.404
		c-1.045,5.224-3.135,8.359-5.224,8.359l0,0c-2.09,8.359-9.404,17.763-9.404,17.763c0,1.045,1.045,12.539,1.045,12.539
		s1.045,1.045,2.09,1.045c5.224,4.18,19.853,10.449,30.302,14.629C304.588,227.788,306.678,228.833,308.767,230.922z"/>
	<path style="fill:#40596B;" d="M14.106,441.992v38.661c0,11.494,9.404,20.898,20.898,20.898h63.739
		c11.494,0,20.898-9.404,20.898-20.898v-38.661H14.106z"/>
</g>
<g>
</g>
<g>
</g>
<g>
</g>
<g>
</g>
<g>
</g>
<g>
</g>
<g>
</g>
<g>
</g>
<g>
</g>
<g>
</g>
<g>
</g>
<g>
</g>
<g>
</g>
<g>
</g>
<g>
</g>
</svg>
