<?xml version="1.0" encoding="iso-8859-1"?>
<!-- Generator: Adobe Illustrator 19.0.0, SVG Export Plug-In . SVG Version: 6.00 Build 0)  -->
<svg version="1.1" id="Layer_1" xmlns="http://www.w3.org/2000/svg" xmlns:xlink="http://www.w3.org/1999/xlink" x="0px" y="0px"
	 viewBox="0 0 501.551 501.551" style="enable-background:new 0 0 501.551 501.551;" xml:space="preserve">
<polygon style="fill:#FFD15C;" points="426.214,426.318 458.606,500.506 490.998,426.318 "/>
<polygon style="fill:#334A5E;" points="443.977,464.98 458.606,500.506 474.279,464.98 "/>
<rect x="426.214" y="156.735" style="fill:#FF7058;" width="63.739" height="269.584"/>
<path style="fill:#40596B;" d="M470.1,59.559h-21.943c-11.494,0-20.898,9.404-20.898,20.898v48.065h63.739V80.457
	C490.998,68.963,481.593,59.559,470.1,59.559z"/>
<rect x="427.468" y="128.522" style="fill:#F2F2F2;" width="63.739" height="28.212"/>
<path style="fill:#4CDBC4;" d="M384.418,58.514H31.242c-11.494,0-20.898,9.404-20.898,20.898v401.241
	c0,11.494,9.404,20.898,20.898,20.898h353.175c11.494,0,20.898-9.404,20.898-20.898V79.412
	C405.316,67.918,395.912,58.514,384.418,58.514z"/>
<rect x="36.833" y="84.762" style="fill:#F2F2F2;" width="342.727" height="390.792"/>
<path style="fill:#40596B;" d="M273.659,36.571h-29.257C244.402,16.718,227.683,0,207.83,0s-36.571,16.718-36.571,36.571h-29.257
	c-13.584,0-25.078,11.494-25.078,25.078v41.796h180.767V61.649C298.736,48.065,287.242,36.571,273.659,36.571z M207.83,49.11
	c-8.359,0-14.629-6.269-14.629-14.629s6.269-14.629,14.629-14.629c8.359,0,14.629,6.269,14.629,14.629
	C223.504,42.841,216.189,49.11,207.83,49.11z"/>
<g>
	<rect x="57.365" y="124.343" style="fill:#54C0EB;" width="59.559" height="59.559"/>
	<rect x="57.365" y="214.204" style="fill:#54C0EB;" width="59.559" height="59.559"/>
	<rect x="57.365" y="304.065" style="fill:#54C0EB;" width="59.559" height="59.559"/>
	<rect x="57.365" y="394.971" style="fill:#54C0EB;" width="59.559" height="59.559"/>
</g>
<g>
	<rect x="154.54" y="142.106" style="fill:#ACB3BA;" width="187.037" height="24.033"/>
	<rect x="154.54" y="231.967" style="fill:#ACB3BA;" width="187.037" height="24.033"/>
	<rect x="154.54" y="321.829" style="fill:#ACB3BA;" width="187.037" height="24.033"/>
	<rect x="154.54" y="412.735" style="fill:#ACB3BA;" width="187.037" height="24.033"/>
</g>
<g>
</g>
<g>
</g>
<g>
</g>
<g>
</g>
<g>
</g>
<g>
</g>
<g>
</g>
<g>
</g>
<g>
</g>
<g>
</g>
<g>
</g>
<g>
</g>
<g>
</g>
<g>
</g>
<g>
</g>
</svg>
