<?xml version="1.0" encoding="iso-8859-1"?>
<!-- Generator: Adobe Illustrator 19.0.0, SVG Export Plug-In . SVG Version: 6.00 Build 0)  -->
<svg version="1.1" id="Layer_1" xmlns="http://www.w3.org/2000/svg" xmlns:xlink="http://www.w3.org/1999/xlink" x="0px" y="0px"
	 viewBox="0 0 501.551 501.551" style="enable-background:new 0 0 501.551 501.551;" xml:space="preserve">
<path style="fill:#F2F2F2;" d="M20.898,147.331v333.322c0,11.494,9.404,20.898,20.898,20.898h417.959
	c11.494,0,20.898-9.404,20.898-20.898V147.331H20.898z"/>
<g>
	<path style="fill:#FFFFFF;" d="M253.91,239.282v49.11c-1.045,0-2.09,0-3.135,0c-1.045,0-2.09,0-3.135,0v-49.11L253.91,239.282
		L253.91,239.282z"/>
	<path style="fill:#FFFFFF;" d="M253.91,431.543v49.11h-5.224v-49.11c1.045,0,2.09,0,3.135,0S252.865,431.543,253.91,431.543z"/>
	<path style="fill:#FFFFFF;" d="M338.547,276.898l-34.482,34.482c-1.045-1.045-2.09-3.135-4.18-4.18l35.527-34.482L338.547,276.898z
		"/>
	<path style="fill:#FFFFFF;" d="M202.71,412.735l-35.527,34.482l-4.18-3.135l34.482-34.482
		C199.576,410.645,200.62,411.69,202.71,412.735z"/>
	<path style="fill:#FFFFFF;" d="M371.984,357.355v5.224h-49.11c0-1.045,0-2.09,0-2.09c0-1.045,0-2.09,0-3.135H371.984z"/>
	<path style="fill:#FFFFFF;" d="M179.722,360.49c0,1.045,0,2.09,0,2.09h-49.11v-5.224h49.11
		C179.722,358.4,179.722,359.445,179.722,360.49z"/>
	<path style="fill:#FFFFFF;" d="M338.547,444.082l-4.18,4.18l-35.527-35.527c1.045-1.045,3.135-2.09,4.18-4.18L338.547,444.082z"/>
	<path style="fill:#FFFFFF;" d="M202.71,308.245c-1.045,1.045-3.135,2.09-4.18,4.18l-35.527-35.527l4.18-4.18L202.71,308.245z"/>
	<path style="fill:#FFFFFF;" d="M225.698,293.616c-2.09,0-3.135,1.045-5.224,2.09l-11.494-28.212l5.224-2.09L225.698,293.616z"/>
	<path style="fill:#FFFFFF;" d="M292.571,453.486l-5.224,2.09l-11.494-28.212c2.09-1.045,3.135-1.045,5.224-2.09L292.571,453.486z"
		/>
	<path style="fill:#FFFFFF;" d="M185.992,331.233c-1.045,1.045-1.045,3.135-2.09,5.224l-28.212-11.494l2.09-5.224L185.992,331.233z"
		/>
	<path style="fill:#FFFFFF;" d="M345.861,397.061l-2.09,5.224l-28.212-11.494c1.045-1.045,1.045-3.135,2.09-5.224L345.861,397.061z"
		/>
	<path style="fill:#FFFFFF;" d="M185.992,389.747l-28.212,11.494l-2.09-5.224l28.212-11.494
		C183.902,386.612,184.947,388.702,185.992,389.747z"/>
	<path style="fill:#FFFFFF;" d="M345.861,323.918l-28.212,11.494c0-2.09-1.045-3.135-2.09-5.224l28.212-11.494L345.861,323.918z"/>
	<path style="fill:#FFFFFF;" d="M225.698,427.363l-11.494,28.212l-5.224-2.09l11.494-28.212
		C222.563,426.318,224.653,426.318,225.698,427.363z"/>
	<path style="fill:#FFFFFF;" d="M292.571,267.494l-11.494,28.212c-1.045-1.045-3.135-1.045-5.224-2.09l11.494-28.212
		L292.571,267.494z"/>
</g>
<path style="fill:#FFD15C;" d="M459.755,0H41.796C30.302,0,20.898,9.404,20.898,20.898v73.143h459.755V20.898
	C480.653,9.404,471.249,0,459.755,0z"/>
<polygon style="fill:#40596B;" points="343.771,343.771 368.849,432.588 391.837,410.645 413.78,432.588 433.633,412.735 
	411.69,390.792 433.633,368.849 "/>
<circle style="fill:#FF7058;" cx="193.306" cy="47.02" r="15.673"/>
<circle style="fill:#F2F2F2;" cx="132.702" cy="47.02" r="15.673"/>
<circle style="fill:#40596B;" cx="72.098" cy="47.02" r="15.673"/>
<path style="fill:#E4EAEF;" d="M480.653,157.78v61.649c-8.359,6.269-18.808,9.404-29.257,9.404
	c-28.212,0-50.155-21.943-50.155-50.155c0,27.167-22.988,50.155-50.155,50.155c-27.167,0-50.155-21.943-50.155-50.155
	c0,27.167-22.988,50.155-50.155,50.155s-50.155-21.943-50.155-50.155c0,27.167-21.943,50.155-50.155,50.155
	s-50.155-21.943-50.155-50.155c0,27.167-22.988,50.155-50.155,50.155c-11.494,0-20.898-3.135-29.257-9.404V157.78L480.653,157.78
	L480.653,157.78z"/>
<polygon style="fill:#FF7058;" points="100.31,147.331 0,147.331 20.898,94.041 112.849,94.041 "/>
<polygon style="fill:#CDD6E0;" points="200.62,147.331 100.31,147.331 112.849,94.041 204.8,94.041 "/>
<polygon style="fill:#FF7058;" points="300.931,147.331 200.62,147.331 204.8,94.041 296.751,94.041 "/>
<polygon style="fill:#CDD6E0;" points="401.241,147.331 300.931,147.331 296.751,94.041 388.702,94.041 "/>
<polygon style="fill:#FF7058;" points="501.551,147.331 401.241,147.331 388.702,94.041 480.653,94.041 "/>
<g>
	<path style="fill:#ACB3BA;" d="M100.31,169.273c0,28.212,21.943,50.155,50.155,50.155s50.155-21.943,50.155-50.155v-21.943H100.31
		V169.273z"/>
	<path style="fill:#ACB3BA;" d="M300.931,147.331v21.943c0,28.212,21.943,50.155,50.155,50.155s50.155-21.943,50.155-50.155v-21.943
		H300.931z"/>
</g>
<g>
	<path style="fill:#F1543F;" d="M0,169.273c0,28.212,21.943,50.155,50.155,50.155l0,0c28.212,0,50.155-21.943,50.155-50.155v-21.943
		H0V169.273z"/>
	<path style="fill:#F1543F;" d="M200.62,169.273c0,28.212,21.943,50.155,50.155,50.155s50.155-21.943,50.155-50.155v-21.943H200.62
		L200.62,169.273L200.62,169.273z"/>
	<path style="fill:#F1543F;" d="M401.241,147.331v21.943c0,28.212,21.943,50.155,50.155,50.155s50.155-21.943,50.155-50.155v-21.943
		H401.241z"/>
</g>
<circle style="fill:#FF7058;" cx="250.776" cy="360.49" r="78.367"/>
<g>
	<path style="fill:#FFFFFF;" d="M238.237,383.478l-3.135-9.404h60.604v-45.975h-72.098l-4.18-16.718h-20.898v7.314h15.673
		l18.808,72.098h64.784v-7.314H238.237z M288.392,336.457v30.302h-54.335l-8.359-30.302H288.392z"/>
	<circle style="fill:#FFFFFF;" cx="248.686" cy="406.465" r="9.404"/>
	<circle style="fill:#FFFFFF;" cx="283.167" cy="406.465" r="9.404"/>
</g>
<g>
</g>
<g>
</g>
<g>
</g>
<g>
</g>
<g>
</g>
<g>
</g>
<g>
</g>
<g>
</g>
<g>
</g>
<g>
</g>
<g>
</g>
<g>
</g>
<g>
</g>
<g>
</g>
<g>
</g>
</svg>
