<?xml version="1.0" encoding="iso-8859-1"?>
<!-- Generator: Adobe Illustrator 19.0.0, SVG Export Plug-In . SVG Version: 6.00 Build 0)  -->
<svg version="1.1" id="Layer_1" xmlns="http://www.w3.org/2000/svg" xmlns:xlink="http://www.w3.org/1999/xlink" x="0px" y="0px"
	 viewBox="0 0 501.551 501.551" style="enable-background:new 0 0 501.551 501.551;" xml:space="preserve">
<path style="fill:#40596B;" d="M480.653,79.412H20.898C9.404,79.412,0,88.816,0,100.31V409.6c0,11.494,9.404,20.898,20.898,20.898
	h459.755c11.494,0,20.898-9.404,20.898-20.898V100.31C501.551,88.816,492.147,79.412,480.653,79.412z"/>
<rect x="29.257" y="110.759" style="fill:#FFFFFF;" width="438.857" height="288.392"/>
<polygon style="fill:#F2F2F2;" points="468.114,110.759 468.114,399.151 29.257,399.151 "/>
<rect x="154.645" y="430.498" style="fill:#CDD6E0;" width="191.216" height="56.425"/>
<rect x="97.176" y="486.922" style="fill:#F2F2F2;" width="307.2" height="13.584"/>
<g>
	<rect x="154.645" y="430.498" style="fill:#ACB3BA;" width="191.216" height="15.673"/>
	<circle style="fill:#ACB3BA;" cx="250.776" cy="254.955" r="76.278"/>
</g>
<g>
	<path style="fill:#FFFFFF;" d="M233.012,273.763l-1.045-7.314h47.02v-35.527h-55.38l-3.135-13.584h-16.718v6.269h10.449
		l14.629,56.424h51.2v-6.269H233.012z M272.718,237.192v22.988h-41.796l-6.269-22.988H272.718z"/>
	<circle style="fill:#FFFFFF;" cx="237.192" cy="289.437" r="7.314"/>
	<circle style="fill:#FFFFFF;" cx="270.629" cy="289.437" r="7.314"/>
</g>
<path style="fill:#84DBFF;" d="M272.718,13.584V151.51c0,7.314-6.269,13.584-13.584,13.584H26.122
	c-7.314,0-13.584-6.269-13.584-13.584V13.584C12.539,6.269,18.808,0,26.122,0h233.012C266.449,0,272.718,6.269,272.718,13.584z"/>
<rect x="188.082" y="22.988" style="fill:#FF7058;" width="62.694" height="44.931"/>
<g>
	<rect x="34.482" y="37.616" style="fill:#54C0EB;" width="74.188" height="12.539"/>
	<rect x="34.482" y="83.592" style="fill:#54C0EB;" width="102.4" height="12.539"/>
</g>
<rect x="34.482" y="128.522" style="fill:#FFFFFF;" width="44.931" height="12.539"/>
<rect x="90.906" y="128.522" style="fill:#40596B;" width="44.931" height="12.539"/>
<rect x="148.376" y="128.522" style="fill:#FFFFFF;" width="44.931" height="12.539"/>
<rect x="205.845" y="128.522" style="fill:#40596B;" width="44.931" height="12.539"/>
<path style="fill:#FFD15C;" d="M12.539,331.233v159.869c0,6.269,4.18,10.449,10.449,10.449h138.971
	c6.269,0,10.449-4.18,10.449-10.449V331.233H12.539z"/>
<g>
	<circle style="fill:#FFFFFF;" cx="39.706" cy="366.759" r="9.404"/>
	<circle style="fill:#FFFFFF;" cx="145.241" cy="366.759" r="9.404"/>
</g>
<path style="fill:#FF7058;" d="M150.465,364.669h-10.449v-29.257c0-26.122-20.898-47.02-47.02-47.02s-47.02,20.898-47.02,47.02
	v29.257H35.527v-29.257c0-31.347,26.122-57.469,57.469-57.469s57.469,26.122,57.469,57.469V364.669z"/>
<g>
</g>
<g>
</g>
<g>
</g>
<g>
</g>
<g>
</g>
<g>
</g>
<g>
</g>
<g>
</g>
<g>
</g>
<g>
</g>
<g>
</g>
<g>
</g>
<g>
</g>
<g>
</g>
<g>
</g>
</svg>
