<?xml version="1.0" encoding="iso-8859-1"?>
<!-- Generator: Adobe Illustrator 19.0.0, SVG Export Plug-In . SVG Version: 6.00 Build 0)  -->
<svg version="1.1" id="Layer_1" xmlns="http://www.w3.org/2000/svg" xmlns:xlink="http://www.w3.org/1999/xlink" x="0px" y="0px"
	 viewBox="0 0 501.551 501.551" style="enable-background:new 0 0 501.551 501.551;" xml:space="preserve">
<path style="fill:#F2F2F2;" d="M250.776,478.563c-125.388,0-227.788-102.4-227.788-227.788s102.4-227.788,227.788-227.788
	s227.788,102.4,227.788,227.788S376.163,478.563,250.776,478.563z M250.776,45.976c-112.849,0-204.8,91.951-204.8,204.8
	s91.951,204.8,204.8,204.8s204.8-91.951,204.8-204.8S363.624,45.976,250.776,45.976z"/>
<g>
	<circle style="fill:#54C0EB;" cx="250.776" cy="34.482" r="34.482"/>
	<circle style="fill:#54C0EB;" cx="250.776" cy="467.069" r="34.482"/>
	<circle style="fill:#54C0EB;" cx="467.069" cy="250.776" r="34.482"/>
	<circle style="fill:#54C0EB;" cx="34.482" cy="250.776" r="34.482"/>
</g>
<path style="fill:#FF7058;" d="M356.31,217.339H145.241c-11.494,0-20.898,9.404-20.898,20.898v131.657
	c0,11.494,9.404,20.898,20.898,20.898h212.114c11.494,0,20.898-9.404,20.898-20.898V238.237
	C377.208,226.743,367.804,217.339,356.31,217.339z"/>
<path style="fill:#CDD6E0;" d="M185.992,217.339v-21.943c0-35.527,29.257-64.784,64.784-64.784s64.784,29.257,64.784,64.784v21.943
	h36.571v-21.943c0-55.38-44.931-101.355-101.355-101.355S149.42,138.971,149.42,195.396v21.943H185.992z"/>
<rect x="149.42" y="278.988" style="fill:#40596B;" width="202.71" height="49.11"/>
<g>
	<circle style="fill:#F2F2F2;" cx="311.38" cy="303.02" r="10.449"/>
	<circle style="fill:#F2F2F2;" cx="270.629" cy="303.02" r="10.449"/>
	<circle style="fill:#F2F2F2;" cx="230.922" cy="303.02" r="10.449"/>
	<circle style="fill:#F2F2F2;" cx="190.171" cy="303.02" r="10.449"/>
</g>
<g>
</g>
<g>
</g>
<g>
</g>
<g>
</g>
<g>
</g>
<g>
</g>
<g>
</g>
<g>
</g>
<g>
</g>
<g>
</g>
<g>
</g>
<g>
</g>
<g>
</g>
<g>
</g>
<g>
</g>
</svg>
