<?xml version="1.0" encoding="iso-8859-1"?>
<!-- Generator: Adobe Illustrator 19.0.0, SVG Export Plug-In . SVG Version: 6.00 Build 0)  -->
<svg version="1.1" id="Layer_1" xmlns="http://www.w3.org/2000/svg" xmlns:xlink="http://www.w3.org/1999/xlink" x="0px" y="0px"
	 viewBox="0 0 501.551 501.551" style="enable-background:new 0 0 501.551 501.551;" xml:space="preserve">
<path style="fill:#CDD6E0;" d="M0,332.278v169.273h501.551V332.278c0-37.616-30.302-66.873-67.918-66.873H67.918
	C30.302,264.359,0,294.661,0,332.278z"/>
<path style="fill:#40596B;" d="M408.555,490.057h-47.02c-5.224,0-9.404-3.135-10.449-8.359l-41.796-208.98
	c-9.404-45.976-3.135-101.355,17.763-159.869c2.09-5.224,3.135-11.494,4.18-17.763c1.045-17.763-5.224-35.527-17.763-49.11
	c-15.673-16.718-37.616-26.122-62.694-26.122c-24.033,0-47.02,9.404-62.694,26.122c-12.539,13.584-18.808,31.347-17.763,49.11
	c0,6.269,2.09,11.494,4.18,17.763c20.898,58.514,27.167,113.894,17.763,159.869l-41.796,208.98
	c-1.045,5.224-5.224,8.359-10.449,8.359H91.951v-20.898h39.706l40.751-200.62c8.359-41.796,2.09-92.996-17.763-148.375
	c-3.135-7.314-4.18-15.673-5.224-22.988c-1.045-24.033,7.314-45.976,24.033-64.784C192.261,11.494,220.473,0,250.776,0
	s58.514,11.494,77.322,32.392c16.718,17.763,25.078,40.751,24.033,64.784c0,8.359-2.09,15.673-5.224,22.988
	c-19.853,54.335-26.122,106.58-17.763,148.375l40.751,200.62h38.661L408.555,490.057L408.555,490.057z"/>
<g>
	<rect x="389.747" y="456.62" style="fill:#ACB3BA;" width="111.804" height="44.931"/>
	<rect y="456.62" style="fill:#ACB3BA;" width="111.804" height="44.931"/>
	<rect x="170.318" y="456.62" style="fill:#ACB3BA;" width="160.914" height="44.931"/>
</g>
<g>
</g>
<g>
</g>
<g>
</g>
<g>
</g>
<g>
</g>
<g>
</g>
<g>
</g>
<g>
</g>
<g>
</g>
<g>
</g>
<g>
</g>
<g>
</g>
<g>
</g>
<g>
</g>
<g>
</g>
</svg>
