<?xml version="1.0" encoding="iso-8859-1"?>
<!-- Generator: Adobe Illustrator 19.0.0, SVG Export Plug-In . SVG Version: 6.00 Build 0)  -->
<svg version="1.1" id="Layer_1" xmlns="http://www.w3.org/2000/svg" xmlns:xlink="http://www.w3.org/1999/xlink" x="0px" y="0px"
	 viewBox="0 0 501.551 501.551" style="enable-background:new 0 0 501.551 501.551;" xml:space="preserve">
<g>
	<path style="fill:#CDD5DF;" d="M501.551,295.706v86.727c0,65.829-53.29,119.118-119.118,119.118s-119.118-53.29-119.118-119.118
		v-86.727c0-11.494,1.045-21.943,4.18-32.392c1.045-6.269,3.135-11.494,6.269-16.718c18.808-40.751,59.559-68.963,107.625-68.963
		c32.392,0,62.694,13.584,83.592,34.482c9.404,9.404,17.763,20.898,24.033,33.437c2.09,5.224,5.224,10.449,6.269,16.718
		C499.461,272.718,501.551,284.212,501.551,295.706z"/>
	<path style="fill:#CDD5DF;" d="M490.057,245.551c-28.212,27.167-65.829,43.886-108.669,43.886
		c-41.796,0-79.412-16.718-107.624-42.841c18.808-40.751,59.559-68.963,107.624-68.963c32.392,0,62.694,13.584,83.592,34.482
		C476.473,221.518,484.833,233.012,490.057,245.551z"/>
</g>
<g>
	<rect x="374.073" y="176.588" style="fill:#F2F2F2;" width="16.718" height="121.208"/>
	<path style="fill:#F2F2F2;" d="M496.327,262.269c-30.302,27.167-70.008,43.886-114.939,43.886
		c-43.886,0-83.592-16.718-113.894-42.841c1.045-6.269,3.135-11.494,6.269-16.718c28.212,27.167,65.829,42.841,107.624,42.841
		s80.457-16.718,108.669-43.886C493.192,250.776,495.282,257.045,496.327,262.269z"/>
</g>
<path style="fill:#41596B;" d="M382.433,205.845c-9.404,0-16.718,7.314-16.718,16.718v31.347c0,9.404,7.314,16.718,16.718,16.718
	c9.404,0,16.718-7.314,16.718-16.718v-31.347C398.106,213.159,390.792,205.845,382.433,205.845z"/>
<path style="fill:#334A5E;" d="M156.735,283.167h-19.853c-29.257,0-52.245-22.988-52.245-52.245v-48.065h16.718v48.065
	c0,19.853,15.673,35.527,35.527,35.527h19.853c19.853,0,35.527-15.673,35.527-35.527v-63.739c0-29.257,22.988-52.245,52.245-52.245
	h100.31c25.078,0,44.931,20.898,44.931,44.931v17.763h-16.718v-17.763c0-15.673-12.539-28.212-28.212-28.212h-99.265
	c-19.853,0-35.527,15.673-35.527,35.527v63.739C210.024,259.135,185.992,283.167,156.735,283.167z"/>
<circle style="fill:#FFD15C;" cx="92.996" cy="92.996" r="92.996"/>
<circle style="fill:#F8B64C;" cx="92.996" cy="92.996" r="66.873"/>
<path style="fill:#FFD15C;" d="M88.816,122.253V96.131c-8.359-2.09-13.584-5.224-17.763-10.449
	c-4.18-4.18-5.224-10.449-5.224-16.718s2.09-12.539,6.269-16.718c4.18-4.18,9.404-7.314,16.718-8.359v-5.224h8.359v6.269
	c7.314,0,12.539,2.09,15.673,6.269c4.18,3.135,6.269,8.359,7.314,14.629l-15.673,2.09c0-5.224-3.135-8.359-7.314-10.449v24.033
	c9.404,3.135,16.718,6.269,19.853,10.449c3.135,4.18,5.224,9.404,5.224,16.718c0,7.314-2.09,13.584-6.269,18.808
	c-4.18,5.224-10.449,8.359-18.808,9.404v11.494h-8.359v-11.494c-7.314-1.045-12.539-3.135-16.718-8.359
	c-4.18-4.18-7.314-10.449-8.359-18.808l15.673-2.09c1.045,3.135,2.09,6.269,4.18,8.359
	C84.637,119.118,86.727,121.208,88.816,122.253z M88.816,57.469c-2.09,1.045-4.18,2.09-6.269,4.18c-1.045,2.09-2.09,4.18-2.09,6.269
	c0,2.09,1.045,4.18,2.09,6.269c1.045,2.09,3.135,3.135,6.269,4.18V57.469z M97.176,123.298c3.135-1.045,5.224-2.09,7.314-4.18
	c2.09-2.09,3.135-5.224,3.135-8.359s-1.045-5.224-2.09-7.314c-2.09-2.09-4.18-3.135-8.359-4.18V123.298z"/>
<g>
</g>
<g>
</g>
<g>
</g>
<g>
</g>
<g>
</g>
<g>
</g>
<g>
</g>
<g>
</g>
<g>
</g>
<g>
</g>
<g>
</g>
<g>
</g>
<g>
</g>
<g>
</g>
<g>
</g>
</svg>
