<?xml version="1.0" encoding="iso-8859-1"?>
<!-- Generator: Adobe Illustrator 19.0.0, SVG Export Plug-In . SVG Version: 6.00 Build 0)  -->
<svg version="1.1" id="Layer_1" xmlns="http://www.w3.org/2000/svg" xmlns:xlink="http://www.w3.org/1999/xlink" x="0px" y="0px"
	 viewBox="0 0 501.551 501.551" style="enable-background:new 0 0 501.551 501.551;" xml:space="preserve">
<path style="fill:#FFD15C;" d="M101.355,409.6l290.482-290.482l64.784,64.784L165.094,474.384c-1.045,1.045-2.09,2.09-3.135,2.09
	c-1.045,1.045-2.09,1.045-3.135,1.045l-3.135,1.045l-48.065,13.584l-33.437,9.404l9.404-33.437l13.584-48.065l1.045-3.135
	c0-1.045,1.045-2.09,1.045-3.135C99.265,411.69,100.31,410.645,101.355,409.6z"/>
<g>
	<path style="fill:#84DBFF;" d="M138.971,462.89l298.841-298.841l18.808,18.808L165.094,474.384c-1.045,1.045-2.09,2.09-3.135,2.09
		c-1.045,1.045-2.09,1.045-3.135,1.045l-3.135,1.045L138.971,462.89z"/>
	<path style="fill:#84DBFF;" d="M101.355,409.6l290.482-290.482l18.808,18.808L112.849,436.767l-16.718-16.718l1.045-3.135
		c0-1.045,1.045-2.09,1.045-3.135C99.265,411.69,100.31,410.645,101.355,409.6z"/>
</g>
<polygon style="fill:#334A5E;" points="82.547,468.114 106.58,492.147 74.188,501.551 "/>
<rect x="64.246" y="282.11" transform="matrix(-0.7071 0.7071 -0.7071 -0.7071 682.7694 319.0227)" style="fill:#54C0EB;" width="422.135" height="37.616"/>
<rect x="383.921" y="139.051" transform="matrix(-0.7071 -0.7071 0.7071 -0.7071 629.8605 552.5821)" style="fill:#F2F2F2;" width="90.905" height="13.584"/>
<path style="fill:#FFD15C;" d="M400.196,409.6L109.714,119.118l-64.784,63.739l291.527,291.527c1.045,1.045,2.09,2.09,3.135,2.09
	c1.045,1.045,2.09,1.045,3.135,1.045l3.135,1.045l48.065,13.584l33.437,9.404l-9.404-33.437l-13.584-48.065l-1.045-3.135
	c0-1.045-1.045-2.09-1.045-3.135C402.286,411.69,401.241,410.645,400.196,409.6z"/>
<g>
	<path style="fill:#84DBFF;" d="M362.58,462.89L63.739,164.049l-18.808,18.808l291.527,291.527c1.045,1.045,2.09,2.09,3.135,2.09
		c1.045,1.045,2.09,1.045,3.135,1.045l3.135,1.045L362.58,462.89z"/>
	<path style="fill:#84DBFF;" d="M400.196,409.6L109.714,119.118l-18.808,18.808l298.841,298.841l16.718-16.718l-1.045-3.135
		c0-1.045-1.045-2.09-1.045-3.135C402.286,411.69,401.241,410.645,400.196,409.6z"/>
</g>
<polygon style="fill:#334A5E;" points="419.004,468.114 394.971,492.147 427.363,501.551 "/>
<g>
	<path style="fill:#40596B;" d="M487.967,122.253l-35.527-35.527c-8.359-8.359-20.898-8.359-29.257,0l-21.943,21.943l64.784,64.784
		l21.943-21.943C496.327,144.196,496.327,130.612,487.967,122.253z"/>
	<path style="fill:#40596B;" d="M49.11,87.771l-35.527,35.527c-8.359,8.359-8.359,20.898,0,29.257l21.943,21.943l64.784-64.784
		L78.367,87.771C70.008,79.412,56.424,79.412,49.11,87.771z"/>
</g>
<rect x="207.558" y="88.815" transform="matrix(-0.7071 0.7071 -0.7071 -0.7071 598.48 351.8666)" style="fill:#54C0EB;" width="37.616" height="422.135"/>
<rect x="27.497" y="140.051" transform="matrix(0.7071 -0.7071 0.7071 0.7071 -82.467 94.5924)" style="fill:#F2F2F2;" width="90.905" height="13.584"/>
<circle style="fill:#FFD15C;" cx="250.776" cy="94.041" r="94.041"/>
<circle style="fill:#F8B64C;" cx="250.776" cy="94.041" r="77.322"/>
<path style="fill:#FFD15C;" d="M245.551,127.478V98.22c-9.404-3.135-15.673-6.269-19.853-11.494
	c-4.18-5.224-6.269-11.494-6.269-19.853c0-7.314,2.09-14.629,7.314-19.853s11.494-8.359,19.853-9.404v-6.269h10.449v7.314
	c7.314,1.045,13.584,3.135,17.763,7.314c4.18,4.18,7.314,9.404,8.359,16.718l-17.763,2.09c-1.045-5.224-4.18-9.404-8.359-11.494
	v27.167c11.494,3.135,18.808,7.314,22.988,11.494c4.18,5.224,6.269,11.494,6.269,18.808c0,8.359-2.09,15.673-7.314,21.943
	c-5.224,6.269-12.539,9.404-21.943,10.449v13.584h-10.449v-12.539c-8.359-1.045-14.629-4.18-19.853-9.404
	c-5.224-5.224-8.359-12.539-9.404-21.943l18.808-2.09c1.045,4.18,2.09,7.314,4.18,9.404
	C241.371,124.343,243.461,126.433,245.551,127.478z M245.551,53.29c-3.135,1.045-5.224,2.09-6.269,5.224
	c-2.09,2.09-2.09,5.224-2.09,7.314c0,2.09,1.045,5.224,2.09,7.314c1.045,2.09,3.135,3.135,6.269,5.224V53.29z M256,128.522
	c3.135-1.045,6.269-2.09,8.359-5.224c2.09-3.135,3.135-5.224,3.135-9.404c0-3.135-1.045-6.269-3.135-8.359
	c-2.09-2.09-5.224-4.18-9.404-5.224v28.212H256z"/>
<g>
</g>
<g>
</g>
<g>
</g>
<g>
</g>
<g>
</g>
<g>
</g>
<g>
</g>
<g>
</g>
<g>
</g>
<g>
</g>
<g>
</g>
<g>
</g>
<g>
</g>
<g>
</g>
<g>
</g>
</svg>
