<?xml version="1.0" encoding="iso-8859-1"?>
<!-- Generator: Adobe Illustrator 19.0.0, SVG Export Plug-In . SVG Version: 6.00 Build 0)  -->
<svg version="1.1" id="Layer_1" xmlns="http://www.w3.org/2000/svg" xmlns:xlink="http://www.w3.org/1999/xlink" x="0px" y="0px"
	 viewBox="0 0 501.551 501.551" style="enable-background:new 0 0 501.551 501.551;" xml:space="preserve">
<path style="fill:#F2F2F2;" d="M480.653,0H20.898C9.404,0,0,9.404,0,20.898v459.755c0,11.494,9.404,20.898,20.898,20.898h459.755
	c11.494,0,20.898-9.404,20.898-20.898V20.898C501.551,9.404,492.147,0,480.653,0z"/>
<rect y="146.286" style="fill:#54C0EB;" width="501.551" height="210.024"/>
<g>
	<rect y="121.208" style="fill:#84DBFF;" width="501.551" height="25.078"/>
	<rect y="355.265" style="fill:#84DBFF;" width="501.551" height="25.078"/>
</g>
<circle style="opacity:0.2;fill:#334A5E;enable-background:new    ;" cx="250.776" cy="261.224" r="176.588"/>
<circle style="fill:#FFFFFF;" cx="250.776" cy="250.776" r="176.588"/>
<path style="fill:#F2F2F2;" d="M250.776,401.241c-83.592,0-150.465-67.918-150.465-150.465c0-83.592,67.918-150.465,150.465-150.465
	c83.592,0,150.465,67.918,150.465,150.465C401.241,334.367,334.367,401.241,250.776,401.241z"/>
<path style="fill:#40596B;" d="M250.776,345.861c-52.245,0-95.086-42.841-95.086-95.086s42.841-95.086,95.086-95.086
	s95.086,42.841,95.086,95.086S303.02,345.861,250.776,345.861z"/>
<circle style="fill:#FFFFFF;" cx="207.935" cy="207.935" r="21.943"/>
<path style="fill:#FF7058;" d="M94.041,36.571H53.29c-7.314,0-12.539,5.224-12.539,12.539S47.02,61.649,53.29,61.649h40.751
	c7.314,0,12.539-6.269,12.539-12.539C107.624,41.796,101.355,36.571,94.041,36.571z"/>
<g>
</g>
<g>
</g>
<g>
</g>
<g>
</g>
<g>
</g>
<g>
</g>
<g>
</g>
<g>
</g>
<g>
</g>
<g>
</g>
<g>
</g>
<g>
</g>
<g>
</g>
<g>
</g>
<g>
</g>
</svg>
