<?xml version="1.0" encoding="iso-8859-1"?>
<!-- Generator: Adobe Illustrator 19.0.0, SVG Export Plug-In . SVG Version: 6.00 Build 0)  -->
<svg version="1.1" id="Layer_1" xmlns="http://www.w3.org/2000/svg" xmlns:xlink="http://www.w3.org/1999/xlink" x="0px" y="0px"
	 viewBox="0 0 501.551 501.551" style="enable-background:new 0 0 501.551 501.551;" xml:space="preserve">
<g>
	<path style="fill:#F1543F;" d="M485.616,269.584v10.449c0,6.269-4.18,10.449-10.449,10.449h-37.616v15.673h42.841
		c11.494,0,20.898-9.404,20.898-20.898v-15.673c0-4.18-3.135-8.359-8.359-8.359l0,0
		C488.751,261.224,485.616,264.359,485.616,269.584z"/>
	<path style="fill:#F1543F;" d="M206.629,463.935c-2.09,20.898-19.853,37.616-41.796,37.616h-1.045
		c-22.988,0-41.796-18.808-41.796-41.796v-24.033C147.069,449.306,176.327,458.71,206.629,463.935z"/>
</g>
<path style="fill:#40596B;" d="M71.837,199.576c26.122-14.629,54.335-24.033,80.457-27.167l-57.469-57.469
	c-17.763,17.763-26.122,39.706-26.122,62.694C69.747,183.902,70.792,192.261,71.837,199.576z"/>
<g>
	<path style="fill:#F1543F;" d="M11.233,254.955c-14.629,14.629-14.629,71.053,0,85.682c7.314,7.314,41.796,0,41.796,0v-85.682
		C51.984,254.955,18.547,247.641,11.233,254.955z"/>
	<path style="fill:#F1543F;" d="M374.857,435.722v24.033c0,22.988-18.808,41.796-41.796,41.796h-1.045
		c-21.943,0-39.706-16.718-41.796-37.616C321.567,458.71,349.78,449.306,374.857,435.722z"/>
</g>
<ellipse style="fill:#FF7058;" cx="248.424" cy="297.796" rx="219.429" ry="169.273"/>
<circle style="fill:#40596B;" cx="95.869" cy="250.776" r="12.539"/>
<path style="fill:#F1543F;" d="M317.388,171.363H180.506c-4.18,0-8.359,3.135-8.359,8.359l0,0c0,4.18,3.135,8.359,8.359,8.359
	h136.882c4.18,0,7.314-3.135,7.314-8.359l0,0C324.702,175.543,321.567,171.363,317.388,171.363z"/>
<circle style="fill:#FFD15C;" cx="248.424" cy="89.861" r="89.861"/>
<circle style="fill:#F8B64C;" cx="248.424" cy="89.861" r="67.918"/>
<path style="fill:#FFD15C;" d="M237.975,117.029c-2.09-2.09-3.135-5.224-4.18-9.404l-17.763,2.09
	c1.045,8.359,4.18,15.673,9.404,19.853c5.224,5.224,11.494,7.314,18.808,8.359v8.359h9.404v-9.404
	c8.359-1.045,15.673-4.18,19.853-10.449c5.224-5.224,7.314-12.539,7.314-19.853s-2.09-13.584-6.269-17.763
	c-4.18-4.18-11.494-8.359-21.943-11.494V53.29c4.18,2.09,7.314,5.224,8.359,10.449l16.718-2.09
	c-1.045-6.269-4.18-11.494-8.359-15.673c-4.18-4.18-9.404-6.269-16.718-7.314v-7.314H243.2v6.269
	c-7.314,1.045-13.584,3.135-18.808,8.359c-4.18,5.224-7.314,11.494-7.314,18.808s2.09,13.584,6.269,18.808
	c4.18,5.224,10.449,8.359,18.808,11.494v28.212C241.11,122.253,239.02,120.163,237.975,117.029z M253.649,98.22
	c4.18,1.045,7.314,3.135,8.359,5.224c1.045,2.09,3.135,5.224,3.135,7.314c0,3.135-1.045,6.269-3.135,8.359
	c-2.09,2.09-5.224,4.18-8.359,4.18V98.22z M237.975,71.053c-1.045-2.09-2.09-4.18-2.09-6.269c0-2.09,1.045-5.224,2.09-7.314
	s3.135-3.135,6.269-4.18v22.988C241.11,75.233,239.02,73.143,237.975,71.053z"/>
<g>
</g>
<g>
</g>
<g>
</g>
<g>
</g>
<g>
</g>
<g>
</g>
<g>
</g>
<g>
</g>
<g>
</g>
<g>
</g>
<g>
</g>
<g>
</g>
<g>
</g>
<g>
</g>
<g>
</g>
</svg>
