<?xml version="1.0" encoding="iso-8859-1"?>
<!-- Generator: Adobe Illustrator 19.0.0, SVG Export Plug-In . SVG Version: 6.00 Build 0)  -->
<svg version="1.1" id="Layer_1" xmlns="http://www.w3.org/2000/svg" xmlns:xlink="http://www.w3.org/1999/xlink" x="0px" y="0px"
	 viewBox="0 0 501.551 501.551" style="enable-background:new 0 0 501.551 501.551;" xml:space="preserve">
<path style="fill:#FF7058;" d="M454.531,203.755c0,112.849-203.755,297.796-203.755,297.796S47.02,316.604,47.02,203.755
	S137.927,0,250.776,0S454.531,90.906,454.531,203.755z"/>
<circle style="fill:#F2F2F2;" cx="250.776" cy="203.755" r="123.298"/>
<path style="fill:#40596B;" d="M328.098,212.114c0-3.135,0-5.224,0-8.359s0-5.224,0-8.359l15.673-10.449l-6.269-19.853h-18.808
	c-3.135-5.224-6.269-9.404-9.404-13.584l6.269-17.763l-17.763-12.539l-14.629,11.494c-5.225-2.09-10.449-4.18-15.673-5.224
	l-6.269-17.763h-20.898l-5.224,17.763c-5.224,1.045-11.494,3.135-16.718,5.224l-14.629-11.494l-16.718,12.539l6.269,17.763
	c-4.18,4.18-7.314,8.359-9.404,13.584h-18.808l-6.269,19.853l15.673,10.449c0,3.135,0,5.224,0,8.359s0,5.224,0,8.359l-15.673,10.449
	l6.269,19.853h18.808c3.135,5.224,6.269,9.404,9.404,13.584l-6.269,17.763l16.718,12.539l14.629-11.494
	c5.224,2.09,10.449,4.18,15.673,5.224l5.224,17.763h20.898l5.224-17.763c5.224-1.045,11.494-3.135,16.718-5.224l14.629,11.494
	l16.718-12.539L309.29,256c4.18-4.18,7.314-8.359,9.404-13.584h18.808l6.269-19.853L328.098,212.114z M250.776,245.551
	c-22.988,0-41.796-18.808-41.796-41.796s18.808-41.796,41.796-41.796s41.796,18.808,41.796,41.796S273.763,245.551,250.776,245.551z
	"/>
<g>
</g>
<g>
</g>
<g>
</g>
<g>
</g>
<g>
</g>
<g>
</g>
<g>
</g>
<g>
</g>
<g>
</g>
<g>
</g>
<g>
</g>
<g>
</g>
<g>
</g>
<g>
</g>
<g>
</g>
</svg>
