<?xml version="1.0" encoding="iso-8859-1"?>
<!-- Generator: Adobe Illustrator 19.0.0, SVG Export Plug-In . SVG Version: 6.00 Build 0)  -->
<svg version="1.1" id="Layer_1" xmlns="http://www.w3.org/2000/svg" xmlns:xlink="http://www.w3.org/1999/xlink" x="0px" y="0px"
	 viewBox="0 0 501.551 501.551" style="enable-background:new 0 0 501.551 501.551;" xml:space="preserve">
<path style="fill:#40596B;" d="M440.947,190.171c0,105.535-190.171,311.38-190.171,311.38S60.604,295.706,60.604,190.171
	S145.241,0,250.775,0S440.947,85.682,440.947,190.171z"/>
<path style="fill:#84DBFF;" d="M384.522,190.171c0,37.616-15.673,71.053-40.751,95.086c-24.033,22.988-57.469,37.616-92.996,37.616
	c-36.571,0-68.963-14.629-92.996-37.616c-25.078-24.033-40.751-57.469-40.751-95.086c0-73.143,59.559-132.702,133.747-132.702
	S384.522,117.029,384.522,190.171z"/>
<g>
	<circle style="fill:#FFFFFF;" cx="250.775" cy="173.453" r="53.29"/>
	<path style="fill:#FFFFFF;" d="M343.771,286.302c-24.033,22.988-57.469,37.616-92.996,37.616
		c-36.571,0-68.963-14.629-92.996-37.616c11.494-26.122,34.482-47.02,62.694-55.38c9.404,5.224,18.808,7.314,30.302,7.314
		c10.449,0,20.898-3.135,30.302-7.314C309.29,239.282,332.278,260.18,343.771,286.302z"/>
</g>
<g>
</g>
<g>
</g>
<g>
</g>
<g>
</g>
<g>
</g>
<g>
</g>
<g>
</g>
<g>
</g>
<g>
</g>
<g>
</g>
<g>
</g>
<g>
</g>
<g>
</g>
<g>
</g>
<g>
</g>
</svg>
