<?xml version="1.0" encoding="iso-8859-1"?>
<!-- Generator: Adobe Illustrator 19.0.0, SVG Export Plug-In . SVG Version: 6.00 Build 0)  -->
<svg version="1.1" id="Layer_1" xmlns="http://www.w3.org/2000/svg" xmlns:xlink="http://www.w3.org/1999/xlink" x="0px" y="0px"
	 viewBox="0 0 501.551 501.551" style="enable-background:new 0 0 501.551 501.551;" xml:space="preserve">
<path style="fill:#40596B;" d="M454.531,203.755c0,112.849-203.755,297.796-203.755,297.796S47.02,316.604,47.02,203.755
	S137.927,0,250.776,0S454.531,90.906,454.531,203.755z"/>
<path style="fill:#89D6F7;" d="M376.163,203.755c0,68.963-56.424,125.388-125.388,125.388s-125.388-56.424-125.388-125.388
	c0-26.122,7.314-49.11,20.898-68.963c1.045-2.09,2.09-4.18,4.18-5.224c17.763-24.033,44.931-41.796,76.278-48.065h1.045
	c7.314-2.09,14.629-3.135,22.988-3.135c3.135,0,6.269,0,9.404,0c4.18,0,7.314,1.045,11.494,1.045
	c51.2,8.359,91.951,48.065,102.4,98.22c0,1.045,0,2.09,1.045,4.18C375.118,189.127,376.163,196.441,376.163,203.755z"/>
<g>
	<path style="fill:#55BFE9;" d="M244.506,102.4c0,4.18-6.269,4.18-9.404,5.224s-5.224,3.135-7.314,5.224
		c-5.224,4.18-10.449,8.359-15.673,11.494c-6.269,3.135-14.629,5.224-18.808,0c14.629-6.269,25.078-18.808,30.302-33.437
		c-7.314,4.18-12.539,9.404-17.763,14.629c-6.269,5.224-14.629,10.449-20.898,15.673c-6.269,6.269-11.494,13.584-11.494,22.988
		c0-5.225-3.135-9.404-7.314-12.539c-4.18-3.135-9.404-4.18-14.629-4.18l0,0c17.763-24.033,44.931-41.796,76.278-48.065h1.045
		c1.045,6.269,5.224,12.539,11.494,15.673C241.371,98.22,244.506,99.265,244.506,102.4z"/>
	<path style="fill:#55BFE9;" d="M271.673,80.457c3.135,2.09,6.269,3.135,8.359,6.269c0,1.045,1.045,2.09,1.045,2.09
		c0,2.09-4.18,2.09-6.269,3.135c-3.135,2.09-2.09,7.314,1.045,9.404c3.135,2.09,7.314,2.09,10.449,4.18
		c1.045,1.045,3.135,2.09,2.09,3.135c0,1.045-1.045,1.045-1.045,2.09c-4.18,4.18-8.359,9.404-12.539,13.584
		c-1.045,1.045-2.09,2.09-3.135,3.135c-2.09,1.045-4.18,1.045-6.269,1.045c-8.359,0-17.763,1.045-19.853,9.404
		c0,2.09,0,4.18-2.09,5.224c-1.045,1.045-3.135,2.09-4.18,3.135c-1.045,2.09,1.045,5.225,1.045,8.359
		c1.045,4.18-4.18,8.359-8.359,7.314c0-5.224,0-9.404,0-14.629c0-1.045,0-2.09,0-2.09c0-1.045-1.045-1.045-2.09-1.045
		c-4.18-1.045-10.449-2.09-13.584,1.045c-3.135,3.135-2.09,9.404,1.045,13.584c2.09,4.18,6.269,8.359,6.269,12.539
		c0,2.09-1.045,5.224-3.135,5.224c-3.135,1.045-5.225-3.135-6.269-7.314c-4.18,9.404-6.269,19.853-4.18,29.257
		c-7.314,2.09-13.584,3.135-20.898,5.224c-2.09,1.045-5.225,1.045-7.314,3.135c-2.09,2.09-2.09,5.224-2.09,7.314
		c0,8.359,2.09,16.718,6.269,25.078c1.045,2.09,3.135,5.225,5.224,7.314c6.269,5.224,15.673,2.09,24.033,4.18
		c6.269,2.09,12.539,7.314,15.673,13.584c3.135,6.269,5.224,13.584,6.269,19.853c1.045,3.135,1.045,6.269,4.18,8.359
		c3.135,3.135,6.269,3.135,10.449,4.18c6.269,1.045,13.584,2.09,18.808-1.045c5.224-3.135,8.359-8.359,12.539-10.449
		c3.135-1.045,7.314-1.045,11.494-2.09c3.135-1.045,7.314-4.18,6.269-7.314c-1.045-3.135-5.224-6.269-4.18-9.404
		c1.045-2.09,3.135-3.135,6.269-4.18c10.449-3.135,15.673-16.718,10.449-27.167c-1.045-1.045-2.09-3.135-2.09-5.224
		c0-5.224,7.314-7.314,10.449-11.494c3.135-3.135,3.135-8.359,4.18-13.584c0-5.224,2.09-10.449,7.314-11.494
		c4.18-1.045,9.404,2.09,11.494,6.269c3.135,4.18,5.224,8.359,8.359,10.449c0-8.359,0-16.718,0-25.078c0-3.135,0-6.269,2.09-8.359
		c3.135-4.18,9.404-3.135,14.629-2.09c2.09,0,3.135,1.045,5.224,0C363.624,128.522,322.873,88.816,271.673,80.457z M295.706,161.959
		L295.706,161.959c2.09,0,3.135,0,4.18,0c-1.045,3.135,0,6.269,2.09,8.359c1.045,1.045,2.09,2.09,3.135,3.135
		c2.09,2.09,3.135,6.269,2.09,9.404c-3.135,0-5.224,0-8.359,0c-2.09-1.045-5.224-2.09-6.269-5.224
		c-1.045-1.045-1.045-3.135-1.045-5.224C292.571,168.229,292.571,164.049,295.706,161.959z M259.135,204.8
		c-4.18-1.045-7.314-3.135-11.494-5.224c-5.224-3.135-11.494-4.18-17.763-4.18c-2.09,0-4.18,0-6.269,0
		c-2.09-1.045-4.18-2.09-4.18-4.18c-1.045-2.09,1.045-5.224,3.135-7.314c2.09-1.045,5.224-2.09,7.314-4.18v-4.18
		c5.224,5.224,10.449,8.359,16.718,11.494c3.135,1.045,6.269,2.09,9.404,2.09c3.135,0,7.314,0,10.449,0c1.045,0,2.09,0,3.135,0
		c2.09,0,4.18,0,7.314-1.045c3.135,0,5.225,0,8.359-2.09c1.045,3.135-1.045,7.314-3.135,9.404c-2.09,2.09-5.225,4.18-9.404,5.224
		C268.539,203.755,264.359,205.845,259.135,204.8z M307.2,229.878c0,1.045-1.045,1.045-1.045,2.09c0,0-1.045,0-2.09,0
		c-5.224,1.045-11.494,1.045-15.673-2.09c-2.09-1.045-3.135-4.18-4.18-6.269c-2.09-3.135-3.135-5.224-5.224-8.359
		s-3.135-6.269-2.09-9.404c2.09,0,5.225,0,7.314,0l1.045,1.045c-1.045,2.09,0,4.18,2.09,6.269c1.045,1.045,3.135,2.09,5.224,3.135
		c2.09,1.045,3.135,1.045,5.224,2.09c2.09,1.045,5.225,2.09,7.314,4.18S308.245,226.743,307.2,229.878z M316.604,202.71
		c0,0-1.045,1.045-2.09,1.045c-5.224,2.09-11.494-2.09-11.494-7.314l1.045-1.045c4.18,0,7.314,0,11.494,0c1.045,0,1.045,0,2.09,0
		c0,0,1.045,1.045,1.045,2.09C317.649,199.576,317.649,201.665,316.604,202.71z"/>
</g>
<g>
</g>
<g>
</g>
<g>
</g>
<g>
</g>
<g>
</g>
<g>
</g>
<g>
</g>
<g>
</g>
<g>
</g>
<g>
</g>
<g>
</g>
<g>
</g>
<g>
</g>
<g>
</g>
<g>
</g>
</svg>
