<?xml version="1.0" encoding="iso-8859-1"?>
<!-- Generator: Adobe Illustrator 19.0.0, SVG Export Plug-In . SVG Version: 6.00 Build 0)  -->
<svg version="1.1" id="Layer_1" xmlns="http://www.w3.org/2000/svg" xmlns:xlink="http://www.w3.org/1999/xlink" x="0px" y="0px"
	 viewBox="0 0 501.551 501.551" style="enable-background:new 0 0 501.551 501.551;" xml:space="preserve">
<path style="fill:#334A5E;" d="M0,337.502v61.649c0,11.494,9.404,20.898,20.898,20.898h459.755c11.494,0,20.898-9.404,20.898-20.898
	v-61.649H0z"/>
<path style="fill:#40596B;" d="M480.653,81.502H20.898C9.404,81.502,0,90.906,0,102.4v234.057h501.551V102.4
	C501.551,90.906,492.147,81.502,480.653,81.502z"/>
<g>
	<rect x="82.547" y="62.694" style="fill:#ACB3BA;" width="337.502" height="19.853"/>
	<rect x="82.547" y="337.502" style="fill:#ACB3BA;" width="337.502" height="19.853"/>
</g>
<path style="fill:#F2F2F2;" d="M385.567,0H115.984C104.49,0,95.086,9.404,95.086,20.898v60.604H407.51V20.898
	C406.465,9.404,397.061,0,385.567,0z"/>
<circle style="fill:#FF7058;" cx="396.016" cy="145.241" r="18.808"/>
<circle style="fill:#FFD15C;" cx="457.665" cy="145.241" r="18.808"/>
<path style="fill:#F2F2F2;" d="M95.086,337.502v143.151c0,11.494,9.404,20.898,20.898,20.898h231.967l59.559-59.559v-104.49H95.086z
	"/>
<g>
	<path style="fill:#CDD6E0;" d="M406.465,441.992h-38.661c-11.494,0-20.898,9.404-20.898,20.898v38.661L406.465,441.992z"/>
	<rect x="115.984" y="369.894" style="fill:#CDD6E0;" width="89.861" height="110.759"/>
</g>
<g>
	<rect x="227.788" y="456.62" style="fill:#4CDBC4;" width="94.041" height="24.033"/>
	<rect x="227.788" y="412.735" style="fill:#4CDBC4;" width="158.824" height="24.033"/>
	<rect x="227.788" y="369.894" style="fill:#4CDBC4;" width="158.824" height="24.033"/>
</g>
<g>
</g>
<g>
</g>
<g>
</g>
<g>
</g>
<g>
</g>
<g>
</g>
<g>
</g>
<g>
</g>
<g>
</g>
<g>
</g>
<g>
</g>
<g>
</g>
<g>
</g>
<g>
</g>
<g>
</g>
</svg>
