<?xml version="1.0" encoding="iso-8859-1"?>
<!-- Generator: Adobe Illustrator 19.0.0, SVG Export Plug-In . SVG Version: 6.00 Build 0)  -->
<svg version="1.1" id="Layer_1" xmlns="http://www.w3.org/2000/svg" xmlns:xlink="http://www.w3.org/1999/xlink" x="0px" y="0px"
	 viewBox="0 0 501.551 501.551" style="enable-background:new 0 0 501.551 501.551;" xml:space="preserve">
<path style="fill:#40596B;" d="M480.653,80.457H20.898C9.404,80.457,0,89.861,0,101.355V409.6c0,11.494,9.404,20.898,20.898,20.898
	h459.755c11.494,0,20.898-9.404,20.898-20.898V101.355C501.551,89.861,492.147,80.457,480.653,80.457z"/>
<rect x="31.347" y="111.804" style="fill:#FFFFFF;" width="438.857" height="257.045"/>
<rect x="154.645" y="431.543" style="fill:#CDD6E0;" width="191.216" height="56.425"/>
<rect x="97.176" y="487.967" style="fill:#F2F2F2;" width="307.2" height="13.584"/>
<rect x="154.645" y="431.543" style="fill:#ACB3BA;" width="191.216" height="15.673"/>
<path style="fill:#334A5E;" d="M478.563,305.11H368.849c-6.269,0-10.449,4.18-10.449,10.449v175.543
	c0,6.269,4.18,10.449,10.449,10.449h109.714c6.269,0,10.449-4.18,10.449-10.449V315.559
	C489.012,310.335,484.833,305.11,478.563,305.11z"/>
<rect x="374.387" y="333.855" style="fill:#FFFFFF;" width="99.265" height="133.747"/>
<polygon style="fill:#F2F2F2;" points="374.073,467.069 473.339,333.322 473.339,467.069 "/>
<g>
	<path style="fill:#4CDBC4;" d="M439.902,314.514H407.51c-1.045,0-2.09,1.045-2.09,2.09s1.045,2.09,2.09,2.09h32.392
		c1.045,0,2.09-1.045,2.09-2.09S440.947,314.514,439.902,314.514z"/>
	<circle style="fill:#4CDBC4;" cx="423.184" cy="481.698" r="7.314"/>
</g>
<ellipse style="fill:#F2F2F2;" cx="250.776" cy="400.196" rx="12.539" ry="12.539"/>
<path style="fill:#84DBFF;" d="M371.984,87.771c0-2.09,0-4.18,0-6.269C371.984,36.571,335.412,0,290.482,0
	c-26.122,0-49.11,12.539-64.784,31.347c-5.224-1.045-11.494-2.09-16.718-2.09c-32.392,0-59.559,22.988-65.829,53.29
	c-19.853,4.18-34.482,21.943-34.482,43.886c0,25.078,19.853,44.931,44.931,44.931h195.396c25.078,0,44.931-19.853,44.931-44.931
	C392.882,109.714,384.522,96.131,371.984,87.771z"/>
<path style="fill:#40596B;" d="M351.086,194.351v-33.437l-16.718-6.269c-2.09-7.314-4.18-13.584-8.359-19.853l7.314-15.673
	L309.29,95.086l-15.673,7.314c-6.269-3.135-12.539-6.269-19.853-8.359l-6.269-16.718h-33.437l-6.269,16.718
	c-7.314,2.09-13.584,4.18-19.853,8.359l-15.673-7.314l-24.033,24.033l7.314,15.673c-3.135,6.269-6.269,12.539-8.359,19.853
	l-16.718,6.269v33.437l16.718,6.269c2.09,7.314,4.18,13.584,8.359,19.853l-7.314,15.673l24.033,24.033l15.673-7.314
	c6.269,3.135,12.539,6.269,19.853,8.359l6.269,16.718h33.437l6.269-16.718c7.314-2.09,13.584-4.18,19.853-8.359l15.673,7.314
	l24.033-24.033l-7.314-15.673c3.135-6.269,6.269-12.539,8.359-19.853L351.086,194.351z M291.527,177.633
	c0,22.988-18.808,40.751-40.751,40.751c-22.988,0-40.751-17.763-40.751-40.751s18.808-40.751,40.751-40.751
	C273.763,136.882,291.527,154.645,291.527,177.633z"/>
<path style="fill:#FF7058;" d="M294.661,133.747c-24.033-24.033-62.694-24.033-86.727,0s-24.033,62.694,0,86.727
	c24.033,24.033,62.694,24.033,86.727,0C318.694,197.486,318.694,157.78,294.661,133.747z M280.033,206.89
	c-15.673,15.673-41.796,15.673-57.469,0s-15.673-41.796,0-57.469s41.796-15.673,57.469,0
	C295.706,165.094,295.706,190.171,280.033,206.89z"/>
<g>
</g>
<g>
</g>
<g>
</g>
<g>
</g>
<g>
</g>
<g>
</g>
<g>
</g>
<g>
</g>
<g>
</g>
<g>
</g>
<g>
</g>
<g>
</g>
<g>
</g>
<g>
</g>
<g>
</g>
</svg>
