<?xml version="1.0" encoding="iso-8859-1"?>
<!-- Generator: Adobe Illustrator 19.0.0, SVG Export Plug-In . SVG Version: 6.00 Build 0)  -->
<svg version="1.1" id="Layer_1" xmlns="http://www.w3.org/2000/svg" xmlns:xlink="http://www.w3.org/1999/xlink" x="0px" y="0px"
	 viewBox="0 0 502.596 502.596" style="enable-background:new 0 0 502.596 502.596;" xml:space="preserve">
<path style="fill:#F2F2F2;" d="M479.608,408.555H21.943C10.449,408.555,0,417.959,0,430.498c0,11.494,9.404,21.943,21.943,21.943
	h458.71c11.494,0,21.943-9.404,21.943-21.943C501.551,419.004,492.147,408.555,479.608,408.555z"/>
<path style="fill:#CDD6E0;" d="M454.531,452.441l-21.943,15.673l-13.584,10.449c-3.135,2.09-8.359,4.18-12.539,4.18H94.041
	c-4.18,0-8.359-1.045-12.539-4.18l-13.584-10.449L47.02,452.441H454.531z"/>
<polygon style="fill:#B8CAD8;" points="454.531,452.441 432.588,468.114 68.963,468.114 47.02,452.441 "/>
<path style="fill:#40596B;" d="M451.396,79.412H50.155c-11.494,0-20.898,9.404-20.898,20.898v308.245h444.082V100.31
	C472.294,88.816,463.935,79.412,451.396,79.412z"/>
<rect x="55.171" y="105.336" style="fill:#FFFFFF;" width="391.837" height="276.898"/>
<path style="fill:#CDD6E0;" d="M216.294,226.743v-18.808c0-18.808,15.673-34.482,34.482-34.482
	c18.808,0,34.482,15.673,34.482,34.482v18.808h19.853v-18.808c0-30.302-25.078-55.38-55.38-55.38s-55.38,25.078-55.38,55.38v18.808
	H216.294z"/>
<path style="fill:#F1543F;" d="M306.155,225.698H195.396c-11.494,0-20.898,9.404-20.898,20.898v67.918
	c0,11.494,9.404,20.898,20.898,20.898H305.11c11.494,0,20.898-9.404,20.898-20.898v-67.918
	C327.053,235.102,317.649,225.698,306.155,225.698z"/>
<rect x="206.89" y="268.539" style="fill:#F2F2F2;" width="86.727" height="24.033"/>
<g>
	<circle style="fill:#40596B;" cx="221.518" cy="281.078" r="6.269"/>
	<circle style="fill:#40596B;" cx="241.371" cy="281.078" r="6.269"/>
	<circle style="fill:#40596B;" cx="260.18" cy="281.078" r="6.269"/>
	<circle style="fill:#40596B;" cx="280.033" cy="281.078" r="6.269"/>
</g>
<path style="fill:#334A5E;" d="M490.057,19.853H370.939c-6.269,0-11.494,5.224-11.494,11.494v202.71
	c0,6.269,5.224,11.494,11.494,11.494h119.118c6.269,0,11.494-5.225,11.494-11.494V31.347
	C501.551,25.078,496.327,19.853,490.057,19.853z"/>
<rect x="359.863" y="41.796" style="fill:#89D6F7;" width="142.106" height="169.273"/>
<g>
	<circle style="fill:#4CDBC4;" cx="430.498" cy="227.788" r="9.404"/>
	<path style="fill:#4CDBC4;" d="M446.171,28.212h-31.347c-1.045,0-3.135,1.045-3.135,3.135l0,0c0,1.045,1.045,3.135,3.135,3.135
		h31.347c1.045,0,3.135-1.045,3.135-3.135l0,0C449.306,29.257,448.261,28.212,446.171,28.212z"/>
</g>
<g>
</g>
<g>
</g>
<g>
</g>
<g>
</g>
<g>
</g>
<g>
</g>
<g>
</g>
<g>
</g>
<g>
</g>
<g>
</g>
<g>
</g>
<g>
</g>
<g>
</g>
<g>
</g>
<g>
</g>
</svg>
