<?xml version="1.0" encoding="iso-8859-1"?>
<!-- Generator: Adobe Illustrator 19.0.0, SVG Export Plug-In . SVG Version: 6.00 Build 0)  -->
<svg version="1.1" id="Layer_1" xmlns="http://www.w3.org/2000/svg" xmlns:xlink="http://www.w3.org/1999/xlink" x="0px" y="0px"
	 viewBox="0 0 501.551 501.551" style="enable-background:new 0 0 501.551 501.551;" xml:space="preserve">
<path style="fill:#40596B;" d="M480.653,0H20.898C9.404,0,0,9.404,0,20.898v425.273c0,11.494,9.404,20.898,20.898,20.898h459.755
	c11.494,0,20.898-9.404,20.898-20.898V20.898C501.551,9.404,492.147,0,480.653,0z"/>
<rect x="36.989" y="36.958" style="fill:#ACB3BA;" width="428.408" height="393.927"/>
<g>
	<rect x="41.796" y="467.069" style="fill:#334A5E;" width="73.143" height="34.482"/>
	<rect x="386.612" y="467.069" style="fill:#334A5E;" width="73.143" height="34.482"/>
	<path style="fill:#334A5E;" d="M280.033,225.698h-17.763c-1.045-13.584-6.269-25.078-14.629-34.482l0,0l12.539-12.539
		c2.09-2.09,2.09-4.18,2.09-6.269c0-2.09-1.045-4.18-2.09-6.269c-3.135-3.135-8.359-3.135-11.494,0l-12.539,12.539
		c-9.404-7.314-20.898-12.539-34.482-14.629v-17.763c0-4.18-3.135-8.359-8.359-8.359c-4.18,0-8.359,3.135-8.359,8.359v17.763
		c-13.584,1.045-25.078,7.314-35.527,14.629c0,0,0,0,1.045-1.045l-12.539-12.539c-3.135-3.135-8.359-3.135-11.494,0
		c-3.135,3.135-3.135,8.359,0,11.494l12.539,12.539l0,0c-7.314,9.404-12.539,21.943-14.629,34.482l0,0H106.58
		c-4.18,0-8.359,3.135-8.359,8.359c0,4.18,4.18,8.359,8.359,8.359h17.763l0,0c1.045,13.584,6.269,25.078,14.629,34.482l0,0
		l-12.539,12.539c-3.135,3.135-3.135,8.359,0,11.494c3.135,3.135,8.359,3.135,11.494,0l13.584-11.494l0,0
		c9.404,7.314,21.943,12.539,34.482,14.629l0,0v16.718c0,4.18,4.18,8.359,8.359,8.359c4.18,0,8.359-3.135,8.359-8.359v-17.763l0,0
		c12.539-1.045,25.078-6.269,34.482-14.629l0,0l12.539,12.539c2.09,2.09,4.18,2.09,6.269,2.09c2.09,0,4.18-1.045,6.269-2.09
		c3.135-3.135,3.135-8.359,0-11.494l-12.539-12.539c0,0,0,0,0,1.045c8.359-9.404,13.584-21.943,14.629-34.482h17.763
		c4.18,0,8.359-3.135,8.359-8.359C287.347,228.833,284.212,225.698,280.033,225.698z M194.351,280.033
		c-26.122,0-47.02-20.898-47.02-47.02s20.898-47.02,47.02-47.02s47.02,20.898,47.02,47.02S220.473,280.033,194.351,280.033z"/>
	<rect x="406.465" y="140.016" style="fill:#334A5E;" width="22.988" height="187.037"/>
</g>
<g>
</g>
<g>
</g>
<g>
</g>
<g>
</g>
<g>
</g>
<g>
</g>
<g>
</g>
<g>
</g>
<g>
</g>
<g>
</g>
<g>
</g>
<g>
</g>
<g>
</g>
<g>
</g>
<g>
</g>
</svg>
