<?xml version="1.0" encoding="iso-8859-1"?>
<!-- Generator: Adobe Illustrator 19.0.0, SVG Export Plug-In . SVG Version: 6.00 Build 0)  -->
<svg version="1.1" id="Layer_1" xmlns="http://www.w3.org/2000/svg" xmlns:xlink="http://www.w3.org/1999/xlink" x="0px" y="0px"
	 viewBox="0 0 500.506 500.506" style="enable-background:new 0 0 500.506 500.506;" xml:space="preserve">
<path style="fill:#F2F2F2;" d="M427.363,234.057c1.045-6.269,1.045-12.539,1.045-18.808c0-6.269,0-13.584-1.045-19.853
	l35.527-25.078l-14.629-45.976l-42.841,1.045c-6.269-11.494-13.584-20.898-21.943-30.302l14.629-40.751L358.4,26.122l-34.482,26.122
	c-11.494-5.224-24.033-9.404-36.571-11.494L274.808,0h-48.065l-13.584,39.706c-12.539,3.135-25.078,7.314-37.616,12.539
	l-34.482-26.122L102.4,54.335l14.629,40.751c-8.359,9.404-15.673,19.853-21.943,30.302l-42.841-1.045l-14.629,45.975l35.527,24.033
	c-1.045,6.269-1.045,12.539-1.045,18.808c0,6.269,0,13.584,1.045,19.853L37.616,258.09l14.629,45.975l42.841-1.045
	c6.269,11.494,13.584,20.898,21.943,30.302L102.4,374.073l39.706,28.212l34.482-26.122c11.494,5.224,24.033,9.404,36.571,11.494
	l12.539,40.751h48.065l12.539-40.751c12.539-3.135,25.078-7.314,37.616-12.539l34.482,26.122l38.661-28.212l-14.629-40.751
	c8.359-9.404,15.673-19.853,21.943-30.302l42.841,1.045l14.629-45.975L427.363,234.057z"/>
<rect x="221.518" y="357.355" style="fill:#FF7058;" width="56.424" height="48.065"/>
<path style="fill:#FFD05C;" d="M309.29,500.506H190.171V411.69c0-11.494,9.404-20.898,20.898-20.898h76.278
	c11.494,0,20.898,9.404,20.898,20.898v88.816H309.29z"/>
<path style="fill:#F1543F;" d="M277.943,357.355v22.988c-9.404,2.09-18.808,2.09-28.212,2.09c-9.404,0-18.808-1.045-28.212-2.09
	v-22.988H277.943z"/>
<path style="fill:#40596B;" d="M357.355,322.873c59.559-59.559,59.559-155.69,0-215.249s-155.69-59.559-215.249,0
	s-59.559,155.69,0,215.249C201.665,381.388,297.796,381.388,357.355,322.873z"/>
<ellipse style="fill:#84DBFF;" cx="249.871" cy="215.192" rx="107.623" ry="107.623"/>
<path style="fill:#FFFFFF;" d="M173.453,230.922c-5.224,0-10.449-4.18-10.449-9.404c-1.045-22.988,6.269-44.931,20.898-62.694
	c15.673-17.763,36.571-28.212,59.559-29.257c5.224,0,10.449,4.18,11.494,9.404c0,6.269-4.18,10.449-9.404,11.494
	c-17.763,1.045-33.437,9.404-44.931,21.943c-11.494,13.584-17.763,30.302-15.673,48.065
	C184.947,224.653,179.722,229.878,173.453,230.922C174.498,230.922,173.453,230.922,173.453,230.922z"/>
<g>
</g>
<g>
</g>
<g>
</g>
<g>
</g>
<g>
</g>
<g>
</g>
<g>
</g>
<g>
</g>
<g>
</g>
<g>
</g>
<g>
</g>
<g>
</g>
<g>
</g>
<g>
</g>
<g>
</g>
</svg>
