<?xml version="1.0" encoding="iso-8859-1"?>
<!-- Generator: Adobe Illustrator 19.0.0, SVG Export Plug-In . SVG Version: 6.00 Build 0)  -->
<svg version="1.1" id="Layer_1" xmlns="http://www.w3.org/2000/svg" xmlns:xlink="http://www.w3.org/1999/xlink" x="0px" y="0px"
	 viewBox="0 0 502.596 502.596" style="enable-background:new 0 0 502.596 502.596;" xml:space="preserve">
<rect x="315.868" y="323.933" transform="matrix(-0.7071 0.7071 -0.7071 -0.7071 818.2308 339.2448)" style="fill:#FFD15C;" width="45.975" height="30.302"/>
<path style="fill:#F8B64C;" d="M358.4,326.008c-9.404,12.539-20.898,22.988-32.392,32.392l-14.629-14.629l32.392-32.392
	L358.4,326.008z"/>
<g>
	<path style="fill:#ACB3BA;" d="M399.151,329.143c-8.359-8.359-20.898-8.359-29.257,0l-40.751,40.751
		c-8.359,8.359-8.359,20.898,0,29.257l13.584,13.584l70.008-70.008L399.151,329.143z"/>
	<path style="fill:#ACB3BA;" d="M482.743,412.735l-70.008,70.008l13.584,13.584c8.359,8.359,20.898,8.359,29.257,0l40.751-40.751
		c8.359-8.359,8.359-20.898,0-29.257L482.743,412.735z"/>
</g>
<rect x="362.499" y="362.737" transform="matrix(-0.7071 0.7071 -0.7071 -0.7071 995.1417 412.5368)" style="fill:#CDD6E0;" width="99.264" height="99.264"/>
<circle style="fill:#40596B;" cx="194.351" cy="194.351" r="194.351"/>
<path style="fill:#84DBFF;" d="M89.861,194.351c0,21.943,7.314,42.841,18.808,59.559l-39.706,27.167
	C52.245,256,41.796,226.743,41.796,194.351s10.449-61.649,27.167-86.727l39.706,27.167
	C97.176,152.555,89.861,172.408,89.861,194.351z"/>
<path style="fill:#F2F2F2;" d="M320.784,107.624l-39.706,27.167c-18.808-27.167-50.155-44.931-85.682-44.931
	s-66.873,17.763-85.682,44.931l-39.706-27.167c27.167-39.706,73.143-65.829,125.388-65.829
	C246.596,41.796,292.571,67.918,320.784,107.624z"/>
<path style="fill:#FFD15C;" d="M347.951,194.351c0,32.392-10.449,61.649-27.167,86.727l-39.706-27.167
	c11.494-16.718,18.808-37.616,18.808-59.559c0-21.943-7.314-42.841-18.808-59.559l39.706-27.167
	C337.502,132.702,347.951,161.959,347.951,194.351z"/>
<g>
	<path style="fill:#FFFFFF;" d="M320.784,281.078c-27.167,39.706-73.143,65.829-125.388,65.829s-98.22-26.122-125.388-65.829
		l39.706-27.167c-11.494-16.718-18.808-37.616-18.808-59.559c0-57.469,47.02-104.49,104.49-104.49s104.49,47.02,104.49,104.49
		c0,21.943-7.314,42.841-18.808,59.559L320.784,281.078z"/>
	<rect x="187.037" y="55.38" style="fill:#FFFFFF;" width="14.629" height="22.988"/>
	
		<rect x="138.967" y="64.901" transform="matrix(-0.9239 0.3827 -0.3827 -0.9239 310.6636 90.9946)" style="fill:#FFFFFF;" width="14.629" height="22.988"/>
	
		<rect x="98.222" y="92.218" transform="matrix(-0.7071 0.7071 -0.7071 -0.7071 253.4964 102.4228)" style="fill:#FFFFFF;" width="14.628" height="22.988"/>
	
		<rect x="71.13" y="133.02" transform="matrix(-0.3827 0.9239 -0.9239 -0.3827 241.9771 127.3447)" style="fill:#FFFFFF;" width="14.629" height="22.988"/>
	
		<rect x="303.148" y="229.059" transform="matrix(-0.3827 0.9239 -0.9239 -0.3827 651.5142 45.7816)" style="fill:#FFFFFF;" width="14.629" height="22.988"/>
	<rect x="57.469" y="184.947" style="fill:#FFFFFF;" width="22.988" height="14.629"/>
	<rect x="308.245" y="184.947" style="fill:#FFFFFF;" width="22.988" height="14.629"/>
	
		<rect x="66.88" y="233.128" transform="matrix(-0.9239 0.3827 -0.3827 -0.9239 242.797 432.5877)" style="fill:#FFFFFF;" width="22.988" height="14.629"/>
	
		<rect x="298.834" y="136.988" transform="matrix(-0.9239 0.3827 -0.3827 -0.9239 652.2567 158.8612)" style="fill:#FFFFFF;" width="22.988" height="14.629"/>
	
		<rect x="271.64" y="96.318" transform="matrix(-0.7071 0.7071 -0.7071 -0.7071 556.6185 -23.2955)" style="fill:#FFFFFF;" width="22.988" height="14.628"/>
	
		<rect x="230.989" y="69.231" transform="matrix(-0.3827 0.9239 -0.9239 -0.3827 405.9978 -118.1862)" style="fill:#FFFFFF;" width="22.988" height="14.629"/>
</g>
<path style="fill:#ACB3BA;" d="M218.384,183.902l-1.045-1.045L256,145.241l-10.449-11.494l-38.661,37.616
	c-6.269-3.135-14.629-4.18-22.988-1.045c-6.269,3.135-11.494,7.314-13.584,14.629c-2.09,6.269-2.09,13.584,0,19.853
	c3.135,6.269,7.314,11.494,14.629,13.584c3.135,1.045,6.269,2.09,9.404,2.09s7.314-1.045,10.449-2.09
	c6.269-3.135,11.494-7.314,13.584-14.629C221.518,197.486,221.518,191.216,218.384,183.902L218.384,183.902z M204.8,198.531
	c-1.045,2.09-3.135,4.18-5.224,5.224c-2.09,1.045-5.225,1.045-8.359,0c-2.09-1.045-4.18-3.135-5.224-5.224
	c-1.045-2.09-1.045-5.224,0-8.359c1.045-2.09,3.135-4.18,5.224-5.224c1.045-1.045,3.135-1.045,4.18-1.045
	c4.18,0,8.359,2.09,9.404,6.269C204.8,193.306,205.845,195.396,204.8,198.531z"/>
<g>
</g>
<g>
</g>
<g>
</g>
<g>
</g>
<g>
</g>
<g>
</g>
<g>
</g>
<g>
</g>
<g>
</g>
<g>
</g>
<g>
</g>
<g>
</g>
<g>
</g>
<g>
</g>
<g>
</g>
</svg>
