<?xml version="1.0" encoding="iso-8859-1"?>
<!-- Generator: Adobe Illustrator 19.0.0, SVG Export Plug-In . SVG Version: 6.00 Build 0)  -->
<svg version="1.1" id="Layer_1" xmlns="http://www.w3.org/2000/svg" xmlns:xlink="http://www.w3.org/1999/xlink" x="0px" y="0px"
	 viewBox="0 0 501.551 501.551" style="enable-background:new 0 0 501.551 501.551;" xml:space="preserve">
<path style="fill:#F2F2F2;" d="M451.396,150.465c-2.09-55.38-47.02-100.31-103.445-100.31c-13.584,0-27.167,3.135-38.661,7.314
	C283.167,22.988,241.371,0,194.351,0C114.939,0,50.155,64.784,50.155,144.196c0,2.09,0,3.135,0,5.224
	C20.898,160.914,0,189.127,0,222.563c0,43.886,35.527,78.367,78.367,78.367h344.816c43.886,0,78.367-35.527,78.367-78.367
	C501.551,190.171,480.653,161.959,451.396,150.465z"/>
<rect x="218.384" y="402.286" style="fill:#F05540;" width="64.784" height="37.616"/>
<path style="fill:#41596B;" d="M358.4,368.849c59.559-59.559,59.559-155.69,0-215.249s-155.69-59.559-215.249,0
	s-59.559,155.69,0,215.249S298.841,428.408,358.4,368.849z"/>
<path style="fill:#FFD05C;" d="M310.335,501.551H191.216V456.62c0-11.494,9.404-20.898,20.898-20.898h76.278
	c11.494,0,20.898,9.404,20.898,20.898v44.931H310.335z"/>
<ellipse style="fill:#84DBFF;" cx="250.452" cy="261.361" rx="107.623" ry="107.623"/>
<path style="fill:#FFFFFF;" d="M174.498,276.898c-5.224,0-10.449-4.18-10.449-9.404c-1.045-22.988,6.269-44.931,20.898-62.694
	c15.673-17.763,36.571-28.212,59.559-29.257c5.224,0,10.449,4.18,11.494,9.404c0,6.269-4.18,10.449-9.404,11.494
	c-17.763,1.045-33.437,9.404-44.931,21.943c-11.494,13.584-17.763,30.302-15.673,48.065
	C185.992,271.673,180.767,276.898,174.498,276.898C175.543,276.898,174.498,276.898,174.498,276.898z"/>
<g>
</g>
<g>
</g>
<g>
</g>
<g>
</g>
<g>
</g>
<g>
</g>
<g>
</g>
<g>
</g>
<g>
</g>
<g>
</g>
<g>
</g>
<g>
</g>
<g>
</g>
<g>
</g>
<g>
</g>
</svg>
