<?xml version="1.0" encoding="iso-8859-1"?>
<!-- Generator: Adobe Illustrator 19.0.0, SVG Export Plug-In . SVG Version: 6.00 Build 0)  -->
<svg version="1.1" id="Layer_1" xmlns="http://www.w3.org/2000/svg" xmlns:xlink="http://www.w3.org/1999/xlink" x="0px" y="0px"
	 viewBox="0 0 501.387 501.387" style="enable-background:new 0 0 501.387 501.387;" xml:space="preserve">
<rect x="213.962" y="396.898" style="fill:#ACB3BA;" width="73.143" height="28.212"/>
<rect x="197.243" y="443.918" style="fill:#FFD15C;" width="107.624" height="57.469"/>
<path style="fill:#FF7058;" d="M303.823,425.11h-106.58c-6.269,0-11.494,5.224-11.494,11.494s5.224,11.494,11.494,11.494h107.624
	c6.269,0,11.494-5.224,11.494-11.494S311.137,425.11,303.823,425.11z"/>
<ellipse style="fill:#F2F2F2;" cx="250.694" cy="205.843" rx="205.843" ry="205.843"/>
<g>
	<path style="fill:#FFFFFF;" d="M85.439,203.591c0-89.861,73.143-164.049,164.049-164.049s163.004,74.188,163.004,164.049
		S339.349,367.64,248.443,367.64S85.439,294.498,85.439,203.591z"/>
	<path style="fill:#FFFFFF;" d="M249.488,351.967c-81.502,0-148.376-66.873-148.376-148.376S167.986,55.216,249.488,55.216
		s147.331,66.873,147.331,148.376S330.99,351.967,249.488,351.967z"/>
</g>
<g>
	<polygon style="fill:#84DBFF;" points="184.705,260.016 128.28,203.591 184.705,148.212 202.468,165.975 165.896,203.591 
		202.468,241.208 	"/>
	<polygon style="fill:#84DBFF;" points="314.272,260.016 295.464,241.208 333.08,203.591 295.464,165.975 314.272,148.212 
		369.651,203.591 	"/>
	<polygon style="fill:#84DBFF;" points="239.039,269.42 212.917,269.42 258.892,137.763 285.015,137.763 	"/>
</g>
<g>
</g>
<g>
</g>
<g>
</g>
<g>
</g>
<g>
</g>
<g>
</g>
<g>
</g>
<g>
</g>
<g>
</g>
<g>
</g>
<g>
</g>
<g>
</g>
<g>
</g>
<g>
</g>
<g>
</g>
</svg>
