<?xml version="1.0" encoding="iso-8859-1"?>
<!-- Generator: Adobe Illustrator 19.0.0, SVG Export Plug-In . SVG Version: 6.00 Build 0)  -->
<svg version="1.1" id="Layer_1" xmlns="http://www.w3.org/2000/svg" xmlns:xlink="http://www.w3.org/1999/xlink" x="0px" y="0px"
	 viewBox="0 0 501.551 501.551" style="enable-background:new 0 0 501.551 501.551;" xml:space="preserve">
<path style="fill:#ACB3BA;" d="M268.539,400.196v36.571c-5.224-3.135-11.494-5.224-17.763-5.224c-6.269,0-12.539,2.09-17.763,5.224
	v-36.571H268.539z"/>
<g>
	<path style="fill:#CDD6E0;" d="M480.653,0H20.898C9.404,0,0,9.404,0,20.898V98.22c0,11.494,9.404,20.898,20.898,20.898h459.755
		c11.494,0,20.898-9.404,20.898-20.898V20.898C501.551,9.404,492.147,0,480.653,0z"/>
	<path style="fill:#CDD6E0;" d="M480.653,140.016H20.898C9.404,140.016,0,149.42,0,160.914v77.322
		c0,11.494,9.404,20.898,20.898,20.898h459.755c11.494,0,20.898-9.404,20.898-20.898v-77.322
		C501.551,149.42,492.147,140.016,480.653,140.016z"/>
	<path style="fill:#CDD6E0;" d="M480.653,281.078H20.898C9.404,281.078,0,290.482,0,301.975v77.322
		c0,11.494,9.404,20.898,20.898,20.898h459.755c11.494,0,20.898-9.404,20.898-20.898v-77.322
		C501.551,289.437,492.147,281.078,480.653,281.078z"/>
</g>
<g>
	<path style="fill:#ACB3BA;" d="M94.041,449.306c-9.404,0-17.763,8.359-17.763,17.763l0,0c0,9.404,8.359,17.763,17.763,17.763
		h126.433c-3.135-5.225-5.224-11.494-5.224-17.763c0-6.269,2.09-12.539,5.224-17.763H94.041z"/>
	<path style="fill:#ACB3BA;" d="M407.51,449.306H281.078c3.135,5.224,5.224,11.494,5.224,17.763c0,6.269-2.09,12.539-5.224,17.763
		H407.51c9.404,0,17.763-8.359,17.763-17.763l0,0C425.273,456.62,416.914,449.306,407.51,449.306z"/>
</g>
<circle style="fill:#CDD6E0;" cx="250.776" cy="467.069" r="34.482"/>
<circle style="fill:#FF7058;" cx="440.947" cy="59.559" r="19.853"/>
<circle style="fill:#F2F2F2;" cx="384.522" cy="59.559" r="19.853"/>
<circle style="fill:#FFFFFF;" cx="329.143" cy="59.559" r="19.853"/>
<circle style="fill:#FF7058;" cx="440.947" cy="199.576" r="19.853"/>
<circle style="fill:#F2F2F2;" cx="384.522" cy="199.576" r="19.853"/>
<circle style="fill:#FFFFFF;" cx="329.143" cy="199.576" r="19.853"/>
<circle style="fill:#FF7058;" cx="440.947" cy="340.637" r="19.853"/>
<circle style="fill:#F2F2F2;" cx="384.522" cy="340.637" r="19.853"/>
<circle style="fill:#FFFFFF;" cx="329.143" cy="340.637" r="19.853"/>
<rect x="233.012" y="400.196" style="fill:#A5AFB7;" width="35.527" height="15.673"/>
<g>
</g>
<g>
</g>
<g>
</g>
<g>
</g>
<g>
</g>
<g>
</g>
<g>
</g>
<g>
</g>
<g>
</g>
<g>
</g>
<g>
</g>
<g>
</g>
<g>
</g>
<g>
</g>
<g>
</g>
</svg>
