<?xml version="1.0" encoding="iso-8859-1"?>
<!-- Generator: Adobe Illustrator 19.0.0, SVG Export Plug-In . SVG Version: 6.00 Build 0)  -->
<svg version="1.1" id="Layer_1" xmlns="http://www.w3.org/2000/svg" xmlns:xlink="http://www.w3.org/1999/xlink" x="0px" y="0px"
	 viewBox="0 0 501.678 501.678" style="enable-background:new 0 0 501.678 501.678;" xml:space="preserve">
<rect x="332.516" y="347.549" transform="matrix(-0.7071 0.7071 -0.7071 -0.7071 871.6833 360.1562)" style="fill:#334A5E;" width="57.469" height="26.122"/>
<path style="fill:#FF7058;" d="M482.87,392.792l-52.245-53.29c-8.359-8.359-20.898-8.359-29.257,0l-61.649,60.604
	c-8.359,8.359-8.359,20.898,0,29.257l53.29,53.29c25.078,25.078,65.829,25.078,89.861,0
	C507.947,457.576,507.947,417.87,482.87,392.792z"/>
<ellipse style="fill:#40596B;" cx="207.933" cy="208.149" rx="207.933" ry="207.933"/>
<path style="fill:#84DBFF;" d="M318.821,318.605c-60.604,60.604-159.869,60.604-220.473,0s-60.604-159.869,0-220.473
	s159.869-60.604,220.473,0S379.425,258.001,318.821,318.605z"/>
<path style="fill:#FFFFFF;" d="M291.653,140.972c-2.09-3.135-5.224-5.224-7.314-8.359c-3.135-3.135-5.224-5.224-8.359-7.314
	l4.18-25.078l-26.122-13.584l-17.763,18.808c-7.314-2.09-14.629-3.135-21.943-3.135l-11.494-24.033l-28.212,4.18l-3.135,25.078
	c-7.314,3.135-13.584,6.269-19.853,10.449l-22.988-12.539l-20.898,20.898l12.539,22.988c-4.18,6.269-7.314,13.584-10.449,20.898
	l-25.078,3.135l-6.269,29.257l22.988,11.494c0,7.314,2.09,14.629,3.135,21.943l-18.808,17.763l13.584,26.122l25.078-4.18
	c2.09,3.135,5.224,5.224,7.314,8.359c3.135,3.135,5.224,5.224,8.359,7.314l-4.18,25.078l26.122,13.584l17.763-18.808
	c7.314,2.09,14.629,3.135,21.943,3.135l11.494,22.988l28.212-4.18l3.135-25.078c7.314-3.135,13.584-6.269,19.853-10.449
	l22.988,12.539l20.898-20.898l-10.449-22.988c4.18-6.269,7.314-13.584,10.449-20.898l25.078-3.135l4.18-28.212l-22.988-11.494
	c0-7.314-2.09-14.629-3.135-21.943l17.763-18.808l-13.584-26.122L291.653,140.972z M255.082,254.866
	c-25.078,25.078-66.873,25.078-92.996,0c-25.078-25.078-25.078-66.873,0-92.996c25.078-25.078,66.873-25.078,92.996,0
	C280.159,186.948,280.159,228.743,255.082,254.866z"/>
<g>
</g>
<g>
</g>
<g>
</g>
<g>
</g>
<g>
</g>
<g>
</g>
<g>
</g>
<g>
</g>
<g>
</g>
<g>
</g>
<g>
</g>
<g>
</g>
<g>
</g>
<g>
</g>
<g>
</g>
</svg>
