<?xml version="1.0" encoding="iso-8859-1"?>
<!-- Generator: Adobe Illustrator 19.0.0, SVG Export Plug-In . SVG Version: 6.00 Build 0)  -->
<svg version="1.1" id="Layer_1" xmlns="http://www.w3.org/2000/svg" xmlns:xlink="http://www.w3.org/1999/xlink" x="0px" y="0px"
	 viewBox="0 0 501.551 501.551" style="enable-background:new 0 0 501.551 501.551;" xml:space="preserve">
<path style="fill:#4CDBC4;" d="M457.143,272.718c1.045-7.314,1.045-14.629,1.045-21.943c0-7.314,0-15.673-1.045-22.988
	l40.751-28.212l-17.763-53.29l-50.155,1.045c-7.314-12.539-15.673-25.078-26.122-35.527l16.718-47.02l-45.976-33.437L334.89,61.649
	c-13.584-6.269-27.167-10.449-41.796-13.584L278.465,0h-56.424l-14.629,48.065c-14.629,3.135-29.257,8.359-42.841,14.629
	l-39.706-30.302L79.935,65.829l16.718,47.02c-9.404,10.449-18.808,22.988-26.122,35.527l-50.155-1.045L3.657,200.62l40.751,28.212
	c-1.045,7.314-1.045,14.629-1.045,21.943s0,15.673,1.045,22.988L3.657,301.976l17.763,53.29l50.155-1.045
	c7.314,12.539,15.673,25.078,26.122,35.527l-16.718,47.02l45.976,33.437l39.706-30.302c13.584,6.269,27.167,10.449,41.796,13.584
	l14.629,48.065h56.424l14.629-48.065c14.629-3.135,29.257-8.359,42.841-14.629l39.706,30.302l44.931-33.437l-16.718-47.02
	c9.404-10.449,18.808-22.988,26.122-35.527l50.155,1.045l16.718-53.29L457.143,272.718z"/>
<path style="fill:#ACB3BA;" d="M251.298,250.776l142.106-22.988c7.314,47.02-6.269,90.906-40.751,124.343L251.298,250.776z"/>
<path style="fill:#FFD15C;" d="M251.298,250.776l65.829-128.522c42.841,21.943,68.963,58.514,77.322,105.535L251.298,250.776z"/>
<path style="fill:#84DBFF;" d="M251.298,250.776l-65.829-128.522c42.841-21.943,87.771-21.943,130.612,0L251.298,250.776z"/>
<path style="fill:#FFFFFF;" d="M251.298,250.776l101.355,101.355c-56.424,56.425-147.331,56.425-203.755,0
	c-56.424-56.424-56.424-147.331,0-203.755c11.494-11.494,21.943-18.808,36.571-26.122L251.298,250.776z"/>
<g>
</g>
<g>
</g>
<g>
</g>
<g>
</g>
<g>
</g>
<g>
</g>
<g>
</g>
<g>
</g>
<g>
</g>
<g>
</g>
<g>
</g>
<g>
</g>
<g>
</g>
<g>
</g>
<g>
</g>
</svg>
