<?xml version="1.0" encoding="iso-8859-1"?>
<!-- Generator: Adobe Illustrator 19.0.0, SVG Export Plug-In . SVG Version: 6.00 Build 0)  -->
<svg version="1.1" id="Layer_1" xmlns="http://www.w3.org/2000/svg" xmlns:xlink="http://www.w3.org/1999/xlink" x="0px" y="0px"
	 viewBox="0 0 502.596 502.596" style="enable-background:new 0 0 502.596 502.596;" xml:space="preserve">
<path style="fill:#84DBFF;" d="M475.429,171.363c-2.09-38.661-33.437-68.963-72.098-68.963c-5.224,0-10.449,1.045-15.673,2.09
	C381.388,45.976,332.278,0,271.673,0c-39.706,0-74.188,19.853-95.086,50.155c-12.539-5.224-25.078-9.404-39.706-9.404
	c-51.2,0-92.996,41.796-92.996,94.041c0,8.359,1.045,15.673,3.135,22.988C19.853,171.363,0,200.62,0,233.012
	c0,47.02,37.616,84.637,84.637,84.637h333.322c47.02,0,84.637-37.616,84.637-84.637C502.596,208.98,492.147,187.037,475.429,171.363
	z"/>
<path style="fill:#4CDBC4;" d="M405.42,275.853c-3.135-12.539-8.359-25.078-14.629-36.571l12.539-29.257l-42.841-43.886
	l-30.302,12.539c-11.494-6.269-22.988-11.494-36.571-14.629l-11.494-30.302h-61.649l-11.494,30.302
	c-12.539,3.135-25.078,8.359-36.571,14.629l-29.257-12.539l-42.841,43.886l12.539,29.257c-6.269,11.494-11.494,22.988-14.629,36.571
	l-29.257,11.494v61.649L98.22,360.49c3.135,12.539,8.359,25.078,14.629,36.571l-12.539,29.257l42.841,43.886l29.257-12.539
	c11.494,6.269,22.988,11.494,36.571,14.629l11.494,30.302h61.649l11.494-30.302c12.539-3.135,25.078-8.359,36.571-14.629
	l29.257,12.539l42.841-43.886l-12.539-29.257c6.269-11.494,11.494-22.988,14.629-36.571l30.302-11.494v-61.649L405.42,275.853z
	 M251.82,392.882c-41.796,0-75.233-33.437-75.233-75.233s33.437-75.233,75.233-75.233s75.233,33.437,75.233,75.233
	S293.616,392.882,251.82,392.882z"/>
<path style="fill:#F2F2F2;" d="M331.233,238.237c-43.886-43.886-114.939-43.886-159.869,0c-43.886,43.886-43.886,115.984,0,159.869
	s114.939,43.886,159.869,0C375.118,353.176,375.118,282.122,331.233,238.237z M305.11,370.939
	c-29.257,29.257-76.278,29.257-105.535,0s-29.257-77.322,0-106.58s76.278-29.257,105.535,0
	C333.322,293.616,333.322,341.682,305.11,370.939z"/>
<g>
</g>
<g>
</g>
<g>
</g>
<g>
</g>
<g>
</g>
<g>
</g>
<g>
</g>
<g>
</g>
<g>
</g>
<g>
</g>
<g>
</g>
<g>
</g>
<g>
</g>
<g>
</g>
<g>
</g>
</svg>
