<?xml version="1.0" encoding="iso-8859-1"?>
<!-- Generator: Adobe Illustrator 19.0.0, SVG Export Plug-In . SVG Version: 6.00 Build 0)  -->
<svg version="1.1" id="Layer_1" xmlns="http://www.w3.org/2000/svg" xmlns:xlink="http://www.w3.org/1999/xlink" x="0px" y="0px"
	 viewBox="0 0 501.551 501.551" style="enable-background:new 0 0 501.551 501.551;" xml:space="preserve">
<ellipse style="fill:#FFD15C;" cx="135.837" cy="248.686" rx="135.837" ry="136.882"/>
<ellipse style="fill:#FFFFFF;" cx="135.837" cy="248.686" rx="86.727" ry="87.771"/>
<ellipse style="fill:#84DBFF;" cx="404.376" cy="98.22" rx="97.175" ry="98.22"/>
<ellipse style="fill:#FFFFFF;" cx="404.376" cy="98.22" rx="58.514" ry="58.514"/>
<ellipse style="fill:#FF7058;" cx="404.376" cy="403.331" rx="97.175" ry="98.22"/>
<g>
	<path style="fill:#40596B;" d="M335.412,166.139l-14.629,8.359l-57.469,32.392c-5.224-16.718-14.629-32.392-25.078-45.976
		l57.469-32.392l14.629-8.359C314.514,137.927,323.918,153.6,335.412,166.139z"/>
	<path style="fill:#40596B;" d="M336.457,334.367c-12.539,12.539-21.943,28.212-26.122,45.976l-14.629-8.359l-58.514-34.482
		c11.494-13.584,19.853-29.257,26.122-45.976l58.514,34.482L336.457,334.367z"/>
</g>
<g>
	<path style="fill:#334A5E;" d="M335.412,166.139l-14.629,8.359c-11.494-12.539-20.898-28.212-25.078-45.975l14.629-8.359
		C314.514,137.927,323.918,153.6,335.412,166.139z"/>
	<path style="fill:#334A5E;" d="M336.457,334.367c-12.539,12.539-21.943,28.212-26.122,45.976l-14.629-8.359
		c5.224-17.763,14.629-33.437,26.122-45.976L336.457,334.367z"/>
</g>
<ellipse style="fill:#FFFFFF;" cx="404.376" cy="403.331" rx="58.514" ry="58.514"/>
<g>
</g>
<g>
</g>
<g>
</g>
<g>
</g>
<g>
</g>
<g>
</g>
<g>
</g>
<g>
</g>
<g>
</g>
<g>
</g>
<g>
</g>
<g>
</g>
<g>
</g>
<g>
</g>
<g>
</g>
</svg>
