<?xml version="1.0" encoding="iso-8859-1"?>
<!-- Generator: Adobe Illustrator 19.0.0, SVG Export Plug-In . SVG Version: 6.00 Build 0)  -->
<svg version="1.1" id="Layer_1" xmlns="http://www.w3.org/2000/svg" xmlns:xlink="http://www.w3.org/1999/xlink" x="0px" y="0px"
	 viewBox="0 0 512 512" style="enable-background:new 0 0 512 512;" xml:space="preserve">
<circle style="fill:#F8B64C;" cx="256.005" cy="91.733" r="91.732"/>
<circle style="fill:#FFD15C;" cx="256.005" cy="91.733" r="68.266"/>
<path style="fill:#F8B64C;" d="M262.4,81.067c-11.733-5.333-11.733-7.466-11.733-9.6c0-3.2,3.2-5.333,8.533-5.333
	c7.466,0,11.733,2.134,12.8,3.2l5.333,3.2l6.4-18.133l-4.267-2.134c-4.267-2.134-8.533-4.267-13.867-4.267V34.134h-18.133V48
	c-11.733,4.267-18.133,12.8-18.133,24.534c0,14.934,11.733,22.4,24.534,26.666c9.6,4.267,10.667,7.466,10.667,9.6
	c0,5.333-5.333,7.466-9.6,7.466c-5.333,0-10.667-2.134-14.934-4.267l-5.333-3.2l-6.4,18.133l3.2,2.134
	c4.267,3.2,10.667,5.333,17.066,6.4v12.8h18.133v-13.867c11.733-3.2,20.267-13.867,20.267-25.6
	C284.8,91.734,273.067,85.334,262.4,81.067z"/>
<path style="fill:#CDD6E0;" d="M490.667,196.267H21.333C9.6,196.267,0,205.867,0,217.6v60.8c0,11.733,9.6,21.333,21.333,21.333
	h469.333c11.733,0,21.333-9.6,21.333-21.333v-60.8C512,205.867,502.4,196.267,490.667,196.267z"/>
<g>
	<path style="fill:#40596B;" d="M477.866,84.267c-14.934-14.934-39.466-14.934-54.4,0L304,204.8
		c-14.934,14.934-14.934,39.466,0,54.4s39.466,14.934,54.4,0l119.467-119.467C492.8,123.734,492.8,99.201,477.866,84.267z"/>
	<path style="fill:#40596B;" d="M88.534,84.267c-14.934-14.934-39.466-14.934-54.4,0s-14.934,39.466,0,54.4l119.467,119.467
		c14.934,14.934,39.466,14.934,54.4,0c14.934-14.934,14.934-39.466,0-54.4L88.534,84.267z"/>
</g>
<g>
	<ellipse style="fill:#334A5E;" cx="331.628" cy="230.454" rx="19.2" ry="19.2"/>
	<ellipse style="fill:#334A5E;" cx="180.146" cy="230.423" rx="19.2" ry="19.2"/>
</g>
<path style="fill:#F2F2F2;" d="M25.6,300.8l3.2,16L68.267,512h374.4l39.466-195.2l3.2-16H25.6z M166.4,456.534
	c0,14.934-11.733,26.666-26.666,26.666s-26.666-11.733-26.666-26.666V356.267c0-14.934,11.733-26.666,26.666-26.666
	s26.666,11.733,26.666,26.666V456.534z M282.667,456.534c0,14.934-11.733,26.666-26.666,26.666
	c-14.933,0-26.666-11.733-26.666-26.666V356.267c0-14.934,11.733-26.666,26.666-26.666s26.666,11.733,26.666,26.666V456.534z
	 M398.934,456.534c0,14.934-11.733,26.666-26.666,26.666c-14.934,0-26.666-11.733-26.666-26.666V356.267
	c0-14.934,11.733-26.666,26.666-26.666c14.934,0,26.666,11.733,26.666,26.666V456.534z"/>
<polygon style="fill:#E4EAEF;" points="486.4,300.8 483.2,316.801 28.8,316.801 25.6,300.8 "/>
<g>
</g>
<g>
</g>
<g>
</g>
<g>
</g>
<g>
</g>
<g>
</g>
<g>
</g>
<g>
</g>
<g>
</g>
<g>
</g>
<g>
</g>
<g>
</g>
<g>
</g>
<g>
</g>
<g>
</g>
</svg>
