<?xml version="1.0" encoding="iso-8859-1"?>
<!-- Generator: Adobe Illustrator 19.0.0, SVG Export Plug-In . SVG Version: 6.00 Build 0)  -->
<svg version="1.1" id="Layer_1" xmlns="http://www.w3.org/2000/svg" xmlns:xlink="http://www.w3.org/1999/xlink" x="0px" y="0px"
	 viewBox="0 0 501.551 501.551" style="enable-background:new 0 0 501.551 501.551;" xml:space="preserve">
<rect x="16.718" y="90.906" style="fill:#FFD15C;" width="468.114" height="353.176"/>
<path style="fill:#FF7058;" d="M16.718,444.082v36.571c0,11.494,9.404,20.898,20.898,20.898h426.318
	c11.494,0,20.898-9.404,20.898-20.898v-36.571H16.718z"/>
<path style="fill:#F8B64C;" d="M463.935,0H37.616C26.122,0,16.718,9.404,16.718,20.898v48.065h468.114V20.898
	C484.833,9.404,475.429,0,463.935,0z"/>
<rect x="119.118" y="257.045" style="fill:#FFFFFF;" width="263.314" height="161.959"/>
<rect x="134.896" y="271.82" style="fill:#84DBFF;" width="231.967" height="130.612"/>
<polygon style="fill:#FF7058;" points="72.098,160.914 0,160.914 16.718,68.963 83.592,68.963 "/>
<polygon style="fill:#F2F2F2;" points="143.151,160.914 72.098,160.914 83.592,68.963 150.465,68.963 "/>
<polygon style="fill:#FF7058;" points="215.249,160.914 143.151,160.914 150.465,68.963 217.339,68.963 "/>
<polygon style="fill:#F2F2F2;" points="286.302,160.914 215.249,160.914 217.339,68.963 284.212,68.963 "/>
<polygon style="fill:#FF7058;" points="358.4,160.914 286.302,160.914 284.212,68.963 351.086,68.963 "/>
<polygon style="fill:#F2F2F2;" points="429.453,160.914 358.4,160.914 351.086,68.963 417.959,68.963 "/>
<polygon style="fill:#FF7058;" points="501.551,160.914 429.453,160.914 417.959,68.963 484.833,68.963 "/>
<path style="fill:#F8B64C;" d="M484.833,171.363v64.784c-5.225,3.135-12.539,5.225-18.808,5.225
	c-19.853,0-35.527-15.673-35.527-35.527c0,19.853-15.673,35.527-35.527,35.527c-19.853,0-35.527-15.673-35.527-35.527
	c0,19.853-15.673,35.527-35.527,35.527s-35.527-15.673-35.527-35.527c0,19.853-15.673,35.527-35.527,35.527
	s-35.527-15.673-35.527-35.527c0,19.853-15.673,35.527-35.527,35.527s-35.527-15.673-35.527-35.527
	c0,19.853-15.673,35.527-35.527,35.527s-35.527-15.673-35.527-35.527c0,19.853-15.673,35.527-35.527,35.527
	c-7.314,0-13.584-2.09-18.808-5.225v-64.784L484.833,171.363L484.833,171.363z"/>
<g>
	<path style="fill:#CDD6E0;" d="M72.098,195.396c0,19.853,15.673,35.527,35.527,35.527s35.527-15.673,35.527-35.527v-34.482H72.098
		V195.396z"/>
	<path style="fill:#CDD6E0;" d="M215.249,195.396c0,19.853,15.673,35.527,35.527,35.527s35.527-15.673,35.527-35.527v-34.482
		h-72.098v34.482H215.249z"/>
	<path style="fill:#CDD6E0;" d="M358.4,160.914v34.482c0,19.853,15.673,35.527,35.527,35.527l0,0
		c19.853,0,35.527-15.673,35.527-35.527v-34.482C429.453,160.914,358.4,160.914,358.4,160.914z"/>
</g>
<g>
	<path style="fill:#F1543F;" d="M0,195.396c0,19.853,15.673,35.527,35.527,35.527s35.527-15.673,35.527-35.527v-34.482H0V195.396z"
		/>
	<path style="fill:#F1543F;" d="M143.151,195.396c0,19.853,15.673,35.527,35.527,35.527s35.527-15.673,35.527-35.527v-34.482
		h-72.098v34.482H143.151z"/>
	<path style="fill:#F1543F;" d="M286.302,195.396c0,19.853,15.673,35.527,35.527,35.527c19.853,0,35.527-15.673,35.527-35.527
		v-34.482h-72.098v34.482H286.302z"/>
	<path style="fill:#F1543F;" d="M429.453,160.914v34.482c0,19.853,15.673,35.527,35.527,35.527s35.527-15.673,35.527-35.527v-34.482
		C500.506,160.914,429.453,160.914,429.453,160.914z"/>
</g>
<g>
</g>
<g>
</g>
<g>
</g>
<g>
</g>
<g>
</g>
<g>
</g>
<g>
</g>
<g>
</g>
<g>
</g>
<g>
</g>
<g>
</g>
<g>
</g>
<g>
</g>
<g>
</g>
<g>
</g>
</svg>
