<?xml version="1.0" encoding="iso-8859-1"?>
<!-- Generator: Adobe Illustrator 19.0.0, SVG Export Plug-In . SVG Version: 6.00 Build 0)  -->
<svg version="1.1" id="Layer_1" xmlns="http://www.w3.org/2000/svg" xmlns:xlink="http://www.w3.org/1999/xlink" x="0px" y="0px"
	 viewBox="0 0 501.551 501.551" style="enable-background:new 0 0 501.551 501.551;" xml:space="preserve">
<path style="fill:#40596B;" d="M397.061,0H104.49C92.996,0,83.592,9.404,83.592,20.898v459.755c0,11.494,9.404,20.898,20.898,20.898
	h292.571c11.494,0,20.898-9.404,20.898-20.898V20.898C417.959,9.404,408.555,0,397.061,0z"/>
<rect x="110.759" y="62.694" style="fill:#84DBFF;" width="280.033" height="350.041"/>
<g>
	<circle style="fill:#334A5E;" cx="250.776" cy="456.62" r="22.988"/>
	<path style="fill:#334A5E;" d="M289.437,24.033h-77.322c-4.18,0-6.269,3.135-6.269,6.269c0,4.18,3.135,6.269,6.269,6.269h77.322
		c4.18,0,6.269-3.135,6.269-6.269C295.706,27.167,293.616,24.033,289.437,24.033z"/>
</g>
<circle style="fill:#FF7058;" cx="250.776" cy="237.192" r="127.478"/>
<circle style="fill:#FFFFFF;" cx="250.776" cy="237.192" r="100.31"/>
<circle style="fill:#FF7058;" cx="250.776" cy="237.192" r="74.188"/>
<circle style="fill:#FFFFFF;" cx="250.776" cy="237.192" r="47.02"/>
<circle style="fill:#FF7058;" cx="250.776" cy="237.192" r="19.853"/>
<path style="fill:#ACB3BA;" d="M363.624,122.253L250.776,227.788c-2.09,2.09-3.135,6.269,0,9.404l0,0c2.09,2.09,6.269,3.135,9.404,0
	l112.849-105.535c2.09-2.09,3.135-6.269,0-9.404l0,0C369.894,120.163,366.759,120.163,363.624,122.253z"/>
<polygon style="fill:#40596B;" points="357.355,136.882 353.176,109.714 316.604,144.196 321.829,171.363 347.951,177.633 
	384.522,144.196 "/>
<g>
</g>
<g>
</g>
<g>
</g>
<g>
</g>
<g>
</g>
<g>
</g>
<g>
</g>
<g>
</g>
<g>
</g>
<g>
</g>
<g>
</g>
<g>
</g>
<g>
</g>
<g>
</g>
<g>
</g>
</svg>
