<?xml version="1.0" encoding="iso-8859-1"?>
<!-- Generator: Adobe Illustrator 19.0.0, SVG Export Plug-In . SVG Version: 6.00 Build 0)  -->
<svg version="1.1" id="Layer_1" xmlns="http://www.w3.org/2000/svg" xmlns:xlink="http://www.w3.org/1999/xlink" x="0px" y="0px"
	 viewBox="0 0 501.551 501.551" style="enable-background:new 0 0 501.551 501.551;" xml:space="preserve">
<path style="fill:#40596B;" d="M398.106,0H103.445C91.951,0,82.547,9.404,82.547,20.898v459.755
	c0,11.494,9.404,20.898,20.898,20.898h294.661c11.494,0,20.898-9.404,20.898-20.898V20.898C419.004,9.404,409.6,0,398.106,0z"/>
<rect x="108.648" y="54.303" style="fill:#84DBFF;" width="284.212" height="345.861"/>
<g>
	<path style="fill:#CDD6E0;" d="M291.527,22.988h-80.457c-3.135,0-6.269,3.135-6.269,6.269c0,3.135,3.135,6.269,6.269,6.269h80.457
		c3.135,0,6.269-3.135,6.269-6.269C296.751,26.122,294.661,22.988,291.527,22.988z"/>
	<path style="fill:#CDD6E0;" d="M188.082,22.988h-17.763c-3.135,0-6.269,3.135-6.269,6.269c0,3.135,3.135,6.269,6.269,6.269h17.763
		c3.135,0,6.269-3.135,6.269-6.269C194.351,26.122,191.216,22.988,188.082,22.988z"/>
	<circle style="fill:#CDD6E0;" cx="250.776" cy="450.351" r="27.167"/>
</g>
<circle style="fill:#FFFFFF;" cx="250.776" cy="226.743" r="101.355"/>
<polygon style="fill:#FF7058;" points="217.339,164.049 217.339,289.437 309.29,226.743 "/>
<g>
</g>
<g>
</g>
<g>
</g>
<g>
</g>
<g>
</g>
<g>
</g>
<g>
</g>
<g>
</g>
<g>
</g>
<g>
</g>
<g>
</g>
<g>
</g>
<g>
</g>
<g>
</g>
<g>
</g>
</svg>
