<?xml version="1.0" encoding="iso-8859-1"?>
<!-- Generator: Adobe Illustrator 19.0.0, SVG Export Plug-In . SVG Version: 6.00 Build 0)  -->
<svg version="1.1" id="Layer_1" xmlns="http://www.w3.org/2000/svg" xmlns:xlink="http://www.w3.org/1999/xlink" x="0px" y="0px"
	 viewBox="0 0 501.551 501.551" style="enable-background:new 0 0 501.551 501.551;" xml:space="preserve">
<path style="fill:#40596B;" d="M397.061,0H104.49C92.996,0,83.592,9.404,83.592,20.898v459.755c0,11.494,9.404,20.898,20.898,20.898
	h292.571c11.494,0,20.898-9.404,20.898-20.898V20.898C417.959,9.404,408.555,0,397.061,0z"/>
<rect x="110.811" y="61.942" style="fill:#FFFFFF;" width="280.033" height="350.041"/>
<g>
	<circle style="fill:#ACB3BA;" cx="250.775" cy="456.62" r="19.853"/>
	<path style="fill:#ACB3BA;" d="M296.751,24.033H204.8c-4.18,0-6.269,3.135-6.269,6.269c0,4.18,3.135,6.269,6.269,6.269h91.951
		c4.18,0,6.269-3.135,6.269-6.269C303.02,27.167,299.886,24.033,296.751,24.033z"/>
	<path style="fill:#ACB3BA;" d="M181.812,24.033h-17.763c-4.18,0-6.269,3.135-6.269,6.269c0,4.18,3.135,6.269,6.269,6.269h17.763
		c4.18,0,6.269-3.135,6.269-6.269C188.082,27.167,184.947,24.033,181.812,24.033z"/>
</g>
<g>
	<path style="fill:#CDD6E0;" d="M127.478,178.678c0,22.988,18.808,40.751,40.751,40.751s40.751-18.808,40.751-40.751v-48.065
		h-82.547v48.065H127.478z"/>
	<path style="fill:#CDD6E0;" d="M291.527,130.612v48.065c0,22.988,18.808,40.751,40.751,40.751s40.751-18.808,40.751-40.751v-48.065
		H291.527z"/>
</g>
<g>
	<path style="fill:#F1543F;" d="M44.931,178.678c0,22.988,18.808,40.751,40.751,40.751s40.751-18.808,40.751-40.751v-48.065H44.931
		V178.678z"/>
	<path style="fill:#F1543F;" d="M210.024,178.678c0,22.988,18.808,40.751,40.751,40.751l0,0c22.988,0,40.751-18.808,40.751-40.751
		v-48.065H208.98v48.065H210.024z"/>
	<path style="fill:#F1543F;" d="M374.073,130.612v48.065c0,22.988,18.808,40.751,40.751,40.751
		c21.943,0,40.751-18.808,40.751-40.751v-48.065H374.073z"/>
</g>
<polygon style="fill:#FF7058;" points="167.184,62.694 110.759,62.694 44.931,130.612 127.478,130.612 "/>
<polygon style="fill:#F2F2F2;" points="222.563,62.694 167.184,62.694 127.478,130.612 210.024,130.612 "/>
<polygon style="fill:#FF7058;" points="278.988,62.694 222.563,62.694 210.024,130.612 291.527,130.612 "/>
<polygon style="fill:#F2F2F2;" points="334.367,62.694 278.988,62.694 291.527,130.612 374.073,130.612 "/>
<polygon style="fill:#FF7058;" points="390.792,62.694 334.367,62.694 374.073,130.612 456.62,130.612 "/>
<g>
</g>
<g>
</g>
<g>
</g>
<g>
</g>
<g>
</g>
<g>
</g>
<g>
</g>
<g>
</g>
<g>
</g>
<g>
</g>
<g>
</g>
<g>
</g>
<g>
</g>
<g>
</g>
<g>
</g>
</svg>
