<?xml version="1.0" encoding="iso-8859-1"?>
<!-- Generator: Adobe Illustrator 19.0.0, SVG Export Plug-In . SVG Version: 6.00 Build 0)  -->
<svg version="1.1" id="Layer_1" xmlns="http://www.w3.org/2000/svg" xmlns:xlink="http://www.w3.org/1999/xlink" x="0px" y="0px"
	 viewBox="0 0 501.551 501.551" style="enable-background:new 0 0 501.551 501.551;" xml:space="preserve">
<path style="fill:#40596B;" d="M311.38,0H20.898C9.404,0,0,9.404,0,20.898v459.755c0,11.494,9.404,20.898,20.898,20.898H311.38
	c11.494,0,20.898-9.404,20.898-20.898V20.898C332.278,9.404,322.873,0,311.38,0z"/>
<rect x="26.154" y="55.787" style="fill:#F2F2F2;" width="280.033" height="344.816"/>
<g>
	<path style="fill:#334A5E;" d="M198.531,21.943h-65.829c-3.135,0-6.269,3.135-6.269,6.269s3.135,6.269,6.269,6.269h65.829
		c3.135,0,6.269-3.135,6.269-6.269S202.71,21.943,198.531,21.943z"/>
	<circle style="fill:#334A5E;" cx="166.139" cy="451.396" r="25.078"/>
</g>
<path style="fill:#FF7058;" d="M501.551,100.31v143.151c0,10.449-7.314,18.808-16.718,20.898v38.661l-38.661-38.661H248.686
	c-11.494,0-20.898-9.404-20.898-20.898V100.31c0-11.494,9.404-20.898,20.898-20.898h231.967
	C492.147,79.412,501.551,88.816,501.551,100.31z"/>
<path style="fill:#F1543F;" d="M440.947,164.049v101.355H248.686c-11.494,0-20.898-9.404-20.898-20.898V127.478h176.588
	C425.273,127.478,440.947,143.151,440.947,164.049z"/>
<path style="fill:#FFD15C;" d="M404.376,143.151H172.408c-11.494,0-20.898,9.404-20.898,20.898V307.2
	c0,11.494,9.404,20.898,20.898,20.898h10.449v49.11l49.11-49.11H405.42c11.494,0,20.898-9.404,20.898-20.898V164.049
	C425.273,152.555,415.869,143.151,404.376,143.151z"/>
<g>
	<rect x="205.845" y="170.318" style="fill:#F8B64C;" width="165.094" height="26.122"/>
	<rect x="175.543" y="220.473" style="fill:#F8B64C;" width="224.653" height="26.122"/>
	<rect x="205.845" y="272.718" style="fill:#F8B64C;" width="165.094" height="26.122"/>
</g>
<g>
</g>
<g>
</g>
<g>
</g>
<g>
</g>
<g>
</g>
<g>
</g>
<g>
</g>
<g>
</g>
<g>
</g>
<g>
</g>
<g>
</g>
<g>
</g>
<g>
</g>
<g>
</g>
<g>
</g>
</svg>
