<?xml version="1.0" encoding="iso-8859-1"?>
<!-- Generator: Adobe Illustrator 19.0.0, SVG Export Plug-In . SVG Version: 6.00 Build 0)  -->
<svg version="1.1" id="Layer_1" xmlns="http://www.w3.org/2000/svg" xmlns:xlink="http://www.w3.org/1999/xlink" x="0px" y="0px"
	 viewBox="0 0 501.551 501.551" style="enable-background:new 0 0 501.551 501.551;" xml:space="preserve">
<path style="fill:#40596B;" d="M309.29,0H20.898C9.404,0,0,9.404,0,20.898v459.755c0,11.494,9.404,20.898,20.898,20.898H309.29
	c11.494,0,20.898-9.404,20.898-20.898V20.898C330.188,9.404,320.784,0,309.29,0z"/>
<rect x="26.676" y="59.653" style="fill:#84DBFF;" width="277.943" height="364.669"/>
<g>
	<path style="fill:#334A5E;" d="M188.082,450.351h-51.2c-6.269,0-11.494,5.224-11.494,11.494s5.224,11.494,11.494,11.494h51.2
		c6.269,0,11.494-5.224,11.494-11.494S194.351,450.351,188.082,450.351z"/>
	<path style="fill:#334A5E;" d="M206.89,25.078h-83.592c-3.135,0-5.224,2.09-5.224,5.224c0,3.135,2.09,5.224,5.224,5.224h83.592
		c3.135,0,5.224-2.09,5.224-5.224C212.114,27.167,210.024,25.078,206.89,25.078z"/>
</g>
<path style="fill:#F2F2F2;" d="M479.608,119.118H224.653c-12.539,0-21.943,10.449-21.943,21.943v146.286
	c0,12.539,10.449,21.943,21.943,21.943h8.359v54.335l47.02-54.335h199.576c12.539,0,21.943-10.449,21.943-21.943V141.061
	C501.551,128.522,491.102,119.118,479.608,119.118z"/>
<g>
	<circle style="fill:#54C0EB;" cx="276.898" cy="214.204" r="24.033"/>
	<circle style="fill:#54C0EB;" cx="352.131" cy="214.204" r="24.033"/>
	<circle style="fill:#54C0EB;" cx="426.318" cy="214.204" r="24.033"/>
</g>
<g>
</g>
<g>
</g>
<g>
</g>
<g>
</g>
<g>
</g>
<g>
</g>
<g>
</g>
<g>
</g>
<g>
</g>
<g>
</g>
<g>
</g>
<g>
</g>
<g>
</g>
<g>
</g>
<g>
</g>
</svg>
