<?xml version="1.0" encoding="iso-8859-1"?>
<!-- Generator: Adobe Illustrator 19.0.0, SVG Export Plug-In . SVG Version: 6.00 Build 0)  -->
<svg version="1.1" id="Layer_1" xmlns="http://www.w3.org/2000/svg" xmlns:xlink="http://www.w3.org/1999/xlink" x="0px" y="0px"
	 viewBox="0 0 501.551 501.551" style="enable-background:new 0 0 501.551 501.551;" xml:space="preserve">
<path style="fill:#40596B;" d="M402.286,0H99.265C87.771,0,78.367,9.404,78.367,20.898v459.755c0,11.494,9.404,20.898,20.898,20.898
	h303.02c11.494,0,20.898-9.404,20.898-20.898V20.898C423.184,9.404,413.78,0,402.286,0z"/>
<rect x="105.117" y="55.986" style="fill:#84DBFF;" width="291.527" height="353.175"/>
<g>
	<path style="fill:#334A5E;" d="M285.257,21.943h-68.963c-3.135,0-6.269,3.135-6.269,6.269s3.135,6.269,6.269,6.269h68.963
		c3.135,0,6.269-3.135,6.269-6.269C291.527,24.033,288.392,21.943,285.257,21.943z"/>
	<circle style="fill:#334A5E;" cx="250.776" cy="455.575" r="24.033"/>
</g>
<g>
	<path style="fill:#FFFFFF;" d="M143.151,204.8l-20.898-20.898c71.053-71.053,185.992-71.053,257.045,0L358.4,204.8
		C298.841,145.241,202.71,145.241,143.151,204.8z"/>
	<path style="fill:#FFFFFF;" d="M317.649,245.551c-36.571-36.571-96.131-36.571-133.747,0l-20.898-20.898
		c48.065-48.065,127.478-48.065,175.543,0L317.649,245.551z"/>
	<path style="fill:#FFFFFF;" d="M276.898,286.302c-14.629-14.629-37.616-14.629-52.245,0l-20.898-20.898
		c26.122-26.122,67.918-26.122,94.041,0L276.898,286.302z"/>
	<circle style="fill:#FFFFFF;" cx="250.776" cy="313.469" r="20.898"/>
</g>
<g>
</g>
<g>
</g>
<g>
</g>
<g>
</g>
<g>
</g>
<g>
</g>
<g>
</g>
<g>
</g>
<g>
</g>
<g>
</g>
<g>
</g>
<g>
</g>
<g>
</g>
<g>
</g>
<g>
</g>
</svg>
