<?xml version="1.0" encoding="iso-8859-1"?>
<!-- Generator: Adobe Illustrator 19.0.0, SVG Export Plug-In . SVG Version: 6.00 Build 0)  -->
<svg version="1.1" id="Layer_1" xmlns="http://www.w3.org/2000/svg" xmlns:xlink="http://www.w3.org/1999/xlink" x="0px" y="0px"
	 viewBox="0 0 501.551 501.551" style="enable-background:new 0 0 501.551 501.551;" xml:space="preserve">
<path style="fill:#40596B;" d="M394.971,0H106.58C95.086,0,85.682,9.404,85.682,20.898v459.755c0,11.494,9.404,20.898,20.898,20.898
	h288.392c11.494,0,20.898-9.404,20.898-20.898V20.898C415.869,9.404,406.465,0,394.971,0z"/>
<rect x="112.118" y="59.883" style="fill:#F2F2F2;" width="277.943" height="364.669"/>
<g>
	<path style="fill:#334A5E;" d="M273.763,450.351h-51.2c-6.269,0-11.494,5.224-11.494,11.494s5.224,11.494,11.494,11.494h51.2
		c6.269,0,11.494-5.224,11.494-11.494S280.033,450.351,273.763,450.351z"/>
	<path style="fill:#334A5E;" d="M292.571,25.078H208.98c-3.135,0-5.225,2.09-5.225,5.224c0,3.135,2.09,5.224,5.225,5.224h83.592
		c3.135,0,5.224-2.09,5.224-5.224C297.796,27.167,295.706,25.078,292.571,25.078z"/>
</g>
<g>
	<circle style="fill:#FF7058;" cx="237.192" cy="291.527" r="14.629"/>
	<circle style="fill:#FF7058;" cx="301.975" cy="291.527" r="14.629"/>
	<path style="fill:#FF7058;" d="M343.771,157.78H210.024l-6.269-29.257c-1.045-4.18-5.224-7.314-9.404-7.314h-32.392
		c-5.224,0-9.404,4.18-9.404,9.404s4.18,9.404,9.404,9.404h24.033l26.122,124.343c1.045,4.18,5.225,7.314,9.404,7.314h95.086
		c5.224,0,9.404-4.18,9.404-9.404s-4.18-9.404-9.404-9.404h-87.771l-3.135-13.584h103.445c2.09,0,4.18-2.09,5.224-4.18
		l14.629-71.053C350.041,160.914,346.906,157.78,343.771,157.78z M243.461,215.249c0,5.224-4.18,8.359-8.359,8.359
		c-5.224,0-8.359-4.18-8.359-8.359v-35.527c0-5.224,4.18-8.359,8.359-8.359c5.225,0,8.359,4.18,8.359,8.359V215.249z
		 M277.943,215.249c0,5.224-4.18,8.359-8.359,8.359c-5.224,0-8.359-4.18-8.359-8.359v-35.527c0-5.224,4.18-8.359,8.359-8.359
		c5.224,0,8.359,4.18,8.359,8.359V215.249z M312.424,215.249c0,5.224-4.18,8.359-8.359,8.359s-8.359-4.18-8.359-8.359v-35.527
		c0-5.224,4.18-8.359,8.359-8.359s8.359,4.18,8.359,8.359V215.249z"/>
</g>
<path style="fill:#FFD15C;" d="M334.367,331.233H167.184c-6.269,0-10.449,4.18-10.449,10.449v52.245
	c0,6.269,4.18,10.449,10.449,10.449h168.229c6.269,0,10.449-4.18,10.449-10.449v-52.245
	C344.816,335.412,340.637,331.233,334.367,331.233z"/>
<g>
	<path style="fill:#FFFFFF;" d="M204.8,391.837h-14.629v-47.02c6.269,0,10.449,0,13.584,0c5.225,0,8.359,1.045,11.494,3.135
		c3.135,2.09,4.18,5.224,4.18,9.404s-2.09,6.269-6.269,9.404c6.269,2.09,8.359,6.269,8.359,12.539c0,4.18-2.09,7.314-5.224,10.449
		C214.204,389.747,210.024,391.837,204.8,391.837z M199.576,351.086v11.494c1.045,0,3.135,0,4.18,0c5.225,0,8.359-2.09,8.359-6.269
		c0-3.135-2.09-5.224-7.314-5.224C202.71,350.041,200.62,351.086,199.576,351.086z M199.576,368.849v15.673c2.09,0,3.135,0,4.18,0
		c4.18,0,6.269-1.045,8.359-2.09c2.09-1.045,2.09-3.135,2.09-6.269c0-3.135-1.045-4.18-2.09-6.269c-2.09-1.045-4.18-2.09-8.359-2.09
		C202.71,368.849,200.62,368.849,199.576,368.849z"/>
	<path style="fill:#FFFFFF;" d="M229.878,343.771h8.359v32.392c0,2.09,1.045,4.18,2.09,6.269c1.045,2.09,4.18,2.09,6.269,2.09
		c3.135,0,5.225-1.045,7.314-2.09c2.09-2.09,2.09-4.18,2.09-6.269v-32.392h8.359v32.392c0,5.224-2.09,8.359-5.224,11.494
		c-3.135,3.135-7.314,4.18-13.584,4.18c-5.224,0-9.404-1.045-12.539-4.18c-3.135-3.135-4.18-6.269-4.18-11.494v-32.392H229.878z"/>
	<path style="fill:#FFFFFF;" d="M294.661,371.984v19.853h-8.359v-19.853l-15.673-28.212h9.404l11.494,19.853l11.494-19.853h9.404
		L294.661,371.984z"/>
</g>
<g>
</g>
<g>
</g>
<g>
</g>
<g>
</g>
<g>
</g>
<g>
</g>
<g>
</g>
<g>
</g>
<g>
</g>
<g>
</g>
<g>
</g>
<g>
</g>
<g>
</g>
<g>
</g>
<g>
</g>
</svg>
