<?xml version="1.0" encoding="iso-8859-1"?>
<!-- Generator: Adobe Illustrator 19.0.0, SVG Export Plug-In . SVG Version: 6.00 Build 0)  -->
<svg version="1.1" id="Layer_1" xmlns="http://www.w3.org/2000/svg" xmlns:xlink="http://www.w3.org/1999/xlink" x="0px" y="0px"
	 viewBox="0 0 501.551 501.551" style="enable-background:new 0 0 501.551 501.551;" xml:space="preserve">
<path style="fill:#40596B;" d="M394.971,0H106.58C95.086,0,85.682,9.404,85.682,20.898v459.755c0,11.494,9.404,20.898,20.898,20.898
	h288.392c11.494,0,20.898-9.404,20.898-20.898V20.898C415.869,9.404,406.465,0,394.971,0z"/>
<rect x="112.118" y="59.883" style="fill:#84DBFF;" width="277.943" height="364.669"/>
<g>
	<path style="fill:#334A5E;" d="M273.763,450.351h-51.2c-6.269,0-11.494,5.224-11.494,11.494s5.224,11.494,11.494,11.494h51.2
		c6.269,0,11.494-5.224,11.494-11.494S280.033,450.351,273.763,450.351z"/>
	<path style="fill:#334A5E;" d="M292.571,25.078H208.98c-3.135,0-5.225,2.09-5.225,5.224c0,3.135,2.09,5.224,5.225,5.224h83.592
		c3.135,0,5.224-2.09,5.224-5.224C297.796,27.167,295.706,25.078,292.571,25.078z"/>
</g>
<path style="fill:#FFFFFF;" d="M304.065,263.314l-12.539,12.539c-3.135,3.135-8.359,3.135-11.494,0l-63.739-63.739
	c-3.135-3.135-3.135-8.359,0-11.494l12.539-12.539c3.135-3.135,3.135-8.359,0-11.494l-25.078-25.078
	c-3.135-3.135-8.359-3.135-11.494,0l-25.078,25.078c-11.494,11.494-12.539,29.257-2.09,42.841
	c39.706,50.155,58.514,70.008,109.714,109.714c12.539,10.449,31.347,9.404,42.841-2.09l25.078-25.078
	c3.135-3.135,3.135-8.359,0-11.494l-26.122-26.122C312.424,260.18,307.2,260.18,304.065,263.314z"/>
<g>
</g>
<g>
</g>
<g>
</g>
<g>
</g>
<g>
</g>
<g>
</g>
<g>
</g>
<g>
</g>
<g>
</g>
<g>
</g>
<g>
</g>
<g>
</g>
<g>
</g>
<g>
</g>
<g>
</g>
</svg>
