<?xml version="1.0" encoding="iso-8859-1"?>
<!-- Generator: Adobe Illustrator 19.0.0, SVG Export Plug-In . SVG Version: 6.00 Build 0)  -->
<svg version="1.1" id="Layer_1" xmlns="http://www.w3.org/2000/svg" xmlns:xlink="http://www.w3.org/1999/xlink" x="0px" y="0px"
	 viewBox="0 0 501.708 501.708" style="enable-background:new 0 0 501.708 501.708;" xml:space="preserve">
<path style="fill:#FFD15C;" d="M68.075,438.935v-358.4H0.157V439.98c0,1.045,0,2.09,0,3.135s1.045,2.09,1.045,2.09l1.045,2.09
	l18.808,32.392l12.539,21.943l13.584-21.943l18.808-32.392l1.045-2.09c0-1.045,1.045-2.09,1.045-2.09
	C68.075,441.025,68.075,439.98,68.075,438.935z"/>
<g>
	<path style="fill:#CDD6E0;" d="M20.01,447.295V80.536H0.157V439.98c0,1.045,0,2.09,0,3.135s1.045,2.09,1.045,2.09l1.045,2.09
		L20.01,447.295L20.01,447.295z"/>
	<path style="fill:#CDD6E0;" d="M68.075,438.935v-358.4H48.222v366.759h17.763l1.045-2.09c0-1.045,1.045-2.09,1.045-2.09
		C68.075,441.025,68.075,439.98,68.075,438.935z"/>
</g>
<polygon style="fill:#334A5E;" points="47.177,479.687 21.055,479.687 33.593,501.629 "/>
<path style="fill:#40596B;" d="M47.177,0.078H21.055c-11.494,0-20.898,9.404-20.898,20.898v38.661h67.918V20.976
	C68.075,9.482,58.671,0.078,47.177,0.078z"/>
<rect x="20.01" y="80.536" style="fill:#ACB3BA;" width="28.212" height="366.759"/>
<rect y="59.387" style="fill:#F2F2F2;" width="67.918" height="20.898"/>
<path style="fill:#40596B;" d="M442.149,0.078H150.622c-11.494,0-20.898,9.404-20.898,20.898v459.755
	c0,11.494,9.404,20.898,20.898,20.898h291.527c11.494,0,20.898-9.404,20.898-20.898V20.976
	C463.047,9.482,453.642,0.078,442.149,0.078z"/>
<rect x="156.891" y="62.772" style="fill:#FFFFFF;" width="278.988" height="350.041"/>
<g>
	<ellipse style="fill:#334A5E;" cx="296.908" cy="456.699" rx="22.988" ry="22.988"/>
	<path style="fill:#334A5E;" d="M341.838,24.111h-90.906c-4.18,0-6.269,3.135-6.269,6.269s3.135,6.269,6.269,6.269h90.906
		c4.18,0,6.269-3.135,6.269-6.269S346.018,24.111,341.838,24.111z"/>
	<path style="fill:#334A5E;" d="M227.944,24.111h-17.763c-4.18,0-6.269,3.135-6.269,6.269s3.135,6.269,6.269,6.269h17.763
		c4.18,0,6.269-3.135,6.269-6.269S231.079,24.111,227.944,24.111z"/>
</g>
<rect x="270.785" y="246.674" style="fill:#F2F2F2;" width="145.241" height="24.033"/>
<rect x="177.789" y="222.642" style="fill:#CDD6E0;" width="72.098" height="72.098"/>
<rect x="270.785" y="346.984" style="fill:#F2F2F2;" width="145.241" height="24.033"/>
<rect x="177.789" y="322.952" style="fill:#CDD6E0;" width="72.098" height="72.098"/>
<g>
	<path style="fill:#334A5E;" d="M255.112,141.14v37.616c0,22.988-18.808,40.751-40.751,40.751s-40.751-17.763-40.751-40.751
		c0,21.943-18.808,40.751-40.751,40.751c-1.045,0-2.09,0-2.09,0V141.14H255.112z"/>
	<path style="fill:#334A5E;" d="M337.659,141.14h-81.502v37.616c0,22.988,18.808,40.751,40.751,40.751l0,0
		c21.943,0,40.751-17.763,40.751-40.751c0,21.943,18.808,40.751,40.751,40.751c22.988,0,40.751-18.808,40.751-40.751V141.14H337.659
		L337.659,141.14z"/>
	<path style="fill:#334A5E;" d="M463.047,141.14v78.367c-1.045,0-2.09,0-3.135,0c-22.988,0-40.751-18.808-40.751-40.751V141.14
		H463.047z"/>
</g>
<g>
	<path style="fill:#F2F2F2;" d="M255.112,141.14v37.616c0,22.988-18.808,40.751-40.751,40.751s-40.751-17.763-40.751-40.751
		c0,13.584-6.269,25.078-16.718,32.392V141.14H255.112z"/>
	<path style="fill:#F2F2F2;" d="M337.659,141.14h-81.502v37.616c0,22.988,18.808,40.751,40.751,40.751l0,0
		c21.943,0,40.751-17.763,40.751-40.751c0,21.943,18.808,40.751,40.751,40.751c22.988,0,40.751-18.808,40.751-40.751V141.14H337.659
		L337.659,141.14z"/>
	<path style="fill:#F2F2F2;" d="M435.879,141.14v70.008c-10.449-7.314-16.718-19.853-16.718-33.437V141.14H435.879z"/>
</g>
<path style="fill:#54C0EB;" d="M91.063,130.691v37.616c0,22.988,18.808,40.751,40.751,40.751s40.751-18.808,40.751-40.751v-37.616
	H91.063z"/>
<path style="fill:#F1543F;" d="M173.61,130.691v37.616c0,22.988,18.808,40.751,40.751,40.751s40.751-18.808,40.751-40.751v-37.616
	H173.61z"/>
<path style="fill:#54C0EB;" d="M255.112,130.691v37.616c0,22.988,18.808,40.751,40.751,40.751c21.943,0,40.751-18.808,40.751-40.751
	v-37.616H255.112z"/>
<path style="fill:#F1543F;" d="M337.659,130.691v37.616c0,22.988,18.808,40.751,40.751,40.751c22.988,0,40.751-18.808,40.751-40.751
	v-37.616H337.659z"/>
<path style="fill:#54C0EB;" d="M419.161,130.691v37.616c0,22.988,18.808,40.751,40.751,40.751c22.988,0,40.751-18.808,40.751-40.751
	v-37.616H419.161z"/>
<polygon style="fill:#84DBFF;" points="213.316,62.772 156.891,62.772 91.063,130.691 173.61,130.691 "/>
<polygon style="fill:#FF7058;" points="268.696,62.772 213.316,62.772 173.61,130.691 255.112,130.691 "/>
<polygon style="fill:#84DBFF;" points="324.075,62.772 268.696,62.772 255.112,130.691 337.659,130.691 "/>
<polygon style="fill:#FF7058;" points="380.5,62.772 324.075,62.772 337.659,130.691 419.161,130.691 "/>
<polygon style="fill:#84DBFF;" points="435.879,62.772 380.5,62.772 419.161,130.691 501.708,130.691 "/>
<g>
</g>
<g>
</g>
<g>
</g>
<g>
</g>
<g>
</g>
<g>
</g>
<g>
</g>
<g>
</g>
<g>
</g>
<g>
</g>
<g>
</g>
<g>
</g>
<g>
</g>
<g>
</g>
<g>
</g>
</svg>
