<?xml version="1.0" encoding="iso-8859-1"?>
<!-- Generator: Adobe Illustrator 19.0.0, SVG Export Plug-In . SVG Version: 6.00 Build 0)  -->
<svg version="1.1" id="Layer_1" xmlns="http://www.w3.org/2000/svg" xmlns:xlink="http://www.w3.org/1999/xlink" x="0px" y="0px"
	 viewBox="0 0 501.551 501.551" style="enable-background:new 0 0 501.551 501.551;" xml:space="preserve">
<path style="fill:#40596B;" d="M295.706,0H29.257C15.673,0,4.18,11.494,4.18,25.078v451.396c0,13.584,11.494,25.078,25.078,25.078
	h266.449c13.584,0,25.078-11.494,25.078-25.078V25.078C320.784,11.494,309.29,0,295.706,0z"/>
<rect x="17.345" y="49.267" style="fill:#FFFFFF;" width="291.527" height="378.253"/>
<g>
	<circle style="fill:#334A5E;" cx="163.004" cy="463.935" r="20.898"/>
	<path style="fill:#334A5E;" d="M197.486,17.763h-70.008c-3.135,0-6.269,3.135-6.269,6.269s3.135,6.269,6.269,6.269h70.008
		c3.135,0,6.269-3.135,6.269-6.269S201.665,17.763,197.486,17.763z"/>
</g>
<path style="fill:#84DBFF;" d="M476.473,108.669H110.759c-11.494,0-20.898,9.404-20.898,20.898v216.294
	c0,11.494,9.404,20.898,20.898,20.898h365.714c11.494,0,20.898-9.404,20.898-20.898V129.567
	C497.371,118.073,487.967,108.669,476.473,108.669z"/>
<rect x="350.041" y="144.196" style="fill:#FF7058;" width="123.298" height="71.053"/>
<g>
	<rect x="132.702" y="169.273" style="fill:#FFFFFF;" width="115.984" height="19.853"/>
	<rect x="132.702" y="240.327" style="fill:#FFFFFF;" width="160.914" height="19.853"/>
</g>
<rect x="132.702" y="311.38" style="fill:#ACB3BA;" width="71.053" height="19.853"/>
<rect x="222.563" y="311.38" style="fill:#40596B;" width="71.053" height="19.853"/>
<rect x="311.38" y="311.38" style="fill:#ACB3BA;" width="71.053" height="19.853"/>
<rect x="401.241" y="311.38" style="fill:#40596B;" width="71.053" height="19.853"/>
<g>
</g>
<g>
</g>
<g>
</g>
<g>
</g>
<g>
</g>
<g>
</g>
<g>
</g>
<g>
</g>
<g>
</g>
<g>
</g>
<g>
</g>
<g>
</g>
<g>
</g>
<g>
</g>
<g>
</g>
</svg>
