<?xml version="1.0" encoding="iso-8859-1"?>
<!-- Generator: Adobe Illustrator 19.0.0, SVG Export Plug-In . SVG Version: 6.00 Build 0)  -->
<svg version="1.1" id="Layer_1" xmlns="http://www.w3.org/2000/svg" xmlns:xlink="http://www.w3.org/1999/xlink" x="0px" y="0px"
	 viewBox="0 0 501.551 501.551" style="enable-background:new 0 0 501.551 501.551;" xml:space="preserve">
<path style="fill:#40596B;" d="M322.873,0H20.898C9.404,0,0,9.404,0,20.898v459.755c0,11.494,9.404,20.898,20.898,20.898h301.975
	c11.494,0,20.898-9.404,20.898-20.898V20.898C343.771,9.404,334.367,0,322.873,0z"/>
<rect x="26.363" y="55.306" style="fill:#FFFFFF;" width="291.527" height="353.176"/>
<g>
	<path style="fill:#334A5E;" d="M206.89,21.943h-68.963c-3.135,0-6.269,3.135-6.269,6.269s3.135,6.269,6.269,6.269h68.963
		c3.135,0,6.269-3.135,6.269-6.269C212.114,24.033,210.024,21.943,206.89,21.943z"/>
	<circle style="fill:#334A5E;" cx="172.408" cy="455.575" r="24.033"/>
</g>
<g>
	<rect x="100.31" y="272.718" style="fill:#CDD6E0;" width="143.151" height="24.033"/>
	<rect x="100.31" y="316.604" style="fill:#CDD6E0;" width="143.151" height="24.033"/>
</g>
<g>
	<rect x="214.204" y="272.718" style="fill:#ACB3BA;" width="29.257" height="24.033"/>
	<rect x="214.204" y="316.604" style="fill:#ACB3BA;" width="29.257" height="24.033"/>
</g>
<rect x="100.31" y="86.727" style="fill:#F2F2F2;" width="143.151" height="163.004"/>
<g>
	<circle style="fill:#84DBFF;" cx="172.408" cy="137.927" r="31.347"/>
	<path style="fill:#84DBFF;" d="M200.62,176.588c-8.359,6.269-17.763,9.404-28.212,9.404s-20.898-3.135-28.212-9.404
		c-18.808,10.449-31.347,30.302-31.347,53.29h121.208C231.967,206.89,219.429,187.037,200.62,176.588z"/>
</g>
<path style="fill:#ACB3BA;" d="M481.698,374.073l19.853-12.539l-7.314-25.078h-22.988c-3.135-6.269-7.314-11.494-11.494-16.718
	l8.359-21.943l-20.898-15.673l-18.808,13.584c-6.269-3.135-13.584-5.224-19.853-6.269l-7.314-22.988h-26.122l-7.314,21.943
	c-6.269,1.045-13.584,3.135-19.853,6.269l-18.808-14.629l-20.898,14.629l7.314,21.943c-2.09,2.09-4.18,5.224-6.269,7.314l0,0
	c-2.09,3.135-4.18,6.269-6.269,8.359l-22.988-1.045l-8.359,25.078l18.808,13.584c-1.045,7.314-1.045,13.584,0,20.898l-19.853,12.539
	l7.314,25.078h22.988c3.135,6.269,7.314,11.494,11.494,16.718l-8.359,21.943l20.898,15.673l18.808-13.584
	c6.269,3.135,13.584,5.224,19.853,6.269l6.269,21.943h26.122l7.314-21.943c6.269-1.045,13.584-3.135,19.853-6.269l18.808,14.629
	l20.898-14.629l-7.314-21.943c2.09-2.09,4.18-5.224,6.269-7.314l0,0c2.09-3.135,4.18-6.269,6.269-8.359l22.988,1.045l8.359-25.078
	l-18.808-13.584C482.743,387.657,482.743,380.343,481.698,374.073z M386.612,423.184c-21.943,0-40.751-17.763-40.751-40.751
	s17.763-40.751,40.751-40.751c21.943,0,40.751,17.763,40.751,40.751S408.555,423.184,386.612,423.184z"/>
<path style="fill:#CDD6E0;" d="M386.612,316.604c-36.571,0-65.829,29.257-65.829,65.829s29.257,65.829,65.829,65.829
	s65.829-29.257,65.829-65.829S422.139,316.604,386.612,316.604z M386.612,423.184c-21.943,0-40.751-17.763-40.751-40.751
	s17.763-40.751,40.751-40.751c21.943,0,40.751,17.763,40.751,40.751S408.555,423.184,386.612,423.184z"/>
<g>
</g>
<g>
</g>
<g>
</g>
<g>
</g>
<g>
</g>
<g>
</g>
<g>
</g>
<g>
</g>
<g>
</g>
<g>
</g>
<g>
</g>
<g>
</g>
<g>
</g>
<g>
</g>
<g>
</g>
</svg>
