<?xml version="1.0" encoding="iso-8859-1"?>
<!-- Generator: Adobe Illustrator 19.0.0, SVG Export Plug-In . SVG Version: 6.00 Build 0)  -->
<svg version="1.1" id="Layer_1" xmlns="http://www.w3.org/2000/svg" xmlns:xlink="http://www.w3.org/1999/xlink" x="0px" y="0px"
	 viewBox="0 0 501.551 501.551" style="enable-background:new 0 0 501.551 501.551;" xml:space="preserve">
<rect y="52.245" style="fill:#F2F2F2;" width="387.657" height="449.306"/>
<rect style="fill:#84DBFF;" width="387.657" height="52.245"/>
<g>
	<rect x="107.624" y="303.02" style="fill:#CDD6E0;" width="24.033" height="50.155"/>
	<rect x="63.739" y="271.673" style="fill:#CDD6E0;" width="24.033" height="82.547"/>
	<rect x="20.898" y="318.694" style="fill:#CDD6E0;" width="24.033" height="35.527"/>
	<rect x="194.351" y="227.788" style="fill:#CDD6E0;" width="24.033" height="125.388"/>
	<rect x="150.465" y="246.596" style="fill:#CDD6E0;" width="24.033" height="106.58"/>
</g>
<rect x="20.898" y="362.58" style="fill:#40596B;" width="197.486" height="9.404"/>
<rect x="20.898" y="410.645" style="fill:#FFD15C;" width="197.486" height="24.033"/>
<rect x="20.898" y="453.486" style="fill:#FF7058;" width="197.486" height="24.033"/>
<rect x="20.898" y="96.131" style="fill:#FFD15C;" width="91.951" height="87.771"/>
<rect x="147.331" y="96.131" style="fill:#FF7058;" width="91.951" height="87.771"/>
<rect x="274.808" y="96.131" style="fill:#ACB3BA;" width="91.951" height="87.771"/>
<g>
	<rect x="364.669" y="253.91" style="fill:#CDD6E0;" width="45.976" height="45.976"/>
	
		<rect x="283.148" y="283.209" transform="matrix(-0.7071 0.7071 -0.7071 -0.7071 739.1205 306.2401)" style="fill:#CDD6E0;" width="45.975" height="45.975"/>
</g>
<rect x="350.041" y="224.653" style="fill:#ACB3BA;" width="75.233" height="29.257"/>
<circle style="fill:#4CDBC4;" cx="387.657" cy="387.657" r="113.894"/>
<path style="fill:#FFFFFF;" d="M387.657,475.429c-48.065,0-87.771-39.706-87.771-87.771c0-48.065,39.706-87.771,87.771-87.771
	s87.771,39.706,87.771,87.771C475.429,435.722,435.722,475.429,387.657,475.429z"/>
<rect x="365.16" y="254.276" style="fill:#B8CAD8;" width="45.976" height="10.449"/>
<g>
	<rect x="386.612" y="310.335" style="fill:#ACB3BA;" width="2.09" height="9.404"/>
	<rect x="386.612" y="455.575" style="fill:#ACB3BA;" width="2.09" height="9.404"/>
	<polygon style="fill:#ACB3BA;" points="373.029,311.38 375.118,320.784 377.208,320.784 375.118,311.38 	"/>
	<polygon style="fill:#ACB3BA;" points="398.106,454.531 400.196,463.935 402.286,463.935 400.196,454.531 	"/>
	
		<rect x="361.479" y="314.613" transform="matrix(-0.9398 0.3416 -0.3416 -0.9398 812.3206 495.5773)" style="fill:#ACB3BA;" width="2.09" height="9.404"/>
	
		<rect x="411.665" y="451.325" transform="matrix(-0.9398 0.3416 -0.3416 -0.9398 956.3769 743.6309)" style="fill:#ACB3BA;" width="2.09" height="9.404"/>
	<polygon style="fill:#ACB3BA;" points="347.951,320.784 353.176,329.143 354.22,328.098 350.041,319.739 	"/>
	<polygon style="fill:#ACB3BA;" points="421.094,447.216 425.273,455.575 427.363,454.531 423.184,446.171 	"/>
	<polygon style="fill:#ACB3BA;" points="337.502,329.143 342.727,336.457 344.816,334.367 338.547,328.098 	"/>
	<polygon style="fill:#ACB3BA;" points="430.498,440.947 436.767,447.216 437.812,446.171 432.588,438.857 	"/>
	<polygon style="fill:#ACB3BA;" points="328.098,338.547 334.367,344.816 336.457,342.727 329.143,337.502 	"/>
	<polygon style="fill:#ACB3BA;" points="438.857,432.588 446.171,437.812 447.216,436.767 440.947,430.498 	"/>
	<polygon style="fill:#ACB3BA;" points="329.143,353.176 320.784,347.951 319.739,350.041 328.098,354.22 	"/>
	<polygon style="fill:#ACB3BA;" points="446.171,423.184 454.531,427.363 455.575,425.273 447.216,421.094 	"/>
	
		<rect x="318.67" y="357.811" transform="matrix(-0.3416 0.9398 -0.9398 -0.3416 769.6383 185.8718)" style="fill:#ACB3BA;" width="2.09" height="9.404"/>
	<polygon style="fill:#ACB3BA;" points="451.396,411.69 459.755,414.824 460.8,412.735 452.441,409.6 	"/>
	<polygon style="fill:#ACB3BA;" points="320.784,375.118 311.38,373.029 311.38,375.118 320.784,377.208 	"/>
	<polygon style="fill:#ACB3BA;" points="454.531,400.196 463.935,402.286 463.935,400.196 454.531,398.106 	"/>
	<rect x="310.335" y="386.612" style="fill:#ACB3BA;" width="9.404" height="2.09"/>
	<rect x="455.575" y="386.612" style="fill:#ACB3BA;" width="9.404" height="2.09"/>
	<polygon style="fill:#ACB3BA;" points="320.784,398.106 311.38,400.196 311.38,402.286 320.784,400.196 	"/>
	<polygon style="fill:#ACB3BA;" points="454.531,377.208 463.935,375.118 463.935,373.029 454.531,375.118 	"/>
	
		<rect x="314.544" y="411.745" transform="matrix(-0.9398 0.3416 -0.3416 -0.9398 760.3004 691.6883)" style="fill:#ACB3BA;" width="9.404" height="2.09"/>
	<polygon style="fill:#ACB3BA;" points="452.441,365.714 460.8,362.58 459.755,360.49 451.396,363.624 	"/>
	<polygon style="fill:#ACB3BA;" points="328.098,421.094 319.739,425.273 320.784,427.363 329.143,423.184 	"/>
	<polygon style="fill:#ACB3BA;" points="447.216,354.22 455.575,350.041 454.531,347.951 446.171,353.176 	"/>
	<polygon style="fill:#ACB3BA;" points="328.098,436.767 329.143,437.812 336.457,432.588 334.367,430.498 	"/>
	<polygon style="fill:#ACB3BA;" points="447.216,338.547 446.171,337.502 438.857,342.727 440.947,344.816 	"/>
	<polygon style="fill:#ACB3BA;" points="337.502,446.171 338.547,447.216 344.816,440.947 342.727,438.857 	"/>
	<polygon style="fill:#ACB3BA;" points="436.767,328.098 430.498,334.367 432.588,336.457 437.812,329.143 	"/>
	<polygon style="fill:#ACB3BA;" points="353.176,446.171 347.951,454.531 350.041,455.575 354.22,447.216 	"/>
	<polygon style="fill:#ACB3BA;" points="425.273,319.739 421.094,328.098 423.184,329.143 427.363,320.784 	"/>
	
		<rect x="357.728" y="454.627" transform="matrix(-0.3427 0.9394 -0.9394 -0.3427 914.7166 271.3558)" style="fill:#ACB3BA;" width="9.404" height="2.09"/>
	
		<rect x="408.113" y="318.785" transform="matrix(-0.3416 0.9398 -0.9398 -0.3416 854.428 41.1086)" style="fill:#ACB3BA;" width="9.404" height="2.09"/>
	<polygon style="fill:#ACB3BA;" points="375.118,454.531 373.029,463.935 375.118,463.935 377.208,454.531 	"/>
	<polygon style="fill:#ACB3BA;" points="400.196,311.38 398.106,320.784 400.196,320.784 402.286,311.38 	"/>
</g>
<path style="fill:#FF7058;" d="M400.196,388.702c0,7.314-5.224,12.539-12.539,12.539c-7.314,0-12.539-5.224-12.539-12.539
	c0-7.314,12.539-43.886,12.539-43.886S400.196,381.388,400.196,388.702z"/>
<circle style="fill:#FFFFFF;" cx="387.657" cy="388.702" r="6.269"/>
<g>
</g>
<g>
</g>
<g>
</g>
<g>
</g>
<g>
</g>
<g>
</g>
<g>
</g>
<g>
</g>
<g>
</g>
<g>
</g>
<g>
</g>
<g>
</g>
<g>
</g>
<g>
</g>
<g>
</g>
</svg>
