<?xml version="1.0" encoding="iso-8859-1"?>
<!-- Generator: Adobe Illustrator 19.0.0, SVG Export Plug-In . SVG Version: 6.00 Build 0)  -->
<svg version="1.1" id="Layer_1" xmlns="http://www.w3.org/2000/svg" xmlns:xlink="http://www.w3.org/1999/xlink" x="0px" y="0px"
	 viewBox="0 0 501.551 501.551" style="enable-background:new 0 0 501.551 501.551;" xml:space="preserve">
<rect x="224.653" y="49.11" style="fill:#ACB3BA;" width="52.245" height="39.706"/>
<g>
	<path style="fill:#CDD6E0;" d="M440.947,127.478l-30.302-30.302c-4.18-4.18-10.449-4.18-14.629,0L358.4,134.792l44.931,44.931
		l37.616-37.616C445.126,137.927,445.126,131.657,440.947,127.478z"/>
	<path style="fill:#CDD6E0;" d="M89.861,97.176l-30.302,30.302c-4.18,4.18-4.18,10.449,0,14.629l37.616,37.616l44.931-44.931
		L104.49,97.176C100.31,92.996,94.041,92.996,89.861,97.176z"/>
	<path style="fill:#CDD6E0;" d="M299.886,0h-98.22c-13.584,0-24.033,10.449-24.033,24.033s10.449,24.033,24.033,24.033h98.22
		c13.584,0,24.033-10.449,24.033-24.033S313.469,0,299.886,0z"/>
</g>
<circle style="fill:#4CDBC4;" cx="250.775" cy="288.392" r="213.159"/>
<path style="fill:#F2F2F2;" d="M250.775,454.531c-91.951,0-166.139-74.188-166.139-166.139s74.188-166.139,166.139-166.139
	s166.139,74.188,166.139,166.139S342.727,454.531,250.775,454.531z"/>
<g>
	<rect x="248.686" y="133.747" style="fill:#ACB3BA;" width="3.135" height="15.673"/>
	<rect x="248.686" y="427.363" style="fill:#ACB3BA;" width="3.135" height="15.673"/>
	
		<rect x="223.616" y="135.836" transform="matrix(-0.9848 0.1734 -0.1734 -0.9848 471.8701 246.12)" style="fill:#ACB3BA;" width="3.135" height="15.673"/>
	
		<rect x="274.772" y="425.255" transform="matrix(-0.9848 0.1734 -0.1734 -0.9848 623.593 811.7025)" style="fill:#ACB3BA;" width="3.135" height="15.673"/>
	
		<rect x="198.471" y="142.263" transform="matrix(-0.9399 0.3415 -0.3415 -0.9399 439.3097 222.8646)" style="fill:#ACB3BA;" width="3.135" height="15.674"/>
	
		<rect x="298.988" y="419.234" transform="matrix(-0.9399 0.3415 -0.3415 -0.9399 728.8848 725.8293)" style="fill:#ACB3BA;" width="3.135" height="15.674"/>
	<polygon style="fill:#ACB3BA;" points="171.363,155.69 179.722,168.229 182.857,167.184 174.498,153.6 	"/>
	<polygon style="fill:#ACB3BA;" points="318.694,409.6 327.053,423.184 330.188,421.094 321.829,408.555 	"/>
	
		<rect x="154.874" y="168.181" transform="matrix(-0.7662 0.6426 -0.6426 -0.7662 389.4152 210.3527)" style="fill:#ACB3BA;" width="3.135" height="15.673"/>
	
		<rect x="343.568" y="392.912" transform="matrix(-0.7663 0.6425 -0.6425 -0.7663 867.0869 486.0919)" style="fill:#ACB3BA;" width="3.135" height="15.674"/>
	
		<rect x="136.08" y="186.558" transform="matrix(-0.6432 0.7657 -0.7657 -0.6432 375.0293 214.0325)" style="fill:#ACB3BA;" width="3.135" height="15.673"/>
	
		<rect x="361.708" y="375.264" transform="matrix(-0.6432 0.7657 -0.7657 -0.6432 890.2731 351.3518)" style="fill:#ACB3BA;" width="3.135" height="15.673"/>
	<polygon style="fill:#ACB3BA;" points="115.984,212.114 129.567,220.473 130.612,217.339 118.073,208.98 	"/>
	<polygon style="fill:#ACB3BA;" points="370.939,359.445 383.478,367.804 385.567,364.669 371.984,356.31 	"/>
	
		<rect x="110.62" y="230.37" transform="matrix(-0.3421 0.9397 -0.9397 -0.3421 374.4008 214.2769)" style="fill:#ACB3BA;" width="3.135" height="15.674"/>
	
		<rect x="387.513" y="331.676" transform="matrix(-0.3421 0.9397 -0.9397 -0.3421 841.2096 90.0508)" style="fill:#ACB3BA;" width="3.135" height="15.674"/>
	
		<rect x="104.371" y="254.904" transform="matrix(-0.174 0.9847 -0.9847 -0.174 383.1045 204.1365)" style="fill:#ACB3BA;" width="3.135" height="15.673"/>
	
		<rect x="394.087" y="306.161" transform="matrix(-0.1741 0.9847 -0.9847 -0.1741 773.7407 -20.9456)" style="fill:#ACB3BA;" width="3.135" height="15.673"/>
	<rect x="96.131" y="286.302" style="fill:#ACB3BA;" width="15.673" height="3.135"/>
	<rect x="389.747" y="286.302" style="fill:#ACB3BA;" width="15.673" height="3.135"/>
	
		<rect x="98.229" y="312.398" transform="matrix(-0.9847 0.174 -0.174 -0.9847 265.1444 604.6852)" style="fill:#ACB3BA;" width="15.673" height="3.135"/>
	
		<rect x="387.646" y="261.233" transform="matrix(-0.9847 0.1741 -0.1741 -0.9847 830.6796 452.7317)" style="fill:#ACB3BA;" width="15.673" height="3.135"/>
	
		<rect x="104.287" y="336.609" transform="matrix(-0.9397 0.3421 -0.3421 -0.9397 333.1693 617.5933)" style="fill:#ACB3BA;" width="15.674" height="3.135"/>
	
		<rect x="381.257" y="236.082" transform="matrix(-0.9397 0.3421 -0.3421 -0.9397 836.0098 327.8557)" style="fill:#ACB3BA;" width="15.674" height="3.135"/>
	<polygon style="fill:#ACB3BA;" points="129.567,356.31 115.984,364.669 118.073,367.804 130.612,359.445 	"/>
	<polygon style="fill:#ACB3BA;" points="371.984,220.473 385.567,212.114 383.478,208.98 370.939,217.339 	"/>
	
		<rect x="130.583" y="381.16" transform="matrix(-0.7658 0.643 -0.643 -0.7658 490.5332 586.8267)" style="fill:#ACB3BA;" width="15.673" height="3.135"/>
	
		<rect x="355.316" y="192.51" transform="matrix(-0.7657 0.6432 -0.6432 -0.7657 766.0492 109.102)" style="fill:#ACB3BA;" width="15.673" height="3.135"/>
	
		<rect x="148.186" y="399.297" transform="matrix(-0.6429 0.766 -0.766 -0.6429 563.3769 539.0609)" style="fill:#ACB3BA;" width="15.674" height="3.135"/>
	
		<rect x="336.933" y="173.649" transform="matrix(-0.6425 0.7663 -0.7663 -0.6425 700.5488 23.5975)" style="fill:#ACB3BA;" width="15.674" height="3.135"/>
	<polygon style="fill:#ACB3BA;" points="171.363,421.094 174.498,423.184 182.857,409.6 179.722,408.555 	"/>
	<polygon style="fill:#ACB3BA;" points="327.053,153.6 318.694,167.184 321.829,168.229 330.188,155.69 	"/>
	
		<rect x="191.847" y="425.052" transform="matrix(-0.3415 0.9399 -0.9399 -0.3415 668.8474 384.6284)" style="fill:#ACB3BA;" width="15.674" height="3.135"/>
	
		<rect x="293.11" y="148.116" transform="matrix(-0.3415 0.9399 -0.9399 -0.3415 544.4036 -82.055)" style="fill:#ACB3BA;" width="15.674" height="3.135"/>
	
		<rect x="217.296" y="431.64" transform="matrix(-0.1734 0.9848 -0.9848 -0.1734 690.8159 286.6081)" style="fill:#ACB3BA;" width="15.673" height="3.135"/>
	
		<rect x="268.566" y="142.008" transform="matrix(-0.1734 0.9848 -0.9848 -0.1734 465.7325 -103.7421)" style="fill:#ACB3BA;" width="15.673" height="3.135"/>
	<path style="fill:#ACB3BA;" d="M278.988,287.347c0,15.673-12.539,28.212-28.212,28.212s-28.212-12.539-28.212-28.212
		c0-15.673,28.212-83.592,28.212-83.592S278.988,271.673,278.988,287.347z"/>
</g>
<circle style="fill:#FFFFFF;" cx="250.775" cy="287.347" r="15.673"/>
<rect x="224.653" y="49.11" style="fill:#A0ACB5;" width="52.245" height="15.673"/>
<g>
</g>
<g>
</g>
<g>
</g>
<g>
</g>
<g>
</g>
<g>
</g>
<g>
</g>
<g>
</g>
<g>
</g>
<g>
</g>
<g>
</g>
<g>
</g>
<g>
</g>
<g>
</g>
<g>
</g>
</svg>
