<?xml version="1.0" encoding="iso-8859-1"?>
<!-- Generator: Adobe Illustrator 19.0.0, SVG Export Plug-In . SVG Version: 6.00 Build 0)  -->
<svg version="1.1" id="Layer_1" xmlns="http://www.w3.org/2000/svg" xmlns:xlink="http://www.w3.org/1999/xlink" x="0px" y="0px"
	 viewBox="0 0 501.551 501.551" style="enable-background:new 0 0 501.551 501.551;" xml:space="preserve">
<g>
	<rect x="226.743" y="29.257" style="fill:#CDD6E0;" width="42.841" height="70.008"/>
	
		<rect x="58.358" y="96.072" transform="matrix(-0.7071 0.7071 -0.7071 -0.7071 247.6028 159.5906)" style="fill:#CDD6E0;" width="64.783" height="70.007"/>
	<path style="fill:#CDD6E0;" d="M317.649,0H178.678c-11.494,0-20.898,9.404-20.898,20.898s9.404,20.898,20.898,20.898h138.971
		c11.494,0,20.898-9.404,20.898-20.898S329.143,0,317.649,0z"/>
</g>
<circle style="fill:#334A5E;" cx="247.641" cy="283.167" r="218.384"/>
<rect x="226.743" y="42.841" style="fill:#ACB3BA;" width="42.841" height="11.494"/>
<circle style="fill:#FFFFFF;" cx="247.641" cy="283.167" r="161.959"/>
<circle style="fill:#FF7058;" cx="247.641" cy="283.167" r="94.041"/>
<circle style="fill:#FFFFFF;" cx="247.641" cy="283.167" r="26.122"/>
<path style="fill:#F2F2F2;" d="M247.641,121.208c-88.816,0-161.959,72.098-161.959,161.959c0,2.09,0,5.224,0,7.314v1.045
	c0,0,0,0,0,1.045c4.18-85.682,75.233-153.6,161.959-153.6s156.735,67.918,161.959,153.6v-1.045c0-2.09,0-5.224,0-7.314
	C409.6,193.306,337.502,121.208,247.641,121.208z"/>
<path style="fill:#4CDBC4;" d="M399.151,125.388l-137.927,157.78c-3.135,3.135-8.359,3.135-12.539,0
	c-4.18-3.135-5.224-9.404-2.09-12.539l138.971-157.78L399.151,125.388z"/>
<polygon style="fill:#FFD15C;" points="431.543,73.143 427.363,33.437 374.073,94.041 379.298,133.747 419.004,132.702 
	472.294,72.098 "/>
<g>
</g>
<g>
</g>
<g>
</g>
<g>
</g>
<g>
</g>
<g>
</g>
<g>
</g>
<g>
</g>
<g>
</g>
<g>
</g>
<g>
</g>
<g>
</g>
<g>
</g>
<g>
</g>
<g>
</g>
</svg>
