<?xml version="1.0" encoding="iso-8859-1"?>
<!-- Generator: Adobe Illustrator 19.0.0, SVG Export Plug-In . SVG Version: 6.00 Build 0)  -->
<svg version="1.1" id="Layer_1" xmlns="http://www.w3.org/2000/svg" xmlns:xlink="http://www.w3.org/1999/xlink" x="0px" y="0px"
	 viewBox="0 0 501.551 501.551" style="enable-background:new 0 0 501.551 501.551;" xml:space="preserve">
<path style="fill:#FFD05C;" d="M448.261,64.784H53.29c-11.494,0-20.898,9.404-20.898,20.898v394.971
	c0,11.494,9.404,20.898,20.898,20.898h394.971c11.494,0,20.898-9.404,20.898-20.898V85.682
	C469.159,74.188,459.755,64.784,448.261,64.784z"/>
<path id="SVGCleanerId_0" style="fill:#FFFFFF;" d="M403.331,83.592H98.22c-11.494,0-20.898,9.404-20.898,20.898v331.233
	c0,11.494,9.404,20.898,20.898,20.898h234.057l92.996-92.996V104.49C424.229,92.996,414.824,83.592,403.331,83.592z"/>
<g>
	<path id="SVGCleanerId_0_1_" style="fill:#FFFFFF;" d="M403.331,83.592H98.22c-11.494,0-20.898,9.404-20.898,20.898v331.233
		c0,11.494,9.404,20.898,20.898,20.898h234.057l92.996-92.996V104.49C424.229,92.996,414.824,83.592,403.331,83.592z"/>
</g>
<path style="fill:#65C5B8;" d="M332.278,456.62l92.996-92.996h-72.098c-11.494,0-20.898,9.404-20.898,20.898
	C332.278,384.522,332.278,456.62,332.278,456.62z"/>
<path style="fill:#FF7058;" d="M313.469,32.392h-30.302C283.167,14.629,268.539,0,250.776,0s-32.392,14.629-32.392,32.392h-30.302
	c-18.808,0-33.437,14.629-33.437,33.437v37.616h192.261V65.829C346.906,47.02,332.278,32.392,313.469,32.392z M250.776,14.629
	c9.404,0,17.763,8.359,17.763,17.763s-8.359,17.763-17.763,17.763c-9.404,0-17.763-8.359-17.763-17.763
	S241.371,14.629,250.776,14.629z"/>
<circle style="fill:#CDD6E0;" cx="136.882" cy="169.273" r="20.898"/>
<g>
	<path style="fill:#ACB3BA;" d="M144.196,267.494l13.584-13.584c2.09-2.09,2.09-5.225,0-7.314s-5.224-2.09-7.314,0l-13.584,13.584
		l-13.584-13.584c-2.09-2.09-5.224-2.09-7.314,0c-2.09,2.09-2.09,5.224,0,7.314l13.584,13.584l-13.584,13.584
		c-2.09,2.09-2.09,5.224,0,7.314c1.045,1.045,2.09,1.045,4.18,1.045c1.045,0,3.135,0,4.18-1.045l13.584-13.584l13.584,13.584
		c1.045,1.045,2.09,1.045,4.18,1.045s3.135,0,4.18-1.045c2.09-2.09,2.09-5.224,0-7.314L144.196,267.494z"/>
	<path style="fill:#ACB3BA;" d="M259.135,348.996l13.584-13.584c2.09-2.09,2.09-5.224,0-7.314c-2.09-2.09-5.224-2.09-7.314,0
		l-13.584,13.584l-13.584-13.584c-2.09-2.09-5.225-2.09-7.314,0c-2.09,2.09-2.09,5.224,0,7.314l13.584,13.584l-13.584,13.584
		c-2.09,2.09-2.09,5.224,0,7.314c1.045,1.045,2.09,1.045,4.18,1.045c1.045,0,3.135,0,4.18-1.045l13.584-13.584l13.584,13.584
		c0,1.045,1.045,1.045,3.135,1.045c1.045,0,3.135,0,4.18-1.045c2.09-2.09,2.09-5.224,0-7.314L259.135,348.996z"/>
</g>
<g>
	<circle style="fill:#CDD6E0;" cx="346.906" cy="169.273" r="20.898"/>
	<circle style="fill:#CDD6E0;" cx="251.82" cy="169.273" r="20.898"/>
</g>
<circle style="fill:#FF7058;" cx="346.906" cy="267.494" r="20.898"/>
<path style="fill:#ACB3BA;" d="M185.992,379.298c-4.18,0-8.359-3.135-8.359-8.359v-76.278c0-4.18,3.135-8.359,8.359-8.359h57.469
	v-62.694c0-4.18,3.135-8.359,8.359-8.359c4.18,0,8.359,3.135,8.359,8.359v70.008c0,4.18-3.135,8.359-8.359,8.359h-57.469v68.963
	C194.351,375.118,190.171,379.298,185.992,379.298z"/>
<g>
</g>
<g>
</g>
<g>
</g>
<g>
</g>
<g>
</g>
<g>
</g>
<g>
</g>
<g>
</g>
<g>
</g>
<g>
</g>
<g>
</g>
<g>
</g>
<g>
</g>
<g>
</g>
<g>
</g>
</svg>
