<?xml version="1.0" encoding="iso-8859-1"?>
<!-- Generator: Adobe Illustrator 19.0.0, SVG Export Plug-In . SVG Version: 6.00 Build 0)  -->
<svg version="1.1" id="Layer_1" xmlns="http://www.w3.org/2000/svg" xmlns:xlink="http://www.w3.org/1999/xlink" x="0px" y="0px"
	 viewBox="0 0 501.551 501.551" style="enable-background:new 0 0 501.551 501.551;" xml:space="preserve">
<path style="fill:#40596B;" d="M480.653,98.22H20.898C9.404,98.22,0,107.624,0,119.118v347.951c0,11.494,9.404,20.898,20.898,20.898
	h459.755c11.494,0,20.898-9.404,20.898-20.898V119.118C501.551,107.625,492.147,98.22,480.653,98.22z"/>
<path style="fill:#ACB3BA;" d="M158.824,88.816V50.155c0-3.135,2.09-5.224,5.225-5.224h172.408c3.135,0,5.224,2.09,5.224,5.224
	v38.661h31.347V50.155c0-19.853-16.718-36.571-36.571-36.571H164.049c-19.853,0-36.571,16.718-36.571,36.571v38.661H158.824z"/>
<g>
	<rect x="123.298" y="88.816" style="fill:#334A5E;" width="41.796" height="10.449"/>
	<rect x="337.502" y="88.816" style="fill:#334A5E;" width="41.796" height="10.449"/>
</g>
<path style="fill:#ACB3BA;" d="M315.559,321.829L315.559,321.829l-28.212-28.212c-9.404,9.404-21.943,15.673-36.571,15.673
	c-28.212,0-52.245-22.988-52.245-52.245c0-14.629,6.269-27.167,15.673-36.571l-28.212-28.212l0,0c-2.09,2.09-4.18,5.224-6.269,7.314
	l-21.943-4.18l-11.494,21.943l15.673,15.673c-2.09,6.269-3.135,12.539-3.135,18.808l-19.853,9.404l4.18,25.078l21.943,3.135
	c2.09,6.269,5.224,11.494,8.359,17.763l-10.449,19.853l17.763,17.763l19.853-10.449c5.224,4.18,11.494,6.269,17.763,9.404
	l3.135,21.943l25.078,4.18L256,350.041c6.269,0,12.539-1.045,18.808-3.135l15.673,15.673l21.943-11.494l-4.18-21.943
	C311.38,326.008,313.469,323.918,315.559,321.829z"/>
<path style="fill:#CDD6E0;" d="M250.776,204.8c28.212,0,52.245,22.988,52.245,52.245c0,14.629-6.269,27.167-15.673,36.571
	l28.212,28.212c2.09-2.09,4.18-5.224,6.269-7.314l21.943,4.18l11.494-21.943l-15.673-16.718c2.09-6.269,3.135-12.539,3.135-18.808
	l19.853-9.404l-4.18-25.078l-21.943-3.135c-2.09-6.269-5.224-11.494-8.359-17.763l10.449-19.853l-17.763-17.763l-19.853,10.449
	c-5.224-4.18-11.494-6.269-17.763-9.404l-3.135-21.943l-25.078-4.18l-9.404,20.898c-6.269,0-12.539,1.045-18.808,3.135
	l-15.673-15.673l-21.943,11.494l4.18,21.943c-2.09,2.09-5.224,4.18-7.314,6.269l28.212,28.212
	C223.608,210.025,236.147,204.8,250.776,204.8z"/>
<path style="fill:#FF7058;" d="M485.878,432.588L485.878,432.588c0-10.449-8.359-18.808-18.808-18.808h-27.167v37.616h27.167
	C477.518,451.396,485.878,443.037,485.878,432.588z"/>
<polygon style="fill:#FFD05C;" points="62.694,413.78 62.694,451.396 39.706,443.037 15.673,432.588 39.706,423.184 "/>
<polygon style="fill:#ACB3BA;" points="39.706,423.184 39.706,443.037 15.673,432.588 "/>
<polygon style="fill:#84DBFF;" points="62.694,413.78 62.694,425.273 422.139,425.273 422.139,425.273 422.139,413.78 "/>
<rect x="62.694" y="425.273" style="fill:#54C0EB;" width="359.445" height="14.629"/>
<rect x="62.694" y="439.902" style="fill:#84DBFF;" width="359.445" height="11.494"/>
<rect x="422.139" y="413.78" style="fill:#FFFFFF;" width="17.763" height="37.616"/>
<path style="fill:#55BFE9;" d="M422.139,413.78h17.763H422.139z"/>
<polygon style="fill:#FFD15C;" points="439.902,425.273 439.902,425.273 439.902,413.78 "/>
<polygon style="fill:#55BFE9;" points="439.902,439.902 439.902,439.902 439.902,425.273 439.902,425.273 "/>
<g>
</g>
<g>
</g>
<g>
</g>
<g>
</g>
<g>
</g>
<g>
</g>
<g>
</g>
<g>
</g>
<g>
</g>
<g>
</g>
<g>
</g>
<g>
</g>
<g>
</g>
<g>
</g>
<g>
</g>
</svg>
