<?xml version="1.0" encoding="iso-8859-1"?>
<!-- Generator: Adobe Illustrator 19.0.0, SVG Export Plug-In . SVG Version: 6.00 Build 0)  -->
<svg version="1.1" id="Layer_1" xmlns="http://www.w3.org/2000/svg" xmlns:xlink="http://www.w3.org/1999/xlink" x="0px" y="0px"
	 viewBox="0 0 501.551 501.551" style="enable-background:new 0 0 501.551 501.551;" xml:space="preserve">
<path style="fill:#40596B;" d="M322.873,0H20.898C9.404,0,0,9.404,0,20.898v459.755c0,11.494,9.404,20.898,20.898,20.898h301.975
	c11.494,0,20.898-9.404,20.898-20.898V20.898C343.771,9.404,334.367,0,322.873,0z"/>
<rect x="26.122" y="55.38" style="fill:#FFFFFF;" width="291.527" height="353.175"/>
<g>
	<path style="fill:#334A5E;" d="M206.89,21.943h-68.963c-3.135,0-6.269,3.135-6.269,6.269s3.135,6.269,6.269,6.269h68.963
		c3.135,0,6.269-3.135,6.269-6.269S210.024,21.943,206.89,21.943z"/>
	<circle style="fill:#334A5E;" cx="172.408" cy="455.575" r="24.033"/>
</g>
<path style="fill:#CDD6E0;" d="M501.551,149.42v165.094c0,3.135-1.045,6.269-4.18,9.404c-2.09,2.09-5.224,3.135-8.359,3.135H221.518
	c-3.135,0-6.269-1.045-8.359-3.135c-2.09-2.09-4.18-5.224-4.18-9.404V149.42c0-3.135,1.045-6.269,3.135-8.359
	c2.09-2.09,5.224-3.135,8.359-3.135h267.494c3.135,0,6.269,1.045,8.359,3.135C500.506,143.151,501.551,146.286,501.551,149.42z"/>
<path style="fill:#ACB3BA;" d="M497.371,323.918c-2.09,2.09-5.224,3.135-8.359,3.135H221.518c-3.135,0-6.269-1.045-8.359-3.135
	L355.265,202.71L497.371,323.918z"/>
<path style="fill:#F2F2F2;" d="M498.416,141.061L363.624,272.718c-4.18,3.135-11.494,3.135-16.718,0L213.159,141.061
	c2.09-2.09,5.224-3.135,8.359-3.135h267.494C493.192,137.927,495.282,138.971,498.416,141.061z"/>
<g>
</g>
<g>
</g>
<g>
</g>
<g>
</g>
<g>
</g>
<g>
</g>
<g>
</g>
<g>
</g>
<g>
</g>
<g>
</g>
<g>
</g>
<g>
</g>
<g>
</g>
<g>
</g>
<g>
</g>
</svg>
