<?xml version="1.0" encoding="iso-8859-1"?>
<!-- Generator: Adobe Illustrator 19.0.0, SVG Export Plug-In . SVG Version: 6.00 Build 0)  -->
<svg version="1.1" id="Layer_1" xmlns="http://www.w3.org/2000/svg" xmlns:xlink="http://www.w3.org/1999/xlink" x="0px" y="0px"
	 viewBox="0 0 501.551 501.551" style="enable-background:new 0 0 501.551 501.551;" xml:space="preserve">
<path style="fill:#40596B;" d="M402.286,0H99.265C87.771,0,78.367,9.404,78.367,20.898v459.755c0,11.494,9.404,20.898,20.898,20.898
	h303.02c11.494,0,20.898-9.404,20.898-20.898V20.898C423.184,9.404,413.78,0,402.286,0z"/>
<rect x="104.49" y="55.38" style="fill:#FFFFFF;" width="292.571" height="353.175"/>
<g>
	<path style="fill:#334A5E;" d="M286.302,21.943h-68.963c-3.135,0-6.269,3.135-6.269,6.269s3.135,6.269,6.269,6.269h68.963
		c3.135,0,6.269-3.135,6.269-6.269S289.437,21.943,286.302,21.943z"/>
	<ellipse style="fill:#334A5E;" cx="250.776" cy="455.575" rx="24.033" ry="24.033"/>
</g>
<path style="fill:#CDD6E0;" d="M283.167,103.445v113.894c0,8.359,6.269,14.629,13.584,16.718v30.302l30.302-30.302h157.78
	c9.404,0,16.718-7.314,16.718-16.718V103.445c0-9.404-7.314-16.718-16.718-16.718H299.886
	C290.482,86.727,283.167,94.041,283.167,103.445z"/>
<path style="fill:#FFD15C;" d="M18.808,164.049h208.98c10.449,0,18.808,8.359,18.808,18.808V311.38
	c0,10.449-8.359,18.808-18.808,18.808h-9.404v43.886l-43.886-43.886H18.808C8.359,330.188,0,321.829,0,311.38V182.857
	C0,172.408,8.359,164.049,18.808,164.049z"/>
<g>
	<rect x="45.976" y="194.351" style="fill:#F8B64C;" width="155.69" height="20.898"/>
	<rect x="17.763" y="236.147" style="fill:#F8B64C;" width="212.114" height="20.898"/>
</g>
<g>
	<path style="fill:#ACB3BA;" d="M345.861,159.869L345.861,159.869c0,5.224,4.18,10.449,10.449,10.449l0,0
		c5.224,0,10.449-4.18,10.449-10.449l0,0c0-5.224-4.18-10.449-10.449-10.449l0,0C350.041,149.42,345.861,154.645,345.861,159.869z"
		/>
	<path style="fill:#ACB3BA;" d="M382.433,159.869L382.433,159.869c0,5.224,4.18,10.449,10.449,10.449l0,0
		c5.224,0,10.449-4.18,10.449-10.449l0,0c0-5.224-4.18-10.449-10.449-10.449l0,0C386.612,149.42,382.433,154.645,382.433,159.869z"
		/>
	<path style="fill:#ACB3BA;" d="M419.004,159.869L419.004,159.869c0,5.224,4.18,10.449,10.449,10.449l0,0
		c5.224,0,10.449-4.18,10.449-10.449l0,0c0-5.224-4.18-10.449-10.449-10.449l0,0C423.184,149.42,419.004,154.645,419.004,159.869z"
		/>
</g>
<rect x="45.976" y="280.033" style="fill:#F8B64C;" width="155.69" height="20.898"/>
<g>
</g>
<g>
</g>
<g>
</g>
<g>
</g>
<g>
</g>
<g>
</g>
<g>
</g>
<g>
</g>
<g>
</g>
<g>
</g>
<g>
</g>
<g>
</g>
<g>
</g>
<g>
</g>
<g>
</g>
</svg>
