<?xml version="1.0" encoding="iso-8859-1"?>
<!-- Generator: Adobe Illustrator 19.0.0, SVG Export Plug-In . SVG Version: 6.00 Build 0)  -->
<svg version="1.1" id="Layer_1" xmlns="http://www.w3.org/2000/svg" xmlns:xlink="http://www.w3.org/1999/xlink" x="0px" y="0px"
	 viewBox="0 0 512 512" style="enable-background:new 0 0 512 512;" xml:space="preserve">
<path style="fill:#CDD6E0;" d="M458.667,225.066h32C476.8,118.399,392.533,34.133,286.933,20.267v32
	C375.467,66.134,445.866,136.533,458.667,225.066z M286.934,458.667v32c105.6-13.867,190.934-98.134,203.734-203.734h-32
	C445.866,375.467,375.467,445.866,286.934,458.667z M53.333,286.934h-32C35.2,393.601,119.467,477.867,225.067,490.668v-32
	C136.533,445.866,66.134,375.467,53.333,286.934z M21.333,225.066h32c13.867-88.534,83.2-158.934,171.734-171.734V21.333
	C119.467,35.2,35.2,119.467,21.333,225.066z"/>
<path style="fill:#F2F2F2;" d="M374.4,225.066h33.067c-12.8-59.733-60.8-107.734-120.533-119.467v33.067
	C329.6,149.334,362.666,182.4,374.4,225.066z M286.934,374.4v33.067c59.733-12.8,107.734-60.8,119.467-120.533h-33.067
	C362.666,329.6,329.6,362.666,286.934,374.4z M137.6,286.934h-33.067c12.8,59.733,60.8,107.734,120.533,119.467v-33.067
	C182.4,362.666,149.334,329.6,137.6,286.934z M105.6,225.066h33.067c10.667-42.667,44.8-75.734,87.467-87.467v-33.066
	C165.333,117.334,117.334,165.333,105.6,225.066z"/>
<polygon style="fill:#40596B;" points="512,241.067 270.933,241.067 270.933,0 241.067,0 241.067,241.067 0,241.067 0,270.933 
	241.067,270.933 241.067,512 270.933,512 270.933,270.933 512,270.933 "/>
<circle style="fill:#FF7058;" cx="256.005" cy="256.005" r="54.4"/>
<g>
</g>
<g>
</g>
<g>
</g>
<g>
</g>
<g>
</g>
<g>
</g>
<g>
</g>
<g>
</g>
<g>
</g>
<g>
</g>
<g>
</g>
<g>
</g>
<g>
</g>
<g>
</g>
<g>
</g>
</svg>
