<?xml version="1.0" encoding="iso-8859-1"?>
<!-- Generator: Adobe Illustrator 19.0.0, SVG Export Plug-In . SVG Version: 6.00 Build 0)  -->
<svg version="1.1" id="Layer_1" xmlns="http://www.w3.org/2000/svg" xmlns:xlink="http://www.w3.org/1999/xlink" x="0px" y="0px"
	 viewBox="0 0 501.551 501.551" style="enable-background:new 0 0 501.551 501.551;" xml:space="preserve">
<rect x="74.188" y="211.069" style="fill:#40596B;" width="353.175" height="290.482"/>
<path style="fill:#FFD15C;" d="M94.041,172.408v149.42c0,86.727,70.008,156.735,156.735,156.735l0,0
	c86.727,0,156.735-70.008,156.735-156.735v-149.42H94.041z"/>
<path style="fill:#40596B;" d="M250.776,34.482c-97.176,0-176.588,78.367-176.588,175.543h353.176
	C427.363,113.894,347.951,34.482,250.776,34.482z"/>
<path style="fill:#CDD6E0;" d="M459.755,218.384h-20.898c0-108.669-84.637-197.486-188.082-197.486S62.694,109.714,62.694,218.384
	H41.796C41.796,98.22,135.837,0,250.776,0S459.755,98.22,459.755,218.384z"/>
<path style="fill:#F2F2F2;" d="M382.433,427.363H281.078v-20.898h101.355c18.808,0,34.482-15.673,34.482-34.482v-38.661h20.898
	v38.661C437.812,402.286,412.735,427.363,382.433,427.363z"/>
<path style="fill:#ACB3BA;" d="M277.943,391.837h-56.424c-9.404,0-16.718,7.314-16.718,16.718v15.673
	c0,9.404,7.314,16.718,16.718,16.718h56.424c9.404,0,16.718-7.314,16.718-16.718v-15.673
	C295.706,399.151,287.347,391.837,277.943,391.837z"/>
<g>
	<path style="fill:#CDD6E0;" d="M491.102,234.057h-16.718v78.367h16.718c6.269,0,10.449-4.18,10.449-10.449v-57.469
		C501.551,238.237,497.371,234.057,491.102,234.057z"/>
	<path style="fill:#CDD6E0;" d="M0,244.506v57.469c0,5.224,4.18,10.449,10.449,10.449h16.718v-78.367H10.449
		C4.18,234.057,0,238.237,0,244.506z"/>
</g>
<g>
	<path style="fill:#FF7058;" d="M453.486,211.069H407.51v124.343h45.976c11.494,0,20.898-9.404,20.898-20.898v-82.547
		C474.384,220.473,464.98,211.069,453.486,211.069z"/>
	<path style="fill:#FF7058;" d="M27.167,231.967v82.547c0,11.494,9.404,20.898,20.898,20.898h45.976V211.069H48.065
		C36.571,211.069,27.167,220.473,27.167,231.967z"/>
</g>
<g>
	<ellipse style="fill:#40596B;" cx="177.633" cy="266.449" rx="30.302" ry="29.257"/>
	<ellipse style="fill:#40596B;" cx="323.918" cy="266.449" rx="30.302" ry="29.257"/>
</g>
<g>
	<polygon style="fill:#FFD15C;" points="338.547,211.069 338.547,163.004 321.829,211.069 	"/>
	<polygon style="fill:#FFD15C;" points="218.384,211.069 218.384,175.543 197.486,211.069 	"/>
</g>
<g>
</g>
<g>
</g>
<g>
</g>
<g>
</g>
<g>
</g>
<g>
</g>
<g>
</g>
<g>
</g>
<g>
</g>
<g>
</g>
<g>
</g>
<g>
</g>
<g>
</g>
<g>
</g>
<g>
</g>
</svg>
