<?xml version="1.0" encoding="iso-8859-1"?>
<!-- Generator: Adobe Illustrator 19.0.0, SVG Export Plug-In . SVG Version: 6.00 Build 0)  -->
<svg version="1.1" id="Layer_1" xmlns="http://www.w3.org/2000/svg" xmlns:xlink="http://www.w3.org/1999/xlink" x="0px" y="0px"
	 viewBox="0 0 502.034 502.034" style="enable-background:new 0 0 502.034 502.034;" xml:space="preserve">
<path style="fill:#F2F2F2;" d="M198.401,502.034c0,0,25.078-45.976,13.584-75.233c0,0-9.404-39.706-50.155-31.347
	c0,0-77.322,18.808-74.188-20.898c0,0,8.359-22.988-5.224-36.571c0,0-8.359-7.314,0-18.808c0,0-17.763-16.718-3.135-25.078v-13.584
	c0,0-40.751-7.314-26.122-28.212c0,0,47.02-54.335,38.661-76.278c-3.135-8.359-6.269-16.718-5.224-25.078
	c3.135-36.571,22.988-115.984,128.522-144.196c1.045,0,3.135-1.045,4.18-1.045c165.094-40.751,295.706,145.241,200.62,286.302
	c-7.314,11.494-15.673,22.988-24.033,33.437c0,0-34.482,32.392,7.314,102.4c0,0,30.302,48.065,27.167,73.143H198.401V502.034z"/>
<path style="fill:#FFD15C;" d="M356.18,142.59c0-38.661-33.437-68.963-73.143-64.784c-30.302,3.135-54.335,27.167-57.469,57.469
	c-3.135,24.033,7.314,45.976,25.078,59.559c7.314,5.224,10.449,13.584,10.449,21.943l0,0h58.514l0,0
	c0-8.359,4.18-16.718,10.449-21.943C345.731,182.296,356.18,164.532,356.18,142.59z"/>
<path style="fill:#ACB3BA;" d="M315.429,246.034c0,2.09-1.045,4.18-1.045,6.269c-1.045,1.045-1.045,2.09-2.09,2.09
	c-2.09,2.09-5.224,3.135-8.359,3.135h-27.167c-4.18,0-8.359-2.09-10.449-6.269c-1.045-2.09-1.045-4.18-1.045-6.269h50.155V246.034z"
	/>
<g>
	<path style="fill:#FF7058;" d="M321.699,212.598H260.05c-3.135,0-5.224,2.09-5.224,5.224v22.988c0,3.135,2.09,5.224,5.224,5.224
		h61.649c3.135,0,5.224-2.09,5.224-5.224v-22.988C326.923,214.688,323.788,212.598,321.699,212.598z"/>
	<path style="fill:#FF7058;" d="M291.397,44.369v24.033h-1.045h-1.045V44.369H291.397z"/>
	<path style="fill:#FF7058;" d="M260.05,65.267l3.135,8.359h-1.045c0,0-1.045,0-1.045,1.045l-3.135-8.359L260.05,65.267z"/>
	<path style="fill:#FF7058;" d="M214.074,110.198l8.359,3.135c0,0,0,1.045-1.045,1.045v1.045l-8.359-3.135L214.074,110.198z"/>
	<path style="fill:#FF7058;" d="M359.315,170.802l8.359,3.135l-1.045,2.09l-7.314-3.135c0,0,0-1.045,1.045-1.045
		C359.315,170.802,359.315,170.802,359.315,170.802z"/>
	<path style="fill:#FF7058;" d="M213.029,173.937l8.359-3.135v1.045c0,0,0,1.045,1.045,1.045l-8.359,3.135L213.029,173.937z"/>
	<path style="fill:#FF7058;" d="M359.315,113.332l8.359-3.135l1.045,2.09l-8.359,3.135v-1.045
		C359.315,114.377,359.315,113.332,359.315,113.332z"/>
	<path style="fill:#FF7058;" d="M321.699,65.267l-3.135,8.359h1.045c0,0,1.045,0,1.045,1.045l3.135-8.359L321.699,65.267z"/>
	<path style="fill:#FF7058;" d="M366.629,110.198l-8.359,3.135c0,0,0,1.045,1.045,1.045v1.045l8.359-3.135L366.629,110.198z"/>
	<path style="fill:#FF7058;" d="M221.388,170.802l-8.359,3.135l1.045,2.09l8.359-3.135c0,0,0-1.045-1.045-1.045
		C221.388,170.802,221.388,170.802,221.388,170.802z"/>
	<path style="fill:#FF7058;" d="M367.674,173.937l-8.359-3.135v1.045c0,0,0,1.045-1.045,1.045l8.359,3.135L367.674,173.937z"/>
	<path style="fill:#FF7058;" d="M222.433,113.332l-8.359-3.135l-1.045,2.09l8.359,3.135v-1.045
		C221.388,114.377,222.433,113.332,222.433,113.332z"/>
	<path style="fill:#FF7058;" d="M361.405,74.671L344.686,91.39l-1.045-1.045l-1.045-1.045l16.718-16.718L361.405,74.671z"/>
	<path style="fill:#FF7058;" d="M239.152,196.924l-16.718,16.718l-2.09-2.09l16.718-16.718
		C237.062,194.834,237.062,195.879,239.152,196.924C238.107,195.879,238.107,195.879,239.152,196.924z"/>
	<path style="fill:#FF7058;" d="M388.572,144.679h-24.033v-1.045v-1.045h24.033V144.679z"/>
	<path style="fill:#FF7058;" d="M216.164,144.679h-24.033v-3.135h24.033v1.045C216.164,143.634,216.164,143.634,216.164,144.679z"/>
	<path style="fill:#FF7058;" d="M359.315,213.643l-16.718-16.718l1.045-1.045l1.045-1.045l16.718,16.718L359.315,213.643z"/>
	<path style="fill:#FF7058;" d="M237.062,91.39l-16.718-16.718l2.09-2.09L239.152,89.3C238.107,89.3,238.107,90.345,237.062,91.39
		C237.062,90.345,237.062,91.39,237.062,91.39z"/>
</g>
<polygon style="fill:#F8B64C;" points="285.127,184.386 285.127,144.679 268.409,144.679 295.576,103.928 295.576,144.679 
	312.295,144.679 "/>
<g>
</g>
<g>
</g>
<g>
</g>
<g>
</g>
<g>
</g>
<g>
</g>
<g>
</g>
<g>
</g>
<g>
</g>
<g>
</g>
<g>
</g>
<g>
</g>
<g>
</g>
<g>
</g>
<g>
</g>
</svg>
