<?xml version="1.0" encoding="iso-8859-1"?>
<!-- Generator: Adobe Illustrator 19.0.0, SVG Export Plug-In . SVG Version: 6.00 Build 0)  -->
<svg version="1.1" id="Layer_1" xmlns="http://www.w3.org/2000/svg" xmlns:xlink="http://www.w3.org/1999/xlink" x="0px" y="0px"
	 viewBox="0 0 501.551 501.551" style="enable-background:new 0 0 501.551 501.551;" xml:space="preserve">
<g>
	<path style="fill:#F2F2F2;" d="M265.404,79.412v342.727c-4.18-2.09-9.404-3.135-14.629-3.135c-5.225,0-10.449,1.045-14.629,3.135
		V79.412c4.18,2.09,9.404,3.135,14.629,3.135C256,82.547,261.224,81.502,265.404,79.412z"/>
	<path style="fill:#F2F2F2;" d="M382.433,140.016l-11.494,11.494l-83.592,83.592l-14.629,14.629L266.449,256l-8.359,9.404
		l-6.269,6.269L140.016,382.433c-2.09-4.18-5.225-8.359-8.359-12.539c-4.18-4.18-8.359-6.269-12.539-8.359l11.494-11.494
		l83.592-83.592l14.629-14.629l6.269-6.269l8.359-8.359L360.49,120.163c2.09,4.18,5.224,8.359,8.359,12.539
		C374.073,135.837,378.253,137.927,382.433,140.016z"/>
	<path style="fill:#F2F2F2;" d="M419.004,250.776c0,5.224,1.045,10.449,3.135,14.629H79.412c2.09-5.224,3.135-9.404,3.135-14.629
		c0-5.225-1.045-10.449-3.135-14.629h342.727C420.049,240.327,419.004,245.551,419.004,250.776z"/>
	<path style="fill:#F2F2F2;" d="M382.433,361.535c-4.18,2.09-9.404,5.224-12.539,8.359c-4.18,4.18-6.269,8.359-8.359,12.539
		L250.776,271.673l-6.269-6.269l-8.359-8.359l-6.269-6.269l-15.673-14.629l-83.592-83.592l-11.494-11.494
		c4.18-2.09,8.359-5.224,12.539-8.359c4.18-4.18,6.269-8.359,8.359-12.539L382.433,361.535z"/>
</g>
<g>
	<circle style="fill:#FF7058;" cx="250.776" cy="40.751" r="40.751"/>
	<circle style="fill:#FF7058;" cx="250.776" cy="460.8" r="40.751"/>
	<ellipse style="fill:#FF7058;" cx="398.92" cy="102.32" rx="40.751" ry="40.751"/>
	<ellipse style="fill:#FF7058;" cx="102.587" cy="399.231" rx="40.751" ry="40.751"/>
	<circle style="fill:#FF7058;" cx="460.8" cy="250.776" r="40.751"/>
	<circle style="fill:#FF7058;" cx="40.751" cy="250.776" r="40.751"/>
	<ellipse style="fill:#FF7058;" cx="399.251" cy="398.952" rx="40.751" ry="40.751"/>
	<ellipse style="fill:#FF7058;" cx="102.319" cy="102.588" rx="40.751" ry="40.751"/>
</g>
<polygon style="fill:#CDD6E0;" points="364.669,203.755 364.669,297.796 297.796,364.669 203.755,364.669 172.408,334.367 
	136.882,297.796 136.882,203.755 203.755,136.882 297.796,136.882 "/>
<g>
	<circle style="fill:#F2F2F2;" cx="250.776" cy="230.922" r="44.931"/>
	<path style="fill:#F2F2F2;" d="M329.143,334.367l-31.347,31.347h-94.041l-31.347-31.347c7.314-27.167,28.212-48.065,55.38-56.424
		c7.314,3.135,14.629,5.225,22.988,5.225c8.359,0,15.673-2.09,22.988-5.225C300.931,285.257,321.829,307.2,329.143,334.367z"/>
</g>
<g>
	<path style="fill:#E4EAEF;" d="M265.404,79.412v16.718c-5.224,1.045-9.404,2.09-14.629,2.09c-5.225,0-10.449-1.045-14.629-2.09
		V79.412c4.18,2.09,9.404,3.135,14.629,3.135C256,82.547,261.224,81.502,265.404,79.412z"/>
	<path style="fill:#E4EAEF;" d="M265.404,405.42v16.718c-4.18-2.09-9.404-3.135-14.629-3.135c-5.225,0-10.449,1.045-14.629,3.135
		V405.42c5.224-1.045,9.404-2.09,14.629-2.09C256,403.331,261.224,404.376,265.404,405.42z"/>
	<path style="fill:#E4EAEF;" d="M382.433,140.016l-11.494,11.494c-4.18-2.09-8.359-5.225-11.494-9.404
		c-4.18-4.18-6.269-7.314-9.404-12.539l11.494-11.494c2.09,4.18,5.224,8.359,8.359,12.539
		C374.073,135.837,378.253,137.927,382.433,140.016z"/>
	<path style="fill:#E4EAEF;" d="M151.51,370.939l-11.494,11.494c-2.09-4.18-5.225-8.359-8.359-12.539
		c-4.18-4.18-8.359-6.269-12.539-8.359l11.494-11.494c4.18,2.09,8.359,5.224,11.494,9.404
		C146.286,362.58,149.42,366.759,151.51,370.939z"/>
	<path style="fill:#E4EAEF;" d="M419.004,250.776c0,5.224,1.045,10.449,3.135,14.629H405.42c-1.045-5.224-2.09-9.404-2.09-14.629
		c0-5.225,1.045-10.449,2.09-14.629h16.718C420.049,240.327,419.004,245.551,419.004,250.776z"/>
	<path style="fill:#E4EAEF;" d="M98.22,250.776c0,5.224-1.045,10.449-2.09,14.629H79.412c2.09-5.224,3.135-9.404,3.135-14.629
		c0-5.225-1.045-10.449-3.135-14.629h16.718C97.176,240.327,98.22,245.551,98.22,250.776z"/>
	<path style="fill:#E4EAEF;" d="M382.433,361.535c-4.18,2.09-9.404,5.224-12.539,8.359c-4.18,4.18-6.269,8.359-8.359,12.539
		l-11.494-11.494c2.09-4.18,5.224-8.359,9.404-12.539c3.135-3.135,7.314-6.269,11.494-9.404L382.433,361.535z"/>
	<path style="fill:#E4EAEF;" d="M151.51,130.612c-2.09,4.18-5.225,8.359-9.404,12.539c-3.135,3.135-7.314,6.269-11.494,9.404
		l-11.494-11.494c4.18-2.09,8.359-5.225,12.539-8.359c4.18-4.18,6.269-8.359,8.359-12.539L151.51,130.612z"/>
</g>
<g>
</g>
<g>
</g>
<g>
</g>
<g>
</g>
<g>
</g>
<g>
</g>
<g>
</g>
<g>
</g>
<g>
</g>
<g>
</g>
<g>
</g>
<g>
</g>
<g>
</g>
<g>
</g>
<g>
</g>
</svg>
