<?xml version="1.0" encoding="iso-8859-1"?>
<!-- Generator: Adobe Illustrator 19.0.0, SVG Export Plug-In . SVG Version: 6.00 Build 0)  -->
<svg version="1.1" id="Layer_1" xmlns="http://www.w3.org/2000/svg" xmlns:xlink="http://www.w3.org/1999/xlink" x="0px" y="0px"
	 viewBox="0 0 501.551 501.551" style="enable-background:new 0 0 501.551 501.551;" xml:space="preserve">
<path style="fill:#FFD15C;" d="M361.535,250.776c0,31.347-12.539,59.559-33.437,79.412c-19.853,19.853-47.02,31.347-77.322,31.347
	s-57.469-11.494-77.322-31.347c-20.898-19.853-33.437-48.065-33.437-79.412c0-61.649,50.155-110.759,110.759-110.759
	C312.424,140.016,361.535,189.127,361.535,250.776z"/>
<g>
	<circle style="fill:#40596B;" cx="250.776" cy="237.192" r="43.886"/>
	<path style="fill:#40596B;" d="M328.098,330.188c-19.853,19.853-47.02,31.347-77.322,31.347s-57.469-11.494-77.322-31.347
		c10.449-21.943,29.257-38.661,52.245-45.976c7.314,4.18,15.673,6.269,25.078,6.269s17.763-2.09,25.078-6.269
		C298.841,291.527,318.694,308.245,328.098,330.188z"/>
</g>
<g>
	<polygon style="fill:#CDD6E0;" points="163.004,338.547 25.078,338.547 59.559,373.029 0,432.588 68.963,501.551 128.522,441.992 
		163.004,476.473 	"/>
	<polygon style="fill:#CDD6E0;" points="338.547,163.004 476.473,163.004 441.992,128.522 501.551,68.963 432.588,0 373.029,59.559 
		338.547,25.078 	"/>
	<polygon style="fill:#CDD6E0;" points="163.004,163.004 163.004,25.078 128.522,59.559 68.963,0 0,68.963 59.559,128.522 
		25.078,163.004 	"/>
	<polygon style="fill:#CDD6E0;" points="338.547,338.547 338.547,476.473 373.029,441.992 432.588,501.551 501.551,432.588 
		441.992,373.029 476.473,338.547 	"/>
</g>
<g>
</g>
<g>
</g>
<g>
</g>
<g>
</g>
<g>
</g>
<g>
</g>
<g>
</g>
<g>
</g>
<g>
</g>
<g>
</g>
<g>
</g>
<g>
</g>
<g>
</g>
<g>
</g>
<g>
</g>
</svg>
