<?xml version="1.0" encoding="iso-8859-1"?>
<!-- Generator: Adobe Illustrator 19.0.0, SVG Export Plug-In . SVG Version: 6.00 Build 0)  -->
<svg version="1.1" id="Layer_1" xmlns="http://www.w3.org/2000/svg" xmlns:xlink="http://www.w3.org/1999/xlink" x="0px" y="0px"
	 viewBox="0 0 501.551 501.551" style="enable-background:new 0 0 501.551 501.551;" xml:space="preserve">
<path style="fill:#FF7058;" d="M501.551,250.776c0,20.898-2.09,40.751-7.314,59.559c-3.135,12.539-7.314,24.033-11.494,35.527
	c-10.449,27.167-26.122,51.2-44.931,72.098c-8.359,9.404-16.718,17.763-27.167,26.122c-1.045,0-1.045,1.045-2.09,1.045
	c-3.135,3.135-7.314,5.224-10.449,8.359c-35.527,26.122-79.412,42.841-125.388,47.02c-3.135,0-7.314,0-10.449,1.045
	c-4.18,0-7.314,0-11.494,0c-3.135,0-7.314,0-11.494,0c-3.135,0-7.314,0-10.449-1.045c-47.02-4.18-89.861-20.898-126.433-47.02
	c-3.135-2.09-7.314-5.224-10.449-8.359c0,0-1.045-1.045-1.045-1.045c-9.404-8.359-18.808-16.718-27.167-26.122
	c-18.808-20.898-34.482-45.976-44.931-72.098c-5.224-11.494-8.359-22.988-11.494-35.527C3.135,291.527,0,271.673,0,250.776
	C0,111.804,111.804,0,250.776,0S501.551,111.804,501.551,250.776z"/>
<g>
	<path style="fill:#40596B;" d="M212.114,375.118v37.616c-53.29,28.212-99.265,32.392-119.118,33.437
		c-1.045-1.045-2.09-2.09-2.09-2.09c-9.404-8.359-18.808-16.718-27.167-26.122c-18.808-20.898-34.482-45.976-44.931-72.098
		c-5.224-11.494-8.359-22.988-11.494-35.527l32.392-18.808l0,0l0,0c0,0,10.449-10.449,10.449-20.898c0-1.045,0-2.09,0-4.18
		c-6.269-9.404-12.539-20.898-16.718-32.392c-1.045,0-1.045,0-2.09,1.045c-5.224,1.045-11.494-7.314-12.539-16.718
		c-1.045-8.359,1.045-16.718,5.224-18.808c0-3.135-1.045-6.269-1.045-10.449c0-32.392,26.122-58.514,58.514-58.514
		s58.514,26.122,58.514,58.514c0,3.135,0,6.269-1.045,10.449c4.18,2.09,6.269,10.449,5.224,18.808
		c-1.045,10.449-7.314,17.763-12.539,16.718c-1.045,0-1.045,0-2.09-1.045c-4.18,11.494-10.449,22.988-16.718,32.392l0,0
		c0,1.045-1.045,3.135-1.045,4.18c0,11.494,10.449,20.898,10.449,20.898l24.033,13.584l35.527,19.853
		c3.135,2.09,6.269,4.18,9.404,6.269C204.8,342.727,212.114,358.4,212.114,375.118z"/>
	<path style="fill:#40596B;" d="M494.237,310.335c-3.135,12.539-7.314,24.033-11.494,35.527
		c-10.449,27.167-26.122,51.2-44.931,72.098c-8.359,9.404-16.718,17.763-27.167,26.122c-1.045,0-1.045,1.045-2.09,1.045
		c-19.853-1.045-65.829-5.224-119.118-33.437v-37.616c0-16.718,7.314-32.392,19.853-42.841c3.135-2.09,5.224-4.18,9.404-6.269
		l35.527-19.853l24.033-13.584c0,0,12.539-12.539,9.404-25.078l0,0c-6.269-9.404-12.539-20.898-16.718-32.392
		c0,0-1.045,0-2.09,1.045c-5.224,1.045-11.494-7.314-12.539-16.718c-1.045-8.359,1.045-16.718,5.224-18.808
		c0-3.135-1.045-6.269-1.045-10.449c0-32.392,26.122-58.514,58.514-58.514s58.514,26.122,58.514,58.514
		c0,3.135,0,6.269-1.045,10.449c4.18,2.09,6.269,10.449,5.224,18.808c-1.045,10.449-7.314,17.763-12.539,16.718
		c-1.045,0-1.045,0-2.09-1.045c-4.18,11.494-10.449,22.988-16.718,32.392c0,1.045,0,2.09,0,4.18
		c0,11.494,10.449,20.898,10.449,20.898l0,0L494.237,310.335z"/>
</g>
<g>
	<path style="fill:#F2F2F2;" d="M311.38,281.078l-3.135,88.816l-57.469,38.661l-57.469-38.661l-2.09-87.771
		c0,0,18.808-17.763,13.584-35.527h91.951C292.571,263.314,311.38,281.078,311.38,281.078z"/>
	<path style="fill:#F2F2F2;" d="M437.812,400.196v17.763c-8.359,9.404-16.718,17.763-27.167,26.122c-1.045,0-1.045,1.045-2.09,1.045
		c-3.135,3.135-7.314,5.224-10.449,8.359c-35.527,26.122-79.412,42.841-125.388,47.02c-3.135,0-7.314,0-10.449,1.045
		c-4.18,0-7.314,0-11.494,0c-3.135,0-7.314,0-11.494,0c-3.135,0-7.314,0-10.449-1.045c-47.02-4.18-89.861-20.898-126.433-47.02
		c-3.135-2.09-7.314-5.224-10.449-8.359c0,0-1.045-1.045-1.045-1.045c-9.404-8.359-18.808-16.718-27.167-26.122v-17.763
		c0-29.257,15.673-56.424,40.751-71.053l42.841-24.033l42.841-24.033l37.616,90.906l14.629-61.649l-10.449-11.494h37.616
		l-10.449,11.494l14.629,61.649l37.616-90.906l0,0l42.841,24.033l41.796,24.033C422.139,343.771,437.812,370.939,437.812,400.196z"
		/>
	
		<ellipse transform="matrix(-0.3814 -0.9244 0.9244 -0.3814 85.9208 396.3624)" style="fill:#F2F2F2;" cx="175.579" cy="169.433" rx="20.898" ry="14.628"/>
	
		<ellipse transform="matrix(-0.9244 -0.3814 0.3814 -0.9244 562.4698 449.2699)" style="fill:#F2F2F2;" cx="325.756" cy="168.896" rx="14.628" ry="20.898"/>
	<path style="fill:#F2F2F2;" d="M334.367,134.792c0,4.18,0,9.404-1.045,14.629l0,0c-6.269,49.11-40.751,129.567-82.547,129.567
		s-76.278-79.412-82.547-129.567c-1.045-5.224-1.045-10.449-1.045-14.629c0-45.975,37.616-83.592,83.592-83.592
		C296.751,51.2,334.367,88.816,334.367,134.792z"/>
	<path style="fill:#F2F2F2;" d="M334.367,134.792c0,4.18,0,9.404-1.045,14.629c-2.09-8.359-11.494-37.616-20.898-26.122
		c-3.135,4.18-10.449,3.135-12.539-2.09c-2.09-5.224-3.135-11.494-3.135-17.763c0-6.269-6.269-11.494-11.494-9.404
		c-4.18,1.045-9.404,5.224-13.584,12.539c0,0-6.269,9.404-19.853,10.449c-13.584-1.045-19.853-10.449-19.853-10.449
		c-5.224-7.314-10.449-11.494-13.584-12.539c-6.269-2.09-11.494,3.135-11.494,9.404c0,6.269-1.045,12.539-3.135,17.763
		c-2.09,5.224-8.359,6.269-12.539,2.09c-9.404-12.539-18.808,17.763-20.898,26.122c-1.045-5.224-1.045-10.449-1.045-14.629
		c0-45.975,37.616-83.592,83.592-83.592C296.751,51.2,334.367,88.816,334.367,134.792z"/>
</g>
<g>
</g>
<g>
</g>
<g>
</g>
<g>
</g>
<g>
</g>
<g>
</g>
<g>
</g>
<g>
</g>
<g>
</g>
<g>
</g>
<g>
</g>
<g>
</g>
<g>
</g>
<g>
</g>
<g>
</g>
</svg>
