<?xml version="1.0" encoding="iso-8859-1"?>
<!-- Generator: Adobe Illustrator 19.0.0, SVG Export Plug-In . SVG Version: 6.00 Build 0)  -->
<svg version="1.1" id="Layer_1" xmlns="http://www.w3.org/2000/svg" xmlns:xlink="http://www.w3.org/1999/xlink" x="0px" y="0px"
	 viewBox="0 0 501.551 501.551" style="enable-background:new 0 0 501.551 501.551;" xml:space="preserve">
<path style="fill:#40596B;" d="M480.653,27.167H20.898C9.404,27.167,0,36.571,0,48.065v298.841h501.551V48.065
	C501.551,35.527,492.147,27.167,480.653,27.167z"/>
<rect x="26.561" y="52.684" style="fill:#FFFFFF;" width="449.306" height="267.494"/>
<path style="fill:#F2F2F2;" d="M480.653,414.824H20.898C9.404,414.824,0,405.42,0,393.927v-48.065h501.551v48.065
	C501.551,405.42,492.147,414.824,480.653,414.824z"/>
<g>
	<path style="fill:#CDD6E0;" d="M374.073,474.384H127.478c0-8.359,7.314-15.673,15.673-15.673h12.539
		c8.359,0,15.673-7.314,15.673-15.673V413.78h158.824v30.302c0,8.359,7.314,15.673,15.673,15.673H358.4
		C366.759,459.755,374.073,466.024,374.073,474.384z"/>
	<circle style="fill:#CDD6E0;" cx="250.776" cy="380.343" r="13.584"/>
</g>
<rect x="171.363" y="414.824" style="fill:#C3D0DB;" width="158.824" height="15.673"/>
<path style="fill:#FF7058;" d="M359.445,110.759c-72.098-7.314-145.241-7.314-217.339,0c-10.449,50.155-10.449,100.31,0,150.465
	c72.098,7.314,145.241,7.314,217.339,0C370.939,211.069,370.939,160.914,359.445,110.759z"/>
<path style="fill:#FFFFFF;" d="M303.02,179.722l-74.188-50.155c-5.224-4.18-13.584,0-13.584,7.314v99.265
	c0,6.269,7.314,10.449,13.584,7.314l74.188-50.155C308.245,190.171,308.245,182.857,303.02,179.722z"/>
<g>
</g>
<g>
</g>
<g>
</g>
<g>
</g>
<g>
</g>
<g>
</g>
<g>
</g>
<g>
</g>
<g>
</g>
<g>
</g>
<g>
</g>
<g>
</g>
<g>
</g>
<g>
</g>
<g>
</g>
</svg>
