<?xml version="1.0" encoding="iso-8859-1"?>
<!-- Generator: Adobe Illustrator 19.0.0, SVG Export Plug-In . SVG Version: 6.00 Build 0)  -->
<svg version="1.1" id="Layer_1" xmlns="http://www.w3.org/2000/svg" xmlns:xlink="http://www.w3.org/1999/xlink" x="0px" y="0px"
	 viewBox="0 0 502.335 502.335" style="enable-background:new 0 0 502.335 502.335;" xml:space="preserve">
<path style="fill:#CDD6E0;" d="M303.543,428.931v-32.392h-32.392v-50.155H230.4v50.155h-32.392v32.392H23.51v40.751h175.543v32.392
	h104.49v-32.392h175.543v-40.751H303.543z M282.645,480.131h-61.649v-61.649h61.649V480.131z"/>
<path style="fill:#FF7058;" d="M484.31,12.016c-155.69-15.673-311.38-15.673-467.069,0c-22.988,107.624-22.988,215.249,0,322.873
	c155.69,15.673,311.38,15.673,467.069,0C508.343,226.22,508.343,118.596,484.31,12.016z"/>
<circle style="fill:#FFFFFF;" cx="251.298" cy="172.931" r="113.894"/>
<path style="fill:#FF7058;" d="M327.576,161.437L219.951,93.518c-9.404-5.224-20.898,1.045-20.898,11.494v135.837
	c0,10.449,11.494,16.718,20.898,11.494l107.624-67.918C335.935,179.2,335.935,166.661,327.576,161.437z"/>
<path style="fill:#C3D0DB;" d="M271.151,346.384v15.673c-6.269,0-13.584,0-19.853,0c-6.269,0-13.584,0-19.853,0v-15.673H271.151z"/>
<g>
</g>
<g>
</g>
<g>
</g>
<g>
</g>
<g>
</g>
<g>
</g>
<g>
</g>
<g>
</g>
<g>
</g>
<g>
</g>
<g>
</g>
<g>
</g>
<g>
</g>
<g>
</g>
<g>
</g>
</svg>
