<?xml version="1.0" encoding="iso-8859-1"?>
<!-- Generator: Adobe Illustrator 19.0.0, SVG Export Plug-In . SVG Version: 6.00 Build 0)  -->
<svg version="1.1" id="Layer_1" xmlns="http://www.w3.org/2000/svg" xmlns:xlink="http://www.w3.org/1999/xlink" x="0px" y="0px"
	 viewBox="0 0 501.551 501.551" style="enable-background:new 0 0 501.551 501.551;" xml:space="preserve">
<rect x="437.812" y="217.339" style="fill:#CDD6E0;" width="29.257" height="65.829"/>
<path style="fill:#40596B;" d="M326.008,21.943C323.918,9.404,313.469,0,300.931,0H179.722c-12.539,0-22.988,9.404-25.078,21.943
	l-31.347,228.833l31.347,228.833c2.09,12.539,12.539,21.943,25.078,21.943h122.253c12.539,0,22.988-9.404,25.078-21.943
	L358.4,250.776L326.008,21.943z"/>
<path style="fill:#CDD6E0;" d="M341.682,28.212h-202.71c-11.494,0-20.898,9.404-20.898,20.898v403.331
	c0,11.494,9.404,20.898,20.898,20.898h203.755c11.494,0,20.898-9.404,20.898-20.898V49.11
	C362.58,37.616,353.176,28.212,341.682,28.212z"/>
<circle style="fill:#FF7058;" cx="240.327" cy="250.776" r="205.845"/>
<path style="fill:#FFFFFF;" d="M240.327,417.959c-91.951,0-167.184-75.233-167.184-167.184S148.376,83.592,240.327,83.592
	S407.51,158.824,407.51,250.776S332.278,417.959,240.327,417.959z"/>
<path style="fill:#F2F2F2;" d="M240.327,367.804c-64.784,0-117.029-52.245-117.029-117.029s52.245-117.029,117.029-117.029
	s117.029,52.245,117.029,117.029S305.11,367.804,240.327,367.804z"/>
<g>
	<circle style="fill:#FF7058;" cx="240.327" cy="108.669" r="13.584"/>
	<circle style="fill:#FF7058;" cx="240.327" cy="392.882" r="13.584"/>
	<circle style="fill:#FF7058;" cx="382.433" cy="250.776" r="13.584"/>
	<circle style="fill:#FF7058;" cx="98.22" cy="250.776" r="13.584"/>
</g>
<path style="fill:#40596B;" d="M310.335,250.776c0,7.314-6.269,13.584-13.584,13.584h-57.469c-7.314,0-13.584-6.269-13.584-13.584
	v-90.906c0-7.314,6.269-13.584,13.584-13.584c7.314,0,12.539,6.269,12.539,13.584v78.367h45.975
	C305.11,237.192,310.335,243.461,310.335,250.776z"/>
<g>
</g>
<g>
</g>
<g>
</g>
<g>
</g>
<g>
</g>
<g>
</g>
<g>
</g>
<g>
</g>
<g>
</g>
<g>
</g>
<g>
</g>
<g>
</g>
<g>
</g>
<g>
</g>
<g>
</g>
</svg>
