<svg xmlns="http://www.w3.org/2000/svg" viewBox="0 0 90 90"><defs><style>.cls-1{fill:#cfcdcc;}.cls-2{fill:#94c3cb;}.cls-3{fill:#be5e50;}.cls-4{fill:#2a373e;}.cls-5{fill:#ecf0f1;}.cls-6{fill:#e5e6e5;}</style></defs><title>3d-cube</title><g id="_3d-cube" data-name="3d-cube"><g id="_3d-cube-2" data-name="3d-cube"><circle id="label" class="cls-1" cx="45" cy="45" r="45"/><g id="_3-cube" data-name="3-cube"><g id="fill"><polygon class="cls-2" points="65.62 57.69 45 68 45 42.62 65.62 32.31 65.62 57.69"/><polygon class="cls-3" points="45 42.62 45 68 24.38 57.69 24.38 32.31 45 42.62"/><rect class="cls-4" x="41.37" y="44.32" width="0.5" height="0.5" transform="translate(-1.06 1.01) rotate(-1.37)"/><rect class="cls-4" x="41.49" y="49.31" width="0.5" height="0.5" transform="translate(-1.18 1.01) rotate(-1.37)"/><rect class="cls-4" x="41.38" y="44.82" width="0.5" height="0.5" transform="translate(-1.07 1.01) rotate(-1.37)"/><rect class="cls-4" x="41.61" y="54.31" width="0.5" height="0.5" transform="translate(-1.3 1.02) rotate(-1.37)"/><rect class="cls-4" x="41.5" y="49.81" width="0.5" height="0.5" transform="translate(-1.19 1.01) rotate(-1.37)"/><rect class="cls-4" x="41.73" y="59.31" width="0.5" height="0.5" transform="translate(-1.41 1.02) rotate(-1.37)"/><rect class="cls-4" x="41.62" y="54.81" width="0.5" height="0.5" transform="translate(-1.31 1.02) rotate(-1.37)"/><rect class="cls-4" x="41.85" y="64.31" width="0.5" height="0.5" transform="translate(-1.53 1.03) rotate(-1.37)"/><rect class="cls-4" x="41.74" y="59.81" width="0.5" height="0.5" transform="translate(-1.43 1.02) rotate(-1.37)"/><rect class="cls-4" x="41.86" y="64.81" width="0.5" height="0.5" transform="translate(-1.55 1.03) rotate(-1.37)"/><rect class="cls-4" x="33.75" y="39.5" width="0.5" height="0.5" transform="translate(-0.94 0.83) rotate(-1.37)"/><rect class="cls-4" x="40.87" y="44.33" width="0.5" height="0.5" transform="translate(-1.06 1) rotate(-1.37)"/><rect class="cls-4" x="33.87" y="44.5" width="0.5" height="0.5" transform="translate(-1.06 0.83) rotate(-1.37)"/><rect class="cls-4" x="37.07" y="41.91" width="1" height="1" transform="translate(-1.01 0.91) rotate(-1.37)"/><rect class="cls-4" x="33.77" y="40" width="0.5" height="0.5" transform="translate(-0.95 0.83) rotate(-1.37)"/><rect class="cls-4" x="40.99" y="49.33" width="0.5" height="0.5" transform="translate(-1.18 1) rotate(-1.37)"/><rect class="cls-4" x="33.99" y="49.49" width="0.5" height="0.5" transform="translate(-1.18 0.83) rotate(-1.37)"/><rect class="cls-4" x="40.88" y="44.83" width="0.5" height="0.5" transform="translate(-1.07 1) rotate(-1.37)"/><rect class="cls-4" x="37.19" y="46.91" width="1" height="1" transform="translate(-1.12 0.92) rotate(-1.37)"/><rect class="cls-4" x="33.89" y="45" width="0.5" height="0.5" transform="translate(-1.07 0.83) rotate(-1.37)"/><rect class="cls-4" x="41.11" y="54.32" width="0.5" height="0.5" transform="translate(-1.3 1.01) rotate(-1.37)"/><rect class="cls-4" x="34.11" y="54.49" width="0.5" height="0.5" transform="translate(-1.3 0.84) rotate(-1.37)"/><rect class="cls-4" x="41" y="49.83" width="0.5" height="0.5" transform="translate(-1.19 1) rotate(-1.37)"/><rect class="cls-4" x="37.31" y="51.91" width="1" height="1" transform="translate(-1.24 0.92) rotate(-1.37)"/><rect class="cls-4" x="34.01" y="49.99" width="0.5" height="0.5" transform="translate(-1.19 0.84) rotate(-1.37)"/><rect class="cls-4" x="41.23" y="59.32" width="0.5" height="0.5" transform="translate(-1.42 1.01) rotate(-1.37)"/><rect class="cls-4" x="34.23" y="59.49" width="0.5" height="0.5" transform="translate(-1.42 0.84) rotate(-1.37)"/><rect class="cls-4" x="41.12" y="54.82" width="0.5" height="0.5" transform="translate(-1.31 1.01) rotate(-1.37)"/><rect class="cls-4" x="37.43" y="56.91" width="1" height="1" transform="translate(-1.36 0.93) rotate(-1.37)"/><rect class="cls-4" x="34.13" y="54.99" width="0.5" height="0.5" transform="translate(-1.31 0.84) rotate(-1.37)"/><rect class="cls-4" x="41.35" y="64.32" width="0.5" height="0.5" transform="translate(-1.53 1.02) rotate(-1.37)"/><rect class="cls-4" x="41.24" y="59.82" width="0.5" height="0.5" transform="translate(-1.43 1.01) rotate(-1.37)"/><rect class="cls-4" x="37.55" y="61.91" width="1" height="1" transform="translate(-1.48 0.93) rotate(-1.37)"/><rect class="cls-4" x="34.25" y="59.99" width="0.5" height="0.5" transform="translate(-1.43 0.84) rotate(-1.37)"/><rect class="cls-4" x="41.36" y="64.82" width="0.5" height="0.5" transform="translate(-1.55 1.02) rotate(-1.37)"/><rect class="cls-4" x="26.14" y="34.68" width="0.5" height="0.5" transform="translate(-0.83 0.64) rotate(-1.37)"/><rect class="cls-4" x="33.25" y="39.51" width="0.5" height="0.5" transform="translate(-0.94 0.81) rotate(-1.37)"/><rect class="cls-4" x="26.26" y="39.68" width="0.5" height="0.5" transform="translate(-0.95 0.65) rotate(-1.37)"/><rect class="cls-4" x="29.45" y="37.09" width="1" height="1" transform="translate(-0.89 0.73) rotate(-1.37)"/><rect class="cls-4" x="26.15" y="35.18" width="0.5" height="0.5" transform="translate(-0.84 0.64) rotate(-1.37)"/><rect class="cls-4" x="33.37" y="44.51" width="0.5" height="0.5" transform="translate(-1.06 0.82) rotate(-1.37)"/><rect class="cls-4" x="26.38" y="44.68" width="0.5" height="0.5" transform="translate(-1.07 0.65) rotate(-1.37)"/><rect class="cls-4" x="33.27" y="40.01" width="0.5" height="0.5" transform="translate(-0.95 0.81) rotate(-1.37)"/><rect class="cls-4" x="29.57" y="42.09" width="1" height="1" transform="translate(-1.01 0.73) rotate(-1.37)"/><rect class="cls-4" x="26.27" y="40.18" width="0.5" height="0.5" transform="translate(-0.96 0.65) rotate(-1.37)"/><rect class="cls-4" x="33.49" y="49.51" width="0.5" height="0.5" transform="translate(-1.18 0.82) rotate(-1.37)"/><rect class="cls-4" x="26.5" y="49.67" width="0.5" height="0.5" transform="translate(-1.19 0.66) rotate(-1.37)"/><rect class="cls-4" x="33.39" y="45.01" width="0.5" height="0.5" transform="translate(-1.07 0.82) rotate(-1.37)"/><rect class="cls-4" x="29.69" y="47.09" width="1" height="1" transform="translate(-1.13 0.74) rotate(-1.37)"/><rect class="cls-4" x="26.39" y="45.18" width="0.5" height="0.5" transform="translate(-1.08 0.65) rotate(-1.37)"/><rect class="cls-4" x="33.61" y="54.5" width="0.5" height="0.5" transform="translate(-1.3 0.83) rotate(-1.37)"/><rect class="cls-4" x="26.62" y="54.67" width="0.5" height="0.5" transform="translate(-1.31 0.66) rotate(-1.37)"/><rect class="cls-4" x="33.51" y="50.01" width="0.5" height="0.5" transform="translate(-1.19 0.82) rotate(-1.37)"/><rect class="cls-4" x="29.81" y="52.09" width="1" height="1" transform="translate(-1.25 0.74) rotate(-1.37)"/><rect class="cls-4" x="26.51" y="50.17" width="0.5" height="0.5" transform="translate(-1.2 0.66) rotate(-1.37)"/><rect class="cls-4" x="33.73" y="59.5" width="0.5" height="0.5" transform="translate(-1.42 0.83) rotate(-1.37)"/><polygon class="cls-4" points="27.23 59.66 27.23 59.66 27.23 59.66 27.23 59.66"/><rect class="cls-4" x="33.63" y="55" width="0.5" height="0.5" transform="translate(-1.31 0.83) rotate(-1.37)"/><rect class="cls-4" x="29.93" y="57.09" width="1" height="1" transform="translate(-1.37 0.75) rotate(-1.37)"/><rect class="cls-4" x="26.63" y="55.17" width="0.5" height="0.5" transform="translate(-1.32 0.66) rotate(-1.37)"/><rect class="cls-4" x="33.75" y="60" width="0.5" height="0.5" transform="translate(-1.43 0.83) rotate(-1.37)"/><rect class="cls-4" x="25.64" y="34.69" width="0.5" height="0.5" transform="translate(-0.83 0.63) rotate(-1.37)"/><rect class="cls-4" x="25.76" y="39.69" width="0.5" height="0.5" transform="translate(-0.95 0.63) rotate(-1.37)"/><rect class="cls-4" x="25.65" y="35.19" width="0.5" height="0.5" transform="translate(-0.84 0.63) rotate(-1.37)"/><rect class="cls-4" x="25.88" y="44.69" width="0.5" height="0.5" transform="translate(-1.07 0.64) rotate(-1.37)"/><rect class="cls-4" x="25.77" y="40.19" width="0.5" height="0.5" transform="translate(-0.96 0.63) rotate(-1.37)"/><rect class="cls-4" x="26" y="49.69" width="0.5" height="0.5" transform="translate(-1.19 0.64) rotate(-1.37)"/><rect class="cls-4" x="25.89" y="45.19" width="0.5" height="0.5" transform="translate(-1.08 0.64) rotate(-1.37)"/><rect class="cls-4" x="26.12" y="54.68" width="0.5" height="0.5" transform="translate(-1.31 0.65) rotate(-1.37)"/><rect class="cls-4" x="26.01" y="50.19" width="0.5" height="0.5" transform="translate(-1.2 0.64) rotate(-1.37)"/><rect class="cls-4" x="26.13" y="55.18" width="0.5" height="0.5" transform="translate(-1.32 0.65) rotate(-1.37)"/><polygon class="cls-5" points="24.38 32.31 44.21 22 65.62 32.31 45 42.62 24.38 32.31"/><path class="cls-6" d="M46.5,43.5v1h1v-1Zm1,2h-1v1h1v-1Zm-1,2v1h1v-1Zm0,2v1h1v-1Zm1,2h-1v1h1v-1Zm-1,2v1h1v-1Zm0,2v1h1v-1Zm1,2h-1v1h1v-1Zm-1,2v1h1v-1Zm0,2v1h1v-1Zm1,2h-1v1h1v-1Zm-1,2v1h1v-1Z"/></g><path id="outline" class="cls-4" d="M66.62,32.3a1,1,0,0,0-.07-.34l0-.09a1,1,0,0,0-.15-.22l-.05-.06a1,1,0,0,0-.25-.18L44.64,21.1a1,1,0,0,0-.9,0L23.92,31.42a1,1,0,0,0-.24.17l0,0a1,1,0,0,0-.16.24l0,.09a1,1,0,0,0-.07.33h0V57.69a1,1,0,0,0,.55.89L44.55,68.89h0A1,1,0,0,0,45,69h0a1,1,0,0,0,.4-.09h0L66.07,58.58a1,1,0,0,0,.55-.89V32.31h0Zm-2,1.63V57.07L46,66.38V43.24ZM44.22,23.12l19.13,9.21L45,41.5,26.58,32.29Zm-18.84,34V33.93L44,43.24V66.38Z"/></g></g></g></svg>