<svg xmlns="http://www.w3.org/2000/svg" viewBox="0 0 90 90"><defs><style>.cls-1{fill:#be5e50;}.cls-2{fill:#e5e6e5;}.cls-3{fill:#2a373e;}</style></defs><title>artboard</title><g id="artboard"><g id="artboard-2" data-name="artboard"><circle id="label" class="cls-1" cx="45" cy="45" r="45"/><g id="artboard-3" data-name="artboard"><g id="fill"><rect class="cls-2" x="31.56" y="31.56" width="26.89" height="26.89"/><path class="cls-3" d="M54,33v-.4h.4V33Zm0,3.6V37h.4v-.4Zm2.6-2v.8h.8v-.8ZM54,33.4h.4V33H54Zm0,7.2V41h.4v-.4Zm2.6-2v.8h.8v-.8ZM54,37.4h.4V37H54Zm0,7.2V45h.4v-.4Zm2.6-2v.8h.8v-.8ZM54,41.4h.4V41H54Zm0,7.2V49h.4v-.4Zm2.6-2v.8h.8v-.8ZM54,45.4h.4V45H54Zm0,7.2V53h.4v-.4Zm2.6-2v.8h.8v-.8ZM54,49.4h.4V49H54Zm.4,7.6v-.4H54V57Zm2.2-2.4v.8h.8v-.8ZM54,53.4h.4V53H54ZM54,57v.4h.4V57Zm0-24v-.4h-.4V33Zm-5.6,0v-.4H48V33ZM54,36.6h-.4V37H54Zm-5.6.4v-.4H48V37Zm5.2-4v.4H54V33Zm-2.2,1.6h-.8v.8h.8ZM48,33.4h.4V33H48Zm6,7.2h-.4V41H54Zm-6,0V41h.4v-.4ZM53.6,37v.4H54V37Zm-3,2.4h.8v-.8h-.8Zm-2.6-2h.4V37H48Zm6,7.2h-.4V45H54Zm-6,0V45h.4v-.4ZM53.6,41v.4H54V41Zm-3,2.4h.8v-.8h-.8Zm-2.6-2h.4V41H48Zm6,7.2h-.4V49H54Zm-5.6.4v-.4H48V49Zm5.2-4v.4H54V45Zm-3,2.4h.8v-.8h-.8Zm-2.6-2h.4V45H48Zm6,7.2h-.4V53H54Zm-6,0V53h.4v-.4ZM53.6,49v.4H54V49Zm-2.2,2.4v-.8h-.8v.8Zm-3.4-2h.4V49H48Zm6,7.2h-.4V57H54Zm-5.6.4v-.4H48V57Zm5.2-4v.4H54V53Zm-3,2.4h.8v-.8h-.8Zm-2.6-2h.4V53H48ZM53.6,57v.4H54V57ZM48,57v.4h.4V57Zm0-24v-.4h-.4V33Zm-5.6,0v-.4H42V33ZM48,36.6h-.4V37H48Zm-5.6.4v-.4H42V37Zm5.2-4v.4H48V33Zm-2.2,1.6h-.8v.8h.8ZM42,33.4h.4V33H42Zm6,7.2h-.4V41H48Zm-5.6.4v-.4H42V41ZM48,37.4V37h-.4v.4Zm-3.4,1.2v.8h.8v-.8ZM42,37.4h.4V37H42Zm6,7.2h-.4V45H48Zm-5.6.4v-.4H42V45Zm5.2-4v.4H48V41Zm-2.2,1.6h-.8v.8h.8ZM42,41.4h.4V41H42Zm6,7.2h-.4V49H48Zm-5.6.4v-.4H42V49Zm5.2-4v.4H48V45Zm-2.2,1.6h-.8v.8h.8ZM42,45.4h.4V45H42Zm6,7.2h-.4V53H48Zm-6,0V53h.4v-.4ZM48,49h-.4v.4H48Zm-2.6,2.4v-.8h-.8v.8Zm-3.4-2h.4V49H42Zm6,7.2h-.4V57H48Zm-5.6.4v-.4H42V57Zm5.2-4v.4H48V53Zm-3,2.4h.8v-.8h-.8Zm-2.6-2h.4V53H42ZM47.6,57v.4H48V57ZM42,57v.4h.4V57Zm0-24v-.4h-.4V33Zm-5.6,0v-.4H36V33ZM42,36.6h-.4V37H42Zm-5.6.4v-.4H36V37Zm5.2-4v.4H42V33Zm-2.2,1.6h-.8v.8h.8ZM36,33.4h.4V33H36Zm6,7.2h-.4V41H42Zm-5.6.4v-.4H36V41ZM42,37.4V37h-.4v.4Zm-2.6,1.2h-.8v.8h.8ZM36,37.4h.4V37H36Zm6,7.2h-.4V45H42Zm-5.6.4v-.4H36V45ZM42,41.4V41h-.4v.4Zm-2.6,1.2h-.8v.8h.8ZM36,41.4h.4V41H36Zm6,7.2h-.4V49H42Zm-5.6.4v-.4H36V49ZM42,45.4V45h-.4v.4Zm-2.6,1.2h-.8v.8h.8ZM36,45.4h.4V45H36Zm6,7.2h-.4V53H42Zm-5.6.4v-.4H36V53ZM42,49.4V49h-.4v.4Zm-2.6,1.2h-.8v.8h.8ZM36,49.4h.4V49H36Zm6,7.2h-.4V57H42Zm-5.6.4v-.4H36V57Zm5.2-4v.4H42V53Zm-3,2.4h.8v-.8h-.8Zm-2.6-2h.4V53H36ZM41.6,57v.4H42V57ZM36,57v.4h.4V57Zm0-24.4h-.4V33H36Zm0,4h-.4V37H36Zm0-3.2V33h-.4v.4Zm-2.6,2v-.8h-.8v.8ZM36,40.6h-.4V41H36Zm0-3.2V37h-.4v.4Zm-2.6,2v-.8h-.8v.8ZM36,44.6h-.4V45H36Zm0-3.2V41h-.4v.4Zm-2.6,2v-.8h-.8v.8ZM36,48.6h-.4V49H36Zm0-3.2V45h-.4v.4Zm-2.6,2v-.8h-.8v.8ZM36,52.6h-.4V53H36Zm0-3.2V49h-.4v.4Zm-2.6,2v-.8h-.8v.8ZM36,56.6h-.4V57H36Zm0-3.2V53h-.4v.4Zm-2.6,2v-.8h-.8v.8ZM35.6,57v.4H36V57Z"/></g><g id="outline"><path class="cls-3" d="M58.44,30.56H31.56a1,1,0,0,0-1,1V58.44a1,1,0,0,0,1,1H58.44a1,1,0,0,0,1-1V31.56A1,1,0,0,0,58.44,30.56Zm-1,26.89H32.56V32.56H57.44Z"/><path class="cls-3" d="M58.44,22a1,1,0,0,0-1,1v4.89a1,1,0,1,0,2,0V23A1,1,0,0,0,58.44,22Z"/><path class="cls-3" d="M62.11,32.56H67a1,1,0,1,0,0-2H62.11a1,1,0,0,0,0,2Z"/><path class="cls-3" d="M31.56,28.89a1,1,0,0,0,1-1V23a1,1,0,1,0-2,0v4.89A1,1,0,0,0,31.56,28.89Z"/><path class="cls-3" d="M27.89,30.56H23a1,1,0,1,0,0,2h4.89a1,1,0,1,0,0-2Z"/><path class="cls-3" d="M58.44,61.11a1,1,0,0,0-1,1V67a1,1,0,0,0,2,0V62.11A1,1,0,0,0,58.44,61.11Z"/><path class="cls-3" d="M67,57.44H62.11a1,1,0,1,0,0,2H67a1,1,0,0,0,0-2Z"/><path class="cls-3" d="M31.56,61.11a1,1,0,0,0-1,1V67a1,1,0,1,0,2,0V62.11A1,1,0,0,0,31.56,61.11Z"/><path class="cls-3" d="M27.89,57.44H23a1,1,0,0,0,0,2h4.89a1,1,0,1,0,0-2Z"/></g></g></g></g></svg>