<svg xmlns="http://www.w3.org/2000/svg" viewBox="0 0 90 90"><defs><style>.cls-1{fill:#cfcdcc;}.cls-2{fill:#e5e6e5;}.cls-3{fill:#2a373e;}.cls-4{fill:#999797;}.cls-5{fill:#94c3cb;}.cls-6{fill:#be5e50;}.cls-7{fill:none;}</style></defs><title>color-swatches</title><g id="color-swatches"><g id="color-swatches-2" data-name="color-swatches"><circle id="label" class="cls-1" cx="45" cy="45" r="45"/><g id="color-swatches-3" data-name="color-swatches"><g id="fill"><polygon class="cls-2" points="48.4 48.39 64.92 48.39 64.92 60.89 60.82 64.91 48.4 64.91 48.4 48.39"/><circle class="cls-3" cx="65.47" cy="65.52" r="0.52"/><polygon class="cls-4" points="23.99 48.39 40.51 48.39 40.51 60.89 36.41 64.91 23.99 64.91 23.99 48.39"/><circle class="cls-3" cx="41.06" cy="65.52" r="0.52"/><polygon class="cls-5" points="48.4 23.99 64.92 23.99 64.92 36.48 60.82 40.51 48.4 40.51 48.4 23.99"/><circle class="cls-3" cx="65.47" cy="41.12" r="0.52"/><polygon class="cls-6" points="23.99 23.99 40.51 23.99 40.51 36.48 36.41 40.51 23.99 40.51 23.99 23.99"/><circle class="cls-7" cx="41.06" cy="41.12" r="0.52"/></g><g id="outline"><path class="cls-3" d="M65.92,60.89V48.39a1,1,0,0,0-1-1H48.4a1,1,0,0,0-1,1V64.91a1,1,0,0,0,1,1H60.82a1,1,0,0,0,.7-.29l4.1-4A1,1,0,0,0,65.92,60.89Zm-2-.42-3.51,3.45h-11V49.39H63.92Z"/><path class="cls-3" d="M65.47,64A1.52,1.52,0,1,0,67,65.52,1.53,1.53,0,0,0,65.47,64Zm0,2a.48.48,0,1,1,.48-.48A.48.48,0,0,1,65.47,66Z"/><path class="cls-3" d="M41.51,60.89V48.39a1,1,0,0,0-1-1H24a1,1,0,0,0-1,1V64.91a1,1,0,0,0,1,1H36.41a1,1,0,0,0,.7-.29l4.1-4A1,1,0,0,0,41.51,60.89Zm-2-.42L36,63.91H25V49.39H39.51Z"/><path class="cls-3" d="M41.06,64a1.52,1.52,0,1,0,1.52,1.52A1.53,1.53,0,0,0,41.06,64Zm0,2a.48.48,0,1,1,.48-.48A.48.48,0,0,1,41.06,66Z"/><path class="cls-3" d="M48.4,41.51H60.82a1,1,0,0,0,.7-.29l4.1-4a1,1,0,0,0,.3-.71V24a1,1,0,0,0-1-1H48.4a1,1,0,0,0-1,1V40.51A1,1,0,0,0,48.4,41.51ZM49.4,25H63.92V36.06l-3.51,3.45h-11Z"/><path class="cls-3" d="M63.94,41.12a1.52,1.52,0,1,0,1.52-1.52A1.52,1.52,0,0,0,63.94,41.12Zm2,0a.48.48,0,1,1-.48-.48A.48.48,0,0,1,65.94,41.12Z"/><path class="cls-3" d="M24,41.51H36.41a1,1,0,0,0,.7-.29l4.1-4a1,1,0,0,0,.3-.71V24a1,1,0,0,0-1-1H24a1,1,0,0,0-1,1V40.51A1,1,0,0,0,24,41.51ZM25,25H39.51V36.06L36,39.51H25Z"/><path class="cls-3" d="M41.06,39.59a1.52,1.52,0,1,0,1.52,1.52A1.53,1.53,0,0,0,41.06,39.59Zm0,2a.48.48,0,1,1,.48-.48A.48.48,0,0,1,41.06,41.59Z"/></g></g></g></g></svg>