<svg xmlns="http://www.w3.org/2000/svg" viewBox="0 0 90 90"><defs><style>.cls-1{fill:#cfcdcc;}.cls-2{fill:#be5e50;}.cls-3{fill:#94c3cb;}.cls-4{fill:#e5e6e5;}.cls-5{fill:#bdbbba;}.cls-6{fill:#2a373e;}</style></defs><title>color-palette</title><g id="color-palette"><g id="color-palette-2" data-name="color-palette"><circle id="label" class="cls-1" cx="45" cy="45" r="45"/><g id="color-palette-3" data-name="color-palette"><g id="fill"><path class="cls-2" d="M24.84,56.52,35.15,25.06a6.12,6.12,0,0,1,7.77-3.71L50,24.17"/><path class="cls-3" d="M25.44,55.21,43.53,26.8A6.11,6.11,0,0,1,51.95,25l5.27,3.31"/><path class="cls-4" d="M51,29.88a6.09,6.09,0,0,1,8.62,0l4,4a6.09,6.09,0,0,1,0,8.62L39,67.22a6.09,6.09,0,0,1-8.62,0l-4-4a6.09,6.09,0,0,1,0-8.62Z"/><circle class="cls-5" cx="33.75" cy="59.82" r="2.62" transform="translate(-32.42 41.39) rotate(-45)"/></g><g id="outline"><path class="cls-6" d="M64.37,33.19l-4-4a7,7,0,0,0-2.48-1.6,1,1,0,0,0-.13-.12l-5.26-3.3a7.05,7.05,0,0,0-2.15-.92L43.26,20.4a7.11,7.11,0,0,0-9.06,4.34L23.89,56.21a1,1,0,0,0,0,.53,7.1,7.1,0,0,0,1.74,7.16l4,4a7.1,7.1,0,0,0,10,0l24.7-24.7a7.09,7.09,0,0,0,0-10Zm-10.64-5.9a7,7,0,0,0-3.41,1.88l-19.6,19.6L44.37,27.34a5.11,5.11,0,0,1,7-1.51Zm-17.64-1.9a5.1,5.1,0,0,1,6.46-3.12l3.3,1.32a7,7,0,0,0-3.17,2.67L28.52,48.51ZM63,41.81l-24.7,24.7a5.1,5.1,0,0,1-7.2,0l-4-4a5.1,5.1,0,0,1,0-7.2l24.7-24.7a5.1,5.1,0,0,1,7.2,0l4,4a5.09,5.09,0,0,1,0,7.2Z"/><path class="cls-6" d="M33.75,56.2h0a3.59,3.59,0,0,0-2.56,1.06h0a3.61,3.61,0,1,0,2.56-1.06ZM34.9,61a1.62,1.62,0,1,1-2.29-2.29h0a1.6,1.6,0,0,1,1.14-.47h0A1.62,1.62,0,0,1,34.9,61Z"/></g></g></g></g></svg>