<svg xmlns="http://www.w3.org/2000/svg" viewBox="0 0 90 90"><defs><style>.cls-1{fill:#be5e50;}.cls-2{fill:#e5e6e5;}.cls-3{fill:#94c3cb;}.cls-4{fill:#999797;}.cls-5{fill:#bdbbba;}.cls-6{fill:#2a373e;}</style></defs><title>corporate-identity</title><g id="corporate-identity"><g id="corporate-identity-2" data-name="corporate-identity"><circle id="label" class="cls-1" cx="45" cy="45" r="45"/><g id="corporate-identity-3" data-name="corporate-identity"><g id="fill"><rect class="cls-2" x="32.54" y="21" width="33.65" height="48"/><rect class="cls-3" x="33.29" y="22" width="31.78" height="10.44"/><rect class="cls-1" x="36.85" y="25.39" width="5.54" height="3.27"/><path class="cls-4" d="M58.35,66.5h-1v1h1ZM56,63.5h1v-1H56Zm-2,0h1v-1h-1Zm-2,0h1v-1h-1Zm4.4,3h-1v1h1Zm-2,0h-1v1h1Zm-2,0h-1v1h1Zm4.4-2v1h1v-1h-1Zm-2,1h1v-1h-1Zm-2,0h1v-1h-1Zm-2.71-2h1v-1h-1Zm-2,0h1v-1h-1Zm-2,0h1v-1h-1Zm4.4,3h-1v1h1Zm-2,0h-1v1h1Zm-2,0h-1v1h1Zm4.4-2v1h1v-1h-1Zm-2,1h1v-1h-1Zm-2,0h1v-1h-1Zm-2.71-2h1v-1h-1Zm-2,0h1v-1h-1Zm-2,0h1v-1h-1Zm4.4,3h-1v1h1Zm-2,0h-1v1h1Zm-2,0H39v1h1Zm4.4-2v1h1v-1h-1Zm-2,1h1v-1h-1Zm-2,0h1v-1h-1Zm-2.71-2h1v-1h-1Zm-2,0h1v-1h-1Zm-2,0h1v-1h-1Zm4.4,3H37v1h1Zm-2,0H35v1h1Zm2.37-2v1h1v-1h-1Zm-2,1h1v-1h-1Zm-2,0h1v-1h-1Z"/><rect class="cls-5" x="25.15" y="41.48" width="31.1" height="7.38"/><rect class="cls-4" x="25.15" y="50.86" width="31.1" height="9.72"/></g><g id="outline"><path class="cls-6" d="M66.07,20H32.29a1,1,0,0,0-1,1V39.48H24.15a1,1,0,0,0-1,1v21.1a1,1,0,0,0,1,1h7.14V69a1,1,0,0,0,1,1H66.07a1,1,0,0,0,1-1V21A1,1,0,0,0,66.07,20Zm-1,2V32.44H33.29V22ZM32.29,41.48h24v7.38H25.15V41.48Zm-7.14,9.38h31.1v9.72H25.15ZM33.29,68V62.59h24a1,1,0,0,0,1-1V40.48a1,1,0,0,0-1-1h-24v-5H65.07V68Z"/><path class="cls-6" d="M35.85,30.66h7.54a1,1,0,0,0,1-1V24.39a1,1,0,0,0-1-1H35.85a1,1,0,0,0-1,1v5.27A1,1,0,0,0,35.85,30.66Zm1-5.27h5.54v3.27H36.85Z"/><rect class="cls-6" x="47.34" y="24.38" width="15.23" height="2"/><rect class="cls-6" x="47.34" y="27.94" width="15.23" height="2"/><rect class="cls-6" x="36.56" y="46" width="8.28" height="2"/><rect class="cls-6" x="34.2" y="43" width="13" height="2"/></g></g></g></g></svg>