<svg xmlns="http://www.w3.org/2000/svg" viewBox="0 0 90 90"><defs><style>.cls-1{fill:#cfcdcc;}.cls-2{fill:#be5e50;}.cls-3{fill:#d8d6d5;}.cls-4{fill:#2a373e;}.cls-5{fill:#94c3cb;}.cls-6{fill:#eff0ef;}</style></defs><title>crop-tool</title><g id="crop-tool"><g id="crop-tool-2" data-name="crop-tool"><circle id="label" class="cls-1" cx="45" cy="45" r="45"/><g id="crop-tool-3" data-name="crop-tool"><g id="fill"><polygon class="cls-2" points="33.1 37.86 52.14 37.86 52.14 56.9 58.48 56.9 58.48 37.86 58.48 31.52 52.14 31.52 33.1 31.52 33.1 37.86"/><rect class="cls-3" x="22" y="31.52" width="4.76" height="6.35"/><rect class="cls-3" x="52.14" y="63.24" width="6.34" height="4.76"/><path class="cls-4" d="M57.17,55.22h1v1.12h-1Zm-2,0v1.12h1V55.22h-1ZM57.5,53h-1V54.1h1Zm.33-2.24v1.12h.65V50.74Zm-1,1.12V50.74h-1v1.12h1Zm-3.67,4.49h1V55.22h-1ZM55.5,53h-1V54.1h1Zm-2,0h-1V54.1h1Zm1.33-2.24h-1v1.12h1Zm-2,0h-.7v1.12h.7Z"/><polygon class="cls-5" points="33.1 56.9 33.1 26.76 26.76 26.76 26.76 56.9 26.76 63.24 33.1 63.24 63.24 63.24 63.24 56.9 33.1 56.9"/></g><g id="outline"><path class="cls-6" d="M51.43,37.16l-19,19a1,1,0,1,0,1.41,1.41l19-19a1,1,0,0,0-1.41-1.41Z"/><path class="cls-6" d="M68.71,21.29a1,1,0,0,0-1.41,0l-9.52,9.52a1,1,0,1,0,1.41,1.41l9.52-9.52A1,1,0,0,0,68.71,21.29Z"/><path class="cls-4" d="M63.24,55.9H59.48V31.52a1,1,0,0,0-1-1H34.1V26.76a1,1,0,0,0-1-1H26.76a1,1,0,0,0-1,1v3.76H22a1,1,0,0,0-1,1v6.34a1,1,0,0,0,1,1h3.76V63.24a1,1,0,0,0,1,1H51.14V68a1,1,0,0,0,1,1h6.34a1,1,0,0,0,1-1V64.24h3.76a1,1,0,0,0,1-1V56.9A1,1,0,0,0,63.24,55.9ZM57.48,32.52V55.9H53.14v-18a1,1,0,0,0-1-1h-18V32.52ZM34.1,55.9v-17h17v17ZM23,36.86V32.52h2.76v4.34ZM57.48,67H53.14V64.24h4.34Zm4.76-4.76H27.76V27.76H32.1V56.9a1,1,0,0,0,1,1H62.24Z"/></g></g></g></g></svg>