<svg xmlns="http://www.w3.org/2000/svg" viewBox="0 0 90 90"><defs><style>.cls-1{fill:#94c3cb;}.cls-2{fill:#d8d6d5;}.cls-3{fill:#e5e6e5;}.cls-4{fill:#be5e50;}.cls-5{fill:#2a373e;}</style></defs><title>eraser</title><g id="eraser"><g id="eraser-2" data-name="eraser"><circle id="label" class="cls-1" cx="45" cy="45" r="45"/><g id="eraser-3" data-name="eraser"><g id="fill"><path class="cls-2" d="M59.81,42.36,45.41,56.5H41.07l-8-7.57a3.08,3.08,0,0,1,0-4.34L37.68,40l9.9-9.9Z"/><path class="cls-3" d="M47.58,30.13l7.23-7.23a3.08,3.08,0,0,1,4.34,0l8,8a3.08,3.08,0,0,1,0,4.34l-7.3,7.17"/><polygon class="cls-4" points="59.87 42.42 50.11 52.13 37.9 40.26 47.58 30.13 59.87 42.42"/><rect class="cls-5" x="44.03" y="53.49" width="1.05" height="1.05" transform="translate(-25.14 47.33) rotate(-45)"/><polygon class="cls-5" points="43.08 53.27 43.82 52.53 43.69 52.41 43.08 51.8 42.34 52.53 42.95 53.15 43.08 53.27"/><rect class="cls-5" x="41.08" y="50.53" width="1.05" height="1.05" transform="translate(-23.92 44.37) rotate(-45)"/><rect class="cls-5" x="39.6" y="49.06" width="1.05" height="1.05" transform="translate(-23.31 42.89) rotate(-45)"/><polygon class="cls-5" points="38.64 48.84 39.38 48.1 39.26 47.98 38.64 47.36 37.9 48.1 38.52 48.72 38.64 48.84"/><polygon class="cls-5" points="42.09 53.77 41.43 54.43 41.56 54.55 42.22 55.12 42.83 54.51 42.21 53.89 42.09 53.77"/><polygon class="cls-5" points="39.87 53.03 40.29 53.44 40.63 53.74 41.35 53.03 40.61 52.29 39.87 53.03"/><rect class="cls-5" x="38.61" y="51.03" width="1.05" height="1.05" transform="translate(-24.99 42.77) rotate(-45)"/><polygon class="cls-5" points="37.78 49.45 37.66 49.33 36.92 50.07 37.04 50.19 37.66 50.81 38.4 50.07 37.78 49.45"/><rect class="cls-5" x="36.64" y="46.1" width="1.05" height="1.05" transform="translate(-22.08 39.93) rotate(-45)"/><rect class="cls-5" x="35.16" y="44.62" width="1.05" height="1.05" transform="translate(-21.47 38.45) rotate(-45)"/><rect class="cls-5" x="35.65" y="48.07" width="1.05" height="1.05" transform="translate(-23.76 39.82) rotate(-45)"/><rect class="cls-5" x="34.18" y="46.59" width="1.05" height="1.05" transform="translate(-23.15 38.33) rotate(-45)"/></g><g id="outline"><path class="cls-5" d="M67.81,30.14l-8-8a4.07,4.07,0,0,0-5.75,0L32.41,43.88a4.08,4.08,0,0,0,0,5.78l8,7.57a1,1,0,0,0,.69.28h4.34a1,1,0,0,0,.7-.29L67.81,35.9A4.08,4.08,0,0,0,67.81,30.14Zm-20.23,1.4L58.39,42.35l-8.56,8.41L39.09,40ZM45,55.5H41.47l-7.65-7.27a2.08,2.08,0,0,1,0-2.93l3.85-3.85L48.4,52.16Zm21.4-21-6.59,6.47L49,30.13l6.52-6.52a2.07,2.07,0,0,1,2.92,0l8,8A2.07,2.07,0,0,1,66.4,34.47Z"/><path class="cls-5" d="M22,57.5H34.78a1,1,0,0,0,0-2H22a1,1,0,0,0,0,2Z"/><path class="cls-5" d="M34.78,67H22a1,1,0,0,0,0,2H34.78a1,1,0,0,0,0-2Z"/><path class="cls-5" d="M45,61.25H27.11a1,1,0,1,0,0,2H45a1,1,0,0,0,0-2Z"/></g></g></g></g></svg>