<svg xmlns="http://www.w3.org/2000/svg" viewBox="0 0 90 90"><defs><style>.cls-1{fill:#cfcdcc;}.cls-2{fill:#94c3cb;}.cls-3{fill:#e5e6e5;}.cls-4{fill:#be5e50;}.cls-5{fill:#2a373e;}</style></defs><title>eyedropper</title><g id="eyedropper"><g id="eyedropper-2" data-name="eyedropper"><circle id="label" class="cls-1" cx="45" cy="45" r="45"/><g id="eyedropper-3" data-name="eyedropper"><g id="fill"><path class="cls-2" d="M31.55,66c0-1.67-3-5.45-3-5.45s-3,3.77-3,5.45a3,3,0,0,0,6.05,0Z"/><path class="cls-3" d="M46.81,30.21,31.22,45.8a5.58,5.58,0,0,0-1.05,6.41L28.4,54A1.82,1.82,0,1,0,31,56.55l1.77-1.77a5.59,5.59,0,0,0,6.41-1.05L54.74,38.14"/><path class="cls-2" d="M31.22,46a5.28,5.28,0,0,0-1.05,6.21L28.4,54A1.82,1.82,0,1,0,31,56.55l1.77-1.77a5.59,5.59,0,0,0,6.41-1.05L47,46Z"/><path class="cls-4" d="M58.71,34.95l4.15-4.15a5.6,5.6,0,0,0-7.93-7.93L50.79,27"/><path class="cls-4" d="M50.79,27l-1.71-1.71a2.42,2.42,0,0,0-3.42,3.42L57,40.08a2.42,2.42,0,1,0,3.42-3.42l-1.71-1.71Z"/><path class="cls-5" d="M61.22,32l-.74-.74.74-.74.74.74Zm-1.48-1.48.74-.74-.12-.12-.62-.62-.74.74.62.62Zm.49,2-.74.74.38.38.74-.74ZM59,28.33l-.74-.74-.74.74.74.74Zm-1.48-1.48-.74-.74-.74.74.74.74Zm-2.22-.74.74-.74-.12-.12-.62-.62-.74.74.62.62ZM58.75,31l-.74.74.12.12.62.62.74-.74-.62-.62Zm-2.22-.74.74.74.74-.74-.74-.74ZM55,28.82l.74.74.74-.74-.74-.74Zm-.49-4.94-.38-.38-.74.74.38.38ZM54.3,26.6l-.74.74.12.12.62.62.74-.74-.62-.62Zm-2.22-.74.74.74.74-.74-.74-.74Z"/></g><g id="outline"><path class="cls-5" d="M28.52,70a4,4,0,0,1-4-4c0-1.92,2.7-5.39,3.25-6.07a1,1,0,0,1,.78-.37h0a1,1,0,0,1,.78.38c.54.68,3.24,4.15,3.24,6.07A4,4,0,0,1,28.52,70Zm0-7.81c-1.08,1.49-2,3.13-2,3.79a2,2,0,0,0,4.05,0C30.55,65.32,29.6,63.68,28.52,62.19Z"/><path class="cls-5" d="M29.68,58.08a2.81,2.81,0,0,1-2-4.8L29,52a6.58,6.58,0,0,1,1.53-6.89L46.1,29.5a1,1,0,0,1,1.41,1.41L31.93,46.51a4.59,4.59,0,0,0-.86,5.27,1,1,0,0,1-.19,1.15L29.1,54.69a.81.81,0,0,0,1.15,1.15L32,54.07a1,1,0,0,1,1.15-.19A4.6,4.6,0,0,0,38.44,53L54,37.43a1,1,0,0,1,1.41,1.41L39.86,54.43A6.59,6.59,0,0,1,33,56l-1.3,1.3A2.81,2.81,0,0,1,29.68,58.08Z"/><path class="cls-5" d="M58.16,41.55a3.41,3.41,0,0,1-2.42-1L44.39,29.21a3.42,3.42,0,0,1,0-4.84,3.5,3.5,0,0,1,4.84,0l1,1,3.44-3.44A6.6,6.6,0,1,1,63,31.28l-3.44,3.44,1,1a3.42,3.42,0,0,1-2.42,5.84ZM46.81,25.37a1.42,1.42,0,0,0-1,2.42L57.15,39.14a1.42,1.42,0,1,0,2-2l-1.71-1.71h0L49.52,27.5h0l-1.71-1.71A1.41,1.41,0,0,0,46.81,25.37Zm4.83,1.42,6.51,6.51,3.44-3.44a4.6,4.6,0,0,0,0-6.51h0a4.6,4.6,0,0,0-6.51,0Z"/></g></g></g></g></svg>