<svg xmlns="http://www.w3.org/2000/svg" viewBox="0 0 90 90"><defs><style>.cls-1{fill:#be5e50;}.cls-2{fill:#e5e6e5;}.cls-3{fill:#94c3cb;}.cls-4{fill:#2a373e;}</style></defs><title>grid-layout</title><g id="grid-layout"><g id="grid-layout-2" data-name="grid-layout"><circle id="label" class="cls-1" cx="45" cy="45" r="45"/><g id="grid-layout-3" data-name="grid-layout"><g id="fill"><rect class="cls-2" x="26.5" y="26.5" width="8.86" height="8.86"/><rect class="cls-2" x="40.57" y="26.5" width="8.86" height="8.86"/><rect class="cls-2" x="54.64" y="26.5" width="8.86" height="8.86"/><rect class="cls-2" x="26.5" y="40.57" width="8.86" height="8.86"/><rect class="cls-3" x="40.57" y="40.57" width="8.86" height="8.86"/><rect class="cls-2" x="54.64" y="40.57" width="8.86" height="8.86"/><rect class="cls-2" x="26.5" y="54.64" width="8.86" height="8.86"/><rect class="cls-2" x="40.57" y="54.64" width="8.86" height="8.86"/><rect class="cls-2" x="54.64" y="54.64" width="8.86" height="8.86"/></g><g id="outline"><path class="cls-4" d="M35.36,25.5H26.5a1,1,0,0,0-1,1v8.87a1,1,0,0,0,1,1h8.86a1,1,0,0,0,1-1V26.5A1,1,0,0,0,35.36,25.5Zm-1,8.87H27.5V27.5h6.86Z"/><path class="cls-4" d="M49.43,25.5H40.57a1,1,0,0,0-1,1v8.87a1,1,0,0,0,1,1h8.86a1,1,0,0,0,1-1V26.5A1,1,0,0,0,49.43,25.5Zm-1,8.87H41.57V27.5h6.86Z"/><path class="cls-4" d="M63.5,25.5H54.63a1,1,0,0,0-1,1v8.87a1,1,0,0,0,1,1H63.5a1,1,0,0,0,1-1V26.5A1,1,0,0,0,63.5,25.5Zm-1,8.87H55.63V27.5H62.5Z"/><path class="cls-4" d="M35.36,39.57H26.5a1,1,0,0,0-1,1v8.86a1,1,0,0,0,1,1h8.86a1,1,0,0,0,1-1V40.57A1,1,0,0,0,35.36,39.57Zm-1,8.86H27.5V41.57h6.86Z"/><path class="cls-4" d="M49.43,39.57H40.57a1,1,0,0,0-1,1v8.86a1,1,0,0,0,1,1h8.86a1,1,0,0,0,1-1V40.57A1,1,0,0,0,49.43,39.57Zm-1,8.86H41.57V41.57h6.86Z"/><path class="cls-4" d="M63.5,39.57H54.63a1,1,0,0,0-1,1v8.86a1,1,0,0,0,1,1H63.5a1,1,0,0,0,1-1V40.57A1,1,0,0,0,63.5,39.57Zm-1,8.86H55.63V41.57H62.5Z"/><path class="cls-4" d="M35.36,53.64H26.5a1,1,0,0,0-1,1V63.5a1,1,0,0,0,1,1h8.86a1,1,0,0,0,1-1V54.64A1,1,0,0,0,35.36,53.64Zm-1,8.86H27.5V55.64h6.86Z"/><path class="cls-4" d="M49.43,53.64H40.57a1,1,0,0,0-1,1V63.5a1,1,0,0,0,1,1h8.86a1,1,0,0,0,1-1V54.64A1,1,0,0,0,49.43,53.64Zm-1,8.86H41.57V55.64h6.86Z"/><path class="cls-4" d="M63.5,53.64H54.63a1,1,0,0,0-1,1V63.5a1,1,0,0,0,1,1H63.5a1,1,0,0,0,1-1V54.64A1,1,0,0,0,63.5,53.64Zm-1,8.86H55.63V55.64H62.5Z"/></g></g></g></g></svg>