<svg xmlns="http://www.w3.org/2000/svg" viewBox="0 0 90 90"><defs><style>.cls-1{fill:#94c3cb;}.cls-2{fill:#999797;}.cls-3{fill:#be5e50;}.cls-4{fill:#bdbbba;}.cls-5{fill:#e5e6e5;}.cls-6{fill:#2a373e;}</style></defs><title>group-layers</title><g id="group-layers"><g id="group-layers-2" data-name="group-layers"><circle id="label" class="cls-1" cx="45" cy="45" r="45"/><g id="group-layers-3" data-name="group-layers"><g id="fill"><rect class="cls-2" x="23" y="23" width="4.89" height="4.89"/><rect class="cls-2" x="62.11" y="23" width="4.89" height="4.89"/><rect class="cls-2" x="23" y="62.11" width="4.89" height="4.89"/><rect class="cls-2" x="62.11" y="62.11" width="4.89" height="4.89"/><polyline class="cls-3" points="39.42 48.75 31.61 52.5 45 58.93 58.39 52.5 50.58 48.75"/><polyline class="cls-4" points="39.42 41.25 31.61 45 45 51.43 58.39 45 50.58 41.25"/><polygon class="cls-5" points="45 43.93 58.39 37.5 45 31.07 31.61 37.5 45 43.93"/></g><g id="outline"><path class="cls-6" d="M27.89,22H23a1,1,0,0,0-1,1v4.89a1,1,0,0,0,1,1h4.89a1,1,0,0,0,1-1V23A1,1,0,0,0,27.89,22Zm-1,4.89H24V24h2.89Z"/><path class="cls-6" d="M67,22H62.11a1,1,0,0,0-1,1v4.89a1,1,0,0,0,1,1H67a1,1,0,0,0,1-1V23A1,1,0,0,0,67,22Zm-1,4.89H63.11V24H66Z"/><path class="cls-6" d="M27.89,61.11H23a1,1,0,0,0-1,1V67a1,1,0,0,0,1,1h4.89a1,1,0,0,0,1-1V62.11A1,1,0,0,0,27.89,61.11Zm-1,4.89H24V63.11h2.89Z"/><path class="cls-6" d="M67,61.11H62.11a1,1,0,0,0-1,1V67a1,1,0,0,0,1,1H67a1,1,0,0,0,1-1V62.11A1,1,0,0,0,67,61.11ZM66,66H63.11V63.11H66Z"/><rect class="cls-6" x="30.81" y="24.44" width="2.84" height="2"/><rect class="cls-6" x="35.92" y="24.44" width="2.84" height="2"/><rect class="cls-6" x="41.03" y="24.44" width="2.84" height="2"/><rect class="cls-6" x="46.14" y="24.44" width="2.84" height="2"/><rect class="cls-6" x="51.25" y="24.44" width="2.84" height="2"/><rect class="cls-6" x="56.36" y="24.44" width="2.84" height="2"/><rect class="cls-6" x="30.81" y="63.56" width="2.84" height="2"/><rect class="cls-6" x="35.92" y="63.56" width="2.84" height="2"/><rect class="cls-6" x="41.03" y="63.56" width="2.84" height="2"/><rect class="cls-6" x="46.14" y="63.56" width="2.84" height="2"/><rect class="cls-6" x="51.25" y="63.56" width="2.84" height="2"/><rect class="cls-6" x="56.36" y="63.56" width="2.84" height="2"/><rect class="cls-6" x="63.56" y="30.81" width="2" height="2.84"/><rect class="cls-6" x="63.56" y="35.92" width="2" height="2.84"/><rect class="cls-6" x="63.56" y="41.03" width="2" height="2.84"/><rect class="cls-6" x="63.56" y="46.14" width="2" height="2.84"/><rect class="cls-6" x="63.56" y="51.25" width="2" height="2.84"/><rect class="cls-6" x="63.56" y="56.36" width="2" height="2.84"/><rect class="cls-6" x="24.45" y="30.81" width="2" height="2.84"/><rect class="cls-6" x="24.45" y="35.92" width="2" height="2.84"/><rect class="cls-6" x="24.45" y="41.03" width="2" height="2.84"/><rect class="cls-6" x="24.45" y="46.14" width="2" height="2.84"/><rect class="cls-6" x="24.45" y="51.25" width="2" height="2.84"/><rect class="cls-6" x="24.45" y="56.36" width="2" height="2.84"/><path class="cls-6" d="M59.39,37.5a1,1,0,0,0-.57-.9L45.43,30.17a1,1,0,0,0-.87,0L31.18,36.6a1,1,0,0,0,0,1.8l5.93,2.85L31.18,44.1a1,1,0,0,0,0,1.8l5.93,2.85L31.18,51.6a1,1,0,0,0,0,1.8l13.39,6.43a1,1,0,0,0,.87,0L58.82,53.4a1,1,0,0,0,0-1.8l-5.93-2.85,5.93-2.85a1,1,0,0,0,0-1.8l-5.93-2.85,5.93-2.85A1,1,0,0,0,59.39,37.5Zm-3.31,15L45,57.82,33.92,52.5l5.5-2.64,5.15,2.47a1,1,0,0,0,.87,0l5.15-2.47Zm0-7.5L45,50.32,33.92,45l5.5-2.64,5.15,2.47a1,1,0,0,0,.87,0l5.15-2.47ZM45,42.82,33.92,37.5,45,32.18,56.08,37.5Z"/></g></g></g></g></svg>