<svg xmlns="http://www.w3.org/2000/svg" viewBox="0 0 90 90"><defs><style>.cls-1{fill:#be5e50;}.cls-2{fill:#999797;}.cls-3{fill:#2a373e;}.cls-4{fill:#94c3cb;}.cls-5{fill:#e5e6e5;}.cls-6{fill:#eff0ef;}</style></defs><title>idea-bulb</title><g id="idea-bulb"><g id="idea-bulb-2" data-name="idea-bulb"><circle id="label" class="cls-1" cx="45" cy="45" r="45"/><g id="idea-bulb-3" data-name="idea-bulb"><g id="fill"><path class="cls-2" d="M50.46,63.69A5.1,5.1,0,0,1,45,69c-3.18,0-5.62-2.11-5.62-5.29"/><path class="cls-3" d="M46.71,66.87h1.14V68H46.71ZM44.43,68h1.14V66.87H44.43Zm-2.29,0h1.14V66.87H42.14Zm5.71-3.43v1.14H49V64.59Zm-1.14,0H45.57v1.14h1.14Zm-2.29,0H43.29v1.14h1.14Zm-2.29,0H41v1.14h1.14Z"/><rect class="cls-1" x="39.42" y="53.57" width="11.04" height="10.12"/><rect class="cls-4" x="39.42" y="58.63" width="11.04" height="5.06"/><path class="cls-5" d="M55.13,28.17A13.84,13.84,0,0,0,35.51,47.69a9.59,9.59,0,0,0,3.9,2.74v4.06h11V50.43a11.24,11.24,0,0,0,4.34-2.74A13.8,13.8,0,0,0,55.13,28.17Z"/></g><g id="outline"><path class="cls-3" d="M55.84,27.46A14.85,14.85,0,0,0,30.52,37.92a14.58,14.58,0,0,0,4.33,10.52,11,11,0,0,0,3.56,2.66V63.69C38.42,67.33,41.2,70,45,70a6.08,6.08,0,0,0,6.42-6.29V51.11a12.05,12.05,0,0,0,4-2.72A15.22,15.22,0,0,0,60,38,14.21,14.21,0,0,0,55.84,27.46ZM40.42,59.74h9v2.95h-9Zm9-2h-9V55.49h9ZM45,68a4.32,4.32,0,0,1-4.51-3.29h8.83A4,4,0,0,1,45,68Zm9.05-21a10.3,10.3,0,0,1-4,2.51,1,1,0,0,0-.66.94v3.06h-9V50.42a1,1,0,0,0-.66-.94A8.66,8.66,0,0,1,36.22,47a12.56,12.56,0,0,1-3.7-9,12.85,12.85,0,0,1,21.9-9.06,12.23,12.23,0,0,1,3.58,9A13.23,13.23,0,0,1,54.09,47Z"/><path class="cls-3" d="M39.58,30.72a1,1,0,0,0-1.41,0,10.19,10.19,0,0,0,0,14.42,1,1,0,0,0,1.41-1.41,8.2,8.2,0,0,1,0-11.6A1,1,0,0,0,39.58,30.72Z"/><path class="cls-6" d="M30.53,20.32a1,1,0,0,0-1.41,1.41l2.6,2.6a1,1,0,1,0,1.41-1.41Z"/><path class="cls-6" d="M60.32,20.32l-2.6,2.6a1,1,0,1,0,1.41,1.41l2.6-2.6a1,1,0,0,0-1.41-1.41Z"/><path class="cls-6" d="M31.71,51.53l-2.6,2.6a1,1,0,1,0,1.41,1.41l2.6-2.6a1,1,0,1,0-1.41-1.41Z"/><path class="cls-6" d="M59.14,51.53a1,1,0,0,0-1.41,1.41l2.6,2.6a1,1,0,0,0,1.41-1.41Z"/><path class="cls-6" d="M25.16,36.93H21a1,1,0,0,0,0,2h4.16a1,1,0,1,0,0-2Z"/><path class="cls-6" d="M69,36.93H64.84a1,1,0,1,0,0,2H69a1,1,0,0,0,0-2Z"/></g></g></g></g></svg>