<svg xmlns="http://www.w3.org/2000/svg" viewBox="0 0 90 90"><defs><style>.cls-1{fill:#94c3cb;}.cls-2{fill:#cfcdcc;}.cls-3{fill:#bdbbba;}.cls-4{fill:#be5e50;}.cls-5{fill:#ab5448;}.cls-6{fill:#2a373e;}.cls-7{fill:#eff0ef;}</style></defs><title>jpg-image</title><g id="jpg-image"><g id="jpg-image-2" data-name="jpg-image"><circle id="label" class="cls-1" cx="45" cy="45" r="45"/><g id="jpg-image-3" data-name="jpg-image"><g id="fill"><path class="cls-2" d="M52.7,21H27.83c-.69,0-1.25.56-1.25,1.65V68.14a1.29,1.29,0,0,0,1.25.86H62.17a1.29,1.29,0,0,0,1.25-.86v-36c0-.6-.08-.79-.22-.93l-10-10A.76.76,0,0,0,52.7,21Z"/><path class="cls-3" d="M62.17,69H27.83a1.25,1.25,0,0,1-1.25-1.25V54.43H63.43V67.75A1.25,1.25,0,0,1,62.17,69Z"/><path class="cls-4" d="M27.43,53.79c3.43-2.57,13.29-10.93,13.29-10.93l9.86,11.36Z"/><polygon class="cls-5" points="54.86 37.07 45.86 46.93 51.43 54.22 63.43 54.22 63.43 47.36 54.86 37.07"/><rect class="cls-6" x="57" y="52.66" width="1" height="1"/><rect class="cls-6" x="55" y="52.66" width="1" height="1"/><polygon class="cls-6" points="57.33 51.65 56.42 50.66 56.33 50.66 56.33 51.66 57.33 51.66 57.33 51.65"/><rect class="cls-6" x="54.33" y="50.66" width="1" height="1"/><polygon class="cls-6" points="53 46.93 53 47.66 53.67 47.66 53 46.93"/><rect class="cls-6" x="51" y="46.66" width="1" height="1"/><rect class="cls-6" x="49" y="46.66" width="1" height="1"/><polygon class="cls-6" points="48 47.66 48 46.66 47.83 46.66 47 46.66 47 47.66 47.83 47.66 48 47.66"/><polygon class="cls-6" points="51.33 45.11 50.92 44.66 50.33 44.66 50.33 45.66 51.33 45.66 51.33 45.11"/><rect class="cls-6" x="48.33" y="44.66" width="1" height="1"/><polygon class="cls-6" points="53 52.66 53 53.66 53.83 53.66 54 53.66 54 52.66 53.83 52.66 53 52.66"/><rect class="cls-6" x="51" y="52.66" width="1" height="1"/><rect class="cls-6" x="52.33" y="50.66" width="1" height="1"/><rect class="cls-6" x="50.33" y="50.66" width="1" height="1"/><polygon class="cls-6" points="49.19 51.66 49.33 51.66 49.33 50.66 48.42 50.66 49.19 51.66"/><polygon class="cls-6" points="53.67 49.66 53.83 49.66 54.67 49.66 54.67 48.74 54.59 48.66 53.83 48.66 53.67 48.66 53.67 49.66"/><rect class="cls-6" x="51.67" y="48.66" width="1" height="1"/><rect class="cls-6" x="49.67" y="48.66" width="1" height="1"/><polygon class="cls-6" points="48.67 48.66 47.83 48.66 47.67 48.66 47.67 49.66 47.83 49.66 48.67 49.66 48.67 48.66"/><path class="cls-2" d="M53.14,22.19v9.09h9.09a.44.44,0,0,0,.31-.75l-8.65-8.65A.44.44,0,0,0,53.14,22.19Z"/><circle class="cls-7" cx="38" cy="31" r="3.5"/><path class="cls-6" d="M39.73,63.49a2.07,2.07,0,0,1-2.24,2.27,2.66,2.66,0,0,1-2.12-1l.58-.93a2.2,2.2,0,0,0,1.53.79c.65,0,1-.4,1-1.14V59.61H36V58.52h3.71Z"/><path class="cls-6" d="M44.44,58.52c1.81,0,2.85.89,2.85,2.46s-1,2.57-2.85,2.57H42.79v2.17H41.58v-7.2Zm-1.65,3.94h1.6c1.11,0,1.74-.47,1.74-1.45s-.63-1.4-1.74-1.4h-1.6Z"/><path class="cls-6" d="M54.58,62.18v2.65a4.88,4.88,0,0,1-2.8.94,3.64,3.64,0,1,1,.07-7.28,4.32,4.32,0,0,1,2.77,1l-.69.9a3.12,3.12,0,0,0-2.08-.82,2.56,2.56,0,1,0,0,5.11,3.36,3.36,0,0,0,1.66-.49v-2Z"/></g><g id="outline"><path class="cls-6" d="M63.92,30.49l-10-10A1.77,1.77,0,0,0,52.7,20H27.83a2.36,2.36,0,0,0-2.25,2.65V68.14a2,2,0,0,0,1.34,1.66l0,0,.24.08.19.05a2.23,2.23,0,0,0,.43,0H62.17a2.23,2.23,0,0,0,.43,0l.19-.06.24-.07,0,0a2,2,0,0,0,1.34-1.66v-36A2.12,2.12,0,0,0,63.92,30.49ZM48.85,53.43H29.72L41,43.46Zm2.53,0,0-.06-4.72-6,8.18-9,7.62,9.53v5.51Zm9.51-23.14H54.14V23.54ZM27.83,22H52.17a1.41,1.41,0,0,0,0,.19v9.09a1,1,0,0,0,1,1h9.09l.19,0V44.72l-6.79-8.49a1,1,0,0,0-.75-.37.94.94,0,0,0-.77.33l-8.75,9.58L41.94,41.4A1,1,0,0,0,41.4,41h-.28a1,1,0,0,0-.6.24l-12.94,11V22.65C27.57,22.43,27.62,22,27.83,22Zm0,46a.25.25,0,0,1-.25-.25V55.43H62.43V67.75a.25.25,0,0,1-.25.25Z"/><path class="cls-6" d="M38,35.5A4.5,4.5,0,1,0,33.5,31,4.51,4.51,0,0,0,38,35.5Zm0-7A2.5,2.5,0,1,1,35.5,31,2.5,2.5,0,0,1,38,28.5Z"/></g></g></g></g></svg>