<svg xmlns="http://www.w3.org/2000/svg" viewBox="0 0 90 90"><defs><style>.cls-1{fill:#94c3cb;}.cls-2{fill:#bdbbba;}.cls-3{fill:#be5e50;}.cls-4{fill:#2a373e;}.cls-5{fill:#d8d6d5;}</style></defs><title>knife-tool</title><g id="knife-tool"><g id="knife-tool-2" data-name="knife-tool"><circle id="label" class="cls-1" cx="45" cy="45" r="45"/><g id="knife-tool-3" data-name="knife-tool"><g id="fill"><polygon class="cls-2" points="32.37 52.14 21.61 62.69 32.63 63.08 37.97 57.74 32.37 52.14"/><path class="cls-3" d="M65.51,24.55a7.51,7.51,0,0,1,0,10.63L40.46,60.22,29.83,49.6,54.88,24.55a7.52,7.52,0,0,1,10.63,0Z"/><path class="cls-4" d="M34.79,59.51l-.59-.59.71-.71.59.59.12.12-.71.71Zm2.12-1.41-.35.35.35.35.35-.35Zm-2.71-.59-.71-.71-.71.71.71.71Zm-1.41-1.41-.71-.71-.71.71.71.71Zm-2.12-.71.71-.71-.12-.12L30.66,54l-.71.71.59.59Zm5.54,2-.71-.71-.35.35.71.71ZM34.79,56l-.71-.71-.35.35.71.71Zm-1.41-1.41-.71-.71-.35.35.71.71ZM34,60.1l-.49.49.12.12.59.59.49-.49-.59-.59Zm-1.9-.93.71.71.49-.49-.71-.71Zm-1.41-1.41.71.71.49-.49-.71-.71ZM32,53.15l-.31-.31-.35.35.31.31Zm-2.24,2.71-.49.49.12.12.59.59.49-.49L29.84,56Z"/></g><g id="outline"><path class="cls-4" d="M66.22,23.84a8.58,8.58,0,0,0-6-2.49,8.46,8.46,0,0,0-6,2.49L29.13,48.89a1,1,0,0,0,0,1.41L31,52.22,21,62.07a1,1,0,0,0,.68,1.71L32.57,64h0a1,1,0,0,0,.71-.29l4.64-4.64,1.82,1.82a1,1,0,0,0,1.41,0L66.22,35.88a8.51,8.51,0,0,0,0-12ZM32.18,62l-8.09-.19,8.36-8.2,4.06,4.06ZM64.8,34.47,40.46,58.81,31.25,49.6,55.59,25.25a6.47,6.47,0,0,1,4.61-1.91,6.57,6.57,0,0,1,4.61,1.91,6.51,6.51,0,0,1,0,9.21Z"/><path class="cls-5" d="M57.42,28.23a1,1,0,0,0-1.41,0L37.79,46.44a1,1,0,1,0,1.41,1.41L57.42,29.64A1,1,0,0,0,57.42,28.23Z"/></g></g></g></g></svg>