<svg xmlns="http://www.w3.org/2000/svg" viewBox="0 0 90 90"><defs><style>.cls-1{fill:#be5e50;}.cls-2{fill:#cfcdcc;}.cls-3{fill:#94c3cb;}.cls-4{fill:#e5e6e5;}.cls-5{fill:#999797;}.cls-6{fill:#2a373e;}</style></defs><title>layout</title><g id="layout"><g id="layout-2" data-name="layout"><circle id="label" class="cls-1" cx="45" cy="45" r="45"/><g id="layout-3" data-name="layout"><g id="fill"><rect class="cls-2" x="23.96" y="32.51" width="20.09" height="23.75"/><rect class="cls-3" x="45.96" y="32.51" width="20.09" height="23.75"/><rect class="cls-4" x="23.96" y="23.96" width="42.09" height="6.64"/><rect class="cls-5" x="23.96" y="58.18" width="42.09" height="7.86"/><path class="cls-6" d="M45.2,32.51V33h-.5v-.5Zm-.5,3h.5V35h-.5Zm0,2.5h.5v-.5h-.5Zm0,2.5h.5V40h-.5Zm0,2.5h.5v-.5h-.5Zm0,2.5h.5V45h-.5Zm0,2.5h.5v-.5h-.5Zm0,2.5h.5V50h-.5Zm0,2.5h.5v-.5h-.5Zm0,2.5h.5V55h-.5ZM42.83,33.76v.5h.5v-.5h-.5ZM41,33h.41v-.5H41Zm1.78,3.25v.5h.5v-.5h-.5ZM41,35.51h.41V35H41Zm1.78,3.25v.5h.5v-.5h-.5ZM41,38h.41v-.5H41Zm1.78,3.25v.5h.5v-.5h-.5ZM41,40.51h.41V40H41Zm1.78,3.25v.5h.5v-.5h-.5ZM41,43h.41v-.5H41Zm1.78,3.25v.5h.5v-.5h-.5ZM41,45.51h.41V45H41Zm1.78,3.25v.5h.5v-.5h-.5ZM41,48h.41v-.5H41Zm1.78,3.25v.5h.5v-.5h-.5ZM41,50.51h.41V50H41Zm1.78,3.25v.5h.5v-.5h-.5ZM41,53h.41v-.5H41Zm0,2.5h.41V55H41Z"/><path class="cls-6" d="M45.3,32.51V33h-.5v-.5Zm0,2.5h-.5v.5h.5Zm0,2.5h-.5V38h.5Zm0,2.5h-.5v.5h.5Zm0,2.5h-.5V43h.5Zm0,2.5h-.5v.5h.5Zm0,2.5h-.5V48h.5Zm0,2.5h-.5v.5h.5Zm0,2.5h-.5V53h.5Zm0,2.5h-.5v.5h.5Zm1.63-21.25h-.25v.5h.5v-.5Zm2-1.25h-.41V33H49Zm-2,3.75h-.25v.5h.5v-.5ZM49,35h-.41v.5H49Zm-2,3.75h-.25v.5h.5v-.5Zm2-1.25h-.41V38H49Zm-2,3.75h-.25v.5h.5v-.5ZM49,40h-.41v.5H49Zm-2,3.75h-.25v.5h.5v-.5Zm2-1.25h-.41V43H49Zm-2,3.75h-.25v.5h.5v-.5ZM49,45h-.41v.5H49Zm-2,3.75h-.25v.5h.5v-.5Zm2-1.25h-.41V48H49Zm-2,3.75h-.25v.5h.5v-.5ZM49,50h-.41v.5H49Zm-2,3.75h-.25v.5h.5v-.5Zm2-1.25h-.41V53H49ZM49,55h-.41v.5H49Z"/></g><path id="outline" class="cls-6" d="M67,22H23a1,1,0,0,0-1,1V67a1,1,0,0,0,1,1H67a1,1,0,0,0,1-1V23A1,1,0,0,0,67,22ZM24,32.56H44V56.22H24Zm22,0H66V56.22H46ZM66,24v6.56H24V24ZM24,66V58.22H66V66Z"/></g></g></g></svg>