<svg id="logo-design" xmlns="http://www.w3.org/2000/svg" viewBox="0 0 90 90"><defs><style>.cls-1{fill:#cfcdcc;}.cls-2{fill:#94c3cb;}.cls-3{fill:#999797;}.cls-4{fill:#be5e50;}.cls-5{fill:#bdbbba;}.cls-6{fill:#e5e6e5;}.cls-7{fill:#2a373e;}</style></defs><title>logo-design</title><g id="logo-design-2" data-name="logo-design"><circle id="label" class="cls-1" cx="45" cy="45" r="45"/><g id="logo-design-3" data-name="logo-design"><g id="fill"><path class="cls-2" d="M54.39,52.08a13.37,13.37,0,0,1-8.78-3.3l-.6-.53.54-.59A13.23,13.23,0,0,0,49,39.57l.07-1.09,1,.41a13.42,13.42,0,0,1,8.32,11.94l0,.63-.61.16a13.39,13.39,0,0,1-3.41.46Z"/><path class="cls-3" d="M44.43,47.61A13.39,13.39,0,0,1,41,39.13l0-.63.61-.16a13,13,0,0,1,6.83,0l.6.16,0,.63a13.39,13.39,0,0,1-3.41,8.47l-.58.65Z"/><path class="cls-4" d="M35.64,52.08a13.39,13.39,0,0,1-3.41-.46l-.61-.16,0-.63A13.42,13.42,0,0,1,40,38.89l1-.41L41,39.56a13.23,13.23,0,0,0,3.44,8.09l.54.59-.6.53a13.38,13.38,0,0,1-8.78,3.3Z"/><path class="cls-5" d="M41.06,37.4a13.29,13.29,0,0,1,3.37-7.65L45,29.1l.58.65A13.27,13.27,0,0,1,49,37.4l.1,1.08L48,38.24a13,13,0,0,0-6,0L41,38.49Z"/><path class="cls-6" d="M30.58,51.08a13.39,13.39,0,1,1,13.83-22.5l.61.52-.54.59A13.39,13.39,0,0,0,41,38l0,.52-.49.18A13.38,13.38,0,0,0,31.66,50.4l-.07,1.09Z"/><path class="cls-3" d="M45,64.69A13.34,13.34,0,0,1,31.68,52.57l-.1-1.09,1.06.24a13.23,13.23,0,0,0,11.85-3l.52-.46.52.46a13.23,13.23,0,0,0,11.85,3l1.06-.24-.1,1.08A13.34,13.34,0,0,1,45,64.69Z"/><path class="cls-1" d="M58.36,50.4a13.38,13.38,0,0,0-8.85-11.72L49,38.51,49,38a13.38,13.38,0,0,0-3.45-8.29L45,29.11l.6-.52a13.39,13.39,0,1,1,13.83,22.5l-1,.41Z"/><path class="cls-7" d="M66.1,31.78h.34q.33.58.6,1.19H66.1ZM63.72,33h1.19V31.78H63.72Zm-1.19,0V31.78h-.2V33Zm3.15-2.38-.38-.5v.5ZM64.12,29.4H62.93v1.19h1.19Zm-.79-1.19V28c-.32-.27-.65-.52-1-.77v1ZM66.1,40.12h1.19V38.93H66.1Zm-1.19-1.19H63.72v1.19h1.19Zm-2.38,1.19V38.93h-.2v1.19Zm5.16-2.38h.55c0-.4-.07-.8-.13-1.19h-.41ZM66.5,36.55H65.31v1.19H66.5Zm-2.38,0H62.93v1.19h1.19Zm2.78-1.19h1c-.1-.4-.21-.8-.35-1.19H66.9Zm-1.19-1.19H64.52v1.19h1.19Zm-2.38,0h-1v1.19h1Zm2.78,12,.08-.12H66.1Zm-2.38,1.07h1.19V46.07H63.72Zm-1.19,0V46.07h-.2v1.19Zm2.78-2.38H66.5V43.69H65.31Zm-2.38,0h1.19V43.69H62.93Zm4-2.38h.86q.16-.59.28-1.19H66.9Zm-1.19-1.19H64.52V42.5h1.19ZM62.33,42.5h1V41.31h-1Zm0,6v1.19H63l.32-.27v-.93ZM59.81,25.83c-.28-.12-.57-.22-.85-.32v.32Zm-2,0v-.69q-.59-.15-1.19-.25v.94Zm-2.38,0V24.74h-.2v1.1Zm6,7.14h1V31.78h-1ZM59,33h1.19V31.78H59Zm-2.38,0h1.19V31.78H56.58Zm-1.19,0V31.78h-.2V33Zm5.16-2.38h1.19V29.4H60.55Zm-2.38,0h1.19V29.4H58.17Zm-2.38,0H57V29.4H55.78Zm6.55-2.38v-1l-.2-.15v1.11ZM60.94,27H59.75v1.19h1.19Zm-3.57,1.19h1.19V27H57.37Zm-2.18,0h1V27h-1Zm7.14,10.72h-1v1.19h1Zm-2.18,0H59v1.19h1.19Zm-2.38,0H56.58v1.19h1.19Zm-2.38,1.19V38.93h-.2v1.19Zm6.35-3.57H60.55v1.19h1.19Zm-2.38,0H58.17v1.19h1.19Zm-2.38,0H55.78v1.19H57Zm5.16-2.38v1.19h.2V34.16Zm-1.19,0H59.75v1.19h1.19Zm-2.38,0H57.37v1.19h1.19Zm-2.38,0h-1v1.19h1Zm6.15,11.91h-1v1.19h1Zm-2.18,0H59v1.19h1.19Zm-2.38,0H57.2c.18.39.33.79.47,1.19h.1Zm4-2.38H60.55v1.19h1.19Zm-2.38,0H58.17v1.19h1.19Zm-2.38,0H55.81a14,14,0,0,1,.77,1.19H57Zm5.16-2.38V42.5h.2V41.31Zm-1.19,0H59.75V42.5h1.19Zm-2.38,0H57.37V42.5h1.19ZM55.19,42.5h1V41.31h-1Zm5.36,8.71c.24-.12.47-.25.69-.38h-.69Zm-2.13-.38s0,.08,0,.12L58.5,52h.17l.69-.28v-.91Zm3.71-2.38v1.19h.2V48.45Zm-2.38,1.19h1.19V48.45H59.75Zm-1.19-1.19H58c.1.39.18.79.25,1.19h.29ZM55.19,25.83v-1.1c-.3,0-.6,0-.91,0H54.2v1.14Zm-2.18,0V24.74q-.6.06-1.19.16v.92Zm-2.38,0v-.65q-.6.16-1.19.38v.27Zm4.56,6h-1V33h1Zm-2.18,0H51.81V33H53ZM49.43,33h1.19V31.78H49.43Zm-1.19,0V31.78H48V33Zm6.35-3.57H53.4v1.19h1.19Zm-2.38,0H51v1.19h1.19Zm-3.57,1.19h1.19V29.4H48.64ZM55,27v1.19h.2V27ZM53.8,27H52.61v1.19H53.8Zm-2.38,0H50.23v1.19h1.19ZM49,27H48v1.19h1Zm6.15,11.91h-1v1.19h1Zm-2.18,0H51.81v1l.23.14h1Zm-3.27,0q.45.18.89.4v-.4Zm4.85-2.38H53.4v1.19h1.19ZM51,37.74h1.19V36.55H51Zm-2.38,0h1.19V36.55H48.64ZM55,34.16v1.19h.2V34.16Zm-1.19,0H52.61v1.19H53.8Zm-2.38,0H50.23v1.19h1.19Zm-2.38,0H48v.47c.07.24.14.48.2.72H49Zm6,7.14V42.5h.2V41.31Zm-1.36,0,.17.15v-.15ZM48,31.78h-1v.42c.13.25.25.51.37.77H48Zm-1.79-1.19h1.19V29.4H46.26ZM47.85,27v1.19H48V27Zm-1.19,1.19V27h-.07q-.58.38-1.12.83v.37Zm1.23,6c.05.16.11.31.15.47v-.47Z"/></g><path id="outline" class="cls-7" d="M68.79,38.68A14.38,14.38,0,0,0,45,27.78,14.38,14.38,0,1,0,30.66,52.17a14.38,14.38,0,0,0,28.7,0A14.41,14.41,0,0,0,68.79,38.68Zm-11.41,12a12.25,12.25,0,0,1-10.95-2.53A14.32,14.32,0,0,0,50,39.93,12.41,12.41,0,0,1,57.38,50.7ZM45,46.76a12.33,12.33,0,0,1-3-7.49,12,12,0,0,1,6,0A12.33,12.33,0,0,1,45,46.76Zm-5-6.83a14.32,14.32,0,0,0,3.54,8.24A12.25,12.25,0,0,1,32.65,50.7,12.41,12.41,0,0,1,40.06,39.93Zm5-3a14.4,14.4,0,0,0-2.92.3A12.34,12.34,0,0,1,45,30.59a12.34,12.34,0,0,1,2.92,6.6A14.4,14.4,0,0,0,45,36.89ZM23.24,38.68a12.39,12.39,0,0,1,20.36-9.49A14.32,14.32,0,0,0,40,37.8,14.41,14.41,0,0,0,30.68,50,12.41,12.41,0,0,1,23.24,38.68ZM45,63.69a12.41,12.41,0,0,1-12.3-10.91A14.34,14.34,0,0,0,45,49.58a14.34,14.34,0,0,0,12.3,3.2A12.41,12.41,0,0,1,45,63.69ZM59.34,50A14.41,14.41,0,0,0,50,37.8a14.32,14.32,0,0,0-3.55-8.61A12.39,12.39,0,1,1,59.34,50Z"/></g></g></svg>