<svg xmlns="http://www.w3.org/2000/svg" viewBox="0 0 90 90"><defs><style>.cls-1{fill:#be5e50;}.cls-2{fill:#94c3cb;}.cls-3{fill:#bdbbba;}.cls-4{fill:#ecf0f1;}.cls-5{fill:#e5e6e5;}.cls-6{fill:#2a373e;}</style></defs><title>magic-wand-tool</title><g id="magic-wand-tool"><g id="magic-wand-tool-2" data-name="magic-wand-tool"><circle id="label" class="cls-1" cx="45" cy="45" r="45"/><g id="magic-wand-tool-3" data-name="magic-wand-tool"><g id="fill"><polygon class="cls-2" points="28.12 65.59 24.41 61.89 41.8 44.49 45.51 48.2 28.12 65.59"/><path class="cls-3" d="M52.47,41.23l-5.55,5.55-3.7-3.7,5.55-5.55c.15-.15.52-.11.81.19l2.64,2.62.07.07a.86.86,0,0,1,.27.58A.31.31,0,0,1,52.47,41.23Z"/><path class="cls-4" d="M51.86,40.34v1.1h-1.1v-1.1Zm-.76-1.1-.89-.88L50,38.17v1.07H51.1Zm-1.81,3.3v1.1h.77l.15-.15.18-.18v-.77h-1.1Zm-1.1,0h-1.1v1.1h1.1Zm-2.2,0h-1.1v1.1H46Zm-2.38.15-.39.39.39.39.17.17h0v-1.1h0Zm5-1.25h1.1v-1.1h-1.1Zm-1.1-1.1h-1.1v1.1h1.1Zm-2.2.7-.4.4h.4Zm3.67-2.9h-.77l-.33.33v.77h1.1Zm-1.1,7.7h0l1.06-1.06v0h-1.1Zm-2.2-.35.35.35h.75v-1.1h-1.1Z"/><rect class="cls-5" x="60.04" y="25.81" width="4.15" height="4.15" transform="translate(-1.53 52.08) rotate(-44.99)"/><rect class="cls-5" x="60.04" y="49.04" width="4.15" height="4.15" transform="translate(-17.95 58.9) rotate(-45.01)"/><rect class="cls-5" x="36.81" y="25.81" width="4.15" height="4.15" transform="translate(-8.33 35.66) rotate(-44.99)"/></g><path class="cls-6" d="M52.18,37.49l-.09-.08L51,36.31a2.56,2.56,0,0,0-3.64-.19L22.29,61.17a1,1,0,0,0,0,1.43l5.12,5.1.06,0a.58.58,0,0,0,.11.08l.07,0,.17.07.12,0,.16,0h.07a.85.85,0,0,0,.28-.06,1,1,0,0,0,.45-.29L47.6,48.93l0,0,0,0,6.22-6.22A2.29,2.29,0,0,0,54.55,41a2.86,2.86,0,0,0-.85-2ZM28.12,65.59l-3.72-3.7,17.4-17.4,3.7,3.7ZM52.47,41.23l-5.55,5.55-3.7-3.7,5.55-5.55c.15-.15.52-.11.81.19l2.71,2.69a.86.86,0,0,1,.27.59A.31.31,0,0,1,52.47,41.23Z"/><path class="cls-6" d="M57.22,28.89h1.54l2.35,2.35v1.54a1,1,0,0,0,2,0V31.24l2.35-2.35H67a1,1,0,0,0,0-2H65.46l-2.35-2.35V23a1,1,0,1,0-2,0v1.54l-2.35,2.35H57.22a1,1,0,0,0,0,2Zm4.89-2.52,1.52,1.52-1.52,1.52-1.52-1.52Z"/><path class="cls-6" d="M67,50.11H65.46l-2.35-2.35V46.22a1,1,0,0,0-2,0v1.54l-2.35,2.35H57.22a1,1,0,0,0,0,2h1.54l2.35,2.35V56a1,1,0,0,0,2,0V54.46l2.35-2.35H67a1,1,0,0,0,0-2Zm-4.89,2.52-1.52-1.52,1.52-1.52,1.52,1.52Z"/><path class="cls-6" d="M34,28.89h1.54l2.35,2.35v1.54a1,1,0,0,0,2,0V31.24l2.35-2.35h1.54a1,1,0,0,0,0-2H42.24l-2.35-2.35V23a1,1,0,0,0-2,0v1.54l-2.35,2.35H34a1,1,0,0,0,0,2Zm4.89-2.52,1.52,1.52-1.52,1.52-1.52-1.52Z"/></g></g></g></svg>