<svg xmlns="http://www.w3.org/2000/svg" viewBox="0 0 90 90"><defs><style>.cls-1{fill:#94c3cb;}.cls-2{fill:#cfcdcc;}.cls-3{fill:#be5e50;}.cls-4{fill:#e5e6e5;}.cls-5{fill:#999797;}.cls-6{fill:#2a373e;}</style></defs><title>marker-pen</title><g id="marker-pen"><g id="marker-pen-2" data-name="marker-pen"><circle id="label" class="cls-1" cx="45" cy="45" r="45"/><g id="marker-pen-3" data-name="marker-pen"><g id="fill"><path class="cls-2" d="M29.31,56.12l-7.54,7.55a1,1,0,0,0,.4,1.71l6.21,2.07a1.06,1.06,0,0,0,.33.05,1,1,0,0,0,.73-.3l5.48-5.48Z"/><path class="cls-3" d="M68.23,34.18,56.85,22.8a1,1,0,0,0-1.46,0l-29,29a1,1,0,0,0,0,1.46L37.8,64.61a1,1,0,0,0,.73.3,1,1,0,0,0,.73-.3l29-29a1,1,0,0,0,0-1.46"/><path class="cls-4" d="M59.74,25.69,45.82,39.61a1,1,0,0,0,0,1.46L50,45.22a1,1,0,0,0,1.46,0L65.34,31.29"/><path class="cls-5" d="M64,32.5h.14l-.14.14Zm.5-1h.64l.21-.21-.79-.79h0Zm-3-4-.38-.38v.38Zm-1.38-1h-1v1h1Zm-2,1v-.23l-.17.17v.07Zm5,5v1l.83-.83V32.5Zm-2,1h1v-1h-1Zm-2,0h1v-1h-1Zm-1,0v-1H58v1Zm5.33-3h-1v1h1Zm-3,1h1v-1h-1Zm-2,0h1v-1h-1Zm3.33-2h1v-.71l-.29-.29h-.71Zm-2,0h1v-1h-1ZM58,29.5h.83v-1H58Zm0,9.14.14-.14H58Zm.5-2.14v1h.64l.36-.36V36.5Zm3.33-1.7.3-.3h-.3Zm-2,.7h1v-1h-1ZM58,35.5h.83v-1H58Zm0-8.07-.07.07H58Zm-.83,6.07H58v-1h-.83Zm-1-1h-1v1h1Zm-2,0h-1v1h1Zm-2,1v-.23l-.17.17v.07Zm5.33-3h-1v1h1Zm-2,1v-1h-.57l-.43.43v.57Zm2.33-3v1H58v-1Zm-1,.1-.9.9h.9Zm.33,9.9v1l.83-.83V38.5Zm-1,0h-1v1h1Zm-2,0h-1v1h1Zm-2,1v-1H52v1Zm4.33-2h1v-1h-1Zm-1-1h-1v1h1Zm-2,0h-1v1h1Zm4.33-2v1H58v-1Zm-1,0h-1v1h1Zm-2,0h-1v1h1ZM52,35.5h.83v-1H52Zm0,9.14.14-.14H52Zm.5-2.14v1h.64l.36-.36V42.5Zm3.33-1.7.3-.3h-.3Zm-2-.3v1h1v-1ZM52,41.5h.83v-1H52Zm0-8.07-.07.07H52Zm-.83,6.07H52v-1h-.83Zm-1-1h-1v1h1Zm-2,0h-1v1h1Zm-2,1v-.23l-.17.17v.07Zm5.33-3h-1v1h1Zm-2,1v-1h-.57l-.43.43v.57Zm2.33-3v1H52v-1Zm-1,.1-.9.9h.9Zm.33,9.9v.88a1,1,0,0,0,.25-.17l.58-.58V44.5Zm-1.92,0,.71.72a1,1,0,0,0,.21.14V44.5Zm1.26-1h1v-1h-1Zm-2,0h1v-1h-1Zm-1.26-1,.26.26V42.5Zm4.59-2v1H52v-1Zm-1,0h-1v1h1Zm-2,0h-1v1h1Zm-2,0H46v.76l.24.24h.59ZM46,39.43l-.07.07H46Zm-.17,1.07v.59l.17.17V40.5Z"/></g><path id="outline" class="cls-6" d="M68.94,33.48,57.56,22.1a2,2,0,0,0-1.44-.6h0a2,2,0,0,0-1.44.6l-29,29a2,2,0,0,0,0,2.88l2.18,2.18L21.07,63a2,2,0,0,0,.79,3.37l6.21,2.07a2.05,2.05,0,0,0,.64.1,2,2,0,0,0,1.44-.59l4.77-4.77,2.18,2.18a2,2,0,0,0,2.87,0l29-29a2,2,0,0,0,0-2.88Zm-5-2.18L50.66,44.51l-4.14-4.19L59.74,27.11ZM28.7,66.5l-6.22-2.13,6.84-6.84,4.19,4.19ZM67.52,34.94l-29,29L27.13,52.48l29-29,2.18,2.18L45.11,38.91a2,2,0,0,0,0,2.88l4.14,4.14a2,2,0,0,0,2.88,0L65.34,32.71l2.18,2.18Z"/></g></g></g></svg>