<svg xmlns="http://www.w3.org/2000/svg" viewBox="0 0 90 90"><defs><style>.cls-1{fill:#be5e50;}.cls-2{fill:#e5e6e5;}.cls-3{fill:#999797;}.cls-4{fill:#2a373e;}</style></defs><title>mesh-tool</title><g id="mesh-tool"><g id="mesh-tool-2" data-name="mesh-tool"><circle id="label" class="cls-1" cx="45" cy="45" r="45"/><g id="mesh-tool-3" data-name="mesh-tool"><g id="fill"><rect class="cls-2" x="23" y="23" width="44" height="44"/><path class="cls-3" d="M65.17,66.5h1V67h-1Zm1.33-2v1H67v-1Zm-1,0h-1v1h1Zm1.33-2h-1v1h1Zm-2,1v-1h-1v1h1Zm-1.67,3V67h1v-.5h-1Zm-2,.5h1v-.5h-1Zm-2,0h1v-.5h-1Zm4.33-2.5h-1v1h1Zm-2,0h-1v1h1Zm-2,0h-1v1h1Zm3.33-2h-1v1h1Zm-2,0h-1v1h1Zm-2,1v-1h-1v1h1Zm-1.67,3V67h1v-.5h-1Zm-2,.5h1v-.5h-1Zm-2,0h1v-.5h-1Zm4.33-2.5h-1v1h1Zm-2,0h-1v1h1Zm-2,0h-1v1h1Zm3.33-2h-1v1h1Zm-2,0h-1v1h1Zm-2,1v-1h-1v1h1Zm-1.67,3V67h1v-.5h-1Zm-2,.5h1v-.5h-1Zm-2,0h1v-.5h-1Zm4.33-2.5h-1v1h1Zm-2,0h-1v1h1Zm-2,0h-1v1h1Zm3.33-2h-1v1h1Zm-2,0h-1v1h1Zm-2,1v-1h-1v1h1Zm-1.67,3V67h1v-.5h-1Zm-2,.5h1v-.5h-1Zm-2,0h1v-.5h-1Zm4.33-2.5h-1v1h1Zm-2,0h-1v1h1Zm-2,0h-1v1h1Zm3.33-2h-1v1h1Zm-2,0h-1v1h1Zm-2,1v-1h-1v1h1Zm-1.67,3V67h1v-.5h-1Zm-2,.5h1v-.5h-1Zm-2,0h1v-.5h-1Zm4.33-2.5h-1v1h1Zm-2,0h-1v1h1Zm-2,0h-1v1h1Zm3.33-2h-1v1h1Zm-2,0h-1v1h1Zm-2,1v-1h-1v1h1Zm-1.67,3V67h1v-.5h-1Zm-2,.5h1v-.5h-1Zm-2,0h1v-.5h-1Zm4.33-2.5h-1v1h1Zm-2,0h-1v1h1Zm-2,0h-1v1h1Zm3.33-2h-1v1h1Zm-2,0h-1v1h1Zm-2,1v-1h-1v1h1Zm-1.67,3V67h1v-.5h-1Zm-2,.5h1v-.5h-1Zm-2,0h1v-.5h-1Zm4.33-2.5h-1v1h1Zm-2,0h-1v1h1Zm-2,0H23v1h.5Zm3.33-2h-1v1h1Zm-2,0h-1v1h1Z"/></g><path id="outline" class="cls-4" d="M67,22H23a1,1,0,0,0-1,1V67a1,1,0,0,0,1,1H67a1,1,0,0,0,1-1V23A1,1,0,0,0,67,22ZM51.81,66H39.57c3.61-5.73,3-10.79,1.37-15.89,2.23.62,4.42,1.45,6.59,2.28a62.84,62.84,0,0,0,7.15,2.41A14.35,14.35,0,0,1,51.81,66ZM48.24,50.53a63.39,63.39,0,0,0-8.06-2.68l-.6-1.68A42.56,42.56,0,0,1,36.65,34.6a43.88,43.88,0,0,1,10.88,3.13l2.34.88a60.14,60.14,0,0,0,2.5,8.23c.72,2,1.4,3.9,1.87,5.79C52.27,52.07,50.27,51.31,48.24,50.53ZM24,38.18a17.33,17.33,0,0,1,10.64-3.7c.27,4.58,1.72,8.61,3.06,12.35l.2.56a19,19,0,0,0-13.9,3ZM50.89,24a25.82,25.82,0,0,0-1.4,12.33l-1.24-.48c-3.66-1.41-7.55-2.9-11.65-3.29A24.56,24.56,0,0,1,38.35,24Zm3.36,22.16a68.39,68.39,0,0,1-2.16-6.77,24.63,24.63,0,0,0,7.63,1.44A13.92,13.92,0,0,0,66,39.38V51.76a13,13,0,0,1-9.59,1.4A54.83,54.83,0,0,0,54.25,46.16ZM66,37.09c-4.64,2.77-9.41,1.78-14.39,0A24,24,0,0,1,53,24H66ZM36.22,24a26.26,26.26,0,0,0-1.61,8.48A18.85,18.85,0,0,0,24,35.73V24ZM24,52.85a17.48,17.48,0,0,1,14.66-3.29C40.5,55.05,41.4,60.1,37.15,66H24ZM54.24,66a15.85,15.85,0,0,0,2.53-10.75,18.47,18.47,0,0,0,3,.25A13.94,13.94,0,0,0,66,54V66Z"/></g></g></g></svg>