<svg xmlns="http://www.w3.org/2000/svg" viewBox="0 0 90 90"><defs><style>.cls-1{fill:#cfcdcc;}.cls-2{fill:#e5e6e5;}.cls-3{fill:#94c3cb;}.cls-4{fill:#bdbbba;}.cls-5{fill:#be5e50;}.cls-6{fill:#2a373e;}</style></defs><title>mobile-design</title><g id="mobile-design"><g id="mobile-design-2" data-name="mobile-design"><circle id="label" class="cls-1" cx="45" cy="45" r="45"/><g id="mobile-design-3" data-name="mobile-design"><g id="fill"><path class="cls-2" d="M34.39,23H55a2.05,2.05,0,0,1,2.1,2v2.89H32.29V25A2.05,2.05,0,0,1,34.39,23Z"/><path class="cls-2" d="M55,67H34.39a2.05,2.05,0,0,1-2.1-2V58.28H57.12V65A2.05,2.05,0,0,1,55,67Z"/><path class="cls-3" d="M57.12,56.28H32.29V29.89H55.7l-3.87,3.87L49,36.56c-.16,0-.31,0-.47,0a5.59,5.59,0,0,0-4,1.65c-1.83,1.83-1.92,6.18-1.87,8l0,.88a1,1,0,0,0,1,1l1.44,0c2.06,0,5.77-.24,7.41-1.88a5.59,5.59,0,0,0,1.65-4c0-.16,0-.31,0-.47l2.8-2.8.18-.18Z"/><path class="cls-4" d="M54.72,37l.09.15a3.59,3.59,0,0,1,.31.67v0l-1.62,1.62a5.11,5.11,0,0,0-2.29-2.29l1.62-1.62A3.46,3.46,0,0,1,54.72,37Z"/><path class="cls-2" d="M51.14,39.57a3.63,3.63,0,0,1,0,5.13c-.8.8-3.09,1.29-6,1.29h-.43c-.06-2.51.32-5.45,1.29-6.42A3.72,3.72,0,0,1,51.14,39.57Z"/><path class="cls-5" d="M67.23,25.76,56.65,36.35c-.08-.15-.18-.29-.27-.43s-.1-.17-.16-.25A5.56,5.56,0,0,0,55,34.49l-.23-.15c-.15-.1-.29-.2-.45-.28L64.95,23.47a1.66,1.66,0,0,1,2.29,0A1.62,1.62,0,0,1,67.23,25.76Z"/><path class="cls-6" d="M66.39,23.34v.5h-.5v-.5Zm-.5,3h.5v-.5h-.5ZM64,24.59v.5h.5v-.5H64Zm0,2.5v.5h.5v-.5H64Zm-1.87-.81v.06h.5v-.5h-.06Zm0,2.56h.5v-.5h-.5Zm0,2,0,0h0Zm-1.87-1.27v.5h.5v-.5h-.5Zm0,2.5v.5h.14l.11-.11.14-.14.11-.11v-.14h-.5Zm-1.87-.75h.5v-.5h-.5Zm0,2.5h.5v-.5h-.5Zm-1.87-1.75v.5H57v-.5h-.5Zm0,2.5v.5H57v-.5h-.5Zm-1.87-.81v.06h.5v-.5h-.06Z"/></g><g id="outline"><path class="cls-6" d="M47.21,61.75h-5a1,1,0,0,0,0,2h5a1,1,0,0,0,0-2Z"/><path class="cls-6" d="M43.46,26.5H46a1,1,0,0,0,0-2h-2.5a1,1,0,0,0,0,2Z"/><path class="cls-6" d="M68.65,22.06h0a3.71,3.71,0,0,0-5.12,0l-4.41,4.41V25A4.05,4.05,0,0,0,55,21H34.39a4.05,4.05,0,0,0-4.1,4V65a4.05,4.05,0,0,0,4.1,4H55a4.05,4.05,0,0,0,4.1-4V37a1,1,0,0,0,0-.25l9.57-9.57A3.63,3.63,0,0,0,68.65,22.06ZM34.39,23H55a2.05,2.05,0,0,1,2.1,2v2.89H32.29V25A2.05,2.05,0,0,1,34.39,23ZM55,67H34.39a2.05,2.05,0,0,1-2.1-2V58.28H57.12V65A2.05,2.05,0,0,1,55,67Zm2.1-10.72H32.29V29.89H55.7l-3.87,3.87L49,36.56c-.16,0-.31,0-.47,0a5.59,5.59,0,0,0-4,1.65c-1.83,1.83-1.92,6.18-1.87,8l0,.88a1,1,0,0,0,1,1l1.44,0c2.06,0,5.77-.24,7.41-1.88a5.59,5.59,0,0,0,1.65-4c0-.16,0-.31,0-.47l2.8-2.8.18-.18ZM54.72,37l.09.15a3.59,3.59,0,0,1,.31.67v0l-1.62,1.62a5.11,5.11,0,0,0-2.29-2.29l1.62-1.62A3.46,3.46,0,0,1,54.72,37Zm-3.59,2.54a3.63,3.63,0,0,1,0,5.13c-.8.8-3.09,1.29-6,1.29h-.43c-.06-2.51.32-5.45,1.29-6.42A3.72,3.72,0,0,1,51.14,39.57Zm16.1-13.81L56.65,36.35c-.08-.15-.18-.29-.27-.43s-.1-.17-.16-.25A5.56,5.56,0,0,0,55,34.49l-.23-.15c-.15-.1-.29-.2-.45-.28L64.95,23.47a1.66,1.66,0,0,1,2.29,0A1.62,1.62,0,0,1,67.23,25.76Z"/></g></g></g></g></svg>