<svg xmlns="http://www.w3.org/2000/svg" viewBox="0 0 90 90"><defs><style>.cls-1{fill:#94c3cb;}.cls-2{fill:#ab5448;}.cls-3{fill:#be5e50;}.cls-4{fill:#2a373e;}.cls-5{fill:#cfcdcc;}</style></defs><title>painting-roller</title><g id="painting-roller"><g id="painting-roller-2" data-name="painting-roller"><circle id="label" class="cls-1" cx="45" cy="45" r="45"/><g id="painting-roller-3" data-name="painting-roller"><g id="fill"><path class="cls-2" d="M28.45,30.93V44.17a1.66,1.66,0,0,0,3.31,0V41.69a2.48,2.48,0,1,1,5,0h0a2.48,2.48,0,1,0,5,0V39.21a1.66,1.66,0,0,1,3.31,0h0a2.48,2.48,0,1,0,5,0h0a1.65,1.65,0,1,1,3.31,0v2.48a2.48,2.48,0,0,0,5,0V30.93Z"/><rect class="cls-3" x="26.79" y="21" width="33.1" height="9.93" rx="1.65" ry="1.65"/><rect class="cls-4" x="59.17" y="26.5" width="0.73" height="1"/><rect class="cls-4" x="57.17" y="26.5" width="1" height="1"/><rect class="cls-4" x="55.17" y="26.5" width="1" height="1"/><rect class="cls-4" x="54" y="26.5" width="0.17" height="1"/><path class="cls-4" d="M58.5,30.91a1.64,1.64,0,0,0,.85-.41H58.5Z"/><rect class="cls-4" x="56.5" y="30.5" width="1" height="0.43"/><rect class="cls-4" x="54.5" y="30.5" width="1" height="0.43"/><path class="cls-4" d="M59.83,29.5h0a1.64,1.64,0,0,0,0-.22V28.5h-.06Z"/><rect class="cls-4" x="57.83" y="28.5" width="1" height="1"/><rect class="cls-4" x="55.83" y="28.5" width="1" height="1"/><rect class="cls-4" x="54" y="28.5" width="0.83" height="1"/><rect class="cls-4" x="53.17" y="26.5" width="0.83" height="1"/><rect class="cls-4" x="51.17" y="26.5" width="1" height="1"/><rect class="cls-4" x="49.17" y="26.5" width="1" height="1"/><rect class="cls-4" x="48" y="26.5" width="0.17" height="1"/><rect class="cls-4" x="52.5" y="30.5" width="1" height="0.43"/><rect class="cls-4" x="50.5" y="30.5" width="1" height="0.43"/><rect class="cls-4" x="48.5" y="30.5" width="1" height="0.43"/><rect class="cls-4" x="53.83" y="28.5" width="0.17" height="1"/><rect class="cls-4" x="51.83" y="28.5" width="1" height="1"/><rect class="cls-4" x="49.83" y="28.5" width="1" height="1"/><rect class="cls-4" x="48" y="28.5" width="0.83" height="1"/><rect class="cls-4" x="47.17" y="26.5" width="0.83" height="1"/><rect class="cls-4" x="45.17" y="26.5" width="1" height="1"/><rect class="cls-4" x="43.17" y="26.5" width="1" height="1"/><rect class="cls-4" x="42" y="26.5" width="0.17" height="1"/><rect class="cls-4" x="46.5" y="30.5" width="1" height="0.43"/><rect class="cls-4" x="44.5" y="30.5" width="1" height="0.43"/><rect class="cls-4" x="42.5" y="30.5" width="1" height="0.43"/><rect class="cls-4" x="47.83" y="28.5" width="0.17" height="1"/><rect class="cls-4" x="45.83" y="28.5" width="1" height="1"/><rect class="cls-4" x="43.83" y="28.5" width="1" height="1"/><rect class="cls-4" x="42" y="28.5" width="0.83" height="1"/><rect class="cls-4" x="41.17" y="26.5" width="0.83" height="1"/><rect class="cls-4" x="39.17" y="26.5" width="1" height="1"/><rect class="cls-4" x="37.17" y="26.5" width="1" height="1"/><rect class="cls-4" x="36" y="26.5" width="0.17" height="1"/><rect class="cls-4" x="40.5" y="30.5" width="1" height="0.43"/><rect class="cls-4" x="38.5" y="30.5" width="1" height="0.43"/><rect class="cls-4" x="36.5" y="30.5" width="1" height="0.43"/><rect class="cls-4" x="41.83" y="28.5" width="0.17" height="1"/><rect class="cls-4" x="39.83" y="28.5" width="1" height="1"/><rect class="cls-4" x="37.83" y="28.5" width="1" height="1"/><rect class="cls-4" x="36" y="28.5" width="0.83" height="1"/><rect class="cls-4" x="35.17" y="26.5" width="0.83" height="1"/><rect class="cls-4" x="33.17" y="26.5" width="1" height="1"/><rect class="cls-4" x="31.17" y="26.5" width="1" height="1"/><rect class="cls-4" x="30" y="26.5" width="0.17" height="1"/><rect class="cls-4" x="34.5" y="30.5" width="1" height="0.43"/><rect class="cls-4" x="32.5" y="30.5" width="1" height="0.43"/><rect class="cls-4" x="30.5" y="30.5" width="1" height="0.43"/><rect class="cls-4" x="35.83" y="28.5" width="0.17" height="1"/><rect class="cls-4" x="33.83" y="28.5" width="1" height="1"/><rect class="cls-4" x="31.83" y="28.5" width="1" height="1"/><rect class="cls-4" x="30" y="28.5" width="0.83" height="1"/><rect class="cls-4" x="29.17" y="26.5" width="0.83" height="1"/><rect class="cls-4" x="27.17" y="26.5" width="1" height="1"/><rect class="cls-4" x="28.5" y="30.5" width="1" height="0.43"/><path class="cls-4" d="M27.34,30.5l.16.13V30.5Z"/><rect class="cls-4" x="29.83" y="28.5" width="0.17" height="1"/><rect class="cls-4" x="27.83" y="28.5" width="1" height="1"/><path class="cls-4" d="M26.83,28.5h0v.78a1.64,1.64,0,0,0,0,.22h0Z"/><polygon class="cls-5" points="46.66 50.79 40.03 50.79 40.03 52.45 41.69 54.1 40.03 56.59 40.03 69 46.66 69 46.66 56.59 45 54.1 46.66 52.45 46.66 50.79"/></g><path id="outline" class="cls-4" d="M61.55,25H60.9V22.65A2.66,2.66,0,0,0,58.24,20H28.45a2.66,2.66,0,0,0-2.65,2.65v6.62a2.66,2.66,0,0,0,2.65,2.66h29.8a2.66,2.66,0,0,0,2.65-2.66V27h.66a.66.66,0,0,1,.66.65v6.07L42.81,45.81a1,1,0,0,0-.47.85v3.14H40a1,1,0,0,0-1,1v1.66a1,1,0,0,0,.29.71l1.08,1.08L39.2,56a1,1,0,0,0-.17.55V69a1,1,0,0,0,1,1h6.62a1,1,0,0,0,1-1V56.59a1,1,0,0,0-.17-.55l-1.2-1.8,1.08-1.08a1,1,0,0,0,.29-.71V50.79a1,1,0,0,0-1-1H44.34V47.21L63.74,35.09a1,1,0,0,0,.47-.85V27.62A2.66,2.66,0,0,0,61.55,25ZM58.9,29.28a.66.66,0,0,1-.65.66H28.45a.66.66,0,0,1-.65-.66V22.65a.66.66,0,0,1,.65-.65h29.8a.65.65,0,0,1,.65.65ZM45.65,52,44.29,53.4a1,1,0,0,0-.12,1.26l1.49,2.23V68H41V56.89l1.49-2.23a1,1,0,0,0-.12-1.26L41,52v-.24h4.62Z"/></g></g></g></svg>