<svg xmlns="http://www.w3.org/2000/svg" viewBox="0 0 90 90"><defs><style>.cls-1{fill:#94c3cb;}.cls-2{fill:#bdbbba;}.cls-3{fill:#2a373e;}.cls-4{fill:#cfcdcc;}.cls-5{fill:#eff0ef;}.cls-6{fill:#e5e6e5;}.cls-7{fill:#be5e50;}</style></defs><title>paintbox</title><g id="paintbox"><g id="paintbox-2" data-name="paintbox"><circle id="label" class="cls-1" cx="45" cy="45" r="45"/><g id="paintbox-3" data-name="paintbox"><g id="fill"><path class="cls-2" d="M66,63.86A2,2,0,0,1,64.25,66H25.75A2,2,0,0,1,24,63.86V26.14a2.33,2.33,0,0,1,.62-1.62A1.57,1.57,0,0,1,25.75,24h38.5A2,2,0,0,1,66,26.14Z"/><path class="cls-3" d="M66.33,64.5v.84c0,.05,0,.11-.05.16h-.95v-1Zm-2,1v-1h-1v1h1Zm-2-1h-1v1h1Zm-2,0h-1v1h1Zm-2,1v-1h-1v1h1Zm-2-1h-1v1h1Zm-2,0h-1v1h1Zm-2,1v-1h-1v1h1Zm-2-1h-1v1h1Zm-2,0h-1v1h1Zm-2,1v-1h-1v1h1Zm-2-1h-1v1h1Zm-2,0h-1v1h1Zm-2,1v-1h-1v1h1Zm-2-1h-1v1h1Zm-2,0h-1v1h1Zm-2,1v-1h-1v1h1Zm-2-1h-1v1h1Zm-2,0h-1v1h1Zm-2,1v-1h-1v1h1Zm-2-1h-1v1h1Zm-2,0H23.8v0c-.26.27,0,.61.17,1h.38Z"/><rect class="cls-4" x="27.83" y="41.63" width="6.61" height="6.61"/><rect class="cls-4" x="41.7" y="41.63" width="6.61" height="6.61"/><rect class="cls-4" x="55.57" y="41.63" width="6.61" height="6.61"/><rect class="cls-4" x="27.83" y="28.24" width="6.61" height="6.61"/><rect class="cls-4" x="41.7" y="28.24" width="6.61" height="6.61"/><rect class="cls-4" x="55.57" y="28.24" width="6.61" height="6.61"/><path class="cls-5" d="M47.15,33.07H48v.86h-.86Zm-1.72.86h.86v-.86h-.86Zm-1.72-.86v.86h.86v-.86h-.86ZM42,33.93h.86v-.86H42Z"/><path class="cls-5" d="M33.22,33.07h.86v.86h-.86Zm-1.72.86h.86v-.86H31.5Zm-1.72-.86v.86h.86v-.86h-.86Zm-1.72.86h.86v-.86h-.86Z"/><path class="cls-5" d="M61.09,33.07h.86v.86h-.86Zm-1.72.86h.86v-.86h-.86Zm-1.72-.86v.86h.86v-.86h-.86Zm-1.72.86h.86v-.86h-.86Z"/><path class="cls-5" d="M47.15,46.51H48v.86h-.86Zm-1.72.86h.86v-.86h-.86Zm-1.72-.86v.86h.86v-.86h-.86ZM42,47.38h.86v-.86H42Z"/><path class="cls-5" d="M33.22,46.51h.86v.86h-.86Zm-1.72.86h.86v-.86H31.5Zm-1.72-.86v.86h.86v-.86h-.86Zm-1.72.86h.86v-.86h-.86Z"/><path class="cls-5" d="M61.09,46.51h.86v.86h-.86Zm-1.72.86h.86v-.86h-.86Zm-1.72-.86v.86h.86v-.86h-.86Zm-1.72.86h.86v-.86h-.86Z"/><path class="cls-6" d="M34.08,61.76c-1.22,0-3.33-1.36-5.52-3.55l-.36-.37c1.85-2,4.39-3.92,5.88-3.92h0a3.92,3.92,0,0,1,0,7.83Z"/><path class="cls-1" d="M39.72,56.07h2.53l0,.08a3.89,3.89,0,0,1,.39,1.7h0a3.85,3.85,0,0,1-.1.81l0,.18a3.87,3.87,0,0,1-.28.75l0,0H39.72a5.92,5.92,0,0,0,0-3.56Z"/><path class="cls-7" d="M61.65,59.11a1.77,1.77,0,0,1-1.26.52h-16a5.83,5.83,0,0,0,.16-.67c0-.07,0-.13,0-.2a5.88,5.88,0,0,0,0-1.8c0-.1,0-.19-.07-.28a5.86,5.86,0,0,0-.14-.59v0h16a1.78,1.78,0,0,1,1.26,3Z"/></g><g id="outline"><path class="cls-3" d="M64.25,22H25.75a3.56,3.56,0,0,0-2.58,1.14h0a4.33,4.33,0,0,0-1.17,3V63.86A4,4,0,0,0,25.75,68h38.5A4,4,0,0,0,68,63.86V26.14A4,4,0,0,0,64.25,22ZM66,63.86A2,2,0,0,1,64.25,66H25.75A2,2,0,0,1,24,63.86V26.14a2.33,2.33,0,0,1,.62-1.62A1.57,1.57,0,0,1,25.75,24h38.5A2,2,0,0,1,66,26.14Z"/><path class="cls-3" d="M27.54,50.24h7.17a1.76,1.76,0,0,0,1.72-1.72V41.35a1.72,1.72,0,0,0-1.72-1.72H27.54a1.76,1.76,0,0,0-1.72,1.72v7.17A1.72,1.72,0,0,0,27.54,50.24Zm.28-8.61h6.61v6.61H27.83Z"/><path class="cls-3" d="M41.41,50.24h7.17a1.72,1.72,0,0,0,1.72-1.72V41.35a1.72,1.72,0,0,0-1.72-1.72H41.41a1.72,1.72,0,0,0-1.72,1.72v7.17A1.72,1.72,0,0,0,41.41,50.24Zm.28-8.61H48.3v6.61H41.7Z"/><path class="cls-3" d="M62.46,39.63H55.28a1.72,1.72,0,0,0-1.72,1.72v7.17a1.72,1.72,0,0,0,1.72,1.72h7.17a1.72,1.72,0,0,0,1.72-1.72V41.35A1.72,1.72,0,0,0,62.46,39.63Zm-.28,8.61H55.57V41.63h6.61Z"/><path class="cls-3" d="M27.54,36.85h7.17a1.76,1.76,0,0,0,1.72-1.72V28a1.72,1.72,0,0,0-1.72-1.72H27.54a1.68,1.68,0,0,0-1,.33A1.71,1.71,0,0,0,25.83,28v7.17A1.72,1.72,0,0,0,27.54,36.85Zm.28-8.61h6.61v6.61H27.83Z"/><path class="cls-3" d="M41.41,36.85h7.17a1.72,1.72,0,0,0,1.72-1.72V28a1.72,1.72,0,0,0-1.72-1.72H41.41A1.72,1.72,0,0,0,39.7,28v7.17A1.72,1.72,0,0,0,41.41,36.85Zm.28-8.61H48.3v6.61H41.7Z"/><path class="cls-3" d="M62.46,26.24H55.28A1.72,1.72,0,0,0,53.57,28v7.17a1.72,1.72,0,0,0,1.72,1.72h7.17a1.72,1.72,0,0,0,1.72-1.72V28A1.72,1.72,0,0,0,62.46,26.24Zm-.28,8.61H55.57V28.24h6.61Z"/><path class="cls-3" d="M60.4,54.07H38.63c-.12-.14-.24-.27-.37-.4a5.87,5.87,0,0,0-4.18-1.73h0c-2.72,0-6,3.18-7.34,4.55l-.64.68a1,1,0,0,0,0,1.38l1.05,1.1c1.54,1.54,4.49,4.13,6.93,4.13A5.88,5.88,0,0,0,38.27,62c.13-.13.25-.26.36-.4H60.4a3.78,3.78,0,0,0,3.78-3.78h0a3.78,3.78,0,0,0-3.78-3.78Zm-26.31,7.7c-1.22,0-3.33-1.36-5.52-3.55l-.36-.37c1.85-2,4.39-3.92,5.88-3.92h0a3.92,3.92,0,0,1,0,7.83Zm5.64-5.7h2.53l0,.08a3.89,3.89,0,0,1,.39,1.7h0a3.85,3.85,0,0,1-.1.81l0,.18a3.87,3.87,0,0,1-.28.75l0,0H39.72a5.92,5.92,0,0,0,0-3.56Zm21.93,3a1.77,1.77,0,0,1-1.26.52h-16a5.83,5.83,0,0,0,.16-.67c0-.07,0-.13,0-.2a5.88,5.88,0,0,0,0-1.8c0-.1,0-.19-.07-.28a5.86,5.86,0,0,0-.14-.59v0h16a1.78,1.78,0,0,1,1.26,3Z"/></g></g></g></g></svg>