<svg xmlns="http://www.w3.org/2000/svg" viewBox="0 0 90 90"><defs><style>.cls-1{fill:#be5e50;}.cls-2{fill:#94c3cb;}.cls-3{fill:#bdbbba;}.cls-4{fill:#eff0ef;}.cls-5{fill:#2a373e;}.cls-6{fill:#999797;}</style></defs><title>pencil-ruler</title><g id="pencil-ruler"><g id="pencil-ruler-2" data-name="pencil-ruler"><circle id="label" class="cls-1" cx="45" cy="45" r="45"/><g id="pencil-ruler-3" data-name="pencil-ruler"><g id="fill"><polyline class="cls-2" points="52.4 26.32 23 55.72 34.28 67 63.68 37.6"/><path class="cls-3" d="M23,32.93,32.93,23,67,57.07,57.07,67Zm9.61,0a2.17,2.17,0,1,0-2.17,2.17A2.17,2.17,0,0,0,32.61,32.88Z"/><polygon class="cls-4" points="61.13 24.34 52.4 26.32 63.68 37.6 65.67 28.87 61.13 24.34"/><path class="cls-5" d="M63.45,28.29v-.19h.19v.19Zm0,1.73v.19h.19V30Zm1.25-1v.39h.38v-.39Zm-1.25-.58h.19v-.19h-.19Zm0,3.46v.19h.19v-.19Zm1.25-.58h.38V31H64.7Zm-1.25-1h.19v-.19h-.19Zm0,3.46v.19h.19v-.19Zm1.25-.74.05-.22H64.7Zm-1.25-.8h.19v-.19h-.19ZM63.64,36v-.19h-.19V36Zm-.19-1.73h.19v-.19h-.19Zm0,1.73v.19h.19V36Zm-2.7-11.57-.07,0h.07Zm0,1.94v-.19h-.19v.19Zm1.06-.77h.39V25.4L62,25.21h-.19Zm-1.06-1v-.19h-.07l-.13,0v.16Zm2.7,3.66v-.19h-.19v.19Zm-2.7,0v-.19h-.19v.19Zm2.6-1.73-.1-.1v.1Zm-1.54.58v.39h.39v-.39Zm-1.25-.58h.19v-.19h-.19ZM63.45,30h-.19v.19h.19Zm-2.7.19V30h-.19v.19Zm2.5-1.92v.19h.19v-.19Zm-1.44,1.15h.39v-.39h-.39Zm-1.25-1h.19v-.19h-.19Zm2.89,3.46h-.19v.19h.19Zm-2.7.19v-.19h-.19v.19Zm2.5-1.92v.19h.19v-.19ZM62.2,31.37V31h-.39v.38Zm-1.64-1h.19v-.19h-.19Zm2.89,3.46h-.19v.19h.19Zm-2.7.19v-.19h-.19v.19Zm2.5-1.92v.19h.19v-.19Zm-1.06.77h-.39v.39h.39Zm-1.64-.58h.19v-.19h-.19Zm2.89,3.47h-.19V36h.19Zm-.19-1.73v.19h.19v-.19Zm-1.06.77h-.39v.39h.39Zm-1.64-.77v.19h.19v-.19ZM63.25,36v.19h.19V36Zm-2.7-9.63v-.19h-.19v.19Zm-2.7,0v-.19h-.19v.19Zm2.7-1.73v-.16l-.19,0v.12Zm-1.25.58h-.39v.39h.39Zm1.25,2.89h-.19v.19h.19Zm-2.7.19v-.19h-.19v.19Zm2.5-1.93v.19h.19v-.19Zm-1.06.77h-.39v.39h.39Zm-1.64-.58h.19v-.19h-.19ZM60.56,30h-.19v.19h.19Zm-2.7.19V30h-.19v.19Zm2.7-1.73v-.19h-.19v.19Zm-1.25,1v-.39h-.39v.39Zm-1.64-1h.19v-.19h-.19Zm2.89,3.46h-.19v.19h.19Zm0-1.73h-.19v.19h.19Zm-1.25,1.15V31h-.39v.38Zm-1.64-1.15v.19h.19v-.19Zm2.89,3.66h-.19v.19h.19Zm0-1.54v-.19h-.19v.19ZM59,32.91l.33.33v-.33Zm1.38,1.15v.19h.19v-.19Zm-2.7-7.7v-.19h-.19v.19Zm-2.69,0v-.19h-.19v.19Zm1.44-.77v-.19l-.39.09v.1Zm1.25,2.5h-.19v.19h.19ZM55,28.29v-.19h-.19v.19Zm2.5-1.93v.19h.19v-.19Zm-1.06.77H56v.39h.39Zm-1.64-.58H55v-.19h-.19ZM57.67,30h-.19v.19h.19Zm0-1.73h-.19v.19h.19Zm-1.25.77H56v.39h.39Zm-1.64-.77v.19H55v-.19Zm2.7,1.92v.19h.19v-.19Zm-2.7-4h-.19v.19h.19Zm0,1.92h-.19v.19h.19Zm0-1.54v-.19h-.19v.19Zm-1.58.58.33.33v-.33Zm1.38,1.16v.19h.19v-.19Z"/><path class="cls-6" d="M61.13,24.33a6,6,0,0,0,4.54,4.53L67,23Z"/></g><g id="outline"><path class="cls-5" d="M67.71,56.36,57,45.68l7.37-7.37h0a1,1,0,0,0,.19-.29l0-.09a1,1,0,0,0,0-.1l2-8.74h0L68,23.22a1,1,0,0,0-1.2-1.2l-5.87,1.33-8.73,2-.1,0-.09,0a1,1,0,0,0-.29.19h0L44.32,33,33.64,22.29a1,1,0,0,0-1.41,0l-9.93,9.93a1,1,0,0,0,0,1.41L33,44.32,22.29,55a1,1,0,0,0,0,1.41L33.58,67.71a1,1,0,0,0,1.41,0L45.68,57,56.36,67.71a1,1,0,0,0,1.41,0l9.93-9.93A1,1,0,0,0,67.71,56.36Zm-2-32-.74,3.25a5,5,0,0,1-2.51-2.51Zm-5.23,1.19a7,7,0,0,0,4,4l-1.38,6.06-8.72-8.72ZM52.4,27.73l9.87,9.87-6.66,6.66-9.87-9.87ZM34.29,65.59l-9.87-9.87,10-10,9.87,9.87Zm22.79,0L46.39,54.9h0L35.1,43.62h0L24.42,32.93l8.52-8.52,2.15,2.15L34,27.66a.82.82,0,0,0,1.15,1.15l1.09-1.1,2.23,2.23-1.87,1.87a.81.81,0,0,0,0,1.15.8.8,0,0,0,.58.24.81.81,0,0,0,.58-.24l1.87-1.87,2.23,2.23-1.09,1.1a.82.82,0,1,0,1.15,1.15L43,34.48l2.23,2.23-1.87,1.87A.81.81,0,0,0,43.94,40a.8.8,0,0,0,.58-.24l1.87-1.87,2.23,2.23-1.1,1.1a.81.81,0,1,0,1.15,1.15l1.1-1.1L52,43.48l-1.87,1.87a.82.82,0,0,0,1.15,1.15l1.87-1.87,2.23,2.23L54.29,48a.82.82,0,0,0,1.15,1.15L56.53,48l2.23,2.23L56.9,52.12a.81.81,0,0,0,0,1.15.8.8,0,0,0,.57.24.82.82,0,0,0,.58-.24l1.87-1.87,2.23,2.23-1.1,1.1a.82.82,0,1,0,1.15,1.15l1.1-1.1,2.28,2.28Z"/><path class="cls-5" d="M30.44,29.71a3.17,3.17,0,1,0,3.17,3.17A3.18,3.18,0,0,0,30.44,29.71Zm0,4.35a1.17,1.17,0,1,1,1.17-1.17A1.17,1.17,0,0,1,30.44,34.05Z"/></g></g></g></g></svg>