<svg xmlns="http://www.w3.org/2000/svg" viewBox="0 0 90 90"><defs><style>.cls-1{fill:#cfcdcc;}.cls-2{fill:#2a373e;}.cls-3{fill:#bdbbba;}.cls-4{fill:#999797;}.cls-5{fill:#94c3cb;}.cls-6{fill:#be5e50;}.cls-7{fill:#eff0ef;}</style></defs><title>png-image</title><g id="png-image"><g id="png-image-2" data-name="png-image"><circle id="label" class="cls-1" cx="45" cy="45" r="45"/><g id="png-image-3" data-name="png-image"><g id="fill"><path class="cls-2" d="M62,34.73v1H61v-1h1Zm-.48-3.91h0L61,30.32h0v.49h.5Zm-4.17-3.42v1h1v-.75l-.23-.23Zm0,5.87h1v-1h-1ZM61,39.62v1h1v-1H61Zm-3.67-1.47h1v-1h-1ZM61,44.51v1h1v-1H61ZM57.35,43h1v-1h-1ZM61,49.4v1h1v-1H61Zm-3.67-1.47h1V47h-1ZM61,54.29v1h1v-1H61Zm-3.67-1.47h1v-1h-1ZM61,59.19v1h1v-1H61Zm-3.67-1.47h1v-1h-1ZM61,64.08v1h1v-1H61Zm-3.67-1.47h1v-1h-1Zm0,4.89h1v-1h-1ZM53.68,24.94v1h1v-1h-1ZM50,23.47h1v-1H50Zm3.67,6.36v1h1v-1h-1ZM50,28.37h1v-1H50Zm3.67,6.36v1h1v-1h-1ZM50,33.26h1v-1H50Zm3.67,6.36v1h1v-1h-1ZM50,38.15h1v-1H50Zm3.67,6.36v1h1v-1h-1ZM50,43h1v-1H50Zm3.67,6.36v1h1v-1h-1ZM50,47.94h1V47H50Zm3.67,6.36v1h1v-1h-1ZM50,52.83h1v-1H50Zm3.67,6.36v1h1v-1h-1ZM50,57.72h1v-1H50Zm3.67,6.36v1h1v-1h-1ZM50,62.61h1v-1H50Zm0,4.89h1v-1H50ZM46.35,24.94v1h1v-1h-1Zm-3.67-1.47h1v-1h-1Zm3.67,6.36v1h1v-1h-1Zm-3.67-1.47h1v-1h-1Zm3.67,6.36v1h1v-1h-1Zm-3.67-1.47h1v-1h-1Zm3.67,6.36v1h1v-1h-1Zm-3.67-1.47h1v-1h-1Zm3.67,6.36v1h1v-1h-1ZM42.68,43h1v-1h-1Zm3.67,6.36v1h1v-1h-1Zm-3.67-1.47h1V47h-1Zm3.67,6.36v1h1v-1h-1Zm-3.67-1.47h1v-1h-1Zm3.67,6.36v1h1v-1h-1Zm-3.67-1.47h1v-1h-1Zm3.67,6.36v1h1v-1h-1Zm-3.67-1.47h1v-1h-1Zm0,4.89h1v-1h-1ZM39,24.94v1h1v-1H39Zm-3.67-1.47h1v-1h-1ZM39,29.83v1h1v-1H39Zm-3.67-1.47h1v-1h-1ZM39,34.73v1h1v-1H39Zm-3.67-1.47h1v-1h-1ZM39,39.62v1h1v-1H39Zm-3.67-1.47h1v-1h-1ZM39,44.51v1h1v-1H39ZM35.34,43h1v-1h-1ZM39,49.4v1h1v-1H39Zm-3.67-1.47h1V47h-1ZM39,54.29v1h1v-1H39Zm-3.67-1.47h1v-1h-1ZM39,59.19v1h1v-1H39Zm-3.67-1.47h1v-1h-1ZM39,64.08v1h1v-1H39Zm-3.67-1.47h1v-1h-1Zm0,4.89h1v-1h-1ZM31.67,24.94v1h1v-1h-1ZM28,23.47h1v-1H28Zm3.67,6.36v1h1v-1h-1ZM28,28.37h1v-1H28Zm3.67,6.36v1h1v-1h-1ZM28,33.26h1v-1H28Zm3.67,6.36v1h1v-1h-1ZM28,38.15h1v-1H28Zm3.67,6.36v1h1v-1h-1ZM28,43h1v-1H28Zm3.67,6.36v1h1v-1h-1ZM28,47.94h1V47H28Zm3.67,6.36v1h1v-1h-1ZM28,52.83h1v-1H28Zm3.67,6.36v1h1v-1h-1ZM28,57.72h1v-1H28Zm3.67,6.36v1h1v-1h-1ZM28,62.61h1v-1H28Zm0,4.89h1v-1H28Z"/><path class="cls-3" d="M27.43,53.79c3.43-2.57,13.29-10.93,13.29-10.93l9.86,11.36Z"/><polygon class="cls-4" points="54.86 37.07 45.86 46.93 51.43 54.22 63.43 54.22 63.43 47.36 54.86 37.07"/><rect class="cls-5" x="26.57" y="54.21" width="36.86" height="14.79"/><path class="cls-6" d="M53.14,22.19v9.09h9.09a.44.44,0,0,0,.31-.75l-8.65-8.65A.44.44,0,0,0,53.14,22.19Z"/><circle class="cls-7" cx="38" cy="31" r="3.5"/><path class="cls-2" d="M37.22,58.52c1.81,0,2.85.89,2.85,2.46s-1,2.57-2.85,2.57H35.56v2.17H34.35v-7.2Zm-1.66,3.94h1.6c1.11,0,1.74-.47,1.74-1.45s-.63-1.4-1.74-1.4h-1.6Z"/><path class="cls-2" d="M46.42,65.72l-3.83-5.16v5.16H41.38v-7.2h1.19l3.85,5.17V58.52h1.19v7.2Z"/><path class="cls-2" d="M55.61,62.18v2.65a4.88,4.88,0,0,1-2.8.94,3.64,3.64,0,1,1,.07-7.28,4.32,4.32,0,0,1,2.77,1l-.69.89a3.12,3.12,0,0,0-2.08-.82,2.56,2.56,0,1,0,0,5.11,3.35,3.35,0,0,0,1.66-.49v-2Z"/></g><g id="outline"><path class="cls-2" d="M38,35.5A4.5,4.5,0,1,0,33.5,31,4.51,4.51,0,0,0,38,35.5Zm0-7A2.5,2.5,0,1,1,35.5,31,2.5,2.5,0,0,1,38,28.5Z"/><path class="cls-2" d="M63.92,30.49l-10-10A1.77,1.77,0,0,0,52.7,20H27.83a2.36,2.36,0,0,0-2.25,2.65V68.14A2.23,2.23,0,0,0,27.83,70H62.17a2.23,2.23,0,0,0,2.25-1.86v-36A2.12,2.12,0,0,0,63.92,30.49ZM48.85,53.43H29.72L41,43.46Zm2.53,0,0-.06-4.72-6,8.18-9,7.62,9.53v5.51Zm9.51-23.14H54.14V23.54ZM27.83,22H52.17a1.41,1.41,0,0,0,0,.19v9.09a1,1,0,0,0,1,1h9.09l.19,0V44.72l-6.79-8.49a1,1,0,0,0-.75-.37,1,1,0,0,0-.77.33l-8.75,9.58L41.94,41.4A1,1,0,0,0,41.4,41h-.28a1,1,0,0,0-.6.24l-12.94,11V22.65C27.57,22.43,27.62,22,27.83,22ZM62.17,68H27.83a.46.46,0,0,1-.25-.09V55.43H62.43V67.91A.47.47,0,0,1,62.17,68Z"/></g></g></g></g></svg>