<svg xmlns="http://www.w3.org/2000/svg" viewBox="0 0 90 90"><defs><style>.cls-1{fill:#94c3cb;}.cls-2{fill:#e5e6e5;}.cls-3{fill:#d8d6d5;}.cls-4{fill:#bdbbba;}.cls-5{fill:#be5e50;}.cls-6{fill:#2a373e;}.cls-7{fill:#999797;}</style></defs><title>polaroid-camera</title><g id="polaroid-camera"><g id="polaroid-camera-2" data-name="polaroid-camera"><circle id="label" class="cls-1" cx="45" cy="45" r="45"/><g id="polaroid-camera-3" data-name="polaroid-camera"><g id="fill"><path class="cls-2" d="M64,31a8,8,0,0,0-8-8H34a8,8,0,0,0-8,8V47H64Z"/><rect class="cls-3" x="23" y="52.4" width="44" height="7.6"/><polygon class="cls-4" points="66.67 51.45 23.33 51.45 26 47 64 47 66.67 51.45"/><rect class="cls-4" x="43" y="23" width="4" height="24"/><polyline class="cls-5" points="33 56 29 67 61 67 57 56"/><path class="cls-6" d="M56.33,58H55.5V57h1l0,.1V58ZM54.5,57h-1v1h1Zm-2,0h-1v1h1Zm-2,1V57h-1v1h1Zm-2-1h-1v1h1Zm-2,0h-1v1h1Zm-2,1V57h-1v1h1Zm-2-1h-1v1h1Zm-2,0h-1v1h1Zm-2,1V57h-1v1h1Zm-2-1h-1v1h1Zm-2,0h-1v1h1Zm23,4v.5h1V61Zm-2,.5h1V61h-1Zm-2,0h1V61h-1Zm-2,0h1V61h-1Zm-2,0h1V61h-1Zm-2,0h1V61h-1Zm-2,0h1V61h-1Zm-2,0h1V61h-1Zm-2,0h1V61h-1Zm-2,0h1V61h-1Zm-2,0h1V61h-1Zm-2,0h1V61h-1Zm-2,0h1V61h-1Zm-2,0h1V61h-1Zm26-2.5h-1v1h1Zm-2,0h-1v1h1Zm-2,0h-1v1h1Zm-2,0h-1v1h1Zm-2,0h-1v1h1Zm-2,0h-1v1h1Zm-2,0h-1v1h1Zm-2,0h-1v1h1Zm-2,0h-1v1h1Zm-2,0h-1v1h1Zm-2,0h-1v1h1Zm-2,0h-1v1h1Zm-2,0h-1v1h1Z"/><circle class="cls-7" cx="45" cy="35" r="7"/><circle class="cls-1" cx="45" cy="35" r="3.03"/></g><g id="outline"><path class="cls-6" d="M67.93,51.65l0-.09s0-.06,0-.08L65,46.72V31a9,9,0,0,0-9-9H34a9,9,0,0,0-9,9V46.72l-2.86,4.76s0,.06,0,.08l0,.09A1,1,0,0,0,22,52v8a1,1,0,0,0,1,1h7.12l-2.06,5.66A1,1,0,0,0,29,68H61a1,1,0,0,0,.94-1.34L59.88,61H67a1,1,0,0,0,1-1V52A1,1,0,0,0,67.93,51.65ZM26.57,48H63.43l1.8,3H24.77ZM45,27a8,8,0,0,0-1,.07V24h2v3.07A8,8,0,0,0,45,27Zm0,2a6,6,0,1,1-6,6A6,6,0,0,1,45,29Zm0,14a8,8,0,0,0,1-.07V46H44V42.93A8,8,0,0,0,45,43ZM63,31V46H48V42.41a8,8,0,0,0,0-14.82V24h8A7,7,0,0,1,63,31ZM27,31a7,7,0,0,1,7-7h8v3.59a8,8,0,0,0,0,14.82V46H27Zm3.43,35,3.27-9H56.3l3.27,9Zm28.73-7-.73-2H61a1,1,0,0,0,0-2H29a1,1,0,0,0,0,2h2.57l-.73,2H24V53H66v6Z"/><path class="cls-6" d="M45,39a4,4,0,1,0-4-4A4,4,0,0,0,45,39ZM45,33a2,2,0,1,1-2,2A2,2,0,0,1,45,33Z"/><path class="cls-6" d="M34.13,30h-3a1,1,0,0,0,0,2h3a1,1,0,0,0,0-2Z"/><path class="cls-6" d="M34.13,32.87h-3a1,1,0,0,0,0,2h3a1,1,0,0,0,0-2Z"/></g></g></g></g></svg>