<svg xmlns="http://www.w3.org/2000/svg" viewBox="0 0 90 90"><defs><style>.cls-1{fill:#94c3cb;}.cls-2{fill:#999797;}.cls-3{fill:#be5e50;}.cls-4{fill:#e5e6e5;}.cls-5{fill:#bdbbba;}.cls-6{fill:#2a373e;}</style></defs><title>printer</title><g id="printer"><g id="printer-2" data-name="printer"><circle id="label" class="cls-1" cx="45" cy="45" r="45"/><g id="printer-3" data-name="printer"><g id="fill"><polyline class="cls-2" points="30.94 32.35 30.94 22.13 59.06 22.13 59.06 32.35"/><polyline class="cls-3" points="29.92 56.37 22 56.37 22 33.37 68 33.37 68 56.37 60.08 56.37"/><path class="cls-1" d="M28.68,38.48a1.6,1.6,0,0,0-1.57-1.57,1.57,1.57,0,1,0,1.57,1.57"/><rect class="cls-4" x="30.94" y="44.87" width="28.11" height="23"/><rect class="cls-5" x="30.94" y="44.87" width="28.11" height="5.06"/><path class="cls-6" d="M57.72,47.61h1v1h-1Zm-2.09,1h1v-1h-1Zm2.44-3.14H57v1h1Zm-2.09,0h-1v1h1Zm1,7h1V51.8H57Zm-2.09,0h1V51.8h-1Zm3.48-2.83v1h.64v-1Zm-1,0h-1v1h1Zm-2.09,0h-1v1h1Zm-1.74-1h1v-1h-1Zm-2.09,0h1v-1h-1Zm-2.09,0h1v-1h-1Zm4.53-3.14h-1v1h1Zm-2.09,0h-1v1h1Zm-2.09,0h-1v1h1Zm3.14,7h1V51.8h-1Zm-2.09,0h1V51.8h-1Zm-2.09,0h1V51.8h-1Zm4.53-2.83h-1v1h1Zm-2.09,0h-1v1h1ZM49,49.7H48v1h1Zm-1.74-1h1v-1h-1Zm-2.09,0h1v-1h-1Zm-2.09,0h1v-1h-1Zm4.53-3.14h-1v1h1Zm-2.09,0h-1v1h1Zm-2.09,0h-1v1h1Zm3.14,7h1V51.8h-1Zm-2.09,0h1V51.8h-1Zm-2.09,0h1V51.8h-1Zm4.53-2.83h-1v1h1Zm-2.09,0h-1v1h1Zm-2.09,0h-1v1h1Zm-1.74-1h1v-1H41Zm-2.09,0h1v-1h-1Zm-2.09,0h1v-1h-1Zm4.53-3.14h-1v1h1Zm-2.09,0h-1v1h1Zm-2.09,0h-1v1h1Zm3.14,7h1V51.8h-1Zm-2.09,0h1V51.8h-1Zm-2.09,0h1V51.8h-1Zm4.53-2.83h-1v1h1Zm-2.09,0h-1v1h1Zm-2.09,0h-1v1h1Zm-1.74-1h1v-1h-1Zm-2.09,0h1v-1h-1Zm-1-1h-.64v1h.64Zm3.48-2.09H34v1h1Zm-2.09,0h-1v1h1Zm1,7h1V51.8H34Zm-2.09,0h1V51.8h-1Zm2.44-2.83h-1v1h1Zm-2.09,0h-1v1h1Z"/></g><g id="outline"><path class="cls-6" d="M68,32.37H60.05V22.13a1,1,0,0,0-1-1H30.94a1,1,0,0,0-1,1V32.37H22a1,1,0,0,0-1,1v23a1,1,0,0,0,1,1h7.94v10.5a1,1,0,0,0,1,1H59.06a1,1,0,0,0,1-1V57.37H68a1,1,0,0,0,1-1v-23A1,1,0,0,0,68,32.37Zm-36.06,0V23.13H58.06v9.25H31.94ZM58.06,66.87H31.94v-21H58.06ZM67,55.37H60.06V44.87a1,1,0,0,0-1-1H30.94a1,1,0,0,0-1,1v10.5H23v-21H67Z"/><path class="cls-6" d="M59.94,39h4.11a1,1,0,0,0,0-2H59.94a1,1,0,0,0,0,2Z"/></g></g></g></g></svg>