<svg xmlns="http://www.w3.org/2000/svg" viewBox="0 0 90 90"><defs><style>.cls-1{fill:#cfcdcc;}.cls-2{fill:#94c3cb;}.cls-3{fill:#be5e50;}.cls-4{fill:#2a373e;}.cls-5{fill:#e5e6e5;}</style></defs><title>retina-ready-design</title><g id="retina-ready-design"><g id="retina-ready-design-2" data-name="retina-ready-design"><circle id="label" class="cls-1" cx="45" cy="45" r="45"/><g id="retina-ready-design-3" data-name="retina-ready-design"><g id="fill"><path class="cls-2" d="M66.85,22H23.15A1.17,1.17,0,0,0,22,23.19V68H68V23.19A1.17,1.17,0,0,0,66.85,22Z"/><rect class="cls-3" x="26.5" y="30.23" width="37" height="33.24"/><ellipse class="cls-4" cx="34.68" cy="25.71" rx="1.26" ry="1.3"/><ellipse class="cls-4" cx="30.63" cy="25.71" rx="1.26" ry="1.3"/><ellipse class="cls-4" cx="26.57" cy="25.71" rx="1.26" ry="1.3"/><path class="cls-5" d="M57.58,46.56a14.53,14.53,0,0,1-25.16,0v-.25a14.53,14.53,0,0,1,25.16,0Z"/><path class="cls-4" d="M39.46,46.43A5.54,5.54,0,1,0,45,40.9,5.54,5.54,0,0,0,39.46,46.43Zm2.43-1.73a1.62,1.62,0,1,1,1.62,1.62A1.62,1.62,0,0,1,41.9,44.71Z"/></g><g id="outline"><path class="cls-4" d="M66.85,21H23.15A2.17,2.17,0,0,0,21,23.19V68a1,1,0,0,0,1,1H68a1,1,0,0,0,1-1V23.19A2.17,2.17,0,0,0,66.85,21ZM67,67H23V23.19a.17.17,0,0,1,.15-.19h43.7a.17.17,0,0,1,.15.19Z"/><path class="cls-4" d="M63.5,29.23h-37a1,1,0,0,0-1,1V63.47a1,1,0,0,0,1,1h37a1,1,0,0,0,1-1V30.23A1,1,0,0,0,63.5,29.23Zm-1,33.24h-35V31.23h35Z"/><path class="cls-4" d="M45,54.82h0a15.61,15.61,0,0,0,13.43-7.74,1,1,0,0,0,.14-.51v-.25a1,1,0,0,0-.14-.51A15.61,15.61,0,0,0,45,38.06h0A15.62,15.62,0,0,0,31.56,45.8a1,1,0,0,0-.14.51v.25a1,1,0,0,0,.14.51A15.62,15.62,0,0,0,45,54.82Zm0-14.76h0a13.6,13.6,0,0,1,11.48,6.38A13.6,13.6,0,0,1,45,52.82h0a13.6,13.6,0,0,1-11.48-6.38A13.6,13.6,0,0,1,45,40.06Z"/></g></g></g></g></svg>