<svg xmlns="http://www.w3.org/2000/svg" viewBox="0 0 90 90"><defs><style>.cls-1{fill:#be5e50;}.cls-2{fill:#94c3cb;}.cls-3{fill:#d8d6d5;}.cls-4{fill:#cfcdcc;}.cls-5{fill:#2a373e;}</style></defs><title>scissor</title><g id="scissor"><g id="scissor-2" data-name="scissor"><circle id="label" class="cls-1" cx="45" cy="45" r="45"/><g id="scissor-3" data-name="scissor"><g id="fill"><circle class="cls-2" cx="34.48" cy="59.35" r="6.65"/><path class="cls-3" d="M38.19,51.54,61.44,24.77a10.29,10.29,0,0,1-2.19,11.34L44.31,51.05h0v0l-3,3A8.69,8.69,0,0,0,38.19,51.54Z"/><path class="cls-4" d="M30.75,36.11a10.29,10.29,0,0,1-2.19-11.34L43.69,42.15l-3.21,3.69Z"/><path class="cls-4" d="M46.41,51.77l3-3,2.41,2.77a8.69,8.69,0,0,0-3.16,2.53Z"/><path class="cls-5" d="M51.17,51.5v-.77l.67.77Zm-1,0v-1H50v1ZM50,52.71l.27-.21H50Zm0-2.21h-.83v1H50Zm-1.83,1v-1h-.48l-.52.52v.48Zm1.33-2.68-.06-.07-.75.75h.81Zm.33,3.68v.36l.17-.15V52.5Zm-1,0h-1v.69l.31.31h.69Z"/><circle class="cls-2" cx="55.52" cy="59.35" r="6.65"/><circle class="cls-1" cx="34.48" cy="59.35" r="2.83"/><circle class="cls-1" cx="55.52" cy="59.35" r="2.83"/><circle class="cls-5" cx="45" cy="46.88" r="1.48"/></g><g id="outline"><path class="cls-5" d="M45,48.35a1.48,1.48,0,1,0-1.48-1.48A1.48,1.48,0,0,0,45,48.35Zm0-2a.52.52,0,1,1-.52.52A.52.52,0,0,1,45,46.35Z"/><path class="cls-5" d="M34.48,54.52a4.83,4.83,0,1,0,4.83,4.83A4.83,4.83,0,0,0,34.48,54.52Zm0,7.65a2.83,2.83,0,1,1,2.83-2.83A2.83,2.83,0,0,1,34.48,62.17Z"/><path class="cls-5" d="M55.52,50.7a8.64,8.64,0,0,0-1.6.15l-3.06-3.52,9.81-9.81a12.29,12.29,0,0,0,1.85-15,1,1,0,0,0-.77-.48,1,1,0,0,0-.84.34L45,40.63,29.1,22.34a1,1,0,0,0-.84-.34,1,1,0,0,0-.77.48,12.29,12.29,0,0,0,1.85,15l9.84,9.84-3,3.5a8.68,8.68,0,1,0,6.24,5L45,53.19l2.63,2.63a8.65,8.65,0,1,0,7.89-5.12ZM30.75,36.11a10.29,10.29,0,0,1-2.19-11.34L43.69,42.15l-3.21,3.69ZM34.48,66a6.65,6.65,0,1,1,6.65-6.65A6.66,6.66,0,0,1,34.48,66Zm3.71-14.46L61.44,24.77a10.29,10.29,0,0,1-2.19,11.34L44.31,51.05h0v0l-3,3A8.69,8.69,0,0,0,38.19,51.54Zm8.23.23,3-3,2.41,2.77a8.69,8.69,0,0,0-3.16,2.53ZM55.52,66a6.65,6.65,0,1,1,6.65-6.65A6.66,6.66,0,0,1,55.52,66Z"/><path class="cls-5" d="M55.52,54.52a4.83,4.83,0,1,0,4.83,4.83A4.83,4.83,0,0,0,55.52,54.52Zm0,7.65a2.83,2.83,0,1,1,2.83-2.83A2.83,2.83,0,0,1,55.52,62.17Z"/></g></g></g></g></svg>