<svg xmlns="http://www.w3.org/2000/svg" viewBox="0 0 90 90"><defs><style>.cls-1{fill:#94c3cb;}.cls-2{fill:#e5e6e5;}.cls-3{fill:#999797;}.cls-4{fill:#be5e50;}.cls-5{fill:#ab5448;}.cls-6{fill:#2a373e;}</style></defs><title>screen-infinity</title><g id="screen-infinity"><g id="screen-infinity-2" data-name="screen-infinity"><circle id="label" class="cls-1" cx="45" cy="45" r="45"/><g id="screen-infinity-3" data-name="screen-infinity"><g id="fill"><path class="cls-2" d="M24.81,24H65.19a2.14,2.14,0,0,1,2.14,2.13v27H22.68v-27A2.14,2.14,0,0,1,24.81,24Z"/><path class="cls-3" d="M65.19,58.26H24.81a2.14,2.14,0,0,1-2.14-2.14V55H67.32v1.1A2.14,2.14,0,0,1,65.19,58.26Z"/><polyline class="cls-4" points="45 40.5 41.27 49.5 45 47.96"/><polyline class="cls-5" points="45 47.96 48.73 49.5 45 40.5"/></g><g id="outline"><path class="cls-6" d="M65.19,22H24.81a4.11,4.11,0,0,0-4.11,4.11v30a4.11,4.11,0,0,0,4.11,4.11H39.34V66H34.13a1,1,0,0,0,0,2H55.87a1,1,0,0,0,0-2H50.66V60.24H65.19a4.11,4.11,0,0,0,4.11-4.11v-30A4.11,4.11,0,0,0,65.19,22ZM24.81,24H65.19a2.11,2.11,0,0,1,2.11,2.11v27H22.71v-27A2.11,2.11,0,0,1,24.81,24ZM48.66,66H41.34V60.24h7.32Zm16.53-7.76H24.81a2.11,2.11,0,0,1-2.11-2.11V55.06H67.29v1.07A2.11,2.11,0,0,1,65.19,58.24Z"/><path class="cls-6" d="M36.19,42c3.71,0,6.34-2.75,8.81-5.67C47.47,39.27,50.1,42,53.81,42a7.19,7.19,0,0,0,0-14.39c-3.71,0-6.35,2.71-8.81,5.61-2.46-2.9-5.09-5.61-8.81-5.61a7.19,7.19,0,0,0,0,14.39ZM53.81,29.63a5.19,5.19,0,0,1,0,10.39c-2.93,0-5.18-2.46-7.5-5.22C48.61,32.05,50.87,29.63,53.81,29.63Zm-17.61,0c2.94,0,5.19,2.42,7.5,5.17C41.38,37.56,39.12,40,36.19,40a5.19,5.19,0,0,1,0-10.39Z"/></g></g></g></g></svg>