<svg xmlns="http://www.w3.org/2000/svg" viewBox="0 0 90 90"><defs><style>.cls-1{fill:#cfcdcc;}.cls-2{fill:#e5e6e5;}.cls-3{fill:#999797;}.cls-4{fill:#be5e50;}.cls-5{fill:#bdbbba;}.cls-6{fill:#94c3cb;}.cls-7{fill:#2a373e;}</style></defs><title>shapes</title><g id="shapes"><g id="shapes-2" data-name="shapes"><circle id="label" class="cls-1" cx="45" cy="45" r="45"/><g id="shapes-3" data-name="shapes"><g id="fill"><rect class="cls-2" x="22" y="22" width="46" height="46"/><path class="cls-3" d="M64.71,26.57v1h-1v-1Zm-1,6.14h1v-1h-1Zm0,5.12h1v-1h-1Zm0,5.12h1v-1h-1Zm0,5.12h1V47h-1Zm0,5.12h1v-1h-1Zm0,5.12h1v-1h-1Zm0,5.12h1v-1h-1ZM59.85,24v1h1V24h-1Zm0,5.12v1h1v-1h-1ZM56,27.59h1v-1H56Zm3.84,6.66v1h1v-1h-1ZM56,32.71h1v-1H56Zm3.84,6.66v1h1v-1h-1ZM56,37.83h1v-1H56Zm3.84,6.66v1h1v-1h-1ZM56,43h1v-1H56Zm3.84,6.66v1h1v-1h-1ZM56,48.07h1V47H56Zm3.84,6.66v1h1v-1h-1ZM56,53.19h1v-1H56Zm3.84,6.66v1h1v-1h-1ZM56,58.31h1v-1H56ZM59.85,65v1h1V65h-1ZM56,63.43h1v-1H56ZM52.17,24v1h1V24h-1Zm0,5.12v1h1v-1h-1Zm-3.84-1.54h1v-1h-1Zm3.84,6.66v1h1v-1h-1Zm-3.84-1.54h1v-1h-1Zm3.84,6.66v1h1v-1h-1Zm-3.84-1.54h1v-1h-1Zm3.84,6.66v1h1v-1h-1ZM48.33,43h1v-1h-1Zm3.84,6.66v1h1v-1h-1Zm-3.84-1.54h1V47h-1Zm3.84,6.66v1h1v-1h-1Zm-3.84-1.54h1v-1h-1Zm3.84,6.66v1h1v-1h-1Zm-3.84-1.54h1v-1h-1ZM52.17,65v1h1V65h-1Zm-3.84-1.54h1v-1h-1ZM44.49,24v1h1V24h-1Zm0,5.12v1h1v-1h-1Zm-3.84-1.54h1v-1h-1Zm3.84,6.66v1h1v-1h-1Zm-3.84-1.54h1v-1h-1Zm3.84,6.66v1h1v-1h-1Zm-3.84-1.54h1v-1h-1Zm3.84,6.66v1h1v-1h-1ZM40.65,43h1v-1h-1Zm3.84,6.66v1h1v-1h-1Zm-3.84-1.54h1V47h-1Zm3.84,6.66v1h1v-1h-1Zm-3.84-1.54h1v-1h-1Zm3.84,6.66v1h1v-1h-1Zm-3.84-1.54h1v-1h-1ZM44.49,65v1h1V65h-1Zm-3.84-1.54h1v-1h-1ZM36.81,24v1h1V24h-1Zm0,5.12v1h1v-1h-1ZM33,27.59h1v-1H33Zm3.84,6.66v1h1v-1h-1ZM33,32.71h1v-1H33Zm3.84,6.66v1h1v-1h-1ZM33,37.83h1v-1H33Zm3.84,6.66v1h1v-1h-1ZM33,43h1v-1H33Zm3.84,6.66v1h1v-1h-1ZM33,48.07h1V47H33Zm3.84,6.66v1h1v-1h-1ZM33,53.19h1v-1H33Zm3.84,6.66v1h1v-1h-1ZM33,58.31h1v-1H33ZM36.81,65v1h1V65h-1ZM33,63.43h1v-1H33ZM29.13,24v1h1V24h-1Zm0,5.12v1h1v-1h-1Zm-3.84-1.54h1v-1h-1Zm3.84,6.66v1h1v-1h-1Zm-3.84-1.54h1v-1h-1Zm3.84,6.66v1h1v-1h-1Zm-3.84-1.54h1v-1h-1Zm3.84,6.66v1h1v-1h-1ZM25.29,43h1v-1h-1Zm3.84,6.66v1h1v-1h-1Zm-3.84-1.54h1V47h-1Zm3.84,6.66v1h1v-1h-1Zm-3.84-1.54h1v-1h-1Zm3.84,6.66v1h1v-1h-1Zm-3.84-1.54h1v-1h-1ZM29.13,65v1h1V65h-1Zm-3.84-1.54h1v-1h-1Z"/><polygon class="cls-4" points="48.73 61.61 61.61 61.61 55.17 48.73 48.73 61.61"/><polygon class="cls-3" points="30.62 61.61 38.77 61.61 41.27 54.48 34.83 48.73 28.39 54.53 30.62 61.61"/><path class="cls-5" d="M48.73,34.83a6.44,6.44,0,1,0,6.44-6.44,6.44,6.44,0,0,0-6.44,6.44"/><rect class="cls-6" x="28.39" y="28.39" width="12.88" height="12.88"/></g><g id="outline"><path class="cls-7" d="M68,21H22a1,1,0,0,0-1,1V68a1,1,0,0,0,1,1H68a1,1,0,0,0,1-1V22A1,1,0,0,0,68,21ZM67,67H23V23H67Z"/><path class="cls-7" d="M56.07,48.28a1,1,0,0,0-1.79,0L47.83,61.16a1,1,0,0,0,.89,1.45H61.61a1,1,0,0,0,.89-1.45ZM50.35,60.61,55.17,51,60,60.61Z"/><path class="cls-7" d="M29.67,61.91a1,1,0,0,0,1,.7h8.15a1,1,0,0,0,.94-.67l2.49-7.13a1,1,0,0,0-.28-1.08L35.49,48a1,1,0,0,0-1.33,0l-6.44,5.8a1,1,0,0,0-.28,1Zm5.16-11.84,5.27,4.71-2,5.83H31.36l-1.82-5.76Z"/><path class="cls-7" d="M55.17,42.27a7.44,7.44,0,1,0-7.44-7.44A7.45,7.45,0,0,0,55.17,42.27Zm0-12.88a5.44,5.44,0,1,1-5.44,5.44A5.45,5.45,0,0,1,55.17,29.39Z"/><path class="cls-7" d="M28.39,42.27H41.27a1,1,0,0,0,1-1V28.39a1,1,0,0,0-1-1H28.39a1,1,0,0,0-1,1V41.27A1,1,0,0,0,28.39,42.27Zm1-12.88H40.27V40.27H29.39Z"/></g></g></g></g></svg>