<svg xmlns="http://www.w3.org/2000/svg" viewBox="0 0 90 90"><defs><style>.cls-1{fill:#cfcdcc;}.cls-2{fill:#be5e50;}.cls-3{fill:#d8d6d5;}.cls-4{fill:#2a373e;}.cls-5{fill:#94c3cb;}.cls-6{fill:#bdbbba;}.cls-7{fill:#e5e6e5;}</style></defs><title>smartphone-design</title><g id="smartphone-design"><g id="smartphone-design-2" data-name="smartphone-design"><circle id="label" class="cls-1" cx="45" cy="45" r="45"/><g id="smartphone-design-3" data-name="smartphone-design"><g id="fill"><path class="cls-2" d="M33.46,59.86l2.09,8.35a1,1,0,0,0,1,.79h16.7a1,1,0,0,0,1-.79l2.09-8.35"/><rect class="cls-3" x="57.96" y="40.83" width="4.17" height="8.35"/><path class="cls-2" d="M56.36,30.14l-2.09-8.35a1,1,0,0,0-1-.79H36.57a1,1,0,0,0-1,.79l-2.09,8.35"/><path class="cls-4" d="M54.5,61.75v-1h1v1Zm.33,1h-1v1h.78l.22-.46Zm-2.33-1h1v-1h-1Zm-2,0h1v-1h-1Zm-2,0h1v-1h-1Zm4.33,1h-1v1h1Zm-2,0h-1v1h1Zm-2,0h-1v1h1Zm-2.33-1h1v-1h-1Zm-2,0h1v-1h-1Zm-2,0h1v-1h-1Zm4.33,1h-1v1h1Zm-2,0h-1v1h1Zm-2,0h-1v1h1Zm-2.33-1h1v-1h-1Zm-2,0h1v-1h-1Zm-2,0h1v-1h-1Zm4.33,1h-1v1h1Zm-2,0h-1v1h1Zm-2,0h-1v1h1Zm-2.33-1h1v-1h-1Z"/><path class="cls-4" d="M55.5,28.25v1h-1v-1Zm-.67-1.54-.22-.46h-.78v1h1ZM52.5,29.25h1v-1h-1Zm-2,0h1v-1h-1Zm-2,0h1v-1h-1Zm4.33-3h-1v1h1Zm-2,0h-1v1h1Zm-2,0h-1v1h1Zm-2.33,3h1v-1h-1Zm-2,0h1v-1h-1Zm-2,0h1v-1h-1Zm4.33-3h-1v1h1Zm-2,0h-1v1h1Zm-2,0h-1v1h1Zm-2.33,3h1v-1h-1Zm-2,0h1v-1h-1Zm-2,0h1v-1h-1Zm4.33-3h-1v1h1Zm-2,0h-1v1h1Zm-2,0h-1v1h1Zm-2.33,3h1v-1h-1Z"/><rect class="cls-5" x="31.87" y="30.91" width="26.09" height="28.17"/><path class="cls-6" d="M46.78,47.75l2.5-1.5s5.62-3.13,5.62-5c0-.63-3.75-4.37-4.37-4.37-1.88,0-5,5.62-5,5.62L44,45"/><path class="cls-7" d="M43,45c-3.81,0-3.26,4.37-6.25,4.37a2.91,2.91,0,0,1-1.88-.63,5.74,5.74,0,0,0,5.62,4.37c3.47,0,6.25-1.43,6.25-4.37A3.72,3.72,0,0,0,43,45"/></g><g id="outline"><path class="cls-4" d="M62.13,39.83H59V30.91a1,1,0,0,0-1-1h-.62s0,0,0,0l-2.09-8.35a2,2,0,0,0-2-1.54H36.57a2,2,0,0,0-2,1.55L32.5,29.9s0,0,0,0h-.62a1,1,0,0,0-1,1V59.09a1,1,0,0,0,1,1h.62s0,0,0,0l2.09,8.35a2,2,0,0,0,2,1.55h16.7a2,2,0,0,0,2-1.55l2.09-8.35s0,0,0,0H58a1,1,0,0,0,1-1V50.17h3.17a1,1,0,0,0,1-1V40.83A1,1,0,0,0,62.13,39.83ZM32.87,58.09V31.91H57V58.09ZM36.57,22,53.3,22l2,7.88H34.55Zm16.7,46L36.52,68l-2-7.88H55.27Zm7.87-19.83H59V41.83h2.17Z"/><path class="cls-4" d="M50.54,35.88c-2.22,0-4.85,4.29-5.85,6.11L43.45,44c-.14,0-.27,0-.41,0-2.56,0-3.62,1.64-4.4,2.84s-1.06,1.53-1.85,1.53a2,2,0,0,1-1.2-.36,1,1,0,0,0-1.65,1,6.69,6.69,0,0,0,6.6,5.16c4.4,0,7.25-2.11,7.25-5.37,0-.14,0-.27,0-.41l2-1.22c1.85-1,6.14-3.65,6.14-5.87C55.91,40.1,51.69,35.88,50.54,35.88Zm-10,16.24a4.5,4.5,0,0,1-3.73-1.75c1.93,0,2.81-1.36,3.51-2.45S41.63,46,43,46a2.72,2.72,0,0,1,2.75,2.75C45.79,51.24,43.07,52.12,40.54,52.12Zm8.24-6.73-1.63,1a4.62,4.62,0,0,0-1.72-1.73l1-1.66c1.38-2.49,3.21-4.8,4-5.08a20.58,20.58,0,0,1,3.47,3.47C53.6,42.16,51.29,44,48.77,45.39Z"/></g></g></g></g></svg>