<svg xmlns="http://www.w3.org/2000/svg" viewBox="0 0 90 90"><defs><style>.cls-1{fill:#cfcdcc;}.cls-2{fill:#94c3cb;}.cls-3{fill:#e5e6e5;}.cls-4{fill:#be5e50;}.cls-5{fill:#2a373e;}.cls-6{fill:#999797;}.cls-7{fill:#eff0ef;}</style></defs><title>spray-paint</title><g id="spray-paint"><g id="spray-paint-2" data-name="spray-paint"><circle id="label" class="cls-1" cx="45" cy="45" r="45"/><g id="spray-paint-3" data-name="spray-paint"><g id="fill"><path class="cls-2" d="M33.79,41.81c0-4.71,4.21-8.52,9.4-8.52h1.88c5.2,0,9.4,3.81,9.4,8.52"/><rect class="cls-3" x="33.79" y="42.01" width="20.69" height="27.99"/><rect class="cls-4" x="42.1" y="48.09" width="12.17" height="15.82"/><path class="cls-5" d="M51.5,52.5v1h1v-1Zm-1,1v-1h-.17v1Zm2.33-2h1v-1h-1Zm-2,0h1v-1h-1Zm.67,8h1v-1h-1Zm-1,0v-1h-.17v1Zm2.33-2h1v-1h-1Zm-2,0h1v-1h-1Zm1.33-2h1v-1h-1Zm-1.83,0h.83v-1h-.83Zm2.83,5h-1v1h1Zm-2,0h-.83v1h.83Zm-1.67-7h.83v-1H49.5Zm-1-1h-1v1h1Zm.33-1h1v-1h-1Zm1.5,7H49.5v1h.83Zm-1.83,0h-1v1h1Zm1.33-2h-1v1h1Zm.33-2v1h.17v-1Zm-1,0h-1v1h1Zm1,6v1h.17v-1Zm-1,0h-1v1h1Z"/><polyline class="cls-6" points="41.09 32.27 41.09 26.19 47.17 26.19 47.17 32.27"/></g><g id="outline"><path class="cls-7" d="M64.21,28.13H59.07a1,1,0,0,0,0,2h5.14a1,1,0,0,0,0-2Z"/><path class="cls-7" d="M56.65,25.84a1,1,0,0,0,.71-.29l4.84-4.84a1,1,0,0,0-1.41-1.41l-4.84,4.84a1,1,0,0,0,.71,1.71Z"/><path class="cls-7" d="M57.36,32.7a1,1,0,0,0-1.41,1.41L60.79,39a1,1,0,0,0,1.41-1.41Z"/><path class="cls-5" d="M55.48,41.81a9.68,9.68,0,0,0-7.4-9.11,1,1,0,0,0,.1-.42V26.19a1,1,0,0,0-1-1H41.09a1,1,0,0,0-1,1v6.08a1,1,0,0,0,.1.42,9.68,9.68,0,0,0-7.4,9.11.93.93,0,0,0,0,.1.93.93,0,0,0,0,.1V70a1,1,0,0,0,1,1H54.48a1,1,0,0,0,1-1V42a.93.93,0,0,0,0-.1A.93.93,0,0,0,55.48,41.81Zm-2,21.11H43.1V49.09H53.48ZM42.09,32.28V27.19h4.08v5.08s0,0,0,.07c-.37,0-.74-.06-1.12-.06H43.19c-.38,0-.75,0-1.11.06C42.08,32.32,42.09,32.3,42.09,32.28Zm1.1,2h1.88c4.33,0,7.91,2.95,8.36,6.72H34.84C35.28,37.24,38.86,34.29,43.19,34.29ZM34.79,69V43H53.48v4.08H42.1a1,1,0,0,0-1,1V63.92a1,1,0,0,0,1,1H53.48V69Z"/></g></g></g></g></svg>