<svg xmlns="http://www.w3.org/2000/svg" viewBox="0 0 90 90"><defs><style>.cls-1{fill:#cfcdcc;}.cls-2{fill:#2a373e;}.cls-3{fill:#e5e6e5;}.cls-4{fill:#be5e50;}.cls-5{fill:#94c3cb;}</style></defs><title>transform</title><g id="transform"><g id="transform-2" data-name="transform"><circle id="label" class="cls-1" cx="45" cy="45" r="45"/><g id="transform-3" data-name="transform"><g id="fill"><path class="cls-2" d="M56.41,29.79v-.51h.51v.51Zm0,4.56v.51h.51v-.51Zm3.29-2.53v1h1v-1ZM56.41,30.3h.51v-.51h-.51Zm0,9.12v.51h.51v-.51Zm3.29-2.53v1h1v-1Zm-3.29-1.52h.51v-.51h-.51Zm0,9.12V45h.51v-.51ZM59.7,42v1h1V42Zm-3.29-1.52h.51v-.51h-.51Zm0,9.12v.51h.51v-.51ZM59.7,47v1h1V47Zm-3.29-1.52h.51V45h-.51Zm0,9.12v.51h.51v-.51ZM59.7,52.1v1h1v-1Zm-3.29-1.52h.51v-.51h-.51Zm.51,9.63V59.7h-.51v.51Zm2.79-3v1h1v-1Zm-3.29-1.52h.51v-.51h-.51Zm0,4.56v.51h.51v-.51Zm0-30.41v-.51H55.9v.51Zm-7.1,0v-.51H48.8v.51Zm7.1,4.56H55.9v.51h.51Zm-7.1.51v-.51H48.8v.51Zm6.59-5.07v.51h.51v-.51Zm-2.79,2h-1v1h1ZM48.8,30.3h.51v-.51H48.8Zm7.6,9.12H55.9v.51h.51Zm-7.6,0v.51h.51v-.51Zm7.1-4.56v.51h.51v-.51Zm-3.8,3h1v-1h-1ZM48.8,35.37h.51v-.51H48.8Zm7.6,9.12H55.9V45h.51Zm-7.6,0V45h.51v-.51Zm7.1-4.56v.51h.51v-.51Zm-3.8,3h1V42h-1ZM48.8,40.44h.51v-.51H48.8Zm7.6,9.12H55.9v.51h.51Zm-7.1.51v-.51H48.8v.51ZM55.9,45v.51h.51V45Zm-3.8,3h1V47h-1ZM48.8,45.51h.51V45H48.8Zm7.6,9.12H55.9v.51h.51Zm-7.6,0v.51h.51v-.51Zm7.1-4.56v.51h.51v-.51Zm-2.79,3v-1h-1v1ZM48.8,50.58h.51v-.51H48.8Zm7.6,9.12H55.9v.51h.51Zm-7.1.51V59.7H48.8v.51Zm6.59-5.07v.51h.51v-.51Zm-3.8,3h1v-1h-1ZM48.8,55.65h.51v-.51H48.8Zm7.1,4.56v.51h.51v-.51Zm-7.1,0v.51h.51v-.51Zm0-30.41v-.51h-.51v.51Zm-7.1,0v-.51H41.2v.51Zm7.1,4.56h-.51v.51h.51Zm-7.1.51v-.51H41.2v.51Zm6.59-5.07v.51h.51v-.51Zm-2.79,2h-1v1h1ZM41.2,30.3h.51v-.51H41.2Zm7.6,9.12h-.51v.51h.51Zm-7.1.51v-.51H41.2v.51Zm7.1-4.56v-.51h-.51v.51Zm-4.31,1.52v1h1v-1ZM41.2,35.37h.51v-.51H41.2Zm7.6,9.12h-.51V45h.51Zm-7.1.51v-.51H41.2V45Zm6.59-5.07v.51h.51v-.51Zm-2.79,2h-1v1h1ZM41.2,40.44h.51v-.51H41.2Zm7.6,9.12h-.51v.51h.51Zm-7.1.51v-.51H41.2v.51ZM48.29,45v.51h.51V45Zm-2.79,2h-1v1h1ZM41.2,45.51h.51V45H41.2Zm7.6,9.12h-.51v.51h.51Zm-7.6,0v.51h.51v-.51Zm7.6-4.56h-.51v.51h.51Zm-3.29,3v-1h-1v1ZM41.2,50.58h.51v-.51H41.2Zm7.6,9.12h-.51v.51h.51Zm-7.1.51V59.7H41.2v.51Zm6.59-5.07v.51h.51v-.51Zm-3.8,3h1v-1h-1ZM41.2,55.65h.51v-.51H41.2Zm7.1,4.56v.51h.51v-.51Zm-7.1,0v.51h.51v-.51Zm0-30.41v-.51h-.51v.51Zm-7.1,0v-.51h-.51v.51Zm7.1,4.56h-.51v.51h.51Zm-7.1.51v-.51h-.51v.51Zm6.59-5.07v.51h.51v-.51Zm-2.79,2h-1v1h1ZM33.59,30.3h.51v-.51h-.51Zm7.6,9.12h-.51v.51h.51Zm-7.1.51v-.51h-.51v.51Zm7.1-4.56v-.51h-.51v.51ZM37.9,36.89h-1v1h1Zm-4.31-1.52h.51v-.51h-.51Zm7.6,9.12h-.51V45h.51ZM34.1,45v-.51h-.51V45Zm7.1-4.56v-.51h-.51v.51ZM37.9,42h-1v1h1Zm-4.31-1.52h.51v-.51h-.51Zm7.6,9.12h-.51v.51h.51Zm-7.1.51v-.51h-.51v.51Zm7.1-4.56V45h-.51v.51ZM37.9,47h-1v1h1Zm-4.31-1.52h.51V45h-.51Zm7.6,9.12h-.51v.51h.51Zm-7.1.51v-.51h-.51v.51Zm7.1-4.56v-.51h-.51v.51ZM37.9,52.1h-1v1h1Zm-4.31-1.52h.51v-.51h-.51Zm7.6,9.12h-.51v.51h.51Zm-7.1.51V59.7h-.51v.51Zm6.59-5.07v.51h.51v-.51Zm-3.8,3h1v-1h-1Zm-3.29-2.53h.51v-.51h-.51Zm7.1,4.56v.51h.51v-.51Zm-7.1,0v.51h.51v-.51Zm0-30.92h-.51v.51h.51Zm0,5.07h-.51v.51h.51Zm0-4.06v-.51h-.51v.51ZM30.3,32.83v-1h-1v1Zm3.29,6.59h-.51v.51h.51Zm0-4.06v-.51h-.51v.51ZM30.3,37.9v-1h-1v1Zm3.29,6.59h-.51V45h.51Zm0-4.06v-.51h-.51v.51ZM30.3,43V42h-1v1Zm3.29,6.59h-.51v.51h.51Zm0-4.06V45h-.51v.51ZM30.3,48V47h-1v1Zm3.29,6.59h-.51v.51h.51Zm0-4.06v-.51h-.51v.51ZM30.3,53.11v-1h-1v1Zm3.29,6.59h-.51v.51h.51Zm0-4.06v-.51h-.51v.51ZM30.3,58.18v-1h-1v1Zm2.79,2v.51h.51v-.51Z"/><rect class="cls-3" x="23" y="23" width="6.77" height="6.77"/><rect class="cls-4" x="41.62" y="23" width="6.77" height="6.77"/><rect class="cls-3" x="60.23" y="23" width="6.77" height="6.77"/><rect class="cls-3" x="23" y="60.23" width="6.77" height="6.77"/><rect class="cls-4" x="41.62" y="60.23" width="6.77" height="6.77"/><rect class="cls-5" x="23" y="41.62" width="6.77" height="6.77"/><rect class="cls-5" x="60.23" y="41.62" width="6.77" height="6.77"/><rect class="cls-3" x="60.23" y="60.23" width="6.77" height="6.77"/></g><path id="outline" class="cls-2" d="M67,30.77a1,1,0,0,0,1-1V23a1,1,0,0,0-1-1H60.23a1,1,0,0,0-1,1v2.38H49.38V23a1,1,0,0,0-1-1H41.62a1,1,0,0,0-1,1v2.38H30.77V23a1,1,0,0,0-1-1H23a1,1,0,0,0-1,1v6.77a1,1,0,0,0,1,1h2.38v9.85H23a1,1,0,0,0-1,1v6.77a1,1,0,0,0,1,1h2.38v9.85H23a1,1,0,0,0-1,1V67a1,1,0,0,0,1,1h6.77a1,1,0,0,0,1-1V64.62h9.85V67a1,1,0,0,0,1,1h6.77a1,1,0,0,0,1-1V64.62h9.85V67a1,1,0,0,0,1,1H67a1,1,0,0,0,1-1V60.23a1,1,0,0,0-1-1H64.62V49.39H67a1,1,0,0,0,1-1V41.62a1,1,0,0,0-1-1H64.62V30.77ZM61.23,24H66v4.77H61.23ZM42.62,24h4.77v4.77H42.62ZM24,24h4.77v4.77H24Zm0,18.62h4.77v4.77H24ZM28.77,66H24V61.23h4.77Zm18.61,0H42.62V61.23h4.77ZM66,66H61.23V61.23H66Zm0-18.61H61.23V42.62H66Zm-3.38-6.77H60.23a1,1,0,0,0-1,1v6.77a1,1,0,0,0,1,1h2.38v9.85H60.23a1,1,0,0,0-1,1v2.39H49.38V60.23a1,1,0,0,0-1-1H41.62a1,1,0,0,0-1,1v2.39H30.77V60.23a1,1,0,0,0-1-1H27.38V49.39h2.39a1,1,0,0,0,1-1V41.62a1,1,0,0,0-1-1H27.38V30.77h2.39a1,1,0,0,0,1-1V27.38h9.85v2.39a1,1,0,0,0,1,1h6.77a1,1,0,0,0,1-1V27.38h9.85v2.39a1,1,0,0,0,1,1h2.38Z"/></g></g></g></svg>