<svg xmlns="http://www.w3.org/2000/svg" viewBox="0 0 90 90"><defs><style>.cls-1{fill:#be5e50;}.cls-2{fill:#e5e6e5;}.cls-3{fill:#94c3cb;}.cls-4{fill:#bdbbba;}.cls-5{fill:#2a373e;}</style></defs><title>transform-tool-triangle</title><g id="transform-tool-triangle"><g id="transform-tool-triangle-2" data-name="transform-tool-triangle"><circle id="label" class="cls-1" cx="45" cy="45" r="45"/><g id="transform-tool-triangle-3" data-name="transform-tool-triangle"><g id="fill"><polygon class="cls-2" points="40.64 24.27 49.37 24.27 49.37 33 46.34 33 40.64 33 40.64 24.27"/><rect class="cls-3" x="60.27" y="57" width="8.73" height="8.73"/><rect class="cls-4" x="21" y="57" width="8.73" height="8.73"/><path class="cls-5" d="M56.74,54.91h.52v.52h-.52Zm3.39,3.65h1v-.15l-.57-.9h-.47ZM56.74,56h.52v-.52h-.52ZM48.91,39.78h.4L49,39.26h-.07ZM49.43,45v-.52h-.52V45Zm-.52-4.7h.52V40l-.12-.19h-.4Zm0,9.39v.52h.52V49.7Zm3.39-1.57h1v-1h-1Zm-3.39-2.61h.52V45h-.52Zm7.83,9.39h-.52v.52h.52Zm-7.3.52v-.52h-.52v.52Zm6.85-4.7-.07-.11v.11Zm-4,2.61h1v-1h-1Zm-3.39-2.61h.52v-.52h-.52Zm7.3,4.7V56h.52v-.52ZM52.3,58.57h1v-1h-1Zm-3.39-3.13V56h.52v-.52Zm0-16.17h-.52v.52h.52Zm-7.3.52v-.52h-.52v.52Zm2.87-3.13v1h1v-1ZM48.39,45h.52v-.52h-.52Zm-6.78,0v-.52h-.52V45Zm6.78-5.22v.52h.52v-.52Zm-3.91,2.09v1h1v-1ZM41.09,40.3h.52v-.52h-.52Zm7.83,9.39h-.52v.52h.52Zm-7.3.52V49.7h-.52v.52ZM48.39,45v.52h.52V45Zm-2.87,2.09h-1v1h1Zm-4.43-1.57h.52V45h-.52Zm7.83,9.39h-.52v.52h.52Zm-7.3.52v-.52h-.52v.52Zm6.78-5.22v.52h.52v-.52Zm-3.91,3.13h1v-1h-1Zm-3.39-2.61h.52v-.52h-.52Zm7.3,4.7V56h.52v-.52Zm-3.91,3.13h1v-1h-1Zm-3.39-3.13V56h.52v-.52Zm0-16.17H41l-.33.52h.4Zm0,5.22h-.52V45h.52Zm0-4.17v-.52h-.4l-.12.19v.34Zm0,9.39h-.52v.52h.52Zm0-4.17V45h-.52v.52ZM37.7,47.09h-1v1h1Zm3.39,7.83h-.52v.52h.52Zm-7.3.52v-.52h-.52v.52Zm7.3-4.7v-.52h-.52v.52Zm-4.43,2.61h1v-1h-1Zm-2.87-2.72-.07.11h.07Zm6.78,4.81V56h.52v-.52Zm-3.91,3.13h1v-1h-1Zm-3.39-3.13V56h.52v-.52Zm0-.52h-.52v.52h.52Zm-.52.52V56h.52v-.52Zm-2.87,3.13v-1H29.4l-.57.9v.15Z"/></g><path id="outline" class="cls-5" d="M69,56H61.31L48.11,34h1.25a1,1,0,0,0,1-1V24.27a1,1,0,0,0-1-1H40.64a1,1,0,0,0-1,1V33a1,1,0,0,0,1,1h1.25L28.69,56H21a1,1,0,0,0-1,1v8.73a1,1,0,0,0,1,1h8.73a1,1,0,0,0,1-1V61.27H59.27v4.46a1,1,0,0,0,1,1H69a1,1,0,0,0,1-1V57A1,1,0,0,0,69,56ZM41.64,25.27h6.73V32H41.64ZM22,64.73V58h6.73v2.27h0v4.45Zm8.73-5.46V57a1,1,0,0,0-.08-.38L44.22,34h1.56L59.35,56.61a1,1,0,0,0-.08.39v2.27ZM68,64.73H61.27V60.27h0V58H68Z"/></g></g></g></svg>