<svg xmlns="http://www.w3.org/2000/svg" viewBox="0 0 90 90"><defs><style>.cls-1{fill:#94c3cb;}.cls-2{fill:#e5e6e5;}.cls-3{fill:#cfcdcc;}.cls-4{fill:#999797;}.cls-5{fill:#be5e50;}.cls-6{fill:#2a373e;}</style></defs><title>transform-tool-round</title><g id="transform-tool-round"><g id="transform-tool-round-2" data-name="transform-tool-round"><circle id="label" class="cls-1" cx="45" cy="45" r="45"/><g id="transform-tool-round-3" data-name="transform-tool-round"><g id="fill"><rect class="cls-2" x="40.4" y="22" width="9.2" height="9.2"/><rect class="cls-3" x="22" y="40.4" width="9.2" height="9.2"/><rect class="cls-4" x="58.8" y="40.4" width="9.2" height="9.2"/><rect class="cls-5" x="40.4" y="58.8" width="9.2" height="9.2"/></g><path id="outline" class="cls-6" d="M68,39.4H64.09A19.82,19.82,0,0,0,50.6,25.91V22a1,1,0,0,0-1-1H40.4a1,1,0,0,0-1,1v3.91A19.91,19.91,0,0,0,25.91,39.4H22a1,1,0,0,0-1,1v9.2a1,1,0,0,0,1,1h3.76A19.18,19.18,0,0,0,39.4,64.09V68a1,1,0,0,0,1,1h9.2a1,1,0,0,0,1-1V64.09A19.92,19.92,0,0,0,64.09,50.6H68a1,1,0,0,0,1-1V40.4A1,1,0,0,0,68,39.4ZM41.4,23h7.2v3.7a1,1,0,0,0,0,.13V30.2H41.4ZM23,41.4h7.2v7.2H23ZM48.6,67H41.4V59.8h7.2Zm2-5V58.8a1,1,0,0,0-1-1H40.4a1,1,0,0,0-1,1V62A17.19,17.19,0,0,1,27.84,50.6H31.2a1,1,0,0,0,1-1V40.4a1,1,0,0,0-1-1H28A17.92,17.92,0,0,1,39.4,28V31.2a1,1,0,0,0,1,1h9.2a1,1,0,0,0,1-1V28A17.84,17.84,0,0,1,62,39.4H58.8a1,1,0,0,0-1,1v9.2a1,1,0,0,0,1,1H62A17.93,17.93,0,0,1,50.6,62ZM67,48.6H59.8V41.4H67Z"/></g></g></g></svg>