<svg xmlns="http://www.w3.org/2000/svg" viewBox="0 0 90 90"><defs><style>.cls-1{fill:#be5e50;}.cls-2{fill:#94c3cb;}.cls-3{fill:#bdbbba;}.cls-4{fill:#e5e6e5;}.cls-5{fill:#2a373e;}</style></defs><title>vector-direct-selection</title><g id="vector-direct-selection"><g id="vector-direct-selection-2" data-name="vector-direct-selection"><circle id="label" class="cls-1" cx="45" cy="45" r="45"/><g id="vector-direct-selection-3" data-name="vector-direct-selection"><g id="fill"><circle class="cls-2" cx="25.8" cy="33.51" r="4.8"/><circle class="cls-2" cx="64.2" cy="33.51" r="4.8"/><rect class="cls-3" x="40.33" y="28.84" width="9.33" height="9.33"/><path class="cls-4" d="M48.5,37.5h1v-1h-1Zm-2,0h1v-1h-1Zm2.33-3h-1v1h1Zm-2,0H46v1h.83Zm-2.33,3h1v-1h-1Zm-2,0h1v-1h-1Zm-2,0h1v-1h-1Zm5.33-3v1H46v-1Zm-1,0h-1v1h1Zm-2,0h-1v1h1Zm-2,0h-.5v1h.5Z"/><polygon class="cls-3" points="45 58.54 51.67 61.29 45 45.2 38.33 61.29 45 58.54"/></g><g id="outline"><path class="cls-4" d="M50.07,34.79a1,1,0,0,0-.53,1.93,16.39,16.39,0,0,1,12.07,16v1.6a1,1,0,0,0,2,0v-1.6A18.37,18.37,0,0,0,50.07,34.79Z"/><path class="cls-4" d="M39.93,34.79A18.68,18.68,0,0,0,26.4,52.71v1.6a1,1,0,0,0,2,0v-1.6a16.67,16.67,0,0,1,12.07-16,1,1,0,1,0-.54-1.92Z"/><path class="cls-5" d="M64.2,27.71a5.81,5.81,0,0,0-5.71,4.8H50.67V28.84a1,1,0,0,0-1-1H40.33a1,1,0,0,0-1,1v3.67H31.51a5.8,5.8,0,1,0,0,2h7.83v3.67a1,1,0,0,0,1,1h9.33a1,1,0,0,0,1-1V34.51h7.83a5.8,5.8,0,1,0,5.71-6.8Zm-38.4,9.6a3.8,3.8,0,1,1,3.8-3.8A3.8,3.8,0,0,1,25.8,37.31Zm22.87-.13H41.33V29.84h7.33Zm15.53.13a3.8,3.8,0,1,1,3.8-3.8A3.8,3.8,0,0,1,64.2,37.31Z"/><path class="cls-5" d="M45.92,44.82a1,1,0,0,0-1.85,0L37.41,60.91a1,1,0,0,0,1.31,1.31L45,59.62l6.29,2.59a1,1,0,0,0,1.31-1.31Zm-.54,12.79a1,1,0,0,0-.76,0l-4.44,1.83L45,47.82l4.82,11.63Z"/></g></g></g></g></svg>