<svg xmlns="http://www.w3.org/2000/svg" viewBox="0 0 90 90"><defs><style>.cls-1{fill:#be5e50;}.cls-2{fill:#d8d6d5;}.cls-3{fill:#94c3cb;}.cls-4{fill:#e5e6e5;}.cls-5{fill:#bdbbba;}.cls-6{fill:#999797;}.cls-7{fill:#2a373e;}</style></defs><title>web-design</title><g id="web-design"><circle id="label" class="cls-1" cx="45" cy="45" r="45"/><g id="web-design-2" data-name="web-design"><g id="fill"><path class="cls-2" d="M62.41,59.78H24.89A1.89,1.89,0,0,1,23,57.9V57H64.29v.92A1.89,1.89,0,0,1,62.41,59.78Z"/><rect class="cls-3" x="22" y="27.11" width="43.29" height="28.86" rx="2" ry="2"/><path class="cls-4" d="M50.43,44.71c-.8.8-3.09,1.29-6,1.29H44c-.06-2.43.32-5.45,1.29-6.42a3.72,3.72,0,0,1,5.13,0,3.63,3.63,0,0,1,0,5.13Z"/><path class="cls-5" d="M51.84,38.16h0a5.61,5.61,0,0,0-1.33-1l1.62-1.62h0A3.47,3.47,0,0,1,54,37l.1.16a3.58,3.58,0,0,1,.31.66v0L52.8,39.49A5.62,5.62,0,0,0,51.84,38.16Z"/><path class="cls-6" d="M66.53,25.76,55.94,36.35c-.08-.16-.19-.3-.28-.45s-.09-.16-.15-.23a5.54,5.54,0,0,0-1.18-1.18l-.22-.14c-.15-.1-.3-.2-.46-.29L64.24,23.47a1.66,1.66,0,0,1,2.29,0h0a1.62,1.62,0,0,1,0,2.29Z"/><path class="cls-7" d="M66.41,24.84v-.25h.25v.25Zm0,.25h.25v-.25h-.25Zm0-.5h-.25v.25h.25Zm-3.5.21,0,0h0Zm1.87-1v-.5H64.4l-.11.09v.41Zm-1.87,3.5v-.25h-.25v.25Zm3.5-2.25v-.25h-.25v.25Zm-2.12.75v.5h.5v-.5Zm-1.37-.75v-.25h0l-.21.21v0Zm-.25,4.54,0,0h0Zm0-2h.25v-.25h-.25Zm0-.5h-.25v.25h.25Zm0-2,0,0h0Zm-.25,4.54v.25h0l.21-.21v0Zm-3.25.25v-.25h-.25v.25Zm3.5-2.25v-.25h-.25v.25Zm-2.12.75v.5H61v-.5Zm-1.37,4v-.25h-.25v.25Zm3.25-2.46,0,0h0Zm-1.87,1v.5h.41l.09-.09v-.41Zm-1.62-.75h.25v-.25h-.25Zm0,2.5h.25v-.25h-.25Zm0-3h-.25v.25h.25Zm0,2.5h-.25v.25h.25Zm-3.5.21,0,0h0Zm3.5-2.21v-.25h-.25v.25Zm-1.62,1.25v-.5h-.42l-.08.08v.42Zm-1.87,3.5v-.25h-.25v.25Zm3.5-2.25v-.25h-.25v.25Zm-2.12.75v.5h.5v-.5Zm-1.37-.75v-.25h0l-.21.21v0Zm-.25,2.5h.25v-.25h-.25Zm0-.5h-.25v.25h.25Zm0-2,0,0h0Zm0,2.29h-.25V35L55,35l0,.06h.15Z"/></g><path id="outline" class="cls-7" d="M69,24.62a3.59,3.59,0,0,0-1.06-2.56h0a3.71,3.71,0,0,0-5.12,0l-4.05,4.05H24.89A3.89,3.89,0,0,0,21,30V57.9a3.89,3.89,0,0,0,3.89,3.89H38.32V67H33.55a1,1,0,0,0,0,2h20.2a1,1,0,0,0,0-2H49V61.78H62.41a3.89,3.89,0,0,0,3.89-3.89V29a.94.94,0,0,0,0-.14l1.67-1.67A3.6,3.6,0,0,0,69,24.62ZM47,67H40.32V61.78H47Zm15.43-7.22H24.89A1.89,1.89,0,0,1,23,57.9V57H64.29v.92A1.89,1.89,0,0,1,62.41,59.78ZM64.29,55H23V30a1.89,1.89,0,0,1,1.89-1.89H56.77l-5.65,5.65-2.8,2.8c-.16,0-.31,0-.47,0a5.59,5.59,0,0,0-4,1.65C42,40,42,44.73,42,46.12L42,47a1,1,0,0,0,1,1l1.43,0c2.06,0,5.77-.24,7.41-1.88a5.6,5.6,0,0,0,1.65-4c0-.16,0-.31,0-.47l2.8-2.79,8.05-8.05ZM54.11,37.19a3.58,3.58,0,0,1,.31.66v0L52.8,39.49a5.62,5.62,0,0,0-1-1.33h0a5.61,5.61,0,0,0-1.33-1l1.62-1.62h0A3.47,3.47,0,0,1,54,37Zm-3.68,2.39a3.63,3.63,0,0,1,0,5.13c-.8.8-3.09,1.29-6,1.29H44c-.06-2.43.32-5.45,1.29-6.42A3.72,3.72,0,0,1,50.43,39.57Zm16.1-13.81L55.94,36.35c-.08-.16-.19-.3-.28-.45s-.09-.16-.15-.23a5.54,5.54,0,0,0-1.18-1.18l-.22-.14c-.15-.1-.3-.2-.46-.29l6.24-6.24h0l4.34-4.34a1.66,1.66,0,0,1,2.29,0h0a1.62,1.62,0,0,1,0,2.29Z"/></g></g></svg>