<?xml version="1.0" encoding="iso-8859-1"?>
<!-- Generator: Adobe Illustrator 19.0.0, SVG Export Plug-In . SVG Version: 6.00 Build 0)  -->
<svg version="1.1" id="Layer_1" xmlns="http://www.w3.org/2000/svg" xmlns:xlink="http://www.w3.org/1999/xlink" x="0px" y="0px"
	 viewBox="0 0 500.34 500.34" style="enable-background:new 0 0 500.34 500.34;" xml:space="preserve">
<polygon style="fill:#ED5B3A;" points="140.34,484 473.94,264 236.34,26.4 16.34,360 "/>
<polygon style="fill:#EADAEA;" points="291.54,131.2 68.34,355.2 57.14,344 246.74,85.6 "/>
<g>
	<path style="fill:#D32A0F;" d="M153.94,471.2c7.2,7.2,8,18.4,1.6,24.8l0,0c-6.4,6.4-17.6,5.6-24.8-1.6L5.94,369.6
		c-7.2-7.2-8-18.4-1.6-24.8l0,0c6.4-6.4,17.6-5.6,24.8,1.6L153.94,471.2z"/>
	<path style="fill:#D32A0F;" d="M490.74,247.2c7.2,7.2,8,18.4,1.6,24.8l0,0c-6.4,6.4-17.6,5.6-24.8-1.6L229.94,32.8
		c-7.2-7.2-8-18.4-1.6-24.8l0,0c6.4-6.4,17.6-5.6,24.8,1.6L490.74,247.2z"/>
	<path style="fill:#D32A0F;" d="M369.14,434.4l-52.8,38.4c-39.2,28.8-94.4,20-123.2-19.2l-4.8-7.2c-28.8-39.2-20-94.4,19.2-123.2
		l52.8-38.4c39.2-28.8,94.4-20,123.2,19.2l4.8,7.2C417.14,350.4,408.34,406.4,369.14,434.4z M227.54,352c-24,16.8-28.8,50.4-12,74.4
		l5.6,7.2c16.8,24,50.4,28.8,74.4,12l52.8-38.4c24-16.8,28.8-50.4,12-74.4l-4.8-7.2c-16.8-24-50.4-28.8-74.4-12L227.54,352z"/>
	<polygon style="fill:#D32A0F;" points="238.74,28 236.34,26.4 229.14,36.8 	"/>
	<polygon style="fill:#D32A0F;" points="89.14,432 140.34,484 473.94,264 365.94,155.2 	"/>
</g>
<g>
	<path style="fill:#F29233;" d="M429.94,138.4c-3.2,0-5.6-4.8-5.6-8l0,0c0-3.2,2.4-8,5.6-8h64.8c3.2,0,5.6,4.8,5.6,8l0,0
		c0,3.2-2.4,8-5.6,8H429.94z"/>
	<path style="fill:#F29233;" d="M429.14,87.2c-2.4,2.4-7.2,0.8-9.6-1.6l0,0c-2.4-2.4-4-7.2-1.6-9.6l45.6-45.6
		c2.4-2.4,7.2-0.8,9.6,1.6l0,0c2.4,2.4,4,7.2,1.6,9.6L429.14,87.2z"/>
	<path style="fill:#F29233;" d="M361.94,70.4c0,3.2,4.8,5.6,8,5.6l0,0c3.2,0,8-2.4,8-5.6V5.6c0-3.2-4.8-5.6-8-5.6l0,0
		c-3.2,0-8,2.4-8,5.6V70.4z"/>
</g>
<g>
</g>
<g>
</g>
<g>
</g>
<g>
</g>
<g>
</g>
<g>
</g>
<g>
</g>
<g>
</g>
<g>
</g>
<g>
</g>
<g>
</g>
<g>
</g>
<g>
</g>
<g>
</g>
<g>
</g>
</svg>
