<?xml version="1.0" encoding="iso-8859-1"?>
<!-- Generator: Adobe Illustrator 19.0.0, SVG Export Plug-In . SVG Version: 6.00 Build 0)  -->
<svg version="1.1" id="Layer_1" xmlns="http://www.w3.org/2000/svg" xmlns:xlink="http://www.w3.org/1999/xlink" x="0px" y="0px"
	 viewBox="0 0 496 496" style="enable-background:new 0 0 496 496;" xml:space="preserve">
<path style="fill:#048FAF;" d="M144,469.6c0,7.2-4,10.4-12,10.4H9.6c-8,0-9.6-3.2-9.6-10.4V26.4C0,19.2,1.6,16,9.6,16h123.2
	c7.2,0,11.2,3.2,11.2,10.4V469.6z"/>
<path style="fill:#09637F;" d="M8,16h124c8,0,12,3.2,12,10.4v442.4c0,7.2-4,10.4-12,10.4H8"/>
<path style="fill:#DAE6EA;" d="M104,276c0,3.2-0.8,4-4,4H44c-4,0-4-0.8-4-4V60c0-4,0.8-4,4-4h55.2c4,0,4.8,0.8,4.8,4V276z"/>
<g>
	<path style="fill:#B2C6CC;" d="M40,60c0-4,0.8-4,4-4h55.2c4,0,4.8,0.8,4.8,4v215.2c0,3.2-0.8,4-4,4"/>
	<path style="fill:#B2C6CC;" d="M103.2,316c0,1.6-1.6,4-3.2,4H41.6c-1.6,0-3.2-2.4-3.2-4l0,0c0-1.6,1.6-4,3.2-4H100
		C101.6,312,103.2,314.4,103.2,316L103.2,316z"/>
	<path style="fill:#B2C6CC;" d="M103.2,340c0,1.6-1.6,4-3.2,4H41.6c-1.6,0-3.2-2.4-3.2-4l0,0c0-1.6,1.6-4,3.2-4H100
		C101.6,336,103.2,338.4,103.2,340L103.2,340z"/>
	<path style="fill:#B2C6CC;" d="M103.2,364c0,1.6-1.6,4-3.2,4H41.6c-1.6,0-3.2-2.4-3.2-4l0,0c0-1.6,1.6-4,3.2-4H100
		C101.6,360,103.2,362.4,103.2,364L103.2,364z"/>
</g>
<circle style="fill:#00233F;" cx="71.2" cy="425.6" r="28.8"/>
<path d="M71.2,396.8c16,0,28.8,12.8,28.8,28.8s-12.8,28.8-28.8,28.8"/>
<path style="fill:#F44D3B;" d="M320,469.6c0,7.2-3.2,10.4-10.4,10.4H186.4c-7.2,0-10.4-3.2-10.4-10.4V26.4c0-7.2,3.2-10.4,10.4-10.4
	h123.2c7.2,0,10.4,3.2,10.4,10.4V469.6z"/>
<path style="fill:#A00D05;" d="M184,16h125.6c7.2,0,10.4,3.2,10.4,10.4v442.4c0,7.2-3.2,10.4-10.4,10.4H184"/>
<g>
	<path style="fill:#B2C6CC;" d="M280,316c0,1.6-1.6,4-3.2,4h-58.4c-1.6,0-3.2-2.4-3.2-4l0,0c0-1.6,1.6-4,3.2-4h58.4
		C279.2,312,280,314.4,280,316L280,316z"/>
	<path style="fill:#B2C6CC;" d="M280,340c0,1.6-1.6,4-3.2,4h-58.4c-1.6,0-3.2-2.4-3.2-4l0,0c0-1.6,1.6-4,3.2-4h58.4
		C279.2,336,280,338.4,280,340L280,340z"/>
	<path style="fill:#B2C6CC;" d="M280,364c0,1.6-1.6,4-3.2,4h-58.4c-1.6,0-3.2-2.4-3.2-4l0,0c0-1.6,1.6-4,3.2-4h58.4
		C279.2,360,280,362.4,280,364L280,364z"/>
</g>
<circle style="fill:#00233F;" cx="248" cy="425.6" r="28.8"/>
<path d="M248,396.8c16,0,28.8,12.8,28.8,28.8S264,454.4,248,454.4"/>
<path style="fill:#DAE6EA;" d="M280,276c0,3.2-0.8,4-4,4h-56c-4,0-4-0.8-4-4V60c0-4,0.8-4,4-4h55.2c4,0,4.8,0.8,4.8,4V276z"/>
<path style="fill:#B2C6CC;" d="M216,60c0-4,0.8-4,4-4h55.2c4,0,4.8,0.8,4.8,4v215.2c0,3.2-0.8,4-4,4"/>
<path style="fill:#23C181;" d="M496,469.6c0,7.2-1.6,10.4-9.6,10.4H364c-7.2,0-12-3.2-12-10.4V26.4c0-7.2,4-10.4,12-10.4h123.2
	c7.2,0,8.8,3.2,8.8,10.4V469.6z"/>
<path style="fill:#007543;" d="M360,16h126.4c8,0,9.6,3.2,9.6,10.4v442.4c0,7.2-1.6,10.4-9.6,10.4H360"/>
<g>
	<path style="fill:#B2C6CC;" d="M457.6,316c0,1.6-1.6,4-3.2,4H396c-1.6,0-3.2-2.4-3.2-4l0,0c0-1.6,1.6-4,3.2-4h58.4
		C456,312,457.6,314.4,457.6,316L457.6,316z"/>
	<path style="fill:#B2C6CC;" d="M457.6,340c0,1.6-1.6,4-3.2,4H396c-1.6,0-3.2-2.4-3.2-4l0,0c0-1.6,1.6-4,3.2-4h58.4
		C456,336,457.6,338.4,457.6,340L457.6,340z"/>
	<path style="fill:#B2C6CC;" d="M457.6,364c0,1.6-1.6,4-3.2,4H396c-1.6,0-3.2-2.4-3.2-4l0,0c0-1.6,1.6-4,3.2-4h58.4
		C456,360,457.6,362.4,457.6,364L457.6,364z"/>
</g>
<circle style="fill:#00233F;" cx="424.8" cy="425.6" r="28.8"/>
<path d="M424.8,396.8c16,0,28.8,12.8,28.8,28.8s-12.8,28.8-28.8,28.8"/>
<path style="fill:#DAE6EA;" d="M456,276c0,3.2-0.8,4-4,4h-56c-4,0-4-0.8-4-4V60c0-4,0.8-4,4-4h55.2c4,0,4.8,0.8,4.8,4V276z"/>
<path style="fill:#B2C6CC;" d="M392,60c0-4,0.8-4,4-4h55.2c4,0,4.8,0.8,4.8,4v215.2c0,3.2-0.8,4-4,4"/>
<g>
</g>
<g>
</g>
<g>
</g>
<g>
</g>
<g>
</g>
<g>
</g>
<g>
</g>
<g>
</g>
<g>
</g>
<g>
</g>
<g>
</g>
<g>
</g>
<g>
</g>
<g>
</g>
<g>
</g>
</svg>
