<?xml version="1.0" encoding="iso-8859-1"?>
<!-- Generator: Adobe Illustrator 19.0.0, SVG Export Plug-In . SVG Version: 6.00 Build 0)  -->
<svg version="1.1" id="Layer_1" xmlns="http://www.w3.org/2000/svg" xmlns:xlink="http://www.w3.org/1999/xlink" x="0px" y="0px"
	 viewBox="0 0 492.8 492.8" style="enable-background:new 0 0 492.8 492.8;" xml:space="preserve">
<rect x="52.8" y="174.7" style="fill:#FFFFFF;" width="32" height="232"/>
<rect x="404.8" y="174.7" style="fill:#DAE6EA;" width="32" height="232"/>
<rect x="60.8" y="174.7" style="fill:#9DAEB2;" width="360" height="232"/>
<polyline style="fill:#738A8E;" points="60.8,174.7 420.8,174.7 420.8,406.7 "/>
<path style="fill:#FFFFFF;" d="M492.8,158.7c0,8.8-7.2,16-16,16H16c-8.8,0-16-7.2-16-16l0,0c0-8.8,8-16,16.8-16h460
	C485.6,142.7,492.8,149.9,492.8,158.7L492.8,158.7z"/>
<path style="fill:#DAE6EA;" d="M492.8,158.7L492.8,158.7c0,8.8-7.2,16-16,16H16c-8.8,0-16-7.2-16-16l0,0"/>
<path style="fill:#FFFFFF;" d="M460.8,422.7c0,8.8-7.2,16-16,16h-392c-8.8,0-16-7.2-16-16l0,0c0-8.8,7.2-16,16-16h392
	C453.6,406.7,460.8,413.9,460.8,422.7L460.8,422.7z"/>
<path style="fill:#DAE6EA;" d="M460.8,422.7L460.8,422.7c0,8.8-7.2,16-16,16h-392c-8.8,0-16-7.2-16-16l0,0"/>
<path style="fill:#FFFFFF;" d="M468.8,454.7c0,8.8-7.2,16-16,16h-424c-8.8,0-16-7.2-16-16l0,0c0-8.8,7.2-16,16-16h424
	C461.6,438.7,468.8,445.9,468.8,454.7L468.8,454.7z"/>
<path style="fill:#DAE6EA;" d="M468.8,454.7L468.8,454.7c0,9.6-6.4,16-16,16h-424c-9.6,0-16-6.4-16-16l0,0"/>
<path style="fill:#FFFFFF;" d="M468,142.7L468,142.7L286.4,39.5c-23.2-23.2-60-23.2-83.2,0L21.6,142.7l0,0H468z"/>
<path style="fill:#DAE6EA;" d="M220.8,142.7H468l0,0L286.4,39.5c-23.2-23.2-59.2-23.2-82.4,0"/>
<path style="fill:#24966A;" d="M236.8,134.7v-12.8c-8,0-12.8-2.4-16.8-4.8l4-12c4.8,2.4,11.2,4.8,17.6,4.8s10.4-2.4,10.4-6.4
	s-3.2-6.4-11.2-9.6c-11.2-4-20.8-8.8-20.8-19.2c0-9.6,8.8-16.8,16.8-19.2V38.7h16v16c8,0,10.4,1.6,13.6,3.2l-4,12
	c-2.4-0.8-8-4-15.2-4c-7.2,0-9.6,3.2-9.6,5.6c0,3.2,4,5.6,12.8,8.8c12.8,4.8,19.2,10.4,19.2,20s-9.6,17.6-17.6,19.2v15.2H236.8z"/>
<rect x="84.8" y="190.7" style="fill:#FFFFFF;" width="40" height="200"/>
<polyline style="fill:#DAE6EA;" points="84.8,190.7 124.8,190.7 124.8,390.7 "/>
<g>
	<path style="fill:#FFFFFF;" d="M132.8,386.7c0,2.4-1.6,4-4,4h-48c-2.4,0-4-1.6-4-4l0,0c0-2.4,1.6-4,4-4h48
		C131.2,382.7,132.8,384.3,132.8,386.7L132.8,386.7z"/>
	<rect x="220.8" y="190.7" style="fill:#FFFFFF;" width="40" height="200"/>
</g>
<polyline style="fill:#DAE6EA;" points="228.8,190.7 260.8,190.7 260.8,390.7 "/>
<g>
	<path style="fill:#FFFFFF;" d="M270.4,386.7c0,2.4-2.4,4-4.8,4H216c-2.4,0-4.8-1.6-4.8-4l0,0c0-2.4,2.4-4,4.8-4h49.6
		C268,382.7,270.4,384.3,270.4,386.7L270.4,386.7z"/>
	<rect x="356.8" y="190.7" style="fill:#FFFFFF;" width="40" height="200"/>
</g>
<polyline style="fill:#DAE6EA;" points="356.8,190.7 396.8,190.7 396.8,390.7 "/>
<path style="fill:#FFFFFF;" d="M404.8,386.7c0,2.4-1.6,4-4,4h-48c-2.4,0-4-1.6-4-4l0,0c0-2.4,1.6-4,4-4h48
	C403.2,382.7,404.8,384.3,404.8,386.7L404.8,386.7z"/>
<g>
</g>
<g>
</g>
<g>
</g>
<g>
</g>
<g>
</g>
<g>
</g>
<g>
</g>
<g>
</g>
<g>
</g>
<g>
</g>
<g>
</g>
<g>
</g>
<g>
</g>
<g>
</g>
<g>
</g>
</svg>
