<?xml version="1.0" encoding="iso-8859-1"?>
<!-- Generator: Adobe Illustrator 19.0.0, SVG Export Plug-In . SVG Version: 6.00 Build 0)  -->
<svg version="1.1" id="Layer_1" xmlns="http://www.w3.org/2000/svg" xmlns:xlink="http://www.w3.org/1999/xlink" x="0px" y="0px"
	 viewBox="0 0 504 504" style="enable-background:new 0 0 504 504;" xml:space="preserve">
<g>
	<path style="fill:#00233F;" d="M144.8,150.613c0,0,12,74.4,0.8,99.2c0,0,25.6,38.4,56.8,36.8l31.2-36.8l-4.8-116.8L144.8,150.613z"
		/>
	<path style="fill:#00233F;" d="M359.2,150.613c0,0-12,74.4-0.8,99.2c0,0-25.6,38.4-56.8,36.8l-31.2-36.8l4.8-116.8L359.2,150.613z"
		/>
	<path style="fill:#00233F;" d="M356,96.213c0,68,27.2,84-83.2,84H232c-46.4,0-84-38.4-84-84l0,0c0-45.6,37.6-84,83.2-84H272
		C318.4,12.213,356,50.613,356,96.213L356,96.213z"/>
</g>
<rect x="196" y="220.213" style="fill:#F9BDA0;" width="112" height="112"/>
<polygon style="fill:#E28F71;" points="308,332.213 250.4,341.813 199.2,220.213 308,220.213 "/>
<path style="fill:#FCCCB9;" d="M336,125.813c0,80.8-40.8,154.4-84,154.4s-84-73.6-84-154.4s40.8-94.4,84-94.4
	S336,45.013,336,125.813z"/>
<path style="fill:#F9BDA0;" d="M252,31.413c43.2,0,84,13.6,84,94.4s-40.8,154.4-84,154.4"/>
<polygon style="fill:#C61867;" points="193.6,323.413 44.8,377.013 0,492.213 248,492.213 "/>
<polygon style="fill:#750C41;" points="193.6,323.413 72,392.213 44.8,492.213 248,492.213 "/>
<polygon style="fill:#D6D6D6;" points="195.2,313.813 160,329.013 163.2,452.213 252,493.013 252,353.813 "/>
<polygon style="fill:#FFFFFF;" points="195.2,313.813 252,353.813 183.2,389.813 "/>
<polygon style="fill:#C61867;" points="310.4,323.413 459.2,377.013 504,492.213 256,492.213 "/>
<polygon style="fill:#750C41;" points="310.4,323.413 432,392.213 459.2,492.213 256,492.213 "/>
<polygon style="fill:#D6D6D6;" points="308.8,313.813 344,329.013 340.8,452.213 252,493.013 252,353.813 "/>
<polygon style="fill:#FFFFFF;" points="308.8,313.813 252,353.813 320.8,389.813 "/>
<g>
	<path style="fill:#00233F;" d="M292,15.413c0,0-34.4,140-152,148c0,0-13.6-85.6,21.6-121.6c34.4-36.8,96.8-30.4,96.8-30.4
		L292,15.413z"/>
	<path style="fill:#00233F;" d="M232.8,15.413c0,0,24,128,129.6,140.8c0,0,16-76-13.6-110.4s-85.6-32-85.6-32L232.8,15.413z"/>
</g>
<circle style="fill:#B5750F;" cx="252" cy="392.213" r="20"/>
<circle style="fill:#DD981D;" cx="252" cy="389.813" r="20"/>
<path style="fill:#CE8106;" d="M252,369.813c11.2,0,20,8.8,20,20s-8.8,20-20,20"/>
<circle style="fill:#EFB65B;" cx="252" cy="389.813" r="12.8"/>
<path style="fill:#E2A750;" d="M260.8,380.213c4.8,4.8,4.8,12.8,0,18.4c-4.8,4.8-12.8,4.8-18.4,0"/>
<circle style="fill:#B5750F;" cx="252" cy="453.013" r="20"/>
<circle style="fill:#DD981D;" cx="252" cy="450.613" r="20"/>
<path style="fill:#CE8106;" d="M252,430.613c11.2,0,20,8.8,20,20s-8.8,20-20,20"/>
<circle style="fill:#EFB65B;" cx="252" cy="450.613" r="12.8"/>
<path style="fill:#E2A750;" d="M260.8,441.813c4.8,4.8,4.8,12.8,0,18.4c-4.8,4.8-12.8,4.8-18.4,0"/>
<g>
</g>
<g>
</g>
<g>
</g>
<g>
</g>
<g>
</g>
<g>
</g>
<g>
</g>
<g>
</g>
<g>
</g>
<g>
</g>
<g>
</g>
<g>
</g>
<g>
</g>
<g>
</g>
<g>
</g>
</svg>
