<?xml version="1.0" encoding="iso-8859-1"?>
<!-- Generator: Adobe Illustrator 19.0.0, SVG Export Plug-In . SVG Version: 6.00 Build 0)  -->
<svg version="1.1" id="Layer_1" xmlns="http://www.w3.org/2000/svg" xmlns:xlink="http://www.w3.org/1999/xlink" x="0px" y="0px"
	 viewBox="0 0 496 496" style="enable-background:new 0 0 496 496;" xml:space="preserve">
<path style="fill:#00233F;" d="M352,92c0,44-36,80-80,80h-48c-44,0-80-36-80-80l0,0c0-44,36-80,80-80h48C316,12,352,48,352,92
	L352,92z"/>
<rect x="184" y="212" style="fill:#F9BDA0;" width="128" height="120"/>
<polygon style="fill:#E28F71;" points="312,332 248,332 180,212 312,212 "/>
<path style="fill:#FCCCB9;" d="M348.8,125.6c0,80-49.6,152-100.8,152s-100.8-72-100.8-152S196.8,32.8,248,32.8
	C299.2,32.8,348.8,45.6,348.8,125.6z"/>
<path style="fill:#F9BDA0;" d="M248,32.8c51.2,0,100.8,13.6,100.8,92.8c0,80-49.6,152-100.8,152"/>
<path style="fill:#00233F;" d="M280,25.6C280,36,272,44,261.6,44h-27.2C224,44,216,36,216,25.6v-3.2C216,12,224,4,234.4,4h27.2
	C272,4,280,12,280,22.4V25.6z"/>
<polygon style="fill:#0C537A;" points="176,292.8 0,358.4 0,492 240.8,492 "/>
<polygon style="fill:#00233F;" points="176,292.8 32.8,373.6 0,492 240.8,492 "/>
<polygon style="fill:#D6D6D6;" points="176,283.2 135.2,300.8 164,379.2 240,492 240,329.6 "/>
<polygon style="fill:#FFFFFF;" points="176.8,283.2 240,329.6 164,379.2 "/>
<polygon style="fill:#0C537A;" points="320,292.8 496,358.4 496,492 255.2,492 "/>
<polygon style="fill:#00233F;" points="320,292.8 463.2,373.6 496,492 255.2,492 "/>
<polygon style="fill:#D6D6D6;" points="320,283.2 360.8,300.8 332,379.2 256,492 256,329.6 "/>
<polygon style="fill:#FFFFFF;" points="319.2,283.2 256,329.6 332,379.2 "/>
<polygon style="fill:#0C537A;" points="229.6,340.8 239.2,355.2 224.8,473.6 241.6,492 248,492 248,329.6 "/>
<polygon style="fill:#00233F;" points="266.4,340.8 256.8,355.2 271.2,473.6 254.4,492 248,492 248,329.6 "/>
<g>
</g>
<g>
</g>
<g>
</g>
<g>
</g>
<g>
</g>
<g>
</g>
<g>
</g>
<g>
</g>
<g>
</g>
<g>
</g>
<g>
</g>
<g>
</g>
<g>
</g>
<g>
</g>
<g>
</g>
</svg>
