<?xml version="1.0" encoding="iso-8859-1"?>
<!-- Generator: Adobe Illustrator 19.0.0, SVG Export Plug-In . SVG Version: 6.00 Build 0)  -->
<svg version="1.1" id="Layer_1" xmlns="http://www.w3.org/2000/svg" xmlns:xlink="http://www.w3.org/1999/xlink" x="0px" y="0px"
	 viewBox="0 0 480 480" style="enable-background:new 0 0 480 480;" xml:space="preserve">
<path style="fill:#08446D;" d="M480,431.2c0,25.6-23.2,48.8-48.8,48.8H48.8C23.2,480,0,456.8,0,431.2V48.8C0,23.2,23.2,0,48.8,0
	h382.4C456.8,0,480,23.2,480,48.8V431.2z"/>
<path style="fill:#00233F;" d="M431.2,0C456.8,0,480,23.2,480,48.8v382.4c0,25.6-23.2,48.8-48.8,48.8H48.8C23.2,480,0,456.8,0,431.2
	"/>
<g>
	<path style="fill:#FFFFFF;" d="M136,200c0,4.8-3.2,8-8,8l0,0c-4.8,0-8-3.2-8-8V72c0-4.8,3.2-8,8-8l0,0c4.8,0,8,3.2,8,8V200z"/>
	<path style="fill:#FFFFFF;" d="M68.8,144c-4.8,0-8.8-3.2-8.8-8l0,0c0-4.8,4-8,8.8-8h124c4.8,0,8.8,3.2,8.8,8l0,0c0,4.8-4,8-8.8,8
		H68.8z"/>
	<path style="fill:#FFFFFF;" d="M287.2,144c-4.8,0-8.8-3.2-8.8-8l0,0c0-4.8,4-8,8.8-8h124c4.8,0,8.8,3.2,8.8,8l0,0c0,4.8-4,8-8.8,8
		H287.2z"/>
	<path style="fill:#FFFFFF;" d="M92.8,385.6c-3.2,3.2-8.8,3.2-12,0l0,0c-3.2-3.2-3.2-8.8,0-12l87.2-88c3.2-3.2,8.8-3.2,12,0l0,0
		c3.2,3.2,3.2,8.8,0,12L92.8,385.6z"/>
	<path style="fill:#FFFFFF;" d="M80.8,297.6c-3.2-3.2-3.2-8.8,0-12l0,0c3.2-3.2,8.8-3.2,12,0l87.2,87.2c3.2,3.2,3.2,8.8,0,12l0,0
		c-3.2,3.2-8.8,3.2-12,0L80.8,297.6z"/>
</g>
<g>
	<path style="fill:#E8961F;" d="M287.2,376c-4.8,0-8.8-3.2-8.8-8l0,0c0-4.8,4-8,8.8-8h124c4.8,0,8.8,3.2,8.8,8l0,0c0,4.8-4,8-8.8,8
		H287.2z"/>
	<path style="fill:#E8961F;" d="M287.2,312c-4.8,0-8.8-3.2-8.8-8l0,0c0-4.8,4-8,8.8-8h124c4.8,0,8.8,3.2,8.8,8l0,0c0,4.8-4,8-8.8,8
		H287.2z"/>
</g>
<g>
</g>
<g>
</g>
<g>
</g>
<g>
</g>
<g>
</g>
<g>
</g>
<g>
</g>
<g>
</g>
<g>
</g>
<g>
</g>
<g>
</g>
<g>
</g>
<g>
</g>
<g>
</g>
<g>
</g>
</svg>
