<?xml version="1.0" encoding="iso-8859-1"?>
<!-- Generator: Adobe Illustrator 19.0.0, SVG Export Plug-In . SVG Version: 6.00 Build 0)  -->
<svg version="1.1" id="Layer_1" xmlns="http://www.w3.org/2000/svg" xmlns:xlink="http://www.w3.org/1999/xlink" x="0px" y="0px"
	 viewBox="0 0 500 500" style="enable-background:new 0 0 500 500;" xml:space="preserve">
<rect x="412" y="0.4" style="fill:#04608E;" width="80" height="496"/>
<polygon style="fill:#1589AD;" points="492,176.4 148.8,474.8 0,408.4 412,0.4 "/>
<polygon style="fill:#04608E;" points="315.2,325.2 148.8,474.8 129.6,343.6 198.4,207.6 "/>
<polygon style="fill:#FFC239;" points="500,128.4 165.6,128.4 217.6,96.4 500,96.4 "/>
<polygon style="fill:#EFAE0C;" points="500,128.4 390.4,128.4 408,96.4 500,96.4 "/>
<path style="fill:#A4B9BC;" d="M496,144.4H272c0,0,4-1.6,4-0.8v257.6c0,54.4-48,95.2-101.6,95.2h224c53.6,0,93.6-40.8,93.6-95.2
	V143.6C492,142.8,496,144.4,496,144.4z"/>
<path style="fill:#B8CACC;" d="M467.2,144.4H244c0,0,0-1.6,0-0.8v257.6c0,54.4-44,95.2-98.4,95.2h224c54.4,0,98.4-40.8,98.4-95.2
	L467.2,144.4C468,142.8,467.2,144.4,467.2,144.4z"/>
<path style="fill:#D0DFE2;" d="M439.2,144.4h-224c0,0-4-1.6-4-0.8v257.6c0.8,54.4-39.2,95.2-93.6,95.2h224
	c53.6,0,94.4-40.8,94.4-95.2V143.6C436,142.8,439.2,144.4,439.2,144.4z"/>
<path style="fill:#FFFFFF;" d="M411.2,144.4h-224c0,0,0.8-1.6,0.8-0.8v257.6c0,54.4-44,95.2-98.4,95.2h224
	c53.6,0,98.4-40.8,98.4-95.2V143.6C412,142.8,411.2,144.4,411.2,144.4z"/>
<path style="fill:#E2EEF2;" d="M313.6,499.6c54.4,0,98.4-44,98.4-97.6V143.6c0-0.8-0.8,0.8-0.8,0.8h-224c0,0,0,0,0,0.8"/>
<path style="fill:#FFC239;" d="M224,408.4H0c2.4,48,45.6,88,97.6,88h224C268.8,496.4,226.4,456.4,224,408.4z"/>
<g>
	<path style="fill:#EFAE0C;" d="M204,496.4h117.6c-52.8,0-95.2-40-97.6-88H4"/>
	<rect x="164" y="128.4" style="fill:#EFAE0C;" width="336" height="24"/>
</g>
<rect x="388" y="128.4" style="fill:#E28413;" width="112" height="24"/>
<path style="fill:#EFAE0C;" d="M244,345.2v-20h9.6c8.8,0,25.6,0,25.6-12V286c0-8.8-7.2-15.2-16-15.2s-16,6.4-16,15.2v26.4h-20V286
	c0-20,17.6-35.2,36.8-35.2c19.2,0,36.8,15.2,36.8,35.2v27.2c0,10.4-4,14.4-11.2,21.6c7.2,6.4,11.2,15.2,11.2,24.8v27.2
	c0,20-16.8,35.2-36.8,35.2c-19.2,0-36.8-15.2-36.8-35.2v-26.4h20v26.4c0,8.8,8,15.2,16,15.2c8.8,0,16-6.4,16-15.2v-27.2
	c0-13.6-14.4-16-24.8-15.2H244V345.2z"/>
<g>
	<path style="fill:#E28413;" d="M339.2,422V289.2c-7.2,1.6-16.8,0.8-24,0.8v-20h7.2c7.2,0,17.6,0,17.6-7.2v-10.4h20V422L339.2,422
		L339.2,422z"/>
	<path style="fill:#E28413;" d="M274.4,206.8L274.4,206.8v1.6v0.8v0.8v0.8v0.8v0.8l-0.8,0.8v0.8l-0.8,0.8l-0.8,0.8l-0.8,0.8h-0.8
		h-0.8h-0.8H268h-0.8h-0.8h-0.8h-0.8H264h-0.8h-0.8l-2.4,0h-0.8h-0.8h-0.8h-0.8H256h-0.8h-0.8h-0.8h-0.8H252h-0.8l0.8-3.2h-0.8
		l-0.8-0.8h-0.8l-0.8-0.8l0,0l0,0l0,0l0,0l0.8-0.8l0.8-0.8v-0.8l0.8-0.8v-0.8v-0.8h0.8h0.8h0.8l1.6,0.8h0.8h0.8l0.8,0.8h0.8h0.8h0.8
		h0.8h0.8h2.4h0.8l0,0h0.8h0.8l0,0l0,0v-0.8v-0.8l0,0V206l0,0h-0.8l0,0h-0.8H264h-0.8h-4h-0.8h-0.8h-0.8H256h-0.8l-1.6-0.8h-0.8H252
		h-0.8l0-4.8v-0.8v-0.8V198v-0.8v-0.8v-0.8V194v-0.8v-0.8v-0.8v-0.8V190l0.8-0.8v-0.8v-0.8v-0.8l0.8-0.8h0.8h0.8h0.8l0.8-0.8
		l0.8-0.8h0.8h0.8h0.8h0.8h0.8h0.8h0.8h0.8h0.8h0.8l0,0h0.8h1.6h0.8h0.8h0.8h0.8h0.8h0.8l0.8,0.8h0.8h0.8l0,0l0,0v0.8l-0.8,0.8v0.8
		l-1.6,1.6l-0.8,0.8h-0.8l0,0l0,0l0,0h-0.8h-0.8l0,0H268l0,0h-0.8h-0.8h-0.8h-0.8H264h-0.8h-0.8h-0.8l0,0h-0.8l0,0v0.8v0.8v0.8v0.8
		h0.8h0.8l0,0h0.8h0.8h1.6h0.8h1.6h1.6h0.8h0.8h0.8h0.8h0.8h0.8h0.8l0.8,0.8l0.8,0.8l0.8,0.8l0.8,0.8v0.8v0.8v0.8v0.8L274.4,206.8
		L274.4,206.8z"/>
	<path style="fill:#E28413;" d="M304,201.2v1.6v0.8v0.8v0.8v0.8v0.8v0.8v0.8v0.8v0.8v0.8v0.8l-0.8,0.8l-0.8,0.8l-0.8,0.8l-1.6-0.8
		l-0.8,0.8h-0.8l-0.8,0.8h-0.8H296h-0.8h-0.8h-0.8h-0.8H292h-1.6h-1.6H288h-0.8h-2.4H284l0,0h-0.8l0,0h-0.8h-0.8h-0.8H280l-0.8-0.8
		l-0.8-0.8l-0.8-0.8v-0.8l-0.8-0.8V210v-0.8v-0.8v-0.8v-0.8V206v-0.8v-0.8v-0.8V202v-0.8v-2.4V198v-2.4v-0.8v-2.4v-4v-1.6V186v-0.8
		v-0.8l0,0h0.8h1.6h1.6h0.8h1.6h0.8h0.8h0.8l0,0v0.8v0.8v0.8v1.6v0.8v2.4v0.8v2.4v0.8v2.4v2.4v2.4v0.8v0.8v0.8v0.8v0.8l0.8,0.8v0.8
		l0.8,0.8h0.8h0.8h0.8h0.8h0.8h0.8h0.8h0.8h0.8l0.8-0.8l0.8-0.8l0.8-0.8V206v-0.8v-0.8v-0.8v-0.8v-2.4v-0.8v-2.4v-0.8V194v-0.8v-2.4
		V190v-1.6v-0.8v-0.8l0,0h0.8h0.8h2.4H300h1.6h0.8h0.8h0.8l0,0v0.8v0.8v0.8v0.8v0.8v2.4v0.8v2.4v0.8v2.4L304,201.2z"/>
	<path style="fill:#E28413;" d="M335.2,193.2L335.2,193.2v6.4v2.4v0.8v4.8v0.8l0,0v0.8v1.6v2.4v0.8v0.8v0.8h-0.8l0,0h-0.8H332h-0.8
		h-0.8h-0.8h-0.8H328h-0.8v-0.8l-0.8-0.8v-0.8l-1.6-1.6v-0.8l-1.6-2.4v-0.8l-1.6-2.4v-0.8l-1.6-1.6l-0.8-0.8l-1.6-1.6l0,0l0,0v0.8
		v1.6v0.8v1.6v0.8v2.4v0.8v2.4v0.8v1.6v0.8v0.8l0,0l0,0h-0.8l0,0H316h-1.6h-0.8H312h-0.8h-0.8h-0.8l0,0l0,0l0,0l0,0v-0.8v-1.6v-0.8
		V210v-0.8v-4.8v-0.8v-2.4v-0.8V198v-2.4v-0.8v-2.4v-0.8v-2.4v-0.8v-0.8v-0.8V186v-0.8l0,0l0,0h0.8h0.8h0.8h3.2h0.8l0,0l0,0l1.6,1.6
		l0.8,0.8l1.6,1.6l0.8,0.8l1.6,1.6v0.8l1.6,1.6v0.8l1.6,1.6l0.8,0.8l1.6,1.6l0,0l0,0l0,0V198v-1.6v-0.8V194v-0.8v-2.4V190v-2.4v-0.8
		v-1.6v-0.8v-0.8l0,0l0,0h0.8l0,0h0.8h1.6h0.8h1.6h0.8h0.8h0.8l0,0l0,0v0.8l0,0v0.8v1.6v0.8L335.2,193.2z"/>
</g>
<g>
	<rect x="228" y="227.6" style="fill:#EFAE0C;" width="129.6" height="3.2"/>
	<rect x="228" y="173.2" style="fill:#EFAE0C;" width="129.6" height="3.2"/>
</g>
<g>
</g>
<g>
</g>
<g>
</g>
<g>
</g>
<g>
</g>
<g>
</g>
<g>
</g>
<g>
</g>
<g>
</g>
<g>
</g>
<g>
</g>
<g>
</g>
<g>
</g>
<g>
</g>
<g>
</g>
</svg>
