<?xml version="1.0" encoding="iso-8859-1"?>
<!-- Generator: Adobe Illustrator 19.0.0, SVG Export Plug-In . SVG Version: 6.00 Build 0)  -->
<svg version="1.1" id="Layer_1" xmlns="http://www.w3.org/2000/svg" xmlns:xlink="http://www.w3.org/1999/xlink" x="0px" y="0px"
	 viewBox="0 0 498 498" style="enable-background:new 0 0 498 498;" xml:space="preserve">
<circle style="fill:#5D7272;" cx="228.8" cy="249" r="228.8"/>
<path style="fill:#435454;" d="M228.8,20.2c126.4,0,228.8,102.4,228.8,228.8S355.2,477.8,228.8,477.8"/>
<path style="fill:#F44D3B;" d="M284,307.4c14.4,14.4,14.4,36.8,0,50.4l-30.4,30.4c-14.4,14.4-36.8,14.4-50.4,0L56,241.8
	c-14.4-14.4-14.4-36.8,0-50.4L86.4,161c14.4-14.4,36.8-14.4,50.4,0L284,307.4z"/>
<path style="fill:#D32A0F;" d="M228,251.4l56,56c14.4,14.4,14.4,36.8,0,50.4l-30.4,30.4c-14.4,14.4-36.8,14.4-50.4,0L56,241.8"/>
<path style="fill:#F44D3B;" d="M172,307.4c-14.4,14.4-14.4,36.8,0,50.4l30.4,30.4c14.4,14.4,36.8,14.4,50.4,0l234.4-234.4
	c14.4-14.4,14.4-36.8,0-50.4L457.6,73c-14.4-14.4-36.8-14.4-50.4,0L172,307.4z"/>
<path style="fill:#D32A0F;" d="M229.6,249.8L172,307.4c-14.4,14.4-14.4,36.8,0,50.4l30.4,30.4c14.4,14.4,36.8,14.4,50.4,0
	l234.4-234.4c14.4-14.4,14.4-36.8,0-50.4L457.6,73"/>
<path style="fill:#A00D05;" d="M202.4,388.2c14.4,14.4,36.8,14.4,50.4,0l234.4-234.4c14.4-14.4,14.4-36.8,0-50.4"/>
<g>
</g>
<g>
</g>
<g>
</g>
<g>
</g>
<g>
</g>
<g>
</g>
<g>
</g>
<g>
</g>
<g>
</g>
<g>
</g>
<g>
</g>
<g>
</g>
<g>
</g>
<g>
</g>
<g>
</g>
</svg>
