<?xml version="1.0" encoding="iso-8859-1"?>
<!-- Generator: Adobe Illustrator 19.0.0, SVG Export Plug-In . SVG Version: 6.00 Build 0)  -->
<svg version="1.1" id="Layer_1" xmlns="http://www.w3.org/2000/svg" xmlns:xlink="http://www.w3.org/1999/xlink" x="0px" y="0px"
	 viewBox="0 0 496 496" style="enable-background:new 0 0 496 496;" xml:space="preserve">
<g>
	<polygon style="fill:#08446D;" points="420,496 12,496 12,386.4 72,328 420,328 	"/>
	<rect x="172" style="fill:#08446D;" width="56" height="48"/>
</g>
<polyline style="fill:#00233F;" points="172,0 228,0 228,48 "/>
<rect x="124" y="16" style="fill:#08446D;" width="152" height="160"/>
<g>
	<polyline style="fill:#00233F;" points="124,16 276,16 276,176 	"/>
	<rect x="92" y="72" style="fill:#00233F;" width="216" height="424"/>
</g>
<rect x="180" y="112" style="fill:#22EFAB;" width="40" height="40"/>
<polyline style="fill:#0DD396;" points="220,112 220,152 180,152 "/>
<rect x="180" y="168" style="fill:#22EFAB;" width="40" height="40"/>
<polyline style="fill:#0DD396;" points="220,168 220,208 180,208 "/>
<rect x="180" y="224" style="fill:#22EFAB;" width="40" height="40"/>
<polyline style="fill:#0DD396;" points="220,224 220,264 180,264 "/>
<rect x="180" y="280" style="fill:#22EFAB;" width="40" height="40"/>
<polyline style="fill:#0DD396;" points="220,280 220,320 180,320 "/>
<rect x="180" y="336" style="fill:#22EFAB;" width="40" height="40"/>
<polyline style="fill:#0DD396;" points="220,336 220,376 180,376 "/>
<rect x="124" y="168" style="fill:#22EFAB;" width="40" height="40"/>
<polyline style="fill:#0DD396;" points="164,168 164,208 124,208 "/>
<rect x="124" y="224" style="fill:#22EFAB;" width="40" height="40"/>
<polyline style="fill:#0DD396;" points="164,224 164,264 124,264 "/>
<rect x="124" y="280" style="fill:#22EFAB;" width="40" height="40"/>
<polyline style="fill:#0DD396;" points="164,280 164,320 124,320 "/>
<rect x="124" y="336" style="fill:#22EFAB;" width="40" height="40"/>
<polyline style="fill:#0DD396;" points="164,336 164,376 124,376 "/>
<rect x="124" y="112" style="fill:#22EFAB;" width="40" height="40"/>
<polyline style="fill:#0DD396;" points="164,112 164,152 124,152 "/>
<rect x="236" y="112" style="fill:#22EFAB;" width="40" height="40"/>
<polyline style="fill:#0DD396;" points="276,112 276,152 236,152 "/>
<rect x="236" y="168" style="fill:#22EFAB;" width="40" height="40"/>
<polyline style="fill:#0DD396;" points="276,168 276,208 236,208 "/>
<rect x="236" y="224" style="fill:#22EFAB;" width="40" height="40"/>
<polyline style="fill:#0DD396;" points="276,224 276,264 236,264 "/>
<rect x="236" y="280" style="fill:#22EFAB;" width="40" height="40"/>
<polyline style="fill:#0DD396;" points="276,280 276,320 236,320 "/>
<rect x="236" y="336" style="fill:#22EFAB;" width="40" height="40"/>
<polyline style="fill:#0DD396;" points="276,336 276,376 236,376 "/>
<path style="fill:#C6640C;" d="M228,488v-63.2c0-5.6-5.6-8.8-11.2-8.8h-34.4c-5.6,0-10.4,4-10.4,8.8V488H228z"/>
<g>
	<rect x="332" y="200" style="fill:#08446D;" width="152" height="296"/>
	<rect x="356" y="152" style="fill:#08446D;" width="104" height="112"/>
	<rect x="380" y="96" style="fill:#08446D;" width="56" height="104"/>
	<polygon style="fill:#08446D;" points="376,205.6 408,10.4 440,205.6 408,237.6 	"/>
</g>
<g>
	<rect x="364" y="232" style="fill:#5A8CA8;" width="8" height="232"/>
	<rect x="404" y="232" style="fill:#5A8CA8;" width="8" height="232"/>
	<rect x="436" y="232" style="fill:#5A8CA8;" width="8" height="232"/>
</g>
<g>
</g>
<g>
</g>
<g>
</g>
<g>
</g>
<g>
</g>
<g>
</g>
<g>
</g>
<g>
</g>
<g>
</g>
<g>
</g>
<g>
</g>
<g>
</g>
<g>
</g>
<g>
</g>
<g>
</g>
</svg>
