<?xml version="1.0" encoding="iso-8859-1"?>
<!-- Generator: Adobe Illustrator 19.0.0, SVG Export Plug-In . SVG Version: 6.00 Build 0)  -->
<svg version="1.1" id="Layer_1" xmlns="http://www.w3.org/2000/svg" xmlns:xlink="http://www.w3.org/1999/xlink" x="0px" y="0px"
	 viewBox="0 0 496 496" style="enable-background:new 0 0 496 496;" xml:space="preserve">
<path style="fill:#4CA1A5;" d="M474.8,180c0.8-4.8,1.6-10.4,1.6-15.2c0-43.2-34.4-78.4-76.8-80C388.4,36,345.2,0,293.2,0
	c-35.2,0-66.4,16-86.4,42.4c-4.8-0.8-10.4-1.6-16-1.6c-43.2,0-80,28-93.6,66.4C46.8,124,10.8,169.6,10.8,226.4
	c0,70.4,56.8,125.6,128,125.6h218.4c70.4,0,128-55.2,128-125.6C484.4,209.6,481.2,195.2,474.8,180z"/>
<g>
	<path style="fill:#7DD4E2;" d="M476.4,183.2c0,2.4,0,4,0,6.4c0,5.6-0.8,10.4-1.6,15.2c4.8,11.2,7.2,23.2,8.8,35.2
		c0.8-4,0.8-8,0.8-12.8C484.4,212,481.2,197.6,476.4,183.2z"/>
	<path style="fill:#7DD4E2;" d="M98,132.8c13.6-38.4,50.4-66.4,93.6-66.4c5.6,0,10.4,0.8,16,1.6c20-25.6,51.2-42.4,86.4-42.4
		c52,0,96,36,107.2,84.8c38.4,1.6,69.6,30.4,76,67.2c0.8-4,0.8-8,0.8-12.8c0-43.2-34.4-78.4-76.8-80C388.4,36,345.2,0,293.2,0
		c-35.2,0-66.4,16-86.4,42.4c-4.8-0.8-10.4-1.6-16-1.6c-43.2,0-80,28-93.6,66.4C46.8,124,10.8,172,10.8,228c0,4,0,8.8,0.8,12.8
		C16.4,190.4,50.8,148,98,132.8z"/>
	<path style="fill:#7DD4E2;" d="M424.4,220.8c0,1.6,0,3.2,0,4.8c0,4-0.8,8-0.8,12c3.2,8.8,5.6,17.6,6.4,27.2c0-3.2,0.8-6.4,0.8-9.6
		C430.8,242.4,428.4,231.2,424.4,220.8z"/>
	<path style="fill:#7DD4E2;" d="M131.6,180.8c10.4-29.6,38.4-51.2,72-51.2c4,0,8,0.8,12,0.8c15.2-20,40-32.8,66.4-32.8
		c40,0,73.6,28,82.4,65.6c29.6,1.6,53.6,23.2,58.4,52c0.8-3.2,0.8-6.4,0.8-9.6c0-33.6-26.4-60-59.2-61.6
		c-8.8-37.6-42.4-65.6-82.4-65.6c-27.2,0-51.2,12.8-66.4,32.8c-4-0.8-8-0.8-12-0.8c-33.6,0-61.6,21.6-72,51.2
		c-39.2,12.8-67.2,49.6-67.2,93.6c0,3.2,0,6.4,0.8,10.4C69.2,225.6,95.6,192.8,131.6,180.8z"/>
	<path style="fill:#7DD4E2;" d="M386,267.2c0,1.6,0,2.4,0,4c0,3.2,0,6.4-0.8,9.6c2.4,6.4,4.8,13.6,5.6,21.6c0-2.4,0-4.8,0-8
		C391.6,284.8,389.2,276,386,267.2z"/>
	<path style="fill:#7DD4E2;" d="M156.4,236c8-23.2,30.4-40,56.8-40c3.2,0,6.4,0,9.6,0.8c12-15.2,31.2-25.6,52.8-25.6
		c32,0,58.4,22.4,64.8,51.2c23.2,0.8,42.4,18.4,45.6,40.8c0.8-2.4,0.8-4.8,0.8-8c0-26.4-20.8-47.2-46.4-48.8
		c-7.2-29.6-33.6-51.2-64.8-51.2c-21.6,0-40,10.4-52.8,25.6c-3.2-0.8-6.4-0.8-9.6-0.8c-26.4,0-48.8,16.8-56.8,40
		c-30.4,10.4-52.8,39.2-52.8,73.6c0,2.4,0,5.6,0.8,8C107.6,271.2,128.4,245.6,156.4,236z"/>
</g>
<path style="fill:#214551;" d="M383.6,300c0,11.2-8.8,20-20,20h-232c-11.2,0-20-8.8-20-20l0,0c0-11.2,8.8-20,20-20h232
	C374.8,280,383.6,288.8,383.6,300L383.6,300z"/>
<path style="fill:#102D35;" d="M111.6,300L111.6,300c0-11.2,8.8-20,20-20h232c11.2,0,20,8.8,20,20l0,0"/>
<polygon style="fill:#FFFFFF;" points="151.6,280 151.6,440 212.4,496 343.6,496 343.6,280 "/>
<polyline style="fill:#E9F4F3;" points="343.6,496 343.6,280 151.6,280 "/>
<polyline style="fill:#D4E8E5;" points="343.6,384 343.6,280 151.6,280 "/>
<polygon style="fill:#D6E5E3;" points="259.6,496 212.4,440 212.4,496 238,496 "/>
<polygon style="fill:#8AC4BD;" points="151.6,440 212.4,496 212.4,440 "/>
<polygon style="fill:#67A59C;" points="182,468 212.4,496 212.4,440 "/>
<g>
	<path style="fill:#102D35;" d="M306.8,324c0,2.4-2.4,4-4.8,4H192.4c-2.4,0-4.8-1.6-4.8-4l0,0c0-2.4,2.4-4,4.8-4h110.4
		C305.2,320,306.8,321.6,306.8,324L306.8,324z"/>
	<path style="fill:#102D35;" d="M306.8,356c0,2.4-2.4,4-4.8,4H192.4c-2.4,0-4.8-1.6-4.8-4l0,0c0-2.4,2.4-4,4.8-4h110.4
		C305.2,352,306.8,353.6,306.8,356L306.8,356z"/>
	<path style="fill:#102D35;" d="M306.8,388c0,2.4-2.4,4-4.8,4H192.4c-2.4,0-4.8-1.6-4.8-4l0,0c0-2.4,2.4-4,4.8-4h110.4
		C305.2,384,306.8,385.6,306.8,388L306.8,388z"/>
</g>
<g>
</g>
<g>
</g>
<g>
</g>
<g>
</g>
<g>
</g>
<g>
</g>
<g>
</g>
<g>
</g>
<g>
</g>
<g>
</g>
<g>
</g>
<g>
</g>
<g>
</g>
<g>
</g>
<g>
</g>
</svg>
