<?xml version="1.0" encoding="iso-8859-1"?>
<!-- Generator: Adobe Illustrator 19.0.0, SVG Export Plug-In . SVG Version: 6.00 Build 0)  -->
<svg version="1.1" id="Layer_1" xmlns="http://www.w3.org/2000/svg" xmlns:xlink="http://www.w3.org/1999/xlink" x="0px" y="0px"
	 viewBox="0 0 496.8 496.8" style="enable-background:new 0 0 496.8 496.8;" xml:space="preserve">
<path style="fill:#F44D3B;" d="M496,380.8c0,10.4-8.8,19.2-19.2,19.2H19.2C8.8,400,0,391.2,0,380.8V115.2C0,104.8,8.8,96,19.2,96
	h458.4c10.4,0,19.2,8.8,19.2,19.2v265.6H496z"/>
<path style="fill:#D32A0F;" d="M0,115.2C0,104.8,8.8,96,19.2,96h458.4c10.4,0,19.2,8.8,19.2,19.2v266.4c0,10.4-8.8,19.2-19.2,19.2"
	/>
<path style="fill:#A00D05;" d="M184,96h292.8c10.4,0,19.2,8.8,19.2,19.2v266.4c0,10.4-8.8,19.2-19.2,19.2"/>
<rect y="152" style="fill:#073C60;" width="496" height="96"/>
<polyline style="fill:#00233F;" points="496,248 496,152 0,152 "/>
<g>
	<path style="fill:#073C60;" d="M192,289.6c0,3.2-2.4,6.4-6.4,6.4H54.4c-4,0-6.4-2.4-6.4-6.4v-4c0-3.2,2.4-5.6,6.4-5.6h132
		c3.2,0,6.4,2.4,6.4,6.4v3.2H192z"/>
	<path style="fill:#073C60;" d="M192,321.6c0,3.2-2.4,6.4-6.4,6.4H54.4c-4,0-6.4-2.4-6.4-6.4v-4c0-3.2,2.4-5.6,6.4-5.6h132
		c3.2,0,6.4,2.4,6.4,6.4v3.2H192z"/>
	<path style="fill:#073C60;" d="M192,353.6c0,3.2-2.4,6.4-6.4,6.4H54.4c-4,0-6.4-2.4-6.4-6.4v-4c0-3.2,2.4-5.6,6.4-5.6h132
		c3.2,0,6.4,2.4,6.4,6.4v3.2H192z"/>
</g>
<path style="fill:#23C181;" d="M364,321.6c0-15.2,7.2-28,17.6-36.8c-8-6.4-18.4-10.4-29.6-10.4c-26.4,0-47.2,20.8-47.2,47.2
	s20.8,47.2,47.2,47.2c11.2,0,21.6-4,29.6-10.4C370.4,349.6,364,336.8,364,321.6z"/>
<path style="fill:#0CAA7D;" d="M352,368.8c11.2,0,21.6-4,29.6-10.4c-11.2-8.8-17.6-21.6-17.6-36.8c0-15.2,7.2-28,17.6-36.8
	c-8-6.4-18.4-10.4-29.6-10.4"/>
<path style="fill:#F4AD31;" d="M411.2,274.4c-11.2,0-21.6,4-29.6,10.4c11.2,8.8,17.6,21.6,17.6,36.8c0,15.2-7.2,28-17.6,36.8
	c8,6.4,18.4,10.4,29.6,10.4c26.4,0,47.2-20.8,47.2-47.2S436.8,274.4,411.2,274.4z"/>
<g>
	<path style="fill:#E2821A;" d="M411.2,368.8c26.4,0,47.2-20.8,47.2-47.2s-20.8-47.2-47.2-47.2"/>
</g>
<g>
	<circle style="fill:#EADAEA;" cx="58.4" cy="224" r="8.8"/>
	<circle style="fill:#EADAEA;" cx="101.6" cy="224" r="8.8"/>
	<circle style="fill:#EADAEA;" cx="144.8" cy="224" r="8.8"/>
</g>
<g>
</g>
<g>
</g>
<g>
</g>
<g>
</g>
<g>
</g>
<g>
</g>
<g>
</g>
<g>
</g>
<g>
</g>
<g>
</g>
<g>
</g>
<g>
</g>
<g>
</g>
<g>
</g>
<g>
</g>
</svg>
