<?xml version="1.0" encoding="iso-8859-1"?>
<!-- Generator: Adobe Illustrator 19.0.0, SVG Export Plug-In . SVG Version: 6.00 Build 0)  -->
<svg version="1.1" id="Layer_1" xmlns="http://www.w3.org/2000/svg" xmlns:xlink="http://www.w3.org/1999/xlink" x="0px" y="0px"
	 viewBox="0 0 490.4 490.4" style="enable-background:new 0 0 490.4 490.4;" xml:space="preserve">
<rect x="141.2" style="fill:#0E75AF;" width="216" height="24"/>
<polyline style="fill:#04547C;" points="357.2,24 357.2,0 141.2,0 "/>
<rect x="141.2" y="48" style="fill:#0E75AF;" width="216" height="32"/>
<polyline style="fill:#04547C;" points="357.2,80 357.2,48 141.2,48 "/>
<polygon style="fill:#0E75AF;" points="357.2,208 357.2,96 141.2,96 141.2,208 98.8,208 245.2,354.4 391.6,208 "/>
<polyline style="fill:#04547C;" points="245.2,354.4 391.6,208 357.2,208 357.2,96 141.2,96 "/>
<polygon style="fill:#0DD396;" points="245.2,408 181.2,344 98.8,344 245.2,490.4 391.6,344 309.2,344 "/>
<polyline style="fill:#23C181;" points="245.2,488.8 391.6,344 309.2,344 245.2,407.2 "/>
<g>
</g>
<g>
</g>
<g>
</g>
<g>
</g>
<g>
</g>
<g>
</g>
<g>
</g>
<g>
</g>
<g>
</g>
<g>
</g>
<g>
</g>
<g>
</g>
<g>
</g>
<g>
</g>
<g>
</g>
</svg>
