<?xml version="1.0" encoding="iso-8859-1"?>
<!-- Generator: Adobe Illustrator 19.0.0, SVG Export Plug-In . SVG Version: 6.00 Build 0)  -->
<svg version="1.1" id="Layer_1" xmlns="http://www.w3.org/2000/svg" xmlns:xlink="http://www.w3.org/1999/xlink" x="0px" y="0px"
	 viewBox="0 0 475.2 475.2" style="enable-background:new 0 0 475.2 475.2;" xml:space="preserve">
<path style="fill:#1EA4C4;" d="M204,56C100,56,25.6,139.2,25.6,241.6c0,103.2,82.4,187.2,186.4,187.2l0,0l0,0l0,0l0,0l0,0l0,0
	c96,0,186.4-83.2,186.4-186.4C398.4,140,308,56,212,56 M228,340.8c-5.6,32-13.6,60.8-19.2,66.4c-5.6-5.6-13.6-34.4-19.2-66.4H228z
	 M183.2,228.8c0-24,1.6-40,3.2-56h44c1.6,16,3.2,32,3.2,56H183.2z M252,148.8c-2.4-24-6.4-40.8-12.8-57.6
	c17.6,11.2,32,33.6,43.2,57.6H252z M177.6,91.2c-5.6,16-9.6,33.6-12.8,57.6h-30.4C145.6,124.8,160.8,102.4,177.6,91.2z M92.8,228.8
	H47.2c1.6-24,4.8-37.6,12.8-56l0,0h40.8C96.8,188.8,93.6,212.8,92.8,228.8z M164,316.8h-37.6c-4.8-24-8-40-9.6-64H156 M255.2,316.8
	c2.4-24,3.2-48,3.2-64h42.4c-0.8,24-4,40-9.6,64H255.2z M324.8,228.8c-0.8-16-4-40-8-56H356v-3.2c8,18.4,12.8,35.2,14.4,59.2H324.8z
	 M77.6,340.8H108c7.2,16,15.2,35.2,25.6,48.8C112,378.4,92,356.8,77.6,340.8z M283.2,389.6c10.4-13.6,19.2-32.8,25.6-48.8H340
	C325.6,356.8,305.6,378.4,283.2,389.6z"/>
<path style="fill:#0C4568;" d="M218.4,473.6c-6.4,0-12-5.6-12-12s5.6-12,12-12c113.6,0,207.2-92.8,207.2-207.2S332,35.2,218.4,35.2
	c-6.4,0-12-5.6-12-12s5.6-12,12-12c127.2,0,231.2,104,231.2,231.2C449.6,369.6,345.6,473.6,218.4,473.6z"/>
<circle style="fill:#C92B00;" cx="208.8" cy="20.8" r="20.8"/>
<path style="fill:#960000;" d="M208.8,0c12,0,20.8,9.6,20.8,20.8c0,12-9.6,20.8-20.8,20.8"/>
<path style="fill:#0777A8;" d="M209.6,428.8c100.8,0,188.8-83.2,188.8-186.4C398.4,140,308,56,212,56h-8l0,0l0,0l0,0l0,0
	c0,0,8,0,0,0v116.8h27.2c1.6,16,3.2,32,3.2,56H204v112h24c-5.6,32-13.6,60.8-19.2,66.4l0,0v19.2l0,0 M240,91.2
	c17.6,11.2,32,33.6,43.2,57.6H252C249.6,124.8,245.6,108,240,91.2z M258.4,252.8h42.4c-0.8,24-4,40-9.6,64h-36
	C256.8,292.8,257.6,268.8,258.4,252.8z M283.2,389.6c10.4-13.6,19.2-32.8,25.6-48.8H340C325.6,356.8,305.6,378.4,283.2,389.6z
	 M324.8,228.8c-0.8-16-4-40-8-56H356l0,0c8,18.4,12.8,32,14.4,56H324.8z"/>
<path style="fill:#03243D;" d="M425.6,244.8c-0.8,112-93.6,205.6-207.2,205.6c-6.4,0-12,4.8-12,12c0,6.4,5.6,12.8,12,12.8
	c126.4-0.8,230.4-102.4,231.2-230.4H425.6z"/>
<g>
</g>
<g>
</g>
<g>
</g>
<g>
</g>
<g>
</g>
<g>
</g>
<g>
</g>
<g>
</g>
<g>
</g>
<g>
</g>
<g>
</g>
<g>
</g>
<g>
</g>
<g>
</g>
<g>
</g>
</svg>
