<?xml version="1.0" encoding="iso-8859-1"?>
<!-- Generator: Adobe Illustrator 19.0.0, SVG Export Plug-In . SVG Version: 6.00 Build 0)  -->
<svg version="1.1" id="Layer_1" xmlns="http://www.w3.org/2000/svg" xmlns:xlink="http://www.w3.org/1999/xlink" x="0px" y="0px"
	 viewBox="0 0 496 496" style="enable-background:new 0 0 496 496;" xml:space="preserve">
<rect y="56" style="fill:#DAEAEF;" width="496" height="384"/>
<polygon style="fill:#C7E0E5;" points="496,440 124.8,321.6 0,56 496,56 "/>
<g style="opacity:0.5;">
	<polygon style="fill:#1EA4C4;" points="8,248 8,273.6 32,302.4 32,276.8 	"/>
	<g>
		<polygon style="fill:#C42014;" points="8,312.8 8,338.4 32,367.2 32,341.6 		"/>
		<polygon style="fill:#C42014;" points="8,183.2 8,208.8 32,237.6 32,212 		"/>
	</g>
	<polygon style="fill:#1EA4C4;" points="32,432.8 32,407.2 8,377.6 8,403.2 	"/>
	<polygon style="fill:#C42014;" points="8,59.2 8,78.4 32,108 32,82.4 	"/>
	<g>
		<polygon style="fill:#1EA4C4;" points="8,118.4 8,144 32,172.8 32,147.2 		"/>
		<path style="fill:#1EA4C4;" d="M11.2,443.2L11.2,443.2L11.2,443.2z"/>
	</g>
</g>
<g style="opacity:0.5;">
	<polygon style="fill:#1EA4C4;" points="488,248 488,222.4 464,193.6 464,219.2 	"/>
	<g>
		<polygon style="fill:#C42014;" points="488,183.2 488,157.6 464,128.8 464,154.4 		"/>
		<polygon style="fill:#C42014;" points="488,312.8 488,287.2 464,258.4 464,284 		"/>
	</g>
	<polygon style="fill:#1EA4C4;" points="464,63.2 464,88.8 488,118.4 488,92.8 	"/>
	<polygon style="fill:#C42014;" points="488,439.2 488,417.6 464,388 464,413.6 	"/>
	<g>
		<polygon style="fill:#1EA4C4;" points="488,377.6 488,352 464,323.2 464,348.8 		"/>
		<path style="fill:#1EA4C4;" d="M484.8,52.8L484.8,52.8L484.8,52.8z"/>
	</g>
</g>
<path style="fill:#E8F9FC;" d="M496,440L286.4,229.6c-21.6-21.6-56-21.6-77.6,0L0,440H496z"/>
<path style="fill:#D1EFF2;" d="M286.4,229.6c-21.6-21.6-56-21.6-77.6,0l-35.2,35.2l35.2,35.2c21.6,21.6,56,21.6,77.6,0l35.2-35.2
	L286.4,229.6z"/>
<path style="fill:#FFFFFF;" d="M0,56l209.6,210.4c21.6,21.6,56,21.6,77.6,0L496,56H0z"/>
<polyline style="fill:#E8F9FC;" points="286.4,266.4 496,56 224,56 "/>
<polygon style="fill:#1EA4C4;" points="248,64 222.4,64 193.6,80 219.2,80 "/>
<g>
	<polygon style="fill:#C42014;" points="183.2,64 157.6,64 128.8,80 154.4,80 	"/>
	<polygon style="fill:#C42014;" points="312.8,64 287.2,64 258.4,80 284,80 	"/>
</g>
<polygon style="fill:#1EA4C4;" points="63.2,80 88.8,80 118.4,64 92.8,64 "/>
<polygon style="fill:#C42014;" points="443.2,64 417.6,64 388,80 413.6,80 "/>
<g>
	<polygon style="fill:#1EA4C4;" points="377.6,64 352,64 323.2,80 348.8,80 	"/>
	<path style="fill:#1EA4C4;" d="M52.8,66.4L52.8,66.4L52.8,66.4z"/>
	<polygon style="fill:#1EA4C4;" points="248,432 273.6,432 302.4,416 276.8,416 	"/>
</g>
<g>
	<polygon style="fill:#C42014;" points="312.8,432 338.4,432 367.2,416 341.6,416 	"/>
	<polygon style="fill:#C42014;" points="183.2,432 208.8,432 237.6,416 212,416 	"/>
</g>
<polygon style="fill:#1EA4C4;" points="432.8,416 407.2,416 377.6,432 403.2,432 "/>
<polygon style="fill:#C42014;" points="52.8,432 78.4,432 108,416 82.4,416 "/>
<g>
	<polygon style="fill:#1EA4C4;" points="118.4,432 144,432 172.8,416 147.2,416 	"/>
	<path style="fill:#1EA4C4;" d="M443.2,429.6L443.2,429.6L443.2,429.6z"/>
</g>
<g>
</g>
<g>
</g>
<g>
</g>
<g>
</g>
<g>
</g>
<g>
</g>
<g>
</g>
<g>
</g>
<g>
</g>
<g>
</g>
<g>
</g>
<g>
</g>
<g>
</g>
<g>
</g>
<g>
</g>
</svg>
