<?xml version="1.0" encoding="iso-8859-1"?>
<!-- Generator: Adobe Illustrator 19.0.0, SVG Export Plug-In . SVG Version: 6.00 Build 0)  -->
<svg version="1.1" id="Layer_1" xmlns="http://www.w3.org/2000/svg" xmlns:xlink="http://www.w3.org/1999/xlink" x="0px" y="0px"
	 viewBox="0 0 496 496" style="enable-background:new 0 0 496 496;" xml:space="preserve">
<polygon style="fill:#A55404;" points="201.6,72 185.6,32 0,32 0,72.8 0,156.8 0,368 496,368 496,72 "/>
<polyline style="fill:#844002;" points="496,368 496,72 201.6,72 185.6,32 0,32 0,72 "/>
<rect x="32" y="104" style="fill:#FFFFFF;" width="432" height="288"/>
<polyline style="fill:#DAE6EA;" points="32,104 464,104 464,392 "/>
<rect y="176" style="fill:#F98D2B;" width="496" height="288"/>
<polyline style="fill:#E2821A;" points="0,176 496,176 496,464 "/>
<circle style="fill:#0D6E8C;" cx="405.6" cy="353.6" r="55.2"/>
<path style="fill:#077E9E;" d="M444.8,315.2c21.6,21.6,21.6,56,0,77.6s-56,21.6-77.6,0"/>
<g>
</g>
<g>
</g>
<g>
</g>
<g>
</g>
<g>
</g>
<g>
</g>
<g>
</g>
<g>
</g>
<g>
</g>
<g>
</g>
<g>
</g>
<g>
</g>
<g>
</g>
<g>
</g>
<g>
</g>
</svg>
