<?xml version="1.0" encoding="iso-8859-1"?>
<!-- Generator: Adobe Illustrator 19.0.0, SVG Export Plug-In . SVG Version: 6.00 Build 0)  -->
<svg version="1.1" id="Layer_1" xmlns="http://www.w3.org/2000/svg" xmlns:xlink="http://www.w3.org/1999/xlink" x="0px" y="0px"
	 viewBox="0 0 496.8 496.8" style="enable-background:new 0 0 496.8 496.8;" xml:space="preserve">
<polygon style="fill:#1589AD;" points="491.6,484.8 353.2,496.8 215.6,484.8 353.2,213.6 "/>
<polyline style="fill:#035670;" points="353.2,213.6 491.6,484.8 353.2,496.8 "/>
<polygon style="fill:#1EA4C4;" points="353.2,448 432.4,368.8 387.6,281.6 353.2,247.2 318.8,281.6 274.8,368.8 "/>
<polyline style="fill:#066B93;" points="353.2,448 432.4,368.8 387.6,281.6 353.2,247.2 "/>
<polygon style="fill:#1589AD;" points="412.4,479.2 209.2,496.8 3.6,483.2 209.2,80 "/>
<polyline style="fill:#057091;" points="209.2,80 414.8,483.2 209.2,496.8 "/>
<polygon style="fill:#1EA4C4;" points="209.2,424.8 325.2,308 259.6,179.2 209.2,128.8 158,179.2 92.4,308 "/>
<polyline style="fill:#1290AD;" points="209.2,424.8 325.2,308 259.6,179.2 209.2,128.8 "/>
<polygon style="fill:#9ADFEF;" points="242,278.4 274.8,311.2 309.2,277.6 209.2,80 108.4,277.6 142.8,311.2 175.6,278.4 
	209.2,311.2 "/>
<polyline style="fill:#7DD4E2;" points="209.2,311.2 242,278.4 274.8,311.2 309.2,277.6 209.2,80 "/>
<circle style="fill:#C92B00;" cx="209.2" cy="11.2" r="11.2"/>
<path style="fill:#1EA4C4;" d="M208.4,28.8c-2.4,0-2.4,0-8-1.6v74.4c0,3.2,4.8,5.6,8,5.6s8-2.4,8-5.6V27.2
	C216.4,30.4,210.8,28.8,208.4,28.8z"/>
<path style="fill:#087799;" d="M208.4,107.2c3.2,0,8-2.4,8-5.6V27.2c-4,1.6-5.6,1.6-8,1.6"/>
<path style="fill:#9E1600;" d="M216.4,4c4.8,4,4.8,11.2,0,16s-11.2,4.8-16,0"/>
<ellipse transform="matrix(-0.7069 -0.7073 0.7073 -0.7069 344.8135 153.5848)" style="fill:#E28133;" cx="204.228" cy="5.351" rx="1.6" ry="4.8"/>
<polygon style="fill:#9E1600;" points="324.4,64.8 338.8,48.8 248.4,48.8 248.4,80.8 338.8,80.8 "/>
<polyline style="fill:#770B00;" points="338.8,80.8 324.4,64.8 338.8,48.8 248.4,48.8 "/>
<rect x="216.4" y="32.8" style="fill:#C92B00;" width="64" height="24"/>
<polyline style="fill:#9E1600;" points="216.4,32.8 280.4,32.8 280.4,56.8 "/>
<rect x="0.4" y="480.8" style="fill:#057091;" width="496" height="16"/>
<g>
</g>
<g>
</g>
<g>
</g>
<g>
</g>
<g>
</g>
<g>
</g>
<g>
</g>
<g>
</g>
<g>
</g>
<g>
</g>
<g>
</g>
<g>
</g>
<g>
</g>
<g>
</g>
<g>
</g>
</svg>
