<?xml version="1.0" encoding="iso-8859-1"?>
<!-- Generator: Adobe Illustrator 19.0.0, SVG Export Plug-In . SVG Version: 6.00 Build 0)  -->
<svg version="1.1" id="Layer_1" xmlns="http://www.w3.org/2000/svg" xmlns:xlink="http://www.w3.org/1999/xlink" x="0px" y="0px"
	 viewBox="0 0 499.2 499.2" style="enable-background:new 0 0 499.2 499.2;" xml:space="preserve">
<polygon style="fill:#FFCE00;" points="326.4,285.6 172.8,285.6 204.8,229.6 294.4,229.6 "/>
<polygon style="fill:#FFB600;" points="326.4,285.6 172.8,285.6 220.8,243.2 294.4,229.6 "/>
<polygon style="fill:#E8961F;" points="326.4,285.6 172.8,285.6 269.6,264.8 294.4,229.6 "/>
<polygon style="fill:#FFCE00;" points="326.4,437.6 172.8,437.6 204.8,381.6 294.4,381.6 "/>
<polygon style="fill:#FFB600;" points="326.4,437.6 172.8,437.6 220.8,396.8 294.4,381.6 "/>
<polygon style="fill:#E8961F;" points="326.4,437.6 172.8,437.6 269.6,418.4 294.4,381.6 "/>
<polygon style="fill:#FFCE00;" points="153.6,437.6 0,437.6 32,381.6 121.6,381.6 "/>
<polygon style="fill:#FFB600;" points="153.6,437.6 0,437.6 48,396.8 121.6,381.6 "/>
<polygon style="fill:#E8961F;" points="153.6,437.6 0,437.6 96.8,418.4 121.6,381.6 "/>
<polygon style="fill:#FFCE00;" points="499.2,437.6 345.6,437.6 377.6,381.6 467.2,381.6 "/>
<polygon style="fill:#FFB600;" points="499.2,437.6 345.6,437.6 393.6,396.8 467.2,381.6 "/>
<polygon style="fill:#E8961F;" points="499.2,437.6 345.6,437.6 442.4,418.4 467.2,381.6 "/>
<polygon style="fill:#FFCE00;" points="240.8,357.6 86.4,357.6 118.4,301.6 208.8,301.6 "/>
<polygon style="fill:#FFB600;" points="240.8,357.6 86.4,357.6 135.2,316.8 208.8,301.6 "/>
<polygon style="fill:#E8961F;" points="240.8,357.6 86.4,357.6 184,337.6 208.8,301.6 "/>
<polygon style="fill:#FFCE00;" points="412.8,357.6 258.4,357.6 290.4,301.6 380.8,301.6 "/>
<polygon style="fill:#FFB600;" points="412.8,357.6 258.4,357.6 307.2,316.8 380.8,301.6 "/>
<polygon style="fill:#E8961F;" points="412.8,357.6 258.4,357.6 355.2,337.6 380.8,301.6 "/>
<g>
	<path style="fill:#24966A;" d="M257.6,165.6c0,4.8-3.2,8-8,8l0,0c-4.8,0-8-3.2-8-8v-96c0-4.8,3.2-8,8-8l0,0c4.8,0,8,3.2,8,8V165.6z
		"/>
	<path style="fill:#24966A;" d="M202.4,181.6c1.6,4,0,8.8-4,10.4l0,0c-4,1.6-8.8,0-10.4-4l-39.2-88c-1.6-4,0-8.8,4-10.4l0,0
		c4-1.6,8.8,0,10.4,4L202.4,181.6z"/>
	<path style="fill:#24966A;" d="M160,216c3.2,2.4,4,8,1.6,11.2l0,0c-2.4,3.2-8,4-11.2,1.6l-76.8-58.4c-3.2-2.4-4-8-1.6-11.2l0,0
		c2.4-3.2,8-4,11.2-1.6L160,216z"/>
	<path style="fill:#24966A;" d="M132,264c4.8,0,8,4,8,8l0,0c0,4.8-4,8-8,8l-96-4c-4.8,0-8-4-8-8l0,0c0-4.8,4-8,8-8L132,264z"/>
	<path style="fill:#24966A;" d="M296.8,181.6c-1.6,4,0,8.8,4,10.4l0,0c4,1.6,8.8,0,10.4-4l39.2-88c1.6-4,0-8.8-4-10.4l0,0
		c-4-1.6-8.8,0-10.4,4L296.8,181.6z"/>
	<path style="fill:#24966A;" d="M339.2,216c-3.2,2.4-4,8-1.6,11.2l0,0c2.4,3.2,8,4,11.2,1.6l76-58.4c3.2-2.4,4-8,1.6-11.2l0,0
		c-2.4-3.2-8-4-11.2-1.6L339.2,216z"/>
	<path style="fill:#24966A;" d="M367.2,264c-4.8,0-8,4-8,8l0,0c0,4.8,4,8,8,8l96-4c4.8,0,8-4,8-8l0,0c0-4.8-4-8-8-8L367.2,264z"/>
</g>
<g>
</g>
<g>
</g>
<g>
</g>
<g>
</g>
<g>
</g>
<g>
</g>
<g>
</g>
<g>
</g>
<g>
</g>
<g>
</g>
<g>
</g>
<g>
</g>
<g>
</g>
<g>
</g>
<g>
</g>
</svg>
