<?xml version="1.0" encoding="iso-8859-1"?>
<!-- Generator: Adobe Illustrator 19.0.0, SVG Export Plug-In . SVG Version: 6.00 Build 0)  -->
<svg version="1.1" id="Layer_1" xmlns="http://www.w3.org/2000/svg" xmlns:xlink="http://www.w3.org/1999/xlink" x="0px" y="0px"
	 viewBox="0 0 501.6 501.6" style="enable-background:new 0 0 501.6 501.6;" xml:space="preserve">
<path style="fill:#08446D;" d="M249.6,100.8c24.8,0,44.8-25.6,44.8-57.6S274.4,0,249.6,0s-44.8,12-44.8,43.2
	S224.8,100.8,249.6,100.8z"/>
<path style="fill:#00233F;" d="M249.6,100.8c24.8,0,44.8-25.6,44.8-57.6S274.4,0,249.6,0"/>
<path style="fill:#08446D;" d="M271.2,112h-41.6c-31.2,0-56,24.8-56.8,56l-0.8,81.6c0,19.2,9.6,36,24,46.4c0,1.6-0.8,3.2-0.8,4.8
	l-0.8,176c0,12.8,10.4,24,23.2,24s23.2-10.4,24-23.2l0.8-119.2h12.8l-0.8,119.2c0,12.8,10.4,23.2,23.2,24c12.8,0,24-10.4,24-23.2
	l0.8-176c0-1.6,0-3.2-0.8-4.8c14.4-10.4,24-26.4,24-45.6l0.8-81.6C328,137.6,302.4,112,271.2,112z"/>
<g>
	<path style="fill:#00233F;" d="M242.4,476l0.8-119.2H256L255.2,476c0,12.8,10.4,24,23.2,24c12.8,0,24-10.4,24-23.2l0.8-176
		c0-1.6,0-3.2-0.8-4.8c14.4-10.4,24-26.4,24-45.6l0.8-81.6c0-31.2-24.8-56.8-56-56.8h-41.6"/>
</g>
<path style="fill:#08446D;" d="M412.8,120c21.6,0,39.2-22.4,39.2-50.4S434.4,32,412.8,32s-39.2,10.4-39.2,37.6
	C373.6,97.6,391.2,120,412.8,120z"/>
<path style="fill:#00233F;" d="M412.8,120c21.6,0,39.2-22.4,39.2-50.4S434.4,32,412.8,32"/>
<path style="fill:#08446D;" d="M431.2,129.6h-36c-27.2,0-48.8,21.6-48.8,48.8v70.4c0,16.8,8,31.2,20.8,40c0,1.6-0.8,2.4-0.8,4
	l-0.8,152.8c0,11.2,8.8,20.8,20,20.8s20.8-8.8,20.8-20l0.8-104h11.2l-0.8,104c0,11.2,8.8,20.8,20,20.8s20.8-8.8,20.8-20l0.8-152.8
	c0-1.6,0-3.2,0-4c12.8-8.8,20.8-23.2,20.8-40l0.8-71.2C480,152,458.4,129.6,431.2,129.6z"/>
<g>
	<path style="fill:#00233F;" d="M406.4,446.4l0.8-104h11.2l-0.8,104c0,11.2,8.8,20.8,20,20.8s20.8-8.8,20.8-20l0.8-152.8
		c0-1.6,0-3.2,0-4c12.8-8.8,20.8-23.2,20.8-40l0.8-71.2c0-27.2-21.6-48.8-48.8-48.8h-36"/>
</g>
<path style="fill:#08446D;" d="M87.2,120c21.6,0,39.2-22.4,39.2-50.4S108.8,32,87.2,32S48,42.4,48,69.6C48,97.6,65.6,120,87.2,120z"
	/>
<path style="fill:#00233F;" d="M87.2,120c21.6,0,39.2-22.4,39.2-50.4S108.8,32,87.2,32"/>
<path style="fill:#08446D;" d="M106.4,129.6h-36c-27.2,0-48.8,21.6-48.8,48.8l-0.8,71.2c0,16.8,8,31.2,20.8,40c0,1.6-0.8,2.4-0.8,4
	L40,446.4c0,11.2,8.8,20.8,20,20.8s20.8-8.8,20.8-20l0.8-104h11.2l-0.8,104c0,11.2,8.8,20.8,20,20.8s20.8-8.8,20.8-20l0.8-152.8
	c0-1.6,0-3.2,0-4c12.8-8.8,20.8-23.2,20.8-40l0.8-71.2C155.2,152,132.8,129.6,106.4,129.6z"/>
<g>
	<path style="fill:#00233F;" d="M80.8,446.4l0.8-104h11.2l-0.8,104c0,11.2,8.8,20.8,20,20.8s20.8-8.8,20.8-20l0.8-152.8
		c0-1.6,0-3.2,0-4c12.8-8.8,20.8-24,20.8-40V180c0-27.2-21.6-48.8-48.8-48.8h-36"/>
</g>
<g>
</g>
<g>
</g>
<g>
</g>
<g>
</g>
<g>
</g>
<g>
</g>
<g>
</g>
<g>
</g>
<g>
</g>
<g>
</g>
<g>
</g>
<g>
</g>
<g>
</g>
<g>
</g>
<g>
</g>
</svg>
