<?xml version="1.0" encoding="iso-8859-1"?>
<!-- Generator: Adobe Illustrator 19.0.0, SVG Export Plug-In . SVG Version: 6.00 Build 0)  -->
<svg version="1.1" id="Layer_1" xmlns="http://www.w3.org/2000/svg" xmlns:xlink="http://www.w3.org/1999/xlink" x="0px" y="0px"
	 viewBox="0 0 492 492" style="enable-background:new 0 0 492 492;" xml:space="preserve">
<circle style="fill:#24966A;" cx="246" cy="91.2" r="91.2"/>
<path style="fill:#006D49;" d="M310.8,26.4c36,36,36,93.6,0,128.8c-36,36-93.6,36-128.8,0"/>
<circle style="fill:#24966A;" cx="74" cy="441.6" r="50.4"/>
<path style="fill:#006D49;" d="M109.2,406.4c19.2,19.2,19.2,51.2,0,70.4C90,496,58,496,38.8,476.8"/>
<circle style="fill:#24966A;" cx="246" cy="441.6" r="50.4"/>
<path style="fill:#006D49;" d="M281.2,406.4c19.2,19.2,19.2,51.2,0,70.4c-19.2,19.2-51.2,19.2-70.4,0"/>
<circle style="fill:#24966A;" cx="418" cy="441.6" r="50.4"/>
<path style="fill:#006D49;" d="M454,406.4c19.2,19.2,19.2,51.2,0,70.4c-19.2,19.2-51.2,19.2-70.4,0"/>
<polygon style="fill:#EAAD34;" points="246,39.2 262.8,73.6 300.4,79.2 273.2,105.6 279.6,142.4 246,124.8 212.4,142.4 218.8,105.6 
	191.6,79.2 229.2,73.6 "/>
<g>
	<polygon style="fill:#EA8D1F;" points="246,39.2 262.8,73.6 300.4,79.2 273.2,105.6 279.6,142.4 254,116.8 212.4,142.4 233.2,104 
		191.6,79.2 242,78.4 	"/>
	<path style="fill:#EA8D1F;" d="M254,286.4c0,4-3.2,7.2-7.2,7.2h-1.6c-4,0-7.2-3.2-7.2-7.2v-81.6c0-4,3.2-7.2,7.2-7.2h1.6
		c4,0,7.2,3.2,7.2,7.2V286.4z"/>
	<path style="fill:#EA8D1F;" d="M78,366.4c0,4-3.2,7.2-7.2,7.2h-1.6c-4,0-7.2-3.2-7.2-7.2v-81.6c0-4,3.2-7.2,7.2-7.2h1.6
		c4,0,7.2,3.2,7.2,7.2C78,284.8,78,366.4,78,366.4z"/>
	<path style="fill:#EA8D1F;" d="M430,366.4c0,4-3.2,7.2-7.2,7.2h-1.6c-4,0-7.2-3.2-7.2-7.2v-81.6c0-4,3.2-7.2,7.2-7.2h1.6
		c4,0,7.2,3.2,7.2,7.2V366.4z"/>
	<path style="fill:#EA8D1F;" d="M254,366.4c0,4-3.2,7.2-7.2,7.2h-1.6c-4,0-7.2-3.2-7.2-7.2v-81.6c0-4,3.2-7.2,7.2-7.2h1.6
		c4,0,7.2,3.2,7.2,7.2V366.4z"/>
	<path style="fill:#EA8D1F;" d="M430,286.4c0,4-3.2,7.2-7.2,7.2H69.2c-4,0-7.2-3.2-7.2-7.2v-1.6c0-4,3.2-7.2,7.2-7.2h353.6
		c4,0,7.2,3.2,7.2,7.2V286.4z"/>
</g>
<g>
</g>
<g>
</g>
<g>
</g>
<g>
</g>
<g>
</g>
<g>
</g>
<g>
</g>
<g>
</g>
<g>
</g>
<g>
</g>
<g>
</g>
<g>
</g>
<g>
</g>
<g>
</g>
<g>
</g>
</svg>
