<?xml version="1.0" encoding="iso-8859-1"?>
<!-- Generator: Adobe Illustrator 19.0.0, SVG Export Plug-In . SVG Version: 6.00 Build 0)  -->
<svg version="1.1" id="Layer_1" xmlns="http://www.w3.org/2000/svg" xmlns:xlink="http://www.w3.org/1999/xlink" x="0px" y="0px"
	 viewBox="0 0 496 496" style="enable-background:new 0 0 496 496;" xml:space="preserve">
<path style="fill:#32AAC6;" d="M108,24c7.2,88,67.2,223.2,140,223.2S380.8,112,388,24H108z"/>
<path style="fill:#1589AD;" d="M246.4,247.2C319.2,247.2,380.8,112,388,24H240"/>
<path style="fill:#EFB143;" d="M125.6,104c24,72,68.8,143.2,122.4,143.2c52,0,96.8-71.2,121.6-143.2H125.6z"/>
<path style="fill:#E28413;" d="M252,247.2c48.8,0,94.4-71.2,118.4-143.2H200"/>
<path style="fill:#32AAC6;" d="M406.4,11.2c0,6.4-7.2,12.8-13.6,12.8H103.2c-6.4,0-13.6-6.4-13.6-12.8l0,0C89.6,4.8,96,0,103.2,0
	h290.4C400,0,406.4,4.8,406.4,11.2L406.4,11.2z"/>
<path style="fill:#1589AD;" d="M406.4,11.2L406.4,11.2c0,7.2-6.4,12.8-13.6,12.8H103.2c-7.2,0-13.6-5.6-13.6-12.8l0,0"/>
<path style="fill:#E28413;" d="M388,472c-7.2-88-67.2-223.2-140-223.2S115.2,384,108,472H388z"/>
<path style="fill:#EFB143;" d="M249.6,248.8C176.8,248.8,115.2,384,108,472h148"/>
<path style="fill:#1589AD;" d="M370.4,392c-24-72-68-143.2-122.4-143.2c-52,0-96.8,71.2-121.6,143.2H370.4z"/>
<path style="fill:#32AAC6;" d="M248,248.8c-56,0-98.4,71.2-122.4,143.2H296"/>
<path style="fill:#1589AD;" d="M89.6,484c0-7.2,6.4-12,13.6-12h289.6c7.2,0,13.6,4.8,13.6,12l0,0c0,7.2-6.4,12-13.6,12H103.2
	C96,496,89.6,491.2,89.6,484L89.6,484z"/>
<path style="fill:#32AAC6;" d="M89.6,484.8L89.6,484.8c0-7.2,6.4-12.8,13.6-12.8h289.6c7.2,0,13.6,5.6,13.6,12.8l0,0"/>
<path style="fill:#EFB143;" d="M256,353.6c0,4.8-3.2,8-8,8l0,0c-4.8,0-8-4-8-8V246.4c0-4.8,3.2-8,8-8l0,0c4.8,0,8,4,8,8V353.6z"/>
<path style="fill:#E28413;" d="M248,238.4L248,238.4c4.8,0,8,4,8,8v112c0,4.8-4,8-8,8l0,0"/>
<circle style="fill:#EFB143;" cx="248" cy="368.8" r="18.4"/>
<path style="fill:#E28413;" d="M260.8,356c7.2,7.2,7.2,18.4,0,25.6s-18.4,7.2-25.6,0"/>
<g>
</g>
<g>
</g>
<g>
</g>
<g>
</g>
<g>
</g>
<g>
</g>
<g>
</g>
<g>
</g>
<g>
</g>
<g>
</g>
<g>
</g>
<g>
</g>
<g>
</g>
<g>
</g>
<g>
</g>
</svg>
