<?xml version="1.0" encoding="iso-8859-1"?>
<!-- Generator: Adobe Illustrator 19.0.0, SVG Export Plug-In . SVG Version: 6.00 Build 0)  -->
<svg version="1.1" id="Layer_1" xmlns="http://www.w3.org/2000/svg" xmlns:xlink="http://www.w3.org/1999/xlink" x="0px" y="0px"
	 viewBox="0 0 497.6 497.6" style="enable-background:new 0 0 497.6 497.6;" xml:space="preserve">
<polygon style="fill:#1C71A0;" points="185.6,396 130.4,497.6 336.8,497.6 336.8,274.4 "/>
<polygon style="fill:#114A70;" points="185.6,396 252,410.4 336.8,497.6 336.8,274.4 "/>
<path style="fill:#1C71A0;" d="M92,304.8c0,65.6,5.6,118.4,71.2,118.4h55.2c64.8,0,118.4-52.8,118.4-118.4v-82.4
	c0-65.6-52.8-118.4-118.4-118.4h-8C144.8,104,92,144.8,92,210.4C92,210.4,92,304.8,92,304.8z"/>
<g>
	<path style="fill:#114A70;" d="M163.2,423.2h55.2c64.8,0,118.4-52.8,118.4-118.4v-82.4c0-65.6-52.8-118.4-118.4-118.4h-8
		C144.8,104,92,144.8,92,210.4v94.4"/>
	<polygon style="fill:#114A70;" points="210.4,334.4 210.4,176.8 96.8,176.8 52.8,334.4 	"/>
</g>
<path style="fill:#FFFFFF;" d="M177.6,239.2c0,10.4-8.8,19.2-19.2,19.2s-19.2-8.8-19.2-19.2L177.6,239.2L177.6,239.2z"/>
<path style="fill:#F9BE2B;" d="M429.6,218.4c0-48.8-47.2-88.8-105.6-88.8s-105.6,40-105.6,88.8c0,12.8,3.2,25.6,9.6,36.8l0,0
	l43.2,58.4l0,0v25.6c0,24.8,24,44.8,52.8,44.8c29.6,0,52.8-20,52.8-44.8v-25.6l0,0l43.2-58.4l0,0C426.4,244,429.6,231.2,429.6,218.4
	z"/>
<path style="fill:#F29233;" d="M324.8,384c29.6,0,52.8-20,52.8-44.8v-25.6l0,0l43.2-58.4l0,0c6.4-11.2,9.6-23.2,9.6-36.8
	c0-48.8-47.2-88.8-105.6-88.8"/>
<path style="fill:#1C71A0;" d="M287.2,365.6v35.2c0,7.2,6.4,13.6,13.6,13.6H348c7.2,0,13.6-6.4,13.6-13.6v-35.2H287.2z"/>
<path style="fill:#114A70;" d="M348,414.4c7.2,0,13.6-6.4,13.6-13.6v-35.2h-74.4"/>
<g>
	<path style="fill:#66B2D3;" d="M360.8,377.6c0,1.6-0.8,2.4-2.4,2.4h-68c-1.6,0-2.4-0.8-2.4-2.4l0,0c0-1.6,0.8-2.4,2.4-2.4h68
		C360,375.2,360.8,376,360.8,377.6L360.8,377.6z"/>
	<path style="fill:#66B2D3;" d="M360.8,390.4c0,1.6-0.8,2.4-2.4,2.4h-68c-1.6,0-2.4-0.8-2.4-2.4l0,0c0-1.6,0.8-2.4,2.4-2.4h68
		C360,388,360.8,388.8,360.8,390.4L360.8,390.4z"/>
	<path style="fill:#66B2D3;" d="M360.8,403.2c0,1.6-0.8,2.4-2.4,2.4h-68c-1.6,0-2.4-0.8-2.4-2.4l0,0c0-1.6,0.8-2.4,2.4-2.4h68
		C360,400.8,360.8,401.6,360.8,403.2L360.8,403.2z"/>
</g>
<path style="fill:#24966A;" d="M316,312v-15.2c-10.4-0.8-20.8-3.2-27.2-6.4l4.8-18.4c6.4,4,16,7.2,26.4,7.2c8.8,0,15.2-3.2,15.2-9.6
	s-4.8-9.6-16.8-13.6c-16.8-5.6-28.8-13.6-28.8-28.8c0-13.6,9.6-24.8,26.4-28V184h15.2v13.6c10.4,0.8,17.6,2.4,23.2,5.6l-4.8,17.6
	c-4-1.6-11.2-5.6-23.2-5.6c-10.4,0-13.6,4.8-13.6,8.8c0,5.6,5.6,8.8,19.2,13.6c19.2,6.4,26.4,15.2,26.4,29.6
	c0,14.4-10.4,26.4-28,29.6v16H316V312z"/>
<g>
	<path style="fill:#F29233;" d="M332,89.6c0,4-3.2,7.2-7.2,7.2l0,0c-4,0-7.2-3.2-7.2-7.2V7.2c0-4,3.2-7.2,7.2-7.2l0,0
		c4,0,7.2,3.2,7.2,7.2V89.6z"/>
	<path style="fill:#F29233;" d="M384,105.6c-3.2,3.2-7.2,3.2-10.4,0l0,0c-3.2-3.2-3.2-7.2,0-10.4L432,36.8c3.2-3.2,7.2-3.2,10.4,0
		l0,0c3.2,3.2,3.2,7.2,0,10.4L384,105.6z"/>
	<path style="fill:#F29233;" d="M264.8,105.6c3.2,3.2,7.2,3.2,10.4,0l0,0c3.2-3.2,3.2-7.2,0-10.4l-58.4-58.4
		c-3.2-3.2-7.2-3.2-10.4,0l0,0c-3.2,3.2-3.2,7.2,0,10.4L264.8,105.6z"/>
</g>
<g>
</g>
<g>
</g>
<g>
</g>
<g>
</g>
<g>
</g>
<g>
</g>
<g>
</g>
<g>
</g>
<g>
</g>
<g>
</g>
<g>
</g>
<g>
</g>
<g>
</g>
<g>
</g>
<g>
</g>
</svg>
