<?xml version="1.0" encoding="iso-8859-1"?>
<!-- Generator: Adobe Illustrator 19.0.0, SVG Export Plug-In . SVG Version: 6.00 Build 0)  -->
<svg version="1.1" id="Layer_1" xmlns="http://www.w3.org/2000/svg" xmlns:xlink="http://www.w3.org/1999/xlink" x="0px" y="0px"
	 viewBox="0 0 494.4 494.4" style="enable-background:new 0 0 494.4 494.4;" xml:space="preserve">
<g>
	<path style="fill:#F9BDA0;" d="M252.8,423.135c-38.4,0-68.8-35.2-68.8-76.8v-50.4c0-40.8,30.4-72.8,68.8-72.8h116
		c38.4,0,71.2,32,71.2,72.8v50.4c0,40.8-32,76.8-71.2,76.8H252.8z"/>
	<path style="fill:#F9BDA0;" d="M256.8,423.135c-14.4,0-26.4-13.6-26.4-28l0,0c0-14.4,12-28,26.4-28h185.6c14.4,0,26.4,13.6,26.4,28
		l0,0c0,14.4-12,28-26.4,28H256.8z"/>
	<path style="fill:#F9BDA0;" d="M253.6,327.135c-14.4,0-26.4-13.6-26.4-28l0,0c0-14.4,12-28,26.4-28H468c14.4,0,26.4,13.6,26.4,28
		l0,0c0,14.4-12,28-26.4,28H253.6z"/>
	<path style="fill:#F9BDA0;" d="M248,375.135c-14.4,0-26.4-13.6-26.4-28l0,0c0-14.4,12-28,26.4-28h214.4c14.4,0,26.4,13.6,26.4,28
		l0,0c0,14.4-12,28-26.4,28H248z"/>
	<path style="fill:#F9BDA0;" d="M238.4,271.135c-14.4,0-26.4-9.6-26.4-24l0,0c0-14.4,12-24,26.4-24h214.4c14.4,0,26.4,9.6,26.4,24
		l0,0c0,14.4-12,24-26.4,24H238.4z"/>
	<path style="fill:#F9BDA0;" d="M182.4,256.735c0,0,62.4-81.6,68.8-87.2c6.4-5.6,53.6,0.8,45.6,28.8s-45.6,50.4-45.6,50.4
		L182.4,256.735z"/>
</g>
<rect x="168" y="223.135" style="fill:#102D35;" width="32" height="192"/>
<polyline style="fill:#0D4C5B;" points="168,223.135 200,223.135 200,415.135 "/>
<rect y="207.135" style="fill:#1589AD;" width="184" height="216"/>
<polyline style="fill:#1EA4C4;" points="0,207.135 184,207.135 184,423.135 "/>
<g>
	<circle style="fill:#FFC114;" cx="121.6" cy="315.135" r="17.6"/>
	<path style="fill:#FFC114;" d="M61.6,315.135c0,9.6-8,17.6-17.6,17.6s-17.6-8-17.6-17.6s8-17.6,17.6-17.6
		C54.4,297.535,61.6,305.535,61.6,315.135z"/>
</g>
<path style="fill:#F9BDA0;" d="M245.6,176.735c0,0,18.4-29.6,29.6-45.6s21.6-55.2,21.6-58.4s34.4-5.6,29.6,43.2
	c-4.8,49.6-24,60-24.8,74.4c-1.6,14.4,15.2,28.8,38.4,31.2l-15.2,12.8l-47.2,12.8l-45.6-6.4L245.6,176.735z"/>
<g>
</g>
<g>
</g>
<g>
</g>
<g>
</g>
<g>
</g>
<g>
</g>
<g>
</g>
<g>
</g>
<g>
</g>
<g>
</g>
<g>
</g>
<g>
</g>
<g>
</g>
<g>
</g>
<g>
</g>
</svg>
