<?xml version="1.0" encoding="iso-8859-1"?>
<!-- Generator: Adobe Illustrator 19.0.0, SVG Export Plug-In . SVG Version: 6.00 Build 0)  -->
<svg version="1.1" id="Layer_1" xmlns="http://www.w3.org/2000/svg" xmlns:xlink="http://www.w3.org/1999/xlink" x="0px" y="0px"
	 viewBox="0 0 498.4 498.4" style="enable-background:new 0 0 498.4 498.4;" xml:space="preserve">
<g>
	<polygon style="fill:#102D35;" points="487.6,108.8 377.2,106.4 378.8,0 487.6,0 	"/>
	<polygon style="fill:#102D35;" points="398,169.6 318.8,89.6 378.8,0 487.6,108.8 	"/>
</g>
<path style="fill:#EFA91B;" d="M386.8,192.8l-92-92L158,145.6L70,380.8l6.4,6.4l100.8-100.8c-5.6-13.6-2.4-30.4,8.8-41.6
	c15.2-15.2,40-15.2,55.2,0c15.2,15.2,15.2,40,0,55.2c-11.2,11.2-27.2,14.4-41.6,8.8l-99.2,101.6l6.4,6.4l235.2-88L386.8,192.8z"/>
<path style="fill:#D88F0E;" d="M187.6,245.6c15.2-15.2,40-15.2,55.2,0c15.2,15.2,15.2,40,0,55.2c-11.2,11.2-27.2,14.4-41.6,8.8
	L100.4,410.4l6.4,6.4l235.2-88L386.8,192l-92-91.2"/>
<polyline style="fill:#BC7400;" points="342,329.6 386.8,192.8 294.8,100.8 "/>
<path style="fill:#1EA4C4;" d="M428.4,197.6c-13.6,13.6-35.2,13.6-48.8,0l-88.8-88.8c-13.6-13.6-13.6-35.2,0-48.8l0,0
	c13.6-13.6,35.2-13.6,48.8,0l88.8,88.8C442,161.6,442,184,428.4,197.6L428.4,197.6z"/>
<path style="fill:#0C7FA3;" d="M428.4,197.6L428.4,197.6c-13.6,13.6-35.2,13.6-48.8,0l-88.8-88.8c-13.6-13.6-13.6-35.2,0-48.8l0,0"
	/>
<g>
	<path style="fill:#0F2D35;" d="M470.8,498.4h-412c-26.4,0-48-20-48-46.4s21.6-47.2,48-47.2c6.4,0,12,5.6,12,12s-5.6,12-12,12
		c-13.6,0-24,9.6-24,22.4s10.4,22.4,24,22.4h412c6.4,0,12,5.6,12,12S477.2,498.4,470.8,498.4z"/>
	<circle style="fill:#0F2D35;" cx="68.4" cy="417.6" r="16.8"/>
</g>
<g>
</g>
<g>
</g>
<g>
</g>
<g>
</g>
<g>
</g>
<g>
</g>
<g>
</g>
<g>
</g>
<g>
</g>
<g>
</g>
<g>
</g>
<g>
</g>
<g>
</g>
<g>
</g>
<g>
</g>
</svg>
