<?xml version="1.0" encoding="iso-8859-1"?>
<!-- Generator: Adobe Illustrator 19.0.0, SVG Export Plug-In . SVG Version: 6.00 Build 0)  -->
<svg version="1.1" id="Layer_1" xmlns="http://www.w3.org/2000/svg" xmlns:xlink="http://www.w3.org/1999/xlink" x="0px" y="0px"
	 viewBox="0 0 496 496" style="enable-background:new 0 0 496 496;" xml:space="preserve">
<path style="fill:#AF1909;" d="M120,238.4c-44,0-80-35.2-80-79.2V80c0-44.8,36-80,80-80s80,35.2,80,79.2v79.2
	C200,202.4,164,238.4,120,238.4z M120,49.6c-16.8,0-32,13.6-32,30.4v79.2c0,16.8,15.2,30.4,32,30.4s32-13.6,32-30.4V80
	C152,62.4,136.8,49.6,120,49.6z"/>
<path style="fill:#6D0500;" d="M152,115.2v43.2c0,16.8-13.6,30.4-30.4,30.4c-12,0-24-4.8-28.8-15.2l-36,32.8
	c14.4,18.4,39.2,31.2,64.8,31.2c44,0,79.2-35.2,79.2-79.2V79.2c0-4-0.8-10.4-1.6-14.4L152,115.2z"/>
<path style="fill:#AF1909;" d="M376,496c-44,0-80-35.2-80-79.2v-79.2c0-44,36-79.2,80-79.2s80,35.2,80,79.2v79.2
	C456,460.8,420,496,376,496z M380,307.2c-16.8,0-28,13.6-28,30.4v79.2c0,16.8,11.2,30.4,28,30.4s28-13.6,28-30.4v-79.2
	C408,320.8,396.8,307.2,380,307.2z"/>
<path style="fill:#6D0500;" d="M408,373.6v43.2c0,16.8-12.8,30.4-29.6,30.4c-12,0-20-9.6-24.8-19.2l-39.2,39.2
	c14.4,18.4,38.4,28.8,63.2,28.8c44,0,78.4-35.2,78.4-79.2v-79.2c0-4-0.8-10.4-1.6-14.4L408,373.6z"/>
<polygon style="fill:#23C181;" points="488,164 488,8 334.4,8 396,71.2 260,208 208,208 208,257.6 57.6,408 8,408 8,496 88,496 
	88,440 240,288 288,288 288,238.4 424.8,102.4 "/>
<polyline style="fill:#24966A;" points="8,496 88,496 88,440 240,288 288,288 288,238.4 424.8,102.4 488,164 488,8 "/>
<g>
</g>
<g>
</g>
<g>
</g>
<g>
</g>
<g>
</g>
<g>
</g>
<g>
</g>
<g>
</g>
<g>
</g>
<g>
</g>
<g>
</g>
<g>
</g>
<g>
</g>
<g>
</g>
<g>
</g>
</svg>
