<?xml version="1.0" encoding="iso-8859-1"?>
<!-- Generator: Adobe Illustrator 19.0.0, SVG Export Plug-In . SVG Version: 6.00 Build 0)  -->
<svg version="1.1" id="Layer_1" xmlns="http://www.w3.org/2000/svg" xmlns:xlink="http://www.w3.org/1999/xlink" x="0px" y="0px"
	 viewBox="0 0 489.82 489.82" style="enable-background:new 0 0 489.82 489.82;" xml:space="preserve">
<g>
	<rect x="125.02" y="381.31" style="fill:#750C41;" width="80" height="96"/>
	<rect x="277.02" y="381.31" style="fill:#750C41;" width="72" height="96"/>
	<path style="fill:#750C41;" d="M193.82,214.91c-3.2,32.8-47.2,54.4-96.8,48.8s-100.8-52-96.8-84.8c3.2-32.8,60-38.4,110.4-32.8
		C160.22,151.71,197.82,182.91,193.82,214.91z"/>
</g>
<path style="fill:#EF378B;" d="M457.02,312.51c0,98.4-92.8,124.8-207.2,124.8s-207.2-26.4-207.2-124.8
	c0-99.2,92.8-179.2,207.2-179.2S457.02,213.31,457.02,312.51z"/>
<path style="fill:#D61E69;" d="M457.02,318.91c0,93.6-92.8,118.4-207.2,118.4s-207.2-24.8-207.2-118.4s92.8-169.6,207.2-169.6
	S457.02,225.31,457.02,318.91z"/>
<path style="fill:#C61867;" d="M457.02,312.51c4.8,100-92.8,124.8-207.2,124.8s-207.2-26.4-207.2-124.8"/>
<rect x="317.02" y="381.31" style="fill:#EF378B;" width="72" height="96"/>
<g>
	<polyline style="fill:#D61E69;" points="317.02,381.31 389.02,381.31 389.02,477.31 	"/>
	<ellipse style="fill:#D61E69;" cx="145.02" cy="359.71" rx="101.6" ry="65.6"/>
	<path style="fill:#D61E69;" d="M261.02,217.31c-8,35.2-58.4,54.4-112.8,43.2c-54.4-11.2-105.6-69.6-98.4-104.8
		c8-35.2,70.4-35.2,125.6-23.2S268.22,182.11,261.02,217.31z"/>
</g>
<path style="fill:#EF378B;" d="M49.82,155.71c8-35.2,70.4-35.2,125.6-23.2s92.8,49.6,85.6,84.8"/>
<ellipse style="fill:#D61E69;" cx="43.42" cy="329.31" rx="28" ry="52"/>
<ellipse style="fill:#EF599D;" cx="32.22" cy="329.31" rx="16.8" ry="52"/>
<ellipse style="fill:#C61867;" cx="29.82" cy="326.91" rx="5.6" ry="24"/>
<circle style="fill:#63113A;" cx="99.42" cy="261.31" r="8"/>
<circle style="fill:#841E56;" cx="97.82" cy="258.11" r="4"/>
<ellipse style="fill:#EF378B;" cx="168.22" cy="318.91" rx="44.8" ry="17.6"/>
<path style="fill:#D61E69;" d="M486.62,301.31c0,4-3.2,8-7.2,8h-63.2c-4,0-7.2-4-7.2-8l0,0c0-4,3.2-8,7.2-8h63.2
	C483.42,293.31,486.62,297.31,486.62,301.31L486.62,301.31z"/>
<path style="fill:#EF378B;" d="M341.82,178.11c0,21.6-30.4,39.2-68.8,39.2c-37.6,0-68.8-17.6-68.8-39.2s30.4-39.2,68.8-39.2
	C310.62,138.91,341.82,156.51,341.82,178.11z"/>
<path style="fill:#D61E69;" d="M319.42,161.31c0,2.4-1.6,4-3.2,4h-80c-1.6,0-3.2-1.6-3.2-4l0,0c0-2.4,1.6-4,3.2-4h80
	C317.82,157.31,319.42,158.91,319.42,161.31L319.42,161.31z"/>
<path style="fill:#63113A;" d="M319.42,169.31c0,2.4-1.6,4-3.2,4h-80c-1.6,0-3.2-1.6-3.2-4l0,0c0-2.4,1.6-4,3.2-4h80
	C317.82,165.31,319.42,166.91,319.42,169.31L319.42,169.31z"/>
<rect x="165.02" y="381.31" style="fill:#EF378B;" width="72" height="96"/>
<polyline style="fill:#D61E69;" points="165.02,381.31 237.02,381.31 237.02,477.31 "/>
<circle style="fill:#B5750F;" cx="272.22" cy="118.11" r="44.8"/>
<circle style="fill:#DD981D;" cx="272.22" cy="112.51" r="44.8"/>
<path style="fill:#CE8106;" d="M272.22,67.71c24.8,0,44.8,20,44.8,44.8s-20,44.8-44.8,44.8"/>
<circle style="fill:#EFB65B;" cx="272.22" cy="112.51" r="28.8"/>
<path style="fill:#E2A750;" d="M293.02,92.51c11.2,11.2,11.2,29.6,0,40.8s-29.6,11.2-40.8,0"/>
<circle style="fill:#B5750F;" cx="362.62" cy="63.71" r="44.8"/>
<circle style="fill:#DD981D;" cx="358.62" cy="59.71" r="44.8"/>
<path style="fill:#CE8106;" d="M326.62,27.71c17.6-17.6,46.4-17.6,64,0s17.6,46.4,0,64"/>
<circle style="fill:#EFB65B;" cx="358.62" cy="59.71" r="28.8"/>
<path style="fill:#E2A750;" d="M358.62,30.91c16,0,28.8,12.8,28.8,28.8s-12.8,28.8-28.8,28.8"/>
<circle style="fill:#B5750F;" cx="459.42" cy="42.91" r="30.4"/>
<circle style="fill:#DD981D;" cx="455.42" cy="42.91" r="30.4"/>
<path style="fill:#CE8106;" d="M425.02,42.91c0-16.8,13.6-30.4,30.4-30.4s30.4,13.6,30.4,30.4"/>
<circle style="fill:#EFB65B;" cx="455.42" cy="42.91" r="20"/>
<path style="fill:#E2A750;" d="M441.82,28.51c8-8,20-8,28,0s8,20,0,28"/>
<g>
</g>
<g>
</g>
<g>
</g>
<g>
</g>
<g>
</g>
<g>
</g>
<g>
</g>
<g>
</g>
<g>
</g>
<g>
</g>
<g>
</g>
<g>
</g>
<g>
</g>
<g>
</g>
<g>
</g>
</svg>
