<?xml version="1.0" encoding="iso-8859-1"?>
<!-- Generator: Adobe Illustrator 19.0.0, SVG Export Plug-In . SVG Version: 6.00 Build 0)  -->
<svg version="1.1" id="Layer_1" xmlns="http://www.w3.org/2000/svg" xmlns:xlink="http://www.w3.org/1999/xlink" x="0px" y="0px"
	 viewBox="0 0 496 496" style="enable-background:new 0 0 496 496;" xml:space="preserve">
<g style="opacity:0.2;">
	<circle style="fill:#102D35;" cx="44" cy="29.2" r="7.2"/>
	<circle style="fill:#102D35;" cx="89.6" cy="29.2" r="7.2"/>
	<circle style="fill:#102D35;" cx="134.4" cy="29.2" r="7.2"/>
	<circle style="fill:#102D35;" cx="180" cy="29.2" r="7.2"/>
	<circle style="fill:#102D35;" cx="225.6" cy="29.2" r="7.2"/>
	<circle style="fill:#102D35;" cx="270.4" cy="29.2" r="7.2"/>
	<circle style="fill:#102D35;" cx="316" cy="29.2" r="7.2"/>
	<circle style="fill:#102D35;" cx="361.6" cy="29.2" r="7.2"/>
	<circle style="fill:#102D35;" cx="406.4" cy="29.2" r="7.2"/>
	<circle style="fill:#102D35;" cx="452" cy="29.2" r="7.2"/>
	<circle style="fill:#102D35;" cx="44" cy="71.6" r="7.2"/>
	<circle style="fill:#102D35;" cx="89.6" cy="71.6" r="7.2"/>
	<circle style="fill:#102D35;" cx="134.4" cy="71.6" r="7.2"/>
	<circle style="fill:#102D35;" cx="180" cy="71.6" r="7.2"/>
	<circle style="fill:#102D35;" cx="225.6" cy="71.6" r="7.2"/>
	<circle style="fill:#102D35;" cx="270.4" cy="71.6" r="7.2"/>
	<circle style="fill:#102D35;" cx="316" cy="71.6" r="7.2"/>
	<circle style="fill:#102D35;" cx="361.6" cy="71.6" r="7.2"/>
	<circle style="fill:#102D35;" cx="406.4" cy="71.6" r="7.2"/>
	<circle style="fill:#102D35;" cx="452" cy="71.6" r="7.2"/>
	<circle style="fill:#102D35;" cx="44" cy="113.2" r="7.2"/>
	<circle style="fill:#102D35;" cx="89.6" cy="113.2" r="7.2"/>
	<circle style="fill:#102D35;" cx="134.4" cy="113.2" r="7.2"/>
	<circle style="fill:#102D35;" cx="180" cy="113.2" r="7.2"/>
	<circle style="fill:#102D35;" cx="225.6" cy="113.2" r="7.2"/>
	<circle style="fill:#102D35;" cx="270.4" cy="113.2" r="7.2"/>
	<circle style="fill:#102D35;" cx="316" cy="113.2" r="7.2"/>
	<circle style="fill:#102D35;" cx="361.6" cy="113.2" r="7.2"/>
	<circle style="fill:#102D35;" cx="406.4" cy="113.2" r="7.2"/>
	<circle style="fill:#102D35;" cx="452" cy="113.2" r="7.2"/>
	<circle style="fill:#102D35;" cx="44" cy="155.6" r="7.2"/>
	<circle style="fill:#102D35;" cx="89.6" cy="155.6" r="7.2"/>
	<circle style="fill:#102D35;" cx="134.4" cy="155.6" r="7.2"/>
	<circle style="fill:#102D35;" cx="180" cy="155.6" r="7.2"/>
	<circle style="fill:#102D35;" cx="225.6" cy="155.6" r="7.2"/>
	<circle style="fill:#102D35;" cx="270.4" cy="155.6" r="7.2"/>
	<circle style="fill:#102D35;" cx="316" cy="155.6" r="7.2"/>
	<circle style="fill:#102D35;" cx="361.6" cy="155.6" r="7.2"/>
	<circle style="fill:#102D35;" cx="406.4" cy="155.6" r="7.2"/>
	<circle style="fill:#102D35;" cx="452" cy="155.6" r="7.2"/>
	<circle style="fill:#102D35;" cx="44" cy="197.2" r="7.2"/>
	<circle style="fill:#102D35;" cx="89.6" cy="197.2" r="7.2"/>
	<circle style="fill:#102D35;" cx="134.4" cy="197.2" r="7.2"/>
	<circle style="fill:#102D35;" cx="180" cy="197.2" r="7.2"/>
	<circle style="fill:#102D35;" cx="225.6" cy="197.2" r="7.2"/>
	<circle style="fill:#102D35;" cx="270.4" cy="197.2" r="7.2"/>
	<circle style="fill:#102D35;" cx="316" cy="197.2" r="7.2"/>
	<circle style="fill:#102D35;" cx="361.6" cy="197.2" r="7.2"/>
	<circle style="fill:#102D35;" cx="406.4" cy="197.2" r="7.2"/>
	<circle style="fill:#102D35;" cx="452" cy="197.2" r="7.2"/>
	<circle style="fill:#102D35;" cx="44" cy="239.6" r="7.2"/>
	<circle style="fill:#102D35;" cx="89.6" cy="239.6" r="7.2"/>
	<circle style="fill:#102D35;" cx="134.4" cy="239.6" r="7.2"/>
	<circle style="fill:#102D35;" cx="180" cy="239.6" r="7.2"/>
	<circle style="fill:#102D35;" cx="225.6" cy="239.6" r="7.2"/>
	<circle style="fill:#102D35;" cx="270.4" cy="239.6" r="7.2"/>
	<circle style="fill:#102D35;" cx="316" cy="239.6" r="7.2"/>
	<circle style="fill:#102D35;" cx="361.6" cy="239.6" r="7.2"/>
	<circle style="fill:#102D35;" cx="406.4" cy="239.6" r="7.2"/>
	<circle style="fill:#102D35;" cx="452" cy="239.6" r="7.2"/>
	<circle style="fill:#102D35;" cx="44" cy="282" r="7.2"/>
	<circle style="fill:#102D35;" cx="89.6" cy="282" r="7.2"/>
	<circle style="fill:#102D35;" cx="134.4" cy="282" r="7.2"/>
	<circle style="fill:#102D35;" cx="180" cy="282" r="7.2"/>
	<circle style="fill:#102D35;" cx="225.6" cy="282" r="7.2"/>
	<circle style="fill:#102D35;" cx="270.4" cy="282" r="7.2"/>
	<circle style="fill:#102D35;" cx="316" cy="282" r="7.2"/>
	<circle style="fill:#102D35;" cx="361.6" cy="282" r="7.2"/>
	<circle style="fill:#102D35;" cx="406.4" cy="282" r="7.2"/>
	<circle style="fill:#102D35;" cx="452" cy="282" r="7.2"/>
	<circle style="fill:#102D35;" cx="44" cy="323.6" r="7.2"/>
	<circle style="fill:#102D35;" cx="89.6" cy="323.6" r="7.2"/>
	<circle style="fill:#102D35;" cx="134.4" cy="323.6" r="7.2"/>
	<circle style="fill:#102D35;" cx="180" cy="323.6" r="7.2"/>
	<circle style="fill:#102D35;" cx="225.6" cy="323.6" r="7.2"/>
	<circle style="fill:#102D35;" cx="270.4" cy="323.6" r="7.2"/>
	<circle style="fill:#102D35;" cx="316" cy="323.6" r="7.2"/>
	<circle style="fill:#102D35;" cx="361.6" cy="323.6" r="7.2"/>
	<circle style="fill:#102D35;" cx="406.4" cy="323.6" r="7.2"/>
	<circle style="fill:#102D35;" cx="452" cy="323.6" r="7.2"/>
	<circle style="fill:#102D35;" cx="44" cy="366" r="7.2"/>
	<circle style="fill:#102D35;" cx="89.6" cy="366" r="7.2"/>
	<circle style="fill:#102D35;" cx="134.4" cy="366" r="7.2"/>
	<circle style="fill:#102D35;" cx="180" cy="366" r="7.2"/>
	<circle style="fill:#102D35;" cx="225.6" cy="366" r="7.2"/>
	<circle style="fill:#102D35;" cx="270.4" cy="366" r="7.2"/>
	<circle style="fill:#102D35;" cx="316" cy="366" r="7.2"/>
	<circle style="fill:#102D35;" cx="361.6" cy="366" r="7.2"/>
	<circle style="fill:#102D35;" cx="406.4" cy="366" r="7.2"/>
	<circle style="fill:#102D35;" cx="452" cy="366" r="7.2"/>
	<circle style="fill:#102D35;" cx="44" cy="407.6" r="7.2"/>
	<circle style="fill:#102D35;" cx="89.6" cy="407.6" r="7.2"/>
	<circle style="fill:#102D35;" cx="134.4" cy="407.6" r="7.2"/>
	<circle style="fill:#102D35;" cx="180" cy="407.6" r="7.2"/>
	<circle style="fill:#102D35;" cx="225.6" cy="407.6" r="7.2"/>
	<circle style="fill:#102D35;" cx="270.4" cy="407.6" r="7.2"/>
	<circle style="fill:#102D35;" cx="316" cy="407.6" r="7.2"/>
	<circle style="fill:#102D35;" cx="361.6" cy="407.6" r="7.2"/>
	<circle style="fill:#102D35;" cx="406.4" cy="407.6" r="7.2"/>
	<circle style="fill:#102D35;" cx="452" cy="407.6" r="7.2"/>
</g>
<path style="fill:#719FA3;" d="M496,462c0,6.4-5.6,12-12,12H12c-6.4,0-12-5.6-12-12l0,0c0-6.4,5.6-12,12-12h472
	C490.4,450,496,455.6,496,462L496,462z"/>
<path style="fill:#036089;" d="M236,140.4c24.8,0,44,20,44,44.8V362c0,24.8-19.2,44.8-44,44.8l0,0c-24.8,0-44-20-44-44.8V185.2
	C192,160.4,211.2,140.4,236,140.4L236,140.4z"/>
<path style="fill:#03406D;" d="M190.4,185.2c0-24.8,20-44.8,44.8-44.8l0,0c24.8,0,44.8,20,44.8,44.8V362c0,24.8-20,44.8-44.8,44.8
	l0,0"/>
<path style="fill:#1C9AAF;" d="M267.2,149.2c17.6,17.6,17.6,45.6,0,63.2L84.8,395.6c-17.6,17.6-45.6,17.6-63.2,0l0,0
	C4,378,4,350,21.6,332.4L204,150C220.8,132.4,249.6,132.4,267.2,149.2L267.2,149.2z"/>
<path style="fill:#1589AD;" d="M267.2,149.2L267.2,149.2c17.6,17.6,17.6,45.6,0,63.2L84.8,395.6c-17.6,17.6-45.6,17.6-63.2,0l0,0"/>
<path style="fill:#1C9AAF;" d="M488,113.2l-140,27.2l24.8,24.8L203.2,334c-17.6,17.6-17.6,45.6,0,63.2s45.6,17.6,63.2,0l168.8-168.8
	l24.8,24.8L488,113.2z"/>
<path style="fill:#1589AD;" d="M203.2,397.2c17.6,17.6,45.6,17.6,63.2,0l168.8-168.8l24.8,24.8l28-140"/>
<g>
</g>
<g>
</g>
<g>
</g>
<g>
</g>
<g>
</g>
<g>
</g>
<g>
</g>
<g>
</g>
<g>
</g>
<g>
</g>
<g>
</g>
<g>
</g>
<g>
</g>
<g>
</g>
<g>
</g>
</svg>
