<?xml version="1.0" encoding="iso-8859-1"?>
<!-- Generator: Adobe Illustrator 19.0.0, SVG Export Plug-In . SVG Version: 6.00 Build 0)  -->
<svg version="1.1" id="Layer_1" xmlns="http://www.w3.org/2000/svg" xmlns:xlink="http://www.w3.org/1999/xlink" x="0px" y="0px"
	 viewBox="0 0 491.352 491.352" style="enable-background:new 0 0 491.352 491.352;" xml:space="preserve">
<path style="fill:#24966A;" d="M435.676,6.552c1.6,4.8-1.6,9.6-6.4,10.4l-364,90.4c-4.8,0.8-9.6-1.6-10.4-6.4l0,0
	c-1.6-4.8,1.6-9.6,6.4-10.4l364-90.4C430.076-0.648,434.876,1.752,435.676,6.552L435.676,6.552z"/>
<circle style="fill:#19AACC;" cx="245.276" cy="420.952" r="70.4"/>
<path style="fill:#1589AD;" d="M315.676,420.952c0,39.2-32,70.4-70.4,70.4s-70.4-32-70.4-70.4"/>
<path style="fill:#F4AD31;" d="M261.276,412.152c0,8.8-7.2,17.6-16,17.6l0,0c-8.8,0-16-8.8-16-17.6v-384c0-8.8,6.4-16.8,15.2-16.8
	l0,0c8.8,0,16.8,7.2,16.8,16V412.152z"/>
<path style="fill:#E28413;" d="M244.476,12.152L244.476,12.152c9.6,0,16.8,8,16.8,17.6v382.4c0,9.6-7.2,17.6-17.6,17.6l0,0"/>
<path style="fill:#24966A;" d="M0.476,245.752c0.8,40,33.6,72.8,74.4,72.8s73.6-32.8,74.4-72.8L0.476,245.752L0.476,245.752z"/>
<path style="fill:#007763;" d="M75.676,318.552c40.8,0,72.8-32.8,73.6-72.8h-88"/>
<g>
	<rect x="21.276" y="229.752" style="fill:#E28413;" width="48" height="8"/>
	<rect x="21.276" y="213.752" style="fill:#E28413;" width="48" height="8"/>
	<rect x="21.276" y="197.752" style="fill:#E28413;" width="48" height="8"/>
	<rect x="21.276" y="181.752" style="fill:#E28413;" width="48" height="8"/>
	<rect x="77.276" y="229.752" style="fill:#E28413;" width="48" height="8"/>
	<rect x="77.276" y="213.752" style="fill:#E28413;" width="48" height="8"/>
	<rect x="77.276" y="197.752" style="fill:#E28413;" width="48" height="8"/>
</g>
<path style="fill:#24966A;" d="M341.276,165.752c0.8,40,33.6,72.8,74.4,72.8s73.6-32.8,74.4-72.8H341.276z"/>
<path style="fill:#007763;" d="M414.876,238.552c40.8,0,75.2-32.8,76-72.8h-93.6"/>
<g>
	<rect x="365.276" y="149.752" style="fill:#E28413;" width="48" height="8"/>
	<rect x="421.276" y="149.752" style="fill:#E28413;" width="48" height="8"/>
	<rect x="421.276" y="133.752" style="fill:#E28413;" width="48" height="8"/>
</g>
<g>
</g>
<g>
</g>
<g>
</g>
<g>
</g>
<g>
</g>
<g>
</g>
<g>
</g>
<g>
</g>
<g>
</g>
<g>
</g>
<g>
</g>
<g>
</g>
<g>
</g>
<g>
</g>
<g>
</g>
</svg>
