<?xml version="1.0" encoding="iso-8859-1"?>
<!-- Generator: Adobe Illustrator 19.0.0, SVG Export Plug-In . SVG Version: 6.00 Build 0)  -->
<svg version="1.1" id="Layer_1" xmlns="http://www.w3.org/2000/svg" xmlns:xlink="http://www.w3.org/1999/xlink" x="0px" y="0px"
	 viewBox="0 0 497.8 497.8" style="enable-background:new 0 0 497.8 497.8;" xml:space="preserve">
<circle style="fill:#08476B;" cx="156.8" cy="168.8" r="137.6"/>
<rect x="299.54" y="251.799" transform="matrix(-0.7072 0.7071 -0.7071 -0.7072 768.4462 318.1378)" style="fill:#960253;" width="37.602" height="132.808"/>
<polyline style="fill:#6D0041;" points="257.6,284 284,257.6 378.4,351.2 "/>
<path style="fill:#195F8E;" d="M488.8,446.4c12,12,12,30.4,0,42.4l0,0c-12,12-30.4,12-42.4,0L332.8,375.2c-12-12-12-30.4,0-42.4l0,0
	c12-12,30.4-12,42.4,0L488.8,446.4z"/>
<path style="fill:#08476B;" d="M332.8,332.8L332.8,332.8c12-12,30.4-12,42.4,0l113.6,113.6c12,12,12,30.4,0,42.4l0,0"/>
<path style="fill:#C61867;" d="M48,48c-64,64-64,168,0,232s168,64,232,0s64-168,0-232S112-16,48,48z M252,252
	c-48,48-126.4,48-175.2,0c-48-48-48-126.4,0-175.2c48-48,126.4-48,175.2,0C300,124.8,300,203.2,252,252z"/>
<path style="fill:#EAEAEA;" d="M284.8,160.8c-18.4-40-65.6-71.2-120.8-71.2S61.6,120.8,43.2,160.8H284.8z"/>
<path style="fill:#C4C4C4;" d="M43.2,160.8c18.4,48,65.6,71.2,120.8,71.2s102.4-23.2,120.8-71.2H43.2z"/>
<circle style="fill:#0AA06E;" cx="164" cy="164" r="63.2"/>
<path style="fill:#007C56;" d="M164,100.8c35.2,0,63.2,28,63.2,63.2s-28,63.2-63.2,63.2"/>
<circle style="fill:#5E6664;" cx="164" cy="164" r="28"/>
<path style="fill:#2F423F;" d="M184,144c11.2,11.2,11.2,28.8,0,39.2c-11.2,11.2-28.8,11.2-39.2,0"/>
<g>
	<circle style="fill:#FFFFFF;" cx="146.4" cy="144" r="14.4"/>
	<circle style="fill:#FFFFFF;" cx="184" cy="182.4" r="6.4"/>
</g>
<g>
</g>
<g>
</g>
<g>
</g>
<g>
</g>
<g>
</g>
<g>
</g>
<g>
</g>
<g>
</g>
<g>
</g>
<g>
</g>
<g>
</g>
<g>
</g>
<g>
</g>
<g>
</g>
<g>
</g>
</svg>
