<?xml version="1.0" encoding="iso-8859-1"?>
<!-- Generator: Adobe Illustrator 19.0.0, SVG Export Plug-In . SVG Version: 6.00 Build 0)  -->
<svg version="1.1" id="Layer_1" xmlns="http://www.w3.org/2000/svg" xmlns:xlink="http://www.w3.org/1999/xlink" x="0px" y="0px"
	 viewBox="0 0 489.6 489.6" style="enable-background:new 0 0 489.6 489.6;" xml:space="preserve">
<rect x="52.8" y="108.61" style="fill:#EFA91B;" width="168" height="168"/>
<polyline style="fill:#D38C0D;" points="52.8,108.61 220.8,108.61 220.8,276.61 "/>
<rect x="228.8" y="156.61" style="fill:#EFA91B;" width="96" height="96"/>
<polyline style="fill:#D38C0D;" points="228.8,156.61 324.8,156.61 324.8,252.61 "/>
<rect x="218.582" y="38.439" transform="matrix(-0.7071 -0.7071 0.7071 -0.7071 393.1625 334.1307)" style="fill:#EFA91B;" width="94.399" height="94.399"/>
<polyline style="fill:#D38C0D;" points="265.6,19.01 332.8,85.41 265.6,152.61 "/>
<path style="fill:#223542;" d="M388.8,211.01c0,9.6-4.8,17.6-12,17.6l0,0c-7.2,0-12-8-12-17.6v-50.4c0-9.6,4.8-17.6,12-17.6l0,0
	c7.2,0,12,8,12,17.6V211.01z"/>
<polygon style="fill:#0E75AF;" points="359.2,404.61 99.2,404.61 0,212.61 416.8,212.61 "/>
<polygon style="fill:#135184;" points="359.2,404.61 266.4,274.21 0,212.61 416.8,212.61 "/>
<path style="fill:#23C181;" d="M489.6,144.61c0,14.4-12,28-26.4,28h-74.4c-14.4,0-26.4-13.6-26.4-28l0,0c0-14.4,12-28,26.4-28h74.4
	C477.6,116.61,489.6,130.21,489.6,144.61L489.6,144.61z"/>
<path style="fill:#079E81;" d="M489.6,146.21L489.6,146.21c0,14.4-12,26.4-26.4,26.4h-74.4c-14.4,0-26.4-12-26.4-26.4l0,0"/>
<path style="fill:#135184;" d="M380.8,396.61c0,4.8-3.2,8-8,8h-272c-4.8,0-8-3.2-8-8l0,0c0-4.8,3.2-8,8-8h272
	C377.6,388.61,380.8,391.81,380.8,396.61L380.8,396.61z"/>
<circle style="fill:#C42014;" cx="100.8" cy="410.21" r="60"/>
<path style="fill:#A00C08;" d="M143.2,368.61c23.2,23.2,23.2,61.6,0,84.8c-23.2,23.2-61.6,23.2-84.8-0.8"/>
<circle style="fill:#EFA91B;" cx="100.8" cy="410.21" r="28"/>
<path style="fill:#ED8E1D;" d="M100.8,382.21c15.2,0,28,12.8,28,28s-12.8,28-28,28"/>
<circle style="fill:#FFFFFF;" cx="100.8" cy="410.21" r="16.8"/>
<path style="fill:#D0E2DF;" d="M112.8,398.21c6.4,6.4,6.4,17.6,0,24c-6.4,6.4-17.6,6.4-24,0"/>
<circle style="fill:#C42014;" cx="336" cy="410.21" r="60"/>
<path style="fill:#A00C08;" d="M378.4,368.61c23.2,23.2,23.2,61.6,0,84.8s-61.6,23.2-84.8-0.8"/>
<circle style="fill:#EFA91B;" cx="336" cy="410.21" r="28"/>
<path style="fill:#ED8E1D;" d="M336,382.21c15.2,0,28,12.8,28,28s-12.8,28-28,28"/>
<circle style="fill:#FFFFFF;" cx="336" cy="410.21" r="16.8"/>
<g>
	<path style="fill:#D0E2DF;" d="M348,398.21c6.4,6.4,6.4,17.6,0,24s-17.6,6.4-24,0"/>
	<g style="opacity:0.4;">
		<path style="fill:#D0E2DF;" d="M85.6,248.61c0,5.6-4,9.6-9.6,9.6l0,0c-5.6,0-9.6-4-9.6-9.6l0,0c0-5.6,4-9.6,9.6-9.6l0,0
			C81.6,239.01,85.6,243.01,85.6,248.61L85.6,248.61z"/>
		<path style="fill:#D0E2DF;" d="M131.2,248.61c0,5.6-4,9.6-9.6,9.6l0,0c-5.6,0-9.6-4-9.6-9.6l0,0c0-5.6,4-9.6,9.6-9.6l0,0
			C127.2,239.01,131.2,243.01,131.2,248.61L131.2,248.61z"/>
		<path style="fill:#D0E2DF;" d="M176.8,248.61c0,5.6-4,9.6-9.6,9.6l0,0c-5.6,0-9.6-4-9.6-9.6l0,0c0-5.6,4-9.6,9.6-9.6l0,0
			C172.8,239.01,176.8,243.01,176.8,248.61L176.8,248.61z"/>
		<path style="fill:#D0E2DF;" d="M223.2,248.61c0,5.6-4,9.6-9.6,9.6l0,0c-5.6,0-9.6-4-9.6-9.6l0,0c0-5.6,4-9.6,9.6-9.6l0,0
			C218.4,239.01,223.2,243.01,223.2,248.61L223.2,248.61z"/>
		<path style="fill:#D0E2DF;" d="M268.8,248.61c0,5.6-4,9.6-9.6,9.6l0,0c-5.6,0-9.6-4-9.6-9.6l0,0c0-5.6,4-9.6,9.6-9.6l0,0
			C264,239.01,268.8,243.01,268.8,248.61L268.8,248.61z"/>
		<path style="fill:#D0E2DF;" d="M314.4,248.61c0,5.6-4,9.6-9.6,9.6l0,0c-5.6,0-9.6-4-9.6-9.6l0,0c0-5.6,4-9.6,9.6-9.6l0,0
			C309.6,239.01,314.4,243.01,314.4,248.61L314.4,248.61z"/>
		<path style="fill:#D0E2DF;" d="M360,248.61c0,5.6-4,9.6-9.6,9.6l0,0c-5.6,0-9.6-4-9.6-9.6l0,0c0-5.6,4-9.6,9.6-9.6l0,0
			C355.2,239.01,360,243.01,360,248.61L360,248.61z"/>
		<path style="fill:#D0E2DF;" d="M85.6,288.61c0,5.6-4,9.6-9.6,9.6l0,0c-5.6,0-9.6-4-9.6-9.6l0,0c0-5.6,4-9.6,9.6-9.6l0,0
			C81.6,278.21,85.6,283.01,85.6,288.61L85.6,288.61z"/>
		<path style="fill:#D0E2DF;" d="M131.2,288.61c0,5.6-4,9.6-9.6,9.6l0,0c-5.6,0-9.6-4-9.6-9.6l0,0c0-5.6,4-9.6,9.6-9.6l0,0
			C127.2,278.21,131.2,283.01,131.2,288.61L131.2,288.61z"/>
		<path style="fill:#D0E2DF;" d="M176.8,288.61c0,5.6-4,9.6-9.6,9.6l0,0c-5.6,0-9.6-4-9.6-9.6l0,0c0-5.6,4-9.6,9.6-9.6l0,0
			C172.8,278.21,176.8,283.01,176.8,288.61L176.8,288.61z"/>
		<path style="fill:#D0E2DF;" d="M223.2,288.61c0,5.6-4,9.6-9.6,9.6l0,0c-5.6,0-9.6-4-9.6-9.6l0,0c0-5.6,4-9.6,9.6-9.6l0,0
			C218.4,278.21,223.2,283.01,223.2,288.61L223.2,288.61z"/>
		<path style="fill:#D0E2DF;" d="M268.8,288.61c0,5.6-4,9.6-9.6,9.6l0,0c-5.6,0-9.6-4-9.6-9.6l0,0c0-5.6,4-9.6,9.6-9.6l0,0
			C264,278.21,268.8,283.01,268.8,288.61L268.8,288.61z"/>
		<path style="fill:#D0E2DF;" d="M314.4,288.61c0,5.6-4,9.6-9.6,9.6l0,0c-5.6,0-9.6-4-9.6-9.6l0,0c0-5.6,4-9.6,9.6-9.6l0,0
			C309.6,278.21,314.4,283.01,314.4,288.61L314.4,288.61z"/>
		<path style="fill:#D0E2DF;" d="M360,288.61c0,5.6-4,9.6-9.6,9.6l0,0c-5.6,0-9.6-4-9.6-9.6l0,0c0-5.6,4-9.6,9.6-9.6l0,0
			C355.2,278.21,360,283.01,360,288.61L360,288.61z"/>
		<path style="fill:#D0E2DF;" d="M131.2,327.81c0,5.6-4,9.6-9.6,9.6l0,0c-5.6,0-9.6-4-9.6-9.6l0,0c0-5.6,4-9.6,9.6-9.6l0,0
			C127.2,318.21,131.2,323.01,131.2,327.81L131.2,327.81z"/>
		<path style="fill:#D0E2DF;" d="M176.8,327.81c0,5.6-4,9.6-9.6,9.6l0,0c-5.6,0-9.6-4-9.6-9.6l0,0c0-5.6,4-9.6,9.6-9.6l0,0
			C172.8,318.21,176.8,323.01,176.8,327.81L176.8,327.81z"/>
		<path style="fill:#D0E2DF;" d="M223.2,327.81c0,5.6-4,9.6-9.6,9.6l0,0c-5.6,0-9.6-4-9.6-9.6l0,0c0-5.6,4-9.6,9.6-9.6l0,0
			C218.4,318.21,223.2,323.01,223.2,327.81L223.2,327.81z"/>
		<path style="fill:#D0E2DF;" d="M268.8,327.81c0,5.6-4,9.6-9.6,9.6l0,0c-5.6,0-9.6-4-9.6-9.6l0,0c0-5.6,4-9.6,9.6-9.6l0,0
			C264,318.21,268.8,323.01,268.8,327.81L268.8,327.81z"/>
		<path style="fill:#D0E2DF;" d="M314.4,327.81c0,5.6-4,9.6-9.6,9.6l0,0c-5.6,0-9.6-4-9.6-9.6l0,0c0-5.6,4-9.6,9.6-9.6l0,0
			C309.6,318.21,314.4,323.01,314.4,327.81L314.4,327.81z"/>
		<path style="fill:#D0E2DF;" d="M360,327.81c0,5.6-4,9.6-9.6,9.6l0,0c-5.6,0-9.6-4-9.6-9.6l0,0c0-5.6,4-9.6,9.6-9.6l0,0
			C355.2,318.21,360,323.01,360,327.81L360,327.81z"/>
		<path style="fill:#D0E2DF;" d="M176.8,367.81c0,5.6-4,9.6-9.6,9.6l0,0c-5.6,0-9.6-4-9.6-9.6l0,0c0-5.6,4-9.6,9.6-9.6l0,0
			C172.8,358.21,176.8,362.21,176.8,367.81L176.8,367.81z"/>
		<path style="fill:#D0E2DF;" d="M223.2,367.81c0,5.6-4,9.6-9.6,9.6l0,0c-5.6,0-9.6-4-9.6-9.6l0,0c0-5.6,4-9.6,9.6-9.6l0,0
			C218.4,358.21,223.2,362.21,223.2,367.81L223.2,367.81z"/>
		<path style="fill:#D0E2DF;" d="M268.8,367.81c0,5.6-4,9.6-9.6,9.6l0,0c-5.6,0-9.6-4-9.6-9.6l0,0c0-5.6,4-9.6,9.6-9.6l0,0
			C264,358.21,268.8,362.21,268.8,367.81L268.8,367.81z"/>
	</g>
</g>
<g>
</g>
<g>
</g>
<g>
</g>
<g>
</g>
<g>
</g>
<g>
</g>
<g>
</g>
<g>
</g>
<g>
</g>
<g>
</g>
<g>
</g>
<g>
</g>
<g>
</g>
<g>
</g>
<g>
</g>
</svg>
