<?xml version="1.0" encoding="iso-8859-1"?>
<!-- Generator: Adobe Illustrator 19.0.0, SVG Export Plug-In . SVG Version: 6.00 Build 0)  -->
<svg version="1.1" id="Layer_1" xmlns="http://www.w3.org/2000/svg" xmlns:xlink="http://www.w3.org/1999/xlink" x="0px" y="0px"
	 viewBox="0 0 480 480" style="enable-background:new 0 0 480 480;" xml:space="preserve">
<path style="fill:#FFFFFF;" d="M376,459.2c0,13.6-9.6,20.8-23.2,20.8H127.2c-13.6,0-23.2-7.2-23.2-20.8V20.8
	C104,7.2,113.6,0,127.2,0h225.6C366.4,0,376,7.2,376,20.8V459.2z"/>
<path style="fill:#E6F0F4;" d="M128,0h224.8C366.4,0,376,7.2,376,20.8v437.6c0,13.6-9.6,20.8-23.2,20.8H128"/>
<rect x="104" y="40" style="fill:#BCD4DD;" width="272" height="376"/>
<polyline style="fill:#95BCC4;" points="376,416 376,40 104,40 "/>
<rect x="120" y="40" style="fill:#114A70;" width="240" height="376"/>
<polyline style="fill:#00233F;" points="120,40 360,40 360,416 "/>
<path style="fill:#42B78A;" d="M281.6,254.4c-24,0-48-12-60.8-35.2c-12.8-22.4-11.2-49.6,1.6-70.4L200,110.4
	c-32,34.4-40,87.2-15.2,129.6c24.8,43.2,73.6,63.2,119.2,53.6L281.6,254.4z"/>
<path style="fill:#0DD396;" d="M246.4,245.6c-10.4-5.6-19.2-14.4-25.6-25.6c-6.4-11.2-8.8-23.2-8.8-35.2l-28.8-50.4
	c-16.8,32-17.6,72,1.6,106.4c19.2,33.6,53.6,53.6,90.4,56L246.4,245.6z"/>
<circle style="fill:#00233F;" cx="137.6" cy="17.6" r="4"/>
<g>
	<path style="fill:#BCD4DD;" d="M318.4,20c0,1.6-1.6,4-3.2,4H164.8c-1.6,0-3.2-2.4-3.2-4l0,0c0-1.6,1.6-4,3.2-4h150.4
		C316.8,16,318.4,18.4,318.4,20L318.4,20z"/>
	<path style="fill:#BCD4DD;" d="M318.4,460c0,1.6-1.6,4-3.2,4H164.8c-1.6,0-3.2-2.4-3.2-4l0,0c0-1.6,1.6-4,3.2-4h150.4
		C316.8,456,318.4,458.4,318.4,460L318.4,460z"/>
	<path style="fill:#BCD4DD;" d="M318.4,444c0,1.6-1.6,4-3.2,4H164.8c-1.6,0-3.2-2.4-3.2-4l0,0c0-1.6,1.6-4,3.2-4h150.4
		C316.8,440,318.4,442.4,318.4,444L318.4,444z"/>
</g>
<g>
	<circle style="fill:#FFFFFF;" cx="243.2" cy="377.6" r="10.4"/>
	<rect x="310.4" y="369.6" style="fill:#FFFFFF;" width="15.2" height="15.2"/>
	<polygon style="fill:#FFFFFF;" points="154.4,384 165.6,364.8 176.8,384 	"/>
</g>
<g>
</g>
<g>
</g>
<g>
</g>
<g>
</g>
<g>
</g>
<g>
</g>
<g>
</g>
<g>
</g>
<g>
</g>
<g>
</g>
<g>
</g>
<g>
</g>
<g>
</g>
<g>
</g>
<g>
</g>
</svg>
