<?xml version="1.0" encoding="iso-8859-1"?>
<!-- Generator: Adobe Illustrator 19.0.0, SVG Export Plug-In . SVG Version: 6.00 Build 0)  -->
<svg version="1.1" id="Layer_1" xmlns="http://www.w3.org/2000/svg" xmlns:xlink="http://www.w3.org/1999/xlink" x="0px" y="0px"
	 viewBox="0 0 496 496" style="enable-background:new 0 0 496 496;" xml:space="preserve">
<g>
	<rect x="152" y="72" style="fill:#890606;" width="24" height="56"/>
	<rect x="320" y="72" style="fill:#890606;" width="24" height="56"/>
</g>
<path style="fill:#ED5B3A;" d="M344,75.2c0,7.2-7.2,12.8-18.4,12.8H170.4c-12,0-18.4-5.6-18.4-12.8V52.8c0-8,7.2-12.8,18.4-12.8
	h154.4c12,0,19.2,4.8,19.2,12.8V75.2z"/>
<path style="fill:#F48B56;" d="M325.6,40H170.4c-11.2,0-18.4,4.8-18.4,12.8v0.8C176,60,208,64,248,64s72-4,96-11.2l0,0
	C344,44.8,336.8,40,325.6,40z"/>
<path style="fill:#08476B;" d="M496,431.2c0,13.6-11.2,24.8-24.8,24.8H24.8C11.2,456,0,444.8,0,431.2V144.8
	C0,131.2,11.2,120,24.8,120h446.4c13.6,0,24.8,11.2,24.8,24.8L496,431.2L496,431.2z"/>
<path style="fill:#05365B;" d="M1.6,144c0-13.6,11.2-24,24.8-24h443.2c13.6,0,26.4,11.2,26.4,24.8V432c0,13.6-12.8,24-26.4,24H272"
	/>
<path style="fill:#002C47;" d="M248,350.4c112,0,208-39.2,248-93.6v-74.4c0-13.6-12.8-22.4-26.4-22.4H26.4C12.8,160,0,168.8,0,182.4
	v74.4C40,312,136,350.4,248,350.4z"/>
<path style="fill:#2072A0;" d="M248,313.6c112,0,208-39.2,248-93.6v-74.4c0-13.6-12.8-24.8-26.4-24.8H24.8C11.2,120,0,131.2,0,144.8
	v74.4C40,274.4,136,313.6,248,313.6z"/>
<path style="fill:#195F8E;" d="M248,312.8c112,0,208-38.4,248-93.6v-74.4c0-13.6-11.2-24.8-24.8-24.8H24"/>
<path style="fill:#002C47;" d="M280,369.6c0,6.4-4.8,14.4-12,14.4h-37.6c-7.2,0-13.6-8.8-13.6-14.4v-79.2c0-6.4,4.8-1.6,12-1.6H268
	c7.2,0,12-4,12,1.6V369.6z"/>
<path style="fill:#ED5B3A;" d="M280,352c0,6.4-4.8,8-12,8h-39.2c-7.2,0-12-1.6-12-8v-79.2c0-6.4,4.8-0.8,12-0.8H268
	c7.2,0,12-5.6,12,0.8V352z"/>
<path style="fill:#DD4228;" d="M216,272.8c0-6.4,4.8-0.8,12-0.8h39.2c7.2,0,12-5.6,12,0.8V352c0,6.4-4.8,8-12,8"/>
<path style="fill:#B53023;" d="M264,340.8c0,3.2-0.8,3.2-4.8,3.2h-22.4c-4,0-4.8,0-4.8-3.2v-53.6c0-3.2,2.4,0.8,7.2,0.8h18.4
	c4,0,6.4-4,6.4-0.8V340.8z"/>
<path style="fill:#9B1812;" d="M232,287.2c0-3.2,4,0.8,8,0.8h16.8c4,0,7.2-4,7.2-0.8v53.6c0,3.2-1.6,3.2-6.4,3.2"/>
<g>
</g>
<g>
</g>
<g>
</g>
<g>
</g>
<g>
</g>
<g>
</g>
<g>
</g>
<g>
</g>
<g>
</g>
<g>
</g>
<g>
</g>
<g>
</g>
<g>
</g>
<g>
</g>
<g>
</g>
</svg>
