<?xml version="1.0" encoding="iso-8859-1"?>
<!-- Generator: Adobe Illustrator 19.0.0, SVG Export Plug-In . SVG Version: 6.00 Build 0)  -->
<svg version="1.1" id="Layer_1" xmlns="http://www.w3.org/2000/svg" xmlns:xlink="http://www.w3.org/1999/xlink" x="0px" y="0px"
	 viewBox="0 0 496 496" style="enable-background:new 0 0 496 496;" xml:space="preserve">
<path style="fill:#08446D;" d="M432,465.6c0,16.8-13.6,30.4-30.4,30.4H94.4C77.6,496,64,482.4,64,465.6V30.4C64,13.6,77.6,0,94.4,0
	h307.2C418.4,0,432,13.6,432,30.4V465.6z"/>
<path style="fill:#00233F;" d="M96,0h305.6C418.4,0,432,13.6,432,30.4v434.4c0,16.8-13.6,30.4-30.4,30.4H96"/>
<path style="fill:#DEEEF9;" d="M400,415.2c0,13.6-9.6,24.8-24,24.8H120c-13.6,0-24-11.2-24-24.8V52c0-13.6,9.6-28,24-28h256
	c13.6,0,24,14.4,24,28V415.2z"/>
<path style="fill:#C6DAE5;" d="M120,24h256c13.6,0,24,14.4,24,28v362.4c0,13.6-9.6,24.8-24,24.8"/>
<rect x="128" y="88" style="fill:#00233F;" width="72" height="96"/>
<g>
	<rect x="216" y="96" style="fill:#08446D;" width="152" height="8"/>
	<rect x="216" y="120" style="fill:#08446D;" width="152" height="8"/>
	<rect x="216" y="144" style="fill:#08446D;" width="152" height="8"/>
	<rect x="216" y="168" style="fill:#08446D;" width="96" height="8"/>
	<circle style="fill:#08446D;" cx="216.8" cy="60" r="5.6"/>
	<circle style="fill:#08446D;" cx="248" cy="60" r="5.6"/>
	<circle style="fill:#08446D;" cx="279.2" cy="60" r="5.6"/>
</g>
<rect x="128" y="216" style="fill:#23C181;" width="240" height="48"/>
<g>
	<rect x="128" y="288" style="fill:#F44D3B;" width="32" height="120"/>
	<rect x="184" y="312" style="fill:#F44D3B;" width="24" height="96"/>
	<rect x="232" y="344" style="fill:#F44D3B;" width="32" height="64"/>
	<rect x="288" y="328" style="fill:#F44D3B;" width="24" height="80"/>
	<rect x="336" y="360" style="fill:#F44D3B;" width="32" height="48"/>
	<circle style="fill:#F44D3B;" cx="248" cy="467.2" r="12.8"/>
</g>
<g>
</g>
<g>
</g>
<g>
</g>
<g>
</g>
<g>
</g>
<g>
</g>
<g>
</g>
<g>
</g>
<g>
</g>
<g>
</g>
<g>
</g>
<g>
</g>
<g>
</g>
<g>
</g>
<g>
</g>
</svg>
