<?xml version="1.0" encoding="iso-8859-1"?>
<!-- Generator: Adobe Illustrator 19.0.0, SVG Export Plug-In . SVG Version: 6.00 Build 0)  -->
<svg version="1.1" id="Layer_1" xmlns="http://www.w3.org/2000/svg" xmlns:xlink="http://www.w3.org/1999/xlink" x="0px" y="0px"
	 viewBox="0 0 496.8 496.8" style="enable-background:new 0 0 496.8 496.8;" xml:space="preserve">
<path style="fill:#540000;" d="M349.6,396.4c0,11.2-9.6,20-20.8,20h-308c-12,0-20.8-8.8-20.8-20l0,0c0-11.2,8.8-20,20.8-20h308
	C340,376.4,349.6,385.2,349.6,396.4L349.6,396.4z"/>
<path style="fill:#2D0000;" d="M330.4,374c11.2,0,20,9.6,20,21.6l0,0c0,11.2-10.4,21.6-21.6,21.6H24"/>
<circle style="fill:#C42014;" cx="322.4" cy="248.4" r="174.4"/>
<path style="fill:#A00C08;" d="M445.6,125.2c68,68,68,178.4,0,246.4s-178.4,68-246.4,0"/>
<circle style="fill:#EFA91B;" cx="322.4" cy="248.4" r="81.6"/>
<path style="fill:#ED8E1D;" d="M322.4,166.8c44.8,0,81.6,36.8,81.6,81.6S367.2,330,322.4,330"/>
<circle style="fill:#FFFFFF;" cx="322.4" cy="248.4" r="49.6"/>
<path style="fill:#D0E2DF;" d="M356.8,213.2c19.2,19.2,19.2,50.4,0,69.6c-19.2,19.2-50.4,19.2-69.6,0"/>
<g>
</g>
<g>
</g>
<g>
</g>
<g>
</g>
<g>
</g>
<g>
</g>
<g>
</g>
<g>
</g>
<g>
</g>
<g>
</g>
<g>
</g>
<g>
</g>
<g>
</g>
<g>
</g>
<g>
</g>
</svg>
