<?xml version="1.0" encoding="iso-8859-1"?>
<!-- Generator: Adobe Illustrator 19.0.0, SVG Export Plug-In . SVG Version: 6.00 Build 0)  -->
<svg version="1.1" id="Layer_1" xmlns="http://www.w3.org/2000/svg" xmlns:xlink="http://www.w3.org/1999/xlink" x="0px" y="0px"
	 viewBox="0 0 504 504" style="enable-background:new 0 0 504 504;" xml:space="preserve">
<circle style="fill:#FF7900;" cx="252" cy="252" r="157.6"/>
<path style="fill:#E05A00;" d="M252,94.4c87.2,0,157.6,70.4,157.6,157.6S339.2,409.6,252,409.6"/>
<g>
	<path style="fill:#F9BDA0;" d="M60,320c-19.2,0-34.4-16.8-34.4-36.8v-24.8c0-20,15.2-36.8,34.4-36.8h57.6
		c19.2,0,34.4,16.8,34.4,36.8v24.8c0,20-15.2,36.8-34.4,36.8H60z"/>
	<path style="fill:#F9BDA0;" d="M67.2,320.8c-7.2,0-12.8-5.6-12.8-12.8l0,0c0-7.2,5.6-12.8,12.8-12.8h106.4
		c7.2,0,12.8,5.6,12.8,12.8l0,0c0,7.2-5.6,12.8-12.8,12.8H67.2z"/>
</g>
<path style="fill:#FFE4C7;" d="M175.2,314.4c-3.2,0-5.6-2.4-5.6-5.6v-3.2c0-3.2,2.4-5.6,5.6-5.6l0,0c3.2,0,5.6,2.4,5.6,5.6v3.2
	C180,312,177.6,314.4,175.2,314.4L175.2,314.4z"/>
<path style="fill:#F9BDA0;" d="M103.2,272.8c-7.2,0-12.8-5.6-12.8-12.8l0,0c0-7.2,5.6-12.8,12.8-12.8h106.4
	c7.2,0,12.8,5.6,12.8,12.8l0,0c0,7.2-5.6,12.8-12.8,12.8H103.2z"/>
<path style="fill:#FFE4C7;" d="M210.4,267.2c-3.2,0-5.6-2.4-5.6-5.6v-3.2c0-3.2,2.4-5.6,5.6-5.6l0,0c3.2,0,5.6,2.4,5.6,5.6v3.2
	C216,264.8,213.6,267.2,210.4,267.2L210.4,267.2z"/>
<path style="fill:#F9BDA0;" d="M96,297.6c-7.2,0-12.8-5.6-12.8-12.8l0,0c0-7.2,5.6-12.8,12.8-12.8h106.4c7.2,0,12.8,5.6,12.8,12.8
	l0,0c0,7.2-5.6,12.8-12.8,12.8H96z"/>
<path style="fill:#FFE4C7;" d="M204,292c-3.2,0-5.6-2.4-5.6-5.6v-3.2c0-3.2,2.4-5.6,5.6-5.6l0,0c3.2,0,5.6,2.4,5.6,5.6v3.2
	C208.8,289.6,206.4,292,204,292L204,292z"/>
<path style="fill:#F9BDA0;" d="M88,248c-7.2,0-12.8-5.6-12.8-12.8l0,0c0-7.2,5.6-12.8,12.8-12.8h106.4c7.2,0,12.8,5.6,12.8,12.8l0,0
	c0,7.2-5.6,12.8-12.8,12.8H88z"/>
<path style="fill:#FFE4C7;" d="M195.2,242.4c-3.2,0-5.6-2.4-5.6-5.6v-3.2c0-3.2,2.4-5.6,5.6-5.6l0,0c3.2,0,5.6,2.4,5.6,5.6v3.2
	C200.8,240,198.4,242.4,195.2,242.4L195.2,242.4z"/>
<path id="SVGCleanerId_0" style="fill:#F9BDA0;" d="M50.4,223.2c0,0,46.4-20.8,50.4-22.4c4-0.8,29.6,16.8,20,27.2
	s-38.4,7.2-38.4,7.2L50.4,223.2z"/>
<rect id="SVGCleanerId_1" x="20" y="223.2" style="fill:#FFFFFF;" width="16" height="92"/>
<polyline style="fill:#DFE2E5;" points="20,223.2 36,223.2 36,316 "/>
<rect y="215.2" style="fill:#05365B;" width="24.8" height="106.4"/>
<path id="SVGCleanerId_2" style="fill:#F9BDA0;" d="M137.6,184.8c4,8-5.6,34.4-18.4,40.8s-26.4,5.6-29.6-2.4c-4-8,3.2-19.2,16-25.6
	S133.6,177.6,137.6,184.8z"/>
<g>
	<path style="fill:#EF9A89;" d="M444,184c19.2,0,34.4,16.8,34.4,36.8v24.8c0,20-15.2,36.8-34.4,36.8h-57.6
		c-19.2,0-34.4-16.8-34.4-36.8v-24.8c0-20,15.2-36.8,34.4-36.8L444,184L444,184z"/>
	<path style="fill:#EF9A89;" d="M436.8,183.2c7.2,0,12.8,5.6,12.8,12.8l0,0c0,7.2-5.6,12.8-12.8,12.8H330.4
		c-7.2,0-12.8-5.6-12.8-12.8l0,0c0-7.2,5.6-12.8,12.8-12.8H436.8z"/>
</g>
<path style="fill:#FFE4C7;" d="M328.8,189.6c3.2,0,5.6,2.4,5.6,5.6v3.2c0,3.2-2.4,5.6-5.6,5.6l0,0c-3.2,0-5.6-2.4-5.6-5.6v-3.2
	C324,192,326.4,189.6,328.8,189.6L328.8,189.6z"/>
<path style="fill:#EF9A89;" d="M400.8,231.2c7.2,0,12.8,5.6,12.8,12.8l0,0c0,7.2-5.6,12.8-12.8,12.8H294.4
	c-7.2,0-12.8-5.6-12.8-12.8l0,0c0-7.2,5.6-12.8,12.8-12.8L400.8,231.2L400.8,231.2z"/>
<path style="fill:#FFE4C7;" d="M293.6,236.8c3.2,0,5.6,2.4,5.6,5.6v3.2c0,3.2-2.4,5.6-5.6,5.6l0,0c-3.2,0-5.6-2.4-5.6-5.6v-3.2
	C288,239.2,290.4,236.8,293.6,236.8L293.6,236.8z"/>
<path style="fill:#EF9A89;" d="M408,206.4c7.2,0,12.8,5.6,12.8,12.8l0,0c0,7.2-5.6,12.8-12.8,12.8H301.6c-7.2,0-12.8-5.6-12.8-12.8
	l0,0c0-7.2,5.6-12.8,12.8-12.8H408z"/>
<path style="fill:#FFE4C7;" d="M300,212c3.2,0,5.6,2.4,5.6,5.6v3.2c0,3.2-2.4,5.6-5.6,5.6l0,0c-3.2,0-5.6-2.4-5.6-5.6v-3.2
	C295.2,214.4,297.6,212,300,212L300,212z"/>
<path style="fill:#EF9A89;" d="M416,256c7.2,0,12.8,5.6,12.8,12.8l0,0c0,7.2-5.6,12.8-12.8,12.8H310.4c-7.2,0-12.8-5.6-12.8-12.8
	l0,0c0-7.2,5.6-12.8,12.8-12.8H416z"/>
<path style="fill:#FFE4C7;" d="M308.8,261.6c3.2,0,5.6,2.4,5.6,5.6v3.2c0,3.2-2.4,5.6-5.6,5.6l0,0c-3.2,0-5.6-2.4-5.6-5.6v-3.2
	C303.2,264,305.6,261.6,308.8,261.6L308.8,261.6z"/>
<path id="SVGCleanerId_3" style="fill:#EF9A89;" d="M453.6,280.8c0,0-46.4,20.8-50.4,22.4c-4,0.8-29.6-16.8-20-27.2
	c9.6-10.4,38.4-7.2,38.4-7.2L453.6,280.8z"/>
<rect id="SVGCleanerId_4" x="468" y="188" style="fill:#FFFFFF;" width="16" height="92"/>
<polyline style="fill:#DFE2E5;" points="484,280.8 468,280.8 468,188 "/>
<rect x="479.2" y="182.4" style="fill:#05365B;" width="24.8" height="106.4"/>
<path style="fill:#EF9A89;" d="M366.4,319.2c-4-8,5.6-34.4,18.4-40.8s26.4-5.6,29.6,2.4c4,8-3.2,19.2-16,25.6
	C385.6,312.8,370.4,326.4,366.4,319.2z"/>
<g>
	<path style="fill:#F9BDA0;" d="M60,320c-19.2,0-34.4-16.8-34.4-36.8v-24.8c0-20,15.2-36.8,34.4-36.8h57.6
		c19.2,0,34.4,16.8,34.4,36.8v24.8c0,20-15.2,36.8-34.4,36.8H60z"/>
	<path style="fill:#F9BDA0;" d="M67.2,320.8c-7.2,0-12.8-5.6-12.8-12.8l0,0c0-7.2,5.6-12.8,12.8-12.8h106.4
		c7.2,0,12.8,5.6,12.8,12.8l0,0c0,7.2-5.6,12.8-12.8,12.8H67.2z"/>
</g>
<path style="fill:#FFE4C7;" d="M175.2,314.4c-3.2,0-5.6-2.4-5.6-5.6v-3.2c0-3.2,2.4-5.6,5.6-5.6l0,0c3.2,0,5.6,2.4,5.6,5.6v3.2
	C180,312,177.6,314.4,175.2,314.4L175.2,314.4z"/>
<path style="fill:#F9BDA0;" d="M103.2,272.8c-7.2,0-12.8-5.6-12.8-12.8l0,0c0-7.2,5.6-12.8,12.8-12.8h106.4
	c7.2,0,12.8,5.6,12.8,12.8l0,0c0,7.2-5.6,12.8-12.8,12.8H103.2z"/>
<path style="fill:#FFE4C7;" d="M210.4,267.2c-3.2,0-5.6-2.4-5.6-5.6v-3.2c0-3.2,2.4-5.6,5.6-5.6l0,0c3.2,0,5.6,2.4,5.6,5.6v3.2
	C216,264.8,213.6,267.2,210.4,267.2L210.4,267.2z"/>
<path style="fill:#F9BDA0;" d="M96,297.6c-7.2,0-12.8-5.6-12.8-12.8l0,0c0-7.2,5.6-12.8,12.8-12.8h106.4c7.2,0,12.8,5.6,12.8,12.8
	l0,0c0,7.2-5.6,12.8-12.8,12.8H96z"/>
<path style="fill:#FFE4C7;" d="M204,292c-3.2,0-5.6-2.4-5.6-5.6v-3.2c0-3.2,2.4-5.6,5.6-5.6l0,0c3.2,0,5.6,2.4,5.6,5.6v3.2
	C208.8,289.6,206.4,292,204,292L204,292z"/>
<path style="fill:#F9BDA0;" d="M88,248c-7.2,0-12.8-5.6-12.8-12.8l0,0c0-7.2,5.6-12.8,12.8-12.8h106.4c7.2,0,12.8,5.6,12.8,12.8l0,0
	c0,7.2-5.6,12.8-12.8,12.8H88z"/>
<path style="fill:#FFE4C7;" d="M195.2,242.4c-3.2,0-5.6-2.4-5.6-5.6v-3.2c0-3.2,2.4-5.6,5.6-5.6l0,0c3.2,0,5.6,2.4,5.6,5.6v3.2
	C200.8,240,198.4,242.4,195.2,242.4L195.2,242.4z"/>
<g>
	<path id="SVGCleanerId_0_1_" style="fill:#F9BDA0;" d="M50.4,223.2c0,0,46.4-20.8,50.4-22.4c4-0.8,29.6,16.8,20,27.2
		s-38.4,7.2-38.4,7.2L50.4,223.2z"/>
</g>
<g>
	<rect id="SVGCleanerId_1_1_" x="20" y="223.2" style="fill:#FFFFFF;" width="16" height="92"/>
</g>
<rect y="215.2" style="fill:#008C61;" width="24.8" height="106.4"/>
<g>
	<path id="SVGCleanerId_2_1_" style="fill:#F9BDA0;" d="M137.6,184.8c4,8-5.6,34.4-18.4,40.8s-26.4,5.6-29.6-2.4
		c-4-8,3.2-19.2,16-25.6S133.6,177.6,137.6,184.8z"/>
</g>
<g>
	<path style="fill:#EF9A89;" d="M444,184c19.2,0,34.4,16.8,34.4,36.8v24.8c0,20-15.2,36.8-34.4,36.8h-57.6
		c-19.2,0-34.4-16.8-34.4-36.8v-24.8c0-20,15.2-36.8,34.4-36.8L444,184L444,184z"/>
	<path style="fill:#EF9A89;" d="M436.8,183.2c7.2,0,12.8,5.6,12.8,12.8l0,0c0,7.2-5.6,12.8-12.8,12.8H330.4
		c-7.2,0-12.8-5.6-12.8-12.8l0,0c0-7.2,5.6-12.8,12.8-12.8H436.8z"/>
</g>
<path style="fill:#F2C4BD;" d="M328.8,189.6c3.2,0,5.6,2.4,5.6,5.6v3.2c0,3.2-2.4,5.6-5.6,5.6l0,0c-3.2,0-5.6-2.4-5.6-5.6v-3.2
	C324,192,326.4,189.6,328.8,189.6L328.8,189.6z"/>
<path style="fill:#EF9A89;" d="M400.8,231.2c7.2,0,12.8,5.6,12.8,12.8l0,0c0,7.2-5.6,12.8-12.8,12.8H294.4
	c-7.2,0-12.8-5.6-12.8-12.8l0,0c0-7.2,5.6-12.8,12.8-12.8L400.8,231.2L400.8,231.2z"/>
<path style="fill:#F2C4BD;" d="M293.6,236.8c3.2,0,5.6,2.4,5.6,5.6v3.2c0,3.2-2.4,5.6-5.6,5.6l0,0c-3.2,0-5.6-2.4-5.6-5.6v-3.2
	C288,239.2,290.4,236.8,293.6,236.8L293.6,236.8z"/>
<path style="fill:#EF9A89;" d="M408,206.4c7.2,0,12.8,5.6,12.8,12.8l0,0c0,7.2-5.6,12.8-12.8,12.8H301.6c-7.2,0-12.8-5.6-12.8-12.8
	l0,0c0-7.2,5.6-12.8,12.8-12.8H408z"/>
<path style="fill:#F2C4BD;" d="M300,212c3.2,0,5.6,2.4,5.6,5.6v3.2c0,3.2-2.4,5.6-5.6,5.6l0,0c-3.2,0-5.6-2.4-5.6-5.6v-3.2
	C295.2,214.4,297.6,212,300,212L300,212z"/>
<path style="fill:#EF9A89;" d="M416,256c7.2,0,12.8,5.6,12.8,12.8l0,0c0,7.2-5.6,12.8-12.8,12.8H310.4c-7.2,0-12.8-5.6-12.8-12.8
	l0,0c0-7.2,5.6-12.8,12.8-12.8H416z"/>
<path style="fill:#F2C4BD;" d="M308.8,261.6c3.2,0,5.6,2.4,5.6,5.6v3.2c0,3.2-2.4,5.6-5.6,5.6l0,0c-3.2,0-5.6-2.4-5.6-5.6v-3.2
	C303.2,264,305.6,261.6,308.8,261.6L308.8,261.6z"/>
<g>
	<path id="SVGCleanerId_3_1_" style="fill:#EF9A89;" d="M453.6,280.8c0,0-46.4,20.8-50.4,22.4c-4,0.8-29.6-16.8-20-27.2
		c9.6-10.4,38.4-7.2,38.4-7.2L453.6,280.8z"/>
</g>
<g>
	<rect id="SVGCleanerId_4_1_" x="468" y="188" style="fill:#FFFFFF;" width="16" height="92"/>
</g>
<rect x="479.2" y="182.4" style="fill:#44B2CC;" width="24.8" height="106.4"/>
<path style="fill:#EF9A89;" d="M366.4,319.2c-4-8,5.6-34.4,18.4-40.8s26.4-5.6,29.6,2.4c4,8-3.2,19.2-16,25.6
	C385.6,312.8,370.4,326.4,366.4,319.2z"/>
<g>
	<path style="fill:#AD735C;" d="M184,60c0-19.2,16.8-34.4,36.8-34.4h24.8c20,0,36.8,15.2,36.8,34.4v57.6c0,19.2-16.8,34.4-36.8,34.4
		h-24.8c-20,0-36.8-15.2-36.8-34.4L184,60L184,60z"/>
	<path style="fill:#AD735C;" d="M183.2,67.2c0-7.2,5.6-12.8,12.8-12.8l0,0c7.2,0,12.8,5.6,12.8,12.8v106.4c0,7.2-5.6,12.8-12.8,12.8
		l0,0c-7.2,0-12.8-5.6-12.8-12.8V67.2z"/>
</g>
<path style="fill:#DBA493;" d="M189.6,175.2c0-3.2,2.4-5.6,5.6-5.6h3.2c3.2,0,5.6,2.4,5.6,5.6l0,0c0,3.2-2.4,5.6-5.6,5.6h-3.2
	C192,180,189.6,177.6,189.6,175.2L189.6,175.2z"/>
<path style="fill:#AD735C;" d="M231.2,103.2c0-7.2,5.6-12.8,12.8-12.8l0,0c7.2,0,12.8,5.6,12.8,12.8v106.4c0,7.2-5.6,12.8-12.8,12.8
	l0,0c-7.2,0-12.8-5.6-12.8-12.8L231.2,103.2L231.2,103.2z"/>
<path style="fill:#DBA493;" d="M236.8,210.4c0-3.2,2.4-5.6,5.6-5.6h3.2c3.2,0,5.6,2.4,5.6,5.6l0,0c0,3.2-2.4,5.6-5.6,5.6h-3.2
	C239.2,216,236.8,213.6,236.8,210.4L236.8,210.4z"/>
<path style="fill:#AD735C;" d="M206.4,96c0-7.2,5.6-12.8,12.8-12.8l0,0c7.2,0,12.8,5.6,12.8,12.8v106.4c0,7.2-5.6,12.8-12.8,12.8
	l0,0c-7.2,0-12.8-5.6-12.8-12.8V96z"/>
<path style="fill:#DBA493;" d="M212,204c0-3.2,2.4-5.6,5.6-5.6h3.2c3.2,0,5.6,2.4,5.6,5.6l0,0c0,3.2-2.4,5.6-5.6,5.6h-3.2
	C214.4,208.8,212,206.4,212,204L212,204z"/>
<path style="fill:#AD735C;" d="M256,88c0-7.2,5.6-12.8,12.8-12.8l0,0c7.2,0,12.8,5.6,12.8,12.8v106.4c0,7.2-5.6,12.8-12.8,12.8l0,0
	c-7.2,0-12.8-5.6-12.8-12.8V88z"/>
<path style="fill:#DBA493;" d="M261.6,195.2c0-3.2,2.4-5.6,5.6-5.6h3.2c3.2,0,5.6,2.4,5.6,5.6l0,0c0,3.2-2.4,5.6-5.6,5.6h-3.2
	C264,200.8,261.6,198.4,261.6,195.2L261.6,195.2z"/>
<path style="fill:#AD735C;" d="M280.8,50.4c0,0,20.8,46.4,22.4,50.4c0.8,4-16.8,29.6-27.2,20c-10.4-9.6-7.2-38.4-7.2-38.4
	L280.8,50.4z"/>
<rect x="188" y="20" style="fill:#FFFFFF;" width="92" height="16"/>
<rect x="182.4" style="fill:#D61E69;" width="106.4" height="24.8"/>
<path style="fill:#AD735C;" d="M319.2,137.6c-8,4-34.4-5.6-40.8-18.4s-5.6-26.4,2.4-29.6c8-4,19.2,3.2,25.6,16
	C312.8,118.4,326.4,133.6,319.2,137.6z"/>
<g>
	<path style="fill:#F7D2A1;" d="M320,444c0,19.2-16.8,34.4-36.8,34.4h-24.8c-20,0-36.8-15.2-36.8-34.4v-57.6
		c0-19.2,16.8-34.4,36.8-34.4h24.8c20,0,36.8,15.2,36.8,34.4V444z"/>
	<path style="fill:#F7D2A1;" d="M320.8,436.8c0,7.2-5.6,12.8-12.8,12.8l0,0c-7.2,0-12.8-5.6-12.8-12.8V330.4
		c0-7.2,5.6-12.8,12.8-12.8l0,0c7.2,0,12.8,5.6,12.8,12.8V436.8z"/>
</g>
<path style="fill:#FFE4C7;" d="M314.4,328.8c0,3.2-2.4,5.6-5.6,5.6h-3.2c-3.2,0-5.6-2.4-5.6-5.6l0,0c0-3.2,2.4-5.6,5.6-5.6h3.2
	C312,324,314.4,326.4,314.4,328.8L314.4,328.8z"/>
<path style="fill:#F7D2A1;" d="M272.8,400.8c0,7.2-5.6,12.8-12.8,12.8l0,0c-7.2,0-12.8-5.6-12.8-12.8V294.4
	c0-7.2,5.6-12.8,12.8-12.8l0,0c7.2,0,12.8,5.6,12.8,12.8V400.8z"/>
<path style="fill:#FFE4C7;" d="M267.2,293.6c0,3.2-2.4,5.6-5.6,5.6h-3.2c-3.2,0-5.6-2.4-5.6-5.6l0,0c0-3.2,2.4-5.6,5.6-5.6h3.2
	C264.8,288,267.2,290.4,267.2,293.6L267.2,293.6z"/>
<path style="fill:#F7D2A1;" d="M297.6,408c0,7.2-5.6,12.8-12.8,12.8l0,0c-7.2,0-12.8-5.6-12.8-12.8V301.6c0-7.2,5.6-12.8,12.8-12.8
	l0,0c7.2,0,12.8,5.6,12.8,12.8V408z"/>
<path style="fill:#FFE4C7;" d="M292,300c0,3.2-2.4,5.6-5.6,5.6h-3.2c-3.2,0-5.6-2.4-5.6-5.6l0,0c0-3.2,2.4-5.6,5.6-5.6h3.2
	C289.6,295.2,292,297.6,292,300L292,300z"/>
<path style="fill:#F7D2A1;" d="M248,416c0,7.2-5.6,12.8-12.8,12.8l0,0c-7.2,0-12.8-5.6-12.8-12.8V310.4c0-7.2,5.6-12.8,12.8-12.8
	l0,0c7.2,0,12.8,5.6,12.8,12.8V416z"/>
<path style="fill:#FFE4C7;" d="M242.4,308.8c0,3.2-2.4,5.6-5.6,5.6h-3.2c-3.2,0-5.6-2.4-5.6-5.6l0,0c0-3.2,2.4-5.6,5.6-5.6h3.2
	C240,303.2,242.4,305.6,242.4,308.8L242.4,308.8z"/>
<path style="fill:#F7D2A1;" d="M223.2,453.6c0,0-20.8-46.4-22.4-50.4c-0.8-4,16.8-29.6,27.2-20s7.2,38.4,7.2,38.4L223.2,453.6z"/>
<rect x="223.2" y="468" style="fill:#FFFFFF;" width="92" height="16"/>
<rect x="214.4" y="479.2" style="fill:#05365B;" width="106.4" height="24.8"/>
<path style="fill:#F7D2A1;" d="M184.8,366.4c8-4,34.4,5.6,40.8,18.4s5.6,26.4-2.4,29.6s-19.2-3.2-25.6-16S177.6,370.4,184.8,366.4z"
	/>
<g>
</g>
<g>
</g>
<g>
</g>
<g>
</g>
<g>
</g>
<g>
</g>
<g>
</g>
<g>
</g>
<g>
</g>
<g>
</g>
<g>
</g>
<g>
</g>
<g>
</g>
<g>
</g>
<g>
</g>
</svg>
