<?xml version="1.0" encoding="iso-8859-1"?>
<!-- Generator: Adobe Illustrator 19.0.0, SVG Export Plug-In . SVG Version: 6.00 Build 0)  -->
<svg version="1.1" id="Layer_1" xmlns="http://www.w3.org/2000/svg" xmlns:xlink="http://www.w3.org/1999/xlink" x="0px" y="0px"
	 viewBox="0 0 496.158 496.158" style="enable-background:new 0 0 496.158 496.158;" xml:space="preserve">
<path style="fill:#56B48C;" d="M248.082,0.003C111.07,0.003,0,111.061,0,248.085c0,137,111.07,248.07,248.082,248.07
	c137.006,0,248.076-111.07,248.076-248.07C496.158,111.061,385.088,0.003,248.082,0.003z"/>
<g>
	<path style="fill:#FFFFFF;" d="M230.866,270.444c-2.783-6.885-6.91-12.938-12.378-18.164c-5.47-5.223-12.355-9.448-20.654-12.671
		c9.764-4.784,17.113-10.936,22.046-18.457c4.93-7.519,7.397-16.063,7.397-25.635c0-7.519-1.417-14.623-4.248-21.313
		c-2.833-6.688-7.178-12.694-13.037-18.018c-5.859-5.321-13.184-9.496-21.973-12.524c-8.789-3.026-18.995-4.541-30.615-4.541
		c-13.77,0-25.807,2.589-36.108,7.764c-10.304,5.177-18.116,12.085-23.438,20.728c-5.324,8.643-7.983,17.848-7.983,27.612
		c0,20.215,10.009,35.01,30.029,44.385c-24.806,9.767-37.207,27.784-37.207,54.053c0,12.305,2.93,23.415,8.789,33.325
		c5.859,9.913,14.55,17.702,26.074,23.364c11.522,5.663,25.39,8.496,41.602,8.496c15.624,0,29.198-2.833,40.723-8.496
		c11.522-5.663,20.263-13.5,26.221-23.511c5.956-10.009,8.936-21.167,8.936-33.472C235.041,284.971,233.649,277.329,230.866,270.444
		z M136.091,175.668c5.614-5.713,13.012-8.569,22.192-8.569c6.054,0,11.426,1.318,16.113,3.955s8.324,6.251,10.913,10.84
		c2.586,4.591,3.882,9.767,3.882,15.527c0,4.298-0.732,8.229-2.197,11.792c-1.465,3.566-3.541,6.642-6.226,9.229
		c-2.687,2.589-5.91,4.614-9.668,6.079c-3.761,1.465-7.936,2.197-12.524,2.197c-9.082,0-16.505-2.758-22.266-8.276
		c-5.763-5.516-8.643-12.426-8.643-20.728C127.668,188.731,130.474,181.381,136.091,175.668z M190.217,312.412
		c-3.126,5.859-7.423,10.4-12.891,13.623c-5.47,3.223-11.623,4.834-18.457,4.834c-6.738,0-12.843-1.586-18.311-4.761
		c-5.47-3.172-9.792-7.665-12.964-13.477c-3.175-5.809-4.761-12.524-4.761-20.142c0-11.913,3.369-21.19,10.107-27.832
		c6.738-6.64,15.088-9.961,25.049-9.961c7.031,0,13.378,1.515,19.043,4.541c5.663,3.028,10.057,7.375,13.184,13.037
		c3.124,5.665,4.688,12.305,4.688,19.922S193.341,306.552,190.217,312.412z"/>
	<path style="fill:#FFFFFF;" d="M401.008,181.747c-4.298-9.276-9.547-17.065-15.747-23.364
		c-6.203-6.299-13.403-11.083-21.606-14.355c-8.203-3.271-17.335-4.907-27.393-4.907c-15.234,0-28.345,3.688-39.331,11.06
		c-10.986,7.375-19.361,18.091-25.122,32.153c-3.321,8.496-5.763,18.654-7.324,30.469c-1.563,11.817-2.344,25.099-2.344,39.844
		c0,11.426,0.707,22.046,2.124,31.86c1.415,9.814,3.637,18.775,6.665,26.88c5.956,14.845,14.818,26.466,26.587,34.863
		c11.767,8.4,25.072,12.598,39.917,12.598c12.891,0,24.609-3.126,35.156-9.375s19.139-15.136,25.781-26.66
		c5.273-9.375,8.885-19.823,10.84-31.348c1.952-11.522,2.93-25.292,2.93-41.309C412.141,220.664,408.428,197.861,401.008,181.747z
		 M368.928,292.929c-2.051,11.623-5.617,20.558-10.693,26.807c-5.079,6.251-12.11,9.375-21.094,9.375
		c-8.693,0-15.578-3.003-20.654-9.009c-5.079-6.006-8.693-14.868-10.84-26.587c-2.149-11.719-3.223-26.756-3.223-45.117
		c0-27.049,2.513-47.069,7.544-60.059c5.028-12.987,13.989-19.482,26.88-19.482c8.983,0,16.015,2.907,21.094,8.716
		c5.077,5.812,8.69,14.406,10.84,25.781c2.147,11.378,3.223,26.001,3.223,43.872C372.004,266.075,370.978,281.309,368.928,292.929z"
		/>
</g>
<g>
</g>
<g>
</g>
<g>
</g>
<g>
</g>
<g>
</g>
<g>
</g>
<g>
</g>
<g>
</g>
<g>
</g>
<g>
</g>
<g>
</g>
<g>
</g>
<g>
</g>
<g>
</g>
<g>
</g>
</svg>
