<?xml version="1.0" encoding="iso-8859-1"?>
<!-- Generator: Adobe Illustrator 19.0.0, SVG Export Plug-In . SVG Version: 6.00 Build 0)  -->
<svg version="1.1" id="Layer_1" xmlns="http://www.w3.org/2000/svg" xmlns:xlink="http://www.w3.org/1999/xlink" x="0px" y="0px"
	 viewBox="0 0 496.158 496.158" style="enable-background:new 0 0 496.158 496.158;" xml:space="preserve">
<path style="fill:#56B48C;" d="M248.082,0.003C111.07,0.003,0,111.061,0,248.085c0,137,111.07,248.07,248.082,248.07
	c137.006,0,248.076-111.07,248.076-248.07C496.158,111.061,385.088,0.003,248.082,0.003z"/>
<g>
	<path style="fill:#FFFFFF;" d="M231.38,255.136c-3.516-8.496-8.35-15.843-14.502-22.046c-6.152-6.2-13.307-11.06-21.46-14.575
		c-8.155-3.516-16.919-5.273-26.294-5.273c-11.719,0-24.513,3.712-38.379,11.133l8.35-47.461h69.58
		c7.226,0,12.694-1.561,16.406-4.688c3.71-3.124,5.566-7.226,5.566-12.305c0-11.62-7.617-17.432-22.852-17.432h-77.344
		c-8.4,0-14.454,1.904-18.164,5.713c-3.712,3.809-6.251,9.913-7.617,18.311l-12.304,70.166c-1.076,6.152-1.611,9.474-1.611,9.961
		c0,4.395,1.854,8.327,5.566,11.792c3.71,3.468,7.958,5.2,12.744,5.2c4.395,0,9.984-2.563,16.772-7.69
		c6.786-5.127,11.986-8.716,15.601-10.767c3.612-2.051,9.618-3.076,18.018-3.076c6.834,0,13.037,1.637,18.604,4.907
		c5.566,3.273,10.009,8.229,13.33,14.868c3.319,6.642,4.98,14.648,4.98,24.023c0,8.693-1.538,16.457-4.614,23.291
		c-3.076,6.837-7.448,12.208-13.11,16.113c-5.665,3.907-12.257,5.859-19.775,5.859c-8.203,0-15.626-2.417-22.266-7.251
		c-6.642-4.834-11.916-11.595-15.82-20.288c-4.005-9.471-10.107-14.209-18.311-14.209c-4.786,0-8.766,1.71-11.938,5.127
		c-3.175,3.419-4.761,7.031-4.761,10.84c0,6.251,2.271,13.55,6.812,21.899s12.254,15.747,23.145,22.192
		c10.888,6.445,25.072,9.668,42.554,9.668c15.624,0,29.418-3.419,41.382-10.254c11.961-6.834,21.117-16.063,27.466-27.686
		c6.347-11.62,9.521-24.511,9.521-38.672C236.653,272.765,234.895,263.632,231.38,255.136z"/>
	<path style="fill:#FFFFFF;" d="M401.009,181.747c-4.298-9.276-9.547-17.065-15.747-23.364
		c-6.203-6.299-13.403-11.083-21.606-14.355c-8.203-3.271-17.335-4.907-27.393-4.907c-15.234,0-28.345,3.688-39.331,11.06
		c-10.986,7.375-19.361,18.091-25.122,32.153c-3.321,8.496-5.763,18.654-7.324,30.469c-1.563,11.817-2.344,25.099-2.344,39.844
		c0,11.426,0.707,22.046,2.124,31.86c1.415,9.814,3.637,18.775,6.665,26.88c5.956,14.845,14.818,26.466,26.587,34.863
		c11.767,8.4,25.072,12.598,39.917,12.598c12.891,0,24.609-3.126,35.156-9.375s19.139-15.136,25.781-26.66
		c5.273-9.375,8.885-19.823,10.84-31.348c1.952-11.522,2.93-25.292,2.93-41.309C412.142,220.664,408.429,197.861,401.009,181.747z
		 M368.929,292.929c-2.051,11.623-5.617,20.558-10.693,26.807c-5.079,6.251-12.11,9.375-21.094,9.375
		c-8.693,0-15.578-3.003-20.654-9.009c-5.079-6.006-8.693-14.868-10.84-26.587c-2.149-11.719-3.223-26.756-3.223-45.117
		c0-27.049,2.513-47.069,7.544-60.059c5.028-12.987,13.989-19.482,26.88-19.482c8.983,0,16.015,2.907,21.094,8.716
		c5.077,5.812,8.69,14.406,10.84,25.781c2.147,11.378,3.223,26.001,3.223,43.872C372.005,266.075,370.979,281.309,368.929,292.929z"
		/>
</g>
<g>
</g>
<g>
</g>
<g>
</g>
<g>
</g>
<g>
</g>
<g>
</g>
<g>
</g>
<g>
</g>
<g>
</g>
<g>
</g>
<g>
</g>
<g>
</g>
<g>
</g>
<g>
</g>
<g>
</g>
</svg>
