<?xml version="1.0" encoding="iso-8859-1"?>
<!-- Generator: Adobe Illustrator 19.0.0, SVG Export Plug-In . SVG Version: 6.00 Build 0)  -->
<svg version="1.1" id="Layer_1" xmlns="http://www.w3.org/2000/svg" xmlns:xlink="http://www.w3.org/1999/xlink" x="0px" y="0px"
	 viewBox="0 0 496.158 496.158" style="enable-background:new 0 0 496.158 496.158;" xml:space="preserve">
<path style="fill:#56B48C;" d="M248.082,0.003C111.07,0.003,0,111.061,0,248.085c0,137,111.07,248.07,248.082,248.07
	c137.006,0,248.076-111.07,248.076-248.07C496.158,111.061,385.088,0.003,248.082,0.003z"/>
<g>
	<path style="fill:#FFFFFF;" d="M235.848,279.892c-4.541-2.051-10.572-3.076-18.091-3.076h-6.299V163.437
		c0-16.992-7.423-25.488-22.266-25.488c-4.591,0-8.521,1.538-11.792,4.614c-3.273,3.076-7.448,8.034-12.524,14.868L87.239,261.288
		c-2.149,2.833-3.955,5.226-5.42,7.178c-1.465,1.955-2.882,3.98-4.248,6.079c-1.369,2.101-2.394,4.102-3.076,6.006
		c-0.685,1.904-1.025,3.786-1.025,5.64c0,7.228,2.318,12.941,6.958,17.139c4.637,4.2,11.595,6.299,20.874,6.299h73.535v27.246
		c0,7.324,1.685,12.868,5.054,16.626s7.787,5.64,13.257,5.64c5.566,0,10.009-1.831,13.33-5.493c3.319-3.662,4.98-9.251,4.98-16.772
		V309.63h8.936c7.42,0,12.987-1.293,16.699-3.882c3.71-2.586,5.566-6.713,5.566-12.378
		C242.659,286.436,240.389,281.943,235.848,279.892z M174.837,276.816h-62.988l62.988-85.107V276.816z"/>
	<path style="fill:#FFFFFF;" d="M401.009,181.747c-4.298-9.276-9.547-17.065-15.747-23.364
		c-6.203-6.299-13.403-11.083-21.606-14.355c-8.203-3.271-17.335-4.907-27.393-4.907c-15.234,0-28.345,3.688-39.331,11.06
		c-10.986,7.375-19.361,18.091-25.122,32.153c-3.321,8.496-5.763,18.654-7.324,30.469c-1.563,11.817-2.344,25.099-2.344,39.844
		c0,11.426,0.707,22.046,2.124,31.86c1.415,9.814,3.637,18.775,6.665,26.88c5.956,14.845,14.818,26.466,26.587,34.863
		c11.767,8.4,25.072,12.598,39.917,12.598c12.891,0,24.609-3.126,35.156-9.375s19.139-15.136,25.781-26.66
		c5.273-9.375,8.885-19.823,10.84-31.348c1.952-11.522,2.93-25.292,2.93-41.309C412.142,220.664,408.429,197.861,401.009,181.747z
		 M368.929,292.929c-2.051,11.623-5.617,20.558-10.693,26.807c-5.079,6.251-12.11,9.375-21.094,9.375
		c-8.693,0-15.578-3.003-20.654-9.009c-5.079-6.006-8.693-14.868-10.84-26.587c-2.149-11.719-3.223-26.756-3.223-45.117
		c0-27.049,2.513-47.069,7.544-60.059c5.028-12.987,13.989-19.482,26.88-19.482c8.983,0,16.015,2.907,21.094,8.716
		c5.077,5.812,8.69,14.406,10.84,25.781c2.147,11.378,3.223,26.001,3.223,43.872C372.005,266.075,370.979,281.309,368.929,292.929z"
		/>
</g>
<g>
</g>
<g>
</g>
<g>
</g>
<g>
</g>
<g>
</g>
<g>
</g>
<g>
</g>
<g>
</g>
<g>
</g>
<g>
</g>
<g>
</g>
<g>
</g>
<g>
</g>
<g>
</g>
<g>
</g>
</svg>
