<?xml version="1.0" encoding="iso-8859-1"?>
<!-- Generator: Adobe Illustrator 19.0.0, SVG Export Plug-In . SVG Version: 6.00 Build 0)  -->
<svg version="1.1" id="Layer_1" xmlns="http://www.w3.org/2000/svg" xmlns:xlink="http://www.w3.org/1999/xlink" x="0px" y="0px"
	 viewBox="0 0 496.158 496.158" style="enable-background:new 0 0 496.158 496.158;" xml:space="preserve">
<path style="fill:#56B48C;" d="M248.082,0.003C111.07,0.003,0,111.061,0,248.085c0,137,111.07,248.07,248.082,248.07
	c137.006,0,248.076-111.07,248.076-248.07C496.158,111.061,385.088,0.003,248.082,0.003z"/>
<g>
	<path style="fill:#FFFFFF;" d="M227.277,199.326c-3.614-13.28-8.789-24.291-15.527-33.032c-6.738-8.739-15.04-15.404-24.902-19.995
		c-9.865-4.589-21.094-6.885-33.691-6.885c-10.938,0-20.924,1.856-29.956,5.566c-9.034,3.712-16.823,8.888-23.364,15.527
		c-6.544,6.642-11.572,14.479-15.088,23.511c-3.516,9.034-5.273,18.581-5.273,28.638c0,9.375,1.561,18.336,4.688,26.88
		c3.124,8.546,7.592,16.017,13.403,22.412c5.809,6.397,12.694,11.378,20.654,14.941c7.958,3.566,16.527,5.347,25.708,5.347
		c9.668,0,18.48-1.927,26.44-5.786c7.958-3.856,15.161-9.595,21.606-17.212c-1.369,26.466-5.566,44.923-12.598,55.371
		c-3.516,5.177-7.764,9.181-12.744,12.012c-4.98,2.833-10.254,4.248-15.82,4.248c-6.251,0-11.865-1.781-16.846-5.347
		c-4.98-3.563-8.546-8.276-10.693-14.136c-1.758-4.784-4.347-8.373-7.764-10.767c-3.419-2.392-7.276-3.589-11.572-3.589
		c-4.688,0-8.546,1.611-11.572,4.834c-3.028,3.223-4.541,6.885-4.541,10.986c0,6.642,2.44,13.55,7.324,20.728
		c4.882,7.178,12.012,13.184,21.387,18.018s20.409,7.251,33.105,7.251c12.891,0,24.413-2.369,34.57-7.104
		c10.155-4.735,18.871-11.961,26.147-21.68c7.274-9.716,12.817-21.728,16.626-36.035c3.809-14.305,5.713-30.835,5.713-49.585
		C232.697,227.647,230.889,212.608,227.277,199.326z M183.405,235.8c-3.468,6.056-7.96,10.67-13.477,13.843
		c-5.519,3.175-11.305,4.761-17.358,4.761c-9.865,0-18.018-3.856-24.463-11.572c-6.445-7.713-9.668-18.065-9.668-31.055
		c0-13.085,3.223-23.607,9.668-31.567c6.445-7.958,14.305-11.938,23.584-11.938c5.37,0,10.327,1.172,14.868,3.516
		s8.446,5.566,11.719,9.668c3.271,4.102,5.809,8.961,7.617,14.575c1.806,5.617,2.71,11.744,2.71,18.384
		C188.605,222.617,186.871,229.746,183.405,235.8z"/>
	<path style="fill:#FFFFFF;" d="M401.008,181.747c-4.298-9.276-9.547-17.065-15.747-23.364
		c-6.203-6.299-13.403-11.083-21.606-14.355c-8.203-3.271-17.335-4.907-27.393-4.907c-15.234,0-28.345,3.688-39.331,11.06
		c-10.986,7.375-19.361,18.091-25.122,32.153c-3.321,8.496-5.763,18.654-7.324,30.469c-1.563,11.817-2.344,25.099-2.344,39.844
		c0,11.426,0.707,22.046,2.124,31.86c1.415,9.814,3.637,18.775,6.665,26.88c5.956,14.845,14.818,26.466,26.587,34.863
		c11.767,8.4,25.072,12.598,39.917,12.598c12.891,0,24.609-3.126,35.156-9.375s19.139-15.136,25.781-26.66
		c5.273-9.375,8.885-19.823,10.84-31.348c1.952-11.522,2.93-25.292,2.93-41.309C412.141,220.664,408.428,197.861,401.008,181.747z
		 M368.928,292.929c-2.051,11.623-5.617,20.558-10.693,26.807c-5.079,6.251-12.11,9.375-21.094,9.375
		c-8.693,0-15.578-3.003-20.654-9.009c-5.079-6.006-8.693-14.868-10.84-26.587c-2.149-11.719-3.223-26.756-3.223-45.117
		c0-27.049,2.513-47.069,7.544-60.059c5.028-12.987,13.989-19.482,26.88-19.482c8.983,0,16.015,2.907,21.094,8.716
		c5.077,5.812,8.69,14.406,10.84,25.781c2.147,11.378,3.223,26.001,3.223,43.872C372.004,266.075,370.978,281.309,368.928,292.929z"
		/>
</g>
<g>
</g>
<g>
</g>
<g>
</g>
<g>
</g>
<g>
</g>
<g>
</g>
<g>
</g>
<g>
</g>
<g>
</g>
<g>
</g>
<g>
</g>
<g>
</g>
<g>
</g>
<g>
</g>
<g>
</g>
</svg>
