<?xml version="1.0" encoding="iso-8859-1"?>
<!-- Generator: Adobe Illustrator 19.0.0, SVG Export Plug-In . SVG Version: 6.00 Build 0)  -->
<svg version="1.1" id="Layer_1" xmlns="http://www.w3.org/2000/svg" xmlns:xlink="http://www.w3.org/1999/xlink" x="0px" y="0px"
	 viewBox="0 0 496.158 496.158" style="enable-background:new 0 0 496.158 496.158;" xml:space="preserve">
<path style="fill:#56B48C;" d="M248.082,0.003C111.07,0.003,0,111.061,0,248.085c0,137,111.07,248.07,248.082,248.07
	c137.006,0,248.076-111.07,248.076-248.07C496.158,111.061,385.088,0.003,248.082,0.003z"/>
<g>
	<path style="fill:#FFFFFF;" d="M125.092,160.429c-2.605-3.336-6.063-5.005-10.375-5.005c-3.826,0-6.43,0.732-7.813,2.197
		c-1.385,1.465-4.355,5.371-8.912,11.719c-4.559,6.348-9.786,12.085-15.686,17.212c-5.901,5.127-13.775,10.01-23.621,14.648
		c-6.592,3.094-11.189,5.615-13.793,7.568c-2.605,1.953-3.906,5.005-3.906,9.155c0,3.582,1.321,6.735,3.967,9.46
		c2.644,2.728,5.676,4.089,9.094,4.089c7.16,0,21.076-7.935,41.748-23.804v111.084c0,6.512,1.506,11.435,4.518,14.771
		c3.01,3.336,6.998,5.005,11.963,5.005c11.148,0,16.723-8.179,16.723-24.536V174.223
		C128.998,168.364,127.695,163.767,125.092,160.429z"/>
	<path style="fill:#FFFFFF;" d="M301.24,190.703c-3.582-7.73-7.956-14.221-13.123-19.47c-5.169-5.249-11.17-9.235-18.006-11.963
		c-6.836-2.726-14.445-4.089-22.826-4.089c-12.695,0-23.621,3.073-32.776,9.216c-9.155,6.146-16.134,15.076-20.935,26.794
		c-2.768,7.08-4.803,15.545-6.104,25.391c-1.303,9.848-1.953,20.916-1.953,33.203c0,9.521,0.589,18.372,1.77,26.55
		c1.179,8.179,3.031,15.646,5.555,22.4c4.963,12.371,12.348,22.055,22.155,29.053c9.806,7,20.894,10.498,33.265,10.498
		c10.742,0,20.508-2.605,29.297-7.813s15.949-12.613,21.484-22.217c4.395-7.813,7.404-16.52,9.033-26.123
		c1.627-9.602,2.441-21.076,2.441-34.424C310.517,223.133,307.424,204.13,301.24,190.703z M274.506,283.354
		c-1.709,9.686-4.68,17.132-8.91,22.339c-4.232,5.209-10.092,7.813-17.578,7.813c-7.244,0-12.982-2.502-17.213-7.507
		c-4.232-5.005-7.244-12.39-9.033-22.156c-1.791-9.766-2.686-22.297-2.686-37.598c0-22.541,2.095-39.225,6.287-50.049
		c4.19-10.822,11.658-16.235,22.4-16.235c7.486,0,13.346,2.422,17.578,7.263c4.23,4.843,7.242,12.005,9.033,21.484
		c1.789,9.481,2.686,21.667,2.686,36.56C277.07,260.975,276.215,273.67,274.506,283.354z"/>
	<path style="fill:#FFFFFF;" d="M449.799,190.703c-3.582-7.73-7.955-14.221-13.122-19.47c-5.169-5.249-11.169-9.235-18.005-11.963
		c-6.836-2.726-14.447-4.089-22.828-4.089c-12.695,0-23.62,3.073-32.775,9.216c-9.155,6.146-16.135,15.076-20.936,26.794
		c-2.768,7.08-4.803,15.545-6.104,25.391c-1.303,9.848-1.953,20.916-1.953,33.203c0,9.521,0.59,18.372,1.771,26.55
		c1.179,8.179,3.03,15.646,5.554,22.4c4.963,12.371,12.349,22.055,22.156,29.053c9.806,7,20.893,10.498,33.264,10.498
		c10.742,0,20.508-2.605,29.297-7.813s15.949-12.613,21.484-22.217c4.395-7.813,7.404-16.52,9.033-26.123
		c1.627-9.602,2.441-21.076,2.441-34.424C459.076,223.133,455.982,204.13,449.799,190.703z M423.066,283.354
		c-1.709,9.686-4.682,17.132-8.912,22.339c-4.232,5.209-10.092,7.813-17.578,7.813c-7.244,0-12.98-2.502-17.211-7.507
		c-4.232-5.005-7.244-12.39-9.033-22.156c-1.791-9.766-2.686-22.297-2.686-37.598c0-22.541,2.094-39.225,6.286-50.049
		c4.19-10.822,11.657-16.235,22.399-16.235c7.486,0,13.346,2.422,17.578,7.263c4.23,4.843,7.242,12.005,9.033,21.484
		c1.789,9.481,2.686,21.667,2.686,36.56C425.629,260.975,424.775,273.67,423.066,283.354z"/>
</g>
<g>
</g>
<g>
</g>
<g>
</g>
<g>
</g>
<g>
</g>
<g>
</g>
<g>
</g>
<g>
</g>
<g>
</g>
<g>
</g>
<g>
</g>
<g>
</g>
<g>
</g>
<g>
</g>
<g>
</g>
</svg>
