<?xml version="1.0" encoding="iso-8859-1"?>
<!-- Generator: Adobe Illustrator 19.0.0, SVG Export Plug-In . SVG Version: 6.00 Build 0)  -->
<svg version="1.1" id="Layer_1" xmlns="http://www.w3.org/2000/svg" xmlns:xlink="http://www.w3.org/1999/xlink" x="0px" y="0px"
	 viewBox="0 0 496.158 496.158" style="enable-background:new 0 0 496.158 496.158;" xml:space="preserve">
<path style="fill:#56B48C;" d="M248.082,0.003C111.07,0.003,0,111.061,0,248.085c0,137,111.07,248.07,248.082,248.07
	c137.006,0,248.076-111.07,248.076-248.07C496.158,111.061,385.088,0.003,248.082,0.003z"/>
<g>
	<path style="fill:#FFFFFF;" d="M234.455,147.177c-4.2-2.93-10.986-4.395-20.361-4.395h-97.559c-7.716,0-13.722,0.978-18.018,2.93
		c-4.298,1.955-6.445,6.299-6.445,13.037c0,6.349,2.025,11.012,6.079,13.989c4.051,2.98,10.181,4.468,18.384,4.468h78.369
		c-12.305,15.626-22.925,31.325-31.86,47.095c-8.936,15.772-16.383,31.153-22.339,46.143c-5.958,14.992-10.254,27.857-12.891,38.599
		c-2.637,10.744-3.955,19.24-3.955,25.488c0,8.107,1.806,14.234,5.42,18.384c3.612,4.149,8.397,6.226,14.355,6.226
		c6.249,0,11.254-1.93,15.015-5.786c3.758-3.856,6.665-10.767,8.716-20.728c0.879-4.296,1.904-10.497,3.076-18.604
		c1.172-8.104,2.245-14.696,3.223-19.775c0.975-5.077,2.637-11.474,4.98-19.189c5.566-17.479,11.693-32.274,18.384-44.385
		c6.688-12.108,13.184-22.24,19.482-30.396c6.299-8.153,11.913-15.601,16.846-22.339c4.93-6.738,7.397-12.158,7.397-16.26
		C240.754,154.941,238.653,150.107,234.455,147.177z"/>
	<path style="fill:#FFFFFF;" d="M401.008,181.747c-4.298-9.276-9.547-17.065-15.747-23.364
		c-6.203-6.299-13.403-11.083-21.606-14.355c-8.203-3.271-17.335-4.907-27.393-4.907c-15.234,0-28.345,3.688-39.331,11.06
		c-10.986,7.375-19.361,18.091-25.122,32.153c-3.321,8.496-5.763,18.654-7.324,30.469c-1.563,11.817-2.344,25.099-2.344,39.844
		c0,11.426,0.707,22.046,2.124,31.86c1.415,9.814,3.637,18.775,6.665,26.88c5.956,14.845,14.818,26.466,26.587,34.863
		c11.767,8.4,25.072,12.598,39.917,12.598c12.891,0,24.609-3.126,35.156-9.375s19.139-15.136,25.781-26.66
		c5.273-9.375,8.885-19.823,10.84-31.348c1.952-11.522,2.93-25.292,2.93-41.309C412.141,220.664,408.428,197.861,401.008,181.747z
		 M368.928,292.929c-2.051,11.623-5.617,20.558-10.693,26.807c-5.079,6.251-12.11,9.375-21.094,9.375
		c-8.693,0-15.578-3.003-20.654-9.009c-5.079-6.006-8.693-14.868-10.84-26.587c-2.149-11.719-3.223-26.756-3.223-45.117
		c0-27.049,2.513-47.069,7.544-60.059c5.028-12.987,13.989-19.482,26.88-19.482c8.983,0,16.015,2.907,21.094,8.716
		c5.077,5.812,8.69,14.406,10.84,25.781c2.147,11.378,3.223,26.001,3.223,43.872C372.004,266.075,370.978,281.309,368.928,292.929z"
		/>
</g>
<g>
</g>
<g>
</g>
<g>
</g>
<g>
</g>
<g>
</g>
<g>
</g>
<g>
</g>
<g>
</g>
<g>
</g>
<g>
</g>
<g>
</g>
<g>
</g>
<g>
</g>
<g>
</g>
<g>
</g>
</svg>
