<?xml version="1.0" encoding="iso-8859-1"?>
<!-- Generator: Adobe Illustrator 19.0.0, SVG Export Plug-In . SVG Version: 6.00 Build 0)  -->
<svg version="1.1" id="Layer_1" xmlns="http://www.w3.org/2000/svg" xmlns:xlink="http://www.w3.org/1999/xlink" x="0px" y="0px"
	 viewBox="0 0 496.158 496.158" style="enable-background:new 0 0 496.158 496.158;" xml:space="preserve">
<path style="fill:#978874;" d="M248.082,0.003C111.07,0.003,0,111.061,0,248.085c0,137,111.07,248.07,248.082,248.07
	c137.006,0,248.076-111.07,248.076-248.07C496.158,111.061,385.088,0.003,248.082,0.003z"/>
<path style="fill:#FFFFFF;" d="M311.791,173.87c1.789-1.465,4.312-2.197,7.568-2.197v-6.347h-41.5v6.347
	c6.184,0,10.903,0.896,14.159,2.687c1.709,0.976,2.563,2.156,2.563,3.539c0,1.304-0.693,2.807-2.075,4.516l-41.497,53.704
	l-35.152-53.705c-1.059-1.788-1.587-3.335-1.587-4.639c0-1.544,0.772-2.764,2.319-3.662c2.766-1.624,7.403-2.44,13.914-2.44v-6.347
	h-53.704v6.347c3.253,0,5.858,0.732,7.812,2.197s4.229,4.314,6.835,8.544l45.893,71.279l-45.893,61.027
	c-2.93,3.257-5.208,5.698-6.835,7.324c-1.629,1.629-4.231,2.441-7.812,2.441v6.346h41.498v-6.346
	c-7.486,0-12.369-0.813-14.646-2.441c-1.14-0.813-1.708-1.831-1.708-3.053c0-1.219,0.568-2.643,1.708-4.271l40.034-52.238
	l36.616,52.238c1.057,1.465,1.588,2.768,1.588,3.905c0,1.386-0.774,2.525-2.319,3.419c-2.768,1.629-7.406,2.441-13.914,2.441v6.346
	h53.704v-6.346c-3.582,0-6.268-0.895-8.056-2.687c-1.792-1.788-3.988-4.149-6.592-7.079l-47.357-69.814l47.357-62.492
	C307.642,178.184,310.001,175.335,311.791,173.87z"/>
<path style="fill:none;stroke:#FFFFFF;stroke-width:2;stroke-linecap:round;stroke-linejoin:round;stroke-miterlimit:10;" d="
	M311.791,173.87c1.789-1.465,4.312-2.197,7.568-2.197v-6.347h-41.5v6.347c6.184,0,10.903,0.896,14.159,2.687
	c1.709,0.976,2.563,2.156,2.563,3.539c0,1.304-0.693,2.807-2.075,4.516l-41.497,53.704l-35.152-53.705
	c-1.059-1.788-1.587-3.335-1.587-4.639c0-1.544,0.772-2.764,2.319-3.662c2.766-1.624,7.403-2.44,13.914-2.44v-6.347h-53.704v6.347
	c3.253,0,5.858,0.732,7.812,2.197s4.229,4.314,6.835,8.544l45.893,71.279l-45.893,61.027c-2.93,3.257-5.208,5.698-6.835,7.324
	c-1.629,1.629-4.231,2.441-7.812,2.441v6.346h41.498v-6.346c-7.486,0-12.369-0.813-14.646-2.441
	c-1.14-0.813-1.708-1.831-1.708-3.053c0-1.219,0.568-2.643,1.708-4.271l40.034-52.238l36.616,52.238
	c1.057,1.465,1.588,2.768,1.588,3.905c0,1.386-0.774,2.525-2.319,3.419c-2.768,1.629-7.406,2.441-13.914,2.441v6.346h53.704v-6.346
	c-3.582,0-6.268-0.895-8.056-2.687c-1.792-1.788-3.988-4.149-6.592-7.079l-47.357-69.814l47.357-62.492
	C307.642,178.184,310.001,175.335,311.791,173.87z"/>
<g>
</g>
<g>
</g>
<g>
</g>
<g>
</g>
<g>
</g>
<g>
</g>
<g>
</g>
<g>
</g>
<g>
</g>
<g>
</g>
<g>
</g>
<g>
</g>
<g>
</g>
<g>
</g>
<g>
</g>
</svg>
