<?xml version="1.0" encoding="iso-8859-1"?>
<!-- Generator: Adobe Illustrator 19.0.0, SVG Export Plug-In . SVG Version: 6.00 Build 0)  -->
<svg version="1.1" id="Layer_1" xmlns="http://www.w3.org/2000/svg" xmlns:xlink="http://www.w3.org/1999/xlink" x="0px" y="0px"
	 viewBox="0 0 496.158 496.158" style="enable-background:new 0 0 496.158 496.158;" xml:space="preserve">
<path style="fill:#56B48C;" d="M248.082,0.003C111.07,0.003,0,111.061,0,248.085c0,137,111.07,248.07,248.082,248.07
	c137.006,0,248.076-111.07,248.076-248.07C496.158,111.061,385.088,0.003,248.082,0.003z"/>
<g>
	<path style="fill:#FFFFFF;" d="M230.5,269.711c-2.637-6.395-6.568-12.231-11.792-17.505c-5.226-5.273-11.646-9.961-19.263-14.063
		c7.91-6.64,13.989-13.451,18.237-20.435c4.248-6.981,6.372-15.355,6.372-25.122c0-7.42-1.465-14.355-4.395-20.801
		s-7.276-12.108-13.037-16.992c-5.764-4.882-12.55-8.617-20.361-11.206c-7.814-2.586-16.457-3.882-25.928-3.882
		c-10.84,0-20.654,1.538-29.443,4.614s-16.139,7.155-22.046,12.231c-5.909,5.079-10.4,10.426-13.477,16.04
		c-3.076,5.617-4.614,10.963-4.614,16.04c0,5.273,1.635,9.499,4.907,12.671c3.271,3.175,6.859,4.761,10.767,4.761
		c3.318,0,6.248-0.586,8.789-1.758c2.538-1.172,4.296-2.783,5.273-4.834c1.659-3.809,3.49-7.86,5.493-12.158
		c2.001-4.296,4.124-7.812,6.372-10.547c2.245-2.733,5.297-4.93,9.155-6.592c3.856-1.659,8.764-2.49,14.722-2.49
		c8.789,0,15.77,2.71,20.947,8.13c5.175,5.42,7.764,11.891,7.764,19.409c0,9.865-3.248,17.432-9.741,22.705
		c-6.495,5.273-14.234,7.91-23.218,7.91h-6.006c-6.936,0-12.158,1.442-15.674,4.321c-3.516,2.882-5.273,6.665-5.273,11.353
		c0,4.786,1.465,8.521,4.395,11.206c2.93,2.687,7.079,4.028,12.451,4.028c1.172,0,3.809-0.194,7.91-0.586
		c4.102-0.389,7.127-0.586,9.082-0.586c11.133,0,19.823,3.248,26.074,9.741c6.248,6.496,9.375,15.454,9.375,26.88
		c0,7.716-1.831,14.502-5.493,20.361s-8.302,10.279-13.916,13.257c-5.616,2.98-11.451,4.468-17.505,4.468
		c-10.547,0-18.727-3.296-24.536-9.888c-5.812-6.592-11.257-16.674-16.333-30.249c-0.783-2.245-2.442-4.175-4.98-5.786
		c-2.541-1.611-5.178-2.417-7.91-2.417c-5.471,0-10.034,1.735-13.696,5.2c-3.662,3.468-5.493,8.034-5.493,13.696
		c0,4.395,1.538,9.961,4.614,16.699s7.617,13.257,13.623,19.556s13.646,11.549,22.925,15.747c9.276,4.198,19.775,6.299,31.494,6.299
		c11.521,0,22.046-1.831,31.567-5.493s17.747-8.739,24.683-15.234c6.933-6.493,12.182-13.891,15.747-22.192
		c3.563-8.299,5.347-16.894,5.347-25.781C234.455,283.018,233.137,276.109,230.5,269.711z"/>
	<path style="fill:#FFFFFF;" d="M401.008,181.747c-4.299-9.276-9.547-17.065-15.747-23.364
		c-6.202-6.299-13.403-11.083-21.606-14.355c-8.203-3.271-17.336-4.907-27.393-4.907c-15.234,0-28.345,3.688-39.331,11.06
		c-10.986,7.375-19.361,18.091-25.122,32.153c-3.321,8.496-5.764,18.654-7.324,30.469c-1.563,11.817-2.344,25.099-2.344,39.844
		c0,11.426,0.707,22.046,2.124,31.86c1.415,9.814,3.637,18.775,6.665,26.88c5.955,14.845,14.818,26.466,26.587,34.863
		c11.767,8.4,25.071,12.598,39.917,12.598c12.891,0,24.609-3.126,35.156-9.375s19.139-15.136,25.781-26.66
		c5.273-9.375,8.885-19.823,10.84-31.348c1.952-11.522,2.93-25.292,2.93-41.309C412.141,220.664,408.428,197.861,401.008,181.747z
		 M368.928,292.929c-2.051,11.623-5.617,20.558-10.693,26.807c-5.079,6.251-12.11,9.375-21.094,9.375
		c-8.693,0-15.578-3.003-20.654-9.009c-5.079-6.006-8.693-14.868-10.84-26.587c-2.148-11.719-3.223-26.756-3.223-45.117
		c0-27.049,2.514-47.069,7.544-60.059c5.028-12.987,13.989-19.482,26.88-19.482c8.984,0,16.015,2.907,21.094,8.716
		c5.076,5.812,8.69,14.406,10.84,25.781c2.146,11.378,3.223,26.001,3.223,43.872C372.004,266.075,370.978,281.309,368.928,292.929z"
		/>
</g>
<g>
</g>
<g>
</g>
<g>
</g>
<g>
</g>
<g>
</g>
<g>
</g>
<g>
</g>
<g>
</g>
<g>
</g>
<g>
</g>
<g>
</g>
<g>
</g>
<g>
</g>
<g>
</g>
<g>
</g>
</svg>
