<?xml version="1.0" encoding="iso-8859-1"?>
<!-- Generator: Adobe Illustrator 19.0.0, SVG Export Plug-In . SVG Version: 6.00 Build 0)  -->
<svg version="1.1" id="Layer_1" xmlns="http://www.w3.org/2000/svg" xmlns:xlink="http://www.w3.org/1999/xlink" x="0px" y="0px"
	 viewBox="0 0 496.158 496.158" style="enable-background:new 0 0 496.158 496.158;" xml:space="preserve">
<path style="fill:#56B48C;" d="M248.082,0.003C111.07,0.003,0,111.061,0,248.085c0,137,111.07,248.07,248.082,248.07
	c137.006,0,248.076-111.07,248.076-248.07C496.158,111.061,385.088,0.003,248.082,0.003z"/>
<g>
	<path style="fill:#FFFFFF;" d="M230.646,325.595c-4.006-3.124-9.814-4.688-17.432-4.688h-76.465
		c2.439-3.71,4.834-6.885,7.178-9.521c5.468-6.64,15.551-15.967,30.249-27.979c14.696-12.012,25.17-20.824,31.421-26.44
		c6.248-5.614,12.378-13.378,18.384-23.291c6.006-9.911,9.009-20.922,9.009-33.032c0-7.713-1.441-15.161-4.321-22.339
		c-2.882-7.178-6.91-13.5-12.085-18.97c-5.178-5.468-11.184-9.764-18.018-12.891c-10.547-4.688-23.291-7.031-38.232-7.031
		c-12.403,0-23.218,1.831-32.446,5.493s-16.846,8.473-22.852,14.429c-6.006,5.958-10.524,12.598-13.55,19.922
		c-3.028,7.324-4.541,14.355-4.541,21.094c0,5.566,1.611,9.961,4.834,13.184s7.273,4.834,12.158,4.834
		c5.566,0,9.789-1.758,12.671-5.273c2.88-3.516,5.468-8.544,7.764-15.088c2.294-6.542,3.93-10.547,4.907-12.012
		c7.324-11.229,17.381-16.846,30.176-16.846c6.054,0,11.646,1.369,16.772,4.102c5.127,2.735,9.179,6.569,12.158,11.499
		c2.978,4.933,4.468,10.524,4.468,16.772c0,5.763-1.392,11.646-4.175,17.651s-6.837,11.865-12.158,17.578
		c-5.323,5.713-11.989,11.403-19.995,17.065c-4.493,3.028-11.964,9.352-22.412,18.97c-10.451,9.62-22.17,21.167-35.156,34.644
		c-3.127,3.321-6.006,7.887-8.643,13.696c-2.637,5.812-3.955,10.474-3.955,13.989c0,5.47,2.051,10.231,6.152,14.282
		c4.102,4.054,9.814,6.079,17.139,6.079h107.813c6.445,0,11.254-1.659,14.429-4.98c3.173-3.319,4.761-7.372,4.761-12.158
		C236.652,332.97,234.649,328.722,230.646,325.595z"/>
	<path style="fill:#FFFFFF;" d="M401.008,181.747c-4.299-9.276-9.547-17.065-15.747-23.364
		c-6.202-6.299-13.403-11.083-21.606-14.355c-8.203-3.271-17.336-4.907-27.393-4.907c-15.234,0-28.345,3.688-39.331,11.06
		c-10.986,7.375-19.361,18.091-25.122,32.153c-3.321,8.496-5.764,18.654-7.324,30.469c-1.563,11.817-2.344,25.099-2.344,39.844
		c0,11.426,0.707,22.046,2.124,31.86c1.415,9.814,3.637,18.775,6.665,26.88c5.955,14.845,14.818,26.466,26.587,34.863
		c11.767,8.4,25.071,12.598,39.917,12.598c12.891,0,24.609-3.126,35.156-9.375s19.139-15.136,25.781-26.66
		c5.273-9.375,8.885-19.823,10.84-31.348c1.952-11.522,2.93-25.292,2.93-41.309C412.141,220.664,408.428,197.861,401.008,181.747z
		 M368.928,292.929c-2.051,11.623-5.617,20.558-10.693,26.807c-5.079,6.251-12.11,9.375-21.094,9.375
		c-8.693,0-15.578-3.003-20.654-9.009c-5.079-6.006-8.693-14.868-10.84-26.587c-2.149-11.719-3.223-26.756-3.223-45.117
		c0-27.049,2.514-47.069,7.544-60.059c5.028-12.987,13.989-19.482,26.88-19.482c8.983,0,16.015,2.907,21.094,8.716
		c5.076,5.812,8.69,14.406,10.84,25.781c2.146,11.378,3.223,26.001,3.223,43.872C372.004,266.075,370.978,281.309,368.928,292.929z"
		/>
</g>
<g>
</g>
<g>
</g>
<g>
</g>
<g>
</g>
<g>
</g>
<g>
</g>
<g>
</g>
<g>
</g>
<g>
</g>
<g>
</g>
<g>
</g>
<g>
</g>
<g>
</g>
<g>
</g>
<g>
</g>
</svg>
