<?xml version="1.0" encoding="iso-8859-1"?>
<!-- Generator: Adobe Illustrator 19.0.0, SVG Export Plug-In . SVG Version: 6.00 Build 0)  -->
<svg version="1.1" id="Layer_1" xmlns="http://www.w3.org/2000/svg" xmlns:xlink="http://www.w3.org/1999/xlink" x="0px" y="0px"
	 viewBox="0 0 512 512" style="enable-background:new 0 0 512 512;" xml:space="preserve">
<polygon style="fill:#605353;" points="512,418.474 512,464.269 0,464.269 0,418.474 256,384.34 "/>
<polygon style="fill:#8B7E7F;" points="474.624,337.623 512,418.474 0,418.474 37.376,337.623 256,303.49 "/>
<path style="fill:#605353;" d="M281.394,391.012h-50.788c-4.713,0-8.533-3.82-8.533-8.533c0-4.714,3.821-8.533,8.533-8.533h50.788
	c4.714,0,8.533,3.819,8.533,8.533C289.927,387.193,286.108,391.012,281.394,391.012z"/>
<path style="fill:#FFD24D;" d="M443.445,47.731H68.555c-17.209,0-31.176,13.945-31.176,31.175V337.62h437.242V78.906
	C474.621,61.676,460.646,47.731,443.445,47.731z"/>
<path style="fill:#FFFFFF;" d="M256,82.385c-60.815,0-110.292,49.476-110.292,110.292S195.185,302.967,256,302.967
	c21.365,0,42.094-6.12,59.946-17.699c3.954-2.565,5.08-7.848,2.516-11.802c-2.565-3.955-7.848-5.081-11.803-2.516
	c-15.08,9.78-32.597,14.95-50.66,14.95c-51.405,0-93.225-41.82-93.225-93.225S204.595,99.452,256,99.452s93.225,41.82,93.225,93.225
	v33.974c0,7.753-6.308,14.061-14.061,14.061s-14.061-6.308-14.061-14.061v-70.993c0-4.714-3.821-8.533-8.533-8.533
	c-2.841,0-5.351,1.394-6.902,3.529c-11.951-14.104-29.777-23.08-49.666-23.08c-35.897,0-65.102,29.204-65.102,65.102
	s29.203,65.101,65.1,65.101c19.655,0,37.291-8.768,49.237-22.584c3.724,13.022,15.725,22.584,29.926,22.584
	c17.163,0,31.127-13.963,31.127-31.127v-33.974C366.292,131.862,316.815,82.385,256,82.385z M256,240.712
	c-26.486,0-48.036-21.548-48.036-48.036S229.513,144.64,256,144.64s48.036,21.548,48.036,48.036S282.486,240.712,256,240.712z"/>
<g>
</g>
<g>
</g>
<g>
</g>
<g>
</g>
<g>
</g>
<g>
</g>
<g>
</g>
<g>
</g>
<g>
</g>
<g>
</g>
<g>
</g>
<g>
</g>
<g>
</g>
<g>
</g>
<g>
</g>
</svg>
