<?xml version="1.0" encoding="iso-8859-1"?>
<!-- Generator: Adobe Illustrator 19.0.0, SVG Export Plug-In . SVG Version: 6.00 Build 0)  -->
<svg version="1.1" id="Layer_1" xmlns="http://www.w3.org/2000/svg" xmlns:xlink="http://www.w3.org/1999/xlink" x="0px" y="0px"
	 viewBox="0 0 512 512" style="enable-background:new 0 0 512 512;" xml:space="preserve">
<circle style="fill:#6FC5D6;" cx="256" cy="256" r="256"/>
<g>
	<path style="fill:#609399;" d="M256,19.911c-4.714,0-8.533,3.82-8.533,8.533v65.991h17.067V28.444
		C264.533,23.731,260.714,19.911,256,19.911z"/>
	<path style="fill:#609399;" d="M28.444,246.898c-4.714,0-8.533,3.82-8.533,8.533c0,4.714,3.82,8.533,8.533,8.533h65.991v-17.067
		H28.444z"/>
	<path style="fill:#609399;" d="M247.467,417.564v65.991c0,4.714,3.82,8.533,8.533,8.533c4.714,0,8.533-3.82,8.533-8.533v-65.991
		H247.467z"/>
	<path style="fill:#609399;" d="M483.556,246.898h-65.991v17.067h65.991c4.714,0,8.533-3.82,8.533-8.533
		C492.089,250.717,488.269,246.898,483.556,246.898z"/>
</g>
<circle style="fill:#B4E5EA;" cx="256" cy="256" r="204.8"/>
<path style="fill:#FFFFFF;" d="M256,418.065c-89.363,0-162.065-72.702-162.065-162.065S166.637,93.935,256,93.935
	S418.065,166.637,418.065,256S345.363,418.065,256,418.065z"/>
<path style="fill:#F14742;" d="M400.815,111.185L257.907,216.223c-10.817-0.515-21.804,3.358-30.065,11.618l5.402,50.914
	l50.914,5.403c8.26-8.26,12.133-19.248,11.618-30.065L400.815,111.185z"/>
<path style="fill:#609399;" d="M227.841,227.841c-8.26,8.261-12.133,19.248-11.618,30.066L111.185,400.815l142.909-105.039
	c10.817,0.515,21.804-3.358,30.065-11.618L227.841,227.841z"/>
<circle style="fill:#B4E5EA;" cx="256" cy="256" r="11.378"/>
<g>
</g>
<g>
</g>
<g>
</g>
<g>
</g>
<g>
</g>
<g>
</g>
<g>
</g>
<g>
</g>
<g>
</g>
<g>
</g>
<g>
</g>
<g>
</g>
<g>
</g>
<g>
</g>
<g>
</g>
</svg>
