<?xml version="1.0" encoding="iso-8859-1"?>
<!-- Generator: Adobe Illustrator 19.0.0, SVG Export Plug-In . SVG Version: 6.00 Build 0)  -->
<svg version="1.1" id="Layer_1" xmlns="http://www.w3.org/2000/svg" xmlns:xlink="http://www.w3.org/1999/xlink" x="0px" y="0px"
	 viewBox="0 0 512 512" style="enable-background:new 0 0 512 512;" xml:space="preserve">
<g>
	<path style="fill:#6FC5D6;" d="M261.935,73.244h-49.004c-3.141,0-5.689,2.546-5.689,5.689v57.952h60.382V78.933
		C267.624,75.791,265.077,73.244,261.935,73.244z"/>
	<path style="fill:#6FC5D6;" d="M361.367,73.244h-49.004c-3.141,0-5.689,2.546-5.689,5.689v57.952h60.382V78.933
		C367.056,75.791,364.51,73.244,361.367,73.244z"/>
</g>
<path style="fill:#F14742;" d="M460.8,73.244h-49.004c-3.141,0-5.689,2.546-5.689,5.689v57.952h60.382V78.933
	C466.489,75.791,463.941,73.244,460.8,73.244z"/>
<path style="fill:#463836;" d="M512,420.551c0,10.055-8.15,18.204-18.204,18.204H18.204C8.15,438.756,0,430.606,0,420.551V132.333
	c0-10.055,8.15-18.204,18.204-18.204h475.591c10.055,0,18.204,8.15,18.204,18.204V420.551z"/>
<rect x="207.246" y="213.333" style="fill:#C2B8B9;" width="259.243" height="126.214"/>
<g>
	<circle style="fill:#FFFFFF;" cx="274.284" cy="276.446" r="25.599"/>
	<circle style="fill:#FFFFFF;" cx="399.44" cy="276.446" r="25.599"/>
</g>
<g>
	<path style="fill:#605353;" d="M46.08,378.466c-5.019,0-9.102,4.083-9.102,9.102c0,5.019,4.083,9.102,9.102,9.102
		s9.102-4.083,9.102-9.102C55.182,382.549,51.099,378.466,46.08,378.466z"/>
	<path style="fill:#605353;" d="M91.591,378.466c-5.019,0-9.102,4.083-9.102,9.102c0,5.019,4.083,9.102,9.102,9.102
		c5.019,0,9.102-4.083,9.102-9.102C100.693,382.549,96.61,378.466,91.591,378.466z"/>
	<path style="fill:#605353;" d="M137.102,378.466c-5.019,0-9.102,4.083-9.102,9.102c0,5.019,4.083,9.102,9.102,9.102
		c5.019,0,9.102-4.083,9.102-9.102C146.204,382.549,142.121,378.466,137.102,378.466z"/>
	<path style="fill:#605353;" d="M46.08,332.955c-5.019,0-9.102,4.083-9.102,9.102c0,5.019,4.083,9.102,9.102,9.102
		s9.102-4.083,9.102-9.102C55.182,337.038,51.099,332.955,46.08,332.955z"/>
	<path style="fill:#605353;" d="M91.591,332.955c-5.019,0-9.102,4.083-9.102,9.102c0,5.019,4.083,9.102,9.102,9.102
		c5.019,0,9.102-4.083,9.102-9.102C100.693,337.038,96.61,332.955,91.591,332.955z"/>
	<path style="fill:#605353;" d="M137.102,332.955c-5.019,0-9.102,4.083-9.102,9.102c0,5.019,4.083,9.102,9.102,9.102
		c5.019,0,9.102-4.083,9.102-9.102C146.204,337.038,142.121,332.955,137.102,332.955z"/>
	<path style="fill:#605353;" d="M46.08,287.444c-5.019,0-9.102,4.083-9.102,9.102s4.083,9.102,9.102,9.102s9.102-4.083,9.102-9.102
		C55.182,291.527,51.099,287.444,46.08,287.444z"/>
	<path style="fill:#605353;" d="M91.591,287.444c-5.019,0-9.102,4.083-9.102,9.102s4.083,9.102,9.102,9.102
		c5.019,0,9.102-4.083,9.102-9.102C100.693,291.527,96.61,287.444,91.591,287.444z"/>
	<path style="fill:#605353;" d="M137.102,287.444c-5.019,0-9.102,4.083-9.102,9.102s4.083,9.102,9.102,9.102
		c5.019,0,9.102-4.083,9.102-9.102C146.204,291.527,142.121,287.444,137.102,287.444z"/>
	<path style="fill:#605353;" d="M46.08,241.933c-5.019,0-9.102,4.083-9.102,9.102c0,5.019,4.083,9.102,9.102,9.102
		s9.102-4.083,9.102-9.102C55.182,246.016,51.099,241.933,46.08,241.933z"/>
	<path style="fill:#605353;" d="M91.591,241.933c-5.019,0-9.102,4.083-9.102,9.102c0,5.019,4.083,9.102,9.102,9.102
		c5.019,0,9.102-4.083,9.102-9.102C100.693,246.016,96.61,241.933,91.591,241.933z"/>
	<path style="fill:#605353;" d="M137.102,241.933c-5.019,0-9.102,4.083-9.102,9.102c0,5.019,4.083,9.102,9.102,9.102
		c5.019,0,9.102-4.083,9.102-9.102C146.204,246.016,142.121,241.933,137.102,241.933z"/>
	<path style="fill:#605353;" d="M46.08,196.421c-5.019,0-9.102,4.083-9.102,9.102s4.083,9.102,9.102,9.102s9.102-4.083,9.102-9.102
		S51.099,196.421,46.08,196.421z"/>
	<path style="fill:#605353;" d="M91.591,196.421c-5.019,0-9.102,4.083-9.102,9.102s4.083,9.102,9.102,9.102
		c5.019,0,9.102-4.083,9.102-9.102S96.61,196.421,91.591,196.421z"/>
	<path style="fill:#605353;" d="M137.102,196.421c-5.019,0-9.102,4.083-9.102,9.102s4.083,9.102,9.102,9.102
		c5.019,0,9.102-4.083,9.102-9.102S142.121,196.421,137.102,196.421z"/>
</g>
<g>
</g>
<g>
</g>
<g>
</g>
<g>
</g>
<g>
</g>
<g>
</g>
<g>
</g>
<g>
</g>
<g>
</g>
<g>
</g>
<g>
</g>
<g>
</g>
<g>
</g>
<g>
</g>
<g>
</g>
</svg>
