<?xml version="1.0" encoding="iso-8859-1"?>
<!-- Generator: Adobe Illustrator 19.0.0, SVG Export Plug-In . SVG Version: 6.00 Build 0)  -->
<svg version="1.1" id="Layer_1" xmlns="http://www.w3.org/2000/svg" xmlns:xlink="http://www.w3.org/1999/xlink" x="0px" y="0px"
	 viewBox="0 0 512 512" style="enable-background:new 0 0 512 512;" xml:space="preserve">
<path style="fill:#F14742;" d="M146.455,434.842c-51.804,0-96.127,31.923-114.445,77.158h228.889
	C242.582,466.764,198.259,434.842,146.455,434.842z"/>
<circle style="fill:#FAD4C6;" cx="146.455" cy="334.928" r="77.158"/>
<path style="fill:#FFD24D;" d="M479.99,129.029C479.99,57.77,407.247,0,317.522,0c-89.731,0-162.466,57.77-162.466,129.029
	c0,63.663,58.056,116.554,134.419,127.108h-0.231c4.007,24.614-3.386,50.749-22.191,69.733c40.349,0,73.657-30.389,78.716-69.729
	h-0.231C421.911,245.596,479.99,192.701,479.99,129.029z"/>
<g>
	<circle style="fill:#F14742;" cx="260.255" cy="129.024" r="11.378"/>
	<circle style="fill:#F14742;" cx="374.795" cy="129.024" r="11.378"/>
	<circle style="fill:#F14742;" cx="317.52" cy="129.024" r="11.378"/>
</g>
<g>
</g>
<g>
</g>
<g>
</g>
<g>
</g>
<g>
</g>
<g>
</g>
<g>
</g>
<g>
</g>
<g>
</g>
<g>
</g>
<g>
</g>
<g>
</g>
<g>
</g>
<g>
</g>
<g>
</g>
</svg>
