<?xml version="1.0" encoding="iso-8859-1"?>
<!-- Generator: Adobe Illustrator 19.0.0, SVG Export Plug-In . SVG Version: 6.00 Build 0)  -->
<svg version="1.1" id="Layer_1" xmlns="http://www.w3.org/2000/svg" xmlns:xlink="http://www.w3.org/1999/xlink" x="0px" y="0px"
	 viewBox="0 0 512 512" style="enable-background:new 0 0 512 512;" xml:space="preserve">
<path style="fill:#FFF1CD;" d="M388.542,78.183H53.014c-5.114,0-9.262,4.147-9.262,9.262v46.393L0,155.712l43.752,21.877v46.392
	c0,5.115,4.146,9.263,9.262,9.263h335.528c5.115,0,9.262-4.147,9.262-9.263V87.443C397.802,82.329,393.656,78.183,388.542,78.183z"
	/>
<path style="fill:#B4E5EA;" d="M512,356.285l-43.752-21.876v-46.393c0-5.114-4.146-9.262-9.262-9.262H123.459
	c-5.115,0-9.262,4.147-9.262,9.262v136.538c0,5.115,4.146,9.263,9.262,9.263h335.528c5.114,0,9.262-4.147,9.262-9.263v-46.392
	L512,356.285z"/>
<g>
	<path style="fill:#609399;" d="M343.092,386.869H161.037c-4.714,0-8.533-3.82-8.533-8.533c0-4.714,3.82-8.533,8.533-8.533h182.056
		c4.714,0,8.533,3.819,8.533,8.533C351.626,383.049,347.805,386.869,343.092,386.869z"/>
	<path style="fill:#609399;" d="M422.737,342.769h-261.7c-4.714,0-8.533-3.82-8.533-8.533s3.82-8.533,8.533-8.533h261.7
		c4.714,0,8.533,3.82,8.533,8.533S427.449,342.769,422.737,342.769z"/>
</g>
<g>
	<path style="fill:#FFD24D;" d="M272.648,186.297H89.019c-4.714,0-8.533-3.82-8.533-8.533s3.82-8.533,8.533-8.533h183.629
		c4.714,0,8.533,3.82,8.533,8.533S277.361,186.297,272.648,186.297z"/>
	<path style="fill:#FFD24D;" d="M352.292,142.197H89.019c-4.714,0-8.533-3.82-8.533-8.533s3.82-8.533,8.533-8.533h263.274
		c4.714,0,8.533,3.82,8.533,8.533S357.005,142.197,352.292,142.197z"/>
</g>
<g>
</g>
<g>
</g>
<g>
</g>
<g>
</g>
<g>
</g>
<g>
</g>
<g>
</g>
<g>
</g>
<g>
</g>
<g>
</g>
<g>
</g>
<g>
</g>
<g>
</g>
<g>
</g>
<g>
</g>
</svg>
