<?xml version="1.0" encoding="iso-8859-1"?>
<!-- Generator: Adobe Illustrator 19.0.0, SVG Export Plug-In . SVG Version: 6.00 Build 0)  -->
<svg version="1.1" id="Layer_1" xmlns="http://www.w3.org/2000/svg" xmlns:xlink="http://www.w3.org/1999/xlink" x="0px" y="0px"
	 viewBox="0 0 512 512" style="enable-background:new 0 0 512 512;" xml:space="preserve">
<g>
	<path style="fill:#609399;" d="M503.742,491.63H8.258c-4.561,0-8.258-3.696-8.258-8.258c0-4.562,3.697-8.258,8.258-8.258h495.484
		c4.561,0,8.258,3.696,8.258,8.258C512,487.934,508.303,491.63,503.742,491.63z"/>
	<rect x="247.742" y="339.384" style="fill:#609399;" width="16.516" height="145.639"/>
</g>
<rect x="143.514" y="8.258" style="fill:#1B4145;" width="224.972" height="353.148"/>
<circle style="fill:#6FC5D6;" cx="256" cy="287.182" r="19.739"/>
<circle style="fill:#FFD24D;" cx="256" cy="234.331" r="8.258"/>
<g>
	<path style="fill:#609399;" d="M321.287,71.002H190.713c-4.561,0-8.258-3.696-8.258-8.258s3.697-8.258,8.258-8.258h130.575
		c4.561,0,8.258,3.696,8.258,8.258S325.849,71.002,321.287,71.002z"/>
	<path style="fill:#609399;" d="M321.287,179.973H190.713c-4.561,0-8.258-3.696-8.258-8.258s3.697-8.258,8.258-8.258h130.575
		c4.561,0,8.258,3.696,8.258,8.258S325.849,179.973,321.287,179.973z"/>
	<path style="fill:#609399;" d="M321.287,125.487H190.713c-4.561,0-8.258-3.696-8.258-8.258s3.697-8.258,8.258-8.258h130.575
		c4.561,0,8.258,3.696,8.258,8.258S325.849,125.487,321.287,125.487z"/>
</g>
<path style="fill:#6FC5D6;" d="M325.918,463.002H186.082c-3.04,0-5.505,2.464-5.505,5.505v29.729c0,3.04,2.465,5.505,5.505,5.505
	h139.837c3.04,0,5.505-2.465,5.505-5.505v-29.729C331.424,465.466,328.958,463.002,325.918,463.002z"/>
<g>
</g>
<g>
</g>
<g>
</g>
<g>
</g>
<g>
</g>
<g>
</g>
<g>
</g>
<g>
</g>
<g>
</g>
<g>
</g>
<g>
</g>
<g>
</g>
<g>
</g>
<g>
</g>
<g>
</g>
</svg>
