<?xml version="1.0" encoding="iso-8859-1"?>
<!-- Generator: Adobe Illustrator 19.0.0, SVG Export Plug-In . SVG Version: 6.00 Build 0)  -->
<svg version="1.1" id="Layer_1" xmlns="http://www.w3.org/2000/svg" xmlns:xlink="http://www.w3.org/1999/xlink" x="0px" y="0px"
	 viewBox="0 0 512 512" style="enable-background:new 0 0 512 512;" xml:space="preserve">
<path style="fill:#6FC5D6;" d="M423.384,117.37c-11.849,0-23.152,2.332-33.484,6.551C375.171,63.645,320.815,18.909,256,18.909
	S136.829,63.645,122.099,123.921c-10.331-4.219-21.634-6.551-33.484-6.551C39.674,117.37,0,157.044,0,205.986
	c0,48.94,39.674,88.616,88.616,88.616h334.769c48.941,0,88.616-39.675,88.616-88.616C512,157.044,472.326,117.37,423.384,117.37z"/>
<path style="fill:#1B4145;" d="M284.113,442.193c-4.01-2.673-9.429-1.59-12.102,2.42l-7.284,10.927V205.987
	c0-4.82-3.906-8.727-8.727-8.727c-4.821,0-8.727,3.908-8.727,8.727V455.54l-7.284-10.927c-2.673-4.011-8.092-5.093-12.102-2.42
	c-4.01,2.674-5.094,8.092-2.42,12.103l23.273,34.909c0.191,0.283,0.393,0.547,0.607,0.799c0.061,0.071,0.123,0.136,0.186,0.205
	c0.158,0.176,0.324,0.344,0.496,0.507c0.079,0.074,0.158,0.147,0.241,0.219c0.182,0.159,0.371,0.31,0.567,0.453
	c0.066,0.049,0.13,0.101,0.199,0.149c0.271,0.188,0.553,0.363,0.845,0.52c0.304,0.161,0.595,0.291,0.891,0.41
	c0.076,0.03,0.152,0.056,0.229,0.084c0.234,0.086,0.472,0.163,0.717,0.228c0.092,0.026,0.185,0.049,0.278,0.071
	c0.24,0.057,0.484,0.101,0.731,0.137c0.09,0.013,0.177,0.03,0.268,0.041c0.332,0.038,0.667,0.063,1.008,0.063
	s0.677-0.024,1.008-0.063c0.09-0.01,0.178-0.028,0.268-0.041c0.247-0.036,0.491-0.081,0.731-0.137
	c0.093-0.022,0.186-0.047,0.278-0.071c0.243-0.066,0.482-0.142,0.717-0.228c0.076-0.028,0.152-0.054,0.228-0.084
	c0.298-0.119,0.588-0.249,0.868-0.399c0.316-0.169,0.597-0.343,0.868-0.532c0.069-0.048,0.133-0.1,0.199-0.149
	c0.195-0.143,0.384-0.293,0.567-0.453c0.081-0.071,0.162-0.144,0.241-0.219c0.172-0.162,0.336-0.332,0.496-0.507
	c0.062-0.069,0.126-0.134,0.186-0.205c0.215-0.254,0.418-0.517,0.603-0.794c0.005-0.007,23.277-34.916,23.277-34.916
	C289.208,450.285,288.123,444.866,284.113,442.193z"/>
<g>
</g>
<g>
</g>
<g>
</g>
<g>
</g>
<g>
</g>
<g>
</g>
<g>
</g>
<g>
</g>
<g>
</g>
<g>
</g>
<g>
</g>
<g>
</g>
<g>
</g>
<g>
</g>
<g>
</g>
</svg>
