<?xml version="1.0" encoding="iso-8859-1"?>
<!-- Generator: Adobe Illustrator 19.0.0, SVG Export Plug-In . SVG Version: 6.00 Build 0)  -->
<svg version="1.1" id="Layer_1" xmlns="http://www.w3.org/2000/svg" xmlns:xlink="http://www.w3.org/1999/xlink" x="0px" y="0px"
	 viewBox="0 0 512 512" style="enable-background:new 0 0 512 512;" xml:space="preserve">
<path style="fill:#6FC5D6;" d="M423.384,117.37c-11.849,0-23.153,2.332-33.484,6.551C375.17,63.645,320.815,18.909,256,18.909
	S136.83,63.645,122.099,123.921c-10.331-4.219-21.634-6.551-33.484-6.551C39.674,117.37,0,157.044,0,205.986
	c0,48.94,39.674,88.616,88.616,88.616h334.769c48.941,0,88.616-39.675,88.616-88.616C512,157.044,472.326,117.37,423.384,117.37z"/>
<path style="fill:#1B4145;" d="M286.534,236.054l-23.273-34.909c-0.19-0.283-0.393-0.547-0.607-0.799
	c-0.06-0.071-0.123-0.136-0.186-0.205c-0.158-0.176-0.323-0.344-0.496-0.507c-0.079-0.074-0.158-0.147-0.241-0.219
	c-0.182-0.159-0.371-0.31-0.567-0.453c-0.066-0.049-0.132-0.101-0.199-0.149c-0.271-0.189-0.552-0.363-0.845-0.52
	c-0.306-0.162-0.596-0.292-0.892-0.411c-0.076-0.03-0.152-0.056-0.228-0.084c-0.235-0.086-0.474-0.163-0.717-0.228
	c-0.092-0.026-0.185-0.049-0.278-0.071c-0.24-0.057-0.484-0.101-0.731-0.137c-0.09-0.013-0.177-0.03-0.268-0.041
	c-0.332-0.038-0.667-0.063-1.008-0.063s-0.677,0.024-1.008,0.063c-0.09,0.01-0.178,0.028-0.268,0.041
	c-0.247,0.036-0.491,0.081-0.731,0.137c-0.093,0.022-0.186,0.047-0.278,0.071c-0.243,0.066-0.482,0.142-0.717,0.228
	c-0.077,0.028-0.154,0.054-0.229,0.084c-0.296,0.119-0.585,0.249-0.865,0.397c-0.32,0.17-0.6,0.346-0.872,0.533
	c-0.069,0.048-0.133,0.1-0.199,0.149c-0.195,0.143-0.384,0.293-0.567,0.453c-0.081,0.071-0.162,0.144-0.241,0.219
	c-0.172,0.162-0.336,0.332-0.496,0.507c-0.062,0.069-0.126,0.134-0.186,0.205c-0.215,0.254-0.418,0.517-0.603,0.794
	c-0.005,0.007-23.277,34.916-23.277,34.916c-2.674,4.01-1.59,9.429,2.42,12.103c4.009,2.673,9.429,1.59,12.102-2.42l7.284-10.927
	v249.553c0,4.82,3.906,8.727,8.727,8.727c4.821,0,8.727-3.908,8.727-8.727V234.81l7.284,10.927c1.681,2.523,4.449,3.888,7.269,3.888
	c1.664,0,3.345-0.475,4.833-1.466C288.123,245.483,289.208,240.064,286.534,236.054z"/>
<g>
</g>
<g>
</g>
<g>
</g>
<g>
</g>
<g>
</g>
<g>
</g>
<g>
</g>
<g>
</g>
<g>
</g>
<g>
</g>
<g>
</g>
<g>
</g>
<g>
</g>
<g>
</g>
<g>
</g>
</svg>
