<?xml version="1.0" encoding="iso-8859-1"?>
<!-- Generator: Adobe Illustrator 19.0.0, SVG Export Plug-In . SVG Version: 6.00 Build 0)  -->
<svg version="1.1" id="Layer_1" xmlns="http://www.w3.org/2000/svg" xmlns:xlink="http://www.w3.org/1999/xlink" x="0px" y="0px"
	 viewBox="0 0 512 512" style="enable-background:new 0 0 512 512;" xml:space="preserve">
<path style="fill:#FFD24D;" d="M401.551,243.41H264.393v-65.566h-16.787v65.566H110.45c-4.635,0-8.393,3.757-8.393,8.393v73.96
	h16.787v-65.566h274.315v65.566h16.787v-73.96C409.945,247.167,406.187,243.41,401.551,243.41z"/>
<rect x="221.441" y="132.023" style="fill:#8B7E7F;" width="69.128" height="57.007"/>
<path style="fill:#C2B8B9;" d="M314.591,197.428H197.409c-4.635,0-8.393-3.757-8.393-8.393c0-4.637,3.758-8.393,8.393-8.393h117.183
	c4.637,0,8.393,3.757,8.393,8.393C322.985,193.671,319.227,197.428,314.591,197.428z"/>
<path style="fill:#463836;" d="M362.284,121.722c0,11.873-9.624,21.497-21.497,21.497H171.213c-11.873,0-21.497-9.624-21.497-21.497
	V21.497C149.716,9.624,159.34,0,171.213,0h169.574c11.873,0,21.497,9.624,21.497,21.497V121.722z"/>
<rect x="366.984" y="446.598" style="fill:#8B7E7F;" width="69.128" height="57.007"/>
<path style="fill:#C2B8B9;" d="M460.142,512H342.959c-4.635,0-8.393-3.757-8.393-8.393c0-4.637,3.758-8.393,8.393-8.393h117.182
	c4.637,0,8.393,3.757,8.393,8.393C468.535,508.243,464.777,512,460.142,512z"/>
<path style="fill:#463836;" d="M507.835,436.293c0,11.873-9.625,21.497-21.497,21.497H316.763c-11.873,0-21.497-9.624-21.497-21.497
	V336.069c0-11.873,9.624-21.497,21.497-21.497h169.574c11.873,0,21.497,9.625,21.497,21.497L507.835,436.293L507.835,436.293z"/>
<rect x="75.886" y="446.598" style="fill:#8B7E7F;" width="69.128" height="57.007"/>
<path style="fill:#C2B8B9;" d="M169.041,512H51.858c-4.635,0-8.393-3.757-8.393-8.393c0-4.637,3.758-8.393,8.393-8.393h117.183
	c4.637,0,8.393,3.757,8.393,8.393C177.434,508.243,173.677,512,169.041,512z"/>
<path style="fill:#463836;" d="M216.734,436.293c0,11.873-9.624,21.497-21.497,21.497H25.663c-11.873,0-21.497-9.624-21.497-21.497
	V336.069c0-11.873,9.624-21.497,21.497-21.497h169.574c11.873,0,21.497,9.625,21.497,21.497V436.293z"/>
<g>
</g>
<g>
</g>
<g>
</g>
<g>
</g>
<g>
</g>
<g>
</g>
<g>
</g>
<g>
</g>
<g>
</g>
<g>
</g>
<g>
</g>
<g>
</g>
<g>
</g>
<g>
</g>
<g>
</g>
</svg>
