<?xml version="1.0" encoding="iso-8859-1"?>
<!-- Generator: Adobe Illustrator 19.0.0, SVG Export Plug-In . SVG Version: 6.00 Build 0)  -->
<svg version="1.1" id="Layer_1" xmlns="http://www.w3.org/2000/svg" xmlns:xlink="http://www.w3.org/1999/xlink" x="0px" y="0px"
	 viewBox="0 0 512 512" style="enable-background:new 0 0 512 512;" xml:space="preserve">
<path style="fill:#609399;" d="M0,143.358v251.451c0,10.683,8.66,19.342,19.342,19.342h473.316c10.683,0,19.342-8.66,19.342-19.342
	V143.358l-256-34.133L0,143.358z"/>
<path style="fill:#ECE7EA;" d="M442.005,197.973h-88.156L256,220.729l-97.849-22.756H71.292c-15.709,0-28.444,12.735-28.444,28.444
	v104.676c0,15.709,12.735,28.444,28.444,28.444h86.859L256,325.404l97.849,34.133h88.156c15.709,0,28.444-12.735,28.444-28.444
	V226.418C470.449,210.708,457.714,197.973,442.005,197.973z"/>
<rect y="97.849" style="fill:#6FC5D6;" width="512" height="45.509"/>
<g>
	<path style="fill:#1B4145;" d="M108.658,278.756c0,27.334,22.159,49.493,49.493,49.493l34.133-49.493l-34.133-49.493
		C130.817,229.262,108.658,251.422,108.658,278.756z"/>
	<path style="fill:#1B4145;" d="M353.849,229.262l-34.133,49.493l34.133,49.493c27.334,0,49.493-22.159,49.493-49.493
		S381.183,229.262,353.849,229.262z"/>
</g>
<rect x="158.151" y="197.973" style="fill:#6FC5D6;" width="195.698" height="161.564"/>
<g>
</g>
<g>
</g>
<g>
</g>
<g>
</g>
<g>
</g>
<g>
</g>
<g>
</g>
<g>
</g>
<g>
</g>
<g>
</g>
<g>
</g>
<g>
</g>
<g>
</g>
<g>
</g>
<g>
</g>
</svg>
