<?xml version="1.0" encoding="iso-8859-1"?>
<!-- Generator: Adobe Illustrator 19.0.0, SVG Export Plug-In . SVG Version: 6.00 Build 0)  -->
<svg version="1.1" id="Layer_1" xmlns="http://www.w3.org/2000/svg" xmlns:xlink="http://www.w3.org/1999/xlink" x="0px" y="0px"
	 viewBox="0 0 512 512" style="enable-background:new 0 0 512 512;" xml:space="preserve">
<rect x="191.738" y="267.833" style="fill:#C2B8B9;" width="43.828" height="149.413"/>
<path style="fill:#8B7E7F;" d="M101.559,30.047C45.469,30.047,0,75.517,0,131.606v320.3c0,16.593,13.452,30.046,30.046,30.046
	H173.07c16.594,0,30.046-13.453,30.046-30.046v-320.3C203.117,75.517,157.648,30.047,101.559,30.047z"/>
<path style="fill:#C2B8B9;" d="M0,131.606c0,56.089,45.469,101.559,101.558,101.559s101.559-45.47,101.559-101.559
	C203.117,131.606,0,131.606,0,131.606z"/>
<circle style="fill:#1B4145;" cx="101.558" cy="131.607" r="51.079"/>
<circle style="fill:#609399;" cx="101.558" cy="131.607" r="15.929"/>
<rect x="235.566" y="233.165" style="fill:#8B7E7F;" width="276.435" height="218.738"/>
<rect x="269.699" y="267.299" style="fill:#1B4145;" width="208.168" height="150.471"/>
<path style="fill:#FEE191;" d="M168.983,288.302v17.419l-67.425,22.756l-67.425-22.756v-17.419c0-11.31,9.17-20.48,20.48-20.48
	h93.889C159.812,267.822,168.983,276.993,168.983,288.302z"/>
<path style="fill:#FFD24D;" d="M168.983,305.721v17.408c0,11.31-9.17,20.48-20.48,20.48H54.613c-11.31,0-20.48-9.171-20.48-20.48
	v-17.408H168.983z"/>
<g>
</g>
<g>
</g>
<g>
</g>
<g>
</g>
<g>
</g>
<g>
</g>
<g>
</g>
<g>
</g>
<g>
</g>
<g>
</g>
<g>
</g>
<g>
</g>
<g>
</g>
<g>
</g>
<g>
</g>
</svg>
