<?xml version="1.0" encoding="iso-8859-1"?>
<!-- Generator: Adobe Illustrator 19.0.0, SVG Export Plug-In . SVG Version: 6.00 Build 0)  -->
<svg version="1.1" id="Layer_1" xmlns="http://www.w3.org/2000/svg" xmlns:xlink="http://www.w3.org/1999/xlink" x="0px" y="0px"
	 viewBox="0 0 512 512" style="enable-background:new 0 0 512 512;" xml:space="preserve">
<path style="fill:#1B4145;" d="M503.607,512c-45.141,0-81.865-36.724-81.865-81.865v-52.85c0-4.637,3.758-8.393,8.393-8.393
	c4.635,0,8.393,3.757,8.393,8.393v52.85c0,35.884,29.194,65.078,65.078,65.078c4.635,0,8.393,3.757,8.393,8.393
	C512,508.243,508.242,512,503.607,512z"/>
<circle style="fill:#8B7E7F;" cx="251.803" cy="251.803" r="222.449"/>
<circle style="fill:#1B4145;" cx="251.803" cy="251.803" r="144.11"/>
<path style="fill:#C2B8B9;" d="M251.803,0C112.736,0,0,112.736,0,251.803s112.736,251.803,251.803,251.803
	S503.607,390.87,503.607,251.803S390.87,0,251.803,0z M53.035,187.22c11.173-34.388,48.108-53.207,82.495-42.034
	c34.387,11.173,53.207,48.108,42.033,82.496s-48.108,53.207-82.495,42.034C60.681,258.542,41.862,221.608,53.035,187.22z
	 M220.405,406.402c-21.253,29.253-62.195,35.737-91.447,14.484c-29.252-21.252-35.737-62.195-14.484-91.447
	c21.253-29.253,62.195-35.737,91.447-14.484C235.173,336.208,241.658,377.15,220.405,406.402z M186.334,108.275
	c0-36.158,29.311-65.469,65.469-65.469s65.469,29.311,65.469,65.469s-29.311,65.469-65.469,65.469S186.334,144.433,186.334,108.275z
	 M374.649,420.885c-29.252,21.252-70.194,14.768-91.447-14.484c-21.253-29.252-14.768-70.194,14.484-91.447
	c29.252-21.252,70.194-14.768,91.447,14.484C410.385,358.69,403.9,399.633,374.649,420.885z M408.537,269.716
	c-34.387,11.172-71.322-7.646-82.495-42.034s7.646-71.322,42.033-82.496c34.387-11.172,71.322,7.646,82.495,42.034
	C461.743,221.608,442.925,258.542,408.537,269.716z"/>
<circle style="fill:#8B7E7F;" cx="251.803" cy="251.803" r="35.252"/>
<g>
</g>
<g>
</g>
<g>
</g>
<g>
</g>
<g>
</g>
<g>
</g>
<g>
</g>
<g>
</g>
<g>
</g>
<g>
</g>
<g>
</g>
<g>
</g>
<g>
</g>
<g>
</g>
<g>
</g>
</svg>
