<?xml version="1.0" encoding="iso-8859-1"?>
<!-- Generator: Adobe Illustrator 19.0.0, SVG Export Plug-In . SVG Version: 6.00 Build 0)  -->
<svg version="1.1" id="Layer_1" xmlns="http://www.w3.org/2000/svg" xmlns:xlink="http://www.w3.org/1999/xlink" x="0px" y="0px"
	 viewBox="0 0 512 512" style="enable-background:new 0 0 512 512;" xml:space="preserve">
<path style="fill:#FAB9A7;" d="M476.282,199.276c19.724,0,35.718,15.982,35.718,35.706S496.006,270.7,476.282,270.7l-68.267,24.381
	l24.381-95.805L476.282,199.276L476.282,199.276z"/>
<path style="fill:#F99D88;" d="M461.653,270.7c19.724,0,35.718,15.994,35.718,35.718c0,19.724-15.994,35.718-35.718,35.718h-14.629
	l-39.01,24.381V270.7H461.653L461.653,270.7z"/>
<path style="fill:#FAB9A7;" d="M447.025,342.136c19.724,0,35.718,15.982,35.718,35.706c0,19.736-15.994,35.718-35.718,35.718h-39.01
	v-71.424H447.025z"/>
<path style="fill:#F99D88;" d="M432.396,413.56c19.724,0,35.718,15.994,35.718,35.718s-15.994,35.718-35.718,35.718l-24.381-35.718
	L432.396,413.56z"/>
<path style="fill:#FAD4C6;" d="M432.396,413.56v71.436h-36.571c0,0-32.658,0-111.567,0c-47.482,0-89.527-23.186-115.505-58.831
	H98.731v-168.07h70.022c19.2-26.331,47.165-46.031,79.604-54.382c16.152-4.169,33.865-18.676,40.18-28.587
	c20.833-32.67,30.891-70.936,28.635-110.373c-1.122-19.688,13.934-36.571,33.621-37.693c19.7-1.122,36.571,13.934,37.693,33.621
	c2.804,48.981-8.131,96.646-31.244,138.594h75.154L432.396,413.56L432.396,413.56z"/>
<rect y="199.277" style="fill:#1B4145;" width="110.927" height="285.72"/>
<circle style="fill:#FFFFFF;" cx="55.463" cy="442.331" r="12.19"/>
<g>
</g>
<g>
</g>
<g>
</g>
<g>
</g>
<g>
</g>
<g>
</g>
<g>
</g>
<g>
</g>
<g>
</g>
<g>
</g>
<g>
</g>
<g>
</g>
<g>
</g>
<g>
</g>
<g>
</g>
</svg>
