<?xml version="1.0" encoding="iso-8859-1"?>
<!-- Generator: Adobe Illustrator 19.0.0, SVG Export Plug-In . SVG Version: 6.00 Build 0)  -->
<svg version="1.1" id="Layer_1" xmlns="http://www.w3.org/2000/svg" xmlns:xlink="http://www.w3.org/1999/xlink" x="0px" y="0px"
	 viewBox="0 0 512 512" style="enable-background:new 0 0 512 512;" xml:space="preserve">
<path style="fill:#463836;" d="M463.919,0l22.666,150.681l-22.666,150.681c-28.56,0-386.791,0-415.838,0L25.415,150.681L48.081,0
	H463.919z"/>
<g>
	<path style="fill:#6FC5D6;" d="M48.081,0v301.361c-0.261,0-0.499,0-0.714,0c-25.5,0-46.364-20.864-46.364-46.364V46.364
		C1.003,20.864,21.867,0,47.367,0H48.081z"/>
	<path style="fill:#6FC5D6;" d="M464.633,0c25.5,0,46.364,20.864,46.364,46.364v208.633c0,25.5-20.864,46.364-46.364,46.364
		c-0.204,0-0.442,0-0.714,0V0H464.633z"/>
</g>
<path style="fill:#FFD24D;" d="M362.162,156.28c0.116-0.131,0.226-0.265,0.332-0.402c0.069-0.091,0.138-0.18,0.203-0.272
	c0.107-0.148,0.206-0.303,0.303-0.458c0.054-0.087,0.109-0.173,0.159-0.262c0.099-0.173,0.188-0.351,0.275-0.53
	c0.037-0.079,0.078-0.156,0.113-0.236c0.088-0.198,0.165-0.402,0.238-0.609c0.024-0.068,0.052-0.134,0.074-0.203
	c0.071-0.221,0.131-0.449,0.185-0.678c0.014-0.058,0.032-0.114,0.044-0.172c0.051-0.238,0.087-0.482,0.118-0.726
	c0.007-0.052,0.018-0.102,0.024-0.154c0.031-0.295,0.048-0.594,0.048-0.898s-0.017-0.603-0.048-0.898
	c-0.006-0.052-0.017-0.102-0.024-0.154c-0.031-0.245-0.067-0.488-0.118-0.726c-0.012-0.059-0.031-0.116-0.044-0.172
	c-0.054-0.229-0.113-0.456-0.185-0.678c-0.023-0.069-0.05-0.135-0.074-0.202c-0.073-0.206-0.151-0.41-0.238-0.61
	c-0.035-0.079-0.076-0.156-0.113-0.236c-0.086-0.18-0.177-0.358-0.275-0.532c-0.051-0.088-0.105-0.175-0.159-0.262
	c-0.096-0.156-0.196-0.309-0.303-0.458c-0.066-0.093-0.134-0.182-0.203-0.272c-0.107-0.138-0.218-0.272-0.332-0.402
	c-0.077-0.088-0.155-0.175-0.237-0.26c-0.122-0.128-0.25-0.252-0.381-0.372c-0.054-0.051-0.103-0.107-0.16-0.156l-23.792-20.875
	c-3.528-3.095-8.9-2.745-11.995,0.783c-3.095,3.528-2.745,8.9,0.783,11.995l6.821,5.985H240.11c-4.695,0-8.5,3.805-8.5,8.5
	c0,4.695,3.805,8.5,8.5,8.5h93.093l-6.823,5.986c-3.528,3.096-3.879,8.467-0.783,11.995c1.68,1.915,4.031,2.895,6.393,2.895
	c1.99,0,3.989-0.695,5.602-2.11l23.792-20.876c0.057-0.049,0.105-0.105,0.16-0.156c0.13-0.12,0.258-0.244,0.381-0.372
	C362.006,156.456,362.083,156.369,362.162,156.28z"/>
<g>
	<path style="fill:#F99D88;" d="M355.777,301.361l-24.944,22.666l-24.944-22.666c0-13.781,11.163-24.944,24.944-24.944
		S355.777,287.58,355.777,301.361z"/>
	<path style="fill:#F99D88;" d="M305.889,301.361l-24.944,22.666L256,301.361c0-13.781,11.163-24.944,24.944-24.944
		S305.889,287.58,305.889,301.361z"/>
	<path style="fill:#F99D88;" d="M256,301.361l-24.944,22.666l-24.944-22.666c0-13.781,11.163-24.944,24.944-24.944
		C244.837,276.417,256,287.58,256,301.361z"/>
</g>
<path style="fill:#FAD4C6;" d="M206.111,301.361V153.882c0-13.781-11.163-24.944-24.944-24.944s-24.944,11.163-24.944,24.944
	c0,0,0,206.038,0,238.553c0,33.501,15.934,63.171,41.083,81.508V512h117.389v-38.057c25.148-18.337,41.083-48.007,41.083-81.508
	c0-37.366,0-91.074,0-91.074L206.111,301.361L206.111,301.361z"/>
<g>
</g>
<g>
</g>
<g>
</g>
<g>
</g>
<g>
</g>
<g>
</g>
<g>
</g>
<g>
</g>
<g>
</g>
<g>
</g>
<g>
</g>
<g>
</g>
<g>
</g>
<g>
</g>
<g>
</g>
</svg>
