<?xml version="1.0" encoding="iso-8859-1"?>
<!-- Generator: Adobe Illustrator 19.0.0, SVG Export Plug-In . SVG Version: 6.00 Build 0)  -->
<svg version="1.1" id="Layer_1" xmlns="http://www.w3.org/2000/svg" xmlns:xlink="http://www.w3.org/1999/xlink" x="0px" y="0px"
	 viewBox="0 0 512 512" style="enable-background:new 0 0 512 512;" xml:space="preserve">
<path style="fill:#C2B8B9;" d="M302.649,45.511C302.649,20.48,282.169,0,257.138,0H45.511C20.48,0,0,20.48,0,45.511v59.164
	l151.324,22.756l151.324-22.756V45.511z"/>
<g>
	<path style="fill:#605353;" d="M187.164,60.894h-71.68c-4.713,0-8.533-3.821-8.533-8.533s3.821-8.533,8.533-8.533h71.68
		c4.714,0,8.533,3.821,8.533,8.533S191.878,60.894,187.164,60.894z"/>
	<polygon style="fill:#605353;" points="0,104.676 0,407.324 151.324,430.08 302.649,407.324 302.649,104.676 	"/>
</g>
<path style="fill:#C2B8B9;" d="M0,466.489C0,491.52,20.48,512,45.511,512h211.627c25.031,0,45.511-20.48,45.511-45.511v-59.164H0
	V466.489z"/>
<circle style="fill:#FFFFFF;" cx="151.324" cy="459.662" r="17.067"/>
<polygon style="fill:#FFD24D;" points="245.352,188.079 245.352,150.649 151.273,256 245.352,361.351 245.352,323.921 512,323.921 
	512,188.079 "/>
<g>
</g>
<g>
</g>
<g>
</g>
<g>
</g>
<g>
</g>
<g>
</g>
<g>
</g>
<g>
</g>
<g>
</g>
<g>
</g>
<g>
</g>
<g>
</g>
<g>
</g>
<g>
</g>
<g>
</g>
</svg>
