<?xml version="1.0" encoding="iso-8859-1"?>
<!-- Generator: Adobe Illustrator 19.0.0, SVG Export Plug-In . SVG Version: 6.00 Build 0)  -->
<svg version="1.1" id="Layer_1" xmlns="http://www.w3.org/2000/svg" xmlns:xlink="http://www.w3.org/1999/xlink" x="0px" y="0px"
	 viewBox="0 0 512 512" style="enable-background:new 0 0 512 512;" xml:space="preserve">
<path style="fill:#8B7E7F;" d="M512,398.643v48.97c0,9.421-7.646,17.067-17.067,17.067H17.067C7.646,464.68,0,457.034,0,447.613
	v-48.97l256-34.133L512,398.643z"/>
<rect y="47.32" style="fill:#463836;" width="512" height="351.323"/>
<g>
	<path style="fill:#ECE7EA;" d="M422.402,361.078c-4.714,0-8.533-3.82-8.533-8.533V92.243c0-4.714,3.82-8.533,8.533-8.533
		c4.714,0,8.533,3.82,8.533,8.533v260.301C430.936,357.258,427.116,361.078,422.402,361.078z"/>
	<path style="fill:#ECE7EA;" d="M311.468,362.263c-4.714,0-8.533-3.82-8.533-8.533V93.427c0-4.714,3.82-8.533,8.533-8.533
		c4.714,0,8.533,3.82,8.533,8.533v260.301C320.001,358.442,316.182,362.263,311.468,362.263z"/>
	<path style="fill:#ECE7EA;" d="M200.533,361.078c-4.713,0-8.533-3.82-8.533-8.533V92.243c0-4.714,3.821-8.533,8.533-8.533
		s8.533,3.82,8.533,8.533v260.301C209.067,357.258,205.246,361.078,200.533,361.078z"/>
	<path style="fill:#ECE7EA;" d="M89.599,362.263c-4.713,0-8.533-3.82-8.533-8.533V93.427c0-4.714,3.821-8.533,8.533-8.533
		c4.713,0,8.533,3.82,8.533,8.533v260.301C98.132,358.442,94.312,362.263,89.599,362.263z"/>
</g>
<g>
	<rect x="401.067" y="135.885" style="fill:#609399;" width="42.672" height="86.994"/>
	<rect x="290.133" y="223.095" style="fill:#609399;" width="42.672" height="86.994"/>
</g>
<g>
	<rect x="179.2" y="135.885" style="fill:#F14742;" width="42.672" height="86.994"/>
	<rect x="68.262" y="223.095" style="fill:#F14742;" width="42.672" height="86.994"/>
</g>
<g>
</g>
<g>
</g>
<g>
</g>
<g>
</g>
<g>
</g>
<g>
</g>
<g>
</g>
<g>
</g>
<g>
</g>
<g>
</g>
<g>
</g>
<g>
</g>
<g>
</g>
<g>
</g>
<g>
</g>
</svg>
