<?xml version="1.0" encoding="iso-8859-1"?>
<!-- Generator: Adobe Illustrator 19.0.0, SVG Export Plug-In . SVG Version: 6.00 Build 0)  -->
<svg version="1.1" id="Layer_1" xmlns="http://www.w3.org/2000/svg" xmlns:xlink="http://www.w3.org/1999/xlink" x="0px" y="0px"
	 viewBox="0 0 512 512" style="enable-background:new 0 0 512 512;" xml:space="preserve">
<g>
	<path style="fill:#1B4145;" d="M198.925,410.819v92.788c0,4.637,3.758,8.393,8.393,8.393s8.393-3.757,8.393-8.393v-92.788H198.925z
		"/>
	<path style="fill:#1B4145;" d="M410.439,0H101.561l97.364,433.201h308.879V97.364C507.803,43.592,464.212,0,410.439,0z"/>
</g>
<path style="fill:#609399;" d="M4.197,433.201v70.405c0,4.637,3.758,8.393,8.393,8.393s8.393-3.757,8.393-8.393v-92.788
	L4.197,433.201z"/>
<path style="fill:#1B4145;" d="M491.016,410.819v92.788c0,4.637,3.758,8.393,8.393,8.393s8.393-3.757,8.393-8.393v-70.405
	L491.016,410.819z"/>
<g>
	<path style="fill:#609399;" d="M101.561,0C47.788,0,4.197,43.592,4.197,97.364v335.837h194.728V97.364
		C198.925,43.592,155.334,0,101.561,0z"/>
	<polygon style="fill:#609399;" points="463.038,204.24 463.038,399.629 243.69,399.629 243.69,204.24 353.364,181.858 	"/>
</g>
<rect x="243.69" y="125.902" style="fill:#6FC5D6;" width="219.349" height="78.339"/>
<polygon style="fill:#FFFFFF;" points="289.574,249.005 289.574,334.311 418.273,334.311 418.273,249.005 353.924,269.275 "/>
<polygon style="fill:#B4E5EA;" points="289.574,249.005 353.924,302.849 418.273,249.005 "/>
<g>
</g>
<g>
</g>
<g>
</g>
<g>
</g>
<g>
</g>
<g>
</g>
<g>
</g>
<g>
</g>
<g>
</g>
<g>
</g>
<g>
</g>
<g>
</g>
<g>
</g>
<g>
</g>
<g>
</g>
</svg>
