<?xml version="1.0" encoding="iso-8859-1"?>
<!-- Generator: Adobe Illustrator 19.0.0, SVG Export Plug-In . SVG Version: 6.00 Build 0)  -->
<svg version="1.1" id="Layer_1" xmlns="http://www.w3.org/2000/svg" xmlns:xlink="http://www.w3.org/1999/xlink" x="0px" y="0px"
	 viewBox="0 0 512 512" style="enable-background:new 0 0 512 512;" xml:space="preserve">
<path style="fill:#D6CED1;" d="M428.82,69.528L218.182,203.393L7.544,69.528C2.923,73.788,0,79.866,0,86.608v263.149
	c0,6.775,2.951,12.878,7.611,17.14l210.57-133.797l216.387,139.93h1.794V86.608C436.364,79.866,433.441,73.788,428.82,69.528z"/>
<path style="fill:#C2B8B9;" d="M23.273,373.03h411.297L287.682,218.183H148.681L7.611,366.898
	C11.755,370.69,17.247,373.03,23.273,373.03z"/>
<path style="fill:#ECE7EA;" d="M23.273,63.336c-6.058,0-11.577,2.365-15.729,6.193l194.582,204.189
	c8.831,9.266,23.28,9.266,32.111,0L428.82,69.528c-4.152-3.828-9.671-6.193-15.729-6.193H23.273z"/>
<circle style="fill:#F14742;" cx="436.364" cy="373.028" r="75.636"/>
<path style="fill:#FFFFFF;" d="M436.364,410.849c-4.821,0-8.727-3.907-8.727-8.727v-38.315c-3.07,1.082-6.623,0.397-9.081-2.06
	c-3.408-3.408-3.408-8.934,0-12.342l11.636-11.636c2.497-2.497,6.251-3.244,9.512-1.892c3.262,1.351,5.388,4.534,5.388,8.063v58.182
	C445.091,406.941,441.185,410.849,436.364,410.849z"/>
<g>
</g>
<g>
</g>
<g>
</g>
<g>
</g>
<g>
</g>
<g>
</g>
<g>
</g>
<g>
</g>
<g>
</g>
<g>
</g>
<g>
</g>
<g>
</g>
<g>
</g>
<g>
</g>
<g>
</g>
</svg>
