<?xml version="1.0" encoding="iso-8859-1"?>
<!-- Generator: Adobe Illustrator 19.0.0, SVG Export Plug-In . SVG Version: 6.00 Build 0)  -->
<svg version="1.1" id="Layer_1" xmlns="http://www.w3.org/2000/svg" xmlns:xlink="http://www.w3.org/1999/xlink" x="0px" y="0px"
	 viewBox="0 0 512 512" style="enable-background:new 0 0 512 512;" xml:space="preserve">
<rect x="234.906" y="365.215" style="fill:#F99D88;" width="42.177" height="146.785"/>
<path style="fill:#FFD24D;" d="M375.467,125.156c-19.629,0-238.933,0-238.933,0l98.377,262.81h238.933V223.532
	C473.843,169.201,429.799,125.156,375.467,125.156z"/>
<path style="fill:#FEE191;" d="M136.533,125.156c-54.332,0-98.377,44.046-98.377,98.377v164.433H234.91V223.532
	C234.91,169.201,190.866,125.156,136.533,125.156z"/>
<path style="fill:#F14742;" d="M362.645,0h-77.022l-8.533,65.991h85.555c5.656,0,10.24-4.584,10.24-10.24V10.24
	C372.885,4.584,368.3,0,362.645,0z"/>
<path style="fill:#CD3F39;" d="M268.557,0v305.749c0,4.714,3.821,8.533,8.533,8.533s8.533-3.82,8.533-8.533V0H268.557z"/>
<path style="fill:#FFFFFF;" d="M136.533,216.747c-4.713,0-8.533-3.82-8.533-8.533v-26.169c0-4.714,3.821-8.533,8.533-8.533
	s8.533,3.82,8.533,8.533v26.169C145.067,212.927,141.246,216.747,136.533,216.747z"/>
<g>
</g>
<g>
</g>
<g>
</g>
<g>
</g>
<g>
</g>
<g>
</g>
<g>
</g>
<g>
</g>
<g>
</g>
<g>
</g>
<g>
</g>
<g>
</g>
<g>
</g>
<g>
</g>
<g>
</g>
</svg>
