<?xml version="1.0" encoding="iso-8859-1"?>
<!-- Generator: Adobe Illustrator 19.0.0, SVG Export Plug-In . SVG Version: 6.00 Build 0)  -->
<svg version="1.1" id="Layer_1" xmlns="http://www.w3.org/2000/svg" xmlns:xlink="http://www.w3.org/1999/xlink" x="0px" y="0px"
	 viewBox="0 0 512 512" style="enable-background:new 0 0 512 512;" xml:space="preserve">
<g>
	<path style="fill:#F14742;" d="M89.461,132.438c-22.804,0-41.29,18.486-41.29,41.29s18.486,41.29,41.29,41.29
		c1.399,0,2.728-0.072,4.093-0.207l0.003-82.166C92.193,132.51,90.861,132.438,89.461,132.438z"/>
	<path style="fill:#F14742;" d="M422.539,132.438c22.804,0,41.29,18.486,41.29,41.29s-18.486,41.29-41.29,41.29
		c-1.399,0-2.728-0.072-4.093-0.207l-0.003-82.166C419.807,132.51,421.139,132.438,422.539,132.438z"/>
	<path style="fill:#F14742;" d="M459.181,512C443.375,414.029,358.433,339.201,256,339.201
		c-102.432,0-187.374,74.828-203.181,172.799H459.181z"/>
</g>
<circle style="fill:#FAB9A7;" cx="256" cy="173.728" r="132.437"/>
<path style="fill:#463836;" d="M256,257.717l-147.106-0.002c-3.089,0-5.918-1.723-7.336-4.467
	c-12.618-24.414-19.289-51.911-19.289-79.517C82.27,77.934,160.205,0,256,0s173.73,77.934,173.73,173.729
	c0,27.608-6.67,55.106-19.289,79.519c-2.093,4.053-7.077,5.641-11.127,3.544c-4.052-2.094-5.639-7.077-3.544-11.127
	c11.576-22.394,17.444-46.596,17.444-71.934c0-86.689-70.526-157.214-157.214-157.214S98.786,87.041,98.786,173.729
	c0,23.662,5.118,46.333,15.222,67.468L256,241.199c4.561,0,8.258,3.697,8.258,8.258S260.561,257.717,256,257.717z"/>
<g>
</g>
<g>
</g>
<g>
</g>
<g>
</g>
<g>
</g>
<g>
</g>
<g>
</g>
<g>
</g>
<g>
</g>
<g>
</g>
<g>
</g>
<g>
</g>
<g>
</g>
<g>
</g>
<g>
</g>
</svg>
