<?xml version="1.0" encoding="iso-8859-1"?>
<!-- Generator: Adobe Illustrator 19.0.0, SVG Export Plug-In . SVG Version: 6.00 Build 0)  -->
<svg version="1.1" id="Layer_1" xmlns="http://www.w3.org/2000/svg" xmlns:xlink="http://www.w3.org/1999/xlink" x="0px" y="0px"
	 viewBox="0 0 512 512" style="enable-background:new 0 0 512 512;" xml:space="preserve">
<path style="fill:#F14742;" d="M462.512,478.426C446.447,378.849,360.112,302.794,256,302.794
	c-104.111,0-190.446,76.055-206.512,175.632H462.512z"/>
<circle style="fill:#FAB9A7;" cx="256" cy="134.608" r="134.608"/>
<path style="fill:#463836;" d="M239.844,342.028v153.185c0,9.271,7.516,16.787,16.787,16.787s16.787-7.516,16.787-16.787V342.028
	H239.844z"/>
<rect x="190.71" y="284.885" style="fill:#FFD24D;" width="130.58" height="112.55"/>
<path style="fill:#463836;" d="M304.694,216.716c0,61.521-21.802,68.172-48.694,68.172s-48.694-6.652-48.694-68.172
	c0-26.893,21.802-48.694,48.694-48.694S304.694,189.823,304.694,216.716z"/>
<g>
</g>
<g>
</g>
<g>
</g>
<g>
</g>
<g>
</g>
<g>
</g>
<g>
</g>
<g>
</g>
<g>
</g>
<g>
</g>
<g>
</g>
<g>
</g>
<g>
</g>
<g>
</g>
<g>
</g>
</svg>
