<?xml version="1.0" encoding="iso-8859-1"?>
<!-- Generator: Adobe Illustrator 19.0.0, SVG Export Plug-In . SVG Version: 6.00 Build 0)  -->
<svg version="1.1" id="Layer_1" xmlns="http://www.w3.org/2000/svg" xmlns:xlink="http://www.w3.org/1999/xlink" x="0px" y="0px"
	 viewBox="0 0 511.999 511.999" style="enable-background:new 0 0 511.999 511.999;" xml:space="preserve">
<rect x="274.722" y="360.704" style="fill:#6FC5D6;" width="16.787" height="56.973"/>
<path style="fill:#F14742;" d="M306.009,406.486h-45.782c-12.393,52.217-58.754,79.838-114.456,81.109v24.404h274.694v-24.404
	C364.763,486.324,318.402,458.703,306.009,406.486z"/>
<path style="fill:#B4E5EA;" d="M283.359,369.109c-37.45,0-73.873-10.886-105.332-31.479c-32.241-21.104-57.087-51.104-71.854-86.753
	c-19.547-47.191-19.519-99.238,0.079-146.552s56.38-84.137,103.572-103.684c4.282-1.773,9.192,0.26,10.966,4.543l140.16,338.377
	c0.853,2.057,0.853,4.367,0,6.424c-0.852,2.057-2.486,3.691-4.543,4.543C333.054,364.203,308.475,369.109,283.359,369.109z
	 M208.572,19.545c-39.359,18.52-70.003,50.633-86.809,91.204c-17.882,43.171-17.91,90.655-0.078,133.704
	c27.142,65.527,90.603,107.868,161.673,107.869c20.115,0,39.854-3.451,58.801-10.272L208.572,19.545z"/>
<circle style="fill:#6FC5D6;" cx="283.116" cy="177.583" r="137.35"/>
<g>
</g>
<g>
</g>
<g>
</g>
<g>
</g>
<g>
</g>
<g>
</g>
<g>
</g>
<g>
</g>
<g>
</g>
<g>
</g>
<g>
</g>
<g>
</g>
<g>
</g>
<g>
</g>
<g>
</g>
</svg>
