<?xml version="1.0" encoding="iso-8859-1"?>
<!-- Generator: Adobe Illustrator 19.0.0, SVG Export Plug-In . SVG Version: 6.00 Build 0)  -->
<svg version="1.1" id="Layer_1" xmlns="http://www.w3.org/2000/svg" xmlns:xlink="http://www.w3.org/1999/xlink" x="0px" y="0px"
	 viewBox="0 0 512 512" style="enable-background:new 0 0 512 512;" xml:space="preserve">
<circle style="fill:#609399;" cx="256" cy="256" r="247.467"/>
<path style="fill:#B4E5EA;" d="M256,0C114.615,0,0,114.615,0,256s114.615,256,256,256s256-114.615,256-256S397.385,0,256,0z
	 M140.8,256c0-14.313,0.614-28.428,1.814-42.23c32.025,5.427,67.643,8.575,104.853,8.994v66.471
	c-37.209,0.419-72.827,3.567-104.853,8.994C141.414,284.429,140.8,270.313,140.8,256z M264.533,139.187
	c29.772-1.105,58.906-7.369,86.167-18.355c7.81,23.169,13.507,48.775,16.882,75.859c-31.454,5.394-66.608,8.573-103.051,9.004
	v-66.509H264.533z M264.533,122.111V17.739c26.523,4.155,51.583,27.606,71.326,67.092c3.184,6.368,6.161,13.043,8.938,19.975
	C319.411,115.099,292.274,121.008,264.533,122.111z M247.467,17.739v104.439c-27.806-0.877-55.035-6.583-80.535-16.697
	c2.855-7.174,5.921-14.075,9.209-20.65C195.883,45.345,220.944,21.894,247.467,17.739z M247.467,139.253v66.443
	c-36.442-0.431-71.597-3.611-103.051-9.004c3.343-26.819,8.959-52.192,16.65-75.181
	C188.431,132.307,217.642,138.374,247.467,139.253z M247.467,306.303v66.443c-29.825,0.878-59.036,6.946-86.401,17.743
	c-7.691-22.989-13.307-48.362-16.65-75.181C175.87,309.915,211.025,306.735,247.467,306.303z M247.467,389.823v104.439
	c-26.523-4.155-51.583-27.606-71.326-67.092c-3.287-6.575-6.354-13.476-9.209-20.65C192.431,396.406,219.661,390.7,247.467,389.823z
	 M264.533,494.261V389.889c27.74,1.103,54.876,7.012,80.265,17.306c-2.778,6.931-5.755,13.606-8.938,19.974
	C316.117,466.655,291.056,490.106,264.533,494.261z M264.533,372.813v-66.51c36.442,0.431,71.597,3.611,103.051,9.004
	c-3.376,27.084-9.074,52.69-16.882,75.859C323.438,380.184,294.304,373.918,264.533,372.813z M264.533,289.236v-66.471
	c37.209-0.419,72.827-3.567,104.853-8.994c1.199,13.801,1.814,27.917,1.814,42.23c0,14.313-0.614,28.429-1.814,42.23
	C337.36,292.803,301.742,289.654,264.533,289.236z M386.229,210.637c39.795-8.079,72.937-19.853,95.073-34.329
	c8.818,24.926,13.632,51.745,13.632,79.692s-4.814,54.766-13.632,79.692c-22.135-14.476-55.278-26.25-95.073-34.329
	c1.344-14.826,2.038-29.992,2.038-45.363S387.573,225.464,386.229,210.637z M474.872,160.059
	c-19.737,13.929-51.647,25.471-90.499,33.47c-3.611-28.396-9.69-55.278-18.014-79.624c18.452-8.913,35.875-20.073,51.861-33.311
	C442.172,102.758,461.573,129.764,474.872,160.059z M405.082,69.29c-13.875,11.209-28.877,20.756-44.701,28.532
	c-2.88-7.146-5.962-14.038-9.256-20.624c-11.284-22.568-24.4-40.522-38.758-53.427C346.782,32.097,378.286,47.867,405.082,69.29z
	 M160.876,77.198c-3.418,6.835-6.608,13.997-9.58,21.432c-16.055-7.738-31.281-17.294-45.362-28.547
	c27.007-21.827,58.862-37.885,93.701-46.311C185.276,36.676,172.159,54.63,160.876,77.198z M92.867,81.446
	c16.187,13.262,33.827,24.402,52.502,33.255c-8.185,24.136-14.169,50.741-17.741,78.828c-38.851-7.999-70.761-19.541-90.499-33.47
	C50.258,130.149,69.334,103.448,92.867,81.446z M30.698,176.308c22.135,14.476,55.278,26.25,95.073,34.329
	c-1.344,14.826-2.038,29.992-2.038,45.363s0.694,30.536,2.038,45.363c-39.795,8.079-72.937,19.853-95.073,34.329
	C21.881,310.766,17.067,283.947,17.067,256S21.881,201.234,30.698,176.308z M37.128,351.941
	c19.737-13.929,51.647-25.471,90.499-33.47c3.573,28.086,9.556,54.693,17.741,78.827c-18.674,8.853-36.314,19.993-52.502,33.255
	C69.334,408.552,50.258,381.851,37.128,351.941z M105.933,441.916c14.081-11.254,29.307-20.809,45.362-28.547
	c2.972,7.435,6.162,14.598,9.58,21.432c11.284,22.568,24.4,40.522,38.758,53.427C164.795,479.801,132.94,463.743,105.933,441.916z
	 M351.124,434.802c3.294-6.587,6.376-13.478,9.256-20.625c15.824,7.777,30.826,17.324,44.701,28.532
	c-26.796,21.423-58.3,37.194-92.716,45.518C326.724,475.324,339.841,457.37,351.124,434.802z M418.219,431.406
	c-15.986-13.238-33.409-24.398-51.861-33.311c8.324-24.346,14.403-51.227,18.014-79.624c38.851,7.999,70.761,19.541,90.499,33.47
	C461.573,382.236,442.172,409.242,418.219,431.406z"/>
<g>
</g>
<g>
</g>
<g>
</g>
<g>
</g>
<g>
</g>
<g>
</g>
<g>
</g>
<g>
</g>
<g>
</g>
<g>
</g>
<g>
</g>
<g>
</g>
<g>
</g>
<g>
</g>
<g>
</g>
</svg>
