<?xml version="1.0" encoding="iso-8859-1"?>
<!-- Generator: Adobe Illustrator 19.0.0, SVG Export Plug-In . SVG Version: 6.00 Build 0)  -->
<svg version="1.1" id="Layer_1" xmlns="http://www.w3.org/2000/svg" xmlns:xlink="http://www.w3.org/1999/xlink" x="0px" y="0px"
	 viewBox="0 0 512 512" style="enable-background:new 0 0 512 512;" xml:space="preserve">
<g>
	<path style="fill:#C2B8B9;" d="M297.477,145.932c0-19.84-16.233-36.073-36.073-36.073H96.168c-19.84,0-36.073,16.233-36.073,36.073
		v46.179l118.691,23.273l118.691-23.273V145.932z"/>
	<path style="fill:#C2B8B9;" d="M60.095,475.927c0,19.84,16.233,36.073,36.073,36.073h165.236c19.84,0,36.073-16.233,36.073-36.073
		v-46.179l-118.691-23.273L60.095,429.748C60.095,429.748,60.095,475.927,60.095,475.927z"/>
</g>
<rect x="60.095" y="192.105" style="fill:#463836;" width="237.382" height="237.638"/>
<path style="fill:#FFD24D;" d="M451.905,122.449C451.905,54.824,382.872,0,297.723,0c-85.155,0-154.182,54.824-154.182,122.449
	c0,60.417,55.096,110.609,127.565,120.626h-0.22c3.803,23.358-3.214,48.162-21.059,66.177c38.292,0,69.902-28.84,74.702-66.174
	h-0.22C396.788,233.073,451.905,182.875,451.905,122.449z"/>
<g>
	<path style="fill:#F14742;" d="M217.435,160.268c-13.726,0-24.46-6.1-28.011-15.919c-1.64-4.532,0.705-9.536,5.238-11.176
		c4.53-1.637,9.536,0.704,11.176,5.238c0.791,2.188,5.029,4.402,11.598,4.402c4.089,0,11.821-1.217,11.821-5.824
		c0-2.612-0.535-3.855-13.234-5.932c-10.42-1.705-27.862-4.558-27.862-23.148c0-13.706,12.039-23.279,29.275-23.279
		c13.72,0,24.454,6.095,28.009,15.908c1.642,4.532-0.702,9.536-5.233,11.178c-4.532,1.644-9.536-0.702-11.178-5.232
		c-0.792-2.186-5.029-4.4-11.598-4.4c-4.089,0-11.82,1.217-11.82,5.824c0,2.607,0.535,3.847,13.226,5.922
		c10.424,1.705,27.87,4.558,27.87,23.158C246.712,150.696,234.673,160.268,217.435,160.268z"/>
	<path style="fill:#F14742;" d="M378.012,160.268c-13.725,0-24.458-6.099-28.011-15.917c-1.641-4.532,0.703-9.536,5.235-11.177
		c4.535-1.643,9.536,0.705,11.176,5.236c0.792,2.188,5.03,4.403,11.6,4.403c4.089,0,11.821-1.217,11.821-5.824
		c0-2.612-0.535-3.855-13.234-5.932c-10.42-1.705-27.862-4.558-27.862-23.148c0-13.706,12.039-23.279,29.275-23.279
		c13.719,0,24.451,6.095,28.008,15.907c1.643,4.531-0.699,9.536-5.231,11.179c-4.534,1.647-9.536-0.699-11.178-5.231
		c-0.794-2.186-5.032-4.401-11.599-4.401c-4.089,0-11.82,1.217-11.82,5.824c0,2.607,0.535,3.847,13.226,5.922
		c10.424,1.705,27.87,4.558,27.87,23.158C407.288,150.696,395.249,160.268,378.012,160.268z"/>
	<path style="fill:#F14742;" d="M322.554,160.268c-4.821,0-8.727-3.907-8.727-8.727v-34.515l-9.466,11.089
		c-1.658,1.942-4.083,3.062-6.637,3.062s-4.979-1.118-6.637-3.062l-9.466-11.089v34.515c0,4.82-3.906,8.727-8.727,8.727
		s-8.727-3.907-8.727-8.727V93.359c0-3.656,2.278-6.924,5.708-8.189c3.428-1.266,7.284-0.258,9.657,2.522l18.193,21.314
		l18.193-21.314c2.373-2.78,6.225-3.788,9.657-2.522c3.429,1.264,5.708,4.532,5.708,8.189v58.182
		C331.281,156.36,327.375,160.268,322.554,160.268z"/>
</g>
<g>
</g>
<g>
</g>
<g>
</g>
<g>
</g>
<g>
</g>
<g>
</g>
<g>
</g>
<g>
</g>
<g>
</g>
<g>
</g>
<g>
</g>
<g>
</g>
<g>
</g>
<g>
</g>
<g>
</g>
</svg>
