<?xml version="1.0" encoding="iso-8859-1"?>
<!-- Generator: Adobe Illustrator 19.0.0, SVG Export Plug-In . SVG Version: 6.00 Build 0)  -->
<svg version="1.1" id="Layer_1" xmlns="http://www.w3.org/2000/svg" xmlns:xlink="http://www.w3.org/1999/xlink" x="0px" y="0px"
	 viewBox="0 0 512 512" style="enable-background:new 0 0 512 512;" xml:space="preserve">
<g>
	<path style="fill:#605353;" d="M336.291,381.091c0,12.8,10.473,23.273,23.273,23.273h129.164c12.8,0,23.273-10.473,23.273-23.273
		v-37.236l-87.855-23.273l-87.855,23.273V381.091z"/>
	<path style="fill:#605353;" d="M512,130.909c0-12.8-10.473-23.273-23.273-23.273H359.564c-12.8,0-23.273,10.473-23.273,23.273
		v37.236l87.855,23.273L512,168.145V130.909z"/>
</g>
<rect x="336.291" y="168.145" style="fill:#FFD24D;" width="175.709" height="175.709"/>
<path style="fill:#463836;" d="M445.091,146.618H403.2c-4.82,0-8.727-3.908-8.727-8.727s3.908-8.727,8.727-8.727h41.891
	c4.82,0,8.727,3.907,8.727,8.727S449.911,146.618,445.091,146.618z"/>
<g>
	<path style="fill:#605353;" d="M0,381.091c0,12.8,10.473,23.273,23.273,23.273h129.164c12.8,0,23.273-10.473,23.273-23.273v-37.236
		l-87.855-23.273L0,343.855V381.091z"/>
	<path style="fill:#605353;" d="M175.709,130.909c0-12.8-10.473-23.273-23.273-23.273H23.273C10.473,107.636,0,118.109,0,130.909
		v37.236l87.855,23.273l87.855-23.273V130.909z"/>
</g>
<rect y="168.145" style="fill:#FFD24D;" width="175.709" height="175.709"/>
<path style="fill:#463836;" d="M108.8,146.618H66.909c-4.82,0-8.727-3.908-8.727-8.727s3.907-8.727,8.727-8.727H108.8
	c4.82,0,8.727,3.907,8.727,8.727S113.62,146.618,108.8,146.618z"/>
<path style="fill:#F99D88;" d="M301.382,293.818h-61.939l10.925-7.284c4.011-2.673,5.094-8.092,2.42-12.102
	c-2.673-4.01-8.092-5.093-12.102-2.42l-34.909,23.273c-2.427,1.619-3.887,4.343-3.887,7.261s1.458,5.644,3.887,7.261l34.909,23.273
	c1.488,0.993,3.17,1.467,4.833,1.467c2.819,0,5.588-1.365,7.269-3.888c2.674-4.01,1.591-9.429-2.42-12.102l-10.925-7.284h61.939
	c4.821,0,8.727-3.907,8.727-8.727S306.203,293.818,301.382,293.818z"/>
<path style="fill:#F14742;" d="M306.223,202.193l-34.909-23.273c-4.009-2.674-9.429-1.591-12.102,2.42
	c-2.674,4.01-1.59,9.429,2.42,12.102l10.927,7.284h-61.94c-4.82,0-8.727,3.907-8.727,8.727c0,4.82,3.908,8.727,8.727,8.727h61.939
	l-10.927,7.284c-4.01,2.673-5.094,8.092-2.42,12.102c1.681,2.523,4.449,3.888,7.269,3.888c1.664,0,3.345-0.475,4.833-1.467
	l34.909-23.273c2.428-1.619,3.887-4.343,3.887-7.261S308.651,203.811,306.223,202.193z"/>
<g>
</g>
<g>
</g>
<g>
</g>
<g>
</g>
<g>
</g>
<g>
</g>
<g>
</g>
<g>
</g>
<g>
</g>
<g>
</g>
<g>
</g>
<g>
</g>
<g>
</g>
<g>
</g>
<g>
</g>
</svg>
