<?xml version="1.0" encoding="iso-8859-1"?>
<!-- Generator: Adobe Illustrator 19.0.0, SVG Export Plug-In . SVG Version: 6.00 Build 0)  -->
<svg version="1.1" id="Layer_1" xmlns="http://www.w3.org/2000/svg" xmlns:xlink="http://www.w3.org/1999/xlink" x="0px" y="0px"
	 viewBox="0 0 512 512" style="enable-background:new 0 0 512 512;" xml:space="preserve">
<path style="fill:#D6CED1;" d="M256,0C132.889,0,101.369,81.918,101.369,136.437v239.128C101.369,430.082,132.889,512,256,512
	s154.631-81.918,154.631-136.435V136.437C410.631,81.918,379.111,0,256,0z"/>
<path style="fill:#C2B8B9;" d="M256,270.545c-4.714,0-8.533-3.82-8.533-8.533V34.133c0-4.714,3.82-8.533,8.533-8.533
	c4.714,0,8.533,3.82,8.533,8.533v227.879C264.533,266.726,260.714,270.545,256,270.545z"/>
<path style="fill:#FFFFFF;" d="M256,77.692c-16.651,0-30.151,13.499-30.151,30.151v46.326c0,16.653,13.5,30.151,30.151,30.151
	s30.151-13.499,30.151-30.151v-46.326C286.151,91.191,272.651,77.692,256,77.692z"/>
<g>
</g>
<g>
</g>
<g>
</g>
<g>
</g>
<g>
</g>
<g>
</g>
<g>
</g>
<g>
</g>
<g>
</g>
<g>
</g>
<g>
</g>
<g>
</g>
<g>
</g>
<g>
</g>
<g>
</g>
</svg>
