<?xml version="1.0" encoding="iso-8859-1"?>
<!-- Generator: Adobe Illustrator 19.0.0, SVG Export Plug-In . SVG Version: 6.00 Build 0)  -->
<svg version="1.1" id="Layer_1" xmlns="http://www.w3.org/2000/svg" xmlns:xlink="http://www.w3.org/1999/xlink" x="0px" y="0px"
	 viewBox="0 0 512 512" style="enable-background:new 0 0 512 512;" xml:space="preserve">
<g>
	<path style="fill:#C2B8B9;" d="M367.454,339.34v164.315c0,4.61,3.735,8.345,8.345,8.345s8.345-3.735,8.345-8.345V339.34H367.454z"
		/>
	<path style="fill:#C2B8B9;" d="M453.127,245.079v258.576c0,4.61,3.735,8.345,8.345,8.345s8.345-3.735,8.345-8.345V245.079H453.127z
		"/>
</g>
<rect x="11.029" style="fill:#F14742;" width="291.891" height="500.689"/>
<rect x="44.408" y="33.379" style="fill:#1B4145;" width="225.132" height="166.863"/>
<circle style="fill:#FFFFFF;" cx="156.971" cy="350.471" r="94.207"/>
<circle style="fill:#F14742;" cx="156.971" cy="350.471" r="36.717"/>
<g>
	<path style="fill:#1B4145;" d="M375.799,195.739c-21.814,0-39.499,17.684-39.499,39.499c0,17.362,11.202,32.108,26.773,37.404
		h25.449c15.571-5.295,26.775-20.042,26.775-37.405C415.298,213.424,397.613,195.739,375.799,195.739z"/>
	<path style="fill:#1B4145;" d="M461.472,102.277c-21.814,0-39.499,17.684-39.499,39.499c0,17.362,11.202,32.108,26.773,37.404
		h25.449c15.571-5.295,26.775-20.042,26.775-37.405C500.971,119.962,483.287,102.277,461.472,102.277z"/>
</g>
<g>
	<rect x="363.077" y="247.963" style="fill:#8B7E7F;" width="25.442" height="101.707"/>
	<rect x="448.75" y="154.501" style="fill:#8B7E7F;" width="25.442" height="101.707"/>
</g>
<g>
</g>
<g>
</g>
<g>
</g>
<g>
</g>
<g>
</g>
<g>
</g>
<g>
</g>
<g>
</g>
<g>
</g>
<g>
</g>
<g>
</g>
<g>
</g>
<g>
</g>
<g>
</g>
<g>
</g>
</svg>
