<?xml version="1.0" encoding="iso-8859-1"?>
<!-- Generator: Adobe Illustrator 19.0.0, SVG Export Plug-In . SVG Version: 6.00 Build 0)  -->
<svg version="1.1" id="Layer_1" xmlns="http://www.w3.org/2000/svg" xmlns:xlink="http://www.w3.org/1999/xlink" x="0px" y="0px"
	 viewBox="0 0 512 512" style="enable-background:new 0 0 512 512;" xml:space="preserve">
<path style="fill:#1B4145;" d="M416.582,473.272c0,21.389-17.339,38.728-38.728,38.728H363.36l-107.361-45.511L148.64,512h-14.494
	c-21.389,0-38.728-17.339-38.728-38.728V38.728C95.417,17.339,112.757,0,134.146,0h243.709c21.389,0,38.728,17.339,38.728,38.728
	V473.272z"/>
<polygon style="fill:#8B7E7F;" points="148.64,187.683 148.64,512 363.359,512 363.359,187.683 255.999,153.55 "/>
<rect x="148.639" y="53.222" style="fill:#6FC5D6;" width="214.721" height="134.463"/>
<circle style="fill:#D6CED1;" cx="255.999" cy="417.269" r="20.224"/>
<circle style="fill:#FFFFFF;" cx="255.999" cy="292.363" r="63.506"/>
<circle style="fill:#D6CED1;" cx="255.999" cy="292.363" r="25.134"/>
<g>
</g>
<g>
</g>
<g>
</g>
<g>
</g>
<g>
</g>
<g>
</g>
<g>
</g>
<g>
</g>
<g>
</g>
<g>
</g>
<g>
</g>
<g>
</g>
<g>
</g>
<g>
</g>
<g>
</g>
</svg>
