<?xml version="1.0" encoding="iso-8859-1"?>
<!-- Generator: Adobe Illustrator 19.0.0, SVG Export Plug-In . SVG Version: 6.00 Build 0)  -->
<svg version="1.1" id="Layer_1" xmlns="http://www.w3.org/2000/svg" xmlns:xlink="http://www.w3.org/1999/xlink" x="0px" y="0px"
	 viewBox="0 0 512 512" style="enable-background:new 0 0 512 512;" xml:space="preserve">
<path style="fill:#609399;" d="M512,141.005v270.473c0,10.49-8.499,18.99-18.99,18.99h-47.088L256,396.334L66.078,430.467H18.99
	c-10.49,0-18.99-8.499-18.99-18.99V141.005l256-34.133L512,141.005z"/>
<path style="fill:#6FC5D6;" d="M512,100.523v40.482H0v-40.482c0-10.49,8.499-18.99,18.99-18.99H493.01
	C503.501,81.533,512,90.032,512,100.523z"/>
<polygon style="fill:#1B4145;" points="423.167,339.453 88.833,339.453 66.078,430.467 445.922,430.467 "/>
<rect x="243.166" y="192.717" style="fill:#ECE7EA;" width="123.051" height="81.067"/>
<path style="fill:#1B4145;" d="M243.166,192.716h-97.382v81.067h97.382c5.211-12.481,8.078-26.18,8.078-40.539
	C251.244,218.885,248.377,205.186,243.166,192.716z"/>
<g>
	<path style="fill:#FFFFFF;" d="M366.217,192.717c22.391,0,40.539,18.148,40.539,40.528c0,22.391-18.148,40.539-40.539,40.539
		c-22.38,0-40.528-18.148-40.528-40.539C325.689,210.864,343.836,192.717,366.217,192.717z"/>
	<path style="fill:#FFFFFF;" d="M145.783,192.717c22.38,0,40.528,18.148,40.528,40.528c0,22.391-18.148,40.539-40.528,40.539
		c-22.391,0-40.539-18.148-40.539-40.539C105.244,210.864,123.392,192.717,145.783,192.717z"/>
</g>
<g>
</g>
<g>
</g>
<g>
</g>
<g>
</g>
<g>
</g>
<g>
</g>
<g>
</g>
<g>
</g>
<g>
</g>
<g>
</g>
<g>
</g>
<g>
</g>
<g>
</g>
<g>
</g>
<g>
</g>
</svg>
