<?xml version="1.0" encoding="iso-8859-1"?>
<!-- Generator: Adobe Illustrator 19.0.0, SVG Export Plug-In . SVG Version: 6.00 Build 0)  -->
<svg version="1.1" id="Layer_1" xmlns="http://www.w3.org/2000/svg" xmlns:xlink="http://www.w3.org/1999/xlink" x="0px" y="0px"
	 viewBox="0 0 512 512" style="enable-background:new 0 0 512 512;" xml:space="preserve">
<path style="fill:#463836;" d="M304.483,146.007L7.868,462.43c-10.744,11.462-10.447,29.929,0.663,41.039
	c11.11,11.11,29.577,11.407,41.039,0.663l316.422-296.615L304.483,146.007z"/>
<polygon style="fill:#FFD24D;" points="390.551,307.729 346.617,263.794 258.612,318.135 204.271,406.141 248.205,450.075 "/>
<rect x="103.621" y="163.142" transform="matrix(-0.7071 0.7071 -0.7071 -0.7071 535.2425 305.8797)" style="fill:#FEE191;" width="201.301" height="201.301"/>
<path style="fill:#F14742;" d="M484.137,162.396c-84.984,84.984-124.289,64.057-161.438,26.906s-58.078-76.455,26.906-161.438
	c37.151-37.15,97.382-37.15,134.532,0S521.288,125.245,484.137,162.396z"/>
<g>
	<circle style="fill:#CD3F39;" cx="337.941" cy="109.572" r="8.927"/>
	<circle style="fill:#CD3F39;" cx="341.678" cy="142.244" r="8.927"/>
</g>
<g>
</g>
<g>
</g>
<g>
</g>
<g>
</g>
<g>
</g>
<g>
</g>
<g>
</g>
<g>
</g>
<g>
</g>
<g>
</g>
<g>
</g>
<g>
</g>
<g>
</g>
<g>
</g>
<g>
</g>
</svg>
