<?xml version="1.0" encoding="iso-8859-1"?>
<!-- Generator: Adobe Illustrator 19.0.0, SVG Export Plug-In . SVG Version: 6.00 Build 0)  -->
<svg version="1.1" id="Layer_1" xmlns="http://www.w3.org/2000/svg" xmlns:xlink="http://www.w3.org/1999/xlink" x="0px" y="0px"
	 viewBox="0 0 512 512" style="enable-background:new 0 0 512 512;" xml:space="preserve">
<rect x="210.102" y="17.783" style="fill:#605353;" width="91.807" height="82.648"/>
<circle style="fill:#FFFFFF;" cx="256" cy="47.731" r="8.533"/>
<polygon style="fill:#605353;" points="512,448.421 512,494.217 0,494.217 0,448.421 256,414.288 "/>
<polygon style="fill:#8B7E7F;" points="474.624,367.57 512,448.421 0,448.421 37.376,367.57 256,333.437 "/>
<path style="fill:#605353;" d="M281.394,420.958h-50.788c-4.713,0-8.533-3.82-8.533-8.533c0-4.714,3.821-8.533,8.533-8.533h50.788
	c4.714,0,8.533,3.82,8.533,8.533C289.927,417.139,286.108,420.958,281.394,420.958z"/>
<path style="fill:#FFD24D;" d="M443.445,77.677H68.555c-17.209,0-31.176,13.945-31.176,31.175v258.714h437.242V108.852
	C474.621,91.622,460.646,77.677,443.445,77.677z"/>
<circle style="fill:#FFFFFF;" cx="256" cy="188.279" r="57.919"/>
<path style="fill:#FFF1CD;" d="M348.01,334.57c-13.14-38.179-49.369-65.613-92.01-65.613s-78.87,27.434-92.01,65.613H348.01z"/>
<g>
</g>
<g>
</g>
<g>
</g>
<g>
</g>
<g>
</g>
<g>
</g>
<g>
</g>
<g>
</g>
<g>
</g>
<g>
</g>
<g>
</g>
<g>
</g>
<g>
</g>
<g>
</g>
<g>
</g>
</svg>
