<?xml version="1.0" encoding="iso-8859-1"?>
<!-- Generator: Adobe Illustrator 19.0.0, SVG Export Plug-In . SVG Version: 6.00 Build 0)  -->
<svg version="1.1" id="Layer_1" xmlns="http://www.w3.org/2000/svg" xmlns:xlink="http://www.w3.org/1999/xlink" x="0px" y="0px"
	 viewBox="0 0 512 512" style="enable-background:new 0 0 512 512;" xml:space="preserve">
<path style="fill:#1B4145;" d="M512,429.932v34.133c-42.928,0-101.831-38.286-164.068-38.286c-36.671,0-59.654,15.132-73.466,30.254
	H256l-22.756-106.018L512,429.932z"/>
<path style="fill:#609399;" d="M256,350.015v106.018h-18.466c-13.813-15.121-36.796-30.254-73.466-30.254
	c-62.236,0-121.139,38.286-164.068,38.286v-34.133L256,350.015z"/>
<path style="fill:#6FC5D6;" d="M512,86.221v343.711c-42.928,0-101.831-38.286-164.068-38.286c-36.671,0-59.654,15.132-73.466,30.254
	H256l-45.511-156.723L256,108.453c0,0,18.591-60.518,91.932-60.518C410.169,47.935,469.072,86.221,512,86.221z"/>
<path style="fill:#B4E5EA;" d="M256,108.453v313.446h-18.466c-13.813-15.132-36.796-30.254-73.466-30.254
	c-62.236,0-121.139,38.286-164.068,38.286V86.221c42.928,0,101.831-38.286,164.068-38.286C237.409,47.935,256,108.453,256,108.453z"
	/>
<g>
</g>
<g>
</g>
<g>
</g>
<g>
</g>
<g>
</g>
<g>
</g>
<g>
</g>
<g>
</g>
<g>
</g>
<g>
</g>
<g>
</g>
<g>
</g>
<g>
</g>
<g>
</g>
<g>
</g>
</svg>
