<?xml version="1.0" encoding="iso-8859-1"?>
<!-- Generator: Adobe Illustrator 19.0.0, SVG Export Plug-In . SVG Version: 6.00 Build 0)  -->
<svg version="1.1" id="Layer_1" xmlns="http://www.w3.org/2000/svg" xmlns:xlink="http://www.w3.org/1999/xlink" x="0px" y="0px"
	 viewBox="0 0 512 512" style="enable-background:new 0 0 512 512;" xml:space="preserve">
<rect x="76.089" y="57.321" style="fill:#ECE7EA;" width="359.822" height="454.679"/>
<path style="fill:#8B7E7F;" d="M340.148,31.123h-53.025C287.123,13.936,273.188,0,255.999,0s-31.124,13.936-31.124,31.123H171.85
	c-8.276,0-14.986,6.709-14.986,14.986V83.53h198.269V46.108C355.133,37.833,348.424,31.123,340.148,31.123z"/>
<rect x="156.864" y="418.111" style="fill:#FFFFFF;" width="40.96" height="40.96"/>
<path style="fill:#C2B8B9;" d="M355.133,447.127H231.958c-4.714,0-8.533-3.82-8.533-8.533c0-4.714,3.82-8.533,8.533-8.533h123.176
	c4.714,0,8.533,3.82,8.533,8.533C363.667,443.308,359.846,447.127,355.133,447.127z"/>
<rect x="156.864" y="324.233" style="fill:#FFFFFF;" width="40.96" height="40.96"/>
<path style="fill:#C2B8B9;" d="M355.133,353.241H231.958c-4.714,0-8.533-3.82-8.533-8.533c0-4.714,3.82-8.533,8.533-8.533h123.176
	c4.714,0,8.533,3.82,8.533,8.533C363.667,349.422,359.846,353.241,355.133,353.241z"/>
<rect x="156.864" y="230.343" style="fill:#FFFFFF;" width="40.96" height="40.96"/>
<path style="fill:#C2B8B9;" d="M355.133,259.355H231.958c-4.714,0-8.533-3.82-8.533-8.533s3.82-8.533,8.533-8.533h123.176
	c4.714,0,8.533,3.82,8.533,8.533S359.846,259.355,355.133,259.355z"/>
<rect x="156.864" y="136.454" style="fill:#FFFFFF;" width="40.96" height="40.96"/>
<path style="fill:#C2B8B9;" d="M355.133,165.469H231.958c-4.714,0-8.533-3.82-8.533-8.533s3.82-8.533,8.533-8.533h123.176
	c4.714,0,8.533,3.82,8.533,8.533S359.846,165.469,355.133,165.469z"/>
<g>
</g>
<g>
</g>
<g>
</g>
<g>
</g>
<g>
</g>
<g>
</g>
<g>
</g>
<g>
</g>
<g>
</g>
<g>
</g>
<g>
</g>
<g>
</g>
<g>
</g>
<g>
</g>
<g>
</g>
</svg>
