<?xml version="1.0" encoding="iso-8859-1"?>
<!-- Generator: Adobe Illustrator 19.0.0, SVG Export Plug-In . SVG Version: 6.00 Build 0)  -->
<svg version="1.1" id="Layer_1" xmlns="http://www.w3.org/2000/svg" xmlns:xlink="http://www.w3.org/1999/xlink" x="0px" y="0px"
	 viewBox="0 0 512.001 512.001" style="enable-background:new 0 0 512.001 512.001;" xml:space="preserve">
<path style="fill:#FFF1CD;" d="M437.063,446.811v56.796H99.86c-3.156,0-6.166-0.582-8.942-1.656v-77.522l345.463,22.383H437.063z"/>
<path style="fill:#F9F7F7;" d="M437.063,390.004v56.807h-0.683H90.918V391.66c2.775-1.074,5.786-1.656,8.942-1.656H437.063z"/>
<path style="fill:#FEE191;" d="M90.918,391.66c23.636,7.196,40.826,29.164,40.826,55.151c0,25.975-17.19,47.943-40.826,55.139
	c-9.345-3.592-15.981-12.646-15.981-23.255v-63.768C74.937,404.318,81.573,395.253,90.918,391.66z"/>
<path style="fill:#FFD24D;" d="M445.451,8.393c0-4.635-3.758-8.393-8.393-8.393H91.462C77.703,0,66.549,11.154,66.549,24.914
	v390.009v63.771c0,18.366,14.941,33.307,33.306,33.307h337.204c4.637,0,8.393-3.757,8.393-8.393s-3.757-8.393-8.393-8.393H99.855
	c-9.109,0-16.519-7.411-16.519-16.521v-63.77c0-9.11,7.411-16.521,16.519-16.521h337.204c4.637,0,8.393-3.757,8.393-8.393V8.393
	H445.451z"/>
<path style="fill:#1B4145;" d="M299.075,260.348h-32.662V129.661h32.661c0,0,2.399-20.018,2.399-40.947
	c0-20.93-2.399-40.948-2.399-40.948s-37.569-1.567-53.162,11.395c-20.872,17.35-35.388,72.324-35.388,135.843
	s14.516,118.493,35.388,135.843c15.594,12.961,53.162,11.395,53.162,11.395s2.399-20.018,2.399-40.947
	C301.475,280.366,299.075,260.348,299.075,260.348z"/>
<g>
</g>
<g>
</g>
<g>
</g>
<g>
</g>
<g>
</g>
<g>
</g>
<g>
</g>
<g>
</g>
<g>
</g>
<g>
</g>
<g>
</g>
<g>
</g>
<g>
</g>
<g>
</g>
<g>
</g>
</svg>
