<?xml version="1.0" encoding="iso-8859-1"?>
<!-- Generator: Adobe Illustrator 19.0.0, SVG Export Plug-In . SVG Version: 6.00 Build 0)  -->
<svg version="1.1" id="Layer_1" xmlns="http://www.w3.org/2000/svg" xmlns:xlink="http://www.w3.org/1999/xlink" x="0px" y="0px"
	 viewBox="0 0 512 512" style="enable-background:new 0 0 512 512;" xml:space="preserve">
<g>
	<path style="fill:#C2B8B9;" d="M308.672,145.932c0-19.84-16.233-36.073-36.073-36.073H107.363
		c-19.84,0-36.073,16.233-36.073,36.073v46.179l118.691,23.273l118.691-23.273V145.932z"/>
	<path style="fill:#C2B8B9;" d="M71.29,475.927c0,19.84,16.233,36.073,36.073,36.073h165.236c19.84,0,36.073-16.233,36.073-36.073
		v-46.179l-118.691-23.273L71.29,429.748V475.927z"/>
</g>
<rect x="71.287" y="192.105" style="fill:#463836;" width="237.382" height="237.638"/>
<path style="fill:#FFD24D;" d="M440.713,104.866C440.713,46.95,381.594,0,308.672,0c-72.927,0-132.041,46.95-132.041,104.866
	c0,51.741,47.184,94.726,109.246,103.304h-0.189c3.257,20.004-2.752,41.246-18.035,56.674c32.792,0,59.863-24.698,63.974-56.67
	h-0.189C393.512,199.603,440.713,156.614,440.713,104.866z"/>
<g>
	<circle style="fill:#F14742;" cx="261.064" cy="104.867" r="8.727"/>
	<circle style="fill:#F14742;" cx="356.273" cy="104.867" r="8.727"/>
	<circle style="fill:#F14742;" cx="308.669" cy="104.867" r="8.727"/>
</g>
<g>
</g>
<g>
</g>
<g>
</g>
<g>
</g>
<g>
</g>
<g>
</g>
<g>
</g>
<g>
</g>
<g>
</g>
<g>
</g>
<g>
</g>
<g>
</g>
<g>
</g>
<g>
</g>
<g>
</g>
</svg>
