<?xml version="1.0" encoding="iso-8859-1"?>
<!-- Generator: Adobe Illustrator 19.0.0, SVG Export Plug-In . SVG Version: 6.00 Build 0)  -->
<svg version="1.1" id="Layer_1" xmlns="http://www.w3.org/2000/svg" xmlns:xlink="http://www.w3.org/1999/xlink" x="0px" y="0px"
	 viewBox="0 0 512.001 512.001" style="enable-background:new 0 0 512.001 512.001;" xml:space="preserve">
<path style="fill:#FAD4C6;" d="M59.769,47.084C12.183,47.084,0,70.556,0,101.008v309.986c0,30.451,12.183,53.923,59.769,53.923
	s59.769-23.472,59.769-53.923V101.008C119.538,70.556,107.354,47.084,59.769,47.084z"/>
<path style="fill:#F99D88;" d="M512,443.416c0,11.875-9.626,21.501-21.501,21.501H175.146c-11.875,0-21.501-9.626-21.501-21.501
	V68.586c0-11.875,9.626-21.501,21.501-21.501H490.5c11.875,0,21.501,9.626,21.501,21.501v374.83H512z"/>
<g>
	<path style="fill:#FAD4C6;" d="M237.644,400.338h-20.464c-4.71,0-8.527-3.817-8.527-8.527c0-4.71,3.817-8.527,8.527-8.527h20.464
		c4.71,0,8.527,3.817,8.527,8.527C246.171,396.521,242.354,400.338,237.644,400.338z"/>
	<path style="fill:#FAD4C6;" d="M378.192,400.338h-20.465c-4.71,0-8.527-3.817-8.527-8.527c0-4.71,3.817-8.527,8.527-8.527h20.465
		c4.71,0,8.527,3.817,8.527,8.527C386.719,396.521,382.902,400.338,378.192,400.338z"/>
	<path style="fill:#FAD4C6;" d="M307.918,400.338h-20.464c-4.71,0-8.527-3.817-8.527-8.527c0-4.71,3.817-8.527,8.527-8.527h20.464
		c4.71,0,8.527,3.817,8.527,8.527C316.445,396.521,312.627,400.338,307.918,400.338z"/>
	<path style="fill:#FAD4C6;" d="M237.644,337.014h-20.464c-4.71,0-8.527-3.817-8.527-8.527c0-4.71,3.817-8.527,8.527-8.527h20.464
		c4.71,0,8.527,3.817,8.527,8.527C246.171,333.197,242.354,337.014,237.644,337.014z"/>
	<path style="fill:#FAD4C6;" d="M378.192,337.014h-20.465c-4.71,0-8.527-3.817-8.527-8.527c0-4.71,3.817-8.527,8.527-8.527h20.465
		c4.71,0,8.527,3.817,8.527,8.527C386.719,333.197,382.902,337.014,378.192,337.014z"/>
	<path style="fill:#FAD4C6;" d="M307.918,337.014h-20.464c-4.71,0-8.527-3.817-8.527-8.527c0-4.71,3.817-8.527,8.527-8.527h20.464
		c4.71,0,8.527,3.817,8.527,8.527C316.445,333.197,312.627,337.014,307.918,337.014z"/>
	<path style="fill:#FAD4C6;" d="M237.644,273.689h-20.464c-4.71,0-8.527-3.817-8.527-8.527c0-4.71,3.817-8.527,8.527-8.527h20.464
		c4.71,0,8.527,3.817,8.527,8.527C246.171,269.872,242.354,273.689,237.644,273.689z"/>
	<path style="fill:#FAD4C6;" d="M378.192,273.689h-20.465c-4.71,0-8.527-3.817-8.527-8.527c0-4.71,3.817-8.527,8.527-8.527h20.465
		c4.71,0,8.527,3.817,8.527,8.527C386.719,269.872,382.902,273.689,378.192,273.689z"/>
	<path style="fill:#FAD4C6;" d="M307.918,273.689h-20.464c-4.71,0-8.527-3.817-8.527-8.527c0-4.71,3.817-8.527,8.527-8.527h20.464
		c4.71,0,8.527,3.817,8.527,8.527C316.445,269.872,312.627,273.689,307.918,273.689z"/>
</g>
<rect x="428.003" y="256.636" style="fill:#FAB9A7;" width="20.464" height="143.706"/>
<rect x="199.12" y="92.556" style="fill:#FFFFFF;" width="267.403" height="99.492"/>
<g>
</g>
<g>
</g>
<g>
</g>
<g>
</g>
<g>
</g>
<g>
</g>
<g>
</g>
<g>
</g>
<g>
</g>
<g>
</g>
<g>
</g>
<g>
</g>
<g>
</g>
<g>
</g>
<g>
</g>
</svg>
