<?xml version="1.0" encoding="iso-8859-1"?>
<!-- Generator: Adobe Illustrator 19.0.0, SVG Export Plug-In . SVG Version: 6.00 Build 0)  -->
<svg version="1.1" id="Layer_1" xmlns="http://www.w3.org/2000/svg" xmlns:xlink="http://www.w3.org/1999/xlink" x="0px" y="0px"
	 viewBox="0 0 512 512" style="enable-background:new 0 0 512 512;" xml:space="preserve">
<path style="fill:#F14742;" d="M160.566,120.883h-63.08c-5.349,0-9.685,4.336-9.685,9.686v50.464h82.45v-50.464
	C170.251,125.22,165.916,120.883,160.566,120.883z"/>
<polygon style="fill:#609399;" points="445.872,76.579 445.872,134.126 319.759,134.126 319.759,76.579 382.815,42.392 "/>
<rect x="319.756" y="16.183" style="fill:#B4E5EA;" width="126.113" height="60.396"/>
<path style="fill:#1B4145;" d="M512,158.238v285.901c0,28.546-23.133,51.678-51.678,51.678H127.517L0.002,221.996l63.758-63.758
	h130.535c34.517-36.021,35.861-46.904,67.415-46.904h203.386C490.998,111.335,512,132.337,512,158.238z"/>
<g>
	<path style="fill:#609399;" d="M127.517,221.996v273.821H50.883c-28.546,0-50.881-23.133-50.881-51.678V221.996H127.517z"/>
	<circle style="fill:#609399;" cx="319.756" cy="303.575" r="140.734"/>
</g>
<path style="fill:#B4E5EA;" d="M319.759,410.126c-58.75,0-106.548-47.797-106.548-106.547s47.797-106.547,106.548-106.547
	s106.547,47.797,106.547,106.547S378.509,410.126,319.759,410.126z"/>
<path style="fill:#FFFFFF;" d="M319.76,341.235c-20.765,0-37.657-16.893-37.657-37.656c0-20.764,16.893-37.656,37.657-37.656
	c4.721,0,8.547,3.825,8.547,8.547c0,4.721-3.825,8.547-8.547,8.547c-11.338,0-20.564,9.225-20.564,20.563
	c0,11.338,9.226,20.563,20.564,20.563c11.338,0,20.563-9.225,20.563-20.563c0-4.721,3.825-8.547,8.547-8.547
	c4.721,0,8.547,3.825,8.547,8.547C357.416,324.341,340.522,341.235,319.76,341.235z"/>
<circle style="fill:#B4E5EA;" cx="63.759" cy="221.995" r="63.759"/>
<path style="fill:#609399;" d="M63.759,251.573c-16.306,0-29.571-13.267-29.571-29.572s13.267-29.571,29.571-29.571
	s29.571,13.267,29.571,29.571C93.33,238.306,80.063,251.573,63.759,251.573z"/>
<g>
</g>
<g>
</g>
<g>
</g>
<g>
</g>
<g>
</g>
<g>
</g>
<g>
</g>
<g>
</g>
<g>
</g>
<g>
</g>
<g>
</g>
<g>
</g>
<g>
</g>
<g>
</g>
<g>
</g>
</svg>
