<?xml version="1.0" encoding="iso-8859-1"?>
<!-- Generator: Adobe Illustrator 19.0.0, SVG Export Plug-In . SVG Version: 6.00 Build 0)  -->
<svg version="1.1" id="Layer_1" xmlns="http://www.w3.org/2000/svg" xmlns:xlink="http://www.w3.org/1999/xlink" x="0px" y="0px"
	 viewBox="0 0 512 512" style="enable-background:new 0 0 512 512;" xml:space="preserve">
<g>
	<path style="fill:#C2B8B9;" d="M219.258,436.859c-48.698,0-88.316-39.618-88.316-88.316v-82.108h17.594v82.108
		c0,38.996,31.725,70.722,70.722,70.722s70.722-31.725,70.722-70.722v-82.108h17.595v82.108
		C307.574,397.241,267.955,436.859,219.258,436.859z"/>
	<ellipse style="fill:#C2B8B9;" cx="53.956" cy="232.318" rx="53.956" ry="72.724"/>
</g>
<path style="fill:#D6CED1;" d="M51.307,195.165c-9.109,2.575-16.118,18.224-16.118,37.155s7.008,34.579,16.118,37.156
	l294.364,94.051V101.113L51.307,195.165z"/>
<path style="fill:#F14742;" d="M345.671,101.113c-21.02,28.47-34.835,76.611-34.835,131.207s13.815,102.737,34.835,131.207
	l75.771,24.16V76.953L345.671,101.113z"/>
<ellipse style="fill:#8B7E7F;" cx="433.411" cy="232.318" rx="78.589" ry="157.178"/>
<g>
</g>
<g>
</g>
<g>
</g>
<g>
</g>
<g>
</g>
<g>
</g>
<g>
</g>
<g>
</g>
<g>
</g>
<g>
</g>
<g>
</g>
<g>
</g>
<g>
</g>
<g>
</g>
<g>
</g>
</svg>
