<?xml version="1.0" encoding="iso-8859-1"?>
<!-- Generator: Adobe Illustrator 19.0.0, SVG Export Plug-In . SVG Version: 6.00 Build 0)  -->
<svg version="1.1" id="Layer_1" xmlns="http://www.w3.org/2000/svg" xmlns:xlink="http://www.w3.org/1999/xlink" x="0px" y="0px"
	 viewBox="0 0 512 512" style="enable-background:new 0 0 512 512;" xml:space="preserve">
<path style="fill:#D6CED1;" d="M471.059,19.881c-1.22-4.552-5.897-7.252-10.452-6.035L55.973,122.268l2.203,16.779
	c0.732,0,1.475-0.094,2.214-0.292L465.025,30.334C469.578,29.112,472.279,24.433,471.059,19.881z"/>
<path style="fill:#C2B8B9;" d="M58.181,121.977c-12.853,0-23.273,10.42-23.273,23.273v34.392h46.545V145.25
	C81.455,132.397,71.035,121.977,58.181,121.977z"/>
<path style="fill:#463836;" d="M489.244,156.886c12.516,0,22.756,10.24,22.756,22.756V475.69c0,12.516-10.24,22.756-22.756,22.756
	H22.756C10.24,498.446,0,488.206,0,475.69V179.642c0-12.516,10.24-22.756,22.756-22.756H489.244z"/>
<circle style="fill:#ECE7EA;" cx="151.279" cy="327.669" r="104.732"/>
<g>
	<path style="fill:#8B7E7F;" d="M151.273,397.484c-38.498,0-69.819-31.321-69.819-69.819s31.321-69.819,69.819-69.819
		s69.819,31.321,69.819,69.819S189.77,397.484,151.273,397.484z"/>
	<circle style="fill:#8B7E7F;" cx="328.727" cy="343.939" r="26.18"/>
	<circle style="fill:#8B7E7F;" cx="439.273" cy="343.939" r="26.18"/>
</g>
<rect x="302.547" y="201.387" style="fill:#FFFFFF;" width="162.907" height="81.454"/>
<g>
	<polygon style="fill:#8B7E7F;" points="302.545,405.025 302.545,451.901 356.848,451.901 368.226,428.464 356.848,405.025 	"/>
	<polygon style="fill:#8B7E7F;" points="465.455,405.025 411.152,405.025 399.774,428.464 411.152,451.901 465.455,451.901 	"/>
</g>
<rect x="356.853" y="405.027" style="fill:#C2B8B9;" width="54.303" height="46.876"/>
<path style="fill:#F14742;" d="M349.091,229.808c-4.713,0-8.533,3.821-8.533,8.533v44.502h17.067v-44.502
	C357.624,233.628,353.803,229.808,349.091,229.808z"/>
<g>
	<path style="fill:#605353;" d="M151.273,371.109c-4.713,0-8.533-3.821-8.533-8.533v-69.819c0-4.713,3.821-8.533,8.533-8.533
		s8.533,3.821,8.533,8.533v69.819C159.807,367.289,155.986,371.109,151.273,371.109z"/>
	<path style="fill:#605353;" d="M116.364,361.737c-4.713,0-8.533-3.821-8.533-8.533v-51.075c0-4.713,3.821-8.533,8.533-8.533
		s8.533,3.821,8.533,8.533v51.075C124.897,357.917,121.077,361.737,116.364,361.737z"/>
	<path style="fill:#605353;" d="M186.181,361.737c-4.713,0-8.533-3.821-8.533-8.533v-51.075c0-4.713,3.821-8.533,8.533-8.533
		s8.533,3.821,8.533,8.533v51.075C194.715,357.917,190.894,361.737,186.181,361.737z"/>
</g>
<g>
</g>
<g>
</g>
<g>
</g>
<g>
</g>
<g>
</g>
<g>
</g>
<g>
</g>
<g>
</g>
<g>
</g>
<g>
</g>
<g>
</g>
<g>
</g>
<g>
</g>
<g>
</g>
<g>
</g>
</svg>
