<?xml version="1.0" encoding="iso-8859-1"?>
<!-- Generator: Adobe Illustrator 19.0.0, SVG Export Plug-In . SVG Version: 6.00 Build 0)  -->
<svg version="1.1" id="Layer_1" xmlns="http://www.w3.org/2000/svg" xmlns:xlink="http://www.w3.org/1999/xlink" x="0px" y="0px"
	 viewBox="0 0 512 512" style="enable-background:new 0 0 512 512;" xml:space="preserve">
<rect x="237.909" y="137.489" style="fill:#605353;" width="138.57" height="91.728"/>
<rect x="64.057" y="226.509" style="fill:#8B7E7F;" width="107.839" height="164.454"/>
<polygon style="fill:#C2B8B9;" points="0,193.114 0,424.348 86.817,390.956 86.817,226.504 "/>
<rect x="174.251" y="109.909" style="fill:#8B7E7F;" width="313.754" height="38.958"/>
<polygon style="fill:#605353;" points="512,87.652 465.252,109.913 465.252,148.869 512,171.131 "/>
<path style="fill:#463836;" d="M445.217,206.47H169.183c-11.065,0-20.035,8.97-20.035,20.034v164.452
	c0,11.065,8.97,20.034,20.035,20.034h276.034c11.065,0,20.035-8.97,20.035-20.034V226.504
	C465.252,215.441,456.282,206.47,445.217,206.47z"/>
<path style="fill:#605353;" d="M270.327,251.841c-21.993,0-39.822,17.83-39.822,39.822v34.133c0,21.993,17.829,39.822,39.822,39.822
	h194.926V251.841H270.327z"/>
<path style="fill:#463836;" d="M70.508,102.291c-14.966,0-27.1,12.132-27.1,27.1s12.133,27.1,27.1,27.1h126.5v-54.199H70.508z"/>
<g>
</g>
<g>
</g>
<g>
</g>
<g>
</g>
<g>
</g>
<g>
</g>
<g>
</g>
<g>
</g>
<g>
</g>
<g>
</g>
<g>
</g>
<g>
</g>
<g>
</g>
<g>
</g>
<g>
</g>
</svg>
