<?xml version="1.0" encoding="iso-8859-1"?>
<!-- Generator: Adobe Illustrator 19.0.0, SVG Export Plug-In . SVG Version: 6.00 Build 0)  -->
<svg version="1.1" id="Layer_1" xmlns="http://www.w3.org/2000/svg" xmlns:xlink="http://www.w3.org/1999/xlink" x="0px" y="0px"
	 viewBox="0 0 512 512" style="enable-background:new 0 0 512 512;" xml:space="preserve">
<path style="fill:#B4E5EA;" d="M382.456,134.029V8.258h-252.91v125.771c0,58.255,39.394,107.3,92.992,121.971
	c-53.599,14.671-92.992,63.716-92.992,121.971v125.771h252.909V377.971c0-58.255-39.394-107.3-92.992-121.971
	C343.061,241.329,382.456,192.283,382.456,134.029z"/>
<g>
	<path style="fill:#F9F7F7;" d="M390.714,134.029V8.258h-16.516v125.771c0,53.117-35.741,99.999-86.914,114.005
		c-3.59,0.983-6.078,4.244-6.078,7.965c0,3.722,2.488,6.983,6.078,7.965c51.174,14.007,86.914,60.887,86.914,114.004v125.773h16.516
		V377.969c0-52.745-30.923-100.093-77.465-121.969C359.791,234.124,390.714,186.774,390.714,134.029z"/>
	<path style="fill:#F9F7F7;" d="M224.719,248.035c-51.175-14.007-86.916-60.888-86.916-114.005V8.258h-16.516v125.771
		c0,52.745,30.923,100.094,77.465,121.971c-46.542,21.876-77.465,69.225-77.465,121.969v125.773h16.516V377.969
		c0-53.117,35.741-99.997,86.916-114.004c3.59-0.983,6.078-4.244,6.078-7.965C230.797,252.278,228.309,249.017,224.719,248.035z"/>
</g>
<g>
	<path style="fill:#463836;" d="M393.466,512H118.535c-4.561,0-8.258-3.696-8.258-8.258s3.697-8.258,8.258-8.258h274.931
		c4.561,0,8.258,3.696,8.258,8.258S398.027,512,393.466,512z"/>
	<path style="fill:#463836;" d="M393.466,16.516H118.535c-4.561,0-8.258-3.696-8.258-8.258S113.974,0,118.535,0h274.931
		c4.561,0,8.258,3.696,8.258,8.258S398.027,16.516,393.466,16.516z"/>
</g>
<path style="fill:#609399;" d="M264.259,335.581V227.232c6.785-0.628,12.05-1.937,16.483-3.093
	c31.425-8.191,55.375-32.565,64.576-62.651l-178.634-0.002c9.201,30.087,33.15,54.461,64.576,62.653
	c4.433,1.155,9.698,2.464,16.483,3.093v108.349c-47.724,4.184-85.164,44.228-85.164,93.039v42.09h186.845v-42.09
	C349.423,379.809,311.984,339.764,264.259,335.581z"/>
<g>
</g>
<g>
</g>
<g>
</g>
<g>
</g>
<g>
</g>
<g>
</g>
<g>
</g>
<g>
</g>
<g>
</g>
<g>
</g>
<g>
</g>
<g>
</g>
<g>
</g>
<g>
</g>
<g>
</g>
</svg>
