<?xml version="1.0" encoding="iso-8859-1"?>
<!-- Generator: Adobe Illustrator 19.0.0, SVG Export Plug-In . SVG Version: 6.00 Build 0)  -->
<svg version="1.1" id="Layer_1" xmlns="http://www.w3.org/2000/svg" xmlns:xlink="http://www.w3.org/1999/xlink" x="0px" y="0px"
	 viewBox="0 0 512 512" style="enable-background:new 0 0 512 512;" xml:space="preserve">
<g>
	<path style="fill:#6FC5D6;" d="M256.106,144.197h-122.65v105.968l183.107-45.511C316.563,171.265,289.495,144.197,256.106,144.197z
		"/>
	<path style="fill:#6FC5D6;" d="M99.768,34.891c-3.333-3.331-8.736-3.331-12.067,0c-3.333,3.334-3.333,8.736,0,12.068l59.72,59.72
		l12.067-12.068L99.768,34.891z"/>
</g>
<g>
	<path style="fill:#B4E5EA;" d="M69.903,144.197c35.099,35.099,92.005,35.099,127.105,0c35.099-35.098,35.099-92.005,0-127.105
		L69.903,144.197z"/>
	<path style="fill:#B4E5EA;" d="M503.916,346.94L368.329,212.661c-4.446-4.403-13.204-8.007-19.462-8.007H11.378
		C5.12,204.654,0,209.774,0,216.032V430.64c0,6.258,5.12,11.378,11.378,11.378h489.244c6.258,0,11.378-5.12,11.378-11.378v-64.315
		C512,360.067,508.363,351.344,503.916,346.94z"/>
</g>
<path style="fill:#FFFFFF;" d="M455.095,314.75l-82.823-82.026c-1.599-1.583-3.756-2.47-6.005-2.47h-49.94
	c-9.097,0-16.498,7.401-16.498,16.498v66.097c0,9.097,7.401,16.498,16.498,16.498H449.09c3.459,0,6.575-2.088,7.892-5.286
	C458.298,320.862,457.553,317.184,455.095,314.75z"/>
<circle style="fill:#463836;" cx="395.378" cy="442.023" r="52.884"/>
<path style="fill:#FFFFFF;" d="M395.378,464.773c-12.547,0-22.756-10.208-22.756-22.756c0-12.547,10.208-22.756,22.756-22.756
	c12.547,0,22.756,10.208,22.756,22.756C418.133,454.565,407.925,464.773,395.378,464.773z"/>
<circle style="fill:#463836;" cx="116.622" cy="442.023" r="52.884"/>
<path style="fill:#FFFFFF;" d="M116.622,464.773c-12.547,0-22.756-10.208-22.756-22.756c0-12.547,10.208-22.756,22.756-22.756
	s22.756,10.208,22.756,22.756C139.378,454.565,129.17,464.773,116.622,464.773z"/>
<g>
</g>
<g>
</g>
<g>
</g>
<g>
</g>
<g>
</g>
<g>
</g>
<g>
</g>
<g>
</g>
<g>
</g>
<g>
</g>
<g>
</g>
<g>
</g>
<g>
</g>
<g>
</g>
<g>
</g>
</svg>
