<?xml version="1.0" encoding="iso-8859-1"?>
<!-- Generator: Adobe Illustrator 19.0.0, SVG Export Plug-In . SVG Version: 6.00 Build 0)  -->
<svg version="1.1" id="Layer_1" xmlns="http://www.w3.org/2000/svg" xmlns:xlink="http://www.w3.org/1999/xlink" x="0px" y="0px"
	 viewBox="0 0 512 512" style="enable-background:new 0 0 512 512;" xml:space="preserve">
<polygon style="fill:#ECE7EA;" points="0,0 0,432.356 56.889,455.111 79.645,512 348.016,512 348.016,0 "/>
<g>
	<path style="fill:#8B7E7F;" d="M291.127,452.267h-73.274c-4.713,0-8.533-3.821-8.533-8.533s3.821-8.533,8.533-8.533h73.274
		c4.713,0,8.533,3.821,8.533,8.533S295.84,452.267,291.127,452.267z"/>
	<path style="fill:#8B7E7F;" d="M291.127,88.178H56.889c-4.713,0-8.533-3.821-8.533-8.533c0-4.713,3.821-8.533,8.533-8.533h234.238
		c4.713,0,8.533,3.821,8.533,8.533C299.66,84.357,295.84,88.178,291.127,88.178z"/>
	<path style="fill:#8B7E7F;" d="M291.127,133.689H56.889c-4.713,0-8.533-3.821-8.533-8.533s3.821-8.533,8.533-8.533h234.238
		c4.713,0,8.533,3.821,8.533,8.533S295.84,133.689,291.127,133.689z"/>
	<path style="fill:#8B7E7F;" d="M291.127,179.2H56.889c-4.713,0-8.533-3.821-8.533-8.533s3.821-8.533,8.533-8.533h234.238
		c4.713,0,8.533,3.821,8.533,8.533S295.84,179.2,291.127,179.2z"/>
	<path style="fill:#8B7E7F;" d="M291.127,224.711H56.889c-4.713,0-8.533-3.821-8.533-8.533s3.821-8.533,8.533-8.533h234.238
		c4.713,0,8.533,3.821,8.533,8.533S295.84,224.711,291.127,224.711z"/>
	<path style="fill:#8B7E7F;" d="M291.127,270.222H56.889c-4.713,0-8.533-3.821-8.533-8.533s3.821-8.533,8.533-8.533h234.238
		c4.713,0,8.533,3.821,8.533,8.533S295.84,270.222,291.127,270.222z"/>
	<path style="fill:#8B7E7F;" d="M291.127,315.733H56.889c-4.713,0-8.533-3.821-8.533-8.533s3.821-8.533,8.533-8.533h234.238
		c4.713,0,8.533,3.821,8.533,8.533S295.84,315.733,291.127,315.733z"/>
</g>
<polygon style="fill:#C2B8B9;" points="476.467,170.993 470.835,133.18 433.023,127.548 408.887,151.685 414.519,189.498 
	452.332,195.129 "/>
<path style="fill:#463836;" d="M185.698,410.272c-2.221,2.221-2.221,5.824,0,8.045c2.222,2.222,5.824,2.221,8.045,0l35.446-20.87
	l4.78-27.401l-27.401,4.78L185.698,410.272z"/>
<polygon style="fill:#F99D88;" points="236.384,324.188 206.568,374.826 229.19,397.447 279.828,367.632 274.197,329.819 "/>
<path style="fill:#F14742;" d="M503.016,144.443c11.977-11.977,11.979-31.466,0-43.445s-31.468-11.977-43.445,0l-26.55,26.55
	l43.445,43.445L503.016,144.443z"/>
<rect x="222.376" y="228.941" transform="matrix(-0.7071 0.7071 -0.7071 -0.7071 771.4507 199.7752)" style="fill:#FFD24D;" width="243.949" height="61.439"/>
<polygon style="fill:#D6CED1;" points="0,432.356 79.645,512 79.645,432.356 "/>
<g>
</g>
<g>
</g>
<g>
</g>
<g>
</g>
<g>
</g>
<g>
</g>
<g>
</g>
<g>
</g>
<g>
</g>
<g>
</g>
<g>
</g>
<g>
</g>
<g>
</g>
<g>
</g>
<g>
</g>
</svg>
