<?xml version="1.0" encoding="iso-8859-1"?>
<!-- Generator: Adobe Illustrator 19.0.0, SVG Export Plug-In . SVG Version: 6.00 Build 0)  -->
<svg version="1.1" id="Layer_1" xmlns="http://www.w3.org/2000/svg" xmlns:xlink="http://www.w3.org/1999/xlink" x="0px" y="0px"
	 viewBox="0 0 512 512" style="enable-background:new 0 0 512 512;" xml:space="preserve">
<path style="fill:#F14742;" d="M512,48.64c0-12.516-10.24-22.756-22.756-22.756H22.756C10.24,25.884,0,36.124,0,48.64v278.756
	l256.436,22.756L512,327.396V48.64z"/>
<path style="fill:#FFFFFF;" d="M256,198.827c-52.156,0-94.436,42.28-94.436,94.436h188.871
	C350.436,241.107,308.156,198.827,256,198.827z"/>
<circle style="fill:#FAD4C6;" cx="256" cy="118.044" r="58.027"/>
<rect x="197.814" y="363.804" style="fill:#8B7E7F;" width="116.361" height="113.778"/>
<g>
	<path style="fill:#C2B8B9;" d="M395.636,486.116H116.364c-4.713,0-8.533-3.821-8.533-8.533s3.821-8.533,8.533-8.533h279.272
		c4.713,0,8.533,3.821,8.533,8.533S400.349,486.116,395.636,486.116z"/>
	<path style="fill:#C2B8B9;" d="M0,327.396v36.409c0,12.516,10.24,22.756,22.756,22.756h466.489
		c12.516,0,22.756-10.24,22.756-22.756v-36.409H0z"/>
</g>
<g>
</g>
<g>
</g>
<g>
</g>
<g>
</g>
<g>
</g>
<g>
</g>
<g>
</g>
<g>
</g>
<g>
</g>
<g>
</g>
<g>
</g>
<g>
</g>
<g>
</g>
<g>
</g>
<g>
</g>
</svg>
