<?xml version="1.0" encoding="iso-8859-1"?>
<!-- Generator: Adobe Illustrator 19.0.0, SVG Export Plug-In . SVG Version: 6.00 Build 0)  -->
<svg version="1.1" id="Layer_1" xmlns="http://www.w3.org/2000/svg" xmlns:xlink="http://www.w3.org/1999/xlink" x="0px" y="0px"
	 viewBox="0 0 512 512" style="enable-background:new 0 0 512 512;" xml:space="preserve">
<g>
	
		<rect x="244.648" y="4.414" transform="matrix(-0.8786 -0.4775 0.4775 -0.8786 434.7506 282.1054)" style="fill:#D6CED1;" width="17.162" height="162.771"/>
	
		<rect x="60.786" y="77.227" transform="matrix(-0.4775 -0.8786 0.8786 -0.4775 134.6683 251.6973)" style="fill:#D6CED1;" width="162.771" height="17.162"/>
</g>
<g>
	<circle style="fill:#C2B8B9;" cx="292.086" cy="14.302" r="14.302"/>
	<circle style="fill:#C2B8B9;" cx="103.315" cy="14.302" r="14.302"/>
</g>
<path style="fill:#F14742;" d="M507.709,489.117c0,12.585-10.297,22.883-22.883,22.883H27.173
	c-12.585,0-22.883-10.297-22.883-22.883V168.76c0-12.585,10.297-22.883,22.883-22.883h457.654c12.585,0,22.883,10.297,22.883,22.883
	V489.117z"/>
<g>
	<circle style="fill:#FFFFFF;" cx="433.341" cy="220.246" r="28.603"/>
	<circle style="fill:#FFFFFF;" cx="433.341" cy="311.777" r="28.603"/>
</g>
<g>
	<path style="fill:#CD3F39;" d="M461.944,474.816h-57.207c-4.74,0-8.581-3.842-8.581-8.581c0-4.739,3.841-8.581,8.581-8.581h57.207
		c4.74,0,8.581,3.842,8.581,8.581C470.525,470.974,466.684,474.816,461.944,474.816z"/>
	<path style="fill:#CD3F39;" d="M461.944,440.492h-57.207c-4.74,0-8.581-3.842-8.581-8.581c0-4.739,3.841-8.581,8.581-8.581h57.207
		c4.74,0,8.581,3.842,8.581,8.581C470.525,436.65,466.684,440.492,461.944,440.492z"/>
	<path style="fill:#CD3F39;" d="M461.944,406.168h-57.207c-4.74,0-8.581-3.842-8.581-8.581s3.841-8.581,8.581-8.581h57.207
		c4.74,0,8.581,3.842,8.581,8.581S466.684,406.168,461.944,406.168z"/>
</g>
<path style="fill:#91302A;" d="M328.407,220.017c42.666,32.012,38.788,178.28,0,214.295c-45.841,42.564-201.948,42.564-247.787,0
	c-38.788-36.015-42.666-182.282,0-214.295C131.042,182.184,277.982,182.184,328.407,220.017z"/>
<g>
</g>
<g>
</g>
<g>
</g>
<g>
</g>
<g>
</g>
<g>
</g>
<g>
</g>
<g>
</g>
<g>
</g>
<g>
</g>
<g>
</g>
<g>
</g>
<g>
</g>
<g>
</g>
<g>
</g>
</svg>
