<?xml version="1.0" encoding="iso-8859-1"?>
<!-- Generator: Adobe Illustrator 19.0.0, SVG Export Plug-In . SVG Version: 6.00 Build 0)  -->
<svg version="1.1" id="Layer_1" xmlns="http://www.w3.org/2000/svg" xmlns:xlink="http://www.w3.org/1999/xlink" x="0px" y="0px"
	 viewBox="0 0 512 512" style="enable-background:new 0 0 512 512;" xml:space="preserve">
<polygon style="fill:#ECE7EA;" points="512,73.956 512,494.933 0,494.933 0,73.956 256,51.2 "/>
<rect y="17.067" style="fill:#1B4145;" width="512" height="56.889"/>
<circle style="fill:#6FC5D6;" cx="435.2" cy="45.511" r="8.533"/>
<circle style="fill:#F14742;" cx="475.022" cy="45.511" r="8.533"/>
<circle style="fill:#6FC5D6;" cx="395.378" cy="45.511" r="8.533"/>
<g>
	<path style="fill:#8B7E7F;" d="M443.733,201.956H68.267c-4.714,0-8.533-3.821-8.533-8.533s3.82-8.533,8.533-8.533h375.467
		c4.714,0,8.533,3.821,8.533,8.533S448.447,201.956,443.733,201.956z"/>
	<path style="fill:#8B7E7F;" d="M443.733,156.444H68.267c-4.714,0-8.533-3.821-8.533-8.533s3.82-8.533,8.533-8.533h375.467
		c4.714,0,8.533,3.821,8.533,8.533S448.447,156.444,443.733,156.444z"/>
	<path style="fill:#8B7E7F;" d="M233.244,292.978H68.267c-4.714,0-8.533-3.821-8.533-8.533s3.82-8.533,8.533-8.533h164.978
		c4.714,0,8.533,3.821,8.533,8.533S237.958,292.978,233.244,292.978z"/>
	<path style="fill:#8B7E7F;" d="M233.244,247.467H68.267c-4.714,0-8.533-3.821-8.533-8.533c0-4.713,3.82-8.533,8.533-8.533h164.978
		c4.714,0,8.533,3.821,8.533,8.533C241.778,243.646,237.958,247.467,233.244,247.467z"/>
	<path style="fill:#8B7E7F;" d="M233.244,338.489H68.267c-4.714,0-8.533-3.821-8.533-8.533s3.82-8.533,8.533-8.533h164.978
		c4.714,0,8.533,3.821,8.533,8.533S237.958,338.489,233.244,338.489z"/>
	<path style="fill:#8B7E7F;" d="M233.244,384H68.267c-4.714,0-8.533-3.821-8.533-8.533s3.82-8.533,8.533-8.533h164.978
		c4.714,0,8.533,3.821,8.533,8.533S237.958,384,233.244,384z"/>
</g>
<rect x="278.756" y="238.933" style="fill:#F14742;" width="164.978" height="182.044"/>
<path style="fill:#8B7E7F;" d="M233.244,429.511H68.267c-4.714,0-8.533-3.821-8.533-8.533s3.82-8.533,8.533-8.533h164.978
	c4.714,0,8.533,3.821,8.533,8.533S237.958,429.511,233.244,429.511z"/>
<g>
</g>
<g>
</g>
<g>
</g>
<g>
</g>
<g>
</g>
<g>
</g>
<g>
</g>
<g>
</g>
<g>
</g>
<g>
</g>
<g>
</g>
<g>
</g>
<g>
</g>
<g>
</g>
<g>
</g>
</svg>
