<?xml version="1.0" encoding="iso-8859-1"?>
<!-- Generator: Adobe Illustrator 19.0.0, SVG Export Plug-In . SVG Version: 6.00 Build 0)  -->
<svg version="1.1" id="Layer_1" xmlns="http://www.w3.org/2000/svg" xmlns:xlink="http://www.w3.org/1999/xlink" x="0px" y="0px"
	 viewBox="0 0 512 512" style="enable-background:new 0 0 512 512;" xml:space="preserve">
<path style="fill:#D6CED1;" d="M79.345,35.93c-14.821,0-26.947,12.126-26.947,26.947V476.07h356.304V35.93H79.345z"/>
<path style="fill:#C2B8B9;" d="M399.719,395.317v53.806H88.327c-14.821,0-26.947,12.126-26.947,26.947
	c0,14.821,12.126,26.947,26.947,26.947h308.398c29.642,0,53.895-24.253,53.895-53.895
	C450.62,420.486,427.983,396.884,399.719,395.317z"/>
<path style="fill:#ECE7EA;" d="M405.708,0H100.304v395.228c0,4.961,4.022,8.982,8.982,8.982h287.439
	c24.765,0,44.912,20.147,44.912,44.912s-20.147,44.912-44.912,44.912H88.327c-9.906,0-17.965-8.059-17.965-17.965
	s8.059-17.965,17.965-17.965h302.409c4.962,0,8.982-4.022,8.982-8.982c0-4.961-4.021-8.982-8.982-8.982H88.327
	c-19.812,0-35.93,16.118-35.93,35.93c0,19.812,16.118,35.93,35.93,35.93h308.398c34.67,0,62.877-28.206,62.877-62.877
	c0,0,0-365.586,0-395.228S435.35,0,405.708,0z"/>
<g>
	<path style="fill:#8B7E7F;" d="M160.187,344.327c-4.961,0-8.982-4.022-8.982-8.982V59.883c0-4.961,4.022-8.982,8.982-8.982
		s8.982,4.022,8.982,8.982v275.462C169.17,340.306,165.148,344.327,160.187,344.327z"/>
	<path style="fill:#8B7E7F;" d="M208.094,344.327c-4.961,0-8.982-4.022-8.982-8.982v-95.813c0-4.961,4.022-8.982,8.982-8.982
		s8.982,4.022,8.982,8.982v95.813C217.076,340.306,213.054,344.327,208.094,344.327z"/>
	<path style="fill:#8B7E7F;" d="M256,344.327c-4.961,0-8.982-4.022-8.982-8.982v-95.813c0-4.961,4.022-8.982,8.982-8.982
		c4.962,0,8.982,4.022,8.982,8.982v95.813C264.982,340.306,260.962,344.327,256,344.327z"/>
	<path style="fill:#8B7E7F;" d="M303.906,344.327c-4.962,0-8.982-4.022-8.982-8.982v-95.813c0-4.961,4.021-8.982,8.982-8.982
		s8.982,4.022,8.982,8.982v95.813C312.889,340.306,308.868,344.327,303.906,344.327z"/>
</g>
<rect x="208.094" y="59.883" style="fill:#F14742;" width="143.719" height="143.719"/>
<g>
	<path style="fill:#8B7E7F;" d="M351.813,344.327c-4.962,0-8.982-4.022-8.982-8.982v-95.813c0-4.961,4.021-8.982,8.982-8.982
		s8.982,4.022,8.982,8.982v95.813C360.795,340.306,356.775,344.327,351.813,344.327z"/>
	<path style="fill:#8B7E7F;" d="M399.719,344.327c-4.962,0-8.982-4.022-8.982-8.982V59.883c0-4.961,4.021-8.982,8.982-8.982
		s8.982,4.022,8.982,8.982v275.462C408.702,340.306,404.681,344.327,399.719,344.327z"/>
</g>
<g>
</g>
<g>
</g>
<g>
</g>
<g>
</g>
<g>
</g>
<g>
</g>
<g>
</g>
<g>
</g>
<g>
</g>
<g>
</g>
<g>
</g>
<g>
</g>
<g>
</g>
<g>
</g>
<g>
</g>
</svg>
