<?xml version="1.0" encoding="iso-8859-1"?>
<!-- Generator: Adobe Illustrator 19.0.0, SVG Export Plug-In . SVG Version: 6.00 Build 0)  -->
<svg version="1.1" id="Layer_1" xmlns="http://www.w3.org/2000/svg" xmlns:xlink="http://www.w3.org/1999/xlink" x="0px" y="0px"
	 viewBox="0 0 512 512" style="enable-background:new 0 0 512 512;" xml:space="preserve">
<path style="fill:#605353;" d="M430.08,466.489c0,25.031-20.48,45.511-45.511,45.511H127.431c-25.031,0-45.511-20.48-45.511-45.511
	V45.511C81.92,20.48,102.4,0,127.431,0h257.138C409.6,0,430.08,20.48,430.08,45.511V466.489z"/>
<circle style="fill:#C2B8B9;" cx="256" cy="460.8" r="17.067"/>
<circle style="fill:#463836;" cx="256" cy="53.476" r="8.533"/>
<rect x="116.053" y="106.951" style="fill:#FFFFFF;" width="279.893" height="302.649"/>
<g>
	<path style="fill:#C2B8B9;" d="M335.644,173.511H176.356c-4.713,0-8.533-3.821-8.533-8.533s3.821-8.533,8.533-8.533h159.289
		c4.713,0,8.533,3.821,8.533,8.533S340.357,173.511,335.644,173.511z"/>
	<path style="fill:#C2B8B9;" d="M335.644,219.022H176.356c-4.713,0-8.533-3.821-8.533-8.533s3.821-8.533,8.533-8.533h159.289
		c4.713,0,8.533,3.821,8.533,8.533S340.357,219.022,335.644,219.022z"/>
	<path style="fill:#C2B8B9;" d="M335.644,264.533H176.356c-4.713,0-8.533-3.821-8.533-8.533c0-4.713,3.821-8.533,8.533-8.533
		h159.289c4.713,0,8.533,3.821,8.533,8.533C344.178,260.713,340.357,264.533,335.644,264.533z"/>
	<path style="fill:#C2B8B9;" d="M335.644,310.044H176.356c-4.713,0-8.533-3.821-8.533-8.533s3.821-8.533,8.533-8.533h159.289
		c4.713,0,8.533,3.821,8.533,8.533S340.357,310.044,335.644,310.044z"/>
	<path style="fill:#C2B8B9;" d="M256,355.556h-79.644c-4.713,0-8.533-3.821-8.533-8.533c0-4.713,3.821-8.533,8.533-8.533H256
		c4.713,0,8.533,3.821,8.533,8.533C264.533,351.735,260.713,355.556,256,355.556z"/>
</g>
<g>
</g>
<g>
</g>
<g>
</g>
<g>
</g>
<g>
</g>
<g>
</g>
<g>
</g>
<g>
</g>
<g>
</g>
<g>
</g>
<g>
</g>
<g>
</g>
<g>
</g>
<g>
</g>
<g>
</g>
</svg>
