<?xml version="1.0" encoding="iso-8859-1"?>
<!-- Generator: Adobe Illustrator 19.0.0, SVG Export Plug-In . SVG Version: 6.00 Build 0)  -->
<svg version="1.1" id="Layer_1" xmlns="http://www.w3.org/2000/svg" xmlns:xlink="http://www.w3.org/1999/xlink" x="0px" y="0px"
	 viewBox="0 0 512 512" style="enable-background:new 0 0 512 512;" xml:space="preserve">
<path style="fill:#605353;" d="M326.249,475.927c0,19.84-16.233,36.073-36.073,36.073H89.783c-19.84,0-36.073-16.233-36.073-36.073
	V145.932c0-19.84,16.233-36.073,36.073-36.073h200.393c19.84,0,36.073,16.233,36.073,36.073V475.927z"/>
<circle style="fill:#463836;" cx="189.975" cy="470.877" r="8.727"/>
<rect x="88.623" y="192.105" style="fill:#FFFFFF;" width="202.717" height="237.638"/>
<path style="fill:#FFD24D;" d="M458.29,104.866C458.29,46.95,399.169,0,326.248,0C253.32,0,194.206,46.95,194.206,104.866
	c0,51.741,47.184,94.726,109.246,103.304h-0.188c3.257,20.004-2.752,41.246-18.035,56.674c32.792,0,59.863-24.698,63.974-56.67
	h-0.189C411.087,199.603,458.29,156.614,458.29,104.866z"/>
<g>
	<circle style="fill:#F14742;" cx="278.644" cy="104.867" r="8.727"/>
	<circle style="fill:#F14742;" cx="373.853" cy="104.867" r="8.727"/>
	<circle style="fill:#F14742;" cx="326.249" cy="104.867" r="8.727"/>
</g>
<g>
</g>
<g>
</g>
<g>
</g>
<g>
</g>
<g>
</g>
<g>
</g>
<g>
</g>
<g>
</g>
<g>
</g>
<g>
</g>
<g>
</g>
<g>
</g>
<g>
</g>
<g>
</g>
<g>
</g>
</svg>
