<?xml version="1.0" encoding="iso-8859-1"?>
<!-- Generator: Adobe Illustrator 19.0.0, SVG Export Plug-In . SVG Version: 6.00 Build 0)  -->
<svg version="1.1" id="Layer_1" xmlns="http://www.w3.org/2000/svg" xmlns:xlink="http://www.w3.org/1999/xlink" x="0px" y="0px"
	 viewBox="0 0 512 512" style="enable-background:new 0 0 512 512;" xml:space="preserve">
<g>
	<path style="fill:#605353;" d="M468.364,368v23.273c0,4.82,3.908,8.727,8.727,8.727c4.82,0,8.727-3.908,8.727-8.727V368H468.364z"
		/>
	<path style="fill:#605353;" d="M433.455,391.273c0,4.82,3.908,8.727,8.727,8.727c4.82,0,8.727-3.908,8.727-8.727V368h-17.455
		V391.273z"/>
	<path style="fill:#605353;" d="M398.545,391.273c0,4.82,3.908,8.727,8.727,8.727c4.82,0,8.727-3.908,8.727-8.727V368h-17.455
		V391.273z"/>
	<rect x="226.909" y="344.727" style="fill:#605353;" width="58.182" height="116.364"/>
</g>
<path style="fill:#463836;" d="M512,368c0,6.4-5.236,11.636-11.636,11.636H11.636C5.236,379.636,0,374.4,0,368V53.818
	c0-6.4,5.236-11.636,11.636-11.636h488.727c6.4,0,11.636,5.236,11.636,11.636V368z"/>
<rect x="34.909" y="77.091" style="fill:#6FC5D6;" width="442.182" height="267.636"/>
<path style="fill:#463836;" d="M395.636,469.818H116.364c-4.82,0-8.727-3.908-8.727-8.727c0-4.82,3.907-8.727,8.727-8.727h279.273
	c4.82,0,8.727,3.908,8.727,8.727C404.364,465.911,400.456,469.818,395.636,469.818z"/>
<g>
</g>
<g>
</g>
<g>
</g>
<g>
</g>
<g>
</g>
<g>
</g>
<g>
</g>
<g>
</g>
<g>
</g>
<g>
</g>
<g>
</g>
<g>
</g>
<g>
</g>
<g>
</g>
<g>
</g>
</svg>
