<?xml version="1.0" encoding="iso-8859-1"?>
<!-- Generator: Adobe Illustrator 19.0.0, SVG Export Plug-In . SVG Version: 6.00 Build 0)  -->
<svg version="1.1" id="Layer_1" xmlns="http://www.w3.org/2000/svg" xmlns:xlink="http://www.w3.org/1999/xlink" x="0px" y="0px"
	 viewBox="0 0 512 512" style="enable-background:new 0 0 512 512;" xml:space="preserve">
<polygon style="fill:#8B7E7F;" points="181.019,398.44 181.019,503.607 283.978,503.607 283.978,398.409 "/>
<line style="fill:none;stroke:#000000;stroke-width:15;stroke-linecap:round;stroke-linejoin:round;stroke-miterlimit:10;" x1="427.652" y1="368.573" x2="37.77" y2="368.573"/>
<path style="fill:#463836;" d="M460.8,120.897c0-12.31-10.072-22.383-22.383-22.383H26.579c-12.31,0-22.383,10.072-22.383,22.383
	v248.446l228.302,22.383L460.8,369.343V120.897z"/>
<g>
	<path style="fill:#C2B8B9;" d="M4.197,369.343v29.097c0,12.31,10.072,22.383,22.383,22.383h411.838
		c12.31,0,22.383-10.072,22.383-22.383v-29.097H4.197z"/>
	<path style="fill:#C2B8B9;" d="M357.281,512H107.716c-4.635,0-8.393-3.758-8.393-8.393c0-4.635,3.758-8.393,8.393-8.393h249.565
		c4.635,0,8.393,3.758,8.393,8.393C365.674,508.242,361.916,512,357.281,512z"/>
</g>
<path style="fill:#FFD24D;" d="M507.803,103.146C507.803,46.181,449.652,0,377.927,0C306.195,0,248.05,46.181,248.05,103.146
	c0,50.893,46.411,93.174,107.455,101.61h-0.185c3.203,19.675-2.707,40.569-17.74,55.745c32.255,0,58.882-24.293,62.926-55.741
	h-0.185C461.375,196.332,507.803,154.047,507.803,103.146z"/>
<g>
	<circle style="fill:#F14742;" cx="332.145" cy="103.15" r="8.393"/>
	<circle style="fill:#F14742;" cx="423.712" cy="103.15" r="8.393"/>
	<circle style="fill:#F14742;" cx="377.929" cy="103.15" r="8.393"/>
</g>
<g>
</g>
<g>
</g>
<g>
</g>
<g>
</g>
<g>
</g>
<g>
</g>
<g>
</g>
<g>
</g>
<g>
</g>
<g>
</g>
<g>
</g>
<g>
</g>
<g>
</g>
<g>
</g>
<g>
</g>
</svg>
