<?xml version="1.0" encoding="iso-8859-1"?>
<!-- Generator: Adobe Illustrator 19.0.0, SVG Export Plug-In . SVG Version: 6.00 Build 0)  -->
<svg version="1.1" id="Layer_1" xmlns="http://www.w3.org/2000/svg" xmlns:xlink="http://www.w3.org/1999/xlink" x="0px" y="0px"
	 viewBox="0 0 512 512" style="enable-background:new 0 0 512 512;" xml:space="preserve">
<path style="fill:#C2B8B9;" d="M361.118,114.884H150.882c-16.388,0-29.721-13.333-29.721-29.721V8.393
	c0-4.635-3.757-8.393-8.393-8.393s-8.393,3.758-8.393,8.393v76.77c0,25.645,20.864,46.507,46.508,46.507h210.236
	c16.388,0,29.721,13.333,29.721,29.721v43.71h16.787v-43.71C407.625,135.747,386.762,114.884,361.118,114.884z"/>
<path style="fill:#463836;" d="M507.803,491.42c0,11.366-9.214,20.58-20.58,20.58H24.776c-11.366,0-20.58-9.214-20.58-20.58V203.299
	c0-11.366,9.214-20.58,20.58-20.58h462.446c11.366,0,20.58,9.214,20.58,20.58V491.42H507.803z"/>
<g>
	<path style="fill:#8B7E7F;" d="M330.286,451.071H181.714c-4.637,0-8.393-3.758-8.393-8.393c0-4.635,3.757-8.393,8.393-8.393
		h148.573c4.637,0,8.393,3.758,8.393,8.393C338.68,447.313,334.922,451.071,330.286,451.071z"/>
	<path style="fill:#8B7E7F;" d="M112.784,387.525H72.964c-4.637,0-8.393-3.758-8.393-8.393s3.757-8.393,8.393-8.393h39.821
		c4.637,0,8.393,3.758,8.393,8.393S117.421,387.525,112.784,387.525z"/>
	<path style="fill:#8B7E7F;" d="M439.036,387.525h-39.821c-4.637,0-8.393-3.758-8.393-8.393s3.757-8.393,8.393-8.393h39.821
		c4.637,0,8.393,3.758,8.393,8.393S443.672,387.525,439.036,387.525z"/>
	<path style="fill:#8B7E7F;" d="M330.286,387.525h-39.822c-4.637,0-8.393-3.758-8.393-8.393s3.757-8.393,8.393-8.393h39.822
		c4.637,0,8.393,3.758,8.393,8.393S334.922,387.525,330.286,387.525z"/>
	<path style="fill:#8B7E7F;" d="M221.535,387.525h-39.822c-4.637,0-8.393-3.758-8.393-8.393s3.757-8.393,8.393-8.393h39.822
		c4.637,0,8.393,3.758,8.393,8.393S226.172,387.525,221.535,387.525z"/>
	<path style="fill:#8B7E7F;" d="M112.784,323.98H72.964c-4.637,0-8.393-3.758-8.393-8.393c0-4.635,3.757-8.393,8.393-8.393h39.821
		c4.637,0,8.393,3.758,8.393,8.393C121.178,320.222,117.421,323.98,112.784,323.98z"/>
	<path style="fill:#8B7E7F;" d="M439.036,323.98h-39.821c-4.637,0-8.393-3.758-8.393-8.393c0-4.635,3.757-8.393,8.393-8.393h39.821
		c4.637,0,8.393,3.758,8.393,8.393C447.43,320.222,443.672,323.98,439.036,323.98z"/>
	<path style="fill:#8B7E7F;" d="M330.286,323.98h-39.822c-4.637,0-8.393-3.758-8.393-8.393c0-4.635,3.757-8.393,8.393-8.393h39.822
		c4.637,0,8.393,3.758,8.393,8.393C338.68,320.222,334.922,323.98,330.286,323.98z"/>
	<path style="fill:#8B7E7F;" d="M221.535,323.98h-39.822c-4.637,0-8.393-3.758-8.393-8.393c0-4.635,3.757-8.393,8.393-8.393h39.822
		c4.637,0,8.393,3.758,8.393,8.393C229.929,320.222,226.172,323.98,221.535,323.98z"/>
	<path style="fill:#8B7E7F;" d="M112.784,260.434H72.964c-4.637,0-8.393-3.758-8.393-8.393c0-4.635,3.757-8.393,8.393-8.393h39.821
		c4.637,0,8.393,3.758,8.393,8.393C121.178,256.676,117.421,260.434,112.784,260.434z"/>
	<path style="fill:#8B7E7F;" d="M439.036,260.434h-39.821c-4.637,0-8.393-3.758-8.393-8.393c0-4.635,3.757-8.393,8.393-8.393h39.821
		c4.637,0,8.393,3.758,8.393,8.393C447.43,256.676,443.672,260.434,439.036,260.434z"/>
	<path style="fill:#8B7E7F;" d="M330.286,260.434h-39.822c-4.637,0-8.393-3.758-8.393-8.393c0-4.635,3.757-8.393,8.393-8.393h39.822
		c4.637,0,8.393,3.758,8.393,8.393C338.68,256.676,334.922,260.434,330.286,260.434z"/>
	<path style="fill:#8B7E7F;" d="M221.535,260.434h-39.822c-4.637,0-8.393-3.758-8.393-8.393c0-4.635,3.757-8.393,8.393-8.393h39.822
		c4.637,0,8.393,3.758,8.393,8.393C229.929,256.676,226.172,260.434,221.535,260.434z"/>
</g>
<g>
</g>
<g>
</g>
<g>
</g>
<g>
</g>
<g>
</g>
<g>
</g>
<g>
</g>
<g>
</g>
<g>
</g>
<g>
</g>
<g>
</g>
<g>
</g>
<g>
</g>
<g>
</g>
<g>
</g>
</svg>
