<?xml version="1.0" encoding="iso-8859-1"?>
<!-- Generator: Adobe Illustrator 19.0.0, SVG Export Plug-In . SVG Version: 6.00 Build 0)  -->
<svg version="1.1" id="Layer_1" xmlns="http://www.w3.org/2000/svg" xmlns:xlink="http://www.w3.org/1999/xlink" x="0px" y="0px"
	 viewBox="0 0 512 512" style="enable-background:new 0 0 512 512;" xml:space="preserve">
<path style="fill:#8B7E7F;" d="M256,349.091c-99.681,0-183.089,69.634-204.255,162.909h408.512
	C439.089,418.725,355.681,349.091,256,349.091z"/>
<path style="fill:#D6CED1;" d="M345.202,19.905L256,93.091l-89.202-73.186C95.734,53.406,46.545,125.681,46.545,209.455
	c0,115.678,93.776,209.455,209.455,209.455s209.455-93.776,209.455-209.455C465.455,125.681,416.266,53.406,345.202,19.905z"/>
<path style="fill:#C2B8B9;" d="M166.798,19.905c-2.518,8.442-3.889,17.379-3.889,26.64c0,51.413,41.678,93.091,93.091,93.091
	s93.091-41.678,93.091-93.091c0-9.261-1.371-18.198-3.889-26.64C318.137,7.146,287.905,0,256,0S193.863,7.146,166.798,19.905z"/>
<circle style="fill:#605353;" cx="256" cy="209.455" r="116.364"/>
<path style="fill:#463836;" d="M256,279.273c-38.498,0-69.818-31.32-69.818-69.818s31.32-69.818,69.818-69.818
	s69.818,31.32,69.818,69.818S294.498,279.273,256,279.273z"/>
<path style="fill:#605353;" d="M256,253.075c-11.665,0-22.625-4.534-30.856-12.764c-3.408-3.408-3.408-8.933,0-12.342
	c3.408-3.408,8.934-3.409,12.342,0c4.935,4.934,11.51,7.652,18.513,7.652c7.005,0,13.578-2.717,18.512-7.652
	c10.209-10.209,10.209-26.818,0-37.027c-3.408-3.408-3.408-8.934,0-12.342c3.409-3.408,8.934-3.408,12.343,0
	c17.013,17.014,17.013,44.698,0,61.711C278.625,248.541,267.667,253.075,256,253.075z"/>
<circle style="fill:#F14742;" cx="256" cy="46.545" r="8.727"/>
<g>
</g>
<g>
</g>
<g>
</g>
<g>
</g>
<g>
</g>
<g>
</g>
<g>
</g>
<g>
</g>
<g>
</g>
<g>
</g>
<g>
</g>
<g>
</g>
<g>
</g>
<g>
</g>
<g>
</g>
</svg>
