<?xml version="1.0" encoding="iso-8859-1"?>
<!-- Generator: Adobe Illustrator 19.0.0, SVG Export Plug-In . SVG Version: 6.00 Build 0)  -->
<svg version="1.1" id="Layer_1" xmlns="http://www.w3.org/2000/svg" xmlns:xlink="http://www.w3.org/1999/xlink" x="0px" y="0px"
	 viewBox="0 0 512 512" style="enable-background:new 0 0 512 512;" xml:space="preserve">
<path style="fill:#463836;" d="M217.144,182.764L12.287,424.418c-17.482,20.622-16.145,53.137,2.972,72.254
	c19.117,19.116,51.712,20.551,72.434,3.185L331.484,295.55L217.144,182.764z"/>
<path style="fill:#C2B8B9;" d="M217.144,182.764c8.149,25.448,22.316,49.386,42.511,69.581
	c20.788,20.788,45.544,35.183,71.828,43.206l48.721-40.83L258.955,133.444L217.144,182.764z"/>
<circle style="fill:#605353;" cx="382.254" cy="129.746" r="129.745"/>
<g>
	<circle style="fill:#463836;" cx="460.695" cy="104.599" r="8.727"/>
	<circle style="fill:#463836;" cx="464.349" cy="136.53" r="8.727"/>
	<path style="fill:#463836;" d="M345.597,166.401c-51.632-51.632-91.311-116.493-67.245-140.558c3.408-3.408,8.933-3.408,12.343,0
		s3.408,8.934,0,12.343c-4.026,4.026-2.92,17.942,8.626,39.957c12.302,23.457,33.121,50.419,58.619,75.917
		c25.499,25.499,52.46,46.317,75.918,58.621c22.015,11.546,35.931,12.652,39.957,8.626c3.408-3.408,8.933-3.408,12.343,0
		c3.408,3.408,3.408,8.934,0,12.343C462.092,257.713,397.231,218.035,345.597,166.401z"/>
</g>
<g>
</g>
<g>
</g>
<g>
</g>
<g>
</g>
<g>
</g>
<g>
</g>
<g>
</g>
<g>
</g>
<g>
</g>
<g>
</g>
<g>
</g>
<g>
</g>
<g>
</g>
<g>
</g>
<g>
</g>
</svg>
