<?xml version="1.0" encoding="iso-8859-1"?>
<!-- Generator: Adobe Illustrator 19.0.0, SVG Export Plug-In . SVG Version: 6.00 Build 0)  -->
<svg version="1.1" id="Layer_1" xmlns="http://www.w3.org/2000/svg" xmlns:xlink="http://www.w3.org/1999/xlink" x="0px" y="0px"
	 viewBox="0 0 512 512" style="enable-background:new 0 0 512 512;" xml:space="preserve">
<polygon style="fill:#91302A;" points="450.23,61.292 512,450.708 388.449,450.708 388.449,146.466 "/>
<polygon style="fill:#ECE7EA;" points="431.297,180.599 388.449,450.708 0,450.708 42.849,180.599 237.073,157.844 "/>
<polygon style="fill:#F14742;" points="450.23,61.292 431.297,180.599 42.849,180.599 61.77,61.292 "/>
<path style="fill:#91302A;" d="M365.932,129.478h-238.79c-4.714,0-8.533-3.82-8.533-8.533c0-4.714,3.82-8.533,8.533-8.533h238.79
	c4.714,0,8.533,3.82,8.533,8.533C374.465,125.658,370.646,129.478,365.932,129.478z"/>
<g>
	<path style="fill:#FFFFFF;" d="M141.228,262.962h-35.261c-4.714,0-8.533-3.82-8.533-8.533c0-4.714,3.82-8.533,8.533-8.533h35.261
		c4.714,0,8.533,3.82,8.533,8.533C149.761,259.143,145.942,262.962,141.228,262.962z"/>
	<path style="fill:#FFFFFF;" d="M242.993,262.962h-35.261c-4.714,0-8.533-3.82-8.533-8.533c0-4.714,3.82-8.533,8.533-8.533h35.261
		c4.714,0,8.533,3.82,8.533,8.533C251.526,259.143,247.707,262.962,242.993,262.962z"/>
	<path style="fill:#FFFFFF;" d="M344.758,262.962h-35.261c-4.714,0-8.533-3.82-8.533-8.533c0-4.714,3.82-8.533,8.533-8.533h35.261
		c4.714,0,8.533,3.82,8.533,8.533C353.291,259.143,349.471,262.962,344.758,262.962z"/>
	<path style="fill:#FFFFFF;" d="M131.517,324.187H96.255c-4.714,0-8.533-3.82-8.533-8.533s3.82-8.533,8.533-8.533h35.262
		c4.714,0,8.533,3.82,8.533,8.533S136.23,324.187,131.517,324.187z"/>
	<path style="fill:#FFFFFF;" d="M233.281,324.187H198.02c-4.714,0-8.533-3.82-8.533-8.533s3.82-8.533,8.533-8.533h35.261
		c4.714,0,8.533,3.82,8.533,8.533S237.995,324.187,233.281,324.187z"/>
	<path style="fill:#FFFFFF;" d="M335.046,324.187h-35.261c-4.714,0-8.533-3.82-8.533-8.533s3.82-8.533,8.533-8.533h35.261
		c4.714,0,8.533,3.82,8.533,8.533S339.759,324.187,335.046,324.187z"/>
	<path style="fill:#FFFFFF;" d="M121.805,385.41H86.543c-4.714,0-8.533-3.82-8.533-8.533c0-4.714,3.82-8.533,8.533-8.533h35.261
		c4.714,0,8.533,3.82,8.533,8.533C130.337,381.59,126.517,385.41,121.805,385.41z"/>
	<path style="fill:#FFFFFF;" d="M223.569,385.41h-35.261c-4.714,0-8.533-3.82-8.533-8.533c0-4.714,3.82-8.533,8.533-8.533h35.261
		c4.714,0,8.533,3.82,8.533,8.533C232.102,381.59,228.283,385.41,223.569,385.41z"/>
	<path style="fill:#FFFFFF;" d="M325.334,385.41h-35.262c-4.714,0-8.533-3.82-8.533-8.533c0-4.714,3.82-8.533,8.533-8.533h35.262
		c4.714,0,8.533,3.82,8.533,8.533C333.867,381.59,330.048,385.41,325.334,385.41z"/>
</g>
<g>
</g>
<g>
</g>
<g>
</g>
<g>
</g>
<g>
</g>
<g>
</g>
<g>
</g>
<g>
</g>
<g>
</g>
<g>
</g>
<g>
</g>
<g>
</g>
<g>
</g>
<g>
</g>
<g>
</g>
</svg>
