<?xml version="1.0" encoding="iso-8859-1"?>
<!-- Generator: Adobe Illustrator 19.0.0, SVG Export Plug-In . SVG Version: 6.00 Build 0)  -->
<svg version="1.1" id="Layer_1" xmlns="http://www.w3.org/2000/svg" xmlns:xlink="http://www.w3.org/1999/xlink" x="0px" y="0px"
	 viewBox="0 0 512 512" style="enable-background:new 0 0 512 512;" xml:space="preserve">
<polygon style="fill:#C2B8B9;" points="32.175,478.426 32.175,512 479.825,512 479.825,478.426 256,444.852 "/>
<polygon style="fill:#D6CED1;" points="32.175,444.852 32.175,478.426 479.825,478.426 479.825,366.514 "/>
<polygon style="fill:#ECE7EA;" points="479.825,153.88 479.825,366.514 423.869,388.896 401.486,444.852 32.175,444.852 
	32.175,153.88 256,120.306 "/>
<rect x="32.175" y="30.776" style="fill:#F14742;" width="447.65" height="123.104"/>
<g>
	<path style="fill:#FFFFFF;" d="M315.966,367.633c-4.635,0-8.393-3.757-8.393-8.393v-99.484l-9.621,9.621
		c-3.278,3.277-8.593,3.277-11.869,0c-3.278-3.279-3.278-8.593,0-11.871l23.949-23.948c2.401-2.402,6.012-3.117,9.147-1.819
		c3.137,1.298,5.182,4.36,5.182,7.754V359.24C324.36,363.876,320.603,367.633,315.966,367.633z"/>
	<path style="fill:#FFFFFF;" d="M227.238,367.633c-21.835,0-39.599-17.764-39.599-39.599c0-4.637,3.758-8.393,8.393-8.393
		s8.393,3.757,8.393,8.393c0,12.578,10.233,22.812,22.812,22.812c12.578,0,22.811-10.234,22.811-22.812
		c0-9.121-5.415-17.349-13.798-20.96c-3.079-1.326-5.073-4.357-5.073-7.709s1.994-6.382,5.073-7.709
		c8.381-3.611,13.798-11.838,13.798-20.96c0-12.578-10.233-22.812-22.811-22.812c-12.579,0-22.812,10.234-22.812,22.812
		c0,4.637-3.758,8.393-8.393,8.393s-8.393-3.757-8.393-8.393c0-21.835,17.764-39.599,39.599-39.599
		c21.834,0,39.598,17.764,39.598,39.599c0,11.041-4.572,21.328-12.272,28.668c7.701,7.34,12.272,17.626,12.272,28.668
		C266.838,349.869,249.074,367.633,227.238,367.633z"/>
</g>
<g>
	<path style="fill:#E1DFE0;" d="M390.295,100.721c-4.635,0-8.393-3.757-8.393-8.393V8.393c0-4.637,3.758-8.393,8.393-8.393
		c4.635,0,8.393,3.757,8.393,8.393v83.934C398.689,96.964,394.931,100.721,390.295,100.721z"/>
	<path style="fill:#E1DFE0;" d="M121.705,100.721c-4.635,0-8.393-3.757-8.393-8.393V8.393c0-4.637,3.758-8.393,8.393-8.393
		c4.635,0,8.393,3.757,8.393,8.393v83.934C130.098,96.964,126.34,100.721,121.705,100.721z"/>
</g>
<polygon style="fill:#FFFFFF;" points="479.825,366.514 401.486,444.852 401.486,366.514 "/>
<g>
</g>
<g>
</g>
<g>
</g>
<g>
</g>
<g>
</g>
<g>
</g>
<g>
</g>
<g>
</g>
<g>
</g>
<g>
</g>
<g>
</g>
<g>
</g>
<g>
</g>
<g>
</g>
<g>
</g>
</svg>
