<?xml version="1.0" encoding="iso-8859-1"?>
<!-- Generator: Adobe Illustrator 19.0.0, SVG Export Plug-In . SVG Version: 6.00 Build 0)  -->
<svg version="1.1" id="Layer_1" xmlns="http://www.w3.org/2000/svg" xmlns:xlink="http://www.w3.org/1999/xlink" x="0px" y="0px"
	 viewBox="0 0 512 512" style="enable-background:new 0 0 512 512;" xml:space="preserve">
<path style="fill:#FFD24D;" d="M453.268,132.198h-256v244.622l117.464,2.981h138.536c32.438,0,58.732-26.294,58.732-58.732V190.93
	C512,158.492,485.706,132.198,453.268,132.198z"/>
<g>
	<path style="fill:#1B4145;" d="M314.732,379.802h-256C26.294,379.802,0,353.508,0,321.07V190.93
		c0-32.438,26.294-58.732,58.732-58.732h138.536c32.438,0,58.732,26.294,58.732,58.732V321.07
		C256,353.508,282.294,379.802,314.732,379.802z"/>
	<path style="fill:#1B4145;" d="M409.21,192.361l-84.431,0.013c-4.713,0.001-8.532,3.821-8.532,8.533v122.753
		c0,4.714,3.82,8.533,8.533,8.533c4.714,0,8.533-3.82,8.533-8.533V270.81l64.526-0.041c4.713-0.003,8.531-3.825,8.528-8.539
		c-0.003-4.712-3.822-8.528-8.533-8.528c-0.006,0-64.52,0.041-64.52,0.041V209.44l75.899-0.011c4.714-0.001,8.533-3.822,8.532-8.534
		C417.743,196.18,413.922,192.36,409.21,192.361z"/>
	<path style="fill:#1B4145;" d="M442.747,332.192c-4.714,0-8.533-3.82-8.533-8.533v-91.733c0-4.714,3.82-8.533,8.533-8.533
		s8.533,3.82,8.533,8.533v91.733C451.28,328.372,447.46,332.192,442.747,332.192z"/>
	<circle style="fill:#1B4145;" cx="442.743" cy="201.489" r="8.533"/>
</g>
<g>
	<path style="fill:#FFD24D;" d="M187.053,332.192c-4.713,0-8.533-3.82-8.533-8.533v-91.733c0-4.714,3.821-8.533,8.533-8.533
		c4.713,0,8.533,3.82,8.533,8.533v91.733C195.586,328.372,191.766,332.192,187.053,332.192z"/>
	<circle style="fill:#FFD24D;" cx="187.051" cy="201.489" r="8.533"/>
	<path style="fill:#FFD24D;" d="M69.086,332.192c-0.844,0-1.696-0.125-2.534-0.386c-3.568-1.11-6-4.412-6-8.149V201.24
		c0-4.714,3.821-8.533,8.533-8.533c4.713,0,8.533,3.82,8.533,8.533v94.975l26.586-38.618c1.591-2.311,4.217-3.692,7.022-3.694
		c2.809,0,5.434,1.377,7.028,3.684l26.728,38.7v-95.391c0-4.714,3.821-8.533,8.533-8.533c4.713,0,8.533,3.82,8.533,8.533v122.763
		c0,3.734-2.428,7.036-5.994,8.146c-3.568,1.113-7.44-0.224-9.562-3.297l-35.249-51.04l-35.13,51.03
		C74.493,330.853,71.84,332.192,69.086,332.192z"/>
</g>
<g>
</g>
<g>
</g>
<g>
</g>
<g>
</g>
<g>
</g>
<g>
</g>
<g>
</g>
<g>
</g>
<g>
</g>
<g>
</g>
<g>
</g>
<g>
</g>
<g>
</g>
<g>
</g>
<g>
</g>
</svg>
