<?xml version="1.0" encoding="iso-8859-1"?>
<!-- Generator: Adobe Illustrator 19.0.0, SVG Export Plug-In . SVG Version: 6.00 Build 0)  -->
<svg version="1.1" id="Layer_1" xmlns="http://www.w3.org/2000/svg" xmlns:xlink="http://www.w3.org/1999/xlink" x="0px" y="0px"
	 viewBox="0 0 511.996 511.996" style="enable-background:new 0 0 511.996 511.996;" xml:space="preserve">
<path style="fill:#FEE191;" d="M85.172,192.242c-1.544-1.544-2.5-3.677-2.5-6.034c0-55.163,44.879-100.042,100.042-100.042
	c4.712,0.001,8.532,3.822,8.533,8.533c0,4.714-3.821,8.533-8.535,8.534c-22.123,0-42.95,8.64-58.641,24.333
	s-24.333,36.518-24.333,58.641c0,4.714-3.821,8.533-8.534,8.535C88.851,194.741,86.717,193.786,85.172,192.242z"/>
<path style="fill:#FFF1CD;" d="M39.419,192.242c-1.544-1.544-2.5-3.677-2.5-6.034c0-38.885,15.181-75.48,42.748-103.046
	s64.162-42.748,103.046-42.748c4.712,0.001,8.532,3.822,8.533,8.533c0,4.714-3.821,8.533-8.535,8.534
	c-34.325,0-66.635,13.406-90.978,37.748s-37.749,56.653-37.748,90.978c0,4.714-3.821,8.533-8.534,8.535
	C43.097,194.74,40.964,193.786,39.419,192.242z"/>
<path style="fill:#FFD24D;" d="M130.927,192.241c-1.544-1.544-2.5-3.677-2.5-6.034c0-29.934,24.353-54.287,54.287-54.287
	c4.712,0.001,8.532,3.822,8.533,8.533c0,4.714-3.821,8.533-8.535,8.535c-9.942,0-19.289,3.872-26.318,10.901
	c-7.029,7.029-10.901,16.376-10.901,26.318c0,4.714-3.821,8.533-8.534,8.535C134.604,194.74,132.471,193.786,130.927,192.241z"/>
<path style="fill:#FEE191;" d="M319.754,426.824c-1.544-1.544-2.5-3.677-2.5-6.034c0-4.714,3.821-8.533,8.534-8.535
	c45.751,0,82.974-37.222,82.974-82.974c0-4.714,3.821-8.533,8.534-8.534c4.712,0.001,8.532,3.822,8.533,8.533
	c-0.001,55.163-44.879,100.04-100.042,100.042C323.432,429.322,321.298,428.367,319.754,426.824z"/>
<path style="fill:#FFF1CD;" d="M319.754,472.576c-1.544-1.544-2.5-3.677-2.5-6.034c0-4.714,3.821-8.533,8.534-8.534
	c34.325,0,66.635-13.406,90.978-37.748c24.343-24.343,37.749-56.654,37.748-90.978c0-4.714,3.821-8.533,8.535-8.534
	c4.712,0.001,8.532,3.822,8.533,8.533c0,38.885-15.181,75.48-42.748,103.046c-27.566,27.566-64.162,42.748-103.046,42.748
	C323.432,475.076,321.298,474.12,319.754,472.576z"/>
<path style="fill:#FFD24D;" d="M319.754,381.069c-1.544-1.544-2.5-3.677-2.5-6.034c0-4.714,3.821-8.533,8.534-8.534
	c9.942,0,19.289-3.872,26.318-10.901c7.029-7.029,10.901-16.376,10.901-26.318c0-4.714,3.821-8.533,8.535-8.534
	c4.712,0.001,8.532,3.822,8.533,8.533c0,29.934-24.353,54.287-54.287,54.287C323.432,383.569,321.298,382.613,319.754,381.069z"/>
<rect x="301.736" y="43.144" transform="matrix(-0.7071 0.7071 -0.7071 -0.7071 755.8627 -76.7515)" style="fill:#ECE7EA;" width="184.182" height="150.049"/>
<path style="fill:#609399;" d="M289.486,95.788L9.765,375.508c-13.02,13.02-13.02,34.128,0,47.147l79.575,79.575
	c13.02,13.02,34.128,13.02,47.147,0l279.72-279.721L289.486,95.788z"/>
<g>
	<path style="fill:#D6CED1;" d="M429.774,138.507c-2.183,0-4.368-0.833-6.034-2.499l-9.371-9.371c-3.333-3.334-3.333-8.736,0-12.068
		c3.333-3.331,8.736-3.331,12.067,0l9.371,9.371c3.333,3.334,3.333,8.736,0,12.068C434.142,137.674,431.959,138.507,429.774,138.507
		z"/>
	<path style="fill:#D6CED1;" d="M391.393,100.126c-2.183,0-4.368-0.833-6.034-2.499l-9.371-9.371c-3.333-3.334-3.333-8.736,0-12.068
		c3.333-3.331,8.736-3.331,12.067,0l9.371,9.371c3.333,3.334,3.333,8.736,0,12.068C395.761,99.292,393.577,100.126,391.393,100.126z
		"/>
</g>
<g>
</g>
<g>
</g>
<g>
</g>
<g>
</g>
<g>
</g>
<g>
</g>
<g>
</g>
<g>
</g>
<g>
</g>
<g>
</g>
<g>
</g>
<g>
</g>
<g>
</g>
<g>
</g>
<g>
</g>
</svg>
