<?xml version="1.0" encoding="iso-8859-1"?>
<!-- Generator: Adobe Illustrator 19.0.0, SVG Export Plug-In . SVG Version: 6.00 Build 0)  -->
<svg version="1.1" id="Layer_1" xmlns="http://www.w3.org/2000/svg" xmlns:xlink="http://www.w3.org/1999/xlink" x="0px" y="0px"
	 viewBox="0 0 512 512" style="enable-background:new 0 0 512 512;" xml:space="preserve">
<path style="fill:#609399;" d="M134.299,174.092c-9.425,0-17.066,7.64-17.066,17.066v145.583h34.132V191.157
	C151.364,181.732,143.724,174.092,134.299,174.092z"/>
<path style="fill:#1B4145;" d="M512,371.443c0-25.031-20.48-45.511-45.511-45.511H45.511C20.48,325.932,0,346.412,0,371.443v55.372
	c0,25.031,20.48,45.511,45.511,45.511h420.978c25.031,0,45.511-20.48,45.511-45.511V371.443z"/>
<path style="fill:#FEE191;" d="M193.687,123.275c-2.183,0-4.368-0.833-6.035-2.499c-29.418-29.421-77.289-29.423-106.71,0
	c-3.334,3.331-8.736,3.331-12.068,0c-3.333-3.334-3.333-8.736,0-12.068c36.076-36.074,94.772-36.073,130.848,0
	c3.333,3.334,3.333,8.736,0,12.068C198.055,122.441,195.871,123.275,193.687,123.275z"/>
<path style="fill:#FFF1CD;" d="M223.382,93.581c-2.183,0-4.368-0.833-6.035-2.499c-45.793-45.794-120.305-45.797-166.098,0
	c-3.334,3.331-8.736,3.331-12.068,0c-3.333-3.334-3.333-8.736,0-12.068c25.369-25.369,59.15-39.34,95.119-39.34
	c35.967,0,69.749,13.971,95.118,39.34c3.333,3.334,3.333,8.736,0,12.068C227.75,92.748,225.566,93.581,223.382,93.581z"/>
<path style="fill:#FFD24D;" d="M163.994,152.969c-2.183,0-4.368-0.833-6.035-2.499c-13.046-13.046-34.273-13.048-47.321,0
	c-3.334,3.331-8.736,3.331-12.068,0c-3.333-3.334-3.333-8.736,0-12.068c19.703-19.699,51.758-19.699,71.459,0
	c3.333,3.334,3.333,8.736,0,12.068C168.362,152.136,166.177,152.969,163.994,152.969z"/>
<g>
	<path style="fill:#FFFFFF;" d="M256,423.217c-4.714,0-8.533-3.82-8.533-8.533v-31.11c0-4.714,3.82-8.533,8.533-8.533
		c4.714,0,8.533,3.82,8.533,8.533v31.11C264.533,419.397,260.714,423.217,256,423.217z"/>
	<path style="fill:#FFFFFF;" d="M320,423.217c-4.714,0-8.533-3.82-8.533-8.533v-31.11c0-4.714,3.82-8.533,8.533-8.533
		c4.714,0,8.533,3.82,8.533,8.533v31.11C328.533,419.397,324.714,423.217,320,423.217z"/>
</g>
<path style="fill:#FFD24D;" d="M448,423.217c-4.714,0-8.533-3.82-8.533-8.533v-31.11c0-4.714,3.82-8.533,8.533-8.533
	c4.714,0,8.533,3.82,8.533,8.533v31.11C456.533,419.397,452.714,423.217,448,423.217z"/>
<path style="fill:#FFFFFF;" d="M384,423.217c-4.714,0-8.533-3.82-8.533-8.533v-31.11c0-4.714,3.82-8.533,8.533-8.533
	c4.714,0,8.533,3.82,8.533,8.533v31.11C392.533,419.397,388.714,423.217,384,423.217z"/>
<g>
</g>
<g>
</g>
<g>
</g>
<g>
</g>
<g>
</g>
<g>
</g>
<g>
</g>
<g>
</g>
<g>
</g>
<g>
</g>
<g>
</g>
<g>
</g>
<g>
</g>
<g>
</g>
<g>
</g>
</svg>
