<?xml version="1.0" encoding="iso-8859-1"?>
<!-- Generator: Adobe Illustrator 19.0.0, SVG Export Plug-In . SVG Version: 6.00 Build 0)  -->
<svg version="1.1" id="Layer_1" xmlns="http://www.w3.org/2000/svg" xmlns:xlink="http://www.w3.org/1999/xlink" x="0px" y="0px"
	 viewBox="0 0 512 512" style="enable-background:new 0 0 512 512;" xml:space="preserve">
<g>
	<path style="fill:#C2B8B9;" d="M417.878,264.815l-33.56,33.56l-101.173-69.519l-69.519-101.173l33.56-33.56
		c14.442-14.442,38.079-14.45,52.522-0.008l118.178,118.178C432.327,226.736,432.319,250.374,417.878,264.815z"/>
	<path style="fill:#C2B8B9;" d="M215.088,467.604l-33.56,33.56c-14.442,14.442-38.079,14.45-52.522,0.008L10.828,382.995
		c-14.442-14.442-14.434-38.079,0.008-52.522l33.56-33.56l101.173,69.519L215.088,467.604z"/>
</g>
<path style="fill:#FEE191;" d="M458.85,153.602c-4.637,0-8.393-3.758-8.393-8.393c0-46.132-37.532-83.665-83.666-83.665
	c-4.637,0-8.393-3.758-8.393-8.393s3.757-8.393,8.393-8.393c55.39,0,100.453,45.063,100.453,100.451
	C467.243,149.846,463.485,153.602,458.85,153.602z"/>
<path style="fill:#FFF1CD;" d="M503.607,153.602c-4.637,0-8.393-3.758-8.393-8.393c0-34.245-13.374-66.478-37.659-90.763
	c-24.286-24.285-56.519-37.659-90.763-37.659c-4.637,0-8.393-3.758-8.393-8.393s3.757-8.393,8.393-8.393
	c38.727,0,75.177,15.12,102.633,42.576S512,106.482,512,145.209C512,149.846,508.242,153.602,503.607,153.602z"/>
<path style="fill:#FFD24D;" d="M414.09,153.602c-4.637,0-8.393-3.758-8.393-8.393c0-21.454-17.454-38.907-38.906-38.907
	c-4.637,0-8.393-3.758-8.393-8.393s3.757-8.393,8.393-8.393c30.709,0,55.693,24.984,55.693,55.694
	C422.484,149.846,418.727,153.602,414.09,153.602z"/>
<g>
	<path style="fill:#605353;" d="M349.035,210.927c-2.148,0-4.296-0.819-5.936-2.459l-39.567-39.567
		c-3.278-3.278-3.278-8.593,0-11.869c3.279-3.278,8.593-3.278,11.871,0l39.567,39.567c3.278,3.278,3.278,8.593,0,11.869
		C353.331,210.107,351.182,210.927,349.035,210.927z"/>
	
		<rect x="94.69" y="176.953" transform="matrix(-0.7071 0.7071 -0.7071 -0.7071 576.3902 356.5497)" style="fill:#605353;" width="239.322" height="241.393"/>
</g>
<g>
</g>
<g>
</g>
<g>
</g>
<g>
</g>
<g>
</g>
<g>
</g>
<g>
</g>
<g>
</g>
<g>
</g>
<g>
</g>
<g>
</g>
<g>
</g>
<g>
</g>
<g>
</g>
<g>
</g>
</svg>
