<?xml version="1.0" encoding="iso-8859-1"?>
<!-- Generator: Adobe Illustrator 19.0.0, SVG Export Plug-In . SVG Version: 6.00 Build 0)  -->
<svg version="1.1" id="Layer_1" xmlns="http://www.w3.org/2000/svg" xmlns:xlink="http://www.w3.org/1999/xlink" x="0px" y="0px"
	 viewBox="0 0 511.995 511.995" style="enable-background:new 0 0 511.995 511.995;" xml:space="preserve">
<g>
	<rect x="121.086" y="354.1" style="fill:#463836;" width="17.455" height="58.636"/>
	
		<rect x="88.923" y="336.856" transform="matrix(-0.967 -0.2549 0.2549 -0.967 96.3785 763.3757)" style="fill:#463836;" width="17.455" height="77.175"/>
	
		<rect x="130.131" y="371.807" transform="matrix(-0.2531 -0.9674 0.9674 -0.2531 -163.3868 634.9278)" style="fill:#463836;" width="66.534" height="17.454"/>
</g>
<polygon style="fill:#8B7E7F;" points="76.163,412.732 48.353,511.995 211.262,511.995 183.452,412.732 "/>
<path style="fill:#605353;" d="M106.8,300.793c-13.587,15.525-12.979,39.146,1.822,53.947s38.422,15.409,53.947,1.821L106.8,300.793
	z"/>
<path style="fill:#C2B8B9;" d="M132.484,18.486c-86.342,86.342-86.342,226.328,0,312.67s226.328,86.342,312.67,0L132.484,18.486z"/>
<ellipse transform="matrix(0.7071 -0.7071 0.7071 0.7071 -39.0264 255.4297)" style="fill:#ECE7EA;" cx="288.818" cy="174.824" rx="110.544" ry="221.088"/>
<path style="fill:#D6CED1;" d="M282.647,168.65c-3.408,3.408-3.408,8.934,0,12.343c3.408,3.408,8.933,3.408,12.343,0L406.069,69.913
	L393.727,57.57L282.647,168.65z"/>
<path style="fill:#605353;" d="M201.259,418.903c-1.579,1.579-3.761,2.556-6.171,2.556H64.527c-4.82,0-8.727-3.907-8.727-8.727
	c0-4.82,3.907-8.727,8.727-8.727h130.562c4.82,0,8.727,3.907,8.727,8.727C203.816,415.142,202.84,417.324,201.259,418.903z"/>
<circle style="fill:#FFD24D;" cx="404.012" cy="59.631" r="17.455"/>
<g>
</g>
<g>
</g>
<g>
</g>
<g>
</g>
<g>
</g>
<g>
</g>
<g>
</g>
<g>
</g>
<g>
</g>
<g>
</g>
<g>
</g>
<g>
</g>
<g>
</g>
<g>
</g>
<g>
</g>
</svg>
