<?xml version="1.0" encoding="iso-8859-1"?>
<!-- Generator: Adobe Illustrator 19.0.0, SVG Export Plug-In . SVG Version: 6.00 Build 0)  -->
<svg version="1.1" id="Layer_1" xmlns="http://www.w3.org/2000/svg" xmlns:xlink="http://www.w3.org/1999/xlink" x="0px" y="0px"
	 viewBox="0 0 512 512" style="enable-background:new 0 0 512 512;" xml:space="preserve">
<path style="fill:#463836;" d="M407.273,464.737L256,487.492l-151.273-22.756c0-28.672,0-388.312,0-417.473L256,24.508
	l151.273,22.756L407.273,464.737L407.273,464.737z"/>
<g>
	<path style="fill:#6FC5D6;" d="M407.273,47.263H104.727c0-0.262,0-0.501,0-0.717c0-25.6,20.946-46.546,46.547-46.546h209.453
		c25.6,0,46.546,20.946,46.546,46.546V47.263z"/>
	<path style="fill:#6FC5D6;" d="M407.273,465.454c0,25.6-20.946,46.546-46.546,46.546H151.273c-25.6,0-46.547-20.946-46.547-46.546
		c0-0.205,0-0.444,0-0.717h302.546V465.454z"/>
</g>
<path style="fill:#FEE191;" d="M344.882,335.448l-82.847-82.852c-0.02-0.017-82.848-82.846-82.848-82.846
	c-3.333-3.331-8.736-3.331-12.067,0c-3.333,3.334-3.333,8.736,0,12.068l80.35,80.35v162.161c0,3.451,2.079,6.564,5.268,7.884
	c1.056,0.438,2.164,0.65,3.264,0.65c2.221,0,4.403-0.867,6.036-2.499l82.848-82.847C348.215,344.182,348.215,338.78,344.882,335.448
	z M264.533,403.728V279.231l62.247,62.25L264.533,403.728z"/>
<path style="fill:#FFD24D;" d="M173.152,350.015c-2.183,0-4.368-0.833-6.034-2.499c-3.333-3.334-3.333-8.736,0-12.068l80.35-80.35
	V92.938c0-3.451,2.079-6.564,5.268-7.884c3.188-1.321,6.859-0.592,9.299,1.849l82.847,82.846c1.601,1.601,2.5,3.771,2.5,6.035
	c0,2.264-0.899,4.433-2.5,6.035L179.185,347.516C177.518,349.181,175.335,350.015,173.152,350.015z M264.534,113.538V238.03
	l62.247-62.247L264.534,113.538z"/>
<g>
</g>
<g>
</g>
<g>
</g>
<g>
</g>
<g>
</g>
<g>
</g>
<g>
</g>
<g>
</g>
<g>
</g>
<g>
</g>
<g>
</g>
<g>
</g>
<g>
</g>
<g>
</g>
<g>
</g>
</svg>
