<?xml version="1.0" encoding="iso-8859-1"?>
<!-- Generator: Adobe Illustrator 19.0.0, SVG Export Plug-In . SVG Version: 6.00 Build 0)  -->
<svg version="1.1" id="Layer_1" xmlns="http://www.w3.org/2000/svg" xmlns:xlink="http://www.w3.org/1999/xlink" x="0px" y="0px"
	 viewBox="0 0 512 512" style="enable-background:new 0 0 512 512;" xml:space="preserve">
<polygon style="fill:#C2B8B9;" points="475.865,168.105 470.138,129.651 431.684,123.923 407.139,148.469 412.866,186.923 
	451.32,192.649 "/>
<path style="fill:#463836;" d="M180.167,411.439c-2.259,2.259-2.259,5.923,0,8.182c2.26,2.26,5.923,2.259,8.182,0l36.047-21.224
	l4.861-27.866l-27.866,4.861L180.167,411.439z"/>
<polygon style="fill:#F99D88;" points="231.712,323.896 201.391,375.392 224.396,398.397 275.892,368.076 270.166,329.622 "/>
<path style="fill:#F14742;" d="M502.864,141.104c12.18-12.18,12.182-32,0-44.181c-12.182-12.182-32.001-12.18-44.181,0l-27,27
	l44.181,44.181L502.864,141.104z"/>
<rect x="217.469" y="227.043" transform="matrix(-0.7071 0.7071 -0.7071 -0.7071 765.6285 199.433)" style="fill:#FFD24D;" width="248.083" height="62.481"/>
<g>
	<circle style="fill:#F14742;" cx="125.726" cy="415.534" r="8.678"/>
	<circle style="fill:#F14742;" cx="67.202" cy="415.534" r="8.678"/>
	<circle style="fill:#F14742;" cx="8.678" cy="415.534" r="8.678"/>
</g>
<g>
</g>
<g>
</g>
<g>
</g>
<g>
</g>
<g>
</g>
<g>
</g>
<g>
</g>
<g>
</g>
<g>
</g>
<g>
</g>
<g>
</g>
<g>
</g>
<g>
</g>
<g>
</g>
<g>
</g>
</svg>
