<?xml version="1.0" encoding="iso-8859-1"?>
<!-- Generator: Adobe Illustrator 19.0.0, SVG Export Plug-In . SVG Version: 6.00 Build 0)  -->
<svg version="1.1" id="Layer_1" xmlns="http://www.w3.org/2000/svg" xmlns:xlink="http://www.w3.org/1999/xlink" x="0px" y="0px"
	 viewBox="0 0 425.178 425.178" style="enable-background:new 0 0 425.178 425.178;" xml:space="preserve">
<g>
	<path style="fill:#29ABE2;" d="M216.673,224.319c0,44.793-29.392,82.726-69.944,95.549c-9.541,3.019-19.703,4.649-30.254,4.649
		c-23.995,0-46.023-8.447-63.275-22.522l-42.72,8.332l16.8-40.321c-7.027-13.707-10.993-29.234-10.993-45.687
		c0-45.55,30.401-83.998,72.017-96.169c7.742-2.273,15.874-3.619,24.269-3.945c1.294-0.052,2.598-0.073,3.903-0.073
		c51.209,0,93.435,38.396,99.452,87.964C216.421,216.103,216.673,220.185,216.673,224.319"/>
	<path style="fill:#FFFFFF;" d="M98.891,246.705c0-5.778,0.943-10.969,2.831-15.569c1.885-4.6,5.777-8.609,11.676-12.031
		c1.769-1.061,3.95-2.269,6.546-3.627c2.593-1.355,5.13-2.977,7.607-4.865c2.477-1.885,4.57-4.097,6.281-6.634
		c1.708-2.535,2.565-5.454,2.565-8.758c0-2.477-0.473-4.658-1.415-6.546c-0.945-1.885-2.184-3.478-3.715-4.776
		c-1.535-1.297-3.334-2.27-5.397-2.92c-2.065-0.647-4.158-0.973-6.28-0.973c-2.596,0-4.955,0.442-7.078,1.326
		c-2.123,0.885-4.041,2.007-5.75,3.362c-1.711,1.357-3.245,2.891-4.6,4.6c-1.357,1.711-2.507,3.334-3.45,4.865l-15.392-10.615
		c1.531-3.655,3.567-6.9,6.104-9.73c2.535-2.831,5.423-5.219,8.668-7.165c3.243-1.946,6.751-3.419,10.527-4.422
		c3.773-1.001,7.666-1.504,11.676-1.504c4.481,0,8.904,0.65,13.27,1.946c4.362,1.299,8.284,3.362,11.765,6.192
		c3.477,2.831,6.308,6.458,8.492,10.88c2.181,4.423,3.273,9.703,3.273,15.834c0,3.776-0.442,7.107-1.326,9.995
		c-0.885,2.892-2.155,5.515-3.804,7.873c-1.653,2.361-3.6,4.484-5.838,6.369c-2.241,1.888-4.777,3.715-7.607,5.484
		c-2.36,1.416-4.719,2.773-7.077,4.069c-2.361,1.3-4.512,2.742-6.458,4.335c-1.946,1.592-3.538,3.422-4.777,5.484
		c-1.238,2.065-1.857,4.573-1.857,7.52L98.891,246.705 M99.246,287.926v-24.414h19.637v24.414H99.246"/>
	<polygon style="fill:#D6B71D;" points="142.697,380.969 153.596,403.981 242.906,340.714 221.736,324.942 	"/>
	<polygon style="fill:#D6B71D;" points="370.487,153.178 314.461,232.21 330.232,253.387 393.5,164.077 	"/>
	<path style="fill:#F9DE58;" d="M153.596,403.981l51.478,21.197c49.622-16.278,93.886-43.872,129.815-79.808
		c35.936-35.929,63.531-80.2,79.808-129.815L393.5,164.077l-63.268,89.31l21.055,6.553c-12.06,21.258-26.893,40.687-44.021,57.808
		c-17.128,17.128-36.55,31.954-57.808,44.021l-6.553-21.056L153.596,403.981z"/>
	<path style="fill:#3098C4;" d="M116.475,124.131c-1.305,0-2.609,0.021-3.903,0.073c1.609,13.204,5.785,25.613,12.015,36.719
		c3.021,0.283,6.014,0.865,8.981,1.746c4.362,1.299,8.284,3.362,11.765,6.192c3.477,2.831,6.308,6.458,8.492,10.88
		c2.181,4.423,3.273,9.703,3.273,15.834c0,0.069,0,0.137,0,0.205c7.574,4.974,15.866,8.95,24.683,11.738
		c9.541,3.019,19.704,4.65,30.254,4.65c1.305,0,2.599-0.021,3.893-0.074C209.91,162.527,167.684,124.131,116.475,124.131"/>
	<path style="fill:#DBDBDB;" d="M124.586,160.923c7.891,14.065,19.075,26.035,32.51,34.859c0-0.068,0-0.137,0-0.205
		c0-6.132-1.092-11.411-3.273-15.834c-2.184-4.423-5.014-8.05-8.492-10.88c-3.48-2.831-7.403-4.893-11.765-6.192
		C130.602,161.788,127.607,161.206,124.586,160.923"/>
	<path style="fill:#FC7A51;" d="M127.45,100.188c0,44.792,29.392,82.726,69.944,95.549c9.541,3.019,19.703,4.65,30.254,4.65
		c23.995,0,46.023-8.447,63.275-22.522l42.72,8.331l-16.8-40.322c7.027-13.707,10.993-29.234,10.993-45.686
		c0-45.55-30.401-83.999-72.017-96.17C246.88,1.399,237.432,0,227.649,0C172.307,0,127.45,44.855,127.45,100.188z"/>
	<path style="fill:#FFFFFF;" d="M191.766,91.913c-12.864,0-23.33-10.466-23.33-23.33c0-12.865,10.466-23.33,23.33-23.33
		s23.331,10.466,23.331,23.33C215.098,81.447,204.63,91.913,191.766,91.913z M191.766,55.182c-7.389,0-13.4,6.012-13.4,13.401
		s6.011,13.401,13.4,13.401s13.401-6.011,13.401-13.401S199.156,55.182,191.766,55.182z"/>
	<path style="fill:#FFFFFF;" d="M263.52,155.125c-12.864,0-23.331-10.466-23.331-23.33c0-12.865,10.466-23.33,23.331-23.33
		c12.865,0,23.331,10.466,23.331,23.33S276.385,155.125,263.52,155.125z M263.52,118.394c-7.389,0-13.401,6.012-13.401,13.401
		c0,7.389,6.012,13.401,13.401,13.401s13.401-6.011,13.401-13.401C276.922,124.405,270.91,118.394,263.52,118.394z"/>
	
		<rect x="222.693" y="40.962" transform="matrix(-0.9809 -0.1947 0.1947 -0.9809 431.4542 242.775)" style="fill:#FFFFFF;" width="9.929" height="118.445"/>
</g>
<g>
</g>
<g>
</g>
<g>
</g>
<g>
</g>
<g>
</g>
<g>
</g>
<g>
</g>
<g>
</g>
<g>
</g>
<g>
</g>
<g>
</g>
<g>
</g>
<g>
</g>
<g>
</g>
<g>
</g>
</svg>
