<?xml version="1.0" encoding="iso-8859-1"?>
<!-- Generator: Adobe Illustrator 19.0.0, SVG Export Plug-In . SVG Version: 6.00 Build 0)  -->
<svg version="1.1" id="Layer_1" xmlns="http://www.w3.org/2000/svg" xmlns:xlink="http://www.w3.org/1999/xlink" x="0px" y="0px"
	 viewBox="0 0 454.189 454.189" style="enable-background:new 0 0 454.189 454.189;" xml:space="preserve">
<g>
	<g>
		<path style="fill:#E6E6E6;" d="M308.568,16.225v169.831c0,7.511-5.104,13.836-12.042,15.676c-1.335,0.357-2.737,0.546-4.18,0.546
			H18.68c-8.961,0-16.223-7.262-16.223-16.223V16.225c0-8.961,7.262-16.223,16.223-16.223h273.666c1.443,0,2.845,0.189,4.18,0.546
			C303.464,2.389,308.568,8.713,308.568,16.225z"/>
		<path style="fill:#B3B3B3;" d="M308.566,16.223v16.142H2.456V16.223C2.456,7.262,9.718,0,18.678,0h273.666
			C301.305,0,308.566,7.262,308.566,16.223z"/>
		<circle style="fill:#FC7A51;" cx="24.706" cy="16.182" r="10.114"/>
		<circle style="fill:#F9DE58;" cx="51.676" cy="16.182" r="10.114"/>
	</g>
	<g>
		<rect x="32.676" y="61.817" style="fill:#808080;" width="235" height="11"/>
		<rect x="32.676" y="85.908" style="fill:#808080;" width="235" height="11"/>
		<rect x="32.676" y="109.999" style="fill:#808080;" width="235" height="11"/>
		<rect x="32.676" y="134.091" style="fill:#808080;" width="235" height="11"/>
		<rect x="32.676" y="158.182" style="fill:#808080;" width="235" height="11"/>
	</g>
	<path style="fill:#FCD18B;" d="M307.569,222.203l-40.93,37.75c-18.44,17.01-46.85,17.01-65.29,0l-40.92-37.75
		c-11.06-10.2-16.84-24.89-15.72-39.89l2.38-49c0.25-3.29,0.67-6.53,1.28-9.7c2.84-15.07,9.53-28.71,18.98-39.91
		c4.2-4.99,8.95-9.49,14.15-13.41c14.64-11.07,32.85-17.59,52.5-17.59s37.86,6.53,52.5,17.59c2.35,1.77,4.61,3.66,6.77,5.66
		c2.61,2.43,5.08,5.01,7.38,7.74c9.45,11.2,16.14,24.84,18.98,39.92c0.61,3.17,1.03,6.41,1.28,9.7l2.37,49
		C324.409,197.312,318.618,212.003,307.569,222.203z"/>
	<path style="fill:#FFFFFF;" d="M263.829,209.692c0,3.104-0.476,6.099-1.357,8.906c-3.79,12.127-15.107,20.925-28.474,20.925
		c-13.375,0-24.692-8.797-28.474-20.925c-0.881-2.808-1.357-5.802-1.357-8.906H263.829z"/>
	<path style="fill:#F9DE58;" d="M345.49,124.923h-13c0-54.31-44.185-98.495-98.494-98.495c-54.311,0-98.495,44.185-98.495,98.495
		h-13c0-61.479,50.017-111.495,111.495-111.495S345.49,63.445,345.49,124.923z"/>
	<path style="fill:#808080;" d="M319.629,123.613c-2.84-15.08-9.53-28.72-18.98-39.92c-2.3-2.73-4.77-5.31-7.38-7.74
		c-1.045-0.969-2.118-1.907-3.209-2.824c-0.219-0.184-0.446-0.357-0.667-0.538c-0.894-0.736-1.798-1.459-2.72-2.159
		c-0.059-0.045-0.115-0.094-0.174-0.138c-0.002,0.002-0.004,0.004-0.007,0.005c-14.643-11.057-32.847-17.595-52.493-17.595
		c-19.651,0-37.86,6.529-52.498,17.592c0,0-0.001-0.001-0.002-0.002c-0.022,0.017-0.042,0.035-0.064,0.051
		c-1.208,0.915-2.391,1.86-3.549,2.835c-0.112,0.094-0.225,0.188-0.337,0.282c-1.108,0.943-2.191,1.915-3.251,2.911
		c-0.127,0.12-0.256,0.237-0.383,0.357c-1.066,1.015-2.104,2.058-3.117,3.125c-0.093,0.098-0.188,0.193-0.28,0.291
		c-1.088,1.156-2.145,2.342-3.169,3.557c-9.45,11.2-16.14,24.84-18.98,39.91c12.765-3.477,24.129-10.323,33.119-19.504
		c13.34,13.625,31.938,22.084,52.511,22.084c20.574,0,39.164-8.459,52.5-22.079C295.493,113.295,306.862,120.141,319.629,123.613z"
		/>
	<g>
		<circle style="fill:#808080;" cx="194.995" cy="163.953" r="10"/>
		<circle style="fill:#808080;" cx="272.995" cy="163.953" r="10"/>
	</g>
	<g>
		<polygon style="fill:#E6E6E6;" points="180.095,250.953 231.095,301.953 207.095,340.953 167.095,260.953 		"/>
		<polygon style="fill:#E6E6E6;" points="287.895,250.953 236.895,301.953 260.895,340.953 300.895,260.953 		"/>
	</g>
	<polygon style="fill:#2BE0C6;" points="248.137,334.953 233.995,310.953 219.853,334.953 233.995,349.095 	"/>
	<polygon style="fill:#2BE0C6;" points="272.881,415.304 233.995,349.313 195.11,415.304 233.995,454.189 	"/>
	<path style="fill:#FC7A51;" d="M184.959,224.953c0,1.8-0.73,3.42-1.9,4.6c-1.18,1.17-2.8,1.9-4.6,1.9h-30.73
		c-14.42,0-26.11-11.69-26.11-26.11v-17.39h13v17.39c0,7.24,5.87,13.11,13.11,13.11h30.73
		C182.049,218.453,184.959,221.362,184.959,224.953z"/>
	<g>
		<path style="fill:#29ABE2;" d="M137.457,113.853c-22.556,0-40.841,18.285-40.841,40.841s18.285,40.841,40.841,40.841"/>
		<path style="fill:#29ABE2;" d="M330.533,113.853c22.556,0,40.841,18.285,40.841,40.841s-18.285,40.841-40.841,40.841"/>
	</g>
	<path style="fill:#808080;" d="M184.959,224.953c0,1.8-0.73,3.42-1.9,4.6c-1.18,1.17-2.8,1.9-4.6,1.9h-19v-13h19
		C182.049,218.453,184.959,221.362,184.959,224.953z"/>
	<g>
		<path style="fill:#808080;" d="M439.846,424.854H319.62c-6.565,0-11.887-5.322-11.887-11.887V257.741
			c0-6.565,5.322-11.887,11.887-11.887h120.227c6.565,0,11.887,5.322,11.887,11.887v155.227
			C451.733,419.532,446.411,424.854,439.846,424.854z"/>
		<rect x="322.733" y="260.854" style="fill:#E6E6E6;" width="114" height="149"/>
		<path style="fill:#29ABE2;" d="M393.161,237.854h-26.855c-4.182,0-7.572,3.39-7.572,7.572v25.428h42v-25.428
			C400.733,241.244,397.342,237.854,393.161,237.854z"/>
		<g>
			<rect x="336.733" y="285.854" style="fill:#29ABE2;" width="86" height="11"/>
			<rect x="336.733" y="309.946" style="fill:#29ABE2;" width="86" height="11"/>
			<rect x="336.733" y="334.037" style="fill:#29ABE2;" width="86" height="11"/>
			<rect x="336.733" y="358.128" style="fill:#29ABE2;" width="86" height="11"/>
			<rect x="336.733" y="382.22" style="fill:#29ABE2;" width="43" height="11"/>
		</g>
	</g>
	<path style="fill:#FC7A51;" d="M58.285,239.366c-30.369,0-54.987,24.619-54.987,54.987c0,17.057,7.768,32.3,19.958,42.385
		l-11.133,31.173l28.672-21.413l-0.013-0.02c5.5,1.846,11.382,2.862,17.504,2.862c30.368,0,54.987-24.619,54.987-54.987
		S88.654,239.366,58.285,239.366z"/>
	<g>
		<path style="fill:#FFFFFF;" d="M49.943,303.296c0-3.263,0.533-6.194,1.599-8.792c1.065-2.598,3.263-4.861,6.594-6.794
			c0.999-0.599,2.231-1.282,3.697-2.048c1.464-0.765,2.897-1.681,4.296-2.747c1.399-1.065,2.58-2.314,3.547-3.747
			c0.965-1.431,1.449-3.08,1.449-4.945c0-1.399-0.267-2.63-0.799-3.697c-0.534-1.065-1.233-1.964-2.098-2.697
			c-0.867-0.732-1.883-1.282-3.047-1.649c-1.166-0.365-2.348-0.549-3.546-0.549c-1.466,0-2.798,0.25-3.997,0.749
			s-2.282,1.133-3.247,1.898c-0.967,0.767-1.833,1.633-2.598,2.598c-0.766,0.966-1.416,1.883-1.948,2.748l-8.692-5.995
			c0.865-2.064,2.014-3.896,3.447-5.495c1.431-1.599,3.063-2.947,4.895-4.046c1.831-1.099,3.812-1.931,5.945-2.497
			c2.131-0.565,4.329-0.849,6.594-0.849c2.531,0,5.029,0.367,7.494,1.099c2.463,0.734,4.678,1.898,6.644,3.497
			c1.964,1.599,3.562,3.647,4.795,6.144c1.232,2.498,1.848,5.479,1.848,8.942c0,2.132-0.249,4.013-0.749,5.645
			c-0.499,1.633-1.217,3.114-2.148,4.446c-0.933,1.333-2.033,2.532-3.297,3.597c-1.266,1.066-2.698,2.098-4.296,3.097
			c-1.333,0.799-2.665,1.566-3.997,2.298c-1.333,0.734-2.548,1.549-3.647,2.448c-1.099,0.899-1.998,1.932-2.698,3.097
			c-0.699,1.166-1.049,2.582-1.049,4.246H49.943V303.296z M50.143,326.574v-13.787h11.09v13.787H50.143z"/>
	</g>
	<g>
		<path style="fill:#29ABE2;" d="M186.362,321.124l11.133-31.173l-28.672,21.413l0.013,0.02c-5.5-1.846-11.382-2.862-17.504-2.862
			c-30.369,0-54.987,24.619-54.987,54.987s24.618,54.987,54.987,54.987c30.368,0,54.987-24.619,54.987-54.987
			C206.32,346.452,198.552,331.21,186.362,321.124z"/>
		<g>
			<path style="fill:#FFFFFF;" d="M145.49,371.66v-39.244h11.687v39.244H145.49z M145.49,394.945v-13.168h11.687v13.168H145.49z"/>
		</g>
	</g>
</g>
<g>
</g>
<g>
</g>
<g>
</g>
<g>
</g>
<g>
</g>
<g>
</g>
<g>
</g>
<g>
</g>
<g>
</g>
<g>
</g>
<g>
</g>
<g>
</g>
<g>
</g>
<g>
</g>
<g>
</g>
</svg>
