<?xml version="1.0" encoding="iso-8859-1"?>
<!-- Generator: Adobe Illustrator 19.0.0, SVG Export Plug-In . SVG Version: 6.00 Build 0)  -->
<svg version="1.1" id="Layer_1" xmlns="http://www.w3.org/2000/svg" xmlns:xlink="http://www.w3.org/1999/xlink" x="0px" y="0px"
	 viewBox="0 0 413.98 413.98" style="enable-background:new 0 0 413.98 413.98;" xml:space="preserve">
<g>
	<path style="fill:#808080;" d="M387.73,65.075v198.67H26.25V65.075c0-12.599,10.21-22.82,22.82-22.82h315.84
		C377.51,42.255,387.73,52.476,387.73,65.075"/>
	<polyline style="fill:#FFFFFF;" points="51.246,238.744 51.246,67.253 362.728,67.253 362.728,238.744 51.246,238.744 	"/>
	<path style="fill:#A9A9A9;" d="M248.285,238.745h-18.914l7.009,23h26.045C256.304,254.765,251.592,246.974,248.285,238.745
		 M364.91,42.255H169.49l7.618,24.999h185.619v70.718c6.095,3.409,11.837,7.667,17.055,12.776c0.172,0.168,0.346,0.341,0.517,0.511
		c0.032,0.031,0.062,0.062,0.094,0.094c2.672,2.672,5.118,5.486,7.337,8.418V65.075C387.73,52.476,377.51,42.255,364.91,42.255"/>
	<path style="fill:#FFFFFF;" d="M362.728,67.253H177.109l36.144,118.602h32.416c3.669-12.642,10.476-24.555,20.424-34.504
		c9-8.99,19.599-15.42,30.899-19.28l0,0c0.152-0.052,0.302-0.103,0.454-0.153c1.044-0.35,2.096-0.679,3.151-0.985v-22.012H311.7
		v19.62c3.823-0.547,7.677-0.821,11.532-0.822c0.004,0,0.009,0,0.013,0l0,0l0,0c0.007,0,0.017,0,0.024,0
		c13.624,0.003,27.243,3.42,39.457,10.251V67.253"/>
	<path style="fill:#FC7A51;" d="M413.98,261.745c0,15.74-12.76,28.5-28.5,28.5H28.5c-7.87,0-14.99-3.19-20.15-8.35
		c-5.16-5.15-8.35-12.28-8.35-20.15H413.98"/>
	<path style="fill:#FDA589;" d="M413.98,261.745h-26.247v2h-5.475c-0.606,0.646-1.224,1.285-1.855,1.916
		c-10.42,10.42-23.01,17.4-36.32,20.92c-6.818,1.806-13.828,2.709-20.838,2.709c-20.699,0-41.398-7.875-57.152-23.63
		c-1.274-1.273-2.498-2.581-3.669-3.917H208.74l8.69,28.5h168.05C401.22,290.245,413.98,277.485,413.98,261.745"/>
	<polyline style="fill:#29ABE2;" points="311.693,185.855 311.693,238.745 102.283,238.745 102.283,185.855 311.693,185.855 	"/>
	<path style="fill:#2C84AA;" d="M245.669,185.857H113.383v16.983h-11.1H242.65C243.05,197.109,244.056,191.414,245.669,185.857"/>
	<polyline style="fill:#29ABE2;" points="113.383,108.921 113.383,202.841 102.281,202.841 102.281,108.921 113.383,108.921 	"/>
	<polyline style="fill:#29ABE2;" points="311.701,108.921 311.701,202.841 300.598,202.841 300.598,108.921 311.701,108.921 	"/>
	<path style="fill:#3D7790;" d="M113.383,108.921H102.28v28.308c3.943-1.238,7.711-3.196,11.103-5.874V108.921"/>
	<path style="fill:#3D7790;" d="M311.701,108.921h-11.103v22.012c3.652-1.06,7.36-1.856,11.103-2.392V108.921"/>
	<path style="fill:#E6E6E6;" d="M343.406,103.252l-6.404-34.976l-4.609-25.16c-1.467-8.034-8.472-13.868-16.641-13.868H288.91
		h-40.96h-40.96h-40.959h-40.959H98.223c-8.162,0-15.167,5.834-16.641,13.868l-4.609,25.16l-6.399,34.971
		c-1.331,7.276,2.821,14.48,9.817,16.883c11.544,3.966,24.728,1.709,34.406-6.77h0.007l0.007,0.007
		c13.189,11.547,32.891,11.547,46.08,0l0.007-0.007c13.189,11.554,32.898,11.554,46.087,0l0.007,0.007
		c13.189,11.547,32.891,11.547,46.08,0l0.007-0.007l0.007,0.007c13.182,11.554,32.891,11.554,46.08,0l0.007-0.007l0.007,0.007
		c9.679,8.479,22.865,10.735,34.411,6.77C340.586,117.733,344.739,110.529,343.406,103.252z"/>
	<path style="fill:#FC7A51;" d="M299.178,113.367l-0.007-0.007l-0.007,0.007c-13.189,11.554-32.898,11.554-46.08,0l-2.752-45.091
		l-2.382-39.028h40.96l4.764,39.028L299.178,113.367z"/>
	<path style="fill:#FC7A51;" d="M206.991,29.248v84.119l-0.007-0.007c-13.189,11.554-32.898,11.554-46.087,0h-0.007l2.759-45.084
		l2.382-39.028C166.031,29.248,206.991,29.248,206.991,29.248z"/>
	<path style="fill:#FC7A51;" d="M125.072,29.248l-4.771,39.028l-5.504,45.084c-9.679,8.479-22.862,10.736-34.406,6.77
		c-6.996-2.403-11.148-9.607-9.817-16.883l6.399-34.97l4.609-25.16c1.474-8.034,8.479-13.868,16.641-13.868L125.072,29.248
		L125.072,29.248z"/>
	<path style="fill:#FC7A51;" d="M209.427,152.915c0,22.001,17.836,39.837,39.837,39.837s39.837-17.836,39.837-39.837"/>
	<path style="fill:#86D359;" d="M249.264,196.893c-24.25,0-43.978-19.729-43.978-43.978h8.282c0,19.683,16.013,35.696,35.696,35.696
		s35.696-16.013,35.696-35.696h8.282C293.242,177.164,273.513,196.893,249.264,196.893z"/>
	<circle style="fill:#F9DE58;" cx="134.841" cy="184.274" r="12.618"/>
	<circle style="fill:#F9DE58;" cx="160.077" cy="184.274" r="12.618"/>
	<circle style="fill:#F9DE58;" cx="160.077" cy="140.639" r="12.618"/>
	<circle style="fill:#F9DE58;" cx="185.314" cy="184.274" r="12.618"/>
	<circle style="fill:#F9DE58;" cx="147.459" cy="162.467" r="12.618"/>
	<circle style="fill:#F9DE58;" cx="172.696" cy="162.467" r="12.618"/>
	<polyline style="fill:#808080;" points="387.733,238.745 387.733,263.745 311.693,263.745 311.693,238.745 387.733,238.745 	"/>
	
		<rect x="234.972" y="246.827" transform="matrix(0.7071 0.7071 -0.7071 0.7071 275.3767 -87.1961)" style="fill:#808080;" width="15.943" height="83.967"/>
	<path style="fill:#29ABE2;" d="M150.993,377.825l2.935,2.935c5.296,5.296,13.882,5.296,19.178,0l68.604-68.605l-22.114-22.113
		l-68.604,68.604C145.698,363.943,145.698,372.529,150.993,377.825z"/>
	<path style="fill:#FFFFFF;" d="M392.094,208.512c0,38.02-30.82,68.84-68.85,68.84c-17.07,0-32.69-6.219-44.72-16.51
		c-3.1-2.64-5.95-5.55-8.521-8.69c-0.67-0.82-1.32-1.649-1.95-2.49l-0.04-0.041c-1.62-2.18-3.13-4.46-4.49-6.829
		c-5.81-10.1-9.13-21.8-9.13-34.281c0-14.11,4.25-27.24,11.54-38.16c12.34-18.5,33.4-30.69,57.31-30.69
		C361.273,139.662,392.094,170.482,392.094,208.512"/>
	
		<rect x="202.843" y="289.441" transform="matrix(0.7071 0.7071 -0.7071 0.7071 278.4683 -79.7371)" style="fill:#29ABE2;" width="65.284" height="13.663"/>
	<path style="fill:#FC7A51;" d="M357.843,170.352c0,45.29-36.72,82.01-82.01,82.01c-1.82,0-3.63-0.06-5.42-0.18
		c-0.14-0.01-0.27-0.02-0.41-0.03c-0.67-0.82-1.32-1.649-1.95-2.49l-0.04-0.041l-6.78-7.26c0.76,0.16,1.521,0.3,2.29,0.43
		c-5.81-10.1-9.13-21.8-9.13-34.281c0-14.11,4.25-27.24,11.54-38.16h91.91"/>
	<path style="fill:#86D359;" d="M366.363,170.352c0,49.02-39.16,89.06-87.839,90.49l-8.11-8.66l-2.36-2.52l-0.04-0.041l-6.78-7.26
		c0.76,0.16,1.521,0.3,2.29,0.43c4,0.69,8.12,1.04,12.31,1.04c40.52,0,73.49-32.96,73.49-73.48h17.039"/>
	<path style="fill:#F9DE58;" d="M380.393,151.352c-22.52-22.52-55.13-28.939-83.4-19.28c-11.3,3.86-21.9,10.29-30.899,19.28
		c-31.52,31.52-31.52,82.8,0,114.31c21.09,21.09,51.04,28.06,77.99,20.92c13.31-3.52,25.9-10.5,36.32-20.92
		C411.913,234.152,411.913,182.872,380.393,151.352 M366.373,251.632c-8.04,8.04-17.78,13.359-28.08,15.95
		c-20.16,5.11-42.43-0.21-58.17-15.95c-23.78-23.78-23.78-62.47,0-86.25c6.61-6.61,14.38-11.38,22.66-14.32
		c21.49-7.61,46.42-2.84,63.58,14.32C390.143,189.162,390.143,227.852,366.373,251.632"/>
	<circle style="fill:#808080;" cx="303.687" cy="193.402" r="9"/>
	<circle style="fill:#808080;" cx="279.394" cy="218.402" r="9"/>
	<path style="fill:#C5C5C5;" d="M362.728,137.971L362.728,137.971c6.095,3.409,11.837,7.667,17.055,12.776
		C374.565,145.638,368.823,141.38,362.728,137.971"/>
	<path style="fill:#FFFFFF;" d="M297.447,131.918c-0.152,0.051-0.302,0.102-0.454,0.153l0,0
		C297.145,132.02,297.295,131.969,297.447,131.918 M323.271,127.72c13.622,0.004,27.245,3.421,39.457,10.251l0,0
		C350.514,131.14,336.894,127.723,323.271,127.72"/>
	<path style="fill:#FFFFFF;" d="M323.245,147.554c-6.927,0-13.859,1.17-20.461,3.508l5.879,19.29h40.661l0,0h17.04
		c0,29.348-14.037,55.478-35.75,72.03l7.68,25.2c10.3-2.59,20.04-7.91,28.08-15.95c23.77-23.78,23.77-62.47-0.01-86.25
		C354.476,153.494,338.863,147.553,323.245,147.554"/>
	<path style="fill:#FDA589;" d="M349.323,170.352h-40.661l16.567,54.361C340.022,211.263,349.323,191.873,349.323,170.352"/>
	<path style="fill:#ADE18E;" d="M366.363,170.352h-17.04l0,0c0,21.521-9.302,40.91-24.094,54.361l5.385,17.669
		C352.326,225.83,366.363,199.7,366.363,170.352"/>
	<path style="fill:#FBE98E;" d="M323.247,127.72c-0.004,0-0.009,0-0.013,0c-8.719,0.001-17.439,1.401-25.787,4.198
		c-0.152,0.051-0.302,0.102-0.454,0.153l5.791,18.99c6.603-2.338,13.534-3.508,20.461-3.508
		c15.618-0.001,31.231,5.941,43.118,17.828c23.78,23.78,23.78,62.47,0.01,86.25c-8.04,8.04-17.78,13.359-28.08,15.95l5.79,19
		c13.31-3.52,25.9-10.5,36.32-20.92c15.755-15.755,23.633-36.452,23.631-57.151c-0.001-17.189-5.436-34.379-16.304-48.74
		c-2.219-2.932-4.664-5.746-7.337-8.418c-0.032-0.031-0.062-0.062-0.094-0.094c-0.171-0.17-0.345-0.342-0.517-0.511
		c-5.218-5.11-10.959-9.367-17.055-12.776c-12.213-6.831-25.836-10.247-39.457-10.251C323.264,127.72,323.254,127.72,323.247,127.72
		"/>
</g>
<g>
</g>
<g>
</g>
<g>
</g>
<g>
</g>
<g>
</g>
<g>
</g>
<g>
</g>
<g>
</g>
<g>
</g>
<g>
</g>
<g>
</g>
<g>
</g>
<g>
</g>
<g>
</g>
<g>
</g>
</svg>
