<?xml version="1.0" encoding="iso-8859-1"?>
<!-- Generator: Adobe Illustrator 19.0.0, SVG Export Plug-In . SVG Version: 6.00 Build 0)  -->
<svg version="1.1" id="Layer_1" xmlns="http://www.w3.org/2000/svg" xmlns:xlink="http://www.w3.org/1999/xlink" x="0px" y="0px"
	 viewBox="0 0 454 454" style="enable-background:new 0 0 454 454;" xml:space="preserve">
<g>
	<path style="fill:#E6E6E6;" d="M454,127.378v251.88c0,11.14-7.57,20.52-17.86,23.25c-1.98,0.53-4.06,0.81-6.2,0.81H24.06
		c-13.29,0-24.06-10.77-24.06-24.06v-251.88c0-13.29,10.77-24.06,24.06-24.06h405.88c2.14,0,4.22,0.28,6.2,0.81
		C446.43,106.858,454,116.238,454,127.378"/>
	<polyline style="fill:#2BE0C6;" points="243.5,227.318 417.5,227.318 417.5,186.318 243.5,186.318 243.5,227.318 	"/>
	<polyline style="fill:#2BE0C6;" points="243.5,366.318 417.5,366.318 417.5,325.318 243.5,325.318 243.5,366.318 	"/>
	<polyline style="fill:#2BE0C6;" points="243.5,311.818 417.5,311.818 417.5,240.818 243.5,240.818 243.5,311.818 	"/>
	<polyline style="fill:#2BE0C6;" points="36.5,227.318 229.5,227.318 229.5,186.318 36.5,186.318 36.5,227.318 	"/>
	<path style="fill:#C7C7C7;" d="M436.14,163.318h-6.2v240c2.14,0,4.22-0.28,6.2-0.81V163.318"/>
	<polyline style="fill:#FC7A51;" points="386,429.549 411,412.719 429.94,429.549 429.94,123.318 386,123.318 386,429.549 	"/>
	<path style="fill:#999999;" d="M454,127.378v23.94H0v-23.94c0-13.29,10.77-24.06,24.06-24.06h405.88
		C443.23,103.318,454,114.088,454,127.378"/>
	<circle style="fill:#FC7A51;" cx="33" cy="127.318" r="15"/>
	<circle style="fill:#F9DE58;" cx="73" cy="127.318" r="15"/>
	<path style="fill:#C7C7C7;" d="M386,151.318H262.655c-12.604,15.384-30.204,26.514-50.325,30.91c-6.22,1.37-12.69,2.09-19.33,2.09
		c-28.077,0-53.151-12.856-69.655-33H0v12h121.765c7.168,9.273,16.106,17.109,26.309,23H229.5v4.29
		c13.734-6.102,25.655-15.543,34.736-27.29H386V151.318 M454,151.318h-24.06v12H454V151.318"/>
	<path style="fill:#32C3AE;" d="M229.5,186.318h-81.427c13.219,7.633,28.56,12,44.927,12c12.996,0,25.346-2.754,36.5-7.71V186.318"
		/>
	<polyline style="fill:#D97150;" points="429.94,151.318 386,151.318 386,163.318 429.94,163.318 429.94,151.318 	"/>
	<path style="fill:#8A8A8A;" d="M103.444,103.318h-0.304c-0.09,1.65-0.14,3.32-0.14,5c0,15.58,3.95,30.23,10.92,43H0h123.345
		C112.414,137.976,105.243,121.44,103.444,103.318 M282.86,103.318h-0.304c-1.798,18.12-8.971,34.659-19.901,48H386h43.94H454
		H272.08c6.97-12.77,10.92-27.42,10.92-43C283,106.638,282.95,104.968,282.86,103.318"/>
	<path style="fill:#F9DE58;" d="M283,94.318c0,43.07-30.25,79.08-70.67,87.91c-6.22,1.37-12.69,2.09-19.33,2.09
		c-49.71,0-90-40.29-90-90c0-38.07,23.63-70.61,57.01-83.77c10.22-4.02,21.34-6.23,32.99-6.23C242.71,4.318,283,44.608,283,94.318"
		/>
	<path style="fill:#FFFFFF;" d="M257.702,94.318c0-35.734-28.968-64.701-64.701-64.701c-35.734,0-64.701,28.968-64.701,64.701
		s28.968,64.701,64.701,64.701S257.702,130.052,257.702,94.318"/>
	<polyline style="fill:#FC7A51;" points="199.5,146.318 186.5,146.318 186.5,87.818 232,87.818 232,100.818 199.5,100.818 
		199.5,146.318 	"/>
	<polyline style="fill:#29ABE2;" points="199.5,146.318 186.5,146.318 186.5,87.818 199.5,87.818 199.5,146.318 	"/>
	<path style="fill:#FC7A51;" d="M208.88,353.188c0,8.5,7.86,17.91,5.76,25.75c-2.17,8.12-13.74,12.34-17.85,19.44
		c-4.17,7.2-2.08,19.32-7.93,25.17c-5.84,5.85-17.96,3.76-25.17,7.92c-6.29,3.64-10.32,13.14-16.79,16.77
		c-0.83,0.47-1.71,0.84-2.64,1.09c-7.84,2.09-17.26-5.76-25.76-5.76s-17.92,7.85-25.76,5.76c-8.11-2.17-12.33-13.75-19.44-17.85
		c-7.2-4.17-19.32-2.08-25.17-7.93c-5.84-5.85-3.75-17.97-7.92-25.17c-4.11-7.1-15.69-11.32-17.85-19.43
		c-2.1-7.84,5.76-17.26,5.76-25.76c0-8.51-7.86-17.92-5.76-25.76c2.16-8.12,13.74-12.34,17.85-19.44c4.17-7.2,2.08-19.32,7.92-25.17
		c5.85-5.85,17.97-3.76,25.17-7.92c5.98-3.46,9.92-12.2,15.84-16.19c1.12-0.75,2.31-1.33,3.6-1.67c7.84-2.09,17.26,5.76,25.76,5.76
		s17.92-7.85,25.76-5.76c8.11,2.17,12.33,13.75,19.43,17.86c7.21,4.16,19.33,2.07,25.17,7.92c5.85,5.85,3.76,17.97,7.93,25.17
		c4.11,7.1,15.68,11.32,17.85,19.44C216.74,335.268,208.88,344.678,208.88,353.188"/>
	<g>
		<path style="fill:#FFFFFF;" d="M75.947,344.609c-0.262-0.261-0.739-0.618-1.432-1.067c-0.693-0.449-1.535-0.889-2.526-1.32
			c-0.993-0.43-2.069-0.795-3.229-1.095c-1.16-0.299-2.34-0.449-3.537-0.449c-2.134,0-3.726,0.393-4.773,1.179
			c-1.049,0.786-1.572,1.891-1.572,3.313c0,0.824,0.196,1.507,0.59,2.05c0.393,0.543,0.963,1.021,1.712,1.432
			c0.749,0.413,1.693,0.786,2.836,1.123c1.142,0.337,2.461,0.693,3.959,1.067c1.946,0.525,3.715,1.086,5.307,1.685
			c1.591,0.599,2.938,1.348,4.043,2.246c1.104,0.898,1.956,1.975,2.556,3.229c0.598,1.255,0.898,2.799,0.898,4.633
			c0,2.134-0.403,3.959-1.208,5.475s-1.891,2.743-3.257,3.678c-1.367,0.936-2.939,1.62-4.717,2.05s-3.642,0.646-5.587,0.646
			c-2.996,0-5.953-0.449-8.873-1.348s-5.541-2.171-7.861-3.819l3.426-6.682c0.337,0.337,0.944,0.777,1.824,1.32
			s1.919,1.086,3.117,1.628c1.197,0.543,2.526,1.002,3.986,1.376c1.461,0.375,2.957,0.562,4.493,0.562
			c4.268,0,6.401-1.366,6.401-4.099c0-0.861-0.244-1.591-0.73-2.19c-0.486-0.598-1.179-1.123-2.077-1.572s-1.985-0.861-3.257-1.235
			c-1.273-0.374-2.695-0.786-4.269-1.235c-1.909-0.524-3.565-1.095-4.969-1.713s-2.575-1.348-3.51-2.19
			c-0.937-0.842-1.639-1.815-2.106-2.92c-0.468-1.104-0.701-2.423-0.701-3.959c0-2.021,0.373-3.818,1.123-5.391
			c0.748-1.573,1.787-2.882,3.116-3.931c1.328-1.048,2.873-1.844,4.633-2.386c1.759-0.542,3.65-0.814,5.672-0.814
			c2.808,0,5.391,0.441,7.749,1.32c2.358,0.88,4.417,1.919,6.177,3.116L75.947,344.609z"/>
		<path style="fill:#FFFFFF;" d="M97.959,334.164h6.851l15.161,39.87h-7.974l-3.706-9.939H94.365l-3.649,9.939h-7.974
			L97.959,334.164z M106.887,358.647l-5.503-15.667l-5.728,15.667H106.887z"/>
		<path style="fill:#FFFFFF;" d="M124.351,374.034v-39.87h7.749v33.075h20.328v6.795L124.351,374.034L124.351,374.034z"/>
		<path style="fill:#FFFFFF;" d="M184.829,367.239v6.795h-27.685v-39.87h27.179v6.795h-19.43v9.602h16.79v6.289h-16.79v10.388
			L184.829,367.239L184.829,367.239z"/>
	</g>
	<path style="fill:#FBE98E;" d="M193,4.318c-11.65,0-22.77,2.21-32.99,6.23l3.4,11.17l4.008,13.153
		c7.846-3.381,16.496-5.254,25.583-5.254c35.733,0,64.701,28.968,64.701,64.701c0,31.661-22.74,58.011-52.78,63.605l7.409,24.305
		c40.42-8.83,70.67-44.84,70.67-87.91C283,44.608,242.71,4.318,193,4.318"/>
	<path style="fill:#FFFFFF;" d="M193,29.617c-9.086,0-17.736,1.874-25.583,5.254L181.6,81.418l4.9,16.074v-9.674h13H232v13h-32.5
		v39.321l5.421,17.784c30.04-5.594,52.78-31.944,52.78-63.605C257.702,58.585,228.734,29.617,193,29.617"/>
	<polyline style="fill:#FDA589;" points="232,87.818 199.5,87.818 199.5,100.818 232,100.818 232,87.818 	"/>
	<polyline style="fill:#6EC6EB;" points="199.5,87.818 186.5,87.818 186.5,97.492 199.5,140.139 199.5,100.818 199.5,87.818 	"/>
	<path style="fill:#FDA589;" d="M141.436,256.684c-7.216,0-15.434,6.114-22.935,6.114c-7.502,0-15.719-6.114-22.935-6.114
		c-0.96,0-1.904,0.108-2.825,0.354c-1.29,0.34-2.48,0.92-3.6,1.67l11.26,36.96l11.645,38.215h72.783v40.599h-60.41l22.482,73.755
		c6.47-3.63,10.5-13.13,16.79-16.77c7.21-4.16,19.33-2.07,25.17-7.92c5.85-5.85,3.76-17.97,7.93-25.17
		c4.11-7.1,15.68-11.32,17.85-19.44c0.246-0.919,0.355-1.859,0.357-2.817c0.009-7.216-6.117-15.429-6.117-22.933l0,0l0,0
		c0-7.513,6.126-15.727,6.117-22.943c-0.001-0.958-0.111-1.898-0.357-2.817c-2.17-8.12-13.74-12.34-17.85-19.44
		c-4.17-7.2-2.08-19.32-7.93-25.17c-5.84-5.85-17.96-3.76-25.17-7.92c-7.1-4.11-11.32-15.69-19.43-17.86
		C143.339,256.793,142.396,256.684,141.436,256.684"/>
	<g>
		<g>
			<rect x="112.045" y="333.884" style="fill:#FDA589;" width="72.783" height="40.599"/>
		</g>
		<g>
			<g>
				<path style="fill:#FFFFFF;" d="M75.947,344.609c-0.262-0.261-0.739-0.618-1.432-1.067c-0.693-0.449-1.535-0.889-2.526-1.32
					c-0.993-0.43-2.069-0.795-3.229-1.095c-1.16-0.299-2.34-0.449-3.537-0.449c-2.134,0-3.726,0.393-4.773,1.179
					c-1.049,0.786-1.572,1.891-1.572,3.313c0,0.824,0.196,1.507,0.59,2.05c0.393,0.543,0.963,1.021,1.712,1.432
					c0.749,0.413,1.693,0.786,2.836,1.123c1.142,0.337,2.461,0.693,3.959,1.067c1.946,0.525,3.715,1.086,5.307,1.685
					c1.591,0.599,2.938,1.348,4.043,2.246c1.104,0.898,1.956,1.975,2.556,3.229c0.598,1.255,0.898,2.799,0.898,4.633
					c0,2.134-0.403,3.959-1.208,5.475s-1.891,2.743-3.257,3.678c-1.367,0.936-2.939,1.62-4.717,2.05s-3.642,0.646-5.587,0.646
					c-2.996,0-5.953-0.449-8.873-1.348s-5.541-2.171-7.861-3.819l3.426-6.682c0.337,0.337,0.944,0.777,1.824,1.32
					s1.919,1.086,3.117,1.628c1.197,0.543,2.526,1.002,3.986,1.376c1.461,0.375,2.957,0.562,4.493,0.562
					c4.268,0,6.401-1.366,6.401-4.099c0-0.861-0.244-1.591-0.73-2.19c-0.486-0.598-1.179-1.123-2.077-1.572
					s-1.985-0.861-3.257-1.235c-1.273-0.374-2.695-0.786-4.269-1.235c-1.909-0.524-3.565-1.095-4.969-1.713s-2.575-1.348-3.51-2.19
					c-0.937-0.842-1.639-1.815-2.106-2.92c-0.468-1.104-0.701-2.423-0.701-3.959c0-2.021,0.373-3.818,1.123-5.391
					c0.748-1.573,1.787-2.882,3.116-3.931c1.328-1.048,2.873-1.844,4.633-2.386c1.759-0.542,3.65-0.814,5.672-0.814
					c2.808,0,5.391,0.441,7.749,1.32c2.358,0.88,4.417,1.919,6.177,3.116L75.947,344.609z"/>
				<path style="fill:#FFFFFF;" d="M97.959,334.164h6.851l15.161,39.87h-7.974l-3.706-9.939H94.365l-3.649,9.939h-7.974
					L97.959,334.164z M106.887,358.647l-5.503-15.667l-5.728,15.667H106.887z"/>
				<path style="fill:#FFFFFF;" d="M124.351,374.034v-39.87h7.749v33.075h20.328v6.795L124.351,374.034L124.351,374.034z"/>
				<path style="fill:#FFFFFF;" d="M184.829,367.239v6.795h-27.685v-39.87h27.179v6.795h-19.43v9.602h16.79v6.289h-16.79v10.388
					L184.829,367.239L184.829,367.239z"/>
			</g>
		</g>
	</g>
</g>
<g>
</g>
<g>
</g>
<g>
</g>
<g>
</g>
<g>
</g>
<g>
</g>
<g>
</g>
<g>
</g>
<g>
</g>
<g>
</g>
<g>
</g>
<g>
</g>
<g>
</g>
<g>
</g>
<g>
</g>
</svg>
