<?xml version="1.0" encoding="iso-8859-1"?>
<!-- Generator: Adobe Illustrator 19.0.0, SVG Export Plug-In . SVG Version: 6.00 Build 0)  -->
<svg version="1.1" id="Layer_1" xmlns="http://www.w3.org/2000/svg" xmlns:xlink="http://www.w3.org/1999/xlink" x="0px" y="0px"
	 viewBox="0 0 458 458" style="enable-background:new 0 0 458 458;" xml:space="preserve">
<g>
	<rect y="174.818" style="fill:#CCCCCC;" width="458" height="7.5"/>
	<polyline style="fill:#808080;" points="78.481,177.068 78.481,252.862 70.48,252.862 70.48,177.068 78.481,177.068 	"/>
	<rect x="49.98" y="169.068" style="fill:#808080;" width="49" height="19"/>
	<rect x="225.49" y="177.069" style="fill:#86D359;" width="8" height="111.988"/>
	<rect x="204.99" y="169.068" style="fill:#86D359;" width="49" height="19"/>
	<rect x="127.485" y="169.068" style="fill:#29ABE2;" width="49" height="19"/>
	<rect x="302.995" y="127.269" style="fill:#2BE0C6;" width="8" height="52.8"/>
	<rect x="282.495" y="169.068" style="fill:#2BE0C6;" width="49" height="19"/>
	<rect x="187.271" y="276.062" style="fill:#86D359;" width="84.438" height="156.876"/>
	<path style="fill:#77BC4A;" d="M247.986,423.96h-37.267c0-8.055-6.452-14.596-14.471-14.74V299.777
		c8.019-0.144,14.471-6.685,14.471-14.74h37.267c0,8.145,6.601,14.746,14.746,14.746v109.43
		C254.587,409.214,247.986,415.815,247.986,423.96z"/>
	<ellipse style="fill:#86D359;" cx="229.49" cy="354.5" rx="26.019" ry="15.412"/>
	<path style="fill:#808080;" d="M1.92,321.412v-73.01c0-4.719,3.82-8.53,8.53-8.53h130.6c4.709,0,8.53,3.81,8.53,8.53v73.01
		c0,4.719-3.82,8.54-8.53,8.54H10.45C5.74,329.952,1.92,326.132,1.92,321.412"/>
	<polyline style="fill:#4D4D4D;" points="1.92,281.062 1.92,259.032 149.58,259.032 149.58,281.062 1.92,281.062 	"/>
	<path style="fill:#FC7A51;" d="M20.715,307.873c0,4.557,1.729,8.724,4.563,11.866c-0.396,0.046-0.791,0.063-1.193,0.063
		c-6.587,0-11.929-5.342-11.929-11.929c0-6.588,5.343-11.929,11.929-11.929c0.402,0,0.797,0.017,1.193,0.064
		C22.444,299.15,20.715,303.317,20.715,307.873"/>
	<path style="fill:#F4D521;" d="M50.396,307.873c0-6.588-5.342-11.929-11.93-11.929c-6.589,0-11.93,5.341-11.93,11.929
		c0,6.589,5.341,11.929,11.93,11.929C45.054,319.802,50.396,314.462,50.396,307.873"/>
	<rect x="123.5" y="297.206" style="fill:#4D4D4D;" width="12.5" height="7.313"/>
	<rect x="107" y="297.206" style="fill:#4D4D4D;" width="12.5" height="7.313"/>
	<rect x="90.5" y="297.206" style="fill:#4D4D4D;" width="12.5" height="7.313"/>
	<polyline style="fill:#4D4D4D;" points="74,304.518 86.5,304.518 86.5,297.206 74,297.206 74,304.518 	"/>
	<g>
		<g>
			<rect x="1.92" y="239.872" style="fill:#A9A9A9;" width="92.08" height="90.08"/>
		</g>
	</g>
	<polyline style="fill:#868686;" points="72.39,259.032 1.92,259.032 1.92,281.062 79.1,281.062 72.39,259.032 	"/>
	<path style="fill:#FDA589;" d="M24.085,295.943c-6.587,0-11.929,5.342-11.929,11.929c0,6.588,5.343,11.929,11.929,11.929
		c0.402,0,0.797-0.017,1.193-0.063c-2.834-3.142-4.563-7.309-4.563-11.866c0-4.556,1.729-8.723,4.563-11.865
		C24.882,295.961,24.487,295.943,24.085,295.943"/>
	<path style="fill:#F8E368;" d="M38.465,295.943c-6.589,0-11.93,5.341-11.93,11.929c0,6.589,5.341,11.929,11.93,11.929
		c6.588,0,11.93-5.341,11.93-11.929C50.396,301.285,45.054,295.943,38.465,295.943"/>
	<polyline style="fill:#868686;" points="84.02,297.206 74,297.206 74,304.518 86.249,304.518 84.02,297.206 	"/>
	<path style="fill:#D6B71D;" d="M330.486,290.902l-1.01-39.686l99.502,30.057h1.834c4.81,0,8.712,3.902,8.712,8.712
		c0,2.403-0.977,4.585-2.554,6.158c-1.573,1.577-3.755,2.554-6.158,2.554h-91.178C335.016,298.697,331.187,295.323,330.486,290.902z
		"/>
	<path style="fill:#F9DE58;" d="M329.476,272.009V215.34c0-0.156,0.005-0.302,0.016-0.447c0.226-4.913,4.283-8.819,9.25-8.819h91.52
		c5.118,0,9.261,4.148,9.261,9.266v74.646c0-4.811-3.9-8.711-8.711-8.711h-92.069C333.624,281.276,329.476,277.127,329.476,272.009z
		"/>
	<circle style="fill:#808080;" cx="347.276" cy="243.675" r="7.542"/>
	<rect x="380.5" y="177.068" style="fill:#F9DE58;" width="8" height="49"/>
	<rect x="360" y="169.068" style="fill:#F9DE58;" width="49" height="19"/>
	<path style="fill:#29ABE2;" d="M170.728,29.808l-4.995,5.521l21.263,19.238h-70.021l21.263-19.238l-4.995-5.521l-30.072,27.208
		l13.869,57.117h13.977h16.969v65.935h8v-65.935h16.969h13.977L200.8,57.016L170.728,29.808z M112.046,62.013h11.969l1.328,9.883
		h-10.897L112.046,62.013z M116.254,79.341h10.09l1.4,10.424h-8.959L116.254,79.341z M122.894,106.688l-2.301-9.477h8.151
		l1.273,9.477H122.894z M131.528,62.013h16.734v9.883h-15.407L131.528,62.013z M133.856,79.341h14.406v10.424h-13.006
		L133.856,79.341z M137.529,106.688l-1.273-9.477h12.006v9.477H137.529z M166.441,106.688h-10.733v-9.477h12.006L166.441,106.688z
		 M168.715,89.766h-13.006V79.341h14.406L168.715,89.766z M171.115,71.896h-15.407v-9.883h16.734L171.115,71.896z M181.077,106.688
		h-7.123l1.273-9.477h8.151L181.077,106.688z M185.186,89.766h-8.959l1.4-10.424h10.09L185.186,89.766z M178.628,71.896l1.327-9.883
		h11.969l-2.4,9.883H178.628z"/>
	<polyline style="fill:#2BE0C6;" points="358.382,141.318 255.609,141.318 255.609,55.887 358.382,55.887 358.382,141.318 	"/>
	<rect x="250.979" y="55.887" style="fill:#2BE0C6;" width="112.032" height="20.127"/>
	<path style="fill:#FC7A51;" d="M332.803,29.58c-2.792-2.792-6.641-4.518-10.895-4.518s-8.103,1.726-10.895,4.518
		c-1.922,1.923-3.322,4.353-4.018,7.065c-0.696-2.712-2.096-5.143-4.018-7.065c-2.792-2.792-6.641-4.518-10.895-4.518
		s-8.103,1.726-10.895,4.518c-2.792,2.792-4.518,6.641-4.518,10.895c0,8.508,6.905,15.413,15.413,15.413h5.225v85.429h19.375v-85.43
		h5.225c8.508,0,15.413-6.905,15.413-15.413C337.322,36.221,335.595,32.372,332.803,29.58z M292.084,47.503
		c-3.884,0-7.028-3.144-7.028-7.028c0-1.938,0.784-3.699,2.061-4.967c1.269-1.277,3.03-2.061,4.967-2.061s3.699,0.784,4.967,2.061
		c1.277,1.268,2.061,3.03,2.061,4.967v7.028H292.084z M321.909,47.503h-7.028v-7.028c0-1.938,0.784-3.699,2.061-4.967
		c1.269-1.277,3.03-2.061,4.967-2.061c1.938,0,3.699,0.784,4.967,2.061c1.277,1.268,2.061,3.03,2.061,4.967
		C328.937,44.359,325.793,47.503,321.909,47.503z"/>
	<polyline style="fill:#32C3AE;" points="297.309,76.015 255.609,76.015 255.609,83.19 297.309,83.19 297.309,76.015 	"/>
	<polyline style="fill:#32C3AE;" points="358.382,76.015 316.684,76.015 316.684,83.19 358.382,83.19 358.382,76.015 	"/>
	<polyline style="fill:#D97150;" points="316.684,76.015 316.682,76.015 316.682,83.19 316.684,83.19 316.684,76.015 	"/>
</g>
<g>
</g>
<g>
</g>
<g>
</g>
<g>
</g>
<g>
</g>
<g>
</g>
<g>
</g>
<g>
</g>
<g>
</g>
<g>
</g>
<g>
</g>
<g>
</g>
<g>
</g>
<g>
</g>
<g>
</g>
</svg>
