<?xml version="1.0" encoding="iso-8859-1"?>
<!-- Generator: Adobe Illustrator 19.0.0, SVG Export Plug-In . SVG Version: 6.00 Build 0)  -->
<svg version="1.1" id="Layer_1" xmlns="http://www.w3.org/2000/svg" xmlns:xlink="http://www.w3.org/1999/xlink" x="0px" y="0px"
	 viewBox="0 0 406.193 406.193" style="enable-background:new 0 0 406.193 406.193;" xml:space="preserve">
<g>
	<polyline style="fill:#2DC9AF;" points="247.101,383.314 159.101,383.314 159.101,342.365 247.101,342.365 247.101,383.314 	"/>
	<path style="fill:#2BE0C6;" d="M386.837,80.596v250.49c0,9.94-8.05,18-17.99,18H37.357c-9.94,0-18-8.06-18-18V80.596H386.837"/>
	<polyline style="fill:#FFFFFF;" points="44.36,324.083 44.36,105.597 361.842,105.597 361.842,324.083 44.36,324.083 	"/>
	<path style="fill:#2BE0C6;" d="M313.257,394.597H92.947c0-4.97,2.02-9.47,5.27-12.73c3.26-3.25,7.76-5.27,12.73-5.27h184.31
		C305.197,376.597,313.257,384.656,313.257,394.597"/>
	<path style="fill:#999999;" d="M214.469,224.642c-8.23-16.709-24.915-27.09-43.542-27.09h-27.163
		c-1.6-6.441-5.362-12.231-10.729-16.226c-2.104-1.566-3.262-4.069-3.1-6.697c0.236-3.795,3.394-6.953,7.188-7.188
		c2.167-0.135,4.217,0.603,5.782,2.074c1.568,1.474,2.432,3.469,2.432,5.619h14c0-5.967-2.494-11.733-6.843-15.821
		c-4.411-4.145-10.176-6.223-16.238-5.846c-10.894,0.677-19.618,9.401-20.294,20.294c-0.457,7.367,2.8,14.393,8.713,18.795
		c1.781,1.325,3.206,3.048,4.222,4.995h-24.568c-18.626,0-35.311,10.38-43.542,27.09c-3.015,6.121-2.663,13.234,0.941,19.027
		c3.605,5.793,9.83,9.252,16.653,9.252h118.495c6.823,0,13.048-3.459,16.653-9.252C217.132,237.875,217.484,230.762,214.469,224.642
		 M201.641,236.273c-0.496,0.796-1.951,2.648-4.766,2.648H78.38c-2.814,0-4.27-1.852-4.766-2.648
		c-0.495-0.796-1.513-2.92-0.27-5.445c5.857-11.89,17.73-19.276,30.984-19.276h66.598c13.254,0,25.127,7.386,30.983,19.277
		C203.154,233.353,202.136,235.477,201.641,236.273"/>
	<polyline style="fill:#F9DE58;" points="186.375,308.435 88.88,308.435 88.88,231.939 186.375,231.939 186.375,308.435 	"/>
	<polyline style="fill:#E6E6E6;" points="341.207,258.596 240.207,258.596 240.207,285.596 341.207,285.596 341.207,258.596 	"/>
	<polyline style="fill:#E6E6E6;" points="341.207,220.784 240.207,220.784 240.207,247.784 341.207,247.784 341.207,220.784 	"/>
	<polyline style="fill:#E6E6E6;" points="341.207,183.041 240.207,183.041 240.207,210.041 341.207,210.041 341.207,183.041 	"/>
	<path style="fill:#6FEAD8;" d="M361.842,173.966v150.117H211.457l7.621,25.003h149.77c9.94,0,17.99-8.06,17.99-18v-157.12
		c-4.098,1.012-8.298,1.519-12.496,1.519C370.142,175.486,365.944,174.979,361.842,173.966"/>
	<path style="fill:#FFFFFF;" d="M177.339,212.139l6.034,19.8h3.002v6.982h10.5c2.814,0,4.27-1.852,4.766-2.648
		c0.495-0.796,1.513-2.92,0.269-5.445C197.017,220.895,187.926,214.106,177.339,212.139 M240.207,285.596v-27h101v27H240.207
		 M240.207,247.784v-27h101v27H240.207 M240.207,210.041v-27h101v27H240.207 M340.087,162.596l-0.01,0.01
		c-9.8,8.585-22.023,12.877-34.244,12.877s-24.441-4.292-34.236-12.877l-0.01-0.01l-0.01,0.01c-9.8,8.58-22.02,12.87-34.24,12.87
		s-24.44-4.29-34.24-12.87l-0.01-0.01c-9.8,8.585-22.023,12.877-34.245,12.877c-0.9,0-1.801-0.023-2.7-0.07l6.762,22.187
		c17.824,0.706,33.626,10.935,41.564,27.051c3.015,6.121,2.664,13.233-0.94,19.027c-3.605,5.793-9.83,9.252-16.653,9.252h-7.107
		l21.689,71.162h150.385V173.966c-7.834-1.936-15.31-5.722-21.744-11.359L340.087,162.596"/>
	<path style="fill:#BABABA;" d="M172.905,197.591l4.434,14.548c10.588,1.966,19.678,8.756,24.571,18.689
		c1.244,2.525,0.226,4.649-0.269,5.445c-0.496,0.796-1.951,2.648-4.766,2.648h-10.5v2.868l3.393,11.132h7.107
		c6.823,0,13.048-3.459,16.653-9.252c3.604-5.793,3.956-12.906,0.94-19.027C206.531,208.526,190.729,198.297,172.905,197.591"/>
	<polyline style="fill:#FBE98E;" points="186.375,231.939 183.373,231.939 186.375,241.789 186.375,238.921 186.375,231.939 	"/>
	<polyline style="fill:#EEEEEE;" points="341.207,258.596 240.207,258.596 240.207,285.596 341.207,285.596 341.207,258.596 	"/>
	<polyline style="fill:#EEEEEE;" points="341.207,220.784 240.207,220.784 240.207,247.784 341.207,247.784 341.207,220.784 	"/>
	<polyline style="fill:#EEEEEE;" points="341.207,183.041 240.207,183.041 240.207,210.041 341.207,210.041 341.207,183.041 	"/>
	<path style="fill:#6FEAD8;" d="M295.257,376.597H247.1h-45.243l5.49,18h105.91C313.257,384.656,305.197,376.597,295.257,376.597"/>
	<path style="fill:#2EA897;" d="M137.247,80.596H19.357v93.36c4.097,1.012,8.29,1.518,12.484,1.518
		c4.206,0,8.411-0.508,12.518-1.526v-68.352h100.507L137.247,80.596"/>
	<path style="fill:#BDBDBD;" d="M144.867,105.597H44.36v68.352c7.826-1.938,15.298-5.723,21.728-11.352h0.01l0.01,0.01
		c9.8,8.58,22.02,12.87,34.24,12.87c5.288,0,10.577-0.804,15.669-2.41c0.995-10.567,9.579-18.937,20.24-19.599
		c0.468-0.029,0.935-0.044,1.399-0.044c5.545,0,10.769,2.064,14.839,5.889c4.219,3.965,6.692,9.511,6.837,15.286
		c2.255,0.418,4.529,0.686,6.813,0.805L144.867,105.597"/>
	<path style="fill:#787878;" d="M137.655,153.424c-0.464,0-0.931,0.014-1.399,0.044c-10.661,0.662-19.244,9.031-20.24,19.599
		c6.675-2.106,13.012-5.593,18.571-10.46l0.01-0.01c7.246,6.348,15.817,10.349,24.733,12.003
		c-0.144-5.775-2.617-11.321-6.837-15.286C148.424,155.488,143.2,153.424,137.655,153.424"/>
	<path style="fill:#5CAFA3;" d="M386.837,80.596h-249.59l7.619,25h216.975v68.369c4.102,1.014,8.3,1.52,12.5,1.52
		c4.198,0,8.397-0.507,12.496-1.519V80.596"/>
	<path style="fill:#BDBDBD;" d="M361.842,105.597H144.867l21.276,69.808c0.899,0.047,1.8,0.07,2.7,0.07
		c12.222,0,24.445-4.292,34.245-12.877l0.01,0.01c9.8,8.58,22.02,12.87,34.24,12.87s24.44-4.29,34.24-12.87l0.01-0.01l0.01,0.01
		c9.795,8.585,22.015,12.877,34.236,12.877s24.444-4.292,34.244-12.877l0.01-0.01l0.01,0.01c6.434,5.638,13.91,9.423,21.744,11.359
		V105.597"/>
	<path style="fill:#E6E6E6;" d="M405.825,121.574l-9.517-51.977l-6.85-37.39c-2.18-11.94-12.59-20.61-24.73-20.61h-39.89h-60.87
		h-60.87h-60.87h-60.87h-39.9c-12.13,0-22.54,8.67-24.73,20.61l-6.85,37.39l-9.51,51.97c-1.979,10.813,4.192,21.519,14.588,25.09
		c17.156,5.894,36.748,2.54,51.131-10.06h0.01l0.01,0.01c19.6,17.16,48.88,17.16,68.48,0l0.01-0.01c19.6,17.17,48.89,17.17,68.49,0
		l0.01,0.01c19.6,17.16,48.88,17.16,68.48,0l0.01-0.01l0.01,0.01c19.59,17.17,48.88,17.17,68.48,0l0.01-0.01l0.01,0.01
		c14.384,12.6,33.98,15.954,51.138,10.061C401.634,143.096,407.805,132.388,405.825,121.574z"/>
	<path style="fill:#FC7A51;" d="M340.097,136.606l-0.01-0.01l-0.01,0.01c-19.6,17.17-48.89,17.17-68.48,0l-4.09-67.01l-3.54-58
		h60.87l7.08,58L340.097,136.606z"/>
	<path style="fill:#FC7A51;" d="M203.097,11.596v125.01l-0.01-0.01c-19.6,17.17-48.89,17.17-68.49,0h-0.01l4.1-67l3.54-58
		C142.227,11.596,203.097,11.596,203.097,11.596z"/>
	<path style="fill:#FC7A51;" d="M81.357,11.596l-7.09,58l-8.18,67c-14.384,12.601-33.976,15.954-51.131,10.06
		c-10.397-3.572-16.567-14.277-14.588-25.09l9.51-51.97l6.85-37.39c2.19-11.94,12.6-20.61,24.73-20.61
		C41.458,11.596,81.357,11.596,81.357,11.596z"/>
	<rect x="88.88" y="231.939" style="fill:#E0BF20;" width="97.495" height="13.982"/>
</g>
<g>
</g>
<g>
</g>
<g>
</g>
<g>
</g>
<g>
</g>
<g>
</g>
<g>
</g>
<g>
</g>
<g>
</g>
<g>
</g>
<g>
</g>
<g>
</g>
<g>
</g>
<g>
</g>
<g>
</g>
</svg>
