<?xml version="1.0" encoding="iso-8859-1"?>
<!-- Generator: Adobe Illustrator 19.0.0, SVG Export Plug-In . SVG Version: 6.00 Build 0)  -->
<svg version="1.1" id="Layer_1" xmlns="http://www.w3.org/2000/svg" xmlns:xlink="http://www.w3.org/1999/xlink" x="0px" y="0px"
	 viewBox="0 0 419.101 419.101" style="enable-background:new 0 0 419.101 419.101;" xml:space="preserve">
<g>
	<path style="fill:#808080;" d="M390.291,193.931v198.67H28.811v-198.67c0-12.601,10.21-22.821,22.82-22.821h315.84
		C380.071,171.111,390.291,181.331,390.291,193.931"/>
	<polyline style="fill:#29ABE2;" points="365.291,196.111 365.291,367.601 53.811,367.601 53.811,196.111 365.291,196.111 	"/>
	<path style="fill:#A9A9A9;" d="M367.471,171.111h-195.42l6.157,20.202h156.443l0.09,2.71l0.072,2.088h30.478v171.49H231.933
		l7.009,23h151.349v-196.67C390.291,181.331,380.071,171.111,367.471,171.111"/>
	<path style="fill:#6EC6EB;" d="M257.268,320.293h-39.753l1.007,3.304l18.849,3.194c0.999,0.168,2.005,0.251,3.009,0.251
		c3.053,0,6.077-0.771,8.772-2.262L257.268,320.293 M365.291,196.111h-30.478l4.298,124.182h-30.908l-0.182,0.128l-59.83,37.81
		c-4.764,3.007-10.255,4.58-15.823,4.58c-0.638,0-1.276-0.021-1.915-0.062l1.479,4.852h133.359V196.111"/>
	<polyline style="fill:#676767;" points="178.208,191.313 124.801,191.313 124.636,196.111 179.67,196.111 178.208,191.313 	"/>
	<path style="fill:#2C84AA;" d="M179.67,196.111h-55.035l-1.784,51.702l-2.133,61.59c-1.133,0.782-2.282,1.543-3.457,2.268
		l-63.45,41.35v14.581h72.5l20.56-13.51c2.445-1.609,5.297-2.458,8.196-2.458c0.74,0,1.483,0.055,2.224,0.167l70.67,10.68
		c0.829,0.125,1.662,0.215,2.493,0.269l-11.932-39.152l-19.499-3.304h18.492L179.67,196.111"/>
	<polyline style="fill:#838383;" points="334.651,191.313 178.208,191.313 179.67,196.111 334.813,196.111 334.741,194.023 
		334.651,191.313 	"/>
	<path style="fill:#5B97B0;" d="M334.813,196.111H179.67l37.845,124.182h39.753l-8.117,4.488c-2.695,1.491-5.719,2.262-8.772,2.262
		c-1.003,0-2.009-0.083-3.009-0.251l-18.849-3.194l11.932,39.152c0.639,0.042,1.277,0.062,1.915,0.062
		c5.568,0,11.058-1.573,15.823-4.58l59.83-37.81l0.182-0.128h30.908L334.813,196.111"/>
	<polygon style="fill:#FC7A51;" points="339.111,300.091 120.341,300.091 122.851,227.611 128.931,51.691 330.521,51.691 
		334.741,173.821 	"/>
	<path style="fill:#FCD18B;" d="M308.021,306.741l-59.83,37.81c-6.02,3.8-13.2,5.31-20.23,4.25l-70.67-10.68
		c-3.64-0.55-7.35,0.27-10.42,2.29l-41.38,27.19h-51.68v-28.26l63.45-41.35c5.07-3.13,9.77-6.8,13.99-10.95
		c4.22-4.16,7.98-8.78,11.19-13.8c5.64-8.82,15.41-14.25,25.88-14.05c2.38,0.04,4.76,0.3,7.13,0.77l62.9,12.61
		c4.93,0.99,8.32,5.33,8.32,10.14c0,0.82-0.1,1.66-0.31,2.5c-1.3,5.22-6.39,8.58-11.7,7.71l-39.65-6.44
		c-0.52-0.08-1.04-0.13-1.55-0.13c-4.87,0-9.09,3.72-9.54,8.73c-0.45,4.99,3.01,9.48,7.95,10.32l45.5,7.71
		c4.04,0.68,8.2-0.03,11.78-2.01l46.3-25.6c1.89-1.04,3.94-1.54,5.96-1.54c4.09,0,8.07,2.03,10.42,5.71
		C315.511,295.431,313.801,303.091,308.021,306.741z"/>
	<path style="fill:#FFFFFF;" d="M199.924,169.019c-10.686,0-19.379-8.693-19.379-19.379s8.693-19.38,19.379-19.38
		s19.38,8.694,19.38,19.38S210.61,169.019,199.924,169.019z M199.924,138.508c-6.138,0-11.131,4.994-11.131,11.132
		s4.993,11.131,11.131,11.131s11.132-4.993,11.132-11.131S206.062,138.508,199.924,138.508z"/>
	<path style="fill:#FFFFFF;" d="M259.528,221.527c-10.686,0-19.38-8.694-19.38-19.38s8.694-19.38,19.38-19.38
		c10.686,0,19.38,8.694,19.38,19.38S270.213,221.527,259.528,221.527z M259.528,191.016c-6.138,0-11.132,4.993-11.132,11.131
		s4.994,11.132,11.132,11.132c6.138,0,11.132-4.993,11.132-11.132C270.659,196.009,265.665,191.016,259.528,191.016z"/>
	
		<rect x="225.619" y="126.698" transform="matrix(-0.9809 -0.1947 0.1947 -0.9809 420.8458 393.1475)" style="fill:#FFFFFF;" width="8.248" height="98.388"/>
	<path style="fill:#F9DE58;" d="M280.278,87.465L280.278,87.465c-3.538,0-6.407-2.868-6.407-6.407v-23.27
		c0-24.107-18.981-44.391-43.081-44.962c-24.826-0.588-45.21,19.437-45.21,44.133v24.099c0,3.538-2.868,6.407-6.407,6.407l0,0
		c-3.538,0-6.407-2.868-6.407-6.407V57.914c0-31.189,24.675-57.313,55.859-57.904c31.909-0.605,58.059,25.175,58.059,56.948v24.099
		C286.685,84.596,283.816,87.465,280.278,87.465z"/>
	<path style="fill:#4D4D4D;" d="M416.541,390.601c0,15.74-12.76,28.5-28.5,28.5H31.062c-7.87,0-14.99-3.189-20.151-8.35
		c-5.16-5.15-8.35-12.28-8.35-20.15H416.541"/>
	<path style="fill:#868686;" d="M416.541,390.601h-26.25H238.942h-27.641l8.69,28.5h168.05
		C403.781,419.101,416.541,406.341,416.541,390.601"/>
</g>
<g>
</g>
<g>
</g>
<g>
</g>
<g>
</g>
<g>
</g>
<g>
</g>
<g>
</g>
<g>
</g>
<g>
</g>
<g>
</g>
<g>
</g>
<g>
</g>
<g>
</g>
<g>
</g>
<g>
</g>
</svg>
