<?xml version="1.0" encoding="iso-8859-1"?>
<!-- Generator: Adobe Illustrator 19.0.0, SVG Export Plug-In . SVG Version: 6.00 Build 0)  -->
<svg version="1.1" id="Layer_1" xmlns="http://www.w3.org/2000/svg" xmlns:xlink="http://www.w3.org/1999/xlink" x="0px" y="0px"
	 viewBox="0 0 429.859 429.859" style="enable-background:new 0 0 429.859 429.859;" xml:space="preserve">
<g>
	<polyline style="fill:#E86E4D;" points="255.715,423.885 178.883,423.885 178.883,374.406 255.715,374.406 255.715,423.885 	"/>
	<path style="fill:#2BE0C6;" d="M184.247,123.994c0,43.069-30.25,79.079-70.671,87.91c-6.22,1.369-12.69,2.089-19.33,2.089
		c-49.71,0-90-40.29-90-90c0-38.07,23.63-70.61,57.01-83.77c10.22-4.02,21.34-6.23,32.99-6.23
		C143.958,33.994,184.247,74.284,184.247,123.994"/>
	<path style="fill:#FFFFFF;" d="M158.95,123.994c0-35.734-28.968-64.701-64.702-64.701s-64.701,28.968-64.701,64.701
		s28.968,64.701,64.701,64.701S158.95,159.728,158.95,123.994"/>
	<polyline style="fill:#FC7A51;" points="87.748,71.994 100.748,71.994 100.748,130.494 55.248,130.494 55.248,117.494 
		87.748,117.494 87.748,71.994 	"/>
	<polyline style="fill:#29ABE2;" points="87.748,71.994 100.748,71.994 100.748,130.494 87.748,130.494 87.748,71.994 	"/>
	<path style="fill:#6FEAD8;" d="M94.248,33.994c-11.65,0-22.769,2.21-32.99,6.23l3.4,11.17l4.008,13.153
		c7.846-3.381,16.496-5.254,25.582-5.254c35.734,0,64.702,28.968,64.702,64.701c0,11.524-3.013,22.344-8.294,31.717h9.149h18.696
		c3.715-9.865,5.747-20.552,5.747-31.717C184.247,74.284,143.958,33.994,94.248,33.994"/>
	<path style="fill:#FFFFFF;" d="M94.248,59.293c-9.086,0-17.736,1.873-25.582,5.254l14.182,46.547l1.951,6.399h2.949v-45.5h13v58.5
		H88.762l7.687,25.217h54.207c5.281-9.372,8.294-20.192,8.294-31.717C158.95,88.261,129.98,59.293,94.248,59.293"/>
	<polyline style="fill:#FDA589;" points="87.748,71.994 87.748,71.994 87.748,117.494 84.799,117.494 87.748,127.169 87.748,71.994 
			"/>
	<polyline style="fill:#6EC6EB;" points="100.748,71.994 87.748,71.994 87.748,127.169 88.762,130.494 100.748,130.494 
		100.748,71.994 	"/>
	<path style="fill:#FC7A51;" d="M377.718,170.014V374.41c0,8.679-7.036,15.715-15.716,15.715H72.592
		c-8.679,0-15.715-7.036-15.715-15.715V170.014c0-7.9,6.403-14.303,14.303-14.303h292.235
		C371.314,155.711,377.718,162.115,377.718,170.014"/>
	<polyline style="fill:#FFFFFF;" points="78.706,368.295 78.706,177.538 355.894,177.538 355.894,368.295 78.706,368.295 	"/>
	<polyline style="fill:#E6E6E6;" points="344.582,301.635 199.247,301.635 199.247,313.494 344.582,313.494 344.582,301.635 	"/>
	<path style="fill:#FC7A51;" d="M336.597,7.879c-0.193-0.191-0.543-0.453-1.053-0.783c-0.508-0.33-1.127-0.653-1.855-0.97
		c-0.729-0.315-1.52-0.584-2.371-0.805c-0.854-0.22-1.721-0.33-2.6-0.33c-1.568,0-2.736,0.289-3.506,0.866
		c-0.771,0.578-1.156,1.39-1.156,2.435c0,0.604,0.145,1.107,0.434,1.505c0.289,0.399,0.709,0.75,1.258,1.053
		c0.551,0.303,1.244,0.577,2.084,0.824c0.838,0.248,1.809,0.51,2.908,0.784c1.43,0.386,2.729,0.798,3.898,1.237
		c1.168,0.44,2.158,0.99,2.969,1.65c0.813,0.66,1.438,1.45,1.877,2.372c0.439,0.921,0.66,2.056,0.66,3.402
		c0,1.568-0.295,2.908-0.887,4.022c-0.592,1.113-1.389,2.015-2.393,2.702s-2.158,1.189-3.465,1.505s-2.674,0.475-4.104,0.475
		c-2.201,0-4.373-0.33-6.518-0.99c-2.146-0.659-4.07-1.594-5.775-2.805l2.516-4.909c0.248,0.248,0.695,0.571,1.342,0.97
		c0.645,0.399,1.408,0.798,2.289,1.196c0.879,0.399,1.855,0.736,2.928,1.011c1.072,0.275,2.172,0.412,3.301,0.412
		c3.135,0,4.703-1.003,4.703-3.011c0-0.633-0.18-1.169-0.537-1.609c-0.357-0.439-0.865-0.824-1.525-1.154s-1.459-0.633-2.393-0.908
		c-0.936-0.274-1.98-0.577-3.135-0.907c-1.404-0.385-2.621-0.805-3.652-1.258c-1.031-0.454-1.891-0.99-2.578-1.609
		c-0.688-0.618-1.203-1.333-1.547-2.145c-0.344-0.811-0.516-1.78-0.516-2.908c0-1.485,0.275-2.805,0.826-3.96
		c0.549-1.155,1.313-2.117,2.289-2.888c0.977-0.77,2.109-1.354,3.402-1.753S327.398,0,328.884,0c2.063,0,3.959,0.324,5.691,0.97
		s3.244,1.409,4.537,2.289L336.597,7.879z"/>
	<path style="fill:#FC7A51;" d="M352.767,0.207h5.033l11.137,29.287h-5.857l-2.723-7.301h-10.23l-2.682,7.301h-5.857L352.767,0.207z
		 M359.325,18.191l-4.043-11.509l-4.207,11.509H359.325z"/>
	<polygon style="fill:#FC7A51;" points="372.154,29.494 372.154,0.207 377.847,0.207 377.847,24.503 392.779,24.503 392.779,29.494 
			"/>
	<polygon style="fill:#FC7A51;" points="416.581,24.503 416.581,29.494 396.245,29.494 396.245,0.207 416.21,0.207 416.21,5.198 
		401.937,5.198 401.937,12.252 414.271,12.252 414.271,16.872 401.937,16.872 401.937,24.503 	"/>
	<path style="fill:#FC7A51;" d="M313.477,429.859h-192.35c0-4.339,1.764-8.268,4.601-11.115c2.846-2.837,6.775-4.601,11.115-4.601
		h160.918C306.439,414.144,313.477,421.181,313.477,429.859"/>
	<path style="fill:#29ABE2;" d="M182.061,226.262c0-23.372-18.947-42.319-42.319-42.319s-42.319,18.947-42.319,42.319
		s18.947,42.319,42.319,42.319C163.114,268.58,182.061,249.634,182.061,226.262"/>
	<path style="fill:#FFFFFF;" d="M127.282,240.058h5.693h17.083h5.693l5.958-24.263h-40.385L127.282,240.058z M139.999,222.853
		h-6.276l-0.541-4.026h6.817V222.853z M143.033,218.827h6.817l-0.541,4.026h-6.276V218.827z M130.663,222.853h-4.439l-0.977-4.026
		h4.875L130.663,222.853z M126.962,225.886h4.11l0.57,4.246h-3.649L126.962,225.886z M134.132,225.886h5.868v4.246h-5.298
		L134.132,225.886z M143.033,225.886h5.868l-0.57,4.246h-5.298L143.033,225.886L143.033,225.886z M151.962,225.886h4.11
		l-1.031,4.246h-3.649L151.962,225.886z M152.368,222.853l0.541-4.026h4.876l-0.977,4.026H152.368z M129.667,237.025l-0.937-3.86
		h3.32l0.519,3.86H129.667z M135.109,233.165h4.891v3.86h-4.372L135.109,233.165z M143.033,237.025v-3.86h4.891l-0.519,3.86H143.033
		z M150.465,237.025l0.519-3.86h3.32l-0.937,3.86H150.465z"/>
	<polygon style="fill:#FFFFFF;" points="121.324,215.794 124.447,215.794 122.304,207.063 112.975,207.063 112.975,210.096 
		119.925,210.096 	"/>
	<circle style="fill:#FFFFFF;" cx="135.14" cy="245.365" r="3.296"/>
	<circle style="fill:#FFFFFF;" cx="151.62" cy="245.365" r="3.296"/>
	<path style="fill:#FDA589;" d="M297.761,414.144h-42.045h-39.501l4.792,15.715h92.469
		C313.477,421.181,306.439,414.144,297.761,414.144"/>
	<path style="fill:#FCD18B;" d="M214.928,298.554c-3.27-3.37-8.66-3.41-11.97-0.1l-11.76,11.77c-6.76,6.76-18.319,1.97-18.319-7.58
		v-71.59c0-4.62-3.64-8.52-8.26-8.57c-2.34-0.031-4.47,0.909-5.99,2.44c-1.52,1.51-2.44,3.6-2.44,5.91v36.61
		c0-0.18-0.01-0.35-0.02-0.52c-0.04-0.8-0.21-1.57-0.469-2.29c-0.041-0.12-0.09-0.25-0.14-0.37c-0.1-0.25-0.21-0.48-0.33-0.72
		c-0.1-0.18-0.21-0.36-0.32-0.54c-0.089-0.14-0.179-0.281-0.28-0.41c-0.08-0.13-0.18-0.25-0.28-0.37c-0.15-0.2-0.32-0.4-0.501-0.58
		l-0.009-0.01c-0.56-0.59-1.221-1.1-1.931-1.51c-1.22-0.69-2.63-1.08-4.13-1.08c-2.33,0-4.42,0.93-5.94,2.46
		c-1.52,1.52-2.46,3.62-2.46,5.94v2.86c0-0.22-0.009-0.44-0.03-0.66c-0.02-0.28-0.05-0.57-0.11-0.85c-0.04-0.22-0.08-0.42-0.14-0.63
		c-0.03-0.15-0.08-0.291-0.13-0.44c-0.06-0.2-0.13-0.4-0.22-0.59v-0.02c-0.09-0.2-0.179-0.4-0.27-0.591l-0.09-0.179
		c-0.11-0.19-0.22-0.38-0.34-0.571c-0.15-0.24-0.32-0.47-0.49-0.69c-0.161-0.2-0.331-0.399-0.51-0.59h-0.01
		c-0.6-0.64-1.301-1.17-2.07-1.59c-1.18-0.64-2.55-1.01-4-1.01c-2.32,0-4.42,0.939-5.939,2.46c-1.52,1.53-2.47,3.63-2.47,5.95v7.04
		c0-0.21-0.01-0.421-0.02-0.631c-0.031-0.419-0.09-0.819-0.18-1.22c-0.04-0.19-0.09-0.39-0.15-0.58
		c-0.139-0.48-0.33-0.94-0.559-1.38c-0.05-0.1-0.1-0.201-0.161-0.3c-0.05-0.09-0.099-0.18-0.16-0.27c-0.05-0.1-0.11-0.19-0.18-0.28
		l-0.02-0.021c-0.12-0.189-0.25-0.36-0.39-0.54c-0.16-0.2-0.33-0.4-0.51-0.59l-0.12-0.13c-0.46-0.46-0.96-0.86-1.51-1.2
		c-1.28-0.8-2.81-1.27-4.431-1.27c-4.65,0-8.41,3.77-8.41,8.411v41.32c0,2.57,0.44,5.1,1.28,7.48c0.85,2.39,2.1,4.63,3.71,6.62
		l0.071,0.08c4.91,6,7.74,13.429,7.74,21.19v14.26h54.44v-12.37c0-5.6,3.15-10.67,8.11-13.29l0.07-0.04
		c4.99-2.66,9.53-6.15,13.41-10.35l18.34-19.85l2.13-2.3c1.02-1.101,1.69-2.42,2-3.79
		C217.698,303.615,216.978,300.674,214.928,298.554"/>
	<path style="fill:#DDB57A;" d="M122.565,277.343v18.672c0,0.645-0.524,1.163-1.169,1.163c-0.645,0-1.163-0.517-1.163-1.163v-24.479
		C121.677,273.041,122.565,275.091,122.565,277.343z"/>
	<path style="fill:#DDB57A;" d="M139.374,270.306v21.186c0,0.645-0.524,1.169-1.17,1.169c-0.645,0-1.163-0.524-1.163-1.169v-26.993
		C138.486,266.011,139.374,268.054,139.374,270.306z"/>
	<path style="fill:#DDB57A;" d="M156.184,267.449v27.013c0,0.645-0.524,1.169-1.169,1.169s-1.17-0.524-1.17-1.169v-32.82
		C155.297,263.147,156.184,265.191,156.184,267.449z"/>
	<path style="fill:#FFFFFF;" d="M169.893,230.822c0-2.961-2.4-5.361-5.361-5.361s-5.361,2.4-5.361,5.361s2.4,3.117,5.361,3.117
		S169.893,233.783,169.893,230.822z"/>
	<path style="fill:#FFFFFF;" d="M217.053,306.302c-0.303,1.376-0.974,2.69-1.992,3.789l-2.135,2.305l-5.995-6.005
		C209.719,303.604,214.221,303.569,217.053,306.302"/>
	<rect x="118.558" y="359.494" style="fill:#DDB57A;" width="54.44" height="8.8"/>
	<polyline style="fill:#E6E6E6;" points="344.582,276.432 199.247,276.432 199.247,288.292 344.582,288.292 344.582,276.432 	"/>
	<polyline style="fill:#E6E6E6;" points="344.582,251.231 199.247,251.231 199.247,263.091 344.582,263.091 344.582,251.231 	"/>
	<polyline style="fill:#E6E6E6;" points="344.582,226.029 199.247,226.029 199.247,237.889 344.582,237.889 344.582,226.029 	"/>
	<polyline style="fill:#E6E6E6;" points="344.582,200.828 199.247,200.828 199.247,212.687 344.582,212.687 344.582,200.828 	"/>
	<path style="fill:#FDA589;" d="M363.415,155.711H178.501h-18.697l6.652,21.827h189.437v190.757H224.596l6.653,21.83h130.753
		c8.679,0,15.716-7.036,15.716-15.715V170.014C377.718,162.115,371.314,155.711,363.415,155.711"/>
	<path style="fill:#FFFFFF;" d="M199.247,263.091v-11.859h145.334v11.859H199.247 M199.247,237.889v-11.86h145.334v11.86H199.247
		 M199.247,212.687v-11.859h145.334v11.859H199.247 M355.894,177.538H166.456l7.09,23.261c5.345,7.085,8.514,15.903,8.514,25.462
		c0,0.763-0.02,1.523-0.06,2.276l17.247,56.59v-8.695h145.334v11.86h-144.37l3.018,9.902c1.6-1.464,3.629-2.195,5.66-2.195
		c2.193,0,4.386,0.853,6.038,2.555c0.875,0.905,1.508,1.96,1.896,3.081h127.758v11.86h-132.67l-3.022,3.27l15.705,51.531h131.298
		V177.538"/>
	<path style="fill:#EEEEEE;" d="M344.582,301.635H216.824c0.521,1.505,0.601,3.128,0.234,4.67c-0.07,0.31-0.159,0.616-0.265,0.919
		c-0.362,1.038-0.942,2.017-1.731,2.869l-2.135,2.305l0,0l-1.015,1.098h132.67V301.635"/>
	<path style="fill:#6EC6EB;" d="M173.546,200.799l8.455,27.739c0.04-0.753,0.06-1.513,0.06-2.276
		C182.061,216.703,178.892,207.884,173.546,200.799"/>
	<path style="fill:#FDE0B0;" d="M208.89,295.999c-2.031,0-4.06,0.73-5.66,2.195l5.66,18.571l3.022-3.27l1.015-1.098l-5.995-6.004
		c1.409-1.409,3.258-2.115,5.106-2.115c1.808,0,3.616,0.675,5.016,2.026c-0.068,0.311-0.156,0.618-0.261,0.92
		c0.107-0.302,0.195-0.609,0.265-0.919c0.367-1.542,0.287-3.165-0.234-4.67c-0.388-1.121-1.021-2.175-1.896-3.081
		C213.275,296.852,211.083,295.999,208.89,295.999"/>
	<path style="fill:#FFFFFF;" d="M212.038,304.277c-1.849,0-3.697,0.706-5.106,2.115l5.995,6.004l0,0l2.135-2.305
		c0.789-0.851,1.369-1.831,1.731-2.869c0.106-0.302,0.193-0.61,0.261-0.92C215.654,304.951,213.846,304.276,212.038,304.277"/>
	<polyline style="fill:#EEEEEE;" points="344.582,276.432 199.247,276.432 199.247,285.127 200.212,288.292 344.582,288.292 
		344.582,276.432 	"/>
	<polyline style="fill:#EEEEEE;" points="344.582,251.231 199.247,251.231 199.247,263.091 344.582,263.091 344.582,251.231 	"/>
	<polyline style="fill:#EEEEEE;" points="344.582,226.029 199.247,226.029 199.247,237.889 344.582,237.889 344.582,226.029 	"/>
	<polyline style="fill:#EEEEEE;" points="344.582,200.828 199.247,200.828 199.247,212.687 344.582,212.687 344.582,200.828 	"/>
	<path style="fill:#808080;" d="M395.519,213.597c-0.007,7.7-3.125,14.666-8.167,19.707c-5.049,5.049-12.021,8.174-19.714,8.174
		c-15.401,0-27.881-12.48-27.881-27.881v-19.742l27.881,0.007l27.881-0.007L395.519,213.597L395.519,213.597z"/>
	<path style="fill:#F9DE58;" d="M339.241,171.009c-2.001-23.356-9.808-46.294-23.08-67.755l0.841-0.53h102.432l0.007,0.007
		c-6.894,11.066-12.339,22.535-16.285,34.245c-5.056,15.054-7.637,30.519-7.637,46.089l-0.007,5.31l0.007,5.48l-27.881,0.007
		l-27.881-0.007v-5.487v-5.303C339.757,179.034,339.587,175.018,339.241,171.009z"/>
	<path style="fill:#FCD18B;" d="M339.408,195.884v20.82c0,8.85-4.28,17.16-11.5,22.29l-7.34,5.22v124.08h-52.31v-123.24
		c-7.92-9.78-12.24-21.97-12.24-34.56v-14.95c0,4.85,3.92,8.78,8.77,8.78c0.52,0,1.02-0.05,1.51-0.14v0.01l1.63,5.67
		c1.46,5.08,6.77,8.01,11.85,6.55l18.23-5.25l3.7-1.07l8.06-2.32c-1.69-0.41-3.22-1.29-4.42-2.49c-0.68-0.68-1.25-1.47-1.7-2.32
		c-0.68-1.31-1.06-2.79-1.06-4.36c0-4.12,2.63-7.61,6.29-8.91c0.14-0.05,0.28-0.09,0.42-0.13c0.86-0.27,1.78-0.41,2.73-0.41h14.22
		l6.44,0.01C336.408,189.164,339.408,192.164,339.408,195.884z"/>
	<path style="fill:#808080;" d="M339.757,213.597l-0.346,0.007v-17.72c0-3.719-3.005-6.725-6.725-6.725l-6.442-0.007v-13.35
		l12.997-4.794c0.346,4.009,0.516,8.026,0.516,12.056v5.303v5.487V213.597z"/>
	<path style="fill:#808080;" d="M309.768,207.778l-29.995,8.641c-5.077,1.457-10.38-1.471-11.844-6.555l-1.626-5.671
		c1.817-0.318,3.444-1.195,4.695-2.447c1.584-1.584,2.574-3.776,2.567-6.201l0.007-0.531c0,4.851,3.932,8.782,8.782,8.782
		c2.418,0,4.617-0.983,6.201-2.567c1.591-1.591,2.574-3.79,2.574-6.208c-0.007,4.844,3.924,8.775,8.775,8.775
		c1.344,0,2.616-0.297,3.748-0.834c0.445,0.855,1.018,1.64,1.697,2.319C306.551,206.484,308.078,207.361,309.768,207.778z"/>
	<path style="fill:#DDB57A;" d="M269.287,215.03c-1.281-1.281-2.264-2.892-2.799-4.751l-1.627-5.672l2.884-0.827l1.627,5.671
		c1.229,4.272,5.711,6.753,9.988,5.527l23.385-7.493l-1.359,3.42l-21.197,6.957C276.181,219.01,272.044,217.788,269.287,215.03z"/>
	<path style="fill:#FCD18B;" d="M326.244,189.153h-14.213c-1.103,0-2.171,0.191-3.154,0.537l-0.191-0.53v-0.863v-15.514v-1.64
		v-0.127c0.007-2.426,0.983-4.617,2.574-6.208s3.783-2.567,6.208-2.574c4.844,0.007,8.775,3.939,8.775,8.775v0.127v4.667v13.35
		H326.244z"/>
	<path style="fill:#FCD18B;" d="M303.652,202.963c-1.131,0.537-2.404,0.834-3.748,0.834c-4.596,0-8.365-3.529-8.74-8.019v-0.042
		c-0.021-0.233-0.035-0.474-0.035-0.714v-23.886c0-0.156,0-0.311-0.007-0.459l0.007-2.524c0-4.851,3.932-8.782,8.782-8.782
		c2.178,0,4.172,0.792,5.706,2.114c0.177,0.148,0.339,0.297,0.502,0.459c1.379,1.379,2.298,3.217,2.51,5.268l0.007,0.035
		c0.028,0.297,0.042,0.594,0.049,0.898v2.871v0.127v1.64v15.514v0.863l0.191,0.53c-3.663,1.301-6.293,4.794-6.293,8.909
		C302.584,200.17,302.966,201.654,303.652,202.963z"/>
	<path style="fill:#FCD18B;" d="M288.555,201.23c-0.12,0.12-0.233,0.233-0.368,0.339c-1.541,1.386-3.599,2.228-5.833,2.228
		c-4.851,0-8.782-3.932-8.782-8.782v-10.366l-0.007-6.159v-7.354c0.007-2.425,0.99-4.61,2.581-6.201s3.776-2.574,6.201-2.581
		c2.192,0,4.172,0.792,5.706,2.114c1.669,1.414,2.793,3.458,3.026,5.756v0.014c0.014,0.141,0.035,0.29,0.042,0.438
		c0.007,0.148,0.007,0.304,0.007,0.459v23.886C291.129,197.44,290.146,199.639,288.555,201.23z"/>
	<path style="fill:#FFFFFF;" d="M304.157,196.994c0-1.831,0.169-3.653-1.25-3.694c-0.833-0.024-1.833,0.073-2.908,0.073
		c-2.906,0-5.261-0.713-5.261,2.192s2.356,5.261,5.261,5.261S304.157,199.9,304.157,196.994z"/>
	<path style="fill:#F9DE58;" d="M393.2,93.361l-25.562-0.007h-25.569c4.299-9.857,14.128-16.744,25.562-16.751l0.007,0.007
		c11.434-0.007,21.27,6.887,25.562,16.737V93.361z"/>
	<path style="fill:#FCD18B;" d="M270.998,201.747c-0.148,0.148-0.311,0.297-0.467,0.438c-1.188,1.018-2.631,1.725-4.229,2.008
		l-0.007-0.007c-0.488,0.092-0.99,0.141-1.506,0.134c-4.851,0-8.775-3.925-8.775-8.775V178.49c0-2.418,0.983-4.617,2.574-6.208
		c1.584-1.584,3.783-2.567,6.201-2.567c2.213-0.007,4.221,0.813,5.77,2.164c1.732,1.506,2.864,3.684,2.984,6.138l0.007,0.021
		c0.007,0.148,0.014,0.297,0.014,0.453l0.007,6.159v10.366l-0.007,0.531c0,0.212-0.007,0.431-0.028,0.636
		C273.388,198.352,272.44,200.304,270.998,201.747z"/>
	<path style="fill:#DDB57A;" d="M308.637,189.195l-3.104,2.284l0.085-29.995c0.177,0.148,0.339,0.297,0.502,0.459
		c1.379,1.379,2.298,3.217,2.51,5.268l0.007,0.035V189.195z"/>
	<path style="fill:#DDB57A;" d="M288.555,201.23c-0.12,0.12-0.233,0.233-0.368,0.339l-0.134-37.102
		c1.669,1.414,2.793,3.458,3.026,5.756v0.014l0.05,14.545v0.651l0.035,10.302c-0.021-0.233-0.035-0.474-0.035-0.714
		C291.129,197.44,290.146,199.639,288.555,201.23z"/>
	<path style="fill:#DDB57A;" d="M270.998,201.747c-0.148,0.148-0.311,0.297-0.467,0.438l0.028-30.307
		c1.732,1.506,2.864,3.684,2.984,6.138l0.007,0.021l-0.014,18.144C273.388,198.352,272.44,200.304,270.998,201.747z"/>
	<path style="fill:#DDB57A;" d="M327.216,206.554L327.216,206.554c0.011-0.832-0.653-1.515-1.485-1.527l-13.647-0.191
		c-2.793-0.039-5.462-1.438-6.867-3.853c-1.765-3.036-1.256-6.698,0.923-9.126c1.463-1.629,3.557-2.571,5.75-2.583l14.352-0.118
		l-0.025-3l-14.348,0.118c-3.033,0.018-5.935,1.322-7.962,3.579c-2.026,2.257-3.01,5.283-2.701,8.3
		c0.261,2.552,1.399,4.822,3.099,6.521c0.51,0.51,1.075,0.965,1.678,1.365c-7.324,2.505-12.74,9.163-13.391,17.158
		c-0.071,0.873,0.626,1.623,1.502,1.623c0.778,0,1.425-0.596,1.487-1.371c0.701-8.658,7.97-15.489,16.805-15.489l13.314,0.08
		C326.529,208.044,327.205,207.381,327.216,206.554z"/>
	<path style="fill:#FFFFFF;" d="M268.793,196.827c0-2.209-1.791-1.667-4-1.667s-4-0.542-4,1.667s1.791,4,4,4
		S268.793,199.037,268.793,196.827z"/>
	<path style="fill:#FFFFFF;" d="M287.608,195.566c0-2.906-2.356-2.192-5.261-2.192s-5.261-0.713-5.261,2.192
		s2.356,5.261,5.261,5.261S287.608,198.472,287.608,195.566z"/>
	<path style="fill:#FFFFFF;" d="M314.338,196.324c-2.9,0-5.26-2.36-5.26-5.26c0-0.52,0.08-1.03,0.22-1.5
		c0.86-0.27,1.78-0.41,2.73-0.41h4.57c-0.02,0.59-0.06,1.24-0.06,1.91C316.538,193.964,317.248,196.324,314.338,196.324z"/>
	<path style="fill:#E0E0E0;" d="M304.157,196.994c0-1.831,0.168-3.653-1.25-3.694c-0.331-0.01-0.693,0.002-1.071,0.017
		c-0.566,1.531-0.798,3.183-0.628,4.837c0.089,0.871,0.288,1.706,0.569,2.5C303.419,200.275,304.157,199.215,304.157,196.994z"/>
	<rect x="309.988" y="93.361" style="fill:#808080;" width="115.625" height="9.892"/>
	<path style="fill:#29ABE2;" d="M372.884,38.994v22.33c-1.71-0.26-3.46-0.4-5.25-0.4s-3.54,0.14-5.25,0.4v-22.33
		C362.384,38.994,372.884,38.994,372.884,38.994z"/>
	<path style="fill:#29ABE2;" d="M410.994,59.134l-15.79,15.78c-2.08-2.84-4.59-5.34-7.43-7.42l15.79-15.79L410.994,59.134z"/>
	<path style="fill:#29ABE2;" d="M347.484,67.494c-2.84,2.09-5.35,4.59-7.42,7.43l-15.79-15.79l7.42-7.43L347.484,67.494z"/>
	<rect x="268.258" y="359.494" style="fill:#DDB57A;" width="52.31" height="8.8"/>
</g>
<g>
</g>
<g>
</g>
<g>
</g>
<g>
</g>
<g>
</g>
<g>
</g>
<g>
</g>
<g>
</g>
<g>
</g>
<g>
</g>
<g>
</g>
<g>
</g>
<g>
</g>
<g>
</g>
<g>
</g>
</svg>
