<?xml version="1.0" encoding="iso-8859-1"?>
<!-- Generator: Adobe Illustrator 19.0.0, SVG Export Plug-In . SVG Version: 6.00 Build 0)  -->
<svg version="1.1" id="Layer_1" xmlns="http://www.w3.org/2000/svg" xmlns:xlink="http://www.w3.org/1999/xlink" x="0px" y="0px"
	 viewBox="0 0 445.357 445.357" style="enable-background:new 0 0 445.357 445.357;" xml:space="preserve">
<g>
	<path style="fill:#FC7A51;" d="M269.22,264.928c0,17-10.58,31.52-25.51,37.34c-4.51,1.76-9.42,2.73-14.55,2.73
		c-22.13,0-40.07-17.94-40.07-40.07c0-19.121,13.399-35.11,31.32-39.1c2.82-0.63,5.74-0.96,8.75-0.96
		C251.28,224.867,269.22,242.798,269.22,264.928"/>
	<path style="fill:#FDA589;" d="M229.16,224.867c-3.01,0-5.93,0.33-8.75,0.96l23.3,76.44c14.93-5.82,25.51-20.34,25.51-37.34
		C269.22,242.798,251.28,224.867,229.16,224.867"/>
	<path style="fill:#86D359;" d="M128.26,267.217c0,26.8-16.44,49.76-39.79,59.341c-7.5,3.09-15.719,4.79-24.34,4.79
		c-35.42,0-64.13-28.71-64.13-64.13c0-30.99,22-56.86,51.24-62.83c4.16-0.84,8.469-1.29,12.89-1.29
		C99.55,203.097,128.26,231.808,128.26,267.217"/>
	<path style="fill:#ADE18E;" d="M64.13,203.097c-4.42,0-8.73,0.45-12.89,1.29l37.229,122.17c23.35-9.581,39.79-32.54,39.79-59.341
		C128.26,231.808,99.55,203.097,64.13,203.097"/>
	<path style="fill:#B3B3B3;" d="M384.134,328.444c-33.758,0-61.223-27.464-61.223-61.222S350.376,206,384.134,206
		s61.223,27.464,61.223,61.222S417.892,328.444,384.134,328.444z M384.134,218.999c-26.59,0-48.223,21.633-48.223,48.222
		s21.633,48.222,48.223,48.222s48.223-21.633,48.223-48.222S410.724,218.999,384.134,218.999z"/>
	<path style="fill:#29ABE2;" d="M397.684,236.741l-3.611,3.991l15.372,13.908h-50.62l15.372-13.908l-3.611-3.991l-21.74,19.669
		l10.026,41.292h10.105h30.318h10.104l10.026-41.292L397.684,236.741z M381.442,267.167h-11.138l-0.96-7.144h12.098V267.167z
		 M386.825,260.023h12.098l-0.959,7.144h-11.138L386.825,260.023L386.825,260.023z M364.873,267.167h-7.878l-1.735-7.144h8.653
		L364.873,267.167z M358.302,272.55h7.294l1.012,7.536h-6.477L358.302,272.55z M371.027,272.55h10.415v7.536h-9.403L371.027,272.55z
		 M386.825,272.55h10.415l-1.012,7.536h-9.403V272.55z M402.671,272.55h7.294l-1.83,7.536h-6.477L402.671,272.55z M403.394,267.167
		l0.96-7.144h8.653l-1.735,7.144H403.394z M363.102,292.319l-1.664-6.851h5.893l0.92,6.851H363.102z M372.763,285.469h8.68v6.851
		h-7.76L372.763,285.469z M386.825,292.319v-6.851h8.68l-0.92,6.851H386.825z M400.016,292.319l0.92-6.851h5.893l-1.664,6.851
		H400.016z"/>
	<path style="fill:#FFFFFF;" d="M87.394,282.716c0-12.828-10.436-23.264-23.264-23.264c-4.262,0-7.729-3.467-7.729-7.729
		c0-4.262,3.467-7.729,7.729-7.729h15.497V228.46h-7.733v-13.334H56.359v14.698c-9.012,3.208-15.493,11.801-15.493,21.9
		c0,12.827,10.436,23.263,23.263,23.263c4.262,0,7.73,3.467,7.73,7.729s-3.468,7.729-7.73,7.729H48.634v15.534h7.726v13.338h15.534
		v-14.698C80.909,301.413,87.394,292.818,87.394,282.716z"/>
	<path style="fill:#FCD18B;" d="M286.76,352.297c-3.66-3.77-9.69-3.82-13.4-0.11l-13.16,13.17c-7.57,7.56-20.5,2.2-20.5-8.49
		v-80.072c0-4.951-3.723-9.268-8.661-9.623c-2.85-0.205-5.461,0.876-7.289,2.715c-1.7,1.69-2.74,4.03-2.74,6.61v40.98
		c0-2.52-0.99-4.81-2.62-6.5c-0.63-0.67-1.37-1.24-2.17-1.7c-1.36-0.77-2.94-1.21-4.62-1.21c-2.6,0-4.94,1.05-6.65,2.76
		c-1.7,1.7-2.75,4.05-2.75,6.65v3.2c0-2.52-1-4.81-2.61-6.5c-0.67-0.71-1.46-1.31-2.32-1.78c-1.33-0.72-2.86-1.13-4.48-1.13
		c-2.6,0-4.95,1.05-6.65,2.75c-1.7,1.71-2.76,4.06-2.76,6.66v7.88c0-2.52-0.99-4.82-2.61-6.5l-0.14-0.15
		c-0.51-0.51-1.07-0.96-1.69-1.34c-1.75-1.102-3.92-1.634-6.197-1.34c-4.736,0.611-8.173,4.846-8.173,9.622v45.959
		c0,2.87,0.49,5.7,1.43,8.37c0.95,2.67,2.35,5.18,4.16,7.41l0.072,0.088c5.454,6.66,8.662,14.871,8.662,23.479v16.198h60.932
		v-13.932c0-6.245,3.554-11.871,9.076-14.787l0.088-0.047c5.58-2.98,10.66-6.88,15-11.58l20.53-22.22l2.39-2.58
		c1.14-1.23,1.89-2.7,2.23-4.24C289.86,357.957,289.06,354.667,286.76,352.297z"/>
	<path style="fill:#DDB57A;" d="M183.382,328.554v20.898c0,0.722-0.587,1.301-1.309,1.301c-0.722,0-1.302-0.579-1.302-1.301v-27.398
		C182.389,323.739,183.382,326.034,183.382,328.554z"/>
	<path style="fill:#DDB57A;" d="M202.197,320.677v23.712c0,0.722-0.587,1.309-1.309,1.309c-0.722,0-1.301-0.587-1.301-1.309v-30.212
		C201.204,315.87,202.197,318.157,202.197,320.677z"/>
	<path style="fill:#DDB57A;" d="M221.011,317.48v30.234c0,0.722-0.587,1.309-1.309,1.309c-0.722,0-1.309-0.587-1.309-1.309V310.98
		C220.019,312.665,221.011,314.952,221.011,317.48z"/>
	<path style="fill:#FFFFFF;" d="M236.355,276.485c0-3.314-2.686-6-6-6s-6,2.686-6,6s2.686,3.489,6,3.489
		S236.355,279.799,236.355,276.485z"/>
	<path style="fill:#FFFFFF;" d="M289.14,360.967c-0.34,1.54-1.09,3.01-2.23,4.24l-2.39,2.58l-6.71-6.72
		C280.93,357.947,285.97,357.907,289.14,360.967z"/>
	<path style="fill:#999999;" d="M264.719,66.133v-7h-66.597c-18.49,0-35.372,10.504-43.543,27.09
		c-1.376,2.786-2.038,5.771-2.035,8.663c0.007,5.197,2.066,10.047,5.536,13.651c1.738,1.803,3.846,3.299,6.239,4.342
		c2.391,1.044,5.068,1.626,7.853,1.623h118.495c2.785,0.002,5.462-0.579,7.853-1.623c3.593-1.568,6.53-4.142,8.568-7.265
		c2.038-3.124,3.206-6.833,3.207-10.728c0.003-2.892-0.659-5.876-2.033-8.661c-8.172-16.588-25.054-27.091-43.543-27.091V66.133v7
		c13.156,0,25.17,7.474,30.984,19.276c0.424,0.868,0.59,1.675,0.593,2.476c0.007,1.424-0.596,2.883-1.613,3.932
		c-0.506,0.524-1.098,0.94-1.758,1.228c-0.662,0.286-1.39,0.455-2.258,0.457H172.173c-0.868-0.002-1.596-0.17-2.258-0.457
		c-0.986-0.429-1.836-1.159-2.439-2.084c-0.604-0.924-0.933-2.005-0.931-3.076c0.003-0.801,0.169-1.607,0.594-2.476
		c5.813-11.802,17.828-19.277,30.984-19.277h66.597v-6.999H264.719z"/>
	<path style="fill:#999999;" d="M238.421,66.133L238.421,66.133c0-9.091-4.227-17.739-11.594-23.226
		c-0.948-0.705-1.732-1.628-2.272-2.679c-0.539-1.054-0.842-2.224-0.844-3.513c0-0.171,0.005-0.334,0.015-0.489l0.008-0.123
		l-0.007,0.106c0.115-1.876,0.939-3.608,2.258-4.931c1.322-1.318,3.055-2.142,4.931-2.258c0.171-0.011,0.339-0.016,0.504-0.016
		c1.083,0.001,2.08,0.216,2.999,0.603c1.375,0.58,2.566,1.567,3.398,2.801c0.832,1.239,1.31,2.684,1.313,4.305h14
		c0.001-2.978-0.608-5.852-1.709-8.453c-1.653-3.905-4.397-7.205-7.858-9.545c-3.456-2.34-7.671-3.714-12.142-3.712
		c-0.456,0-0.914,0.014-1.373,0.043c-5.448,0.339-10.358,2.724-13.962,6.331c-3.607,3.603-5.992,8.514-6.331,13.963l0.001-0.016
		c-0.031,0.475-0.044,0.938-0.044,1.388c-0.002,3.547,0.862,6.94,2.39,9.91c1.528,2.973,3.712,5.536,6.366,7.513
		c3.739,2.778,5.952,7.242,5.953,11.995l0,0h14V66.133z"/>
	<rect x="137.03" y="265.307" style="fill:#2BE0C6;" width="30" height="9"/>
	<rect x="285.53" y="265.307" style="fill:#2BE0C6;" width="30" height="9"/>
	<rect x="224.657" y="138.129" style="fill:#2BE0C6;" width="9" height="64.678"/>
	
		<rect x="315.138" y="108.41" transform="matrix(-0.7071 -0.7071 0.7071 -0.7071 422.031 524.4751)" style="fill:#2BE0C6;" width="8.999" height="132.845"/>
	
		<rect x="73.018" y="170.649" transform="matrix(-0.7071 -0.7071 0.7071 -0.7071 113.4395 397.2858)" style="fill:#2BE0C6;" width="131.964" height="8.999"/>
	<path style="fill:#808080;" d="M396.886,106.948l26.241,26.241c2.343,2.343,6.142,2.343,8.485,0s2.343-6.142,0-8.485
		l-26.241-26.241c-2.343-2.343-6.142-2.343-8.485,0C394.543,100.805,394.543,104.604,396.886,106.948"/>
	<path style="fill:#29ABE2;" d="M405.725,107.301c-12.485,12.485-32.799,12.485-45.284,0s-12.485-32.799,0-45.284
		s32.8-12.485,45.285,0C418.21,74.501,418.21,94.816,405.725,107.301z M369.633,71.209c-7.416,7.416-7.416,19.483,0,26.899
		c7.417,7.416,19.483,7.417,26.899,0c7.417-7.416,7.417-19.484,0-26.9C389.117,63.793,377.049,63.793,369.633,71.209z"/>
	<path style="fill:#F9DE58;" d="M86.53,122.815h-52v-52h52V122.815z M42.53,114.815h36v-36h-36V114.815z"/>
	<path style="fill:#F9DE58;" d="M76.08,74.815h-8v-22.45c0-2.021-0.784-3.917-2.208-5.342c-1.425-1.424-3.321-2.208-5.342-2.208
		c-4.163,0-7.55,3.387-7.55,7.55v22.45h-8v-22.45c0-8.574,6.976-15.55,15.55-15.55c4.157,0,8.063,1.616,10.998,4.552
		c2.936,2.935,4.552,6.841,4.552,10.999V74.815z"/>
</g>
<g>
</g>
<g>
</g>
<g>
</g>
<g>
</g>
<g>
</g>
<g>
</g>
<g>
</g>
<g>
</g>
<g>
</g>
<g>
</g>
<g>
</g>
<g>
</g>
<g>
</g>
<g>
</g>
<g>
</g>
</svg>
