<?xml version="1.0" encoding="iso-8859-1"?>
<!-- Generator: Adobe Illustrator 19.0.0, SVG Export Plug-In . SVG Version: 6.00 Build 0)  -->
<svg version="1.1" id="Layer_1" xmlns="http://www.w3.org/2000/svg" xmlns:xlink="http://www.w3.org/1999/xlink" x="0px" y="0px"
	 viewBox="0 0 455.378 455.378" style="enable-background:new 0 0 455.378 455.378;" xml:space="preserve">
<g>
	<path style="fill:#808080;" d="M426.503,106.763V325.3H28.875V106.763c0-13.86,11.231-25.102,25.102-25.102h347.424
		C415.261,81.661,426.503,92.903,426.503,106.763"/>
	<polyline style="fill:#FFFFFF;" points="56.371,297.798 56.371,109.159 399.001,109.159 399.001,297.798 56.371,297.798 	"/>
	<path style="fill:#29ABE2;" d="M321.289,144.99l-8.118,8.972l34.555,31.264H233.935l34.555-31.264l-8.118-8.972l-48.869,44.215
		l22.538,92.821h22.714h68.152h22.714l22.538-92.821L321.289,144.99 M284.78,213.386h-25.037l-2.157-16.06h27.195v16.06
		 M296.88,197.326h27.195l-2.157,16.06H296.88V197.326 M247.534,213.386h-17.709l-3.899-16.06h19.451L247.534,213.386
		 M232.763,225.486h16.396l2.276,16.94h-14.559L232.763,225.486 M261.368,225.486h23.412v16.94h-21.137L261.368,225.486
		 M296.88,225.486h23.412l-2.275,16.94H296.88V225.486 M332.501,225.486h16.396l-4.113,16.94h-14.559L332.501,225.486
		 M334.126,213.386l2.157-16.06h19.451l-3.9,16.06H334.126 M243.553,269.926l-3.739-15.4h13.246l2.069,15.4H243.553
		 M265.269,254.526h19.511v15.4h-17.443L265.269,254.526 M296.88,269.926v-15.4h19.511l-2.069,15.4H296.88 M326.531,269.926
		l2.069-15.4h13.246l-3.739,15.4H326.531"/>
	<rect x="76.307" y="132.976" style="fill:#CCCCCC;" width="117.7" height="26.4"/>
	<rect x="76.307" y="171.476" style="fill:#E6E6E6;" width="117.7" height="108.552"/>
	<path style="fill:#A9A9A9;" d="M401.401,81.661H186.439l8.38,27.498h204.182v188.639H252.308l7.772,25.502h166.423V106.763
		C426.503,92.903,415.261,81.661,401.401,81.661"/>
	<path style="fill:#FFFFFF;" d="M253.06,254.526h-13.246l2.719,11.196l1.281,4.204h11.315L253.06,254.526 M284.78,254.526h-19.511
		l2.068,15.4h17.443V254.526 M316.391,254.526H296.88v15.4h17.443L316.391,254.526 M341.846,254.526H328.6l-2.069,15.4h11.576
		L341.846,254.526 M249.159,225.486h-16.396l4.113,16.94h14.559L249.159,225.486 M284.78,225.486h-23.412l2.276,16.94h21.137v-16.94
		 M320.292,225.486H296.88v16.94h21.137L320.292,225.486 M348.898,225.486h-16.396l-2.276,16.94h14.559L348.898,225.486
		 M245.377,197.326h-19.451l3.899,16.06h17.709L245.377,197.326 M284.78,197.326h-27.195l2.157,16.06h25.037v-16.06
		 M324.075,197.326H296.88v16.06h25.037L324.075,197.326 M355.735,197.326h-19.451l-2.157,16.06h17.709L355.735,197.326
		 M399.001,109.159H194.819l22.728,74.577l42.824-38.746l8.118,8.972l-34.555,31.264h113.791l-34.555-31.264l8.118-8.972
		l48.869,44.215l-22.538,92.821h-22.714h-68.152H247.5l4.807,15.772h146.694L399.001,109.159"/>
	<path style="fill:#6EC6EB;" d="M267.337,269.926l-2.068-15.4h19.511v15.4H267.337 M296.88,269.926v-15.4h19.511l-2.069,15.4H296.88
		 M326.531,269.926l2.069-15.4h13.246l-3.739,15.4H326.531 M236.876,242.426l-4.113-16.94h16.396l2.276,16.94H236.876
		 M263.644,242.426l-2.276-16.94h23.412v16.94H263.644 M296.88,242.426v-16.94h23.412l-2.275,16.94H296.88 M330.225,242.426
		l2.276-16.94h16.396l-4.113,16.94H330.225 M229.825,213.386l-3.899-16.06h19.451l2.157,16.06H229.825 M259.743,213.386
		l-2.157-16.06h27.195v16.06H259.743 M296.88,213.386v-16.06h27.195l-2.157,16.06H296.88 M334.126,213.386l2.157-16.06h19.451
		l-3.9,16.06H334.126 M321.289,144.99l-8.118,8.972l34.555,31.264H233.935l34.555-31.264l-8.118-8.972l-42.824,38.746l24.986,81.987
		l-2.719-11.196h13.246l2.069,15.4h-11.315l3.688,12.1h9.253h68.152h22.714l22.538-92.821L321.289,144.99"/>
	<path style="fill:#FC7A51;" d="M455.378,323.3c0,17.314-14.036,31.35-31.35,31.35H31.35c-8.657,0-16.489-3.509-22.165-9.185
		C3.509,339.8,0,331.957,0,323.3H455.378"/>
	<rect x="40.146" y="259.676" style="fill:#F9DE58;" width="92.261" height="109.271"/>
	<rect x="108.207" y="259.676" style="fill:#E0BF20;" width="24.2" height="108.9"/>
	<rect x="40.146" y="259.676" style="fill:#E0BF20;" width="12.1" height="108.9"/>
	<rect x="78.924" y="354.646" style="fill:#F9DE58;" width="92.261" height="19.071"/>
	<rect x="146.985" y="354.646" style="fill:#E0BF20;" width="24.2" height="19.006"/>
	<rect x="78.924" y="354.646" style="fill:#E0BF20;" width="12.1" height="19.006"/>
	<path style="fill:#FDA589;" d="M455.378,323.3h-28.875H260.08h-30.466l9.559,31.35h184.855
		C441.342,354.65,455.378,340.614,455.378,323.3"/>
</g>
<g>
</g>
<g>
</g>
<g>
</g>
<g>
</g>
<g>
</g>
<g>
</g>
<g>
</g>
<g>
</g>
<g>
</g>
<g>
</g>
<g>
</g>
<g>
</g>
<g>
</g>
<g>
</g>
<g>
</g>
</svg>
