<?xml version="1.0" encoding="iso-8859-1"?>
<!-- Generator: Adobe Illustrator 19.0.0, SVG Export Plug-In . SVG Version: 6.00 Build 0)  -->
<svg version="1.1" id="Layer_1" xmlns="http://www.w3.org/2000/svg" xmlns:xlink="http://www.w3.org/1999/xlink" x="0px" y="0px"
	 viewBox="0 0 428.262 428.262" style="enable-background:new 0 0 428.262 428.262;" xml:space="preserve">
<g>
	<path style="fill:#29ABE2;" d="M386.104,32.718V274.26c0,10.445-8.468,18.912-18.912,18.912H18.912
		C8.467,293.172,0,284.705,0,274.26V32.718c0-11.954,9.69-21.644,21.644-21.644H364.46
		C376.414,11.074,386.104,20.764,386.104,32.718"/>
	<polyline style="fill:#E6E6E6;" points="26.269,266.901 26.269,37.342 359.842,37.342 359.842,266.901 26.269,266.901 	"/>
	<polyline style="fill:#2496B5;" points="239.286,322.076 146.826,322.076 146.826,293.168 239.286,293.168 239.286,322.076 	"/>
	<path style="fill:#29ABE2;" d="M308.791,340.987H77.322c0-5.22,2.12-9.95,5.54-13.37c3.42-3.42,8.15-5.54,13.37-5.54h193.65
		C300.332,322.077,308.791,330.547,308.791,340.987"/>
	<polyline style="fill:#6EC6EB;" points="178.412,322.077 157.802,322.077 163.562,340.987 178.412,340.987 178.412,322.077 	"/>
	<polyline style="fill:#FFFFFF;" points="219.762,266.901 47.27,266.901 47.27,115.179 219.762,115.179 219.762,266.901 	"/>
	<polyline style="fill:#FC7A51;" points="339.756,85.642 237.172,85.642 237.172,72.72 339.756,72.72 339.756,85.642 	"/>
	<polyline style="fill:#29ABE2;" points="339.756,106 237.172,106 237.172,93.078 339.756,93.078 339.756,106 	"/>
	<polyline style="fill:#FC7A51;" points="47.27,93.078 219.762,93.078 219.762,106 47.27,106 47.27,93.078 	"/>
	<polyline style="fill:#29ABE2;" points="64.527,241.885 202.505,241.885 202.505,254.807 64.527,254.807 64.527,241.885 	"/>
	<polyline style="fill:#29ABE2;" points="47.27,72.72 219.762,72.72 219.762,85.642 47.27,85.642 47.27,72.72 	"/>
	<polyline style="fill:#29ABE2;" points="339.756,128.101 237.172,128.101 237.172,115.179 339.756,115.179 339.756,128.101 	"/>
	<polyline style="fill:#29ABE2;" points="269.172,208.886 237.172,208.886 237.172,195.964 269.172,195.964 269.172,208.886 	"/>
	<polyline style="fill:#29ABE2;" points="269.172,233.187 237.172,233.187 237.172,220.265 269.172,220.265 269.172,233.187 	"/>
	<polyline style="fill:#29ABE2;" points="339.756,257.488 237.172,257.488 237.172,244.566 339.756,244.566 339.756,257.488 	"/>
	<path style="fill:#CCCCCC;" d="M321.889,188.288l-2.968,3.28l12.632,11.43h-41.601l12.633-11.43l-2.968-3.28l-17.866,16.165
		l8.24,33.935h8.304h24.916h8.304l8.24-33.935L321.889,188.288 M308.542,213.293h-9.153l-0.789-5.872h9.942L308.542,213.293
		 M312.965,207.421h9.943l-0.789,5.872h-9.154V207.421 M294.924,213.293h-6.474l-1.426-5.872h7.111L294.924,213.293
		 M289.524,217.717h5.994l0.832,6.193h-5.323L289.524,217.717 M299.983,217.717h8.559v6.193h-7.727L299.983,217.717
		 M312.965,217.717h8.559l-0.832,6.193h-7.728v-6.193 M325.989,217.717h5.994l-1.504,6.193h-5.323L325.989,217.717 M326.582,213.293
		l0.789-5.872h7.112l-1.426,5.872H326.582 M293.469,233.964l-1.367-5.63h4.843l0.756,5.63H293.469 M301.409,228.333h7.133v5.63
		h-6.377L301.409,228.333 M312.965,233.964v-5.63h7.134l-0.757,5.63H312.965 M323.806,233.964l0.756-5.63h4.843l-1.367,5.63H323.806
		"/>
	<polyline style="fill:#FC7A51;" points="102.868,221.175 78.281,194.539 67.873,208.664 59.823,202.732 77.415,178.858 
		100.827,204.221 137.597,137.831 165.624,182.874 198.487,124.253 207.209,129.143 166.072,202.523 138.099,157.565 
		102.868,221.175 	"/>
	<polyline style="fill:#FC7A51;" points="281.831,137.28 237.172,137.28 237.172,176.516 281.831,176.516 281.831,137.28 	"/>
	<polyline style="fill:#2BE0C6;" points="339.756,137.28 295.096,137.28 295.096,176.516 339.756,176.516 339.756,137.28 	"/>
	<polyline style="fill:#CCCCCC;" points="359.842,61.747 26.269,61.747 26.269,37.342 359.842,37.342 359.842,61.747 	"/>
	<circle style="fill:#FC7A51;" cx="41.838" cy="49.544" r="6"/>
	<circle style="fill:#F9DE58;" cx="60.505" cy="49.544" r="6"/>
	<path style="fill:#6EC6EB;" d="M364.46,11.074H123.865l8.006,26.267h227.972v24.405v168.06h26.263V32.718
		C386.104,20.764,376.414,11.074,364.46,11.074"/>
	<path style="fill:#EEEEEE;" d="M296.945,228.333h-4.843l0.358,1.474h4.683L296.945,228.333 M308.542,228.333h-7.133l0.198,1.474
		h6.935V228.333 M320.099,228.333h-7.134v1.474h6.936L320.099,228.333 M329.405,228.333h-4.843l-0.198,1.474h4.683L329.405,228.333
		 M295.519,217.717h-5.994l1.504,6.193h5.323L295.519,217.717 M308.542,217.717h-8.559l0.832,6.193h7.727V217.717 M321.525,217.717
		h-8.559v6.193h7.728L321.525,217.717 M331.983,217.717h-5.994l-0.832,6.193h5.323L331.983,217.717 M294.136,207.421h-7.111
		l1.426,5.872h6.474L294.136,207.421 M308.542,207.421H298.6l0.789,5.872h9.153V207.421 M322.908,207.421h-9.943v5.872h9.154
		L322.908,207.421 M334.483,207.421h-7.112l-0.789,5.872h6.475L334.483,207.421 M237.172,208.886v-12.922h32v12.922H237.172
		 M237.172,176.516V137.28h44.66v39.236L237.172,176.516 M295.096,176.516V137.28h44.66v39.236L295.096,176.516 M237.172,128.101
		v-12.922h102.584v12.922H237.172 M237.172,106V93.078h102.584V106H237.172 M237.172,85.642V72.72h102.584v12.922H237.172
		 M359.842,61.747H139.308l3.344,10.973h77.109v12.922H146.59l2.266,7.436h70.904V106h-66.966l2.798,9.179h64.168v114.628h17.41
		v-9.542h32v9.542h18.736l-6.156-25.354l17.866-16.165l2.968,3.28l-12.633,11.43h41.601l-12.632-11.43l2.968-3.28l17.866,16.165
		l-6.156,25.354h26.242V61.747"/>
	<path style="fill:#FFFFFF;" d="M219.762,115.179h-64.168l16.898,55.444l25.995-46.37l8.722,4.89l-30.68,54.727l14.059,46.128
		c0.769-0.126,1.559-0.191,2.364-0.191h26.81V115.179"/>
	<polyline style="fill:#FDA589;" points="339.756,72.72 237.172,72.72 237.172,85.642 339.756,85.642 339.756,72.72 	"/>
	<polyline style="fill:#6EC6EB;" points="339.756,93.078 237.172,93.078 237.172,106 339.756,106 339.756,93.078 	"/>
	<polyline style="fill:#FDA589;" points="219.762,93.078 148.857,93.078 152.796,106 219.762,106 219.762,93.078 	"/>
	<polyline style="fill:#6EC6EB;" points="219.762,72.72 142.653,72.72 146.591,85.642 219.762,85.642 219.762,72.72 	"/>
	<polyline style="fill:#6EC6EB;" points="339.756,115.179 237.172,115.179 237.172,128.101 339.756,128.101 339.756,115.179 	"/>
	<polyline style="fill:#6EC6EB;" points="269.172,195.964 237.172,195.964 237.172,208.886 269.172,208.886 269.172,195.964 	"/>
	<polyline style="fill:#6EC6EB;" points="269.172,220.265 237.172,220.265 237.172,229.807 263.252,229.807 269.172,229.807 
		269.172,220.265 	"/>
	<path style="fill:#DCDCDC;" d="M291.028,223.91l-1.504-6.193h5.994l0.832,6.193H291.028 M300.814,223.91l-0.832-6.193h8.559v6.193
		H300.814 M312.965,223.91v-6.193h8.559l-0.832,6.193H312.965 M325.156,223.91l0.832-6.193h5.994l-1.504,6.193H325.156
		 M288.45,213.293l-1.426-5.872h7.111l0.789,5.872H288.45 M299.388,213.293l-0.789-5.872h9.942v5.872H299.388 M312.965,213.293
		v-5.872h9.943l-0.789,5.872H312.965 M326.582,213.293l0.789-5.872h7.112l-1.426,5.872H326.582 M321.889,188.288l-2.968,3.28
		l12.632,11.43h-41.601l12.633-11.43l-2.968-3.28l-17.866,16.165l6.156,25.354h4.552l-0.358-1.474h4.843l0.198,1.474h4.464
		l-0.198-1.474h7.133v1.474h4.424v-1.474h7.134l-0.198,1.474h4.464l0.198-1.474h4.843l-0.358,1.474h4.552l6.156-25.354
		L321.889,188.288"/>
	<polyline style="fill:#FDA589;" points="198.487,124.253 172.492,170.623 176.529,183.87 207.209,129.143 198.487,124.253 	"/>
	<polyline style="fill:#FDA589;" points="281.831,137.28 237.172,137.28 237.172,176.516 281.831,176.516 281.831,137.28 	"/>
	<polyline style="fill:#6FEAD8;" points="339.756,137.28 295.096,137.28 295.096,176.516 339.756,176.516 339.756,137.28 	"/>
	<polyline style="fill:#DCDCDC;" points="359.842,37.342 131.87,37.342 139.308,61.747 359.842,61.747 359.842,37.342 	"/>
	<path style="fill:#808080;" d="M428.262,244.347v158.3c0,8.03-6.51,14.541-14.55,14.541h-220.76c-8.03,0-14.54-6.51-14.54-14.541
		v-158.3c0-8.03,6.51-14.54,14.54-14.54h220.76C421.751,229.807,428.262,236.317,428.262,244.347"/>
	<polyline style="fill:#E6E6E6;" points="210.965,245.057 403.627,245.057 403.627,401.941 210.965,401.941 210.965,245.057 	"/>
	<path style="fill:#4D4D4D;" d="M201.291,323.498c0,3.842-2.733,7.044-6.364,7.766c-0.504,0.1-1.021,0.152-1.554,0.152
		c-4.37,0-7.918-3.542-7.918-7.918c0-3.291,2.018-6.117,4.88-7.314c0.932-0.387,1.959-0.604,3.038-0.604
		C197.748,315.58,201.291,319.129,201.291,323.498"/>
	<path style="fill:#ADADAD;" d="M193.373,315.58c-1.079,0-2.106,0.217-3.038,0.604l4.592,15.079c3.63-0.721,6.364-3.924,6.364-7.766
		C201.291,319.129,197.748,315.58,193.373,315.58"/>
	<polyline style="fill:#FFFFFF;" points="392.762,401.941 220.27,401.941 220.27,295.05 392.762,295.05 392.762,401.941 	"/>
	<polyline style="fill:#FC7A51;" points="220.27,272.949 392.762,272.949 392.762,285.871 220.27,285.871 220.27,272.949 	"/>
	<polyline style="fill:#29ABE2;" points="220.27,252.592 392.762,252.592 392.762,265.514 220.27,265.514 220.27,252.592 	"/>
	<polyline style="fill:#29ABE2;" points="234.861,381.714 378.172,381.714 378.172,394.636 234.861,394.636 234.861,381.714 	"/>
	<polyline style="fill:#FC7A51;" points="285.151,374.025 268.01,355.456 260.755,365.303 255.143,361.168 267.406,344.524 
		283.728,362.206 309.361,315.924 328.899,347.324 351.809,306.459 357.89,309.867 329.212,361.022 309.711,329.681 
		285.151,374.025 	"/>
	<path style="fill:#A9A9A9;" d="M413.712,229.807H333.6h-4.552h-4.683h-4.464h-6.936h-4.424h-6.935h-4.464h-4.683h-4.552h-18.736
		h-5.92l4.648,15.25h135.727v156.884h-87.912l4.647,15.246h93.35c8.04,0,14.55-6.51,14.55-14.541v-158.3
		C428.262,236.317,421.751,229.807,413.712,229.807"/>
	<polyline style="fill:#EEEEEE;" points="403.627,245.057 267.9,245.057 270.196,252.592 392.762,252.592 392.762,265.514 
		274.134,265.514 276.401,272.949 392.762,272.949 392.762,285.871 280.339,285.871 283.137,295.05 392.762,295.05 392.762,401.941 
		315.715,401.941 403.627,401.941 403.627,245.057 	"/>
	<polyline style="fill:#FFFFFF;" points="392.762,295.05 283.137,295.05 296.549,339.057 309.361,315.924 328.899,347.324 
		351.809,306.459 357.89,309.867 329.212,361.022 309.711,329.681 299.378,348.338 309.55,381.714 378.172,381.714 378.172,394.636 
		313.489,394.636 315.715,401.941 392.762,401.941 392.762,295.05 	"/>
	<polyline style="fill:#FDA589;" points="392.762,272.949 276.401,272.949 280.339,285.871 392.762,285.871 392.762,272.949 	"/>
	<polyline style="fill:#6EC6EB;" points="392.762,252.592 270.196,252.592 274.134,265.514 392.762,265.514 392.762,252.592 	"/>
	<polyline style="fill:#6EC6EB;" points="378.172,381.714 309.55,381.714 313.489,394.636 378.172,394.636 378.172,381.714 	"/>
	<polyline style="fill:#FDA589;" points="351.809,306.459 328.899,347.324 309.361,315.924 296.549,339.057 299.378,348.338 
		309.711,329.681 329.212,361.022 357.89,309.867 351.809,306.459 	"/>
</g>
<g>
</g>
<g>
</g>
<g>
</g>
<g>
</g>
<g>
</g>
<g>
</g>
<g>
</g>
<g>
</g>
<g>
</g>
<g>
</g>
<g>
</g>
<g>
</g>
<g>
</g>
<g>
</g>
<g>
</g>
</svg>
