<?xml version="1.0" encoding="iso-8859-1"?>
<!-- Generator: Adobe Illustrator 19.0.0, SVG Export Plug-In . SVG Version: 6.00 Build 0)  -->
<svg version="1.1" id="Layer_1" xmlns="http://www.w3.org/2000/svg" xmlns:xlink="http://www.w3.org/1999/xlink" x="0px" y="0px"
	 viewBox="0 0 455.377 455.377" style="enable-background:new 0 0 455.377 455.377;" xml:space="preserve">
<g>
	<polyline style="fill:#F4D521;" points="434.206,291.263 426.505,283.409 425.692,297.159 434.206,291.263 	"/>
	<polyline style="fill:#F4D521;" points="434.162,113.811 425.474,108.177 422.241,117.669 434.162,113.811 	"/>
	<path style="fill:#2BE0C6;" d="M455.377,333.831H0v2.85c0,15.739,12.759,28.498,28.498,28.498h398.38
		c15.739,0,28.499-12.759,28.499-28.498L455.377,333.831"/>
	<path style="fill:#808080;" d="M426.505,115.296v218.537H28.877V115.296c0-13.86,11.231-25.102,25.102-25.102h347.424
		C415.263,90.194,426.505,101.436,426.505,115.296"/>
	<polyline style="fill:#FFFFFF;" points="56.373,306.331 56.373,117.692 399.004,117.692 399.004,306.331 56.373,306.331 	"/>
	<polygon style="fill:#F4D521;" points="21.178,144.963 28.877,136.009 28.603,147.592 	"/>
	<polygon style="fill:#999999;" points="21.178,247.362 28.877,238.309 29.208,244.777 	"/>
	<path style="fill:#29ABE2;" d="M171.158,264.342h22.714h68.152h22.714l23.768-96.8H147.39L171.158,264.342 M221.898,195.702
		h-25.037l-2.157-16.06h27.195L221.898,195.702 M233.999,179.642h27.195l-2.157,16.06H234L233.999,179.642 M184.652,195.702h-17.709
		l-3.9-16.06h19.452L184.652,195.702 M169.881,207.802h16.396l2.275,16.94h-14.559L169.881,207.802 M198.486,207.802h23.412v16.94
		h-21.136L198.486,207.802 M233.999,207.802h23.412l-2.275,16.94H234L233.999,207.802 M269.619,207.802h16.396l-4.113,16.94h-14.559
		L269.619,207.802 M271.245,195.702l2.158-16.06h19.451l-3.899,16.06H271.245 M180.672,252.243l-3.739-15.4h13.246l2.069,15.4
		H180.672 M202.387,236.842h19.511v15.4h-17.443L202.387,236.842 M233.999,252.243v-15.4h19.511l-2.069,15.4H233.999
		 M263.65,252.243l2.069-15.4h13.246l-3.739,15.4H263.65"/>
	<polygon style="fill:#29ABE2;" points="147.391,167.542 159.85,167.542 151.297,132.709 114.078,132.709 114.078,144.809 
		141.809,144.809 	"/>
	<circle style="fill:#29ABE2;" cx="202.509" cy="285.514" r="13.148"/>
	<path style="fill:#29ABE2;" d="M281.407,285.514c0-7.262-5.887-13.148-13.148-13.148c-7.261,0-13.148,5.887-13.148,13.148
		c0,7.261,5.887,13.148,13.148,13.148C275.52,298.661,281.407,292.775,281.407,285.514"/>
	<path style="fill:#A9A9A9;" d="M401.403,90.194H186.441l8.38,27.498h204.182v188.64H252.31l8.381,27.502h165.814V115.296
		C426.505,101.436,415.263,90.194,401.403,90.194"/>
	<path style="fill:#FFFFFF;" d="M253.51,236.842h-19.511v9.403l1.828,5.997h15.615L253.51,236.842 M278.965,236.842h-13.246
		l-2.069,15.4h11.576L278.965,236.842 M257.41,207.802h-23.412v16.94h21.136L257.41,207.802 M286.016,207.802H269.62l-2.275,16.94
		h14.559L286.016,207.802 M221.898,179.642H213.7l4.894,16.06h3.303v-16.06 M261.193,179.642h-27.195v16.06h25.037L261.193,179.642
		 M292.853,179.642h-19.451l-2.158,16.06h17.709L292.853,179.642 M268.259,298.661c-7.261,0-13.148-5.887-13.148-13.148
		c0-7.262,5.887-13.148,13.148-13.148c7.262,0,13.148,5.887,13.148,13.148S275.52,298.661,268.259,298.661 M399.004,117.692H194.821
		l15.192,49.85h98.493l-23.768,96.8h-22.714h-22.511l12.796,41.989h146.694V117.692"/>
	<path style="fill:#6EC6EB;" d="M263.65,252.243l2.069-15.4h13.246l-3.739,15.4H263.65 M233.999,224.742v-16.94h23.412l-2.275,16.94
		H233.999 M267.344,224.742l2.275-16.94h16.396l-4.113,16.94H267.344 M233.999,195.702v-16.06h27.195l-2.157,16.06H233.999
		 M271.245,195.702l2.158-16.06h19.451l-3.899,16.06H271.245 M308.507,167.542h-98.493l3.688,12.1h8.198v16.06h-3.303L234,246.245
		v-9.403h19.511l-2.069,15.4h-15.615l3.687,12.1h22.511h22.714L308.507,167.542"/>
	<path style="fill:#6EC6EB;" d="M268.259,272.366c-7.261,0-13.148,5.887-13.148,13.148c0,7.261,5.887,13.148,13.148,13.148
		c7.262,0,13.148-5.887,13.148-13.148C281.407,278.252,275.52,272.366,268.259,272.366"/>
	<polygon style="fill:#F9DE58;" points="434.206,291.263 434.206,326.991 409.621,318.279 372.177,305.013 333.292,291.241 
		295.848,277.975 256.963,264.203 219.519,250.937 180.634,237.165 171.823,234.041 171.812,234.041 167.841,232.633 
		143.19,223.899 138.108,222.106 119.584,215.539 104.305,210.127 66.85,196.861 27.965,183.089 21.178,180.68 21.178,144.963 
		28.603,147.592 28.614,147.592 66.058,160.858 104.932,174.63 104.943,174.63 142.387,187.896 172.296,198.489 172.307,198.489 
		180.634,201.448 181.272,201.668 209.256,211.579 218.716,214.934 224.535,216.991 257.601,228.706 295.045,241.972 
		333.941,255.744 371.385,269.01 410.27,282.782 	"/>
	<polygon style="fill:#999999;" points="66.058,160.858 27.965,183.089 21.178,180.68 21.178,151.937 28.603,147.592 
		28.614,147.592 	"/>
	<polygon style="fill:#999999;" points="434.206,291.263 434.206,303.935 409.621,318.279 372.177,305.013 410.27,282.782 	"/>
	<polygon style="fill:#999999;" points="333.292,291.242 295.846,277.978 333.935,255.748 371.381,269.012 	"/>
	<polygon style="fill:#999999;" points="256.961,264.204 219.516,250.939 257.605,228.709 295.05,241.973 	"/>
	<polygon style="fill:#999999;" points="180.63,237.165 143.185,223.901 181.274,201.671 218.72,214.935 	"/>
	<polygon style="fill:#999999;" points="104.3,210.127 66.854,196.863 104.943,174.632 142.389,187.897 	"/>
	<path style="fill:#F9DE58;" d="M434.206,115.296v33.891l-36.487,11.803l-39.259,12.694l-37.796,12.221l-39.248,12.694
		L243.62,210.82l-19.085,6.171l-20.174,6.523l-0.77,0.253h-0.011l-31.757,10.274h-0.011l-5.247,1.694v0.011l-39.248,12.683
		l-37.796,12.232l-39.259,12.694l-29.084,9.405v-35.398l45.826-14.817l39.248-12.694l13.332-4.312l24.464-7.909l28.248-9.141h0.011
		l11-3.553l37.796-12.221l39.248-12.694l37.796-12.221l39.259-12.694l37.796-12.221l39.248-12.694l19.712-6.38
		C434.195,114.306,434.206,114.801,434.206,115.296z"/>
	<polygon style="fill:#999999;" points="67.004,232.545 50.262,273.355 21.178,282.76 21.178,264.346 29.208,244.777 	"/>
	<path style="fill:#999999;" d="M434.206,115.296v33.891l-36.487,11.803l16.731-40.799l19.712-6.38
		C434.195,114.306,434.206,114.801,434.206,115.296z"/>
	<polygon style="fill:#999999;" points="358.463,173.684 320.665,185.907 337.403,145.105 375.201,132.881 	"/>
	<polygon style="fill:#999999;" points="281.413,198.6 243.615,210.824 260.353,170.022 298.151,157.798 	"/>
	<polygon style="fill:#999999;" points="204.364,223.517 166.566,235.741 183.304,194.939 221.102,182.715 	"/>
	<polygon style="fill:#999999;" points="127.315,248.434 89.517,260.658 106.255,219.856 144.053,207.632 	"/>
	<path style="fill:#FFFFFF;" d="M424.497,365.18H239.171l0.001,0.004h184.855C424.183,365.183,424.341,365.182,424.497,365.18"/>
	<path style="fill:#6FEAD8;" d="M455.377,333.833h-28.872H229.613l9.558,31.346h185.326
		C441.595,364.928,455.377,350.99,455.377,333.833L455.377,333.833"/>
	<polyline style="fill:#A9A9A9;" points="426.505,333.833 260.691,333.833 229.613,333.833 426.505,333.833 	"/>
</g>
<g>
</g>
<g>
</g>
<g>
</g>
<g>
</g>
<g>
</g>
<g>
</g>
<g>
</g>
<g>
</g>
<g>
</g>
<g>
</g>
<g>
</g>
<g>
</g>
<g>
</g>
<g>
</g>
<g>
</g>
</svg>
