<?xml version="1.0" encoding="iso-8859-1"?>
<!-- Generator: Adobe Illustrator 19.0.0, SVG Export Plug-In . SVG Version: 6.00 Build 0)  -->
<svg version="1.1" id="Layer_1" xmlns="http://www.w3.org/2000/svg" xmlns:xlink="http://www.w3.org/1999/xlink" x="0px" y="0px"
	 viewBox="0 0 470.538 470.538" style="enable-background:new 0 0 470.538 470.538;" xml:space="preserve">
<g>
	<rect x="86.848" y="198.106" style="fill:#2091AF;" width="27.89" height="47.019"/>
	<path style="fill:#86D359;" d="M81.549,295.312H8.531c-4.712,0-8.531-3.819-8.531-8.531V156.183c0-4.712,3.819-8.531,8.531-8.531
		h73.018c4.712,0,8.531,3.819,8.531,8.531v130.598C90.08,291.493,86.261,295.312,81.549,295.312z"/>
	<rect x="48.887" y="147.652" style="fill:#4D4D4D;" width="22.028" height="147.66"/>
	<path style="fill:#FC7A51;" d="M22.075,166.45c-4.557,0-8.723,1.728-11.866,4.562c-0.047-0.396-0.064-0.792-0.064-1.193
		c0-6.588,5.342-11.93,11.93-11.93s11.93,5.342,11.93,11.93c0,0.401-0.017,0.797-0.064,1.193
		C30.798,168.178,26.631,166.45,22.075,166.45z"/>
	<circle style="fill:#F4D521;" cx="22.075" cy="184.2" r="11.93"/>
	<path style="fill:#808080;" d="M449.032,112.644v217.949c0,11.05-8.97,20.01-20.03,20.01h-303.94c-11.05,0-20.02-8.96-20.02-20.01
		V112.644c0-11.06,8.97-20.02,20.02-20.02h303.94C440.062,92.624,449.032,101.584,449.032,112.644"/>
	<polyline style="fill:#FFFFFF;" points="149.861,113.62 415.114,113.62 415.114,329.616 149.861,329.616 149.861,113.62 	"/>
	<path style="fill:#4D4D4D;" d="M136.541,221.616c0,5.289-3.763,9.698-8.762,10.691c-0.694,0.137-1.405,0.21-2.14,0.21
		c-6.016,0-10.901-4.877-10.901-10.901c0-4.53,2.778-8.422,6.718-10.07c1.284-0.533,2.697-0.832,4.183-0.832
		C131.664,210.715,136.541,215.601,136.541,221.616"/>
	<path style="fill:#ADADAD;" d="M125.64,210.715c-1.486,0-2.899,0.299-4.183,0.832l6.323,20.761
		c4.998-0.993,8.762-5.402,8.762-10.691C136.541,215.601,131.664,210.715,125.64,210.715"/>
	<path style="fill:#29ABE2;" d="M88.68,277.174l-37.228-5.331c-3.391-0.486-5.91-3.39-5.91-6.816v-86.823
		c0-3.426,2.519-6.331,5.91-6.817l37.228-5.33c4.149-0.594,7.862,2.625,7.862,6.817v97.484
		C96.542,274.549,92.829,277.768,88.68,277.174z"/>
	<polygon style="fill:#2091AF;" points="53.542,264.062 53.542,179.17 88.542,174.158 88.542,269.073 	"/>
	<polygon style="fill:#E6E6E6;" points="59.188,360.544 59.188,322.721 30.892,322.721 30.892,360.544 16.862,360.544 
		45.04,388.721 73.218,360.544 	"/>
	<polyline style="fill:#676767;" points="327.117,329.616 217.751,329.616 217.751,350.604 356.812,350.604 333.512,350.604 
		327.117,329.616 	"/>
	<path style="fill:#BDBDBD;" d="M301.961,247.063c-2.385,0.913-4.875,1.609-7.45,2.067h8.08L301.961,247.063 M248.468,222.194
		c-10.969,1.741-20.437,8.631-25.468,18.843c-1.243,2.525-0.225,4.649,0.27,5.445c0.495,0.796,1.951,2.648,4.765,2.648h52.017
		C265.315,246.513,253.292,236.039,248.468,222.194 M244.402,208.696c-8.511,0.212-16.857,1.934-24.661,5.018
		c-8.34,3.3-16.08,8.16-22.74,14.41l-29.819,27.96l30.029,41.08l20.54-12.64v45.093h109.365l-20.259-66.487h-78.822
		c-6.823,0-13.049-3.459-16.653-9.252s-3.956-12.906-0.941-19.026C217.23,221.07,229.767,211.594,244.402,208.696"/>
	<rect x="166.154" y="126.427" style="fill:#E6E6E6;" width="72" height="11.333"/>
	<polyline style="fill:#E6E6E6;" points="398.82,137.761 248.154,137.761 248.154,126.427 398.82,126.427 398.82,137.761 	"/>
	<rect x="166.154" y="143.613" style="fill:#E6E6E6;" width="72" height="11.333"/>
	<polyline style="fill:#A9A9A9;" points="346.542,92.624 254.902,92.624 261.3,113.62 346.542,113.62 346.542,92.624 	"/>
	<polyline style="fill:#FFFFFF;" points="346.542,113.62 261.3,113.62 265.202,126.427 346.542,126.427 346.542,113.62 	"/>
	<path style="fill:#A9A9A9;" d="M449.032,140.764h-33.917v188.853h-58.303v20.987h72.19c11.06,0,20.03-8.96,20.03-20.01V140.764"/>
	<path style="fill:#FFFFFF;" d="M320.582,221.761h-0.253c-5.27,7.12-12.784,12.475-21.5,15.022l3.132,10.28
		c11.266-4.313,20.153-13.443,24.134-24.87C324.294,221.908,322.451,221.761,320.582,221.761 M352.038,137.761h-83.383l8.626,28.309
		c2.611-1.358,5.532-2.2,8.629-2.393c0.469-0.029,0.935-0.044,1.4-0.044c5.545,0,10.768,2.065,14.838,5.889
		c4.349,4.087,6.843,9.854,6.843,15.82v3.963h-14v-3.963c0-2.15-0.863-4.145-2.431-5.619c-1.444-1.357-3.299-2.09-5.279-2.09
		c-0.167,0-0.335,0.005-0.504,0.016c-2.031,0.126-3.878,1.089-5.194,2.538l4.304,14.126c3.67,3.706,6.271,8.375,7.53,13.447h17.476
		c6.21-2.465,12.118-5.939,17.475-10.421c0,3.748-0.501,7.377-1.441,10.827c1.089,0.141,2.167,0.317,3.235,0.529
		c17.625,0.439,34.504,7.347,47.398,19.428l29.819,27.96l-30.02,41.08l-20.549-12.64v45.093h58.303V140.764H360.78
		C357.487,140.764,354.452,139.643,352.038,137.761"/>
	<polyline style="fill:#989898;" points="356.812,329.616 327.117,329.616 333.512,350.604 356.812,350.604 356.812,329.616 	"/>
	<path style="fill:#D2D2D2;" d="M326.095,222.193c-3.981,11.426-12.867,20.557-24.134,24.87l0.63,2.067h43.939
		c2.815,0,4.27-1.852,4.766-2.648c0.495-0.796,1.512-2.92,0.269-5.445C346.534,230.824,337.066,223.934,326.095,222.193
		 M330.164,208.696c14.635,2.899,27.172,12.374,33.96,26.154c3.015,6.12,2.664,13.234-0.941,19.027
		c-3.605,5.793-9.829,9.252-16.653,9.252h-39.673l20.259,66.487h29.695v-45.093l20.549,12.64l30.02-41.08l-29.819-27.96
		C364.668,216.043,347.789,209.135,330.164,208.696"/>
	<path style="fill:#EEEEEE;" d="M346.542,126.427h-81.34l3.453,11.333h83.383c-3.344-2.607-5.496-6.676-5.496-11.247V126.427"/>
	<path style="fill:#838383;" d="M429.002,92.624h-82.46v20.996h68.573v27.144h33.917v-28.12
		C449.032,101.584,440.062,92.624,429.002,92.624"/>
	<path style="fill:#BDBDBD;" d="M415.114,113.62h-68.573v12.807h52.279v11.333h-46.782c2.414,1.882,5.449,3.003,8.744,3.003h54.333
		L415.114,113.62"/>
	<path style="fill:#B2B2B2;" d="M398.82,126.427h-52.279v0.086c0,4.571,2.152,8.639,5.496,11.247h46.782L398.82,126.427"/>
	<path style="fill:#86D359;" d="M456.294,130.761h-95.508c-7.867,0-14.245-6.378-14.245-14.245V82.005
		c0-7.867,6.378-14.244,14.245-14.244h95.508c7.867,0,14.244,6.377,14.244,14.244v34.511
		C470.538,124.383,464.161,130.761,456.294,130.761z"/>
	<path style="fill:#FFFFFF;" d="M393.78,105.025c0,1.02-0.204,1.916-0.612,2.687c-0.408,0.771-0.969,1.417-1.684,1.938
		c-0.714,0.522-1.542,0.918-2.483,1.19s-1.944,0.408-3.01,0.408h-11.666V87.102h12.924c0.839,0,1.599,0.182,2.279,0.544
		c0.68,0.363,1.258,0.833,1.734,1.412s0.844,1.236,1.105,1.973c0.26,0.737,0.391,1.479,0.391,2.228c0,1.179-0.295,2.285-0.884,3.316
		c-0.59,1.032-1.451,1.797-2.585,2.296c1.383,0.408,2.477,1.139,3.282,2.193C393.377,102.117,393.78,103.438,393.78,105.025z
		 M379.02,91.115v6.088h6.258c0.793,0,1.468-0.272,2.024-0.816c0.555-0.544,0.833-1.292,0.833-2.245c0-0.93-0.255-1.667-0.765-2.211
		s-1.139-0.816-1.888-0.816C385.482,91.115,379.02,91.115,379.02,91.115z M389.053,104.141c0-0.431-0.074-0.845-0.221-1.242
		c-0.148-0.396-0.346-0.742-0.595-1.037c-0.25-0.294-0.544-0.527-0.884-0.697s-0.714-0.255-1.122-0.255h-7.21v6.36h6.972
		c0.431,0,0.833-0.079,1.208-0.238c0.374-0.158,0.697-0.379,0.969-0.663c0.272-0.283,0.487-0.618,0.646-1.003
		C388.973,104.98,389.053,104.572,389.053,104.141z"/>
	<path style="fill:#FFFFFF;" d="M407.656,107.27c1.111,0,2.046-0.227,2.806-0.68c0.759-0.454,1.372-1.043,1.837-1.769
		c0.464-0.726,0.793-1.559,0.986-2.5c0.192-0.94,0.289-1.91,0.289-2.908V87.102h4.66v12.312c0,1.655-0.199,3.208-0.595,4.659
		c-0.397,1.452-1.021,2.721-1.871,3.809s-1.944,1.951-3.282,2.585c-1.338,0.635-2.937,0.952-4.795,0.952
		c-1.928,0-3.566-0.334-4.915-1.003s-2.443-1.553-3.282-2.653s-1.445-2.375-1.819-3.826s-0.561-2.959-0.561-4.523V87.102h4.693
		v12.312c0,1.021,0.096,2.001,0.289,2.942c0.192,0.941,0.521,1.774,0.986,2.5c0.464,0.726,1.071,1.31,1.819,1.751
		C405.649,107.049,406.567,107.27,407.656,107.27z"/>
	<polygon style="fill:#FFFFFF;" points="425.681,87.102 431.633,98.733 437.687,87.102 442.754,87.102 433.979,102.814 
		433.979,111.249 429.32,111.249 429.32,102.747 420.58,87.102 	"/>
	<path style="fill:#26C6AB;" d="M328.37,197.34c16.403,23.697-18.394,72.697-41.087,72.697s-58.51-49-41.087-72.697
		c11.888,9.943,26.481,14.929,41.087,14.929C301.89,212.269,316.482,207.283,328.37,197.34"/>
	<path style="fill:#BDBDBD;" d="M294.511,249.13h-14.459c2.347,0.417,4.763,0.634,7.23,0.634S292.164,249.546,294.511,249.13
		 M247.637,208.167c-1.088,0.141-2.168,0.317-3.234,0.529c0.596-0.015,1.192-0.022,1.789-0.022c0,4.737,0.802,9.286,2.277,13.521
		c1.802-0.286,3.645-0.433,5.515-0.433h0.252C251.254,217.732,248.99,213.136,247.637,208.167 M277.282,166.069
		c-6.575,3.419-11.181,10.104-11.665,17.901c-0.457,7.367,2.8,14.394,8.714,18.795c1.781,1.325,3.206,3.048,4.222,4.995h-14.881
		c7.569,3.004,15.588,4.508,23.611,4.508c1.347,0,2.693-0.042,4.038-0.127l-5.432-17.828c-0.99-1-2.058-1.93-3.199-2.779
		c-2.104-1.565-3.262-4.069-3.1-6.697c0.11-1.764,0.851-3.391,1.994-4.65L277.282,166.069"/>
	<path style="fill:#919191;" d="M246.191,208.673c-0.597,0-1.193,0.008-1.789,0.022c-14.635,2.898-27.172,12.374-33.961,26.155
		c-3.015,6.12-2.663,13.233,0.941,19.026c3.604,5.793,9.83,9.252,16.653,9.252h78.822l-4.266-14h-8.08
		c-2.347,0.417-4.763,0.634-7.23,0.634s-4.883-0.218-7.23-0.634h-52.017c-2.815,0-4.27-1.852-4.765-2.648
		c-0.495-0.796-1.513-2.92-0.27-5.445c5.031-10.212,14.499-17.102,25.468-18.843C246.993,217.96,246.191,213.41,246.191,208.673"/>
	<path style="fill:#BDBDBD;" d="M326.928,208.167c-1.354,4.969-3.618,9.564-6.6,13.594h0.253c1.87,0,3.712,0.147,5.513,0.433
		c1.475-4.234,2.277-8.783,2.277-13.52c0.598,0,1.196,0.008,1.792,0.022C329.096,208.484,328.017,208.308,326.928,208.167
		 M285.888,194.314l5.432,17.828c6.665-0.42,13.275-1.881,19.574-4.381h-17.476C292.159,202.689,289.558,198.02,285.888,194.314
		 M287.311,163.633c-0.465,0-0.931,0.014-1.4,0.044c-3.096,0.192-6.018,1.035-8.629,2.393l4.302,14.118
		c1.316-1.449,3.164-2.412,5.194-2.538c0.169-0.01,0.337-0.016,0.504-0.016c1.98,0,3.835,0.733,5.279,2.09
		c1.569,1.474,2.431,3.469,2.431,5.619v3.963h14v-3.963c0-5.966-2.494-11.733-6.843-15.82
		C298.079,165.698,292.856,163.633,287.311,163.633"/>
	<path style="fill:#9F9F9F;" d="M328.372,208.673c0,4.737-0.802,9.286-2.277,13.52c10.971,1.74,20.439,8.63,25.47,18.844
		c1.244,2.525,0.226,4.649-0.269,5.445c-0.496,0.796-1.951,2.648-4.766,2.648h-43.939l4.266,14h39.673
		c6.823,0,13.049-3.459,16.653-9.252s3.956-12.907,0.941-19.027c-6.788-13.78-19.325-23.256-33.96-26.154
		C329.568,208.681,328.97,208.673,328.372,208.673"/>
	<path style="fill:#2A9784;" d="M320.582,207.761h-9.688c-6.298,2.5-12.908,3.961-19.574,4.381
		c-1.345,0.085-2.691,0.127-4.038,0.127c-8.024,0-16.042-1.504-23.611-4.508h-9.687c-2.145,0-4.263,0.137-6.347,0.406
		c1.354,4.969,3.618,9.564,6.6,13.594h66.092c2.982-4.029,5.246-8.625,6.6-13.594C324.845,207.898,322.726,207.761,320.582,207.761"
		/>
	<path style="fill:#F9DE58;" d="M364.124,232.016c-8.23-16.709-24.915-27.09-43.542-27.09h-27.163
		c-1.6-6.441-5.362-12.231-10.729-16.226c-2.104-1.566-3.262-4.069-3.1-6.697c0.236-3.795,3.394-6.953,7.188-7.188
		c2.167-0.135,4.217,0.603,5.782,2.074c1.568,1.474,2.432,3.469,2.432,5.619v3.962h14v-3.962c0-5.967-2.494-11.733-6.843-15.821
		c-4.411-4.145-10.176-6.223-16.238-5.846c-10.894,0.677-19.618,9.401-20.294,20.294c-0.458,7.367,2.8,14.393,8.713,18.795
		c1.781,1.325,3.206,3.048,4.222,4.995h-24.568c-18.626,0-35.311,10.38-43.542,27.09c-3.015,6.121-2.663,13.234,0.941,19.027
		c3.604,5.793,9.83,9.252,16.653,9.252H346.53c6.823,0,13.048-3.459,16.653-9.252C366.787,245.249,367.139,238.136,364.124,232.016z
		 M351.296,243.647c-0.496,0.796-1.951,2.648-4.766,2.648H228.035c-2.814,0-4.27-1.852-4.766-2.648
		c-0.495-0.796-1.513-2.92-0.27-5.445c5.857-11.89,17.729-19.276,30.984-19.276h66.598c13.254,0,25.126,7.386,30.983,19.277
		C352.809,240.727,351.791,242.851,351.296,243.647z"/>
	<path style="fill:#2BE0C6;" d="M328.37,197.34L328.37,197.34c0,22.692-18.395,41.087-41.087,41.087s-41.087-18.395-41.087-41.087
		l0,0c-18.275,0-35.864,6.956-49.197,19.455l-29.817,27.954l30.025,41.087l20.544-12.642v129.583h139.064V273.193l20.544,12.642
		l30.025-41.087l-29.817-27.954C364.234,204.296,346.645,197.34,328.37,197.34z"/>
	<path style="fill:#FC7A51;" d="M294.99,182.511H149.86v-7.13h140.36c0.85,0.35,1.64,0.86,2.34,1.51
		C294.13,178.361,294.99,180.361,294.99,182.511z"/>
	<path style="fill:#FC7A51;" d="M415.111,175.381v7.13H308.99c0-2.44-0.42-4.85-1.22-7.13H415.111z"/>
</g>
<g>
</g>
<g>
</g>
<g>
</g>
<g>
</g>
<g>
</g>
<g>
</g>
<g>
</g>
<g>
</g>
<g>
</g>
<g>
</g>
<g>
</g>
<g>
</g>
<g>
</g>
<g>
</g>
<g>
</g>
</svg>
