<?xml version="1.0" encoding="iso-8859-1"?>
<!-- Generator: Adobe Illustrator 19.0.0, SVG Export Plug-In . SVG Version: 6.00 Build 0)  -->
<svg version="1.1" id="Layer_1" xmlns="http://www.w3.org/2000/svg" xmlns:xlink="http://www.w3.org/1999/xlink" x="0px" y="0px"
	 viewBox="0 0 426.917 426.917" style="enable-background:new 0 0 426.917 426.917;" xml:space="preserve">
<g>
	<rect x="169.463" y="371.636" style="fill:#666666;" width="88" height="47.048"/>
	<path style="fill:#808080;" d="M397.194,112.92v250.49c0,9.94-8.05,18-17.99,18H47.714c-9.94,0-18-8.06-18-18V112.92H397.194z"/>
	<rect x="54.722" y="137.917" style="fill:#FFFFFF;" width="317.482" height="218.487"/>
	<g>
		<rect x="68.463" y="220.368" style="fill:#CCCCCC;" width="290" height="18.707"/>
		<rect x="68.463" y="186.781" style="fill:#CCCCCC;" width="290" height="18.707"/>
		<rect x="68.463" y="321.13" style="fill:#CCCCCC;" width="290" height="18.707"/>
		<rect x="68.463" y="287.543" style="fill:#CCCCCC;" width="290" height="18.707"/>
		<rect x="68.463" y="253.956" style="fill:#CCCCCC;" width="290" height="18.707"/>
	</g>
	<path style="opacity:0.32;fill:#FFFFFF;enable-background:new    ;" d="M397.194,112.92v250.49c0,9.94-8.05,18-17.99,18h-91.98
		l-81.83-268.49L397.194,112.92L397.194,112.92z"/>
	<path style="opacity:0.32;fill:#333333;enable-background:new    ;" d="M317.314,112.92v-0.56h-7.7v0.56h-279.9v93.36
		c16.03,3.96,33.56,0.17,46.73-11.36h0.01l0.01,0.01c12.65,11.07,29.33,14.99,44.84,11.77v72.37c-19.18,1.93-34.15,18.11-34.15,37.8
		c0,20.98,17.01,37.99,38,37.99c20.98,0,37.99-17.01,37.99-37.99c0-19.69-14.97-35.87-34.14-37.8v-74.6
		c5.71-2.14,11.12-5.32,15.94-9.54l0.01-0.01c19.6,17.17,48.89,17.17,68.49,0l0.01,0.01c2.51,2.19,5.19,4.11,7.97,5.74v109.09
		l-7.24,5.11l-14.47,10.24v56.3h51.12v-56.3l-21.71-15.35v-105.4c17.55,6.71,37.96,3.57,52.81-9.43l0.01-0.01l0.01,0.01
		c8.04,7.04,17.7,11.19,27.66,12.45v76.24l-4.42,3.12l-10.79,7.64v74.352h38.12V294.38l-15.21-10.76v-75.84
		c11.85-0.25,23.62-4.53,33.12-12.85l0.01-0.01l0.01,0.01c13.17,11.54,30.71,15.32,46.74,11.36v-93.37
		C397.194,112.92,317.314,112.92,317.314,112.92z M134.535,296c0,5.18-4.2,9.38-9.38,9.38c-5.18,0-9.38-4.2-9.38-9.38
		c0-3.8,2.27-7.08,5.53-8.55v6.41c0,2.12,1.72,3.85,3.85,3.85c2.12,0,3.85-1.73,3.85-3.85v-6.41
		C132.264,288.92,134.535,292.2,134.535,296z M234.064,326.21c0,4.85-3.93,8.79-8.79,8.79s-8.79-3.94-8.79-8.79
		c0-3.48,2.02-6.47,4.94-7.9v4.6c0,2.12,1.72,3.85,3.85,3.85c2.12,0,3.85-1.73,3.85-3.85v-4.6
		C232.055,319.74,234.064,322.73,234.064,326.21z M320.025,295.2c0,3.62-2.94,6.56-6.56,6.56s-6.56-2.94-6.56-6.56
		c0-2.19,1.07-4.11,2.71-5.31v2.38c0,2.12,1.72,3.85,3.85,3.85c2.12,0,3.85-1.73,3.85-3.85v-2.38
		C318.954,291.09,320.025,293.01,320.025,295.2z"/>
	<path style="fill:#808080;" d="M323.619,426.917h-220.31c0-4.97,2.02-9.47,5.27-12.73c3.26-3.25,7.76-5.27,12.73-5.27h184.31
		C315.559,408.917,323.619,416.977,323.619,426.917z"/>
	<path style="opacity:0.32;fill:#FFFFFF;enable-background:new    ;" d="M323.619,426.917h-105.91l-5.49-18h93.4
		C315.559,408.917,323.619,416.977,323.619,426.917z"/>
	<g>
		<g>
			<path style="fill:#FC7A51;" d="M213.463,307.037l-11.091,7.837l-14.465,10.233v75.052h51.112v-75.052L213.463,307.037z
				 M213.463,335c-4.858,0-8.793-3.935-8.793-8.793s3.935-8.793,8.793-8.793s8.793,3.935,8.793,8.793S218.321,335,213.463,335z"/>
		</g>
		<path style="fill:#29ABE2;" d="M217.314,143v179.91c0,2.12-1.73,3.85-3.85,3.85c-2.13,0-3.85-1.73-3.85-3.85V143H217.314z"/>
		<path style="opacity:0.32;fill:#333333;enable-background:new    ;" d="M209.614,135.747h7.7v40.01
			c-1.32-0.96-2.61-1.99-3.86-3.08l-0.01-0.01c-1.24,1.09-2.52,2.1-3.83,3.06V135.747z"/>
		<g>
			<g>
				<path style="fill:#666666;" d="M201.884,369.122c-4.151,0-7.529-3.377-7.529-7.529s3.377-7.529,7.529-7.529
					c4.151,0,7.529,3.378,7.529,7.529S206.036,369.122,201.884,369.122z M201.884,357.268c-2.385,0-4.324,1.94-4.324,4.325
					s1.94,4.325,4.324,4.325c2.385,0,4.325-1.94,4.325-4.325S204.269,357.268,201.884,357.268z"/>
				<path style="fill:#666666;" d="M225.04,389.521c-4.151,0-7.529-3.378-7.529-7.529c0-4.152,3.378-7.529,7.529-7.529
					s7.529,3.378,7.529,7.529C232.57,386.144,229.192,389.521,225.04,389.521z M225.04,377.667c-2.385,0-4.325,1.94-4.325,4.325
					s1.94,4.325,4.325,4.325s4.325-1.94,4.325-4.325S227.425,377.667,225.04,377.667z"/>
			</g>
			
				<rect x="211.885" y="352.688" transform="matrix(-0.9809 -0.1947 0.1947 -0.9809 350.5022 778.0496)" style="fill:#666666;" width="3.204" height="38.223"/>
		</g>
	</g>
	<g>
		<path style="fill:#F9DE58;" d="M120.464,274.011c-20.984,0-37.994,17.011-37.994,37.994c0,20.984,17.011,37.994,37.994,37.994
			s37.994-17.011,37.994-37.994C158.459,291.022,141.448,274.011,120.464,274.011z M120.464,300.523c-5.181,0-9.381-4.2-9.381-9.381
			s4.2-9.381,9.381-9.381s9.381,4.2,9.381,9.381C129.846,296.323,125.646,300.523,120.464,300.523z"/>
		<path style="fill:#86D359;" d="M124.314,143v146c0,2.12-1.73,3.85-3.85,3.85c-2.13,0-3.85-1.73-3.85-3.85V143H124.314z"/>
		<path style="opacity:0.32;fill:#333333;enable-background:new    ;" d="M116.614,149.667h7.7v47.99c-2.53,0.69-5.11,1.18-7.7,1.48
			V149.667z"/>
		<polygon style="fill:#FFFFFF;" points="121.868,337.524 105.693,317.265 111.529,312.552 121.139,324.683 137.597,298.401 
			143.928,302.425 		"/>
	</g>
	<g>
		<g>
			<path style="fill:#29ABE2;" d="M306.464,276.037l-8.273,5.846l-10.79,7.633v74.356h38.126v-74.356L306.464,276.037z
				 M306.464,296.896c-3.624,0-6.559-2.935-6.559-6.559s2.935-6.559,6.559-6.559s6.559,2.935,6.559,6.559
				C313.024,293.96,310.088,296.896,306.464,296.896z"/>
		</g>
		<path style="fill:#FC7A51;" d="M310.314,107.5v179.91c0,2.12-1.73,3.85-3.85,3.85c-2.13,0-3.85-1.73-3.85-3.85V107.5H310.314z"/>
		<path style="opacity:0.32;fill:#333333;enable-background:new    ;" d="M310.314,140.667v49.48c-2.59-0.3-5.17-0.79-7.7-1.47
			v-48.01H310.314z"/>
		<g>
			<path style="fill:#666666;" d="M306.464,344.621h-7.734v-4.307h7.734c3.077,0,5.581-2.503,5.581-5.58s-2.504-5.58-5.581-5.58
				c-5.452,0-9.887-4.435-9.887-9.887s4.436-9.888,9.887-9.888h7.734v4.307h-7.734c-3.077,0-5.58,2.503-5.58,5.58
				s2.503,5.58,5.58,5.58c5.452,0,9.888,4.436,9.888,9.888C316.352,340.185,311.916,344.621,306.464,344.621z"/>
			<rect x="304.309" y="301" style="fill:#666666;" width="4.307" height="10.533"/>
			<rect x="304.309" y="342.467" style="fill:#666666;" width="4.307" height="10.533"/>
		</g>
	</g>
	<path style="fill:#E6E6E6;" d="M416.187,153.894l-9.517-51.977l-6.85-37.39c-2.18-11.94-12.59-20.61-24.73-20.61H335.2h-60.87
		h-60.87h-60.87H91.72h-39.9c-12.13,0-22.54,8.67-24.73,20.61l-6.85,37.39l-9.51,51.97c-1.979,10.813,4.192,21.519,14.588,25.09
		c17.156,5.894,36.748,2.54,51.131-10.06h0.01l0.01,0.01c19.6,17.16,48.88,17.16,68.48,0l0.01-0.01c19.6,17.17,48.89,17.17,68.49,0
		l0.01,0.01c19.6,17.16,48.88,17.16,68.48,0l0.01-0.01l0.01,0.01c19.59,17.17,48.88,17.17,68.48,0l0.01-0.01l0.01,0.01
		c14.384,12.6,33.98,15.954,51.138,10.061C411.996,175.416,418.167,164.708,416.187,153.894z"/>
	<path style="fill:#FC7A51;" d="M350.459,168.927l-0.01-0.01l-0.01,0.01c-19.6,17.17-48.89,17.17-68.48,0l-4.09-67.01l-3.54-58
		h60.87l7.08,58L350.459,168.927z"/>
	<path style="fill:#FC7A51;" d="M213.459,43.917v125.01l-0.01-0.01c-19.6,17.17-48.89,17.17-68.49,0h-0.01l4.1-67l3.54-58
		C152.589,43.917,213.459,43.917,213.459,43.917z"/>
	<path style="fill:#FC7A51;" d="M91.719,43.917l-7.09,58l-8.18,67c-14.384,12.601-33.976,15.954-51.131,10.06
		c-10.397-3.572-16.567-14.277-14.588-25.09l9.51-51.97l6.85-37.39c2.19-11.94,12.6-20.61,24.73-20.61
		C51.82,43.917,91.719,43.917,91.719,43.917z"/>
	<rect x="123.454" style="fill:#2BE0C6;" width="180" height="80"/>
	<rect x="135.459" y="12" style="fill:#E6E6E6;" width="156" height="56"/>
	<g>
		<path style="fill:#29ABE2;" d="M183.264,32.967c-0.193-0.191-0.543-0.453-1.053-0.783c-0.508-0.33-1.127-0.653-1.855-0.97
			c-0.729-0.315-1.52-0.584-2.371-0.805c-0.854-0.22-1.721-0.33-2.6-0.33c-1.568,0-2.736,0.289-3.506,0.866
			c-0.771,0.578-1.156,1.39-1.156,2.435c0,0.604,0.145,1.107,0.434,1.505c0.289,0.399,0.709,0.75,1.258,1.053
			c0.551,0.303,1.244,0.577,2.084,0.824c0.838,0.248,1.809,0.51,2.908,0.784c1.43,0.386,2.729,0.798,3.898,1.237
			c1.168,0.44,2.158,0.99,2.969,1.65c0.813,0.66,1.438,1.45,1.877,2.372c0.439,0.921,0.66,2.056,0.66,3.402
			c0,1.568-0.295,2.908-0.887,4.022c-0.592,1.113-1.389,2.015-2.393,2.702s-2.158,1.189-3.465,1.505
			c-1.307,0.316-2.674,0.475-4.104,0.475c-2.201,0-4.373-0.33-6.518-0.99c-2.146-0.659-4.07-1.594-5.775-2.805l2.516-4.909
			c0.248,0.248,0.695,0.571,1.342,0.97c0.645,0.399,1.408,0.798,2.289,1.196c0.879,0.399,1.855,0.736,2.928,1.011
			c1.072,0.275,2.172,0.412,3.301,0.412c3.135,0,4.703-1.003,4.703-3.011c0-0.633-0.18-1.169-0.537-1.609
			c-0.357-0.439-0.865-0.824-1.525-1.154s-1.459-0.633-2.393-0.908c-0.936-0.274-1.98-0.577-3.135-0.907
			c-1.404-0.385-2.621-0.805-3.652-1.258c-1.031-0.454-1.891-0.99-2.578-1.609c-0.688-0.618-1.203-1.333-1.547-2.145
			c-0.344-0.811-0.516-1.78-0.516-2.908c0-1.485,0.275-2.805,0.826-3.96c0.549-1.155,1.313-2.117,2.289-2.888
			c0.977-0.77,2.109-1.354,3.402-1.753s2.682-0.599,4.168-0.599c2.063,0,3.959,0.324,5.691,0.97s3.244,1.409,4.537,2.289
			L183.264,32.967z"/>
		<path style="fill:#29ABE2;" d="M199.433,25.295h5.033l11.137,29.287h-5.857l-2.723-7.301h-10.23l-2.682,7.301h-5.857
			L199.433,25.295z M205.992,43.279l-4.043-11.509l-4.207,11.509H205.992z"/>
		<path style="fill:#29ABE2;" d="M218.82,54.582V25.295h5.693v24.296h14.932v4.991H218.82z"/>
		<path style="fill:#29ABE2;" d="M263.248,49.591v4.991h-20.336V25.295h19.965v4.991h-14.273v7.054h12.334v4.62h-12.334v7.631
			H263.248z"/>
	</g>
	<polygon style="opacity:0.32;fill:#333333;enable-background:new    ;" points="123.458,80 112.101,43.917 123.458,43.917 	"/>
	<polygon style="opacity:0.32;fill:#333333;enable-background:new    ;" points="303.458,80 314.816,43.917 303.458,43.917 	"/>
	<polygon style="opacity:0.32;fill:#FFFFFF;enable-background:new    ;" points="303.454,0 303.454,80 236.414,80 212.035,0 	"/>
</g>
<g>
</g>
<g>
</g>
<g>
</g>
<g>
</g>
<g>
</g>
<g>
</g>
<g>
</g>
<g>
</g>
<g>
</g>
<g>
</g>
<g>
</g>
<g>
</g>
<g>
</g>
<g>
</g>
<g>
</g>
</svg>
