<?xml version="1.0" encoding="iso-8859-1"?>
<!-- Generator: Adobe Illustrator 19.0.0, SVG Export Plug-In . SVG Version: 6.00 Build 0)  -->
<svg version="1.1" id="Layer_1" xmlns="http://www.w3.org/2000/svg" xmlns:xlink="http://www.w3.org/1999/xlink" x="0px" y="0px"
	 viewBox="0 0 456.916 456.916" style="enable-background:new 0 0 456.916 456.916;" xml:space="preserve">
<g>
	<path style="fill:#808080;" d="M324.204,93.839h117.971c8.141,0,14.74,6.599,14.74,14.74v239.757c0,8.141-6.599,14.74-14.74,14.74
		H324.204c-8.141,0-14.74-6.599-14.74-14.74V108.579C309.463,100.438,316.063,93.839,324.204,93.839"/>
	<polyline style="fill:#FFFFFF;" points="449.959,129.378 449.959,322.787 316.423,322.787 316.423,129.378 449.959,129.378 	"/>
	<circle style="fill:#4D4D4D;" cx="383.189" cy="343.909" r="11.558"/>
	<polyline style="fill:#E6E6E6;" points="449.959,281.168 316.477,281.168 316.477,267.988 449.959,267.988 449.959,281.168 	"/>
	<path style="fill:#FFFFFF;" d="M441.671,363.076h-15.427v0.002h15.183C441.509,363.078,441.59,363.078,441.671,363.076
		 M441.427,93.838h-97.235l97.371,0.001C441.518,93.839,441.473,93.838,441.427,93.838"/>
	<path style="fill:#A9A9A9;" d="M441.563,93.839h-97.37l10.831,35.539h94.936v138.61v13.18v41.619h-35.994l12.279,40.291
		l15.427-0.002c8.441-0.13,15.244-7.015,15.244-15.486V109.326C456.915,100.818,450.053,93.912,441.563,93.839"/>
	<path style="fill:#FFFFFF;" d="M449.959,281.168h-48.678l12.684,41.619h35.994L449.959,281.168 M449.959,129.378h-94.936
		l42.242,138.61h52.694V129.378"/>
	<polyline style="fill:#EEEEEE;" points="449.959,267.988 449.959,267.988 397.265,267.988 401.281,281.168 449.959,281.168 
		449.959,267.988 	"/>
	<path style="fill:#29ABE2;" d="M147.46,109.326V347.59c0,8.553-6.935,15.488-15.488,15.488H15.488
		C6.934,363.078,0,356.143,0,347.59V109.326c0-8.553,6.934-15.487,15.488-15.487h116.484
		C140.525,93.838,147.46,100.773,147.46,109.326"/>
	<polyline style="fill:#FFFFFF;" points="140.5,129.378 140.5,322.787 6.964,322.787 6.964,129.378 140.5,129.378 	"/>
	<circle style="fill:#2496B5;" cx="73.73" cy="343.909" r="11.558"/>
	<path style="fill:#FCD18B;" d="M402.121,189.318c-15.468,0-29.591-8.498-37.136-22.001c-0.942-1.686-1.852-3.104-2.667-4.066
		c-4.346-5.118-9.676-9.408-15.754-12.566l-4.566-2.37c-9.235-4.803-19.486-7.306-29.886-7.306h-24.871
		c-0.52,0-1.039,0.032-1.543,0.094c-6.212,0.764-11.022,6.054-11.022,12.471c0,3.472,1.409,6.613,3.685,8.889
		c2.267,2.268,5.417,3.677,8.881,3.677l-5.029,5.086c0,0,0.427,8.15,0.75,10l2.988,2.833c2.897,0-10.885,2.519-8.988,4.417
		c1.905,1.897,0.5,3.853,0.5,6.75c0,5.795,8.045,16.25,2.25,16.25l1.75,5.75c2.897,0,4.095-2.397,6-0.5
		c1.897,1.897,4.75,0.353,4.75,3.25c0,5.795-0.705,11.5-6.5,11.5l7.75,1.25c2.897,0,6.103,0.103,8,2s4.75-1.139,4.75,1.75
		c0,5.795-1.705,8.75-7.5,8.75l3.75,6.75c2.897,0-2.148,3.353-0.25,5.25c1.897,1.905-3-0.897-3,2c0,5.795,8.579,8.761,2.784,8.761
		h56.811h15.897h27.797v-78.67h-0.381V189.318z"/>
	<path style="fill:#86D359;" d="M221.649,166.141v17.919h-63.57c-5.782,0-11.021-2.007-14.815-5.251
		c-3.784-3.244-6.132-7.716-6.132-12.668H221.649"/>
	<path style="fill:#86D359;" d="M314.017,184.06h-28.068h-20.108h-24.588v-17.911v-0.008h45.987h12.565h13.715
		C313.521,166.141,313.694,182.21,314.017,184.06z"/>
	<path style="fill:#DDB57A;" d="M300.451,187.131c1.905,1.897,3.078,4.519,3.078,7.417c0,5.795-4.7,10.495-10.495,10.495h-10.416
		h-9.692c-5.795,0-10.487-4.7-10.487-10.495s4.692-10.487,10.487-10.487h20.108C295.932,184.06,298.554,185.233,300.451,187.131z"/>
	<path style="fill:#DDB57A;" d="M310.151,208.113c1.897,1.897,3.071,4.519,3.071,7.417c0,5.795-4.7,10.495-10.495,10.495H292.31
		h-9.692c-5.795,0-10.495-4.7-10.495-10.495s4.7-10.487,10.495-10.487h10.416h9.692
		C305.624,205.042,308.246,206.215,310.151,208.113z"/>
	<path style="fill:#DDB57A;" d="M319.835,229.095c1.897,1.897,3.071,4.527,3.071,7.417c0,5.795-4.692,10.495-10.487,10.495h-10.424
		h-9.684c-5.794,0-10.495-4.7-10.495-10.495c0-5.787,4.7-10.487,10.495-10.487h10.416h9.692
		C315.316,226.024,317.938,227.197,319.835,229.095z"/>
	<path style="fill:#DDB57A;" d="M329.527,250.077c1.897,1.905,3.071,4.527,3.071,7.424c0,5.795-4.692,10.487-10.487,10.487h-20.116
		c-5.787,0-10.487-4.692-10.487-10.487c0-5.795,4.7-10.495,10.487-10.495h10.424h9.692
		C325.008,247.006,327.629,248.179,329.527,250.077z"/>
	<path style="fill:#FCD18B;" d="M322.441,250.077c-1.897-1.897-4.519-3.071-7.417-3.071h-9.692c5.795,0,10.487-4.7,10.487-10.495
		c0-2.889-1.173-5.519-3.071-7.417c-1.897-1.897-4.519-3.071-7.417-3.071h-9.692c5.795,0,10.495-4.7,10.495-10.495
		c0-2.897-1.173-5.519-3.071-7.417c-1.905-1.897-4.527-3.071-7.425-3.071h-9.692c5.795,0,10.495-4.7,10.495-10.495
		c0-2.897-1.173-5.519-3.078-7.417c-1.897-1.897-4.519-3.071-7.417-3.071h-20.108c-5.794,0-10.487,4.692-10.487,10.487
		s4.692,10.495,10.487,10.495h9.692c-5.795,0-10.495,4.692-10.495,10.487s4.7,10.495,10.495,10.495h9.692
		c-5.795,0-10.495,4.7-10.495,10.487c0,5.795,4.7,10.495,10.495,10.495h9.684c-5.787,0-10.487,4.7-10.487,10.495
		s4.7,10.487,10.487,10.487h20.116c5.795,0,10.487-4.692,10.487-10.487C325.511,254.604,324.338,251.982,322.441,250.077z"/>
	<path style="fill:#DDB57A;" d="M343.082,210.594c0,0-38.813,3.722-38.813-26.536h9.748v1.903c0,13.604,11.029,24.633,24.633,24.633
		H343.082z"/>
	<polygon style="fill:#77BC4A;" points="287.24,166.141 293.035,184.06 314.017,184.057 313.521,166.141 	"/>
	<path style="fill:#77BC4A;" d="M175.662,166.141l-8.369,17.919c-4.944,0-9.424-2.008-12.668-5.251
		c-3.236-3.244-5.243-7.716-5.243-12.668H175.662z"/>
	<polygon style="fill:#FC7A51;" points="251.052,166.149 251.052,184.06 211.85,184.06 211.85,166.149 211.85,166.141 
		251.052,166.141 	"/>
	<path style="fill:#FFFFFF;" d="M299.899,141.01c-1.654,6.306-7.385,10.952-14.203,10.952v-10.857
		c0.504-0.063,1.023-0.094,1.543-0.094h12.66V141.01z"/>
	<path style="fill:#FFFFFF;" d="M293.365,194.551c0-4.092-3.317-7.409-7.409-7.409s-5.354,3.317-5.354,7.409
		s1.262,7.409,5.354,7.409S293.365,198.643,293.365,194.551z"/>
	<polyline style="fill:#E6E6E6;" points="140.446,281.168 6.964,281.168 6.964,267.988 140.446,267.988 140.446,281.168 	"/>
	<path style="fill:#FFFFFF;" d="M311.473,236.515c0-4.092-3.317-7.409-7.408-7.409c-4.092,0-5.354,3.317-5.354,7.409
		s1.262,7.409,5.354,7.409C308.156,243.924,311.473,240.607,311.473,236.515z"/>
	<path style="fill:#FFFFFF;" d="M302.418,215.533c0-4.092-3.317-7.409-7.408-7.409c-4.092,0-5.354,3.317-5.354,7.409
		s1.262,7.409,5.354,7.409C299.102,222.942,302.418,219.625,302.418,215.533z"/>
	<path style="fill:#FFFFFF;" d="M321.55,257.497c0-4.092-3.317-7.409-7.409-7.409s-5.354,3.317-5.354,7.409
		c0,4.092,1.262,7.409,5.354,7.409S321.55,261.589,321.55,257.497z"/>
	<polygon style="fill:#86D359;" points="449.626,189.318 400.71,189.318 400.71,267.988 450.704,267.988 	"/>
	<rect x="431.105" y="189.318" style="fill:#77BC4A;" width="19.598" height="78.67"/>
	<path style="fill:#6EC6EB;" d="M140.5,175.889v146.898h-35.99l12.279,40.291h15.183c8.553,0,15.488-6.935,15.488-15.488V181.589
		c-1.534-0.773-2.944-1.709-4.196-2.78C142.229,177.922,141.302,176.944,140.5,175.889 M131.972,93.838H34.737l10.831,35.54H140.5
		v36.763h6.959v-56.815C147.46,100.773,140.525,93.838,131.972,93.838"/>
	<path style="fill:#FFFFFF;" d="M140.5,129.378H45.568l42.242,138.61h52.636v13.18h-48.62l12.684,41.619h35.99V175.889
		c-2.13-2.804-3.369-6.149-3.369-9.748h3.369V129.378"/>
	<path style="fill:#ADE18E;" d="M147.46,166.141L147.46,166.141h-6.96h-3.369c0,3.599,1.24,6.944,3.369,9.748
		c0.801,1.055,1.728,2.034,2.763,2.92c1.252,1.07,2.662,2.006,4.196,2.78l0,0v-15.448"/>
	<polyline style="fill:#EEEEEE;" points="140.446,267.988 87.81,267.988 91.826,281.168 140.446,281.168 140.446,267.988 	"/>
	<path style="fill:#FCD18B;" d="M204.478,201.972c1.874-1.874,3.04-4.441,3.077-7.281c0.078-5.847-5.005-10.631-10.853-10.631
		h-6.515h-22.895c-4.944,0-9.424-2.008-12.668-5.251c-3.236-3.244-5.243-7.716-5.243-12.668h13.715h12.565
		c3.472,0,6.613-1.409,8.889-3.677c2.469-2.469,3.909-5.957,3.646-9.781c-0.457-6.645-6.247-11.673-12.908-11.673h-24.49
		c-10.408,0-20.659,2.504-29.886,7.306l-4.574,2.37c-6.07,3.157-11.408,7.448-15.754,12.566c-0.407,0.481-0.838,1.076-1.285,1.762
		c-9.78,14.997-26.225,24.305-44.129,24.305h-1.04v78.67H88.2h9.624h50.062h20.108c2.897,0,5.519-1.173,7.417-3.07
		c1.897-1.897,3.071-4.519,3.071-7.417c0-5.795-4.692-10.495-10.487-10.495h9.692c2.897,0,5.519-1.173,7.416-3.071
		c1.898-1.905,3.071-4.527,3.071-7.424c0-5.787-4.692-10.487-10.487-10.487h9.684c2.897,0,5.519-1.173,7.425-3.078
		c1.897-1.897,3.071-4.519,3.071-7.417c0-5.795-4.7-10.487-10.495-10.487h9.692C199.958,205.042,202.58,203.869,204.478,201.972z"/>
	<path style="fill:#FFFFFF;" d="M164.247,141.01c1.654,6.306,7.385,10.952,14.203,10.952v-10.857
		c-0.504-0.063-1.023-0.094-1.543-0.094h-12.66V141.01z"/>
	<polygon style="fill:#FC7A51;" points="56.82,189.318 6.964,189.318 6.964,267.988 57.919,267.988 	"/>
	<rect x="6.964" y="189.318" style="fill:#E86E4D;" width="19.598" height="78.67"/>
</g>
<g>
</g>
<g>
</g>
<g>
</g>
<g>
</g>
<g>
</g>
<g>
</g>
<g>
</g>
<g>
</g>
<g>
</g>
<g>
</g>
<g>
</g>
<g>
</g>
<g>
</g>
<g>
</g>
<g>
</g>
</svg>
