<?xml version="1.0" encoding="iso-8859-1"?>
<!-- Generator: Adobe Illustrator 19.0.0, SVG Export Plug-In . SVG Version: 6.00 Build 0)  -->
<svg version="1.1" id="Layer_1" xmlns="http://www.w3.org/2000/svg" xmlns:xlink="http://www.w3.org/1999/xlink" x="0px" y="0px"
	 viewBox="0 0 427.12 427.12" style="enable-background:new 0 0 427.12 427.12;" xml:space="preserve">
<g>
	<path style="fill:#DDB57A;" d="M280.813,191.579l-1-13.25l12.053-5.636c8.447,0.112,16.86,0.805,25.194,2.069
		c-3.073,5.149-21.724,14.661-25.194,14.93L280.813,191.579"/>
	<circle style="fill:#F9DE58;" cx="107.24" cy="383.645" r="43.475"/>
	<circle style="fill:#D6B71D;" cx="107.24" cy="383.645" r="28.2"/>
	<path style="fill:#DDB57A;" d="M267.615,68.835c2.917-8.482,11.917-13.233,20.572-10.879l29.548,8.066
		c7.183,16.123,7.183,16.123-3.506,27.807l-43.291-8.722l-12.126,8.222L267.615,68.835"/>
	<path style="fill:#FCD18B;" d="M277.813,121.579l-4-2.25l4.5-13.25c0-6.197-6.803-8.5-13-8.5l5.626-12.472l4.855-5.306
		c10.689-11.684,26.622-16.807,41.941-13.778l0.078,0.017h0.035l7.045,1.93l0.234,0.061l76.916,27.722v68.797
		c-4.778,0-9.503,0.718-14.021,2.103c-4.518,1.384-8.828,3.445-12.775,6.136l-6.872,4.673c-7.036,4.787-15.873,6.102-23.991,3.575
		c-8.923-2.77-18.028-4.864-27.245-6.266l-0.078-0.009c-8.334-1.264-16.747-1.956-25.194-2.069
		c-0.865-0.017-8.938,23.136-9.803,23.136l-29.75-2.5c-9.174,0-26.719-8.4-30.25-16.25c-1.289-2.83-5.5-12.944-5.5-16.25
		c0-6.249,3.156-25.906,7.25-30c4.085-4.094,4.51-6.25,10.75-6.25l11.25-5C247.007,119.579,276.627,121.639,277.813,121.579"/>
	<path style="fill:#DDB57A;" d="M322.18,119.341h-32.066l0.036,8.035C290.151,127.376,311.107,128.295,322.18,119.341"/>
	<path style="fill:#808080;" d="M291.897,127.38c-1.18,0.06-2.38,0.08-3.57,0.08h-34.14c-5.79,0-11.07,2.18-15.06,5.76
		c-0.31,0.27-0.61,0.56-0.91,0.86c-4.1,4.1-6.62,9.74-6.62,15.99c0,3.31,0.71,6.46,2,9.29h-124.3V96.33
		c0-6.2,5.03-11.22,11.23-11.22h160.11c6.2,0,11.229,5.02,11.229,11.22v30.28L291.897,127.38"/>
	<path style="fill:#4D4D4D;" d="M291.867,172.69v13.91h-182.57v-27.24h124.3c3.13,6.95,9.67,12.03,17.49,13.1
		c1.01,0.14,2.05,0.21,3.1,0.21h35.08C290.137,172.67,290.997,172.68,291.867,172.69"/>
	<path style="fill:#808080;" d="M291.867,186.6v9.89c0,6.2-5.03,11.23-11.229,11.23h-160.11c-6.2,0-11.23-5.03-11.23-11.23v-9.89
		H291.867"/>
	<path style="fill:#FFFFFF;" d="M252.797,135.352c-8.126,0-14.713,6.587-14.713,14.713s6.587,14.713,14.713,14.713
		s10.56-6.587,10.56-14.713S260.923,135.352,252.797,135.352z"/>
	<path style="fill:#29ABE2;" d="M189.397,19.36v261.3c0,10.7-8.67,19.37-19.37,19.37H44.447c-10.69,0-19.37-8.67-19.37-19.37V19.36
		C25.077,8.67,33.757,0,44.447,0h125.58C180.727,0,189.397,8.67,189.397,19.36"/>
	<polyline style="fill:#FFFFFF;" points="181.647,39.6 181.647,255.13 32.837,255.13 32.837,39.6 181.647,39.6 	"/>
	<path style="fill:#808080;" d="M181.647,61.11v103.318H80.973V76.723c0-8.627,6.999-15.612,15.626-15.612L181.647,61.11"/>
	<polyline style="fill:#4D4D4D;" points="181.647,164.428 181.647,202.332 80.973,202.332 80.973,164.428 181.647,164.428 	"/>
	<path style="fill:#808080;" d="M181.647,202.332v29.388H96.599c-8.627,0-15.626-6.999-15.626-15.626v-13.762H181.647"/>
	<path style="fill:#F4D521;" d="M113.147,135.17c0,7.83,2.97,14.99,7.84,20.39c-0.68,0.08-1.36,0.11-2.05,0.11
		c-11.32,0-20.5-9.18-20.5-20.5s9.18-20.5,20.5-20.5c0.69,0,1.37,0.03,2.05,0.11C116.117,120.18,113.147,127.34,113.147,135.17"/>
	<path style="fill:#F4D521;" d="M164.148,135.17c0-11.322-9.178-20.5-20.5-20.5s-20.5,9.178-20.5,20.5s9.178,20.5,20.5,20.5
		C154.969,155.67,164.148,146.492,164.148,135.17"/>
	<path style="fill:#6EC6EB;" d="M170.027,0H59.267l12.069,39.6h110.311v21.51v103.318v37.904v29.388v23.41h-44.624l13.684,44.9
		h19.32c10.7,0,19.37-8.67,19.37-19.37v-72.94V186.6v-27.24V85.11V19.36C189.397,8.67,180.727,0,170.027,0"/>
	<path style="fill:#FFFFFF;" d="M181.647,231.72h-51.759l7.135,23.41h44.624V231.72 M181.647,39.6H71.336l10.127,33.229
		c1.732-6.741,7.854-11.719,15.136-11.719h85.048V39.6"/>
	<path style="fill:#A9A9A9;" d="M143.648,155.67c-11.322,0-20.5-9.178-20.5-20.5s9.178-20.5,20.5-20.5s20.5,9.178,20.5,20.5
		S154.969,155.67,143.648,155.67 M181.647,61.11L181.647,61.11H96.599c-7.282,0-13.405,4.978-15.136,11.719l17.538,57.546
		c2.16-9.007,10.267-15.705,19.936-15.705c0.69,0,1.37,0.03,2.05,0.11c-4.87,5.4-7.84,12.56-7.84,20.39s2.97,14.99,7.84,20.39
		c-0.68,0.08-1.36,0.11-2.05,0.11c-5.351,0-10.224-2.052-13.875-5.411l4.318,14.169h72.267V61.11"/>
	<polyline style="fill:#868686;" points="181.647,164.428 181.647,164.428 109.379,164.428 120.931,202.332 181.647,202.332 
		181.647,164.428 	"/>
	<polyline style="fill:#A9A9A9;" points="181.647,202.332 181.647,202.332 120.931,202.332 129.888,231.72 181.647,231.72 
		181.647,202.332 	"/>
	<path style="fill:#F8E368;" d="M118.937,114.67c-9.669,0-17.776,6.697-19.936,15.705l6.06,19.884
		c3.651,3.359,8.524,5.411,13.875,5.411c0.69,0,1.37-0.03,2.05-0.11c-4.87-5.4-7.84-12.56-7.84-20.39s2.97-14.99,7.84-20.39
		C120.307,114.7,119.627,114.67,118.937,114.67"/>
	<path style="fill:#F8E368;" d="M143.648,114.67c-11.322,0-20.5,9.178-20.5,20.5s9.178,20.5,20.5,20.5s20.5-9.178,20.5-20.5
		S154.969,114.67,143.648,114.67"/>
	<polyline style="fill:#D6B71D;" points="103.74,304.849 103.74,330.349 110.74,330.349 110.74,304.849 	"/>
	<polyline style="fill:#D6B71D;" points="121.24,304.849 121.24,335.17 128.24,335.17 128.24,304.849 	"/>
	<polyline style="fill:#D6B71D;" points="86.24,304.849 86.24,335.17 93.24,335.17 93.24,304.849 	"/>
	<circle style="fill:#2496B5;" cx="107.24" cy="278.17" r="15.333"/>
	<path style="fill:#868686;" d="M251.087,172.46l4.31,14.14h36.47v-13.91c-0.87-0.01-1.73-0.02-2.6-0.02h-35.08
		C253.137,172.67,252.097,172.6,251.087,172.46"/>
	<path style="fill:#A9A9A9;" d="M291.867,186.6L291.867,186.6h-36.47l6.43,21.12h18.81c6.2,0,11.229-5.03,11.229-11.23v-9.89"/>
	<path style="fill:#A9A9A9;" d="M280.637,85.11h-9.704h-9.167h-37.3l14.66,48.11c3.99-3.58,9.27-5.76,15.06-5.76h34.14
		c1.19,0,2.39-0.02,3.57-0.08l-0.03-0.77v-7.269V96.33C291.867,90.13,286.837,85.11,280.637,85.11"/>
</g>
<g>
</g>
<g>
</g>
<g>
</g>
<g>
</g>
<g>
</g>
<g>
</g>
<g>
</g>
<g>
</g>
<g>
</g>
<g>
</g>
<g>
</g>
<g>
</g>
<g>
</g>
<g>
</g>
<g>
</g>
</svg>
