<?xml version="1.0" encoding="iso-8859-1"?>
<!-- Generator: Adobe Illustrator 19.0.0, SVG Export Plug-In . SVG Version: 6.00 Build 0)  -->
<svg version="1.1" id="Layer_1" xmlns="http://www.w3.org/2000/svg" xmlns:xlink="http://www.w3.org/1999/xlink" x="0px" y="0px"
	 viewBox="0 0 447.778 447.778" style="enable-background:new 0 0 447.778 447.778;" xml:space="preserve">
<g>
	<polygon style="fill:#666666;" points="273.106,42.55 260.014,42.55 260.014,13.092 187.762,13.092 187.762,42.55 174.671,42.55 
		174.671,0 273.106,0 	"/>
	<path style="fill:#808080;" d="M372.105,332.08v-0.566c0-11.054-8.994-20.048-20.048-20.048H70.785
		c-5.809,0-10.534-4.726-10.534-10.534s4.725-10.534,10.534-10.534h72.451v-9.514H70.785c-11.054,0-20.048,8.994-20.048,20.048
		s8.994,20.048,20.048,20.048h281.271c5.809,0,10.534,4.726,10.534,10.534v0.566v7.434v42.322h9.514v-42.322L372.105,332.08
		L372.105,332.08z"/>
	<polyline style="fill:#29ABE2;" points="264.497,278.565 183.276,278.565 183.276,243.658 264.497,243.658 264.497,278.565 	"/>
	<polyline style="fill:#2C84AA;" points="264.497,243.658 183.276,243.658 183.276,258.69 264.497,258.69 264.497,243.658 	"/>
	<path style="fill:#29ABE2;" d="M325.557,290.397H122.219c0-4.587,1.864-8.741,4.864-11.75c3.009-2.999,7.163-4.864,11.75-4.864
		h170.112C318.118,273.784,325.557,281.223,325.557,290.397"/>
	<path style="fill:#6EC6EB;" d="M308.944,273.784h-44.447H222.74l5.067,16.613h97.751
		C325.557,281.223,318.118,273.784,308.944,273.784"/>
	<path style="fill:#29ABE2;" d="M380.528,51.881v174.876c0,0-187.884,2.75-188.264,3.744L67.247,247.565V51.881
		c0-6.259,5.074-11.333,11.334-11.333h290.614C375.454,40.548,380.528,45.622,380.528,51.881"/>
	<path style="fill:#6EC6EB;" d="M278.458,40.548h-83.775l2.086,6.84h65.57v8.962h16.119V40.548 M369.195,40.548h-13.835V56.35h9.366
		v0.002h0.251v80.158h15.55V51.881C380.528,45.622,375.454,40.548,369.195,40.548"/>
	<path style="fill:#808080;" d="M281.514,243.148c-0.259-0.979-0.545-0.299-0.861,0.38c-0.311,0.673-0.651,1.346-1.016,0.406
		c-8.011-20.521-28.167-34.306-50.16-34.306c-18.432,0-35.119,9.138-44.989,24.246H83.048V56.35h281.678v186.799L281.514,243.148"/>
	<polyline style="fill:#767676;" points="364.726,56.35 355.361,56.35 355.361,77.992 364.726,77.992 364.726,56.35 	"/>
	<polyline style="fill:#767676;" points="278.458,56.35 262.339,56.35 262.339,77.992 278.458,77.992 278.458,56.35 	"/>
	<polyline style="fill:#767676;" points="185.438,56.35 83.048,56.35 83.048,77.992 92.415,77.992 92.415,66.467 169.318,66.467 
		169.318,77.992 185.438,77.992 185.438,56.35 	"/>
	<rect x="89.988" y="31.239" style="fill:#CCCCCC;" width="30.946" height="9.305"/>
	<rect x="326.841" y="31.239" style="fill:#CCCCCC;" width="30.946" height="9.305"/>
	<polyline style="fill:#86D359;" points="92.415,209.343 92.415,66.467 169.318,66.467 169.318,209.343 92.415,209.343 	"/>
	<path style="fill:#77BC4A;" d="M147.712,201.166h-33.941c0-7.336-5.876-13.294-13.18-13.424V88.066
		c7.304-0.131,13.18-6.088,13.18-13.425h33.941c0,7.419,6.012,13.431,13.431,13.431v99.664
		C153.724,187.736,147.712,193.748,147.712,201.166"/>
	<path style="fill:#86D359;" d="M154.564,137.904c0-7.752-10.61-14.037-23.698-14.037c-13.087,0-23.697,6.285-23.697,14.037
		c0,7.753,10.61,14.038,23.697,14.038C143.954,151.942,154.564,145.657,154.564,137.904"/>
	<polyline style="fill:#86D359;" points="185.438,190.263 185.438,47.387 262.339,47.387 262.339,190.263 185.438,190.263 	"/>
	<path style="fill:#77BC4A;" d="M240.733,182.086h-33.941c0-7.337-5.876-13.294-13.18-13.425V68.986
		c7.304-0.131,13.18-6.088,13.18-13.425h33.941c0,7.418,6.012,13.43,13.431,13.43v99.664
		C246.745,168.656,240.733,174.667,240.733,182.086"/>
	<ellipse style="fill:#86D359;" cx="223.888" cy="118.825" rx="23.697" ry="14.037"/>
	<polyline style="fill:#86D359;" points="278.458,160.612 278.458,17.736 355.361,17.736 355.361,160.612 278.458,160.612 	"/>
	<path style="fill:#77BC4A;" d="M333.755,152.436h-33.941c0-7.337-5.876-13.295-13.179-13.425V39.335
		c7.303-0.13,13.179-6.088,13.179-13.425h33.941c0,7.419,6.012,13.431,13.43,13.431v99.664
		C339.767,139.005,333.755,145.017,333.755,152.436"/>
	<ellipse style="fill:#86D359;" cx="316.91" cy="89.174" rx="23.697" ry="14.037"/>
	<polyline style="fill:#29ABE2;" points="404.521,169.698 43.255,169.698 67.243,249.39 380.532,249.39 404.521,169.698 	"/>
	<polygon style="fill:#F2F2F2;" points="77.458,235.647 61.743,183.441 386.032,183.441 370.317,235.647 	"/>
	<polyline style="fill:#29ABE2;" points="404.521,136.509 43.255,136.509 43.255,169.698 404.521,169.698 404.521,136.509 	"/>
	<polyline style="fill:#FFFFFF;" points="43.251,136.514 43.251,136.514 43.251,169.698 43.255,136.514 	"/>
	<polyline style="fill:#6EC6EB;" points="285.207,136.514 43.251,136.514 43.255,169.698 404.526,169.698 404.521,169.698 
		295.313,169.698 285.207,136.514 	"/>
	<polyline style="fill:#FFFFFF;" points="404.526,136.514 404.526,136.514 404.521,169.698 404.526,169.698 404.526,136.514 	"/>
	<polyline style="fill:#9DD8F1;" points="404.526,136.514 285.207,136.514 295.313,169.698 404.521,169.698 404.521,136.514 	"/>
	<path style="fill:#FFFFFF;" d="M95.77,113.817H82.434c-3.494,0-6.327,2.833-6.327,6.327v30.196c0,3.494,2.833,6.327,6.327,6.327
		h13.337c3.494,0,6.327-2.833,6.327-6.327v-30.196C102.097,116.65,99.265,113.817,95.77,113.817z"/>
	<path style="fill:#666666;" d="M97.194,145.812l-5.803-10.05c2.054-0.887,3.492-2.929,3.492-5.308c0-3.193-2.588-5.781-5.781-5.781
		s-5.781,2.588-5.781,5.781c0,2.379,1.438,4.421,3.492,5.308l-5.802,10.05H97.194z"/>
	<path style="fill:#FFFFFF;" d="M365.342,113.817h-13.337c-3.494,0-6.327,2.833-6.327,6.327v30.196c0,3.494,2.833,6.327,6.327,6.327
		h13.337c3.494,0,6.327-2.833,6.327-6.327v-30.196C371.669,116.65,368.836,113.817,365.342,113.817z"/>
	<path style="fill:#666666;" d="M366.765,145.812l-5.803-10.05c2.054-0.887,3.492-2.929,3.492-5.308
		c0-3.193-2.589-5.781-5.781-5.781s-5.781,2.588-5.781,5.781c0,2.379,1.438,4.421,3.492,5.308l-5.803,10.05H366.765z"/>
	<path style="fill:#259BBA;" d="M402.233,416.064h-69.771v4.914c0,14.801,11.999,26.8,26.8,26.8h16.171
		c14.801,0,26.8-11.999,26.8-26.8L402.233,416.064"/>
	<path style="fill:#29ABE2;" d="M402.235,394.573v19.832c0,6.755-5.476,12.231-12.231,12.231h-45.308
		c-6.755,0-12.231-5.476-12.231-12.231v-19.832c0-19.271,15.614-34.885,34.885-34.885c7.77,0,14.948,2.537,20.741,6.829
		C396.674,372.881,402.235,383.072,402.235,394.573"/>
	<path style="fill:#F9DE58;" d="M367.576,379.77h-0.457c-2.209,0-4-1.791-4-4v-15.962c0-2.209,1.791-4,4-4h0.457
		c2.209,0,4,1.791,4,4v15.962C371.576,377.979,369.785,379.77,367.576,379.77z"/>
	<path style="fill:#6EC6EB;" d="M388.091,366.517c0,0,6.215,32.517-16.058,60.119h17.971c6.755,0,12.231-5.476,12.231-12.231
		v-19.832C402.235,383.072,396.674,372.881,388.091,366.517"/>
</g>
<g>
</g>
<g>
</g>
<g>
</g>
<g>
</g>
<g>
</g>
<g>
</g>
<g>
</g>
<g>
</g>
<g>
</g>
<g>
</g>
<g>
</g>
<g>
</g>
<g>
</g>
<g>
</g>
<g>
</g>
</svg>
