<?xml version="1.0" encoding="iso-8859-1"?>
<!-- Generator: Adobe Illustrator 19.0.0, SVG Export Plug-In . SVG Version: 6.00 Build 0)  -->
<svg version="1.1" id="Layer_1" xmlns="http://www.w3.org/2000/svg" xmlns:xlink="http://www.w3.org/1999/xlink" x="0px" y="0px"
	 viewBox="0 0 457.699 457.699" style="enable-background:new 0 0 457.699 457.699;" xml:space="preserve">
<g>
	<polyline style="fill:#E6E6E6;" points="248.632,411.524 2.644,411.524 2.644,14.043 248.632,14.043 248.632,411.524 	"/>
	<rect x="27.644" y="39.044" style="fill:#CCCCCC;" width="195.988" height="21.274"/>
	<rect x="27.644" y="365.249" style="fill:#CCCCCC;" width="195.988" height="21.274"/>
	<rect x="27.644" y="317.534" style="fill:#CCCCCC;" width="195.988" height="21.274"/>
	<rect x="27.644" y="269.819" style="fill:#CCCCCC;" width="195.988" height="21.274"/>
	<rect x="27.644" y="222.104" style="fill:#CCCCCC;" width="195.988" height="21.274"/>
	<path style="fill:#FCD18B;" d="M338.109,267.381v-37.759l64.38,64.38c8.797,8.797,15.672,19.168,20.342,30.45
		c4.671,11.281,7.146,23.473,7.146,35.912l25.078,18.22l-59.02,79.115L354.58,433.26h-13.323c-15.11,0-29.99-3.641-43.39-10.626
		l-79.149-41.272v-1.217h93.561h6.228c10.831,0,19.602-8.772,19.602-19.594L338.109,267.381"/>
	<path style="fill:#FCD18B;" d="M171.813,289.246v4.56c-1.897-0.34-3.761-0.936-5.53-1.77
		C168.01,290.82,169.873,289.893,171.813,289.246z"/>
	<path style="fill:#FCD18B;" d="M171.813,243.482v5.054c-0.272-0.23-0.527-0.477-0.783-0.732l-4.297-4.297
		c0.868-0.111,1.744-0.162,2.62-0.162C170.171,243.346,170.996,243.388,171.813,243.482z"/>
	<path style="fill:#808080;" d="M318.51,76.503H191.42c-10.83,0-19.61,8.77-19.61,19.6v264.45c0,10.82,8.78,19.59,19.61,19.59
		h120.86c-10.51-13.02-13.38-30.15-8.63-45.43H179.67v-218.13h150.59v142.95l7.85,7.85V96.103
		C338.109,85.273,329.339,76.503,318.51,76.503 M254.959,342.503c8.58,0,15.52,6.95,15.52,15.52c0,8.58-6.94,15.52-15.52,15.52
		c-8.57,0-15.52-6.94-15.52-15.52C239.44,349.453,246.39,342.503,254.959,342.503"/>
	<path style="fill:#FCD18B;" d="M163.211,325.983l6.415,6.415c0.698,0.689,1.429,1.327,2.187,1.906v-40.498
		c-1.897-0.34-3.761-0.936-5.53-1.77c-1.081,0.732-2.11,1.583-3.071,2.544C154.541,303.259,154.541,317.314,163.211,325.983z"/>
	<path style="fill:#FCD18B;" d="M153.657,281.249l6.415,6.415c1.855,1.855,3.956,3.318,6.211,4.373
		c1.727-1.217,3.59-2.144,5.53-2.791v-40.711c-0.272-0.23-0.527-0.476-0.783-0.731l-4.296-4.297
		c-4.781,0.562-9.41,2.671-13.077,6.338C144.987,258.515,144.987,272.579,153.657,281.249z"/>
	<path style="fill:#FCD18B;" d="M171.813,243.482v-50.044c-0.536-0.034-1.072-0.06-1.6-0.06c-5.683,0-11.358,2.17-15.697,6.509
		c-8.67,8.669-8.67,22.725,0,31.394l12.217,12.226c0.868-0.111,1.744-0.162,2.62-0.162
		C170.171,243.345,170.996,243.388,171.813,243.482z"/>
	<path style="fill:#FFFFFF;" d="M330.265,116.586v142.951l-22.674-22.674c-9.588-9.597-25.15-9.597-34.747,0
		c-4.798,4.798-7.197,11.077-7.197,17.373c0,6.288,2.399,12.575,7.197,17.374l28.298,28.297c7.428,7.428,9.605,18.76,5.079,28.238
		c-1.021,2.135-1.88,4.339-2.569,6.568H179.665V116.586H330.265"/>
	<path style="fill:#4D4D4D;" d="M254.961,342.506c8.576,0,15.518,6.951,15.518,15.518c0,8.576-6.943,15.519-15.518,15.519
		c-8.568,0-15.518-6.942-15.518-15.519C239.442,349.457,246.393,342.506,254.961,342.506z"/>
	<path style="fill:#DDB57A;" d="M367.409,284.92l-29.301-29.3v11.761l23.42,23.42c2.62,2.619,7.098,0.764,7.098-2.94
		C368.627,286.757,368.189,285.699,367.409,284.92"/>
	<polyline style="fill:#DDB57A;" points="338.109,229.622 347.97,239.483 347.97,270.14 338.109,267.381 338.109,229.622 	"/>
	<path style="fill:#4D4D4D;" d="M239.473,194.127h-45.092v-45.092h45.092V194.127 M205.441,183.066h22.971v-22.971h-22.971
		L205.441,183.066"/>
	<rect x="212.132" y="166.786" style="fill:#4D4D4D;" width="9.59" height="9.59"/>
	<path style="fill:#4D4D4D;" d="M239.473,270.195h-45.092v-45.092h45.092V270.195z M205.441,259.134h22.971v-22.971h-22.971
		L205.441,259.134L205.441,259.134z"/>
	<rect x="212.132" y="242.854" style="fill:#4D4D4D;" width="9.59" height="9.59"/>
	<path style="fill:#4D4D4D;" d="M315.541,194.127h-45.092v-45.092h45.092V194.127 M281.509,183.066h22.971v-22.971h-22.971V183.066"
		/>
	<polyline style="fill:#4D4D4D;" points="297.79,166.786 297.79,176.375 288.2,176.375 288.2,166.786 297.79,166.786 	"/>
	<polyline style="fill:#4D4D4D;" points="259.756,166.786 259.756,176.375 250.166,176.375 250.166,166.786 259.756,166.786 	"/>
	<polyline style="fill:#4D4D4D;" points="259.756,176.375 259.756,185.966 250.166,185.966 250.166,176.375 259.756,176.375 	"/>
	<polyline style="fill:#4D4D4D;" points="259.756,214.41 259.756,224 250.166,224 250.166,214.41 259.756,214.41 	"/>
	<polyline style="fill:#4D4D4D;" points="269.608,224.262 269.608,233.852 260.018,233.852 260.018,224.262 269.608,224.262 	"/>
	<polyline style="fill:#4D4D4D;" points="269.608,233.852 269.608,243.442 260.018,243.442 260.018,233.852 269.608,233.852 	"/>
	<polyline style="fill:#4D4D4D;" points="279.392,243.636 279.392,253.226 269.802,253.226 269.802,243.636 279.392,243.636 	"/>
	<polyline style="fill:#4D4D4D;" points="279.392,253.226 279.392,262.816 269.802,262.816 269.802,253.226 279.392,253.226 	"/>
	<polyline style="fill:#4D4D4D;" points="315.541,260.605 315.541,270.195 305.951,270.195 305.951,260.605 315.541,260.605 	"/>
	<polyline style="fill:#4D4D4D;" points="305.951,243.636 305.951,253.226 296.361,253.226 296.361,243.636 305.951,243.636 	"/>
	<polyline style="fill:#4D4D4D;" points="315.541,243.636 315.541,253.226 305.951,253.226 305.951,243.636 315.541,243.636 	"/>
	<polyline style="fill:#4D4D4D;" points="305.951,202.209 305.951,211.799 296.361,211.799 296.361,202.209 305.951,202.209 	"/>
	<polyline style="fill:#4D4D4D;" points="315.541,202.209 315.541,211.799 305.951,211.799 305.951,202.209 315.541,202.209 	"/>
	<polyline style="fill:#4D4D4D;" points="260.018,243.636 260.018,253.226 250.428,253.226 250.428,243.636 260.018,243.636 	"/>
	<polyline style="fill:#4D4D4D;" points="250.166,204.82 250.166,214.41 240.576,214.41 240.576,204.82 250.166,204.82 	"/>
	<polyline style="fill:#4D4D4D;" points="282.979,212.728 282.979,222.319 273.389,222.319 273.389,212.728 282.979,212.728 	"/>
	<polyline style="fill:#4D4D4D;" points="292.569,212.728 292.569,222.319 282.979,222.319 282.979,212.728 292.569,212.728 	"/>
	<polyline style="fill:#4D4D4D;" points="292.569,222.319 292.569,231.908 282.979,231.908 282.979,222.319 292.569,222.319 	"/>
	<polyline style="fill:#4D4D4D;" points="282.979,203.139 282.979,212.728 273.389,212.728 273.389,203.139 282.979,203.139 	"/>
	<polyline style="fill:#4D4D4D;" points="273.389,203.139 273.389,212.728 263.799,212.728 263.799,203.139 273.389,203.139 	"/>
	<rect x="216.501" y="204.82" style="fill:#4D4D4D;" width="9.59" height="9.59"/>
	<rect x="194.381" y="204.82" style="fill:#4D4D4D;" width="9.59" height="9.59"/>
	<polyline style="fill:#4D4D4D;" points="259.756,185.966 259.756,195.555 250.166,195.555 250.166,185.966 259.756,185.966 	"/>
	<rect x="27.644" y="89.214" style="fill:#FFFFFF;" width="103.994" height="103.994"/>
	<path style="fill:#808080;" d="M102.187,163.757H57.095v-45.092h45.092V163.757z M68.155,152.697h22.971v-22.971H68.155V152.697z"
		/>
	<rect x="74.846" y="136.416" style="fill:#808080;" width="9.59" height="9.59"/>
	<path style="fill:#FFFFFF;" d="M305.951,270.195v-9.59h9.59v9.59H305.951 M269.802,253.226v-9.59h9.59v9.59v9.59h-9.59V253.226
		 M296.361,253.226v-9.59h9.59v9.59H296.361 M292.569,229.777v2.132h-9.59v-1.157c-3.709,1.14-7.2,3.177-10.135,6.112
		c-1.238,1.238-2.317,2.576-3.236,3.987v2.592h-1.471c-1.66,3.394-2.49,7.091-2.49,10.794c0,6.288,2.399,12.575,7.197,17.374
		l28.298,28.297c7.428,7.428,9.605,18.76,5.079,28.238c-1.021,2.135-1.88,4.339-2.569,6.568H281.94l0,0h21.71
		c-4.75,15.28-1.88,32.41,8.63,45.43h4.164c11.91,0,21.576-9.61,21.665-21.499v-91.263l-7.849-7.847l-14.719-14.72v8.413h-9.59
		v-9.59h8.413l-6.773-6.773C303.394,232.662,298.053,230.3,292.569,229.777 M330.259,116.583h-81.627v0.002h81.627V116.583"/>
	<path style="fill:#EEEEEE;" d="M248.632,116.583H215.46l33.172,0.002V116.583 M248.632,76.503h-45.393H248.632"/>
	<path style="fill:#FDE0B0;" d="M338.109,267.383L338.109,267.383L338.109,267.383l-0.001,91.26c0-0.055,0.001-0.111,0.001-0.167
		V267.38l-0.001-0.001"/>
	<path style="fill:#A9A9A9;" d="M303.65,334.713h-21.71l13.84,45.43h16.5C301.77,367.123,298.899,349.993,303.65,334.713
		 M318.51,76.503h-69.878h-45.393l12.22,40.08h33.172h81.627l0.005,0.002v142.951l-0.005-0.005v0.002l7.849,7.849l0.001,0.001
		l-0.001-0.003v-11.76v-25.998l0.001,0.001V96.103l0,0C338.109,85.278,329.334,76.503,318.51,76.503L318.51,76.503"/>
	<path style="fill:#FFFFFF;" d="M288.2,176.375v-9.59h9.59v9.59H288.2 M304.48,160.095h-22.971v22.971h22.971V160.095 M250.166,224
		v-9.59h9.59V224H250.166 M273.389,222.319v-9.59h9.59v9.59H273.389 M273.389,203.139h9.59v9.59h-9.59h-9.59v-9.59H273.389
		 M296.361,211.799v-9.59h9.59v9.59H296.361 M305.951,211.799v-9.59h9.59v9.59H305.951 M250.166,176.375v-9.59h9.59v9.59v9.59v9.59
		h-9.59v-9.59L250.166,176.375 M270.449,194.127v-45.092h45.092v45.092H270.449 M330.265,116.586h-0.005h-81.627h-33.171
		l9.888,32.449h14.124v45.092h-0.383l3.258,10.693h7.818v9.59h-4.896l8.906,29.226h5.841v9.59h-2.919l12.341,40.498l12.5,40.99
		h21.712c0.689-2.229,1.548-4.433,2.569-6.568c4.526-9.478,2.348-20.81-5.079-28.238l-28.298-28.297
		c-4.798-4.799-7.197-11.086-7.197-17.374c0-3.703,0.83-7.4,2.49-10.794h-8.119v-9.59v-9.59h9.59v9.59v6.997
		c0.919-1.411,1.998-2.748,3.236-3.987c2.935-2.935,6.426-4.972,10.135-6.112v-8.433v-9.59h9.59v9.59v7.458
		c5.484,0.523,10.825,2.885,15.022,7.086l6.773,6.773h1.177v1.177l14.719,14.719l0.005,0.005V116.586"/>
	<polyline style="fill:#E8CDA5;" points="338.109,229.622 338.109,255.62 338.109,267.381 338.109,267.381 338.109,229.623 
		338.109,229.622 	"/>
	<polyline style="fill:#868686;" points="239.473,149.035 225.349,149.035 239.09,194.127 239.473,194.127 239.473,149.035 	"/>
	<path style="fill:#868686;" d="M281.509,183.066v-22.971h22.971v22.971L281.509,183.066 M315.541,149.035h-45.092v45.092h45.092
		V149.035"/>
	<polyline style="fill:#868686;" points="297.79,166.786 288.2,166.786 288.2,176.375 297.79,176.375 297.79,166.786 	"/>
	<polyline style="fill:#868686;" points="259.756,166.786 250.166,166.786 250.166,176.375 259.756,176.375 259.756,166.786 	"/>
	<polyline style="fill:#868686;" points="259.756,176.375 259.756,176.375 250.166,176.375 250.166,185.966 259.756,185.966 
		259.756,176.375 	"/>
	<polyline style="fill:#868686;" points="259.756,214.41 250.166,214.41 250.166,224 259.756,224 259.756,214.41 	"/>
	<polyline style="fill:#868686;" points="269.608,224.262 260.018,224.262 260.018,233.852 269.608,233.852 269.608,224.262 	"/>
	<polyline style="fill:#868686;" points="269.608,233.852 269.608,233.852 260.018,233.852 260.018,243.442 268.137,243.442 
		269.608,243.442 269.608,240.849 269.608,233.852 	"/>
	<polyline style="fill:#868686;" points="279.392,243.636 269.802,243.636 269.802,253.226 279.392,253.226 279.392,243.636 	"/>
	<polyline style="fill:#868686;" points="279.392,253.226 279.392,253.226 269.802,253.226 269.802,262.816 279.392,262.816 
		279.392,253.226 	"/>
	<polyline style="fill:#868686;" points="315.541,260.605 305.951,260.605 305.951,270.195 315.541,270.195 315.541,260.605 	"/>
	<polyline style="fill:#868686;" points="305.951,243.636 296.361,243.636 296.361,253.226 305.951,253.226 305.951,243.636 	"/>
	<polyline style="fill:#868686;" points="315.541,243.636 314.364,243.636 305.951,243.636 305.951,253.226 315.541,253.226 
		315.541,244.813 315.541,243.636 	"/>
	<polyline style="fill:#868686;" points="305.951,202.209 296.361,202.209 296.361,211.799 305.951,211.799 305.951,202.209 	"/>
	<polyline style="fill:#868686;" points="315.541,202.209 305.951,202.209 305.951,211.799 315.541,211.799 315.541,202.209 	"/>
	<polyline style="fill:#868686;" points="260.018,243.636 254.176,243.636 257.099,253.226 260.018,253.226 260.018,243.636 	"/>
	<polyline style="fill:#868686;" points="250.166,204.82 242.348,204.82 245.27,214.41 250.166,214.41 250.166,204.82 	"/>
	<polyline style="fill:#868686;" points="282.979,212.728 273.389,212.728 273.389,222.319 282.979,222.319 282.979,212.728 	"/>
	<polyline style="fill:#868686;" points="292.569,212.728 282.979,212.728 282.979,222.319 292.569,222.319 292.569,212.728 	"/>
	<polyline style="fill:#868686;" points="292.569,222.319 292.569,222.319 282.979,222.319 282.979,230.751 282.979,231.908 
		292.569,231.908 292.569,229.777 292.569,222.319 	"/>
	<polyline style="fill:#868686;" points="282.979,203.139 273.389,203.139 273.389,212.728 282.979,212.728 282.979,203.139 	"/>
	<polyline style="fill:#868686;" points="273.389,203.139 263.799,203.139 263.799,212.728 273.389,212.728 273.389,203.139 	"/>
	<polyline style="fill:#868686;" points="259.756,185.966 259.756,185.966 250.166,185.966 250.166,195.555 259.756,195.555 
		259.756,185.966 	"/>
	<path style="fill:#FCD18B;" d="M338.109,267.381v93.17c0,10.822-8.772,19.594-19.602,19.594h-6.228
		c-10.507-13.026-13.383-30.152-8.627-45.433h26.613v-75.176L338.109,267.381z"/>
	<path style="fill:#FCD18B;" d="M330.264,259.536v75.176h-26.613c0.689-2.229,1.548-4.433,2.569-6.568
		c4.526-9.478,2.348-20.81-5.079-28.238l-28.297-28.297c-4.798-4.799-7.198-11.086-7.198-17.373c0-6.296,2.399-12.575,7.198-17.373
		c9.597-9.597,25.158-9.597,34.746,0L330.264,259.536z"/>
	<path style="fill:#FFFFFF;" d="M302.06,244.278c-5.788-5.788-15.172-5.788-20.96,0s-5.788,15.172,0,20.96
		s10.786,1.401,16.573-4.386C303.462,255.064,307.848,250.066,302.06,244.278z"/>
	<path style="fill:#FC7A51;" d="M423.253,70.679c0,26.854-14.971,50.195-37.02,62.159c-10.004,5.431-21.464,8.52-33.645,8.52
		c-39.035,0-70.679-31.644-70.679-70.679c0-36.762,28.065-66.963,63.928-70.353C348.055,0.109,350.314,0,352.587,0
		C391.609,0,423.253,31.644,423.253,70.679z"/>
	<path style="fill:#FFFFFF;" d="M352.581,106.898h-15.897v-8.854h15.897c6.324,0,11.469-5.145,11.469-11.469
		c0-6.325-5.145-11.47-11.469-11.47c-11.206,0-20.324-9.117-20.324-20.323s9.118-20.324,20.324-20.324h15.896v8.854h-15.896
		c-6.325,0-11.47,5.146-11.47,11.47s5.145,11.469,11.47,11.469c11.206,0,20.323,9.118,20.323,20.324
		S363.787,106.898,352.581,106.898z"/>
	<rect x="348.15" y="17.237" style="fill:#FFFFFF;" width="8.854" height="21.65"/>
	<rect x="348.15" y="102.471" style="fill:#FFFFFF;" width="8.854" height="21.651"/>
</g>
<g>
</g>
<g>
</g>
<g>
</g>
<g>
</g>
<g>
</g>
<g>
</g>
<g>
</g>
<g>
</g>
<g>
</g>
<g>
</g>
<g>
</g>
<g>
</g>
<g>
</g>
<g>
</g>
<g>
</g>
</svg>
