<?xml version="1.0" encoding="iso-8859-1"?>
<!-- Generator: Adobe Illustrator 19.0.0, SVG Export Plug-In . SVG Version: 6.00 Build 0)  -->
<svg version="1.1" id="Layer_1" xmlns="http://www.w3.org/2000/svg" xmlns:xlink="http://www.w3.org/1999/xlink" x="0px" y="0px"
	 viewBox="0 0 449.409 449.409" style="enable-background:new 0 0 449.409 449.409;" xml:space="preserve">
<g>
	<polyline style="fill:#29ABE2;" points="384.904,429.409 364.904,429.409 364.904,449.409 384.904,449.409 	"/>
	<path style="fill:#29ABE2;" d="M136.377,214.996H97.198v20h39.179V214.996z M186.331,214.996h-39.179v20h39.179V214.996z
		 M239.375,219.003c-6.935-2.592-14.454-4.008-22.259-4.007h-20.011v20h20.011c5.394,0.001,10.517,0.971,15.259,2.742
		L239.375,219.003L239.375,219.003z M278.225,260.913c-4.404-15.223-14.295-28.052-27.401-36.258l-10.612,16.953
		c8.996,5.629,15.801,14.468,18.799,24.858L278.225,260.913L278.225,260.913z M267.758,317.083
		c8.124-10.665,12.965-24.058,12.96-38.484l0,0c0-1.725-0.069-3.436-0.204-5.129l-19.936,1.594c0.093,1.164,0.141,2.343,0.141,3.535
		l0,0c-0.005,9.948-3.298,19.03-8.877,26.373L267.758,317.083L267.758,317.083z M216.554,342.202h0.562
		c8.01,0.001,15.717-1.49,22.802-4.212c7.087-2.722,13.554-6.671,19.147-11.582l-13.196-15.029
		c-3.843,3.375-8.279,6.08-13.123,7.941c-4.846,1.86-10.096,2.881-15.63,2.882h-0.562V342.202L216.554,342.202z M166.601,342.203
		h39.179v-20h-39.179V342.203z M117.229,342.277c0.852-0.049,1.711-0.075,2.577-0.075h36.02v-20h-36.02
		c-1.253,0-2.499,0.036-3.736,0.108L117.229,342.277L117.229,342.277z M83.33,361.904c5.818-8.859,14.788-15.476,25.264-18.249
		l-5.125-19.332c-15.349,4.074-28.379,13.7-36.854,26.6L83.33,361.904L83.33,361.904z M78.851,400.813
		c-1.712-4.672-2.648-9.709-2.649-15.008l0,0c0.001-5.733,1.096-11.161,3.086-16.15l-18.576-7.412
		c-2.911,7.293-4.511,15.265-4.51,23.562l0,0c-0.001,7.668,1.365,15.059,3.87,21.891L78.851,400.813L78.851,400.813z
		 M107.414,427.626c-10.366-3.061-19.168-9.918-24.743-18.952l-17.018,10.507c8.13,13.163,20.902,23.128,36.089,27.624
		L107.414,427.626z M154.316,429.409h-34.51c-1.284,0-2.552-0.055-3.803-0.163l-1.717,19.926c1.821,0.157,3.662,0.237,5.52,0.237
		h34.51V429.409L154.316,429.409z M204.269,429.409H165.09v20h39.179V429.409z M254.223,429.409h-39.179v20h39.179V429.409z
		 M304.176,429.409h-39.179v20h39.179L304.176,429.409L304.176,429.409z M354.13,429.409h-39.179v20h39.179V429.409z"/>
	<polyline style="fill:#29ABE2;" points="86.203,214.996 66.203,214.996 66.203,234.996 86.203,234.996 	"/>
	<path style="fill:#2BE0C6;" d="M140.569,66.62c0,10.93-2.69,21.94-8.21,32.01l-34.08,62.15l-24.32,44.34L15.569,98.63
		c-14.24-25.96-9.63-58.19,11.3-79.12c6.95-6.95,15.05-12.04,23.69-15.27C58.089,1.41,66.029,0,73.969,0
		c17.04,0,34.08,6.51,47.09,19.51C133.869,32.32,140.569,49.37,140.569,66.62"/>
	<path style="fill:#FC7A51;" d="M442.049,278.12c0,10.93-2.68,21.94-8.2,32l-32.49,59.24l-25.91,47.25l-58.4-106.49
		c-14.23-25.96-9.63-58.19,11.3-79.12c7.55-7.55,16.46-12.91,25.95-16.08c6.85-2.29,14-3.43,21.15-3.43
		c17.04,0,34.08,6.5,47.09,19.51C435.359,243.82,442.049,260.87,442.049,278.12"/>
	<path style="fill:#FFFFFF;" d="M97.227,95.182c0-12.828-10.436-23.264-23.264-23.264c-4.262,0-7.729-3.467-7.729-7.729
		s3.467-7.729,7.729-7.729H89.46V40.926h-7.733V27.591H66.192v14.698c-9.012,3.208-15.493,11.801-15.493,21.9
		c0,12.828,10.436,23.263,23.263,23.263c4.262,0,7.73,3.468,7.73,7.73s-3.468,7.729-7.73,7.729H58.466v15.534h7.726v13.338h15.534
		v-14.698C90.742,113.879,97.227,105.284,97.227,95.182"/>
	<path style="fill:#F9DE58;" d="M423.698,278.637c0-26.648-21.602-48.25-48.25-48.25s-48.25,21.602-48.25,48.25
		s21.602,48.25,48.25,48.25C402.096,326.886,423.698,305.284,423.698,278.637"/>
	<path style="fill:#FFFFFF;" d="M410.135,278.637c0-19.157-15.53-34.687-34.687-34.687s-34.687,15.53-34.687,34.687
		c0,19.157,15.53,34.687,34.687,34.687S410.135,297.794,410.135,278.637"/>
	<polyline style="fill:#808080;" points="380.266,252.528 373.296,252.528 373.296,283.89 397.69,283.89 397.69,276.921 
		380.266,276.921 380.266,252.528 	"/>
	<path style="fill:#6FEAD8;" d="M76.01,87.728l3.809,12.495c1.167-1.354,1.874-3.116,1.874-5.04
		C81.692,91.628,79.282,88.627,76.01,87.728 M73.969,0c-7.94,0-15.88,1.41-23.41,4.24l12.089,39.657
		c1.127-0.63,2.312-1.169,3.544-1.608V27.591h15.534v13.334h7.733V56.46H73.962c-2.68,0-5.046,1.371-6.433,3.449l3.483,11.424
		c0.91,0.377,1.906,0.585,2.951,0.585c12.828,0,23.264,10.436,23.264,23.264c0,9-5.147,16.803-12.645,20.666l13.697,44.932
		l34.08-62.15c5.52-10.07,8.21-21.08,8.21-32.01c0-17.25-6.7-34.3-19.51-47.11C108.049,6.51,91.009,0,73.969,0"/>
	<path style="fill:#FFFFFF;" d="M71.012,71.333l4.998,16.394c3.272,0.899,5.683,3.901,5.683,7.454c0,1.924-0.707,3.686-1.874,5.04
		l4.763,15.626c7.498-3.863,12.645-11.666,12.645-20.666c0-12.828-10.436-23.264-23.264-23.264
		C72.918,71.919,71.922,71.71,71.012,71.333 M81.726,27.591H66.192v14.698c-1.232,0.439-2.417,0.978-3.544,1.608l4.881,16.012
		c1.387-2.078,3.753-3.449,6.433-3.449H89.46V40.926h-7.733L81.726,27.591"/>
	<path style="fill:#FDA589;" d="M375.449,211.49c-7.15,0-14.3,1.14-21.15,3.43l5.503,18.06c4.906-1.681,10.17-2.593,15.646-2.593
		c26.648,0,48.25,21.602,48.25,48.25c0,22.334-15.175,41.124-35.777,46.622l13.438,44.101l32.49-59.24c5.52-10.06,8.2-21.07,8.2-32
		c0-17.25-6.69-34.3-19.51-47.12C409.529,217.99,392.489,211.49,375.449,211.49"/>
	<path style="fill:#FBE98E;" d="M375.448,230.387c-5.476,0-10.74,0.912-15.646,2.593l3.958,12.988
		c3.652-1.307,7.586-2.018,11.688-2.018c19.157,0,34.687,15.53,34.687,34.687c0,16.219-11.132,29.838-26.172,33.634l3.958,12.988
		c20.602-5.498,35.777-24.288,35.777-46.622C423.698,251.989,402.096,230.387,375.448,230.387"/>
	<path style="fill:#FFFFFF;" d="M375.448,243.95c-4.102,0-8.036,0.711-11.688,2.018l9.537,31.297v-24.737h6.97v24.393h17.423v6.97
		h-22.374l8.648,28.38c15.04-3.796,26.172-17.415,26.172-33.634C410.135,259.479,394.605,243.95,375.448,243.95"/>
	<polyline style="fill:#A9A9A9;" points="380.266,252.528 373.296,252.528 373.296,277.265 375.315,283.89 397.69,283.89 
		397.69,276.921 380.266,276.921 380.266,252.528 	"/>
</g>
<g>
</g>
<g>
</g>
<g>
</g>
<g>
</g>
<g>
</g>
<g>
</g>
<g>
</g>
<g>
</g>
<g>
</g>
<g>
</g>
<g>
</g>
<g>
</g>
<g>
</g>
<g>
</g>
<g>
</g>
</svg>
