<?xml version="1.0" encoding="iso-8859-1"?>
<!-- Generator: Adobe Illustrator 19.0.0, SVG Export Plug-In . SVG Version: 6.00 Build 0)  -->
<svg version="1.1" id="Layer_1" xmlns="http://www.w3.org/2000/svg" xmlns:xlink="http://www.w3.org/1999/xlink" x="0px" y="0px"
	 viewBox="0 0 432.285 432.285" style="enable-background:new 0 0 432.285 432.285;" xml:space="preserve">
<g>
	<path style="fill:#2BE0C6;" d="M396.729,303.372H139.977v-186.86h196.298c33.388,0,60.454,27.066,60.454,60.454V303.372"/>
	<path style="fill:#4D4D4D;" d="M139.977,116.513L139.977,116.513c-33.388,0-60.455,27.066-60.455,60.455v126.405H200.43V176.967
		C200.432,143.579,173.365,116.513,139.977,116.513z"/>
	<path style="fill:#26BCA3;" d="M237.803,176.967v35.174h-16.488v-35.174c0-30.601-22.72-55.882-52.211-59.894
		c2.693-0.374,5.452-0.561,8.244-0.561C210.742,116.513,237.803,143.574,237.803,176.967z"/>
	<rect x="35.555" y="303.372" style="fill:#999999;" width="361.174" height="19.785"/>
	<path style="fill:#999999;" d="M237.803,0h-16.488v223.327c0,4.142,3.358,7.5,7.5,7.5h1.488c4.142,0,7.5-3.358,7.5-7.5V0z"/>
	<polygon style="fill:#FC7A51;" points="319.143,60.455 221.315,60.455 221.315,0 319.143,0 301.555,30.227 	"/>
	<rect x="67.431" y="196.752" style="fill:#F9DE58;" width="106.62" height="106.62"/>
	<rect x="174.051" y="196.752" style="fill:#D6B71D;" width="26.38" height="106.62"/>
	<rect x="108.65" y="196.752" style="fill:#FC7A51;" width="24.182" height="106.62"/>
	<path style="fill:#FC7A51;" d="M182.152,163.92c-3.484-3.484-8.288-5.639-13.597-5.639s-10.112,2.154-13.597,5.639
		c-3.484,3.484-5.639,8.288-5.639,13.597c0-5.309-2.154-10.112-5.639-13.597c-3.484-3.484-8.288-5.639-13.597-5.639
		c-5.309,0-10.112,2.154-13.597,5.639c-3.484,3.484-5.639,8.288-5.639,13.597c0,10.618,8.618,19.236,19.236,19.236h19.236h19.236
		c10.618,0,19.236-8.618,19.236-19.236C187.79,172.208,185.636,167.405,182.152,163.92z M138.855,186.288h-8.771
		c-4.847,0-8.771-3.924-8.771-8.771c0-2.418,0.978-4.616,2.572-6.199c1.583-1.594,3.781-2.572,6.199-2.572s4.617,0.978,6.199,2.572
		c1.594,1.583,2.572,3.781,2.572,6.199L138.855,186.288L138.855,186.288z M168.555,186.288h-8.771v-8.771
		c0-2.418,0.978-4.616,2.572-6.199c1.583-1.594,3.781-2.572,6.199-2.572s4.617,0.978,6.199,2.572
		c1.594,1.583,2.572,3.781,2.572,6.199C177.326,182.364,173.402,186.288,168.555,186.288z"/>
	<polyline style="fill:#65BAAE;" points="310.763,176.567 301.153,176.567 301.153,210.893 310.763,210.893 310.763,176.567 	"/>
	<polyline style="fill:#94EADD;" points="310.763,244.893 301.153,244.893 301.153,279.219 310.763,279.219 310.763,244.893 	"/>
	<polyline style="fill:#73C8BC;" points="338.852,188.202 314.581,212.474 321.378,219.27 345.649,194.998 338.852,188.202 	"/>
	<polyline style="fill:#80D5C9;" points="357.284,223.088 322.958,223.088 322.958,232.698 357.284,232.698 357.284,223.088 	"/>
	<polyline style="fill:#3D9286;" points="288.958,223.088 254.632,223.088 254.632,232.698 288.958,232.698 288.958,223.088 	"/>
	<polyline style="fill:#8EE3D7;" points="321.378,236.516 314.581,243.312 338.852,267.584 345.649,260.788 321.378,236.516 	"/>
	<polyline style="fill:#58ADA1;" points="273.063,188.202 266.268,194.998 290.539,219.27 297.336,212.474 273.063,188.202 	"/>
	<path style="fill:#FC7A51;" d="M71.613,339.162l-11.091,7.837l-14.465,10.233v75.052h51.112v-75.052L71.613,339.162
		 M71.613,367.125c-4.858,0-8.793-3.935-8.793-8.793s3.935-8.793,8.793-8.793s8.793,3.935,8.793,8.793
		S76.471,367.125,71.613,367.125"/>
	<path style="fill:#FFFFFF;" d="M97.168,357.232v75.052H86.517v0.001h10.651v-75.052 M71.613,349.538
		c-3.969,0-7.322,2.627-8.416,6.237l2.856,9.37c1.515,1.238,3.451,1.98,5.561,1.98c4.858,0,8.793-3.935,8.793-8.793
		C80.406,353.473,76.471,349.538,71.613,349.538"/>
	<path style="fill:#FDA589;" d="M71.613,339.163L60.522,347l2.674,8.775c1.094-3.61,4.447-6.237,8.416-6.237
		c4.858,0,8.793,3.935,8.793,8.793s-3.935,8.793-8.793,8.793c-2.11,0-4.046-0.742-5.561-1.98l14.871,48.795l5.595,18.344h10.651
		v-75.052L71.613,339.163"/>
	<path style="fill:#29ABE2;" d="M71.613,358.881L71.613,358.881c-2.125,0-3.847-1.722-3.847-3.847v-51.661h7.694v51.661
		C75.46,357.158,73.737,358.881,71.613,358.881z"/>
</g>
<g>
</g>
<g>
</g>
<g>
</g>
<g>
</g>
<g>
</g>
<g>
</g>
<g>
</g>
<g>
</g>
<g>
</g>
<g>
</g>
<g>
</g>
<g>
</g>
<g>
</g>
<g>
</g>
<g>
</g>
</svg>
