<?xml version="1.0" encoding="iso-8859-1"?>
<!-- Generator: Adobe Illustrator 19.0.0, SVG Export Plug-In . SVG Version: 6.00 Build 0)  -->
<svg version="1.1" id="Layer_1" xmlns="http://www.w3.org/2000/svg" xmlns:xlink="http://www.w3.org/1999/xlink" x="0px" y="0px"
	 viewBox="0 0 430.82 430.82" style="enable-background:new 0 0 430.82 430.82;" xml:space="preserve">
<g>
	<polyline style="fill:#2BE0C6;" points="392.31,266.69 173.55,266.69 177.92,140.43 178.21,132.07 182.14,18.29 383.72,18.29 
		392.31,266.69 	"/>
	<polyline style="fill:#FFFFFF;" points="383.723,18.292 383.723,18.292 392.31,266.69 342.239,266.69 342.24,266.694 
		392.313,266.694 383.723,18.292 	"/>
	<polyline style="fill:#6FEAD8;" points="383.723,18.292 266.529,18.292 342.24,266.694 392.31,266.69 383.72,18.29 	"/>
	<path style="fill:#FC7A51;" d="M333.485,44.172L333.485,44.172c-3.538,0-6.407,2.868-6.407,6.407v23.27
		c0,24.107-18.981,44.391-43.081,44.962c-24.826,0.588-45.21-19.437-45.21-44.133v-24.1c0-3.538-2.868-6.407-6.407-6.407
		s-6.407,2.868-6.407,6.407v23.144c0,31.189,24.675,57.313,55.859,57.904c31.909,0.605,58.059-25.175,58.059-56.948v-24.1
		C339.892,47.04,337.023,44.172,333.485,44.172z"/>
	<path style="fill:#29ABE2;" d="M430.82,242.84c0,23.5-14.5,43.61-35.03,51.88c-6.45,2.6-13.5,4.03-20.88,4.03
		c-30.88,0-55.91-25.03-55.91-55.91c0-26.89,19-49.36,44.31-54.7c3.74-0.79,7.62-1.21,11.6-1.21
		C405.78,186.93,430.82,211.97,430.82,242.84z"/>
	<polyline style="fill:#32C3AE;" points="268.18,148.1 249.234,148.1 252.9,254.2 253.332,266.69 272.28,266.69 268.18,148.1 	"/>
	<polyline style="fill:#F9DE58;" points="257.27,380.47 38.5,380.47 41.01,307.99 47.09,132.07 248.68,132.07 252.9,254.2 
		257.27,380.47 	"/>
	<path style="fill:#FC7A51;" d="M111.82,356.62c0,25.15-16.61,46.42-39.45,53.45c-5.21,1.6-10.73,2.46-16.46,2.46
		C25.03,412.53,0,387.5,0,356.62c0-25.27,16.76-46.61,39.76-53.54c5.11-1.54,10.54-2.37,16.15-2.37
		C86.79,300.71,111.82,325.74,111.82,356.62z"/>
	<polygon style="fill:#FFFFFF;" points="370.337,274.492 345.221,243.035 354.283,235.716 369.207,254.553 394.761,213.743 
		404.592,219.99 	"/>
	
		<rect x="15.004" y="350.799" transform="matrix(0.7071 -0.7071 0.7071 0.7071 -235.7942 143.9888)" style="fill:#FFFFFF;" width="81.818" height="11.648"/>
	
		<rect x="50.069" y="315.694" transform="matrix(0.7071 -0.7072 0.7072 0.7071 -235.8024 143.9906)" style="fill:#FFFFFF;" width="11.649" height="81.824"/>
	<polyline style="fill:#FBE98E;" points="248.68,132.07 124.96,132.07 200.67,380.47 257.27,380.47 253.332,266.69 252.9,254.2 
		249.234,148.1 248.68,132.07 	"/>
	<path style="fill:#4D4D4D;" d="M198.437,167.841L198.437,167.841c-3.538,0-6.407-2.868-6.407-6.407v-23.27
		c0-24.107-18.981-44.391-43.081-44.962c-24.826-0.588-45.21,19.437-45.21,44.133v24.099c0,3.538-2.868,6.407-6.407,6.407
		s-6.406-2.868-6.406-6.407V138.29c0-31.189,24.675-57.313,55.859-57.904c31.909-0.605,58.059,25.175,58.059,56.948v24.099
		C204.844,164.973,201.975,167.841,198.437,167.841z"/>
</g>
<g>
</g>
<g>
</g>
<g>
</g>
<g>
</g>
<g>
</g>
<g>
</g>
<g>
</g>
<g>
</g>
<g>
</g>
<g>
</g>
<g>
</g>
<g>
</g>
<g>
</g>
<g>
</g>
<g>
</g>
</svg>
