<?xml version="1.0" encoding="iso-8859-1"?>
<!-- Generator: Adobe Illustrator 19.0.0, SVG Export Plug-In . SVG Version: 6.00 Build 0)  -->
<svg version="1.1" id="Layer_1" xmlns="http://www.w3.org/2000/svg" xmlns:xlink="http://www.w3.org/1999/xlink" x="0px" y="0px"
	 viewBox="0 0 448.517 448.517" style="enable-background:new 0 0 448.517 448.517;" xml:space="preserve">
<g>
	<path style="fill:#808080;" d="M437.249,55.482v269.9c0,13.69-11.1,24.79-24.8,24.79H36.059c-13.69,0-24.79-11.1-24.79-24.79
		v-269.9c0-13.69,11.1-24.79,24.79-24.79h376.39C426.149,30.692,437.249,41.792,437.249,55.482"/>
	<polyline style="fill:#FFFFFF;" points="66.768,56.693 395.251,56.693 395.251,324.177 66.768,324.177 66.768,56.693 	"/>
	<path style="fill:#4D4D4D;" d="M50.274,190.433c0,6.55-4.66,12.01-10.85,13.24c-0.86,0.17-1.74,0.26-2.65,0.26
		c-7.45,0-13.5-6.04-13.5-13.5c0-5.61,3.44-10.43,8.32-12.47c1.59-0.66,3.34-1.03,5.18-1.03
		C44.233,176.933,50.274,182.983,50.274,190.433"/>
	<path style="fill:#ADADAD;" d="M36.774,176.933c-1.84,0-3.59,0.37-5.18,1.03l7.83,25.71c6.19-1.23,10.85-6.69,10.85-13.24
		C50.274,182.983,44.233,176.933,36.774,176.933"/>
	<path style="fill:#2BE0C6;" d="M144.2,180.12v48.99H80.456v-48.99c3.103-2.523,5.083-6.371,5.083-10.682V134.94h7.957
		c0,10.4,8.43,18.835,18.835,18.835c10.4,0,18.83-8.435,18.83-18.835h7.956v34.498C139.117,173.749,141.097,177.597,144.2,180.12"/>
	<path style="fill:#27C4AA;" d="M131.163,134.939c0,10.402-8.432,18.834-18.834,18.834s-18.834-8.432-18.834-18.834
		c5.449,4.558,12.138,6.843,18.834,6.843S125.714,139.497,131.163,134.939"/>
	<polyline style="fill:#FC7A51;" points="382.508,204.652 312.066,204.652 312.066,225.575 382.508,225.575 382.508,204.652 	"/>
	<path style="fill:#E86E4D;" d="M351.576,159.318h-8.579c-13.616,0-24.655,11.038-24.655,24.655v20.679h57.888v-20.679
		C376.231,170.356,365.193,159.318,351.576,159.318"/>
	<path style="fill:#F9DE58;" d="M359.841,151.646c0-6.933-5.62-12.554-12.554-12.554c-6.933,0-12.554,5.62-12.554,12.554
		s5.62,12.554,12.554,12.554C354.22,164.2,359.841,158.58,359.841,151.646"/>
	<path style="fill:#A9A9A9;" d="M412.449,30.692h-28l7.925,26.001h2.877v9.441l41.998,137.798V55.482
		C437.249,41.792,426.149,30.692,412.449,30.692"/>
	<polyline style="fill:#FFFFFF;" points="395.251,56.693 392.374,56.693 395.251,66.134 395.251,56.693 	"/>
	<polyline style="fill:#767676;" points="317.429,30.692 300.729,30.692 308.654,56.693 345.16,56.693 317.429,30.692 	"/>
	<polyline style="fill:#DBDBDB;" points="345.16,56.693 308.654,56.693 322.351,101.635 351.109,62.272 345.16,56.693 	"/>
	<path style="fill:#A9A9A9;" d="M390.177,324.177h-242.99l7.923,25.995H398.1L390.177,324.177 M144.589,30.692h-86.85l9.029,29.624
		v-3.622h50.091L144.589,30.692"/>
	<path style="fill:#FFFFFF;" d="M99.316,148.555c3.381,3.234,7.965,5.22,13.014,5.22c4.11,0,7.913-1.318,11.009-3.553
		c-3.097,2.235-6.9,3.552-11.01,3.552C107.281,153.773,102.697,151.787,99.316,148.555 M116.859,56.693H66.768v3.622l22.744,74.624
		h3.984l0,0l0,0h0.001l0,0c5.449,4.557,12.138,6.843,18.833,6.843s13.383-2.284,18.832-6.841c0-0.001,0-0.001,0-0.002h0.002l0,0l0,0
		h7.954v34.498c0,4.311,1.98,8.159,5.083,10.682v48.99h-25.989l28.974,95.067h242.99l-30.052-98.602h-48.059v-20.923h41.682h-35.405
		v-20.679c0-11.833,8.336-21.719,19.456-24.106c-1.91-2.203-3.066-5.077-3.066-8.221c0-1.932,0.436-3.761,1.216-5.396
		l-13.598-44.615l-1.262,1.727l-20.55-12.64v129.58h-139.06V90.722l-20.55,12.64l-30.02-41.09L116.859,56.693"/>
	<path style="fill:#6FEAD8;" d="M93.496,134.939L93.496,134.939L93.496,134.939L93.496,134.939 M131.163,134.939h-0.002
		c0,0.001,0,0.001,0,0.002C131.161,134.941,131.162,134.94,131.163,134.939 M139.117,134.939h-7.954
		c0,6.291-3.084,11.862-7.823,15.282c-3.096,2.235-6.899,3.553-11.009,3.553c-5.049,0-9.633-1.986-13.014-5.22
		c-3.587-3.429-5.821-8.261-5.821-13.616h-3.984l28.701,94.171H144.2v-48.99c-3.103-2.523-5.083-6.371-5.083-10.682L139.117,134.939
		"/>
	<path style="fill:#6CD7C5;" d="M131.163,134.939L131.163,134.939c-0.001,0-0.001,0.001-0.002,0.002
		c-5.449,4.557-12.137,6.841-18.832,6.841s-13.384-2.285-18.833-6.842h-0.001l0,0l0,0c0,5.355,2.234,10.187,5.821,13.616
		c3.381,3.232,7.965,5.218,13.013,5.218c4.111,0,7.914-1.317,11.01-3.552C128.078,146.801,131.163,141.23,131.163,134.939
		L131.163,134.939"/>
	<polyline style="fill:#FDA589;" points="353.748,204.652 312.066,204.652 312.066,225.575 360.125,225.575 353.748,204.652 	"/>
	<path style="fill:#EF9D86;" d="M337.799,159.867c-11.12,2.387-19.456,12.273-19.456,24.106v20.679h35.405l-12.863-42.204
		C339.722,161.757,338.68,160.883,337.799,159.867"/>
	<path style="fill:#FBE98E;" d="M335.949,146.25c-0.779,1.635-1.216,3.464-1.216,5.396c0,3.144,1.156,6.018,3.066,8.221
		c0.882,1.016,1.923,1.89,3.087,2.581L335.949,146.25"/>
	<polyline style="fill:#A2A2A2;" points="300.729,30.692 144.589,30.692 116.859,56.693 308.654,56.693 300.729,30.692 	"/>
	<polyline style="fill:#E7E7E7;" points="308.654,56.693 116.859,56.693 110.909,62.272 140.929,103.362 161.479,90.722 
		161.479,220.302 300.539,220.302 300.539,90.722 321.089,103.362 322.351,101.635 308.654,56.693 	"/>
	<path style="fill:#2091AF;" d="M272.097,0c23.166,25.526-18.394,89.86-41.087,89.86S173.93,25.527,189.923,0
		c11.888,9.943,26.48,14.929,41.087,14.929S260.209,9.943,272.097,0z"/>
	<path style="fill:#29ABE2;" d="M272.097,0L272.097,0c0,22.692-18.395,41.087-41.087,41.087S189.922,22.692,189.922,0
		c-18.275,0-35.865,6.956-49.197,19.455l-29.817,27.954l30.025,41.087l20.544-12.642v129.583h139.065V75.853l20.544,12.642
		l30.025-41.087l-29.817-27.954C307.961,6.956,290.371,0,272.097,0z"/>
	<path style="fill:#FCD18B;" d="M352.012,305.48c-6.707-6.908-17.757-7-24.555-0.201l-24.116,24.134
		c-13.872,13.854-37.566,4.031-37.566-15.558V167.028c0-9.463-7.482-17.479-16.944-17.582c-4.802-0.052-9.164,1.882-12.283,5.02
		c-3.115,3.097-5.021,7.385-5.021,12.113v75.095c0-4.618-1.814-8.814-4.801-11.911c-1.154-1.228-2.51-2.272-3.976-3.115
		c-2.492-1.411-5.387-2.217-8.466-2.217c-4.765,0-9.053,1.924-12.186,5.057c-3.115,3.115-5.039,7.422-5.039,12.186v5.864
		c0-4.618-1.833-8.814-4.783-11.911c-1.228-1.301-2.675-2.4-4.251-3.262c-2.437-1.319-5.241-2.071-8.209-2.071
		c-4.765,0-9.071,1.924-12.186,5.039c-3.115,3.134-5.057,7.44-5.057,12.204v14.44c0-4.618-1.815-8.833-4.783-11.911
		c-0.073-0.11-0.165-0.183-0.256-0.275c-0.935-0.935-1.961-1.759-3.097-2.455c-2.62-1.649-5.754-2.602-9.089-2.602
		c-9.529,0-17.243,7.733-17.243,17.244v84.752c0,5.259,0.898,10.445,2.62,15.338c1.741,4.893,4.307,9.492,7.623,13.579l0.132,0.162
		c10.074,12.304,15.873,27.546,15.873,43.448v29.26h111.656v-25.373c0-11.483,6.478-21.89,16.632-27.254l0.161-0.085
		c10.225-5.461,19.534-12.607,27.487-21.22l37.621-40.718l4.379-4.728c2.089-2.254,3.464-4.948,4.086-7.77
		C357.693,315.852,356.227,309.823,352.012,305.48z"/>
	<path style="fill:#DDB57A;" d="M162.575,261.971v38.296c0,1.323-1.075,2.385-2.399,2.385s-2.385-1.061-2.385-2.385V250.06
		C160.755,253.148,162.575,257.353,162.575,261.971z"/>
	<path style="fill:#DDB57A;" d="M197.052,247.538v43.452c0,1.323-1.075,2.399-2.399,2.399c-1.323,0-2.385-1.075-2.385-2.399v-55.362
		C195.233,238.729,197.052,242.92,197.052,247.538z"/>
	<path style="fill:#DDB57A;" d="M231.529,241.679v55.404c0,1.323-1.075,2.399-2.399,2.399c-1.323,0-2.399-1.075-2.399-2.399v-67.314
		C229.71,232.856,231.529,237.047,231.529,241.679z"/>
	<path style="fill:#FFFFFF;" d="M259.645,166.557c0-6.072-4.923-10.995-10.995-10.995c-6.072,0-10.995,4.923-10.995,10.995
		c0,6.072,4.923,6.393,10.995,6.393C254.723,172.95,259.645,172.629,259.645,166.557z"/>
	<path style="fill:#FFFFFF;" d="M356.373,321.368c-0.623,2.822-1.997,5.516-4.086,7.77l-4.379,4.728l-12.296-12.314
		C341.329,315.834,350.565,315.761,356.373,321.368z"/>
</g>
<g>
</g>
<g>
</g>
<g>
</g>
<g>
</g>
<g>
</g>
<g>
</g>
<g>
</g>
<g>
</g>
<g>
</g>
<g>
</g>
<g>
</g>
<g>
</g>
<g>
</g>
<g>
</g>
<g>
</g>
</svg>
