<?xml version="1.0" encoding="iso-8859-1"?>
<!-- Generator: Adobe Illustrator 19.0.0, SVG Export Plug-In . SVG Version: 6.00 Build 0)  -->
<svg version="1.1" id="Layer_1" xmlns="http://www.w3.org/2000/svg" xmlns:xlink="http://www.w3.org/1999/xlink" x="0px" y="0px"
	 viewBox="0 0 446.24 446.24" style="enable-background:new 0 0 446.24 446.24;" xml:space="preserve">
<g>
	<path style="fill:#808080;" d="M383.64,24.8v376.39c0,13.69-11.1,24.79-24.79,24.79H88.95c-13.69,0-24.79-11.1-24.79-24.79V24.8
		C64.16,11.1,75.26,0,88.95,0h269.9C372.54,0,383.64,11.1,383.64,24.8"/>
	<polyline style="fill:#FFFFFF;" points="90.161,370.486 90.161,42.002 357.644,42.002 357.644,370.486 90.161,370.486 	"/>
	<path style="fill:#29ABE2;" d="M142.173,226.155h10.837h32.516h10.837l11.34-46.184h-76.87L142.173,226.155z M166.382,193.406
		h-11.946l-1.029-7.662h12.975V193.406z M172.155,185.743h12.975l-1.029,7.662h-11.946V185.743z M148.611,193.406h-8.449
		l-1.861-7.662h9.28L148.611,193.406z M141.564,199.179h7.823l1.086,8.082h-6.946L141.564,199.179z M155.212,199.179h11.17v8.082
		h-10.085L155.212,199.179z M172.155,199.179h11.17l-1.086,8.082h-10.085v-8.082H172.155z M189.15,199.179h7.823l-1.962,8.082
		h-6.946L189.15,199.179z M189.926,193.406l1.029-7.662h9.28l-1.861,7.662H189.926z M146.712,220.382l-1.784-7.348h6.32l0.987,7.348
		H146.712z M157.073,213.034h9.309v7.348h-8.322L157.073,213.034z M172.155,220.382v-7.348h9.309l-0.987,7.348H172.155z
		 M186.302,220.382l0.987-7.348h6.32l-1.784,7.348H186.302z"/>
	<polygon style="fill:#29ABE2;" points="130.833,179.97 136.778,179.97 132.697,163.351 114.94,163.351 114.94,169.124 
		128.17,169.124 	"/>
	<circle style="fill:#29ABE2;" cx="157.131" cy="236.256" r="6.273"/>
	<circle style="fill:#29ABE2;" cx="188.501" cy="236.256" r="6.273"/>
	<path style="fill:#29ABE2;" d="M142.173,329.609h10.837h32.516h10.837l11.34-46.184h-76.87L142.173,329.609z M166.382,296.86
		h-11.946l-1.029-7.662h12.975V296.86z M172.155,289.198h12.975l-1.029,7.662h-11.946V289.198z M148.611,296.86h-8.449l-1.861-7.662
		h9.28L148.611,296.86z M141.564,302.633h7.823l1.086,8.082h-6.946L141.564,302.633z M155.212,302.633h11.17v8.082h-10.085
		L155.212,302.633z M172.155,302.633h11.17l-1.086,8.082h-10.085v-8.082H172.155z M189.15,302.633h7.823l-1.962,8.082h-6.946
		L189.15,302.633z M189.926,296.86l1.029-7.662h9.28l-1.861,7.662H189.926z M146.712,323.836l-1.784-7.348h6.32l0.987,7.348H146.712
		z M157.073,316.488h9.309v7.348h-8.322L157.073,316.488z M172.155,323.836v-7.348h9.309l-0.987,7.348H172.155z M186.302,323.836
		l0.987-7.348h6.32l-1.784,7.348H186.302z"/>
	<polygon style="fill:#29ABE2;" points="130.833,283.424 136.778,283.424 132.697,266.805 114.94,266.805 114.94,272.578 
		128.17,272.578 	"/>
	<circle style="fill:#29ABE2;" cx="157.131" cy="339.71" r="6.273"/>
	<circle style="fill:#29ABE2;" cx="188.501" cy="339.71" r="6.273"/>
	<polyline style="fill:#999999;" points="327.705,195.44 231.927,195.44 231.927,183.441 327.705,183.441 327.705,195.44 	"/>
	<polyline style="fill:#999999;" points="327.705,222.439 231.927,222.439 231.927,210.44 327.705,210.44 327.705,222.439 	"/>
	<polyline style="fill:#FC7A51;" points="327.705,298.894 231.927,298.894 231.927,286.895 327.705,286.895 327.705,298.894 	"/>
	<polyline style="fill:#FC7A51;" points="327.705,325.893 231.927,325.893 231.927,313.894 327.705,313.894 327.705,325.893 	"/>
	<polyline style="fill:#F9DE58;" points="327.705,88.5 120.099,88.5 120.099,76.5 327.705,76.5 327.705,88.5 	"/>
	<polyline style="fill:#F9DE58;" points="327.705,115.499 120.099,115.499 120.099,103.499 327.705,103.499 327.705,115.499 	"/>
	<path style="fill:#FC7A51;" d="M116.8,109.32c0,19.73-11,36.88-27.2,45.67c-7.35,3.99-15.77,6.26-24.72,6.26
		c-28.68,0-51.93-23.25-51.93-51.93c0-27.01,20.62-49.2,46.97-51.69c1.63-0.16,3.29-0.24,4.96-0.24
		C93.55,57.39,116.8,80.64,116.8,109.32"/>
	<path style="fill:#A9A9A9;" d="M357.644,302.522v67.963h-70.628l16.914,55.494h54.92c13.69,0,24.79-11.1,24.79-24.79V308.19
		c-0.756,0.033-1.516,0.049-2.28,0.049C372.816,308.24,364.753,306.177,357.644,302.522 M358.85,0H174.1l12.801,42.002h170.743
		v168.107c6.01-3.09,12.699-5.041,19.786-5.57l0,0c1.3-0.1,2.61-0.15,3.93-0.15c0.763,0,1.524,0.017,2.28,0.049V24.8
		C383.64,11.1,372.54,0,358.85,0"/>
	<path style="fill:#FFFFFF;" d="M357.644,42.002H186.901L197.416,76.5h130.29v12H201.073l4.571,14.999h122.061v12H209.302
		l22.625,74.235v-6.292h95.779v12h-94.039l4.571,14.999h89.468v12h-85.81l19.645,64.456h66.165v11.999h-62.508l4.571,14.999h57.937
		v12h-54.28l13.591,44.593h70.628v-67.963c-16.754-8.613-28.214-26.067-28.214-46.203s11.463-37.597,28.214-46.211V42.002"/>
	<polyline style="fill:#BABABA;" points="327.705,183.441 231.927,183.441 231.927,189.733 233.666,195.44 327.705,195.44 
		327.705,183.441 	"/>
	<polyline style="fill:#BABABA;" points="327.705,210.44 238.238,210.44 241.895,222.439 327.705,222.439 327.705,210.44 	"/>
	<polyline style="fill:#FDA589;" points="327.705,286.895 261.54,286.895 265.197,298.894 327.705,298.894 327.705,286.895 	"/>
	<polyline style="fill:#FDA589;" points="327.705,313.894 269.768,313.894 273.426,325.893 327.705,325.893 327.705,313.894 	"/>
	<polyline style="fill:#FBE98E;" points="327.705,76.5 197.416,76.5 201.073,88.5 327.705,88.5 327.705,76.5 	"/>
	<polyline style="fill:#FBE98E;" points="327.705,103.499 205.644,103.499 209.302,115.499 327.705,115.499 327.705,103.499 	"/>
	<path style="fill:#86D359;" d="M116.8,394.31c0,18.92-10.12,35.49-25.25,44.56c-7.8,4.68-16.92,7.37-26.67,7.37
		c-28.68,0-51.93-23.25-51.93-51.93c0-27.77,21.8-50.45,49.22-51.86c0.9-0.05,1.8-0.07,2.71-0.07
		C93.55,342.38,116.8,365.63,116.8,394.31"/>
	<path style="fill:#29ABE2;" d="M433.29,256.32c0,19.36-10.6,36.25-26.31,45.17c-7.56,4.3-16.3,6.75-25.62,6.75
		c-28.68,0-51.93-23.24-51.93-51.92c0-27.36,21.16-49.78,48-51.78c1.3-0.1,2.61-0.15,3.93-0.15
		C410.04,204.39,433.29,227.64,433.29,256.32"/>
	<path style="fill:#FFFFFF;" d="M45.473,104.848c-6.957,0-12.616-5.66-12.616-12.616s5.66-12.617,12.616-12.617
		c6.957,0,12.617,5.66,12.617,12.617S52.43,104.848,45.473,104.848z M45.473,84.984c-3.996,0-7.247,3.251-7.247,7.247
		s3.251,7.247,7.247,7.247s7.247-3.251,7.247-7.247S49.469,84.984,45.473,84.984z"/>
	<path style="fill:#FFFFFF;" d="M84.276,139.031c-6.956,0-12.617-5.66-12.617-12.617c0-6.956,5.66-12.616,12.617-12.616
		s12.617,5.66,12.617,12.616C96.893,133.371,91.233,139.031,84.276,139.031 M84.276,119.168c-3.996,0-7.247,3.251-7.247,7.247
		c0,3.996,3.252,7.247,7.247,7.247c3.996,0,7.247-3.251,7.247-7.247C91.523,122.419,88.272,119.168,84.276,119.168"/>
	<polyline style="fill:#FFFFFF;" points="61.272,141.258 56.006,140.212 68.478,77.388 73.745,78.434 61.272,141.258 	"/>
	<polyline style="fill:#FFFFFF;" points="413.898,278.277 411.29,283.782 389.922,268.646 394.987,264.872 413.898,278.277 	"/>
	<polygon style="fill:#FFFFFF;" points="359.398,223.777 372.803,242.686 369.03,247.753 353.893,226.385 	"/>
	<path style="fill:#FFFFFF;" d="M411.29,283.782l-12.316,5.071c-11.872-3.894-22.462-10.496-31.059-19.094
		c-8.598-8.596-15.2-19.188-19.094-31.059l5.072-12.316l15.137,21.368l-5.037,1.568c2.885,5.086,6.434,9.734,10.532,13.831
		c4.098,4.098,8.745,7.645,13.831,10.532l1.568-5.037L411.29,283.782"/>
	<path style="fill:#FFFFFF;" d="M64.876,418.853H54.102v-6h10.773c4.285,0,7.772-3.487,7.772-7.772c0-4.286-3.487-7.773-7.772-7.773
		c-7.594,0-13.773-6.178-13.773-13.772s6.179-13.773,13.773-13.773h10.772v6H64.876c-4.286,0-7.773,3.487-7.773,7.773
		s3.487,7.772,7.773,7.772c7.594,0,13.772,6.179,13.772,13.773C78.648,412.675,72.469,418.853,64.876,418.853"/>
	<polyline style="fill:#FFFFFF;" points="67.873,372.764 61.873,372.764 61.873,358.093 67.873,358.093 67.873,372.764 	"/>
	<rect x="61.873" y="415.853" style="fill:#FFFFFF;" width="6" height="14.672"/>
	<path style="fill:#4D4D4D;" d="M237.4,400.48c0,6.55-4.66,12.01-10.85,13.24c-0.86,0.17-1.74,0.26-2.65,0.26
		c-7.45,0-13.5-6.041-13.5-13.5c0-5.61,3.44-10.43,8.32-12.47c1.59-0.66,3.34-1.03,5.18-1.03
		C231.36,386.98,237.4,393.03,237.4,400.48"/>
	<path style="fill:#6EC6EB;" d="M381.36,204.39c-1.32,0-2.63,0.05-3.93,0.15l18.618,61.085l17.849,12.652l-2.608,5.506l-8.624,3.551
		l4.315,14.156c15.71-8.92,26.31-25.81,26.31-45.17C433.29,227.64,410.04,204.39,381.36,204.39"/>
	<polyline style="fill:#FFFFFF;" points="396.048,265.624 398.91,275.012 411.29,283.782 413.898,278.277 396.048,265.624 	"/>
	<polyline style="fill:#FFFFFF;" points="398.91,275.012 402.665,287.334 411.29,283.782 398.91,275.012 	"/>
	<path style="fill:#FDA589;" d="M84.276,119.168c-1.931,0-3.688,0.759-4.988,1.995l3.779,12.398
		c0.393,0.066,0.797,0.101,1.209,0.101c3.996,0,7.247-3.251,7.247-7.247C91.523,122.419,88.272,119.168,84.276,119.168 M64.88,57.39
		c-1.67,0-3.33,0.08-4.96,0.24l7.558,24.793l0.999-5.034l5.267,1.046L70.793,93.3l6.829,22.401c1.933-1.204,4.214-1.901,6.654-1.901
		c6.957,0,12.617,5.66,12.617,12.616c0,6.804-5.414,12.367-12.161,12.609L89.6,154.99c16.2-8.79,27.2-25.94,27.2-45.67
		c0-19.501-10.747-36.49-26.64-45.368C82.679,59.772,74.057,57.39,64.88,57.39"/>
	<path style="fill:#FFFFFF;" d="M84.276,113.798c-2.44,0-4.721,0.697-6.654,1.901l1.666,5.464c1.3-1.236,3.058-1.995,4.988-1.995
		c3.996,0,7.247,3.251,7.247,7.247s-3.251,7.247-7.247,7.247c-0.412,0-0.816-0.035-1.209-0.101l1.665,5.463
		c6.746-0.241,12.161-5.805,12.161-12.609C96.893,119.458,91.233,113.798,84.276,113.798"/>
	<polyline style="fill:#FFFFFF;" points="68.478,77.388 67.478,82.422 70.794,93.298 73.745,78.434 68.478,77.388 	"/>
	<path style="fill:#ADE18E;" d="M64.88,342.38c-0.91,0-1.81,0.02-2.71,0.07l4.766,15.643h0.936v3.072l2.62,8.597h5.155v6H72.32
		l19.23,63.108c15.13-9.07,25.25-25.64,25.25-44.56c0-8.588-2.084-16.688-5.775-23.824c-4.69-9.067-11.971-16.576-20.865-21.544
		C82.679,344.762,74.057,342.38,64.88,342.38"/>
	<polyline style="fill:#FFFFFF;" points="75.648,369.762 70.492,369.762 72.321,375.762 75.648,375.762 75.648,369.762 	"/>
	<polyline style="fill:#FFFFFF;" points="67.873,358.093 66.937,358.093 67.873,361.165 67.873,358.093 	"/>
	<path style="fill:#ADADAD;" d="M223.9,386.98c-1.84,0-3.59,0.37-5.18,1.03l7.83,25.71c6.19-1.23,10.85-6.69,10.85-13.24
		C237.4,393.03,231.36,386.98,223.9,386.98"/>
</g>
<g>
</g>
<g>
</g>
<g>
</g>
<g>
</g>
<g>
</g>
<g>
</g>
<g>
</g>
<g>
</g>
<g>
</g>
<g>
</g>
<g>
</g>
<g>
</g>
<g>
</g>
<g>
</g>
<g>
</g>
</svg>
